<svg xmlns="http://www.w3.org/2000/svg" width="800" height="400" viewBox="0 0 400 200"><path fill="#fff" d="M0 0h400v200H0z"/><path fill="#085" d="M113.44 59.352c-8.51-4.517-8.5-18.55.02-22.845 3.7-1.865 10.44-1.571 13.97.609 10.45 6.448 6.44 22.333-5.91 23.422-3.22.283-6.11-.141-8.08-1.186zM5 5v190h390V5H200zm39.224 13.722H163.02v70.722h-18.7l-4.52-5.013c-2.49-2.758-7.11-7.973-10.26-11.579-4.13-4.716-6.93-6.874-9.95-7.718-2.66-.743-12.19-1.041-25.915-.825l-21.679.33-3.537 3.859c-1.931 2.123-4.763 6.161-6.304 8.972-1.541 2.812-3.054 5.351-3.362 5.641-1.877 1.768-4.626 8.564-4.308 10.655.505 3.314 5.815 6.153 8.511 4.552 1.082-.643 4.888-5.749 8.475-11.348l6.514-10.192h7.284c7.03 0 7.273.083 6.549 2.375-.79 2.504-7.424 16.363-9.981 20.847-1.283 2.25-3.39 18.43-4.307 33.25l-.246 4.22-20.172.6c-11.095.32-20.213.68-20.277.79-.065.11-1.431 1.32-3.012 2.7-2.8 2.45-5.688 9.42-4.413 10.62 1.051.99 55.939.69 58.766-.33 4.22-1.51 5.167-5.03 5.954-21.5.409-8.57 1.073-15.55 1.471-15.54.653.02 4.032 6.35 23.779 44.7 7.06 13.7 9.29 15.43 19.82 15.43 7.45.01 7.62-.06 5.92-2.9-2.22-3.71-31.31-60.57-31.94-62.44-.37-1.11 1.09-5.49 3.4-10.26 5.74-11.868 6.38-13.069 7.11-12.963.36.052 3.72 3.495 7.46 7.653l6.83 7.55 12.5.3 12.54.3v80.05l-5.22 5.35-5.22 5.31h-11.03c-6.07 0-11.03-.43-11.03-.96s.38-1.14.84-1.35c.46-.21 3.35-2.87 6.41-5.9l5.57-5.51h-17.52l-7.56 6.86-7.53 6.86H72.416c-21.061 0-38.278-.29-38.278-.63 0-.33 2.269-2.73 5.043-5.34l5.043-4.75v-26.23H33.578c-5.856 0-10.647-.42-10.647-.95s1.092-3.64 2.417-6.9c2.619-6.44 8.046-11.77 13.028-12.79 1.683-.35 3.677-.84 4.447-1.06 1.099-.32 1.401-12.83 1.401-57.957zM257.75 39.833l23.5.033 23.53.033 32.71 30.315 32.75 30.316-12.01 10.92c-6.6 6-21.17 19.41-32.4 29.82l-20.42 18.9h-47.13l22.69-21.08 22.69-21.11h-37.82l-37.82-.04V82.056h75.5c-15.57-14.143-31.69-28.914-45.77-42.223z"/></svg>