<svg width="105.83334mm" height="105.83334mm" viewBox="0 0 105.83334 105.83334" version="1.1" id="svg1" xmlns="http://www.w3.org/2000/svg"><g id="layer1" transform="translate(-61.912498,-67.73333)"><rect width="105.83334" height="105.83334" style="fill:#ffffff;stroke-width:0.529167" id="rect20992" x="61.912498" y="67.73333"/><rect x="64.558342" y="70.379173" width="100.54166" height="100.54166" style="fill:#237f52;fill-opacity:1;stroke-width:0.529167" id="rect20994"/><g id="g1127" transform="matrix(0.52916667,0,0,0.52916667,-57.466019,86.932493)"><g id="g3" transform="translate(225.30348,-36.289877)"><path id="circle21002-2" style="fill:#ffffff;stroke:none;stroke-width:2.73754" d="M 79.342773,56.091797 C 67.453829,56.091553 57.815729,65.72922 57.81543,77.618164 c -2.4e-4,11.889326 9.638017,21.527588 21.527343,21.527344 11.889322,2.38e-4 21.527587,-9.638022 21.527347,-21.527344 -3e-4,-11.88894 -9.638407,-21.526605 -21.527347,-21.526367 z M 55.918945,106.46582 c -16.682425,0 -30.112304,13.43086 -30.112304,30.11328 v 6.66016 h 22.577148 v -3.67285 c -5.6e-5,-0.98075 0.789763,-1.76955 1.770508,-1.76953 0.980745,0 1.770508,0.78878 1.770508,1.76953 v 38.08691 h 54.382815 v -39.02734 c 0,0 13.12896,20.91159 20.06198,31.01958 0.76641,1.05564 1.73324,1.9942 2.89212,2.75483 5.15097,3.38081 12.01958,1.95566 15.40039,-3.19531 l 29.56836,-45.05176 c 3.38081,-5.15097 1.95566,-12.01958 -3.19531,-15.40039 -5.15098,-3.38081 -12.01959,-1.95566 -15.40039,3.19531 l -20.11524,30.64844 -20.41308,-31.10156 c -2.06063,-3.13955 -5.4192,-4.8733 -8.89258,-5 v -0.0293 z M 22.90332,147.8623 v 18.28028 H 48.383789 V 147.8623 Z m 2.903321,23.00391 v 6.78711 h 22.577148 v -6.78711 z"/><path d="m 355.81961,1.7958089 h 47.168 V 17.518809 h -47.168 z m 15.723,-15.7229999 h 15.723 v 47.168 h -15.723 z" style="fill:#ffffff" id="path20996" transform="translate(-225.30348,36.289877)"/></g></g></g></svg>