<svg xmlns="http://www.w3.org/2000/svg" width="15000" height="15000"><path fill="#f4f8f4" d="M500 500h14000v14000H500z"/><path fill="#0f8558" d="M12482 14307H6995s-498-471-748-708c-194-165-211-277-544-270-362 6-725 13-1087 19l1022 959H4116l-816-820V7680h1500c235 0 268-32 420-184l869-1027c241 527 468 975 708 1484 27 52 91 169 43 260l-2388 4822 876-3c458 10 649-306 810-589 646-1302 1295-2603 1942-3905l122 2317c32 401 303 503 658 514l4012 9c0-461-457-1070-1201-1099 0 0-1433 16-2182 19-95 0-121-53-132-132-35-596-68-1196-105-1792-23-296-49-501-135-725-280-600-560-1197-840-1795l1025-12c27-1 48 5 62 29l742 1300c306 558 1133 151 856-441l-910-1522c-160-238-233-320-649-333 0 0-1943-3-2916-3-316-7-352 92-503 253-406 501-850 1035-1246 1502-55 66-86 93-217 93H3300V2147l8366 8s-13 5319-6 7922c853 27 1440 672 1472 1503-480 6-974-17-1466-11v1918l816 820zm2018 193V500H500v14000h14000zM6368 2650c-557 0-984 428-984 988 0 561 427 989 984 989s985-428 985-989c0-560-428-988-985-988z"/></svg>