<svg xmlns="http://www.w3.org/2000/svg" width="172.69652" height="172.69652" id="svg4874" version="1.1"><g id="layer1" transform="translate(-322.21171,-534.58662)"><g id="g3364"><g id="g3044"><path id="rect3748-2" d="m 325.99042,538.3526 165.16202,0 0,165.16201 -165.16202,0 0,-165.16201 z" style="fill:#ff6600;fill-opacity:1;stroke:none"/><path style="font-size:medium;font-style:normal;font-variant:normal;font-weight:normal;font-stretch:normal;text-indent:0;text-align:start;text-decoration:none;line-height:normal;letter-spacing:normal;word-spacing:normal;text-transform:none;direction:ltr;block-progression:tb;writing-mode:lr-tb;text-anchor:start;baseline-shift:baseline;color:#000000;fill:#000000;fill-opacity:1;stroke:none;stroke-width:7.53441381;marker:none;visibility:visible;display:inline;overflow:visible;enable-background:accumulate;font-family:'3 of 9 Barcode';-inkscape-font-specification:'3 of 9 Barcode'" d="m 322.21875,534.59375 0,3.75 0,165.15625 0,3.78125 3.78125,0 165.15625,0 3.75,0 0,-3.78125 0,-165.15625 0,-3.75 -3.75,0 -165.15625,0 -3.78125,0 z m 7.53125,7.53125 157.625,0 0,157.625 -157.625,0 0,-157.625 z" id="rect3748"/></g><g transform="matrix(0.83858705,0,0,0.83858705,95.126599,282.2256)" id="g7811"><g transform="translate(245.69301,54)" id="g4050"><path style="fill:#000000;fill-rule:evenodd;stroke:none" d="m 93.626866,423.96631 c 0,0 10.596494,-0.0416 10.596494,-0.0416 -35.994221,-19.37139 -11.381886,-42.5916 -30.086769,-71.74147 0,0 8.181727,2.00237 13.767703,9.35611 6.705722,-18.54976 0.423278,-34.26549 -4.353533,-39.95217 6.363961,-0.35355 13.090263,8.06583 17.828349,13.82837 9.19878,-15.93275 2.95086,-32.06565 -3.118707,-40.89411 12.692147,3.40085 17.770297,16.12385 17.770297,16.12385 1.59099,-4.41942 -2.1664,-30.02737 4.94191,-45.36636 0,16.97149 19.47478,30.32703 19.47478,45.94953 3.45373,3.45372 2.58391,-10.5424 1.29549,-15.35086 20.24079,14.76072 17.14055,45.72024 18.41413,56.54569 4.14295,-7.17581 7.74412,-13.84214 7.70967,-20.24517 5.73823,9.9389 9.35351,34.51335 9.35351,37.3638 2.83395,0 4.4142,-4.76514 4.4142,-4.76514 0,15.23088 5.28706,35.35103 -24.09063,59.1895 0,0 11.91131,0 11.91131,0 l 0,4.77542 c 0,0 -75.828204,-0.0683 -75.828204,-0.0683 l 0,-4.70709 z" id="path3477"/><g id="g4046"><path id="path3992" d="m 120.73848,328.10806 c 2.92964,-10.93353 4.06147,-20.25441 1.76777,-28.8146 10.31391,17.86421 1.90339,25.14345 -1.76777,28.8146 z" style="fill:#ffffff;fill-rule:evenodd;stroke:none"/><path id="path3994" d="m 126.75,419.61218 c -19.80657,0 -28.743986,-25.67196 -19.75,-41.25 6.15277,22.96244 13.25,22.25 13.25,22.25 -8.87711,-15.3756 0.5,-31.25 0.5,-31.25 2.57241,9.60035 4.5945,12.4513 9.875,15.5 -2.50636,-7.01779 4.44211,-23.99146 -1.625,-34.5 17.22244,9.94338 10.75,37.25 10.75,37.25 6.96924,-12.07108 8.92287,-14.07908 12.25,-16 0,7.88282 0.31102,15.19815 -2.75,20.5 0,0 5.43985,-5.26257 9.125,-6.25 0,11.76133 -11.94343,33.75 -31.625,33.75 z" style="fill:#ffffff;fill-rule:evenodd;stroke:none"/></g></g><path id="text4495" d="m 446.29788,344.72849 -6.9082,0 0,-26.17383 19.86328,0 0,5.76562 -12.95508,0 0,4.53516 10.33594,0 0,5.64258 -10.33594,0 0,10.23047" style="font-size:36px;font-style:normal;font-variant:normal;font-weight:normal;font-stretch:normal;text-align:start;line-height:125%;writing-mode:lr-tb;text-anchor:start;fill:#000000;fill-opacity:1;stroke:none;font-family:Choque Display SSi;-inkscape-font-specification:Choque Display SSi"/></g></g></g></svg>