<svg version="1.1" viewBox="0 0 16500 16500" preserveAspectRatio="xMidYMid" fill-rule="evenodd" xmlns="http://www.w3.org/2000/svg" xmlns:xlink="http://www.w3.org/1999/xlink"><g visibility="visible" id="Default"><desc>Master slide</desc></g><g visibility="visible" id="page1"><desc>Slide</desc><g><desc>Group</desc><g><desc>Drawing</desc><g><g style="stroke:none;fill:rgb(0,0,0)"><path d="M 8618,402 L 8625,3070 8025,3072 8018,404 8618,402 Z"/></g><g/></g></g><g><desc>Drawing</desc><g><g style="stroke:none;fill:rgb(0,0,0)"><path d="M 9748,5103 L 9746,5033 9741,4964 9732,4895 9720,4827 9704,4759 9685,4692 9663,4626 9637,4562 9608,4498 9575,4437 9540,4377 9502,4319 9461,4263 9417,4209 9370,4157 9321,4108 9269,4061 9215,4017 9159,3976 9101,3938 9041,3903 8980,3870 8916,3841 8852,3815 8786,3793 8719,3774 8651,3758 8583,3746 8514,3737 8445,3732 8375,3730 8375,3730 8305,3732 8236,3737 8167,3746 8099,3758 8031,3774 7964,3793 7898,3815 7834,3841 7770,3870 7709,3903 7649,3938 7591,3976 7535,4017 7481,4061 7429,4108 7380,4157 7333,4209 7289,4263 7248,4319 7210,4377 7175,4437 7142,4498 7113,4562 7087,4626 7065,4692 7046,4759 7030,4827 7018,4895 7009,4964 7004,5033 7002,5103 7002,5103 7004,5173 7009,5242 7018,5311 7030,5379 7046,5447 7065,5514 7087,5580 7113,5644 7142,5708 7175,5769 7210,5829 7248,5887 7289,5943 7333,5997 7380,6049 7429,6098 7481,6145 7535,6189 7591,6230 7649,6268 7709,6303 7770,6336 7834,6365 7898,6391 7964,6413 8031,6432 8099,6448 8167,6460 8236,6469 8305,6474 8375,6476 8375,6476 8445,6474 8514,6469 8583,6460 8651,6448 8719,6432 8786,6413 8852,6391 8916,6365 8980,6336 9041,6303 9101,6268 9159,6230 9215,6189 9269,6145 9321,6098 9370,6049 9417,5997 9461,5943 9502,5887 9540,5829 9575,5769 9608,5708 9637,5644 9663,5580 9685,5514 9704,5447 9720,5379 9732,5311 9741,5242 9746,5173 9748,5103 Z"/></g><g/></g></g><g><desc>Drawing</desc><g><g style="stroke:none;fill:rgb(0,0,0)"><path d="M 11242,1414 L 9712,3579 9222,3233 10752,1068 11242,1414 Z"/></g><g/></g></g><g><desc>Drawing</desc><g><g style="stroke:none;fill:rgb(0,0,0)"><path d="M 14446,3205 L 10355,4708 10149,4144 14240,2641 14446,3205 Z"/></g><g/></g></g><g><desc>Drawing</desc><g><g style="stroke:none;fill:rgb(0,0,0)"><path d="M 16164,7497 L 10225,5965 10375,5385 16314,6917 16164,7497 Z"/></g><g/></g></g><g><desc>Drawing</desc><g><g style="stroke:none;fill:rgb(0,0,0)"><path d="M 15388,13955 L 9406,6896 9864,6508 15846,13567 15388,13955 Z"/></g><g/></g></g><g><desc>Drawing</desc><g><g style="stroke:none;fill:rgb(0,0,0)"><path d="M 8006,10974 L 8000,7159 8600,7159 8606,10974 8006,10974 Z"/></g><g/></g></g><g><desc>Drawing</desc><g><g style="stroke:none;fill:rgb(0,0,0)"><path d="M 3452,10719 L 6811,6501 7281,6875 3922,11093 3452,10719 Z"/></g><g/></g></g><g><desc>Drawing</desc><g><g style="stroke:none;fill:rgb(0,0,0)"><path d="M 180,7082 L 6282,5338 6446,5914 344,7658 180,7082 Z"/></g><g/></g></g><g><desc>Drawing</desc><g><g style="stroke:none;fill:rgb(0,0,0)"><path d="M 2500,2497 L 6539,4080 6321,4638 2282,3055 2500,2497 Z"/></g><g/></g></g><g><desc>Drawing</desc><g><g style="stroke:none;fill:rgb(0,0,0)"><path d="M 6009,1042 L 7460,3237 6960,3567 5509,1372 6009,1042 Z"/></g><g/></g></g><g><desc>Drawing</desc><g><g style="stroke:none;fill:rgb(0,0,0)"><path d="M 5203,13057 L 5159,13060 5115,13068 5072,13080 5030,13097 4989,13119 4950,13144 4913,13172 4879,13204 4847,13238 4819,13275 4794,13314 4772,13355 4755,13397 4743,13440 4735,13484 4732,13528 4732,15626 4735,15670 4743,15714 4755,15757 4772,15799 4794,15839 4819,15878 4847,15915 4879,15950 4913,15981 4950,16010 4989,16035 5030,16056 5072,16074 5115,16086 5159,16094 5203,16097 7087,16097 7131,16094 7175,16086 7218,16074 7260,16056 7300,16035 7339,16010 7376,15981 7411,15950 7442,15915 7471,15878 7496,15839 7517,15799 7535,15757 7547,15714 7555,15670 7558,15626 7558,13528 7555,13484 7547,13440 7535,13397 7517,13355 7496,13314 7471,13275 7442,13238 7411,13204 7376,13172 7339,13144 7300,13119 7260,13097 7218,13080 7175,13068 7131,13060 7087,13057 5203,13057 Z"/></g><g/></g></g><g><desc>Drawing</desc><g><g style="stroke:none;fill:rgb(0,0,0)"><path d="M 1752,12340 L 6030,10243 6558,11321 2280,13418 1752,12340 Z"/></g><g/></g></g><g><desc>Drawing</desc><g><g style="stroke:none;fill:rgb(0,0,0)"><path d="M 10027,13492 L 5510,11323 6030,10241 10547,12410 10027,13492 Z"/></g><g/></g></g></g></g></svg>