<svg width="200" height="200" version="1.1" viewBox="0 0 200 200" xml:space="preserve" xmlns="http://www.w3.org/2000/svg"><g fill="none" stroke="#999" stroke-width="3"><path d="m0 16v-16h16"/><path d="m200 16v-16h-16"/><path d="m0 184v16h16"/><path d="m200 184v16h-16"/></g><rect x="16.865" y="47.961" width="165.46" height="104.43" fill="none" stroke="#000" stroke-width="5"/><path d="m92.832 64.895-3.998 19.637h-13.727v7h12.303l-3.3594 16.502h-8.9434v7h7.5176l-3.9746 19.529h7.1445l3.9746-19.529h14.225l-3.9746 19.529h7.1426l3.9746-19.529h13.971v-7h-12.545l3.3594-16.502h9.1855v-7h-7.7617l3.998-19.637h-7.1445l-3.9961 19.637h-14.225l3.9961-19.637h-7.1426zm1.7207 26.637h14.225l-3.3574 16.502h-14.225l3.3574-16.502z" fill="#000" fill-rule="evenodd"/></svg>