<svg width="200" height="200" version="1.1" xmlns="http://www.w3.org/2000/svg"><g fill="none"><g stroke="#999" stroke-width="3"><path d="m0 16v-16h16"/><path d="m200 16v-16h-16"/><path d="m0 184v16h16"/><path d="m200 184v16h-16"/></g><g stroke="#000" stroke-width="5"><path d="m180.84 166.32c-6.5897 0-26.177-12.016-26.177-32.987v-116.22h-106.35v116.22c0 18.275 14.712 32.987 32.987 32.987h99.537"/><path d="m34.861 30.561v149.21h106.67"/><path d="m80.598 83.519h5.7352c3.1357-0.01828 6.2753 0.76466 9.085 2.3488 5.5554 3.1322 8.9778 8.9207 8.9778 15.185v4.4023c0 6.15-3.4223 11.833-8.9778 14.908-5.5554 3.075-12.4 3.075-17.956 0-5.5554-3.075-8.9778-8.7578-8.9778-14.908v-4.2583"/><path d="m86.335 83.52c8.7465-2e-6 15.837-7.5893 15.837-16.951v-1.7378c0-8.7465-7.0904-15.837-15.837-15.837-8.7465 0-15.837 7.0904-15.837 15.837v3.1087"/><path d="m112.6 71.019 22.974-19.375v73.528"/></g></g></svg>