<svg width="200" height="200" version="1.1" xmlns="http://www.w3.org/2000/svg"><g fill="none" stroke="#999" stroke-width="3"><path d="m0 16v-16h16"/><path d="m200 16v-16h-16"/><path d="m0 184v16h16"/><path d="m200 184v16h-16"/></g><path d="m49.789 135.13v46.863h100.42v-46.863z"/><path d="m150.21 18.008v50.621a10.919 10.919 0 0 1-5.4593 9.4558l-28.643 16.537a6.2093 6.2093 0 0 0 0 10.755l28.643 16.537a10.919 10.919 0 0 1 5.4593 9.4558v50.621h-100.42v-50.621a10.919 10.919 0 0 1 5.4593-9.4558l28.643-16.537a6.2093 6.2093 0 0 0 0-10.755l-28.643-16.537a10.919 10.919 0 0 1-5.4593-9.4558v-50.621z" fill="none" stroke="#000" stroke-width="4"/></svg>