<svg width="200" height="200" version="1.1" xmlns="http://www.w3.org/2000/svg"><g fill="none" stroke="#999" stroke-width="3"><path d="m0 16v-16h16"/><path d="m200 16v-16h-16"/><path d="m0 184v16h16"/><path d="m200 184v16h-16"/></g><path d="m63.559 184.96v-6.3559l31.144-3.2688-0.0023-72.983c-7.355-1.1279-14.158-4.5733-19.42-9.8349-6.5558-6.5558-10.239-15.447-10.239-24.719l-1e-6 -52.754h69.915v52.754c0 9.2713-3.683 18.163-10.239 24.719-5.2617 5.2617-12.065 8.7071-19.42 9.8349l-2e-3 72.983 31.144 3.2688v6.3559h-72.881z"/></svg>