<svg width="200" height="200" version="1.1" xmlns="http://www.w3.org/2000/svg"><g fill="none" stroke="#999" stroke-width="3"><path d="m0 16v-16h16"/><path d="m200 16v-16h-16"/><path d="m0 184v16h16"/><path d="m200 184v16h-16"/></g><path d="m44.762 55.006c-4.0494 0-7.3086 3.2612-7.3086 7.3105v58.748h10.982v-45.217h4.5v45.217 57.945h7.7891v-66.164h10.982v66.164h7.791v-57.945-45.217h4.5v45.217h10.982v-58.748c0-4.0494-3.2612-7.3105-7.3105-7.3105h-42.908z"/><g><circle cx="66.217" cy="35.064" r="11.758" stroke-width="4"/><path d="m150.64 66.965-8.0938 65.918h5.0391l8.0918-65.918z"/><path d="m130.71 66.965-8.0938 65.918h5.0371l8.0938-65.918z"/><path d="m115.35 88.089h49.737" stroke="#000" stroke-width="5"/><path d="m115.35 111.31h49.737" stroke="#000" stroke-width="5"/></g></svg>