<svg width="53.710415mm" height="53.710415mm" viewBox="0 0 53.710415 53.710415" version="1.1" id="svg10657" xmlns="http://www.w3.org/2000/svg"><g id="layer1" transform="translate(-49.889867,-157.26415)"><g fill="none" id="g50898" transform="matrix(0.26458333,0,0,0.26458333,50.286742,157.66102)"><g stroke="#999999" stroke-width="3" id="g50892"><path d="M 0,16 V 0 h 16" id="path50884"/><path d="M 200,16 V 0 h -16" id="path50886"/><path d="m 0,184 v 16 h 16" id="path50888"/><path d="m 200,184 v 16 h -16" id="path50890"/></g></g><path id="path10106-3" style="color:#000000;display:inline;fill:#000000;fill-opacity:1" d="m 60.625129,168.76189 c -1.13373,0.0256 -3.666202,0.40791 -7.696171,3.4215 v 1.59784 c 4.313336,-3.44524 6.749236,-3.73327 7.725109,-3.75533 h 12.580111 c 0.474477,0.007 1.213986,0.45909 1.783354,1.13068 0.569367,0.67159 0.941616,1.54486 0.949296,1.96474 v 4.38113 l -4.07417,-4.07417 h -8.05894 l -0.01137,0.002 c -6.198494,0.21212 -10.310481,5.39536 -10.310481,10.68978 0,5.29442 4.111987,10.47921 10.310481,10.69134 h 0.01137 8.05894 l 4.07417,-4.07417 v 4.38268 c -0.0077,0.41987 -0.379929,1.29315 -0.949296,1.96474 -0.569368,0.67159 -1.308877,1.12215 -1.783354,1.12913 H 60.654067 c -0.975873,-0.0221 -3.411773,-0.30833 -7.725109,-3.75326 v 1.59576 c 4.029969,3.01349 6.562441,3.39535 7.696171,3.42098 h 0.0078 12.615251 0.0057 c 1.092386,-0.0161 2.018143,-0.73821 2.728516,-1.57613 0.710373,-0.83791 1.232685,-1.80997 1.250053,-2.75952 v -0.006 -6.04304 h -1.41025 l -4.452958,4.45348 h -7.501868 c -5.514548,-0.18873 -9.091952,-4.78397 -9.091952,-9.42579 0,-4.64181 3.577404,-9.23705 9.091952,-9.42578 h 7.501868 l 4.452958,4.45296 h 1.41025 v -6.04304 -0.006 c -0.01743,-0.94954 -0.539745,-1.92212 -1.250118,-2.76004 -0.710373,-0.83791 -1.63613,-1.56006 -2.728516,-1.57613 h -0.0057 -12.615251 z m 34.250622,0.49661 -5.117,5.117 0.733288,1.27073 2.345594,4.0628 0.733805,1.27021 6.989752,-1.87327 -0.32866,-1.22164 -6.050793,1.62109 -0.248047,-0.42943 -2.345593,-4.0628 -0.248047,-0.42943 4.42867,-4.43125 z m -6.611999,7.56595 -20.318657,8.21294 0.47284,1.17202 20.320206,-8.21294 z m 2.292883,4.0566 -10.525456,8.91419 0.818555,0.96479 10.525456,-8.91211 z"/></g></svg>