<svg width="53.710415mm" height="53.710415mm" viewBox="0 0 53.710415 53.710415" version="1.1" id="svg17374" xmlns="http://www.w3.org/2000/svg"><g id="layer1" transform="translate(-79.830771,-122.16102)"><g fill="none" stroke="#999999" stroke-width="3" id="g160" transform="matrix(0.26458333,0,0,0.26458333,80.227646,122.55789)"><path d="M 0,16 V 0 h 16" id="path152"/><path d="M 200,16 V 0 h -16" id="path154"/><path d="m 0,184 v 16 h 16" id="path156"/><path d="m 200,184 v 16 h -16" id="path158"/></g><path id="path16820" style="color:#000000;fill:#000000" d="m 120.33269,134.27604 -1.0294,0.73226 5.05396,7.09931 c -6.13894,-3.26799 -12.73821,-4.75732 -19.28823,-4.48604 -7.176389,0.29724 -14.292375,2.70703 -20.675223,7.1975 l -1.459859,-3.45716 -1.165821,0.49196 9.248015,21.90254 1.16582,-0.49247 -7.283793,-17.25063 c 12.250825,-8.74099 27.191011,-9.5289 39.990321,-2.16834 l -10.09499,1.19476 0.14831,1.25573 12.86537,-1.52135 z m 10.10532,7.08587 -6.36188,15.06989 c -4.90589,-3.78537 -10.16587,-5.89816 -15.47192,-6.3066 -4.88237,-0.37582 -9.80451,0.69198 -14.523666,3.21996 l 4.363041,-7.08897 -1.07797,-0.66404 -6.75411,10.97659 12.939775,0.65629 0.0646,-1.26349 -10.808638,-0.54725 0.109554,-0.17777 0.109037,0.17622 c 10.007967,-6.18914 20.838307,-5.40662 30.540767,2.22622 l -2.37453,5.62498 1.16376,0.49247 9.24801,-21.90254 z"/></g></svg>