<svg width="53.710415mm" height="53.710415mm" viewBox="0 0 53.710415 53.710415" version="1.1" id="svg2522" xmlns="http://www.w3.org/2000/svg"><g id="layer1" transform="translate(-93.789949,-80.660921)"><g fill="none" id="g50898" transform="matrix(-0.26458333,0,0,0.26458333,147.10349,81.057796)"><g stroke="#999999" stroke-width="3" id="g50892"><path d="M 0,16 V 0 h 16" id="path50884"/><path d="M 200,16 V 0 h -16" id="path50886"/><path d="m 0,184 v 16 h 16" id="path50888"/><path d="m 200,184 v 16 h -16" id="path50890"/></g></g><path id="path2441" style="color:#000000;fill:#000000" d="m 102.64109,87.618636 v 1.264 h 36.00814 v -1.264 z m 0,5.64461 v 1.26556 h 36.00814 v -1.26556 z m 0.55242,3.66335 -4.058666,7.085864 1.097606,0.6289 2.39262,-4.17649 v 17.36432 h 1.26555 v -17.23823 l 2.40089,4.05815 1.08934,-0.64439 z m 34.77462,0 -4.05867,7.085864 1.09761,0.6289 2.39262,-4.17649 v 17.36432 h 1.26555 v -17.23823 l 2.40089,4.05815 1.08934,-0.64439 z m -17.32401,20.169814 c -6.356,0 -12.42982,1.21237 -18.00303,3.41737 v 1.33428 c 5.55524,-2.2629 11.63254,-3.51141 18.00303,-3.51141 6.37106,0 12.4493,1.24866 18.00511,3.51193 v -1.33429 c -5.57381,-2.20537 -11.64851,-3.41788 -18.00511,-3.41788 z m 0,5.56659 c -6.35663,0 -12.42957,1.2155 -18.00303,3.42098 v 1.3286 c 5.555,-2.26256 11.63295,-3.50935 18.00303,-3.50935 6.37075,0 12.44945,1.2474 18.00511,3.51038 v -1.32911 c -5.57413,-2.20593 -11.64778,-3.4215 -18.00511,-3.4215 z"/></g></svg>