<svg width="53.710415mm" height="53.710415mm" viewBox="0 0 53.710415 53.710415" version="1.1" id="svg1999" xmlns="http://www.w3.org/2000/svg"><g id="layer1" transform="translate(-88.778627,-99.791375)"><g fill="none" stroke="#999999" stroke-width="3" id="g160" transform="matrix(0.26458333,0,0,0.26458333,89.175502,100.18825)"><path d="M 0,16 V 0 h 16" id="path152"/><path d="M 200,16 V 0 h -16" id="path154"/><path d="m 0,184 v 16 h 16" id="path156"/><path d="m 200,184 v 16 h -16" id="path158"/></g><path id="path918" style="fill:#000000;stroke:none;stroke-width:1.32022" d="m 115.06694,118.11248 -4.56199,7.90236 H 95.092962 c -0.29452,-1.2854 -1.43822,-2.19672 -2.75693,-2.19676 -1.56236,-1.7e-4 -2.82894,1.26641 -2.82877,2.82877 1.2e-4,1.56215 1.26662,2.82842 2.82877,2.82825 1.31871,-4e-5 2.46241,-0.91137 2.75693,-2.19677 h 14.682308 l -3.07164,5.32061 1.09554,0.63303 8.36331,-14.48645 z m 3.66592,1.95131 -8.36331,14.48645 1.09554,0.63045 4.57183,-7.90244 h 16.62171 l -7.47293,4.25409 0.62529,1.09967 10.29704,-5.86217 c 0.0659,1.51192 1.31024,2.70409 2.8236,2.70526 1.56215,1.7e-4 2.82865,-1.2661 2.82877,-2.82825 1.7e-4,-1.56236 -1.26641,-2.82894 -2.82877,-2.82877 -1.53038,0.001 -2.78225,1.2194 -2.82515,2.74918 l -10.36577,-5.9061 -0.62529,1.09968 7.46518,4.254 h -15.82332 l 3.07112,-5.31854 z"/></g></svg>