<svg width="53.710415mm" height="53.710415mm" viewBox="0 0 53.710415 53.710415" version="1.1" id="svg2537" xmlns="http://www.w3.org/2000/svg"><g id="layer1" transform="translate(-70.538767,-105.6419)"><g fill="none" stroke="#999999" stroke-width="3" id="g160" transform="matrix(0.26458333,0,0,0.26458333,70.935642,106.03877)"><path d="M 0,16 V 0 h 16" id="path152"/><path d="M 200,16 V 0 h -16" id="path154"/><path d="m 0,184 v 16 h 16" id="path156"/><path d="m 200,184 v 16 h -16" id="path158"/></g><path id="path367" style="color:#000000;fill:#000000;fill-opacity:1;-inkscape-stroke:none" d="m 116.25202,126.86517 -1.03766,0.60306 4.6824,8.00519 c -0.42335,-0.27113 -0.84714,-0.53301 -1.27124,-0.78909 -10.73167,-7.49336 -28.650808,-10.2823 -43.086778,-0.35708 -1.17093,0.76273 -2.32155,1.592 -3.44888,2.48821 l 0.0894,0.11213 c -0.0388,0.0337 -0.0781,0.0659 -0.11679,0.0997 l 0.88832,0.87385 c 14.76713,-11.59775 32.488838,-10.59854 46.516538,-1.11518 l -9.43508,0.14314 0.0294,1.19993 12.66383,-0.2036 z"/></g></svg>