<svg width="53.710415mm" height="53.710415mm" viewBox="0 0 53.710415 53.710415" version="1.1" id="svg2843" xmlns="http://www.w3.org/2000/svg"><g id="layer1" transform="translate(-146.66092,-70.725437)"><g fill="none" id="g50898" transform="matrix(-0.26458333,0,0,0.26458333,199.97446,71.122312)"><g stroke="#999999" stroke-width="3" id="g50892"><path d="M 0,16 V 0 h 16" id="path50884"/><path d="M 200,16 V 0 h -16" id="path50886"/><path d="m 0,184 v 16 h 16" id="path50888"/><path d="m 200,184 v 16 h -16" id="path50890"/></g></g><path id="rect300" style="fill:#000000;fill-opacity:1;stroke:none;stroke-width:1.265" d="m 184.28963,79.105029 v 13.53044 l -19.20297,11.086661 0.81598,1.20872 c 2.97178,-1.256 4.69705,-0.59926 5.96914,0.15296 1.27373,0.75318 1.94683,2.03045 2.12494,3.47265 0.17808,1.44224 -0.17554,3.02088 -0.92553,4.18941 -0.74999,1.16852 -1.83246,1.91844 -3.23443,1.92185 h -16.46308 v 1.37304 h 16.4667 c 1.90699,-0.005 3.42282,-1.10164 4.38474,-2.55488 3.7518,-6.09052 7.69081,-13.10886 11.436,-19.568321 v -14.81253 z m -30.91646,5.2e-4 v 1.37252 h 28.21946 v -1.37252 z m 0,5.94589 v 1.372011 h 28.21946 v -1.372011 z m 0,5.945891 v 1.372009 h 28.21946 V 90.99733 Z m 30.33768,3.55534 -8.30647,14.38568 c -0.009,-0.18385 -0.0234,-0.36726 -0.046,-0.54983 -0.21895,-1.77296 -1.10493,-3.48959 -2.78743,-4.48449 -0.84125,-0.49745 -1.86042,-0.80541 -3.05873,-0.87333 -0.14978,-0.008 -0.30186,-0.0129 -0.38085,-0.0134 z m -30.33768,2.390549 v 1.372011 h 18.68516 v -1.372011 z m 0,5.945371 v 1.37253 h 8.89971 v -1.37253 z m 28.34659,5.50561 -0.68575,1.18752 8.83615,5.1015 h -4.54132 v 1.37304 h 8.33024 l -4.16047,-7.20886 -1.18907,0.6873 2.30838,3.99562 z m -28.34659,0.44028 v 1.37201 h 18.24591 v -1.37201 z"/></g></svg>