<svg width="53.710415mm" height="53.710415mm" viewBox="0 0 53.710415 53.710415" version="1.1" id="svg19909" xmlns="http://www.w3.org/2000/svg"><g id="layer1" transform="translate(-81.370598,-129.62867)"><g fill="none" id="g50898" transform="matrix(0.26458333,0,0,0.26458333,81.767473,130.02554)" style="display:inline"><g stroke="#999999" stroke-width="3" id="g50892"><path d="M 0,16 V 0 h 16" id="path50884"/><path d="M 200,16 V 0 h -16" id="path50886"/><path d="m 0,184 v 16 h 16" id="path50888"/><path d="m 200,184 v 16 h -16" id="path50890"/></g></g><path id="path19853" style="color:#000000;fill:#000000;stroke-width:0.994711" d="m 120.36021,141.83536 v 1.26556 h 9.62525 v -1.26556 z m 4.8028,2.36885 -5.17384,8.95914 1.09554,0.63252 3.44527,-5.96759 v 23.304 h 1.26607 v -23.29729 l 3.44527,5.96501 1.09554,-0.63303 z m -8.38036,1.25263 -27.507886,5.2e-4 c -1.700865,0 -3.089734,1.37478 -3.089734,3.0577 v 0.0212 c 0,1.68293 1.388869,3.05718 3.089734,3.05718 h 0.164331 v 0.001 h 24.332885 c 1.02194,0 1.82624,0.79389 1.82624,1.80506 v 0.0212 c 0,1.01116 -0.8043,1.80661 -1.82624,1.80661 h -0.16433 v -0.002 H 89.274764 c -1.700865,0 -3.089734,1.37425 -3.089734,3.05718 v 0.0212 c 0,1.68292 1.388869,3.05769 3.089734,3.05769 h 0.164331 v 0.001 h 24.332885 c 1.02194,0 1.82624,0.79389 1.82624,1.80506 v 0.0207 c 0,1.01117 -0.8043,1.80713 -1.82624,1.80713 h -1.82211 v -0.001 l -22.745386,5.2e-4 c -1.700865,0 -3.089733,1.37477 -3.089733,3.05769 v 0.0212 c 0,1.68293 1.388868,3.0577 3.089733,3.0577 h 0.164331 v 0.001 h 27.413835 v -1.25367 H 89.368815 v 10e-4 h -0.164331 c -1.021944,0 -1.826245,-0.79544 -1.826245,-1.80661 v -0.0212 c 0,-1.01116 0.804301,-1.80506 1.826245,-1.80506 h 22.745386 v -0.001 h 1.82211 c 1.70086,0 3.08973,-1.37476 3.08973,-3.0577 v -0.0207 c 0,-1.68294 -1.38887,-3.05769 -3.08973,-3.05769 H 89.439095 v 0.001 h -0.164331 c -1.021944,0 -1.826245,-0.79598 -1.826245,-1.80712 v -0.0212 c 0,-1.01117 0.804301,-1.80454 1.826245,-1.80454 h 24.332886 v -5.2e-4 h 0.16433 c 1.70086,0 3.08973,-1.37477 3.08973,-3.05769 v -0.0212 c 0,-1.68293 -1.38887,-3.0577 -3.08973,-3.0577 H 89.439095 v 0.001 h -0.164331 c -1.021944,0 -1.826245,-0.79596 -1.826245,-1.80713 v -0.0207 c 0,-1.01117 0.804301,-1.80506 1.826245,-1.80506 h 27.507886 z"/></g></svg>