<svg width="53.710415mm" height="53.710415mm" viewBox="0 0 53.710415 53.710415" version="1.1" id="svg3223" xmlns="http://www.w3.org/2000/svg"><g id="layer1" transform="translate(-26.725437,-82.080276)"><g fill="none" id="g50898" transform="matrix(0.26458333,0,0,0.26458333,27.122312,82.477151)"><g stroke="#999999" stroke-width="3" id="g50892"><path d="M 0,16 V 0 h 16" id="path50884"/><path d="M 200,16 V 0 h -16" id="path50886"/><path d="m 0,184 v 16 h 16" id="path50888"/><path d="m 200,184 v 16 h -16" id="path50890"/></g></g><path id="path3034" style="fill:#000000;stroke-width:0.334698" d="m 53.580647,92.145816 -1.444356,2.50165 v 19.900084 l 1.444356,2.50166 1.444356,-2.50166 V 94.647466 Z M 31.324638,107.65598 v 1.26401 h 18.995226 v -1.26401 z m 25.516792,0 v 1.26401 h 18.995222 v -1.26401 z m -25.516792,5.60173 v 1.26452 h 18.995226 v -1.26452 z m 25.516792,0 v 1.26452 h 18.995222 v -1.26452 z m -25.516792,5.60172 v 1.26401 h 44.512014 v -1.26401 z m 0,5.60173 v 1.264 h 44.512014 v -1.264 z"/></g></svg>