<svg width="53.710415mm" height="53.710415mm" viewBox="0 0 53.710415 53.710415" version="1.1" id="svg3075" xmlns="http://www.w3.org/2000/svg"><g id="layer1" transform="translate(-98.070632,-101.85627)"><g fill="none" id="g50898" transform="matrix(0.26458333,0,0,0.26458333,98.467507,102.25314)" style="display:inline"><g stroke="#999999" stroke-width="3" id="g50892"><path d="M 0,16 V 0 h 16" id="path50884"/><path d="M 200,16 V 0 h -16" id="path50886"/><path d="m 0,184 v 16 h 16" id="path50888"/><path d="m 200,184 v 16 h -16" id="path50890"/></g></g><path id="path919" style="color:#000000;fill:#000000;-inkscape-stroke:none" d="m 124.92662,110.67304 c -8.04426,0 -14.57999,6.53418 -14.57999,14.57843 0,8.04428 6.53573,14.57999 14.57999,14.57999 8.04425,0 14.57792,-6.53571 14.57792,-14.57999 0,-8.04425 -6.53367,-14.57843 -14.57792,-14.57843 z m 0,1.26555 c 7.3606,0 13.31236,5.95228 13.31236,13.31288 0,7.36062 -5.95176,13.31444 -13.31236,13.31444 -7.3606,0 -13.31444,-5.95382 -13.31444,-13.31444 0,-7.3606 5.95383,-13.31288 13.31444,-13.31288 z m 0,10.61537 c -1.48224,0 -2.69751,1.2153 -2.69751,2.69751 0,1.48224 1.21527,2.69906 2.69751,2.69906 1.48223,0 2.69751,-1.21682 2.69751,-2.69906 0,-1.48221 -1.21528,-2.69751 -2.69751,-2.69751 z m 0,1.26556 c 0.79857,0 1.43143,0.63337 1.43143,1.43195 0,0.79858 -0.63286,1.43351 -1.43143,1.43351 -0.79858,0 -1.43351,-0.63493 -1.43351,-1.43351 0,-0.79858 0.63493,-1.43195 1.43351,-1.43195 z m -17.31523,21.66483 v 1.26556 h 34.6289 v -1.26556 z"/></g></svg>