<svg width="53.710415mm" height="53.710415mm" viewBox="0 0 53.710415 53.710415" version="1.1" id="svg3459" xmlns="http://www.w3.org/2000/svg"><g id="layer1" transform="translate(-145.59641,-84.209308)"><g fill="none" id="g50898" transform="matrix(0.26458333,0,0,0.26458333,145.99328,84.606183)" style="display:inline"><g stroke="#999999" stroke-width="3" id="g50892"><path d="M 0,16 V 0 h 16" id="path50884"/><path d="M 200,16 V 0 h -16" id="path50886"/><path d="m 0,184 v 16 h 16" id="path50888"/><path d="m 200,184 v 16 h -16" id="path50890"/></g></g><path id="path3355" style="color:#000000;fill:#000000" d="m 159.24492,90.932668 -8.98653,6.3376 0.72864,1.03301 5.86269,-4.13359 c -2.4015,4.92455 -3.69826,10.210892 -3.90313,15.530832 h -2.8024 v 2.72748 h 2.7931 c 0.16639,5.26538 1.39972,10.50867 3.69177,15.4125 l -5.69474,-4.01526 -0.7307,1.03301 8.98652,6.33812 1.00976,-10.90632 -1.25987,-0.11523 -0.74053,8.01243 c -2.48583,-4.98532 -3.82208,-10.35996 -3.9982,-15.75925 h 1.53737 v 3.49385 h 33.4238 V 112.428 h 5.59656 v -2.72748 h -5.59656 v -3.49333 h -33.4238 v 0.63252 2.86081 h -1.52755 c 0.21276,-5.33674 1.56184,-10.637612 4.06073,-15.549442 l 0.72295,7.802632 1.25988,-0.11679 z m -2.24018,16.538012 h 30.89424 v 7.18767 h -30.89424 z"/></g></svg>