<svg width="53.710415mm" height="53.710415mm" viewBox="0 0 53.710415 53.710415" version="1.1" id="svg10406" xmlns="http://www.w3.org/2000/svg"><g id="layer1" transform="translate(-161.20931,-129.98351)"><g fill="none" id="g50898" transform="matrix(0.26458333,0,0,0.26458333,161.60618,130.38038)" style="display:inline"><g stroke="#999999" stroke-width="3" id="g50892"><path d="M 0,16 V 0 h 16" id="path50884"/><path d="M 200,16 V 0 h -16" id="path50886"/><path d="m 0,184 v 16 h 16" id="path50888"/><path d="m 200,184 v 16 h -16" id="path50890"/></g></g><path id="path10379" style="color:#000000;fill:#000000;-inkscape-stroke:none" d="m 169.83307,138.72483 v 2.85615 h 36.46289 v -2.85615 z m 8.93485,5.32939 c -2.76361,5.23657 -1.36325,8.75915 -0.0253,11.94345 1.33793,3.18432 2.61413,6.0387 0.0527,11.05256 l 1.12655,0.57619 c 2.73667,-5.3569 1.3251,-8.93342 -0.0134,-12.11915 -1.33853,-3.18575 -2.60309,-5.97214 -0.0217,-10.86342 z m 8.73228,0 c -2.76361,5.23657 -1.36325,8.75915 -0.0253,11.94345 1.33793,3.18432 2.61414,6.0387 0.0527,11.05256 l 1.12707,0.57619 c 2.73667,-5.3569 1.32457,-8.93342 -0.014,-12.11915 -1.33852,-3.18575 -2.60257,-5.97214 -0.0212,-10.86342 z m 8.73229,0 c -2.76361,5.23657 -1.36325,8.75915 -0.0253,11.94345 1.33792,3.18432 2.61414,6.0387 0.0527,11.05256 l 1.12706,0.57619 c 2.73667,-5.3569 1.32509,-8.93342 -0.0134,-12.11915 -1.33852,-3.18575 -2.6031,-5.97213 -0.0217,-10.86342 z m -17.6599,26.01598 c 0,1.29334 -0.68863,2.48647 -1.80868,3.13314 -0.56096,0.32387 -1.18642,0.48578 -1.81177,0.48524 v 1.26401 c 0.8442,5.3e-4 1.68852,-0.21736 2.44429,-0.65371 0.84452,-0.48758 1.50874,-1.20731 1.9296,-2.05207 0.42087,0.84476 1.08354,1.56449 1.92805,2.05207 1.50968,0.87163 3.3732,0.87163 4.8829,0 0.84451,-0.48758 1.50821,-1.20731 1.92908,-2.05207 0.42086,0.84476 1.08353,1.56449 1.92805,2.05207 1.50969,0.87163 3.37322,0.87163 4.88291,0 0.84484,-0.48777 1.50826,-1.20794 1.92856,-2.0531 0.42084,0.84517 1.08474,1.56532 1.9296,2.0531 0.75515,0.43599 1.59807,0.65388 2.44171,0.65371 v -1.26401 c -0.62484,2.7e-4 -1.24922,-0.16164 -1.80971,-0.48524 -1.12006,-0.64667 -1.80867,-1.8398 -1.80867,-3.13314 h -0.24133 -1.02423 -0.2403 c 0,1.29334 -0.68758,2.48647 -1.80764,3.13314 -1.12006,0.64667 -2.49781,0.64667 -3.61786,0 -1.12006,-0.64667 -1.80868,-1.8398 -1.80868,-3.13314 h -0.23978 -1.26607 c 0,1.29334 -0.6881,2.48647 -1.80816,3.13314 -1.12006,0.64667 -2.49729,0.64667 -3.61735,0 -1.12006,-0.64667 -1.80867,-1.8398 -1.80867,-3.13314 h -0.23978 z"/></g></svg>