<svg width="53.710415mm" height="53.710415mm" viewBox="0 0 53.710415 53.710415" version="1.1" id="svg2132" xmlns="http://www.w3.org/2000/svg"><g id="layer1" transform="translate(-44.822215,-112.95125)"><g fill="none" id="g50898" transform="matrix(0.26458333,0,0,0.26458333,45.21909,113.34812)"><g stroke="#999999" stroke-width="3" id="g50892"><path d="M 0,16 V 0 h 16" id="path50884"/><path d="M 200,16 V 0 h -16" id="path50886"/><path d="m 0,184 v 16 h 16" id="path50888"/><path d="m 200,184 v 16 h -16" id="path50890"/></g></g><path id="path2102" style="color:#000000;display:inline;fill:#000000" d="m 71.076425,126.7411 c -0.06854,1.47873 -0.523857,2.45581 -1.240234,3.18327 -0.716377,0.72747 -1.735811,1.21137 -2.965191,1.52549 -2.45877,0.62825 -5.68855,0.54354 -8.52145,0.69763 -0.33751,0.0183 -0.32294,0.0169 -0.96635,0.0176 v 0.007 c -1.68154,0.005 -3.05252,1.37907 -3.05252,3.06182 0,1.68606 1.37629,3.06235 3.06234,3.06235 h 0.41961 v 0.001 h 28.149191 c 1.007127,0 1.798856,0.79173 1.798856,1.79886 0,1.00713 -0.791729,1.79886 -1.798856,1.79886 h -0.419613 v -5.2e-4 H 57.39302 c -1.68605,0 -3.06234,1.37629 -3.06234,3.06235 0,1.68604 1.37629,3.06234 3.06234,3.06234 h 28.149188 v -0.008 h 0.419613 c 1.007127,0 1.798856,0.79173 1.798856,1.79886 0,1.00713 -0.791729,1.79886 -1.798856,1.79886 H 57.81263 v 1.26326 h 28.149191 c 1.686054,0 3.062345,-1.37628 3.062345,-3.06234 0,-1.68606 -1.376291,-3.06235 -3.062345,-3.06235 H 57.81263 v 0.008 h -0.41961 c -1.00712,0 -1.79885,-0.79174 -1.79885,-1.79885 0,-1.00713 0.79173,-1.79886 1.79885,-1.79886 h 0.41961 v 5.2e-4 h 28.149191 c 1.686054,0 3.062345,-1.37629 3.062345,-3.06235 0,-1.68606 -1.376291,-3.06235 -3.062345,-3.06235 h -0.419613 v -0.001 H 57.39302 c -1.00712,0 -1.79885,-0.79173 -1.79885,-1.79886 0,-1.00711 0.79173,-1.79885 1.79885,-1.79885 h 0.0816 v -0.004 c 0.54176,-6.5e-4 0.62337,-0.002 0.94361,-0.0196 2.74973,-0.14956 6.0314,-0.0358 8.76536,-0.73433 1.36698,-0.34929 2.615108,-0.91129 3.552755,-1.86345 0.937647,-0.95217 1.523612,-2.28963 1.60352,-4.01371 z"/></g></svg>