<svg width="53.710415mm" height="53.710415mm" viewBox="0 0 53.710415 53.710415" version="1.1" id="svg2790" xmlns="http://www.w3.org/2000/svg"><g id="layer1" transform="translate(46.371341,-97.33834)"><g fill="none" id="g50898" transform="matrix(0.26458333,0,0,0.26458333,-45.974466,97.735215)"><g stroke="#999999" stroke-width="3" id="g50892"><path d="M 0,16 V 0 h 16" id="path50884"/><path d="M 200,16 V 0 h -16" id="path50886"/><path d="m 0,184 v 16 h 16" id="path50888"/><path d="m 200,184 v 16 h -16" id="path50890"/></g></g><path id="path2711" style="color:#000000;fill:#000000" d="m 0.842314,104.61567 v 1.264 h -37.02823 v -1.264 z m 0,5.64462 v 1.26555 h -37.02823 v -1.26555 z m -36.52956,3.81113 4.05867,7.08587 -1.09761,0.62891 -2.39262,-4.17649 v 17.36432 h -1.26555 v -17.23822 l -2.40089,4.05815 -1.08934,-0.64441 z m 36.41897,18.22163 v 1.264 l -37.02823,4.5682 v -1.264 z m 0,5.64462 v 1.26555 l -37.02823,4.5682 v -1.26555 z"/></g></svg>