<svg width="53.710415mm" height="53.710415mm" viewBox="0 0 53.710415 53.710415" version="1.1" id="svg33622" xmlns="http://www.w3.org/2000/svg"><g id="layer1" transform="translate(-108.33834,-121.46738)"><g fill="none" id="g50898" transform="matrix(0.26458333,0,0,0.26458333,108.73521,121.86425)" style="display:inline"><g stroke="#999999" stroke-width="3" id="g50892"><path d="M 0,16 V 0 h 16" id="path50884"/><path d="M 200,16 V 0 h -16" id="path50886"/><path d="m 0,184 v 16 h 16" id="path50888"/><path d="m 200,184 v 16 h -16" id="path50890"/></g></g><path id="path32839-2" style="color:#000000;fill:#000000;-inkscape-stroke:none" d="m 150.61818,134.44594 -0.63304,1.09554 6.32107,3.65042 h -18.45469 a 2.7913611,2.7913611 0 0 0 -2.7342,-2.22984 2.7913611,2.7913611 0 0 0 -2.79156,2.79104 2.7913611,2.7913611 0 0 0 2.79156,2.79157 2.7913611,2.7913611 0 0 0 2.69906,-2.08722 h 18.40249 l -6.18463,3.57033 0.63252,1.09606 9.22269,-5.32423 z m -28.26287,0.0232 -0.63304,1.09554 6.32106,3.65042 h -17.5457 v 1.26556 H 127.956 l -6.18464,3.57032 0.63252,1.09606 9.2227,-5.32422 z m 10.89339,8.59327 -9.27229,5.35213 0.63252,1.09606 6.32156,-3.64887 -9.094,15.70446 1.09605,0.63304 9.0506,-15.62902 -5e-4,7.14117 h 1.26554 z"/></g></svg>