<svg width="53.710415mm" height="53.710415mm" viewBox="0 0 53.710415 53.710415" version="1.1" id="svg5429" xmlns="http://www.w3.org/2000/svg"><g id="layer1" transform="translate(-56.084537,-144.87481)"><g fill="none" stroke="#999999" stroke-width="3" id="g160" transform="matrix(0.26458333,0,0,0.26458333,56.481412,145.27168)"><path d="M 0,16 V 0 h 16" id="path152"/><path d="M 200,16 V 0 h -16" id="path154"/><path d="m 0,184 v 16 h 16" id="path156"/><path d="m 200,184 v 16 h -16" id="path158"/></g><path id="path5302" style="color:#000000;fill:#000000;fill-opacity:1" d="m 76.60964,154.87936 c -9.29833,0 -16.849617,7.55128 -16.849617,16.84962 0,9.29833 7.551287,16.85168 16.849617,16.85168 9.298332,0 16.851685,-7.55335 16.851685,-16.85168 0,-1.15683 -0.116875,-2.28653 -0.339514,-3.37809 h 9.316739 l -7.030057,4.06021 0.633036,1.09606 10.077941,-5.82032 -10.134785,-5.85183 -0.632519,1.09605 7.194394,4.15427 H 92.811752 C 90.792606,160.04169 84.297574,154.87936 76.60964,154.87936 Z m 0,1.33997 c 6.955847,0 12.834549,4.56489 14.805815,10.866 H 76.533676 v -0.003 c -2.004826,0 -3.784685,1.30085 -4.394564,3.21065 -0.609878,1.90982 0.08705,4.00001 1.720825,5.16196 1.633771,1.16195 3.839198,1.13471 5.443079,-0.0682 1.60388,-1.20287 2.248036,-3.31106 1.590084,-5.20485 l -1.195276,0.416 c 0.478996,1.37869 0.01319,2.90132 -1.154452,3.77703 -1.167643,0.87569 -2.75971,0.89704 -3.949113,0.0512 -1.189402,-0.84591 -1.694051,-2.35773 -1.250052,-3.7481 0.438637,-1.37357 1.699084,-2.30671 3.136759,-2.32905 v 0.002 h 15.271419 c 0.241074,1.08738 0.36897,2.21753 0.36897,3.37809 0,8.57399 -6.937723,15.50964 -15.511715,15.50964 -8.573991,0 -15.509648,-6.93565 -15.509647,-15.50964 0,-8.574 6.935656,-15.50965 15.509647,-15.50965 z"/></g></svg>