<svg width="53.710415mm" height="53.710415mm" viewBox="0 0 53.710415 53.710415" version="1.1" id="svg5399" xmlns="http://www.w3.org/2000/svg"><g id="layer1" transform="translate(-83.616403,-137.30355)"><g fill="none" id="g50898" transform="matrix(0.26458333,0,0,0.26458333,84.013278,137.70042)" style="display:inline"><g stroke="#999999" stroke-width="3" id="g50892"><path d="M 0,16 V 0 h 16" id="path50884"/><path d="M 200,16 V 0 h -16" id="path50886"/><path d="m 0,184 v 16 h 16" id="path50888"/><path d="m 200,184 v 16 h -16" id="path50890"/></g></g><path id="path5071" style="color:#000000;fill:#000000;-inkscape-stroke:none" d="m 88.605511,143.96154 v 1.26349 h 21.769209 l 8.60154,4.96713 v 5.75779 h 1.26608 v -6.48849 l -9.52759,-5.49992 z m 16.667709,3.08353 v 5.2e-4 3.66386 H 92.558751 v 5.4007 h 12.714469 v 3.66386 l 7.67964,-6.36447 z m 1.26556,2.69389 4.42609,3.67006 -4.42609,3.67161 v -2.23604 H 93.824311 V 151.975 h 12.714469 z m 16.88321,4.82038 v 4.18166 h -12.43955 v 6.93342 h 12.43955 v 4.18166 l 8.91573,-7.64449 -0.005,-0.004 0.005,-0.004 z m 1.26555,2.75384 5.67097,4.89427 -5.67097,4.89479 v -2.69337 h -12.44161 v -4.40232 h 12.44161 z m -19.28512,7.05073 v 3.63595 h -2.60966 c -3.762739,0 -6.810439,3.04978 -6.810439,6.81251 v 9.54308 l 5.329909,5.2e-4 v -9.24285 c 0,-0.89126 0.69883,-1.58956 1.59008,-1.58956 h 2.50011 v 3.77806 l 7.52512,-6.46782 z m 1.26555,2.74402 4.254,3.7269 -4.254,3.72226 v -2.29702 h -3.76566 c -1.57018,-1.1e-4 -2.85564,1.2829 -2.85564,2.85305 v 7.97729 h -2.798799 v -8.27804 c 0,-3.0838 2.46108,-5.54643 5.544889,-5.54643 1.29173,3.5e-4 3.87521,5.1e-4 3.87521,5.1e-4 z m 12.30828,1.02371 v 5.75779 l -8.60153,4.96662 h -6.97063 v 1.26555 h 7.31066 l 9.52758,-5.50199 v -6.48797 z m -30.370739,10.72441 v 1.26555 h 5.3516 v -1.26555 z"/></g></svg>