<svg width="53.710415mm" height="53.710415mm" viewBox="0 0 53.710415 53.710415" version="1.1" id="svg9359" xmlns="http://www.w3.org/2000/svg"><g id="layer1" transform="translate(-36.660921,-70.01576)"><g fill="none" id="g50898" transform="matrix(0.26458333,0,0,0.26458333,37.057796,70.412635)" style="display:inline"><g stroke="#999999" stroke-width="3" id="g50892"><path d="M 0,16 V 0 h 16" id="path50884"/><path d="M 200,16 V 0 h -16" id="path50886"/><path d="m 0,184 v 16 h 16" id="path50888"/><path d="m 200,184 v 16 h -16" id="path50890"/></g></g><path id="path9325" style="color:#000000;fill:#000000;stroke-width:1.03287" d="m 57.543626,74.898665 c -5.97131,0 -10.82415,4.85281 -10.82415,10.82415 0,5.97131 4.85284,10.82621 10.82415,10.82621 5.97133,0 10.82621,-4.8549 10.82621,-10.82621 0,-5.97134 -4.85488,-10.82415 -10.82621,-10.82415 z m 0,1.26349 c 5.28768,0 9.56066,4.27297 9.56066,9.56066 0,5.28766 -4.27298,9.56066 -9.56066,9.56066 -5.28766,0 -9.56066,-4.273 -9.56066,-9.56066 0,-5.28769 4.273,-9.56066 9.56066,-9.56066 z m 17.08061,3.0918 v 13.50822 l -3.13573,-5.29735 -1.09554,0.63252 4.86431,8.2889 4.71909,-8.36693 -1.09554,-0.63355 -2.99052,5.36918 v -13.50099 z m -17.08061,3.80856 c -1.46254,0 -2.66185,1.19776 -2.66185,2.6603 0,1.46254 1.19931,2.66237 2.66185,2.66237 1.46254,0 2.66237,-1.19983 2.66237,-2.66237 0,-1.46254 -1.19983,-2.6603 -2.66237,-2.6603 z m 0,1.264 c 0.77889,0 1.39681,0.61742 1.39681,1.3963 0,0.77889 -0.61792,1.39836 -1.39681,1.39836 -0.77888,0 -1.3963,-0.61947 -1.3963,-1.39836 0,-0.77888 0.61742,-1.3963 1.3963,-1.3963 z m 12.39149,12.3269 v 1.26504 h 10.37766 v -1.26504 z m -12.39149,0.5395 c -5.97131,0 -10.82415,4.852835 -10.82415,10.824155 0,5.97134 4.85284,10.82621 10.82415,10.82621 5.97133,0 10.82621,-4.85487 10.82621,-10.82621 0,-5.97132 -4.85488,-10.824155 -10.82621,-10.824155 z m 0,1.26349 c 5.28768,0 9.56066,4.272995 9.56066,9.560665 0,5.28768 -4.27298,9.56065 -9.56066,9.56065 -5.28766,0 -9.56066,-4.27297 -9.56066,-9.56065 0,-5.28767 4.273,-9.560665 9.56066,-9.560665 z m 0,6.900355 c -1.46253,0 -2.66185,1.1978 -2.66185,2.66031 0,1.46254 1.19932,2.66237 2.66185,2.66237 1.46254,0 2.66237,-1.19983 2.66237,-2.66237 0,-1.46251 -1.19983,-2.66031 -2.66237,-2.66031 z m 0,1.26401 c 0.77889,0 1.39681,0.61743 1.39681,1.3963 0,0.77889 -0.61792,1.39836 -1.39681,1.39836 -0.77888,0 -1.3963,-0.61947 -1.3963,-1.39836 0,-0.77887 0.61742,-1.3963 1.3963,-1.3963 z"/></g></svg>