<svg width="53.710415mm" height="53.710415mm" viewBox="0 0 53.710415 53.710415" version="1.1" id="svg52679" xmlns="http://www.w3.org/2000/svg"><g id="layer1" transform="translate(-79.596405,-107.62867)"><path id="path51100" style="color:#000000;fill:#000000;stroke-width:0.264583;-inkscape-stroke:none" d="m 99.277632,111.03517 c -1.139874,0 -2.077393,0.93751 -2.077393,2.07739 v 35.5198 c -1.711721,0.80447 -2.805075,2.52493 -2.806547,4.41627 -3e-5,2.69733 2.186605,4.88397 4.88394,4.88394 2.697338,3e-5 4.883968,-2.18661 4.883938,-4.88394 -2.7e-4,-1.89246 -1.09381,-3.61442 -2.80655,-4.41937 v -26.78235 h 8.82789 l 0.0677,11.90935 h -2.9683 l 5.66736,5.47719 5.55987,-5.47719 h -2.92024 v -11.90935 h 2.27015 v -1.2702 h -16.50443 v -7.46415 c 0,-1.13988 -0.93752,-2.07739 -2.077388,-2.07739 z m 0,1.26969 c 0.458263,0 0.807188,0.34944 0.807188,0.8077 v 7.46415 h -1.614374 v -7.46415 c 0,-0.45826 0.348922,-0.8077 0.807186,-0.8077 z m 11.981178,9.54205 h 3.25511 v 12.98474 h 1.37149 l -2.94298,2.89905 -2.99982,-2.89905 h 1.3901 z"/><g fill="none" id="g50898" transform="matrix(0.26458333,0,0,0.26458333,79.99328,108.02554)"><g stroke="#999999" stroke-width="3" id="g50892"><path d="M 0,16 V 0 h 16" id="path50884"/><path d="M 200,16 V 0 h -16" id="path50886"/><path d="m 0,184 v 16 h 16" id="path50888"/><path d="m 200,184 v 16 h -16" id="path50890"/></g></g></g></svg>