<svg width="53.710415mm" height="53.710415mm" viewBox="0 0 53.710415 53.710415" version="1.1" id="svg3796" xmlns="http://www.w3.org/2000/svg"><g id="layer1" transform="translate(-17.144792,-13.596405)"><g fill="none" id="g50898" transform="matrix(0.26458333,0,0,0.26458333,17.541667,13.99328)" style="display:inline"><g stroke="#999999" stroke-width="3" id="g50892"><path d="M 0,16 V 0 h 16" id="path50884"/><path d="M 200,16 V 0 h -16" id="path50886"/><path d="m 0,184 v 16 h 16" id="path50888"/><path d="m 200,184 v 16 h -16" id="path50890"/></g></g><path id="rect3564" style="color:#000000;fill:#000000;-inkscape-stroke:none" d="m 23.019628,20.868757 v 1.26555 h 3.562057 c -1.631809,1.195054 -2.694926,3.123764 -2.694926,5.295294 0,3.61558 2.94472,6.56032 6.560323,6.56032 2.174936,0 4.107905,-1.066 5.302519,-2.70216 v 6.23683 c 0,4.56166 3.692087,8.25376 8.253764,8.25376 4.56167,0 8.25376,-3.6921 8.25376,-8.25376 v -6.22805 c 1.19497,1.63112 3.12378,2.69338 5.29477,2.69338 3.6156,0 6.56084,-2.94474 6.56084,-6.56032 0,-2.17153 -1.06297,-4.10024 -2.69493,-5.295294 h 3.56257 v -1.26555 h -6.83007 c -0.1972,2e-5 -0.39664,0 -0.59841,0 -3.61561,0 -6.56033,2.945234 -6.56033,6.560844 0,0.006 -1e-5,0.0114 0,0.0171 v 10.07794 c 5e-5,3.88273 -3.10545,6.99027 -6.9882,6.99027 -3.882752,0 -6.989759,-3.10754 -6.989759,-6.99027 v -10.08104 h -0.0057 c 1e-5,-0.005 0,-0.009 0,-0.014 0,-3.61561 -2.945239,-6.560844 -6.56084,-6.560844 -0.191541,-0.002 -0.595313,0 -0.595313,0 z m 7.427454,1.26555 c 2.931948,0 5.295801,2.363334 5.295801,5.295294 0,2.93192 -2.363853,5.29425 -5.295801,5.29425 -2.931948,0 -5.294768,-2.36233 -5.294768,-5.29425 0,-2.93196 2.36282,-5.295294 5.294768,-5.295294 z m 27.104813,0 c 2.93194,0 5.29528,2.363334 5.29528,5.295294 0,2.93192 -2.36334,5.29425 -5.29528,5.29425 -2.93195,0 -5.29477,-2.36233 -5.29477,-5.29425 0,-0.006 -2e-5,-0.0124 0,-0.0186 0.01,-2.92333 2.36902,-5.276684 5.29477,-5.276684 z m -27.104813,2.843764 c -1.346478,0 -2.451013,1.10505 -2.451013,2.45153 0,1.34647 1.104535,2.45049 2.451013,2.45049 1.346478,0 2.452047,-1.10402 2.452047,-2.45049 0,-1.34648 -1.105569,-2.45153 -2.452047,-2.45153 z m 27.104813,0 c -1.34648,0 -2.45102,1.10505 -2.45102,2.45153 0,1.34647 1.10454,2.45049 2.45102,2.45049 1.34647,0 2.45153,-1.10402 2.45153,-2.45049 0,-1.34648 -1.10506,-2.45153 -2.45153,-2.45153 z m -27.104813,1.26504 c 0.662824,0 1.188041,0.52366 1.188041,1.18649 0,0.66282 -0.525217,1.187 -1.188041,1.187 -0.662825,0 -1.185458,-0.52418 -1.185458,-1.187 0,-0.66283 0.522633,-1.18649 1.185458,-1.18649 z m 27.104813,0 c 0.66282,0 1.18752,0.52366 1.18752,1.18649 0,0.66282 -0.5247,1.187 -1.18752,1.187 -0.66283,0 -1.18546,-0.52418 -1.18546,-1.187 0,-0.66283 0.52263,-1.18649 1.18546,-1.18649 z m -13.5444,3.67987 -4.876705,8.44755 1.09554,0.63045 3.133142,-5.42551 v 8.93744 h 1.263493 v -8.98446 l 3.14864,5.47253 1.09761,-0.63045 z m -0.648023,17.52245 v 8.93744 l -3.133142,-5.42551 -1.09554,0.63045 4.876705,8.44755 4.86172,-8.44755 -1.09761,-0.63045 -3.14864,5.47253 v -8.98446 z"/></g></svg>