<svg width="53.710415mm" height="53.710415mm" viewBox="0 0 53.710415 53.710415" version="1.1" id="svg13057" xmlns="http://www.w3.org/2000/svg"><g id="layer1" transform="translate(-74.668546,-117.34294)"><g fill="none" id="g50898" transform="matrix(0.26458333,0,0,0.26458333,75.065421,117.73981)" style="display:inline"><g stroke="#999999" stroke-width="3" id="g50892"><path d="M 0,16 V 0 h 16" id="path50884"/><path d="M 200,16 V 0 h -16" id="path50886"/><path d="m 0,184 v 16 h 16" id="path50888"/><path d="m 200,184 v 16 h -16" id="path50890"/></g></g><path id="path12894" style="color:#000000;fill:#000000;-inkscape-stroke:none" d="m 94.463975,121.98425 v 13.19093 c -2.76718,0.31561 -4.92786,2.67471 -4.92786,5.52421 0,3.06339 2.497,5.56038 5.56038,5.56038 3.06339,0 5.560905,-2.49699 5.560905,-5.56038 0,-2.85012 -2.161875,-5.20995 -4.929935,-5.52473 v -13.19041 z m 0.63252,14.41824 c 2.37973,0 4.29483,1.91717 4.29483,4.2969 0,2.37974 -1.9151,4.29483 -4.29483,4.29483 -2.37973,0 -4.29689,-1.91509 -4.29689,-4.29483 0,-2.37973 1.91716,-4.2969 4.29689,-4.2969 z m -7.45432,11.29647 v 2.0929 h -4.24729 v 7.85378 h 4.24729 v 5.32216 h -4.24729 v 1.26555 h 4.24729 v 2.17868 h 1.26349 v -2.17868 h 11.984275 v 2.17868 h 1.26556 v -2.17868 h 11.98428 v 2.17868 h 1.26607 v -2.17868 h 4.24677 v -7.85378 h -4.24677 v -5.32216 h 4.24677 v -1.26555 h -4.24677 v -2.0929 h -1.26607 v 2.0929 H 102.1555 v -2.0929 h -1.26556 v 2.0929 H 88.905665 v -2.0929 z m -2.98328,3.35845 h 2.98328 v 5.32216 h -2.98328 z m 4.24677,0 h 11.984285 v 5.32216 H 88.905665 Z m 13.249835,0 h 11.98428 v 5.32216 H 102.1555 Z m -13.249835,6.58823 h 11.984285 v 5.32216 H 88.905665 Z m 13.249835,0 h 11.98428 v 5.32216 H 102.1555 Z m 13.25036,0 h 2.98328 v 5.32216 h -2.98328 z"/></g></svg>