<svg width="53.710415mm" height="53.710415mm" viewBox="0 0 53.710415 53.710415" version="1.1" id="svg1604" xmlns="http://www.w3.org/2000/svg"><g id="layer1" transform="translate(-60.902614,-69.85047)"><g fill="none" stroke="#999999" stroke-width="3" id="g160" transform="matrix(0.26458333,0,0,0.26458333,61.299489,70.247345)"><path d="M 0,16 V 0 h 16" id="path152"/><path d="M 200,16 V 0 h -16" id="path154"/><path d="m 0,184 v 16 h 16" id="path156"/><path d="m 200,184 v 16 h -16" id="path158"/></g><path id="path856" style="color:#000000;fill:#000000;-inkscape-stroke:none" d="m 87.882136,72.547665 c -2.17009,0.001 -4.41299,0.84044 -5.68751,2.63085 l -0.0176,0.0258 -8.42998,14.60324 v 31.056505 h 1.26401 V 90.145515 l 8.222229,-14.2384 c 0.970561,-1.35628 2.814269,-2.09463 4.64882,-2.09548 1.835931,-8.5e-4 3.57092,0.72925 4.378546,2.05827 l 8.242389,14.27561 v 30.718535 h 1.26556 V 89.807555 l -8.419639,-14.58206 -0.002,-0.006 c -1.1069,-1.82833 -3.294705,-2.6732 -5.464785,-2.67219 z m -0.13746,12.23853 -5.177981,8.96896 1.09606,0.63252 3.462829,-5.99808 v 9.75806 h 1.263491 v -9.71414 l 3.462846,5.99705 1.09606,-0.63252 z m -0.61909,17.874875 v 9.71413 l -3.46283,-5.99705 -1.09606,0.63252 5.2033,9.01187 5.177985,-8.96898 -1.09606,-0.63252 -3.462845,5.99809 v -9.75806 z"/></g></svg>