<svg width="53.710415mm" height="53.710415mm" viewBox="0 0 53.710415 53.710415" version="1.1" id="svg3586" xmlns="http://www.w3.org/2000/svg"><g id="layer1" transform="translate(-103.23286,-51.610609)"><g fill="none" id="g50898" transform="matrix(0.26458333,0,0,0.26458333,103.62973,52.007484)"><g stroke="#999999" stroke-width="3" id="g50892"><path d="M 0,16 V 0 h 16" id="path50884"/><path d="M 200,16 V 0 h -16" id="path50886"/><path d="m 0,184 v 16 h 16" id="path50888"/><path d="m 200,184 v 16 h -16" id="path50890"/></g></g><path id="path3034" style="fill:#000000;stroke-width:0.334698" d="m 117.60511,62.636588 -1.44384,2.50166 v 17.783405 l 1.44384,2.50166 1.44435,-2.50166 V 65.138248 Z m 12.48296,0 -1.44436,2.50166 v 17.783405 l 1.44436,2.50166 1.44487,-2.50166 V 65.138248 Z m 12.48244,0 -1.44384,2.50166 v 17.783405 l 1.44384,2.50166 1.44435,-2.50166 V 65.138248 Z m -21.55993,13.392975 v 1.26401 h 5.43533 v -1.26401 z m 12.71964,0 v 1.26401 h 5.43481 v -1.26401 z m -25.89816,0.0351 v 1.26401 h 6.16448 v -1.26401 z m 38.34701,0 v 1.26401 h 6.165 v -1.26401 z m -25.16849,5.56659 v 1.26452 h 5.43533 v -1.26452 z m 12.71964,0 v 1.26452 h 5.43481 v -1.26452 z m -25.89816,0.0351 v 1.26452 h 6.16448 v -1.26452 z m 38.34701,0 v 1.26452 h 6.165 v -1.26452 z m -38.34701,5.76296 v 1.264 h 44.51201 v -1.264 z m 0,5.60172 v 1.26401 h 44.51201 v -1.26401 z"/></g></svg>