<svg width="53.710415mm" height="53.710415mm" viewBox="0 0 53.710415 53.710415" version="1.1" id="svg10043" xmlns="http://www.w3.org/2000/svg"><g id="layer1" transform="translate(-19.273825,-85.273824)"><g fill="none" id="g50898" transform="matrix(0.26458333,0,0,0.26458333,19.6707,85.670699)" style="display:inline"><g stroke="#999999" stroke-width="3" id="g50892"><path d="M 0,16 V 0 h 16" id="path50884"/><path d="M 200,16 V 0 h -16" id="path50886"/><path d="m 0,184 v 16 h 16" id="path50888"/><path d="m 200,184 v 16 h -16" id="path50890"/></g></g><path id="path9906" style="fill:#000000;stroke-width:0.346824" d="m 42.0758,90.19368 -1.29037,2.08256 v 20.49488 l 1.29037,2.08204 1.29087,-2.08204 V 92.27624 Z m -16.02539,16.05535 -0.31626,0.54726 -0.31626,0.54673 6.6089,3.81631 H 22.8258 v 1.26349 h 9.20151 l -6.60942,3.81475 0.63252,1.09554 8.50698,-4.91029 h 3.74913 v -1.26349 h -3.74965 z m 19.68459,4.81728 v 1.26349 h 6.95824 c -3.7139,1.9076 -6.25905,5.77741 -6.25905,10.23452 0,6.34346 5.15455,11.50007 11.498,11.50007 6.34346,0 11.50008,-5.15661 11.50008,-11.50007 0,-6.09015 -4.75304,-11.08355 -10.74612,-11.47269 v -0.0253 h -0.75396 z m 12.19719,1.26349 c 5.6598,0 10.23452,4.57472 10.23452,10.23452 0,5.6598 -4.57472,10.23658 -10.23452,10.23658 -5.6598,0 -10.234,-4.57678 -10.234,-10.23658 0,-5.6598 4.5742,-10.23452 10.234,-10.23452 z"/></g></svg>