<svg width="53.710415mm" height="53.710415mm" viewBox="0 0 53.710415 53.710415" version="1.1" id="svg2533" xmlns="http://www.w3.org/2000/svg"><g id="layer1" transform="translate(-48.169128,-120.78443)"><g fill="none" stroke="#999999" stroke-width="3" id="g160" transform="matrix(0.26458333,0,0,0.26458333,48.566003,121.1813)"><path d="M 0,16 V 0 h 16" id="path152"/><path d="M 200,16 V 0 h -16" id="path154"/><path d="m 0,184 v 16 h 16" id="path156"/><path d="m 200,184 v 16 h -16" id="path158"/></g><path id="path1582" style="color:#000000;fill:#000000;fill-opacity:1;-inkscape-stroke:none" d="m 51.744622,131.699 v 1.26555 h 2.347661 v 22.99602 H 86.2035 V 132.96455 H 97.37336 V 131.699 H 84.93795 v 22.99601 H 55.357839 V 131.699 Z m 41.451738,1.68 -5.01727,8.84959 1.09916,0.62477 3.33054,-5.87406 v 9.9229 h 1.26556 v -9.81903 l 3.33365,5.77432 1.09605,-0.63304 z m -0.58757,16.67805 v 9.92291 l -3.33054,-5.87406 -1.09916,0.62477 5.01727,8.84959 5.10769,-8.84546 -1.09605,-0.63303 -3.33365,5.77432 v -9.81904 z"/></g></svg>