<svg width="53.710415mm" height="53.710415mm" viewBox="0 0 53.710415 53.710415" version="1.1" id="svg4691" xmlns="http://www.w3.org/2000/svg"><g id="layer1" transform="translate(-209.46737,-38.435115)"><g fill="none" id="g50898" transform="matrix(-0.26458333,0,0,0.26458333,262.78091,38.83199)"><g stroke="#999999" stroke-width="3" id="g50892"><path d="M 0,16 V 0 h 16" id="path50884"/><path d="M 200,16 V 0 h -16" id="path50886"/><path d="m 0,184 v 16 h 16" id="path50888"/><path d="m 200,184 v 16 h -16" id="path50890"/></g></g><path id="rect4189" style="color:#000000;fill:#000000;-inkscape-stroke:none" d="m 222.30043,47.160421 1e-5,1.263491 27.94351,-1e-6 v -1.263487 z m -3.46076,5.677693 v 1.263487 l 27.94506,10e-7 v -1.263489 z m 1.77508,5.542813 v 1.26607 l 27.94352,2e-6 -1e-5,-1.266074 z m 35.88877,4.919079 -10.64897,3.416328 1.67794,5.229656 10.64896,-3.41633 -1.48415,-4.627109 z m -40.3624,5.16e-4 -0.19224,0.60048 -1.48517,4.629177 10.64895,3.416327 1.67794,-5.229653 z m 0.81959,1.589567 8.23877,2.643249 -0.90589,2.823083 -8.23877,-2.643247 z m 38.72374,10e-7 0.90588,2.823082 -8.23878,2.643249 -0.90588,-2.823599 z m -33.33337,11.721763 v 1.265558 l 27.94351,-10e-7 1e-5,-1.265553 z m 0,5.544882 -1e-5,1.263487 27.94352,4e-6 v -1.263492 z"/></g></svg>