<svg width="53.710415mm" height="53.710415mm" viewBox="0 0 53.710415 53.710415" version="1.1" id="svg10577" xmlns="http://www.w3.org/2000/svg"><g id="layer1" transform="translate(-92.725435,-72.499631)"><g fill="none" id="g50898" transform="matrix(0.26458333,0,0,0.26458333,93.12231,72.896506)" style="display:inline"><g stroke="#999999" stroke-width="3" id="g50892"><path d="M 0,16 V 0 h 16" id="path50884"/><path d="M 200,16 V 0 h -16" id="path50886"/><path d="m 0,184 v 16 h 16" id="path50888"/><path d="m 200,184 v 16 h -16" id="path50890"/></g></g><path id="rect8519" style="fill:#000000;fill-opacity:1;stroke:none;stroke-width:1.265" d="m 113.25106,81.780972 -9.42578,5.54592 0.6413,1.0914 6.4177,-3.77599 -6.84506,11.85612 1.09451,0.63149 6.86573,-11.8923 0.032,7.55509 1.264,-0.005 z m 8.22172,0.20826 -19.32492,33.472368 2.53938,1.46606 19.32544,-33.472368 z m -9.46919,25.898678 -4.59403,8.43514 1.11156,0.60565 4.23436,-7.77524 h 22.99188 v 7.47241 h 1.26607 v -8.73796 z"/></g></svg>