<svg width="53.710415mm" height="53.710415mm" viewBox="0 0 53.710415 53.710415" version="1.1" id="svg1717" xmlns="http://www.w3.org/2000/svg"><g id="layer1" transform="translate(-75.33834,-151.27383)"><g fill="none" stroke="#999999" stroke-width="3" id="g160" transform="matrix(0.26458333,0,0,0.26458333,75.735215,151.6707)"><path d="M 0,16 V 0 h 16" id="path152"/><path d="M 200,16 V 0 h -16" id="path154"/><path d="m 0,184 v 16 h 16" id="path156"/><path d="m 200,184 v 16 h -16" id="path158"/></g><path id="path322" style="color:#000000;fill:#000000;fill-opacity:1;-inkscape-stroke:none" d="m 101.56671,165.88689 v 24.48429 h 1.26556 v -24.48429 z m -10.186972,3.7238 v 4.67775 H 77.129445 v 1.76165 4.15841 1.76165 h 14.250293 v 4.67775 l 9.972002,-8.51886 z m 21.627622,0 -9.972,8.51835 9.972,8.51886 v -4.67775 h 14.25029 v -1.76165 -4.15841 -1.76165 h -14.25029 z m -20.362066,2.74609 6.747909,5.77277 -6.747909,5.77226 v -3.19515 H 78.39345 v -0.49816 -4.15841 -0.49816 h 14.251844 z m 19.096506,0 v 3.19515 h 14.25185 v 0.49816 4.15841 0.49816 H 111.7418 v 3.19515 l -6.74791,-5.77226 z"/></g></svg>