<svg width="53.710415mm" height="53.710415mm" viewBox="0 0 53.710415 53.710415" version="1.1" id="svg16835" xmlns="http://www.w3.org/2000/svg"><g id="layer1" transform="translate(-69.162173,-124.91421)"><g fill="none" stroke="#999999" stroke-width="3" id="g160" transform="matrix(0.26458333,0,0,0.26458333,69.559048,125.31108)"><path d="M 0,16 V 0 h 16" id="path152"/><path d="M 200,16 V 0 h -16" id="path154"/><path d="m 0,184 v 16 h 16" id="path156"/><path d="m 200,184 v 16 h -16" id="path158"/></g><path id="path14232-1" style="color:#000000;fill:#000000;-inkscape-stroke:none" d="m 99.490038,130.9327 -5.73763,3.34139 c -6.82927,0.29101 -13.56592,1.84361 -19.42259,4.65657 l 1.21905,2.53679 c 5.31745,-2.55397 11.51935,-3.99214 17.83353,-4.31446 l 6.16655,3.63285 0.640272,-1.08985 -4.432802,-2.61121 c 7.285532,-0.0492 14.592142,1.37986 20.743442,4.29276 l 1.20509,-2.54455 c -6.42451,-3.0423 -13.88462,-4.57653 -21.353222,-4.60799 l 3.774972,-2.19883 z m -16.36903,9.77356 c -4.57535,0 -8.29871,3.72387 -8.29871,8.29924 0,4.57535 3.72336,8.29871 8.29871,8.29871 4.36282,0 7.94958,-3.38529 8.2734,-7.66671 h 4.09122 v 11.73003 c -3.00394,0.10747 -5.90532,1.21969 -8.22172,3.18844 l 0.81856,0.9648 c 2.08719,-1.77395 4.69778,-2.78159 7.40316,-2.88872 v 6.05493 a 2.0111167,2.0111167 0 0 0 -1.37872,1.9079 2.0111167,2.0111167 0 0 0 2.01124,2.01124 2.0111167,2.0111167 0 0 0 2.01125,-2.01124 2.0111167,2.0111167 0 0 0 -1.37821,-1.90893 v -6.03788 c 0.13128,0.008 0.26241,0.0182 0.39378,0.031 2.937042,0.28567 5.657672,1.6278 7.668782,3.75584 l -5.536102,-1.47691 -0.32608,1.22266 8.586042,2.29134 -1.30069,-8.80308 -1.25212,0.18552 0.86403,5.83323 c -2.23066,-2.41992 -5.28284,-3.94562 -8.580882,-4.26641 -0.17242,-0.0168 -0.34447,-0.0292 -0.51676,-0.0393 v -11.7445 h 4.090192 c 0.32395,4.28142 3.91214,7.66671 8.27495,7.66671 4.57536,0 8.29717,-3.72336 8.29717,-8.29871 0,-4.57537 -3.72181,-8.29924 -8.29717,-8.29924 -4.36264,0 -7.95076,3.386 -8.27495,7.66723 h -9.446972 c -0.32406,-4.28123 -3.91075,-7.66723 -8.2734,-7.66723 z m 0,1.26607 c 3.67861,0 6.68581,2.807 7.00423,6.40116 h -4.61471 c -0.28172,-1.0554 -1.24952,-1.84071 -2.38952,-1.84071 -1.3582,0 -2.47271,1.11451 -2.47271,2.47272 0,1.35821 1.11451,2.47271 2.47271,2.47271 1.14002,0 2.10783,-0.78528 2.38952,-1.84071 h 4.61471 c -0.31842,3.59417 -3.32562,6.40116 -7.00423,6.40116 -3.89169,0 -7.03316,-3.14145 -7.03316,-7.03316 0,-3.89171 3.14147,-7.03317 7.03316,-7.03317 z m 25.995322,0 c 3.89171,0 7.03316,3.14146 7.03316,7.03317 0,3.89171 -3.14145,7.03316 -7.03316,7.03316 -3.67861,0 -6.68634,-2.80698 -7.00474,-6.40116 h 4.61522 c 0.2817,1.05542 1.24951,1.84071 2.38952,1.84071 1.35822,0 2.47271,-1.1145 2.47271,-2.47271 0,-1.35821 -1.11449,-2.47272 -2.47271,-2.47272 -1.13998,0 -2.10779,0.78532 -2.38952,1.84071 h -4.61522 c 0.3184,-3.59417 3.32613,-6.40116 7.00474,-6.40116 z m -25.995322,5.826 c 0.67456,0 1.20717,0.53262 1.20717,1.20717 0,0.67455 -0.53261,1.20664 -1.20717,1.20664 -0.67455,0 -1.20871,-0.53209 -1.20871,-1.20664 0,-0.67455 0.53416,-1.20717 1.20871,-1.20717 z m 25.995322,0 c 0.67456,0 1.20716,0.53262 1.20716,1.20717 0,0.67455 -0.5326,1.20664 -1.20716,1.20664 -0.67456,0 -1.20871,-0.53209 -1.20871,-1.20664 0,-0.67455 0.53415,-1.20717 1.20871,-1.20717 z"/></g></svg>