<svg width="53.710415mm" height="53.710415mm" viewBox="0 0 53.710415 53.710415" version="1.1" id="svg19913" xmlns="http://www.w3.org/2000/svg"><g id="layer1" transform="translate(-71.227063,-114.58976)"><g fill="none" id="g50898" transform="matrix(0.26458333,0,0,0.26458333,71.623938,114.98663)"><g stroke="#999999" stroke-width="3" id="g50892"><path d="M 0,16 V 0 h 16" id="path50884"/><path d="M 200,16 V 0 h -16" id="path50886"/><path d="m 0,184 v 16 h 16" id="path50888"/><path d="m 200,184 v 16 h -16" id="path50890"/></g></g><path id="path19590-4" style="fill:#000000;stroke-width:0.658271" d="m 97.255966,120.90849 -6.92103,3.99614 H 75.694488 v 2.89646 h 14.640448 l 6.92103,3.99614 0.63252,-1.09502 -5.02502,-2.90112 h 27.606594 v -2.89646 H 92.863986 l 5.0245,-2.90112 z m 9.437154,7.97316 c -3.20472,0 -5.81618,2.61147 -5.81618,5.81618 0,2.99128 2.27549,5.46574 5.18469,5.78207 v 21.50153 h 1.26453 v -21.50204 c 2.90868,-0.31683 5.18366,-2.79065 5.18366,-5.78156 0,-3.20471 -2.61198,-5.81618 -5.8167,-5.81618 z m 0,1.26555 c 2.52107,0 4.55114,2.02958 4.55114,4.55063 0,2.52107 -2.03007,4.55063 -4.55114,4.55063 -2.52106,0 -4.55063,-2.02956 -4.55063,-4.55063 0,-2.52105 2.02957,-4.55063 4.55063,-4.55063 z"/></g></svg>