<svg width="53.710415mm" height="53.710415mm" viewBox="0 0 53.710415 53.710415" version="1.1" id="svg71291" xmlns="http://www.w3.org/2000/svg"><g id="layer1" transform="translate(10.532627,-132.11254)"><g fill="none" id="g50898" transform="matrix(0.26458333,0,0,0.26458333,-10.135752,132.50941)"><g stroke="#999999" stroke-width="3" id="g50892"><path d="M 0,16 V 0 h 16" id="path50884"/><path d="M 200,16 V 0 h -16" id="path50886"/><path d="m 0,184 v 16 h 16" id="path50888"/><path d="m 200,184 v 16 h -16" id="path50890"/></g></g><path id="rect70699" style="fill:#000000;stroke-width:1.265" d="m 14.951343,138.06566 v 4.15013 c -1.96504,0.16469 -3.831073,0.67973 -5.535579,1.4826 l -2.075326,-3.59358 -2.375565,1.37098 2.076876,3.59719 c -1.577541,1.10088 -2.95059,2.47437 -4.051433,4.05195 l -3.597196,-2.07687 -1.371493,2.37556 3.594096,2.07481 c -0.802932,1.70465 -1.317956,3.57087 -1.482597,5.5361 h -4.150651 v 2.74195 h 4.150651 c 0.164654,1.9654 0.679551,3.83184 1.482597,5.53661 l -3.594096,2.07481 1.371493,2.37505 3.597196,-2.07636 c 1.100802,1.57742 2.474008,2.95062 4.051433,4.05143 l -2.076876,3.5972 2.375565,1.37149 2.07481,-3.59409 c 1.704621,0.80296 3.570891,1.31789 5.536095,1.48259 v 3.91294 H -1.122095 v 1.36168 h 34.889341 v -1.36168 H 17.694329 v -3.91294 c 1.965041,-0.16469 3.831074,-0.67975 5.535579,-1.48259 l 2.07481,3.59409 2.375564,-1.37149 -2.076358,-3.5972 c 1.577426,-1.10081 2.950629,-2.47401 4.051432,-4.05143 l 3.59668,2.07636 1.37149,-2.37505 -3.594093,-2.07481 c 0.803103,-1.70483 1.318453,-3.57113 1.483113,-5.53661 h 4.15014 v -2.74195 h -4.15014 c -0.16465,-1.96539 -0.67955,-3.83185 -1.482597,-5.53662 l 3.593577,-2.07429 -1.37149,-2.37556 -3.59668,2.07636 c -1.100802,-1.57743 -2.474006,-2.95064 -4.051432,-4.05144 l 2.076358,-3.59719 -2.375564,-1.37098 -2.074809,3.59358 c -1.704506,-0.80287 -3.570538,-1.31791 -5.53558,-1.4826 v -4.15013 z m 1.371494,5.35729 c 8.282469,0 14.98255,6.70008 14.98255,14.98255 0,8.28246 -6.700081,14.98255 -14.98255,14.98255 -8.282471,0 -14.984617,-6.70009 -14.984617,-14.98255 0,-8.28247 6.702146,-14.98255 14.984617,-14.98255 z m 5.17e-4,11.9476 c -1.669009,0 -3.037024,1.36594 -3.037024,3.03495 0,1.66901 1.368015,3.03548 3.037024,3.03548 1.669006,0 3.035473,-1.36647 3.035473,-3.03548 0,-1.66901 -1.366467,-3.03495 -3.035473,-3.03495 z m 0,1.26555 c 0.985352,0 1.769401,0.78405 1.769401,1.7694 0,0.98535 -0.784049,1.77147 -1.769401,1.77147 -0.985352,0 -1.771468,-0.78612 -1.771468,-1.77147 0,-0.98535 0.786116,-1.7694 1.771468,-1.7694 z"/></g></svg>