<svg width="53.710415mm" height="53.710415mm" viewBox="0 0 53.710415 53.710415" version="1.1" id="svg9546" xmlns="http://www.w3.org/2000/svg"><g id="layer1" transform="translate(-105.6419,-250.52834)"><g fill="none" id="g50898" transform="matrix(0.26458333,0,0,0.26458333,106.03877,250.92521)" style="display:inline"><g stroke="#999999" stroke-width="3" id="g50892"><path d="M 0,16 V 0 h 16" id="path50884"/><path d="M 200,16 V 0 h -16" id="path50886"/><path d="m 0,184 v 16 h 16" id="path50888"/><path d="m 200,184 v 16 h -16" id="path50890"/></g></g><path id="path9475" style="fill:#000000;stroke-width:1.35326" d="m 131.86406,259.63605 v 13.81776 c -2.76598,0.31564 -4.9258,2.67388 -4.9258,5.52215 0,3.06218 2.49667,5.55883 5.55884,5.55883 3.06216,0 5.55883,-2.49665 5.55883,-5.55883 0,-2.84809 -2.16005,-5.20628 -4.9258,-5.52215 v -13.81776 z m 0.63304,15.04715 c 2.37851,0 4.29224,1.91425 4.29224,4.29276 0,2.37852 -1.91373,4.29328 -4.29224,4.29328 -2.37851,0 -4.29276,-1.91476 -4.29276,-4.29328 0,-2.37851 1.91425,-4.29276 4.29276,-4.29276 z m -14.57121,9.95546 -0.62735,1.09968 6.16242,3.51348 h -14.56449 v 1.26555 h 14.49111 l -6.09265,3.51762 0.63252,1.09605 9.14259,-5.27771 z m 29.14241,0 -9.14414,5.21467 9.14259,5.27771 0.63252,-1.09605 -6.09265,-3.51762 h 14.49111 v -1.26555 h -14.56449 l 6.16241,-3.51348 z m -14.5712,1.04852 a 4.1977806,4.1977806 0 0 0 -4.19768,4.19767 4.1977806,4.1977806 0 0 0 4.19768,4.19768 4.1977806,4.1977806 0 0 0 4.19768,-4.19768 4.1977806,4.1977806 0 0 0 -4.19768,-4.19767 z"/></g></svg>