<svg width="53.710415mm" height="53.710415mm" viewBox="0 0 53.710415 53.710415" version="1.1" id="svg6720" xmlns="http://www.w3.org/2000/svg"><g id="layer1" transform="translate(-48.01576,-159.08028)"><g fill="none" id="g50898" transform="matrix(0.26458333,0,0,0.26458333,48.412635,159.47715)" style="display:inline"><g stroke="#999999" stroke-width="3" id="g50892"><path d="M 0,16 V 0 h 16" id="path50884"/><path d="M 200,16 V 0 h -16" id="path50886"/><path d="m 0,184 v 16 h 16" id="path50888"/><path d="m 200,184 v 16 h -16" id="path50890"/></g></g><path id="path6677" style="color:#000000;fill:#000000;-inkscape-stroke:none" d="m 74.869676,166.2217 c -10.880539,0 -19.712493,8.83453 -19.712493,19.71507 0,10.88054 8.831954,19.71249 19.712493,19.71249 10.88054,0 19.71508,-8.83195 19.71508,-19.71249 0,-10.88054 -8.83454,-19.71507 -19.71508,-19.71507 z m 0,1.26349 c 10.19689,0 18.45159,8.25469 18.45159,18.45158 0,4.78559 -1.81857,9.14248 -4.80229,12.4194 -0.18893,7e-4 -0.40818,-0.001 -0.62735,-0.0114 -0.56198,-0.0254 -1.11811,-0.1893 -1.62264,-0.48059 -1.12006,-0.64667 -1.80868,-1.8398 -1.80868,-3.13314 h -0.24133 -1.02422 -0.2403 c 0,1.29334 -0.68758,2.48647 -1.80764,3.13314 -1.12006,0.64667 -2.49781,0.64667 -3.61787,0 -1.12006,-0.64667 -1.80867,-1.8398 -1.80867,-3.13314 h -0.23978 -1.26607 c 0,1.29334 -0.68811,2.48647 -1.80816,3.13314 -1.12006,0.64667 -2.4973,0.64667 -3.61736,0 -1.120055,-0.64667 -1.808672,-1.8398 -1.808672,-3.13314 h -0.239778 l -1.266073,5.1e-4 c 0,1.29334 -0.688624,2.48649 -1.808675,3.13315 -0.493855,0.28513 -1.038073,0.43985 -1.5875,0.47852 -0.24745,0.0174 -0.571787,0.0212 -0.849044,0.0212 -2.987786,-3.27787 -4.808492,-7.63801 -4.808492,-12.42767 0,-10.19689 8.25212,-18.45158 18.449004,-18.45158 z m -4.50722,7.20989 c -1.7189,0 -3.12694,1.40602 -3.12694,3.12488 0,1.71888 1.40804,3.12694 3.12694,3.12694 1.71889,0 3.12488,-1.40806 3.12488,-3.12694 0,-1.71886 -1.40599,-3.12488 -3.12488,-3.12488 z m 9.38548,0.11111 -10.78953,15.30449 1.0356,0.72864 10.78901,-15.3045 z m -9.38548,1.15445 c 1.03523,0 1.86139,0.82411 1.86139,1.85932 0,1.03523 -0.82616,1.86138 -1.86139,1.86138 -1.03524,0 -1.86138,-0.82615 -1.86138,-1.86138 0,-1.03521 0.82614,-1.85932 1.86138,-1.85932 z m 9.01754,8.75398 c -1.71889,0 -3.12694,1.40808 -3.12694,3.12695 0,1.71888 1.40805,3.12487 3.12694,3.12487 1.71889,0 3.12539,-1.40599 3.12539,-3.12487 0,-1.71887 -1.4065,-3.12695 -3.12539,-3.12695 z m 0,1.26556 c 1.03524,0 1.85932,0.82618 1.85932,1.86139 0,1.03522 -0.82408,1.86138 -1.85932,1.86138 -1.03524,0 -1.86138,-0.82616 -1.86138,-1.86138 0,-1.03521 0.82614,-1.86139 1.86138,-1.86139 z m 4.32739,10.92698 c 0.42083,0.84517 1.08474,1.56533 1.92959,2.05311 0.52879,0.3053 1.10071,0.50337 1.68569,0.59479 -3.28103,3.00081 -7.65162,4.83072 -12.45299,4.83072 -4.789,0 -9.1484,-1.82041 -12.426116,-4.80746 0.643679,-0.0777 1.275144,-0.28346 1.854668,-0.61805 0.844518,-0.48758 1.508738,-1.20733 1.929598,-2.05207 0.420868,0.84474 1.083539,1.56449 1.92805,2.05207 1.50968,0.87163 3.37321,0.87163 4.88291,0 0.8445,-0.48758 1.50821,-1.20733 1.92908,-2.05207 0.42086,0.84474 1.08353,1.56449 1.92805,2.05207 1.50968,0.87163 3.37321,0.87163 4.8829,0 0.84485,-0.48777 1.50827,-1.20795 1.92857,-2.05311 z"/></g></svg>