<svg width="53.710415mm" height="53.710415mm" viewBox="0 0 53.710415 53.710415" version="1.1" id="svg7600" xmlns="http://www.w3.org/2000/svg"><g id="layer1" transform="translate(-156.24157,-82.435115)"><g fill="none" id="g50898" transform="matrix(-0.26458333,0,0,0.26458333,209.55511,82.83199)"><g stroke="#999999" stroke-width="3" id="g50892"><path d="M 0,16 V 0 h 16" id="path50884"/><path d="M 200,16 V 0 h -16" id="path50886"/><path d="m 0,184 v 16 h 16" id="path50888"/><path d="m 200,184 v 16 h -16" id="path50890"/></g></g><path id="path4475" style="color:#000000;display:inline;fill:#000000;fill-opacity:1;-inkscape-stroke:none" d="m 165.68518,90.840452 v 1.2547 h 34.8232 v -1.2547 z m 0,5.64926 v 1.25471 h 34.8232 v -1.25471 z m -4.10259,7.623828 v 2.38073 l 4.18166,7.24349 h 2.71198 l -5.55625,-9.62422 z m 5.25136,0 5.55625,9.62422 h 2.71198 l -5.55625,-9.62422 z m 6.62595,0 5.55625,9.62422 h 2.71198 l -5.55625,-9.62422 z m 6.62647,0 3.01015,5.21208 3.01067,-5.21208 z m 9.93531,0 -5.55625,9.62422 h 2.71198 l 5.55625,-9.62422 z m 6.62595,0 -5.55625,9.62422 h 2.71198 l 5.55625,-9.62422 z m 6.62596,0 -5.55625,9.62422 h 2.71197 l 4.18166,-7.24349 v -2.38073 z m -14.66888,15.49879 v 5.2e-4 c -0.15866,-0.002 -0.31808,0.003 -0.47645,0.016 -0.21051,0.0165 -0.42034,0.0458 -0.62684,0.0863 -0.20706,0.0406 -0.41015,0.0914 -0.61133,0.15038 -0.20104,0.059 -0.39926,0.12519 -0.59376,0.19533 -0.19459,0.0701 -0.38511,0.14339 -0.57258,0.21653 v 0.002 c -0.18781,0.0734 -0.37349,0.14611 -0.55449,0.21497 -0.1807,0.0687 -0.35968,0.13373 -0.5333,0.1912 -0.17435,0.0577 -0.34555,0.10864 -0.51366,0.15038 -0.16805,0.0416 -0.33356,0.0731 -0.49609,0.0956 -0.16212,0.0226 -0.32322,0.0367 -0.48421,0.0393 -0.16078,0.002 -0.32102,-0.006 -0.48266,-0.0233 -0.16163,-0.0175 -0.32539,-0.0452 -0.49196,-0.0822 -0.16663,-0.0371 -0.33746,-0.0844 -0.51005,-0.1385 -0.17213,-0.054 -0.34807,-0.11544 -0.5271,-0.1819 h -0.002 c -0.17825,-0.0663 -0.35987,-0.13783 -0.54518,-0.21032 l 5.1e-4,-0.001 c -0.18613,-0.073 -0.37752,-0.14694 -0.5705,-0.2186 -0.19273,-0.0716 -0.3886,-0.14058 -0.58808,-0.20308 -0.19971,-0.0626 -0.40184,-0.11853 -0.6072,-0.16433 -0.20477,-0.0456 -0.41292,-0.0827 -0.62322,-0.10542 h -0.002 c -0.20929,-0.0226 -0.42114,-0.0323 -0.63252,-0.0289 -0.21095,0.004 -0.42154,0.0215 -0.63097,0.0506 -0.20966,0.0291 -0.41706,0.0688 -0.62115,0.11937 -0.20408,0.0506 -0.40348,0.11211 -0.60151,0.17777 -0.19786,0.0655 -0.39285,0.13607 -0.58394,0.20877 -0.19108,0.0727 -0.37783,0.14654 -0.56224,0.21859 -0.18461,0.0721 -0.36548,0.14111 -0.54312,0.20516 -0.17755,0.064 -0.35226,0.12391 -0.52348,0.17415 -0.17139,0.0502 -0.3409,0.0921 -0.50592,0.12454 l 0.002,-0.002 c -0.16602,0.0323 -0.32963,0.0555 -0.49041,0.0682 h -0.002 c -0.16044,0.0129 -0.31987,0.0145 -0.48007,0.008 -0.16042,-0.008 -0.32307,-0.0254 -0.48628,-0.0527 h -0.003 c -0.16345,-0.0275 -0.32962,-0.0653 -0.49816,-0.11111 -0.16958,-0.0461 -0.34343,-0.10119 -0.51934,-0.16226 -0.17593,-0.0611 -0.35572,-0.12825 -0.53899,-0.19896 -0.1829,-0.0708 -0.36723,-0.14378 -0.55656,-0.21704 -0.18948,-0.0733 -0.38222,-0.1464 -0.57825,-0.21446 -0.19608,-0.068 -0.39667,-0.13099 -0.59945,-0.18603 -0.20235,-0.0548 -0.40625,-0.10143 -0.61495,-0.13643 -0.0711,-0.012 -0.14266,-0.0205 -0.21394,-0.0294 v 1.22008 c 0.004,6.8e-4 0.008,9.2e-4 0.0119,0.002 0.16345,0.0274 0.33029,0.0656 0.50023,0.11162 0.16936,0.046 0.34327,0.10064 0.51935,0.16174 0.17611,0.0611 0.35463,0.12879 0.53743,0.19948 0.18283,0.0707 0.36937,0.14325 0.55862,0.21652 0.18889,0.0729 0.38138,0.1468 0.57775,0.21497 0.19623,0.0681 0.39584,0.13049 0.59841,0.18552 0.20299,0.0552 0.40826,0.10197 0.6165,0.13694 0.20829,0.0349 0.41781,0.0576 0.6289,0.0677 0.2113,0.0102 0.42443,0.007 0.63562,-0.01 0.21138,-0.0166 0.4207,-0.0457 0.62684,-0.0858 v -0.002 c 0.20713,-0.0406 0.41198,-0.0915 0.61288,-0.15038 0.20093,-0.059 0.3971,-0.12516 0.59169,-0.19533 0.19451,-0.0701 0.38646,-0.14376 0.57413,-0.21704 0.18774,-0.0733 0.37186,-0.14554 0.55294,-0.21446 0.18106,-0.0689 0.35836,-0.13395 0.53278,-0.19172 0.17412,-0.0577 0.3456,-0.1087 0.51366,-0.15038 0.16807,-0.0416 0.334,-0.0751 0.49661,-0.0977 0.16209,-0.0225 0.32417,-0.0344 0.48473,-0.0372 0.16011,-0.003 0.32186,0.004 0.48421,0.0217 0.16119,0.0174 0.32469,0.0466 0.49144,0.0837 v -0.002 c 0.16679,0.0372 0.33605,0.0844 0.5085,0.13849 0.17266,0.0541 0.34922,0.11676 0.52865,0.18345 0.17867,0.0663 0.36228,0.13755 0.54777,0.21033 l -0.001,0.001 c 0.18575,0.0727 0.37606,0.14689 0.56895,0.21859 0.19254,0.0715 0.38861,0.14053 0.58808,0.20309 0.19958,0.0625 0.40165,0.11855 0.6072,0.16433 0.20561,0.0457 0.41475,0.0805 0.62528,0.10335 0.21054,0.023 0.42062,0.0328 0.63201,0.0295 0.21053,-0.003 0.42156,-0.02 0.63097,-0.0491 0.20964,-0.0291 0.41703,-0.0703 0.62115,-0.12093 0.20407,-0.0507 0.40629,-0.11019 0.60409,-0.1757 0.198,-0.0655 0.39051,-0.13623 0.58136,-0.20877 0.19118,-0.0727 0.37996,-0.1471 0.56431,-0.21911 0.18471,-0.0721 0.36554,-0.14268 0.54312,-0.2067 0.17767,-0.0641 0.35288,-0.12188 0.524,-0.17209 0.17097,-0.0502 0.33862,-0.0927 0.50384,-0.12505 0.16502,-0.0324 0.32891,-0.0556 0.4899,-0.0682 0.16034,-0.0126 0.31968,-0.0154 0.48059,-0.008 0.16171,0.008 0.32509,0.0253 0.48834,0.0527 0.16345,0.0274 0.32978,0.0656 0.49971,0.11162 0.16879,0.0458 0.34235,0.1009 0.5178,0.16174 0.17611,0.0611 0.35619,0.12877 0.53898,0.19947 0.18283,0.0707 0.36989,0.14533 0.55914,0.2186 0.18889,0.0729 0.38087,0.14473 0.57723,0.2129 0.19624,0.0681 0.39533,0.13256 0.5979,0.18759 0.20299,0.0552 0.40877,0.10197 0.61701,0.13694 0.20829,0.0349 0.41781,0.0581 0.6289,0.0682 0.21131,0.0102 0.42443,0.005 0.63562,-0.0119 0.21138,-0.0166 0.42071,-0.0462 0.62684,-0.0863 0.20714,-0.0406 0.41043,-0.0915 0.61133,-0.15038 0.20093,-0.059 0.39865,-0.12517 0.59325,-0.19534 0.1945,-0.0701 0.38645,-0.14531 0.57412,-0.21859 0.18774,-0.0734 0.37186,-0.14606 0.55294,-0.21497 0.18106,-0.0689 0.35836,-0.13343 0.53278,-0.1912 0.17413,-0.0577 0.34663,-0.1087 0.5147,-0.15038 0.14035,-0.0347 0.27788,-0.0607 0.41445,-0.0822 v -1.2206 c -0.0282,0.003 -0.0566,0.005 -0.0848,0.009 -0.20967,0.0291 -0.41707,0.0708 -0.62115,0.12144 -0.20408,0.0506 -0.40556,0.11003 -0.60359,0.1757 -0.19785,0.0655 -0.39129,0.13606 -0.58239,0.20877 -0.19107,0.0727 -0.37989,0.14654 -0.56431,0.21859 -0.18401,0.0718 -0.36602,0.14337 -0.54311,0.20722 -0.17756,0.064 -0.35175,0.12184 -0.52297,0.17208 -0.17138,0.0502 -0.33935,0.0926 -0.50436,0.12506 -0.16602,0.0323 -0.32705,0.0555 -0.48783,0.0682 h -0.002 c -0.16044,0.0129 -0.32039,0.015 -0.48059,0.008 -0.16106,-0.008 -0.32447,-0.0253 -0.48834,-0.0527 -0.16404,-0.0275 -0.33107,-0.0651 -0.50023,-0.11111 -0.16958,-0.0461 -0.34137,-0.10119 -0.51728,-0.16226 -0.17592,-0.0611 -0.35572,-0.12825 -0.53898,-0.19896 -0.1829,-0.0708 -0.3693,-0.14585 -0.55863,-0.21911 -0.18948,-0.0733 -0.38222,-0.14433 -0.57826,-0.21239 -0.19607,-0.068 -0.39459,-0.13255 -0.59738,-0.18758 -0.20173,-0.0547 -0.40741,-0.10198 -0.61546,-0.13694 h -0.002 c -0.20827,-0.035 -0.41911,-0.058 -0.6289,-0.0682 -0.0525,-0.002 -0.1049,-0.004 -0.15762,-0.005 z m -5.1e-4,5.5578 5.1e-4,0.001 v 10e-4 c -0.15866,-0.002 -0.31808,0.003 -0.47645,0.016 -0.21051,0.0165 -0.42034,0.0458 -0.62684,0.0863 -0.20706,0.0406 -0.41015,0.0914 -0.61133,0.15038 -0.20104,0.059 -0.39926,0.1252 -0.59376,0.19534 -0.19459,0.0701 -0.38511,0.14338 -0.57258,0.21652 v 0.002 c -0.18781,0.0734 -0.37349,0.14611 -0.55449,0.21497 -0.1807,0.0687 -0.35968,0.13373 -0.5333,0.1912 -0.17435,0.0577 -0.34555,0.10864 -0.51366,0.15038 -0.16805,0.0416 -0.33356,0.0731 -0.49609,0.0956 -0.16212,0.0226 -0.32322,0.0367 -0.48421,0.0393 -0.16078,0.002 -0.32102,-0.006 -0.48266,-0.0233 -0.16163,-0.0175 -0.32539,-0.0452 -0.49196,-0.0822 -0.16663,-0.0371 -0.33746,-0.0844 -0.51005,-0.1385 -0.17213,-0.054 -0.34807,-0.11544 -0.5271,-0.1819 h -0.002 c -0.17825,-0.0663 -0.35987,-0.13783 -0.54518,-0.21032 l 5.1e-4,-0.001 c -0.18613,-0.073 -0.37752,-0.14693 -0.5705,-0.21859 -0.19273,-0.0716 -0.3886,-0.14059 -0.58808,-0.20309 -0.19971,-0.0626 -0.40184,-0.11853 -0.6072,-0.16433 -0.20477,-0.0456 -0.41292,-0.0827 -0.62322,-0.10542 h -0.002 c -0.20929,-0.0226 -0.42114,-0.0323 -0.63252,-0.0289 -0.21095,0.004 -0.42154,0.0215 -0.63097,0.0506 -0.20966,0.0291 -0.41706,0.0688 -0.62115,0.11937 -0.20408,0.0506 -0.40348,0.11211 -0.60151,0.17777 -0.19786,0.0655 -0.39285,0.13607 -0.58394,0.20877 -0.19108,0.0727 -0.37783,0.14654 -0.56224,0.21859 -0.18461,0.0721 -0.36548,0.14111 -0.54312,0.20516 -0.17755,0.064 -0.35226,0.12391 -0.52348,0.17415 -0.17139,0.0502 -0.3409,0.0921 -0.50592,0.12454 l 0.002,-0.002 c -0.16602,0.0323 -0.32963,0.0555 -0.49041,0.0682 h -0.002 c -0.16044,0.0129 -0.31987,0.015 -0.48007,0.008 -0.16042,-0.008 -0.32307,-0.0254 -0.48628,-0.0527 h -0.003 c -0.16345,-0.0275 -0.32962,-0.0653 -0.49816,-0.11111 -0.16958,-0.0461 -0.34343,-0.10119 -0.51934,-0.16226 -0.17593,-0.0611 -0.35572,-0.12825 -0.53899,-0.19896 -0.1829,-0.0708 -0.36723,-0.14378 -0.55656,-0.21704 -0.18948,-0.0733 -0.38222,-0.14639 -0.57825,-0.21445 -0.19608,-0.068 -0.39667,-0.131 -0.59945,-0.18604 -0.20235,-0.0548 -0.40625,-0.10143 -0.61495,-0.13643 -0.0711,-0.0119 -0.14266,-0.0205 -0.21394,-0.0294 v 1.22008 c 0.004,6.8e-4 0.008,9.2e-4 0.0119,0.002 0.16345,0.0274 0.33029,0.0656 0.50023,0.11162 0.16936,0.046 0.34327,0.10064 0.51935,0.16174 0.17611,0.0611 0.35463,0.12879 0.53743,0.19948 0.18283,0.0707 0.36937,0.14325 0.55862,0.21652 0.18889,0.0729 0.38138,0.1468 0.57775,0.21497 0.19623,0.0681 0.39584,0.13049 0.59841,0.18552 0.20299,0.0552 0.40826,0.10198 0.6165,0.13695 0.20829,0.0349 0.41781,0.0581 0.6289,0.0682 0.2113,0.0102 0.42443,0.007 0.63562,-0.0103 0.21138,-0.0166 0.4207,-0.0457 0.62684,-0.0858 v -0.002 c 0.20713,-0.0406 0.41198,-0.0915 0.61288,-0.15038 0.20093,-0.059 0.3971,-0.12465 0.59169,-0.19482 0.19451,-0.0701 0.38646,-0.14376 0.57413,-0.21704 0.18774,-0.0733 0.37186,-0.14605 0.55294,-0.21497 0.18106,-0.0689 0.35836,-0.13395 0.53278,-0.19172 0.17412,-0.0577 0.3456,-0.1087 0.51366,-0.15038 0.16807,-0.0416 0.334,-0.0756 0.49661,-0.0982 0.16209,-0.0225 0.32417,-0.0344 0.48473,-0.0372 0.16011,-0.003 0.32186,0.004 0.48421,0.0217 0.16119,0.0174 0.32469,0.0466 0.49144,0.0837 v -0.002 c 0.16679,0.0372 0.33605,0.0844 0.5085,0.13849 0.17266,0.0541 0.34922,0.11677 0.52865,0.18346 0.17867,0.0663 0.36228,0.13806 0.54777,0.21084 h -0.001 c 0.18575,0.0727 0.37606,0.14689 0.56895,0.21859 0.19254,0.0715 0.38861,0.14053 0.58808,0.20309 0.19958,0.0625 0.40165,0.11855 0.6072,0.16433 0.20561,0.0457 0.41475,0.081 0.62528,0.10387 0.21054,0.023 0.42062,0.0318 0.63201,0.0284 0.21053,-0.003 0.42156,-0.02 0.63097,-0.0491 0.20964,-0.0291 0.41703,-0.0703 0.62115,-0.12093 0.20407,-0.0507 0.40629,-0.11019 0.60409,-0.1757 0.198,-0.0655 0.39051,-0.13623 0.58136,-0.20877 0.19118,-0.0727 0.37996,-0.1471 0.56431,-0.21911 0.18471,-0.0721 0.36554,-0.14268 0.54312,-0.2067 0.17767,-0.0641 0.35288,-0.12188 0.524,-0.17209 0.17097,-0.0502 0.33862,-0.0927 0.50384,-0.12505 0.16502,-0.0324 0.32891,-0.0556 0.4899,-0.0682 0.16034,-0.0126 0.31968,-0.0149 0.48059,-0.008 0.16171,0.008 0.32509,0.0253 0.48834,0.0527 0.16345,0.0274 0.32978,0.0656 0.49971,0.11162 0.16879,0.0458 0.34235,0.10091 0.5178,0.16175 0.17611,0.0611 0.35619,0.12877 0.53898,0.19947 0.18283,0.0707 0.36989,0.14532 0.55914,0.21859 0.18889,0.0729 0.38087,0.14474 0.57723,0.21291 0.19624,0.0681 0.39533,0.13256 0.5979,0.18759 0.20299,0.0552 0.40877,0.10197 0.61701,0.13694 0.20829,0.0349 0.41781,0.0581 0.6289,0.0682 0.21131,0.0102 0.42443,0.005 0.63562,-0.0119 0.21138,-0.0166 0.42071,-0.0457 0.62684,-0.0858 0.20714,-0.0406 0.41043,-0.0915 0.61133,-0.15038 0.20093,-0.059 0.39865,-0.12516 0.59325,-0.19533 0.1945,-0.0701 0.38645,-0.14531 0.57412,-0.21859 0.18774,-0.0734 0.37186,-0.14607 0.55294,-0.21498 0.18106,-0.0689 0.35836,-0.13343 0.53278,-0.1912 0.17413,-0.0577 0.34663,-0.1087 0.5147,-0.15038 0.14035,-0.0347 0.27788,-0.0612 0.41445,-0.0827 v -1.2206 c -0.0282,0.003 -0.0565,0.005 -0.0848,0.009 -0.20967,0.0291 -0.41707,0.0708 -0.62115,0.12144 -0.20408,0.0506 -0.40556,0.11003 -0.60359,0.1757 -0.19785,0.0655 -0.39129,0.13606 -0.58239,0.20877 -0.19107,0.0727 -0.37989,0.14654 -0.56431,0.21859 -0.18401,0.0718 -0.36602,0.14337 -0.54311,0.20722 -0.17756,0.064 -0.35175,0.12184 -0.52297,0.17208 -0.17138,0.0502 -0.33935,0.0926 -0.50436,0.12506 -0.16602,0.0323 -0.32705,0.0555 -0.48783,0.0682 h -0.002 c -0.16044,0.0129 -0.32039,0.016 -0.48059,0.008 -0.16106,-0.008 -0.32447,-0.0253 -0.48834,-0.0527 -0.16404,-0.0275 -0.33107,-0.0651 -0.50023,-0.1111 -0.16958,-0.0461 -0.34137,-0.1012 -0.51728,-0.16227 -0.17592,-0.0611 -0.35572,-0.12824 -0.53898,-0.19895 -0.1829,-0.0708 -0.3693,-0.14585 -0.55863,-0.21911 -0.18948,-0.0733 -0.38222,-0.14433 -0.57826,-0.21239 -0.19607,-0.068 -0.39459,-0.13255 -0.59738,-0.18758 -0.20173,-0.0547 -0.40741,-0.10199 -0.61546,-0.13695 h -0.002 c -0.20827,-0.035 -0.41911,-0.058 -0.6289,-0.0682 -0.0527,-0.002 -0.10524,-0.004 -0.15813,-0.005 z"/></g></svg>