<svg width="53.710415mm" height="53.710415mm" viewBox="0 0 53.710415 53.710415" version="1.1" id="svg70368" xmlns="http://www.w3.org/2000/svg"><g id="layer1" transform="translate(-46.241566,-73.564147)"><g fill="none" id="g50898" transform="matrix(0.26458333,0,0,0.26458333,46.638441,73.961022)" style="display:inline"><g stroke="#999999" stroke-width="3" id="g50892"><path d="M 0,16 V 0 h 16" id="path50884"/><path d="M 200,16 V 0 h -16" id="path50886"/><path d="m 0,184 v 16 h 16" id="path50888"/><path d="m 200,184 v 16 h -16" id="path50890"/></g></g><path id="rect66971" style="color:#000000;fill:#000000;stroke-linecap:round;-inkscape-stroke:none" d="m 50.731472,84.606882 0.207223,0.79272 8.06049,30.832218 h 28.195178 l 8.267713,-31.624938 z m 1.636593,1.26556 h 6.84196 v 21.639498 h -1.183907 z m 8.105447,0 H 85.719518 V 114.96833 H 60.473512 Z m 26.510011,0 h 6.84196 L 88.16743,107.51194 h -1.183907 z m -22.237402,3.64887 -0.894519,0.89452 8.350395,8.34936 -8.350395,8.349878 0.894519,0.89452 8.350911,-8.349878 8.350395,8.349878 0.894519,-0.89452 -8.350395,-8.349878 8.350395,-8.34936 -0.894519,-0.89452 -8.350395,8.34988 z"/></g></svg>