<svg width="53.710415mm" height="53.710415mm" viewBox="0 0 53.710415 53.710415" version="1.1" id="svg1978" xmlns="http://www.w3.org/2000/svg"><g id="layer1" transform="translate(-86.33834,-138.85447)"><g fill="none" stroke="#999999" stroke-width="3" id="g160" transform="matrix(0.26458333,0,0,0.26458333,86.735215,139.25134)"><path d="M 0,16 V 0 h 16" id="path152"/><path d="M 200,16 V 0 h -16" id="path154"/><path d="m 0,184 v 16 h 16" id="path156"/><path d="m 200,184 v 16 h -16" id="path158"/></g><path id="path322" style="color:#000000;fill:#000000;fill-opacity:1;-inkscape-stroke:none" d="m 110.21,153.46753 v 8.40103 H 97.225272 v -4.67775 l -9.972001,8.51886 9.972001,8.51886 v -4.67775 h 12.984738 v 8.40104 h 1.26555 v -8.40104 -1.76165 -4.15892 -1.76165 -8.40103 z m 4.70153,0 v 8.40103 1.76165 4.15892 1.76165 8.40104 h 1.26555 v -8.40104 h 12.98474 v 4.67775 l 9.972,-8.51886 -9.972,-8.51886 v 4.67775 h -12.98474 v -8.40103 z m -18.951814,6.46937 v 3.19515 H 110.21 v 5.15473 H 95.959716 v 3.19515 l -6.747909,-5.77226 z m 34.467664,0 6.7479,5.77277 -6.7479,5.77226 v -3.19515 h -14.2503 v -5.15473 h 14.2503 z"/></g></svg>