<svg width="53.710415mm" height="53.710415mm" viewBox="0 0 53.710415 53.710415" version="1.1" id="svg7479" xmlns="http://www.w3.org/2000/svg"><g id="layer1" transform="translate(-131.10888,-91.187666)"><g fill="none" id="g50898" transform="matrix(0.26458333,0,0,0.26458333,131.50575,91.584541)" style="display:inline"><g stroke="#999999" stroke-width="3" id="g50892"><path d="M 0,16 V 0 h 16" id="path50884"/><path d="M 200,16 V 0 h -16" id="path50886"/><path d="m 0,184 v 16 h 16" id="path50888"/><path d="m 200,184 v 16 h -16" id="path50890"/></g></g><path id="rect7395" style="color:#000000;fill:#000000" d="m 151.49936,94.069921 c -1.28455,0 -2.30477,1.09773 -2.30477,2.39675 v 36.431889 a 4.8517828,4.8517828 0 0 0 -2.54662,4.26537 4.8517828,4.8517828 0 0 0 4.85191,4.8519 4.8517828,4.8517828 0 0 0 4.8519,-4.8519 4.8517828,4.8517828 0 0 0 -2.5461,-4.26847 v -2.66134 h 14.02344 v -1.26349 H 153.80568 V 96.466671 c 0,-1.29902 -1.02177,-2.39675 -2.30632,-2.39675 z m 0,1.264 c 0.56858,0 1.04077,0.47753 1.04077,1.13275 v 32.503959 h -2.07998 V 96.466671 c 0,-0.65522 0.47064,-1.13275 1.03921,-1.13275 z m 11.65407,5.530929 v 15.7949 c -2.73013,0.31549 -4.8612,2.64456 -4.8612,5.45704 0,3.02652 2.46771,5.49423 5.49424,5.49423 3.02653,0 5.49372,-2.46771 5.49372,-5.49423 0,-2.81257 -2.13094,-5.14167 -4.8612,-5.45704 v -15.7949 z m 0.63304,17.02377 c 2.34287,0 4.22816,1.8853 4.22816,4.22817 0,2.34286 -1.88529,4.22868 -4.22816,4.22868 -2.34287,0 -4.22868,-1.88582 -4.22868,-4.22868 0,-2.34287 1.88581,-4.22817 4.22868,-4.22817 z"/></g></svg>