<svg width="53.710415mm" height="53.710415mm" viewBox="0 0 53.710415 53.710415" version="1.1" id="svg10789" xmlns="http://www.w3.org/2000/svg"><g id="layer1" transform="translate(-142.12162,-144.87481)"><g fill="none" stroke="#999999" stroke-width="3" id="g160" transform="matrix(0.26458333,0,0,0.26458333,142.51849,145.27168)"><path d="M 0,16 V 0 h 16" id="path152"/><path d="M 200,16 V 0 h -16" id="path154"/><path d="m 0,184 v 16 h 16" id="path156"/><path d="m 200,184 v 16 h -16" id="path158"/></g><path id="path10589-1" style="color:#000000;fill:#000000;stroke-width:1.33221;-inkscape-stroke:none" d="m 161.45014,149.07429 -1.82004,0.48834 3.87057,2.23449 h -7.84965 l -1.33222,1.33222 h 4.46897 l -6.79803,3.92534 -0.48783,1.82005 3.87057,-2.23449 -3.92483,6.79803 0.48731,1.82005 2.23449,-3.87057 5.2e-4,7.85017 1.33222,1.33222 v -4.47053 l 3.92534,6.79958 1.82004,0.48783 -2.23449,-3.87057 6.79856,3.92483 1.82004,-0.48783 -3.8716,-2.235 h 7.8512 l 1.33222,-1.33222 h -4.46949 l 6.79855,-3.92534 0.48731,-1.82005 -3.8716,2.23553 3.92586,-6.79959 -0.48783,-1.81953 -2.23449,3.87057 -5.2e-4,-7.85017 -1.33221,-1.33222 v 4.4695 l -3.92535,-6.79855 -1.81952,-0.48731 2.23449,3.87056 z m 2.18127,4.06125 c 4.493,0 8.12095,3.63001 8.12095,8.12302 0,4.49302 -3.62795,8.12095 -8.12095,8.12095 -4.49301,0 -8.12302,-3.62793 -8.12302,-8.12095 0,-4.49301 3.63001,-8.12302 8.12302,-8.12302 z m 0,5.1015 c -1.66042,0 -3.01946,1.3611 -3.01946,3.02152 0,1.66043 1.35904,3.01945 3.01946,3.01945 1.66042,0 3.01945,-1.35902 3.01945,-3.01945 0,-1.66042 -1.35903,-3.02152 -3.01945,-3.02152 z m 21.60488,0.39687 v 10.30894 l -2.53318,-4.38733 -1.09347,0.63303 4.25968,7.37681 4.25969,-7.37887 -1.09554,-0.63097 -2.53369,4.38526 v -10.30687 z m -21.60488,0.86868 c 0.97676,0 1.7539,0.77921 1.7539,1.75597 0,0.97677 -0.77714,1.7539 -1.7539,1.7539 -0.97677,0 -1.75597,-0.77713 -1.75597,-1.7539 0,-0.97676 0.7792,-1.75597 1.75597,-1.75597 z m 9.57822,13.29893 v 1.26556 h 17.3359 v -1.26556 z m -25.80152,4.46433 v 2.61948 h 43.11726 v -2.61948 z m 38.46121,3.18844 -4.25968,7.37681 1.09347,0.63303 2.53318,-4.38732 v 10.30893 h 1.26349 v -10.30687 l 2.53369,4.38526 1.09554,-0.63097 z"/></g></svg>