<svg width="200" height="200" version="1.1" xmlns="http://www.w3.org/2000/svg"><g fill="none"><g stroke="#999" stroke-width="3"><path d="m0 16v-16h16"/><path d="m200 16v-16h-16"/><path d="m0 184v16h16"/><path d="m200 184v16h-16"/></g><g stroke="#000"><g><circle cx="127.97" cy="71.504" r="8.2617" stroke-width="5"/><circle cx="58.181" cy="141.89" r="8.2617" stroke-width="5"/><path d="m29.281 169.48a39.963 39.962 44.834 0 1-9.328-39.246m3.0943-7.3971a39.963 39.962 44.834 0 1 6.7939-9.1328 39.963 39.962 44.834 0 1 27.468-11.777m7.9607 0.62446a39.963 39.962 44.834 0 1 21.086 10.989 39.963 39.962 44.834 0 1 9.4802 14.959m1.9108 7.7692a39.963 39.962 44.834 0 1-11.227 33.787 39.963 39.962 44.834 0 1-3.967 3.4942m-6.8408 4.2416a39.963 39.962 44.834 0 1-40.308-3.0751" stroke-width="5"/></g><path d="m93.619 113.39a54.169 54.169 0 0 1-19.285-34.275m102.09 16.601a54.169 54.169 0 0 1-29.156 26.401m-7.9985 2.3629a54.169 54.169 0 0 1-11.302 1.1922 54.169 54.169 0 0 1-27.515-7.5086m-26.65-47.366a54.169 54.169 0 0 1 14.878-36.59m6.1908-5.5888a54.169 54.169 0 0 1 33.096-11.286 54.169 54.169 0 0 1 4.6298 0.19822m8.23 1.3504a54.169 54.169 0 0 1 32.212 22.573m4.079 7.2765a54.169 54.169 0 0 1 5.0185 22.771 54.169 54.169 0 0 1-2.5701 16.487" stroke-width="5"/></g></g></svg>