<svg width="53.710415mm" height="53.710415mm" viewBox="0 0 53.710415 53.710415" version="1.1" id="svg6523" xmlns="http://www.w3.org/2000/svg"><g id="layer1" transform="translate(-63.628663,-111.17706)"><g fill="none" id="g50898" transform="matrix(0.26458333,0,0,0.26458333,64.025538,111.57393)" style="display:inline"><g stroke="#999999" stroke-width="3" id="g50892"><path d="M 0,16 V 0 h 16" id="path50884"/><path d="M 200,16 V 0 h -16" id="path50886"/><path d="m 0,184 v 16 h 16" id="path50888"/><path d="m 200,184 v 16 h -16" id="path50890"/></g></g><path id="path6489" style="color:#000000;fill:#000000;-inkscape-stroke:none" d="m 92.331304,118.55282 -0.327112,1.22215 7.220232,1.93476 c -2.796505,0.78908 -5.708446,1.89464 -8.327658,3.69383 -3.327515,2.28575 -6.166304,5.70851 -7.616072,10.90632 l 1.219562,0.34054 c 1.374498,-4.928 3.989475,-8.05963 7.111194,-10.20403 2.480653,-1.704 5.29187,-2.77122 8.035169,-3.5419 l -5.353679,5.35368 0.894519,0.89297 7.756121,-7.75508 z m 10.088786,11.28716 c -6.1407,2.8e-4 -11.156647,4.87965 -11.379147,10.96678 h -0.0031 l -1.014409,12.80645 c -0.118929,1.48014 -1.04977,2.63498 -2.534729,2.63498 -1.484948,0 -2.542923,-1.18221 -2.661853,-2.66236 -0.156519,-1.94786 -0.277669,-3.90756 -0.456819,-5.87406 -0.17329,-2.15693 -1.761981,-3.92586 -3.925859,-3.92586 -2.163888,0 -3.647139,1.76893 -3.820438,3.92586 -0.15641,1.94658 -0.282511,3.89989 -0.410311,5.87406 -0.11894,1.48016 -1.175345,2.66236 -2.660303,2.66236 -1.484959,0 -2.542923,-1.18221 -2.661853,-2.66236 -0.15651,-1.94786 -0.27769,-3.90756 -0.45682,-5.87406 -0.15542,-1.93439 -1.449641,-3.55588 -3.275769,-3.87005 v 1.28777 c 1.136759,0.28896 1.911034,1.32867 2.011764,2.58228 0.15652,1.94785 0.27768,3.90755 0.456819,5.87406 0.1733,2.15691 1.761981,3.92585 3.925859,3.92585 2.163858,0 3.752559,-1.76894 3.925858,-3.92585 0.1564,-1.9466 0.282491,-3.89991 0.410311,-5.87406 0.11893,-1.48018 1.069925,-2.66237 2.554883,-2.66237 1.484949,0 2.542923,1.18219 2.661853,2.66237 0.15652,1.94785 0.27769,3.90755 0.456819,5.87406 0.1733,2.15691 1.761991,3.92585 3.925859,3.92585 2.163888,0 3.626985,-1.74159 3.800285,-3.89847 l 0.631486,-7.97264 c 1.726449,4.09586 5.781262,6.97684 10.499614,6.97684 4.37662,0 8.18195,-2.47882 10.08828,-6.10661 v 6.78202 h 1.30069 v -12.06438 -0.4532 h -0.0103 c -0.2388,-6.07234 -5.24808,-10.93498 -11.37811,-10.93526 z m 0,1.26556 c 5.44656,0 9.87602,4.28238 10.11257,9.6697 h -0.0248 v 1.29759 c -0.42778,5.20223 -4.77352,9.27851 -10.08776,9.27851 -5.598525,0 -10.122898,-4.52436 -10.122898,-10.1229 0,-5.59852 4.524373,-10.1229 10.122898,-10.1229 z m 0,7.3825 c -1.50539,0 -2.73988,1.23499 -2.73988,2.7404 0,1.50541 1.23449,2.73833 2.73988,2.73833 1.50542,0 2.73834,-1.23292 2.73834,-2.73833 0,-1.50541 -1.23292,-2.7404 -2.73834,-2.7404 z m 0,1.26607 c 0.82176,0 1.47485,0.65257 1.47485,1.47433 0,0.82176 -0.65309,1.47485 -1.47485,1.47485 -0.82175,0 -1.47432,-0.65309 -1.47432,-1.47485 0,-0.82176 0.65257,-1.47433 1.47432,-1.47433 z"/></g></svg>