<svg width="53.710415mm" height="53.710415mm" viewBox="0 0 53.710415 53.710415" version="1.1" id="svg18005" xmlns="http://www.w3.org/2000/svg"><g id="layer1" transform="translate(-22.467373,-63.628663)"><g fill="none" id="g50898" transform="matrix(0.26458333,0,0,0.26458333,22.864248,64.025538)" style="display:inline"><g stroke="#999999" stroke-width="3" id="g50892"><path d="M 0,16 V 0 h 16" id="path50884"/><path d="M 200,16 V 0 h -16" id="path50886"/><path d="m 0,184 v 16 h 16" id="path50888"/><path d="m 200,184 v 16 h -16" id="path50890"/></g></g><path id="path9325" style="color:#000000;fill:#000000;stroke-width:1.03287" d="m 40.816382,68.537928 c -5.971295,0 -10.824148,4.85282 -10.824148,10.82414 0,5.97129 4.852852,10.82622 10.824148,10.82622 5.97132,0 10.82621,-4.85493 10.82621,-10.82622 0,-5.97132 -4.85489,-10.82414 -10.82621,-10.82414 z m 0,1.26349 c 5.28767,0 9.56066,4.27297 9.56066,9.56065 0,5.28764 -4.27299,9.56066 -9.56066,9.56066 -5.287647,0 -9.560659,-4.27302 -9.560659,-9.56066 0,-5.28768 4.273012,-9.56065 9.560659,-9.56065 z m 17.61701,6.1128 v 6.68797 h -3.11712 l 5.95003,7.00629 5.95209,-7.00629 h -3.11919 v -6.68797 z m -17.61701,0.78755 c -1.46254,0 -2.661854,1.19777 -2.661854,2.6603 0,1.46254 1.199314,2.66237 2.661854,2.66237 1.46254,0 2.66237,-1.19983 2.66237,-2.66237 0,-1.46253 -1.19983,-2.6603 -2.66237,-2.6603 z m 18.88257,0.47646 h 3.13676 v 6.68796 h 1.65003 l -3.21841,3.77393 -3.21892,-3.77393 h 1.65054 z m -18.88257,0.78755 c 0.77889,0 1.39682,0.61742 1.39682,1.39629 0,0.77889 -0.61793,1.39837 -1.39682,1.39837 -0.77888,0 -1.3963,-0.61948 -1.3963,-1.39837 0,-0.77887 0.61742,-1.39629 1.3963,-1.39629 z m -6.933428,1.39733 c 0,2.47606 1.322654,4.76574 3.466972,6.00377 2.144326,1.23803 4.789106,1.23803 6.933426,0 2.14433,-1.23803 3.46698,-3.52771 3.46698,-6.00377 h -1.26349 c 0,2.02615 -1.08132,3.89516 -2.83601,4.90823 -1.75468,1.01307 -3.91318,1.01307 -5.66787,0 -1.754688,-1.01307 -2.833936,-2.88208 -2.833936,-4.90823 z m 19.998778,10.48773 v 1.26607 h 14.7712 v -1.26607 z m -13.06535,0.92863 c -5.971295,0 -10.824147,4.85492 -10.824147,10.826212 0,5.97133 4.852852,10.82414 10.824147,10.82414 5.97132,0 10.82621,-4.85281 10.82621,-10.82414 0,-5.971292 -4.85489,-10.826212 -10.82621,-10.826212 z m 20.44992,0.57981 -5.95003,7.00629 h 3.11712 v 6.687962 h 5.66581 v -6.687962 h 3.11919 z m -20.44992,0.68574 c 5.28767,0 9.56066,4.27302 9.56066,9.560662 0,5.28768 -4.27299,9.56066 -9.56066,9.56066 -5.287646,0 -9.560658,-4.27298 -9.560658,-9.56066 0,-5.287642 4.273012,-9.560662 9.560658,-9.560662 z m 20.45043,1.28261 3.21841,3.77393 h -1.65003 v 6.687962 h -3.13676 v -6.687962 h -1.65002 z m -20.45043,1.34462 c -1.19727,0 -2.394288,0.30962 -3.466456,0.92863 -2.144318,1.23803 -3.466972,3.52771 -3.466972,6.003762 h 1.266072 c 0,-2.026142 1.079248,-3.895152 2.833935,-4.908222 1.754691,-1.01308 3.913191,-1.01308 5.667871,0 1.75469,1.01307 2.83601,2.88208 2.83601,4.908222 h 1.26349 c 0,-2.476052 -1.32265,-4.765732 -3.46698,-6.003762 -1.07216,-0.61901 -2.2697,-0.92863 -3.46697,-0.92863 z m 0,4.27106 c -1.46254,0 -2.661854,1.199832 -2.661854,2.662372 0,1.46254 1.199314,2.6603 2.661854,2.6603 1.46254,0 2.66237,-1.19776 2.66237,-2.6603 0,-1.46254 -1.19983,-2.662372 -2.66237,-2.662372 z m 0,1.264002 c 0.77889,0 1.39682,0.61948 1.39682,1.39837 0,0.77888 -0.61793,1.3963 -1.39682,1.3963 -0.77888,0 -1.3963,-0.61742 -1.3963,-1.3963 0,-0.77889 0.61742,-1.39837 1.3963,-1.39837 z"/></g></svg>