<svg width="53.710415mm" height="53.710415mm" viewBox="0 0 53.710415 53.710415" version="1.1" id="svg3986" xmlns="http://www.w3.org/2000/svg"><g id="layer1" transform="translate(-252.7577,-49.080276)"><g fill="none" id="g50898" transform="matrix(-0.26458333,0,0,0.26458333,306.07124,49.477151)"><g stroke="#999999" stroke-width="3" id="g50892"><path d="M 0,16 V 0 h 16" id="path50884"/><path d="M 200,16 V 0 h -16" id="path50886"/><path d="m 0,184 v 16 h 16" id="path50888"/><path d="m 200,184 v 16 h -16" id="path50890"/></g></g><path id="path3577" style="color:#000000;fill:#000000;-inkscape-stroke:none" d="m 289.00972,55.158989 -0.6289,1.096059 5.62291,3.226161 h -22.92935 c -7.26921,-0.137241 -11.67501,3.07401 -13.68185,7.03161 -2.00685,3.957611 -1.82785,8.442226 -0.52349,11.386386 l 0.0274,0.0625 10.82415,18.75027 2.2226,-1.28312 -8.00209,-13.86117 c 1.94673,1.4638 4.36579,2.33215 6.9851,2.33215 6.42283,0 11.6427,-5.21985 11.6427,-11.6427 0,-4.397537 -2.44718,-8.230827 -6.05183,-10.211257 h 19.22932 l -5.36763,3.08612 0.63097,1.09761 7.27552,-4.18373 h 7.05487 v -2.5647 h -6.79752 z m -18.58698,6.8833 c 0.12057,-8.3e-4 0.24446,9.7e-4 0.36742,0.0021 4.84718,0.87627 8.51473,5.11008 8.51473,10.212806 0,5.73919 -4.63952,10.37715 -10.3787,10.37715 -5.73918,0 -10.37921,-4.63796 -10.37921,-10.37715 0,-0.19581 0.006,-0.39031 0.0165,-0.58342 0.12921,-1.346905 0.47461,-2.737586 1.11622,-4.002856 1.55268,-3.06197 4.61341,-5.58597 10.74301,-5.6286 z m -1.49655,7.519441 c -1.48119,0 -2.69544,1.21426 -2.69544,2.695435 0,1.48119 1.21425,2.69545 2.69544,2.69545 1.48119,0 2.69544,-1.21426 2.69544,-2.69545 0,-1.481175 -1.21425,-2.695435 -2.69544,-2.695435 z m 0,1.26349 c 0.79753,0 1.43144,0.634425 1.43144,1.431945 0,0.79753 -0.63391,1.42937 -1.43144,1.42937 -0.79753,0 -1.42989,-0.63184 -1.42989,-1.42937 0,-0.79752 0.63236,-1.431945 1.42989,-1.431945 z"/></g></svg>