<svg width="53.710415mm" height="53.710415mm" viewBox="0 0 53.710415 53.710415" version="1.1" id="svg64375" xmlns="http://www.w3.org/2000/svg"><g id="layer1" transform="translate(-59.725437,-99.467373)"><g fill="none" id="g50898" transform="matrix(0.26458333,0,0,0.26458333,60.122312,99.864248)" style="display:inline"><g stroke="#999999" stroke-width="3" id="g50892"><path d="M 0,16 V 0 h 16" id="path50884"/><path d="M 200,16 V 0 h -16" id="path50886"/><path d="m 0,184 v 16 h 16" id="path50888"/><path d="m 200,184 v 16 h -16" id="path50890"/></g></g><path id="path63940" style="color:#000000;fill:#000000" d="m 66.423477,108.18881 v 0.63304 35.63451 h 36.140433 v -8.83149 h 4.1739 v -1.26349 h -4.1739 v -16.07602 h 4.1739 v -1.26401 h -4.1739 v -8.83254 z m 1.263489,1.26555 h 33.611384 v 7.56699 H 75.749523 v 1.26401 h 0.04806 l 15.245064,8.0331 -15.22181,8.04292 h -0.07131 v 1.26349 h 25.548823 v 7.56595 H 67.686966 Z m 10.926981,8.831 h 22.684403 v 16.07602 H 78.68216 l 15.047661,-8.04705 z"/></g></svg>