<svg width="53.710415mm" height="53.710415mm" viewBox="0 0 53.710415 53.710415" version="1.1" id="svg25389" xmlns="http://www.w3.org/2000/svg"><g id="layer1" transform="translate(-94.854469,-91.306082)"><g fill="none" id="g50898" transform="matrix(0.26458333,0,0,0.26458333,95.251344,91.702957)" style="display:inline"><g stroke="#999999" stroke-width="3" id="g50892"><path d="M 0,16 V 0 h 16" id="path50884"/><path d="M 200,16 V 0 h -16" id="path50886"/><path d="m 0,184 v 16 h 16" id="path50888"/><path d="m 200,184 v 16 h -16" id="path50890"/></g></g><path id="path20142" style="color:#000000;fill:#000000;-inkscape-stroke:none" d="m 124.60615,96.520747 v 8.455823 h -7.9003 v 5.17953 h 7.9003 v 16.00987 h -7.90805 v 5.17953 h 7.90805 v 8.45633 h 18.16374 v -1.26555 H 125.8717 v -19.02262 h 16.89819 V 116.8084 H 125.8717 V 97.786827 h 16.89819 v -1.26556 z m -19.40503,7.070893 v 6.68796 H 102.084 l 5.95003,7.00629 5.95209,-7.00629 h -3.11919 v -6.68796 z m 1.26556,1.264 h 3.13676 v 6.68797 h 1.65003 l -3.21841,3.77393 -3.21892,-3.77393 h 1.65054 z m 11.50317,1.38648 h 6.6363 v 2.64842 h -6.6363 z m -17.32039,11.28614 v 1.26607 h 14.7712 v -1.26607 z m 7.38457,1.50843 -5.95003,7.00629 h 3.11712 v 6.68797 h 5.66581 v -6.68797 h 3.11919 z m 5.1e-4,1.96836 3.21841,3.77393 h -1.65003 v 6.68796 h -3.13676 v -6.68796 h -1.65002 z m 9.92911,6.42648 h 6.63681 v 2.64841 h -6.63681 z"/></g></svg>