<svg width="53.710415mm" height="53.710415mm" viewBox="0 0 53.710415 53.710415" version="1.1" id="svg19401" xmlns="http://www.w3.org/2000/svg"><g id="layer1" transform="translate(-90.843517,-92.220111)"><g fill="none" id="g50898" transform="matrix(0.26458333,0,0,0.26458333,91.240392,92.616986)"><g stroke="#999999" stroke-width="3" id="g50892"><path d="M 0,16 V 0 h 16" id="path50884"/><path d="M 200,16 V 0 h -16" id="path50886"/><path d="m 0,184 v 16 h 16" id="path50888"/><path d="m 200,184 v 16 h -16" id="path50890"/></g></g><path id="path17222" style="fill:#000000;stroke-width:0.908059" d="m 98.380775,100.9524 v 1.26452 h 20.877275 v -1.26452 z m 34.946185,2.34404 -13.50615,3.6189 H 98.380775 v 1.26452 h 21.442105 l 13.50408,3.61839 0.32711,-1.22164 -11.30525,-3.02927 11.30525,-3.02927 z m -34.946185,9.31623 v 1.26452 h 20.877275 v -1.26452 z m 35.043335,2.29236 -13.50615,3.6189 H 98.477926 v 1.26453 h 21.442104 l 13.50408,3.61838 0.32712,-1.22163 -11.30526,-3.02927 11.30526,-3.02928 z m -35.043335,9.36791 v 1.26452 h 20.877275 v -1.26452 z m 34.565335,2.57762 c -0.36773,-0.001 -0.74571,0.0253 -1.13068,0.0749 v 5.1e-4 c -0.87995,0.1135 -1.79726,0.34817 -2.71302,0.64803 l -8.87749,2.52956 H 98.380775 v 1.26452 h 21.359935 l 9.3617,2.66702 c 1.83151,0.59971 3.67086,0.93913 5.2033,0.57051 0.76623,-0.18431 1.46654,-0.57061 1.95492,-1.2051 0.4841,-0.62891 0.73842,-1.47018 0.75344,-2.48873 h 0.003 v -0.0331 -0.14831 -0.0331 h -0.003 c -0.0147,-1.01944 -0.26902,-1.85941 -0.75344,-2.48874 -0.48838,-0.63448 -1.18869,-1.02078 -1.95492,-1.20509 -0.431,-0.10368 -0.88681,-0.1513 -1.3596,-0.15296 z m 5.1e-4,1.27537 c 0.39123,-0.002 0.7496,0.0333 1.06247,0.10852 0.55622,0.1338 0.95887,0.3706 1.24799,0.74621 0.28911,0.3756 0.48523,0.92243 0.49402,1.75545 v 0.13694 c -0.009,0.83302 -0.20491,1.38036 -0.49402,1.75597 -0.28912,0.37559 -0.69177,0.61189 -1.24799,0.74569 -1.11243,0.26759 -2.7961,0.0208 -4.51187,-0.54106 l -0.0119,-0.004 -7.10602,-2.0252 7.10602,-2.02572 0.0119,-0.004 c 1.23321,-0.4038 2.44959,-0.64527 3.4494,-0.64957 z m -34.565845,7.80779 v 1.26453 h 20.877275 v -1.26453 z"/></g></svg>