<svg width="53.710415mm" height="53.710415mm" viewBox="0 0 53.710415 53.710415" version="1.1" id="svg17735" xmlns="http://www.w3.org/2000/svg"><g id="layer1" transform="translate(-79.951244,-117.91899)"><g fill="none" id="g50898" transform="matrix(0.26458333,0,0,0.26458333,80.348119,118.31586)" style="display:inline"><g stroke="#999999" stroke-width="3" id="g50892"><path d="M 0,16 V 0 h 16" id="path50884"/><path d="M 200,16 V 0 h -16" id="path50886"/><path d="m 0,184 v 16 h 16" id="path50888"/><path d="m 200,184 v 16 h -16" id="path50890"/></g></g><path id="path17474" style="color:#000000;fill:#000000;-inkscape-stroke:none" d="m 85.103379,130.15416 v 1.26348 h 43.406141 v -1.26348 z m 17.194821,3.32434 c -1.7189,0 -3.126951,1.40601 -3.126951,3.12487 0,1.7189 1.408051,3.12695 3.126951,3.12695 1.71889,0 3.12487,-1.40805 3.12487,-3.12695 0,-1.71886 -1.40598,-3.12487 -3.12487,-3.12487 z m 9.38547,0.1111 -10.78952,15.3045 1.03559,0.72863 10.78901,-15.30449 z m -9.38547,1.15446 c 1.03523,0 1.86138,0.8241 1.86138,1.85931 0,1.03525 -0.82615,1.86139 -1.86138,1.86139 -1.03524,0 -1.86139,-0.82614 -1.86139,-1.86139 0,-1.03521 0.82615,-1.85931 1.86139,-1.85931 z m -17.194821,2.40398 v 1.26401 h 11.85561 v -1.26401 z m 31.550531,0 v 1.26401 h 11.85561 v -1.26401 z m -5.33818,6.35 c -1.71889,0 -3.12694,1.40807 -3.12694,3.12694 0,1.7189 1.40805,3.12488 3.12694,3.12488 1.71889,0 3.12539,-1.40598 3.12539,-3.12488 0,-1.71887 -1.4065,-3.12694 -3.12539,-3.12694 z m -26.212351,0.64441 v 1.26349 h 11.85561 v -1.26349 z m 31.550531,0 v 1.26349 h 11.85561 v -1.26349 z m -5.33818,0.62115 c 1.03524,0 1.85932,0.82617 1.85932,1.86138 0,1.03524 -0.82408,1.86139 -1.85932,1.86139 -1.03524,0 -1.86138,-0.82615 -1.86138,-1.86139 0,-1.03521 0.82614,-1.86138 1.86138,-1.86138 z m -26.212351,6.37274 v 1.264 h 5.58209 v -1.264 z m 12.21114,0 c 0,1.29334 -0.68862,2.48647 -1.80867,3.13314 -0.56096,0.32387 -1.18643,0.48578 -1.81178,0.48524 v 1.26401 c 0.8442,5.3e-4 1.68852,-0.21736 2.44429,-0.65371 0.84452,-0.48758 1.50874,-1.20731 1.9296,-2.05207 0.42087,0.84476 1.08354,1.56449 1.92805,2.05207 1.509691,0.87163 3.373211,0.87163 4.882911,0 0.84451,-0.48758 1.50821,-1.20731 1.92908,-2.05207 0.42086,0.84476 1.08353,1.56449 1.92805,2.05207 1.50969,0.87163 3.37321,0.87163 4.8829,0 0.84485,-0.48777 1.50827,-1.20794 1.92857,-2.0531 0.42084,0.84517 1.08474,1.56532 1.9296,2.0531 0.75515,0.43599 1.59807,0.65388 2.44171,0.65371 v -1.26401 c -0.62484,2.7e-4 -1.24922,-0.16164 -1.80971,-0.48524 -1.12006,-0.64667 -1.80868,-1.8398 -1.80868,-3.13314 h -0.24133 -1.02422 -0.2403 c 0,1.29334 -0.68758,2.48647 -1.80764,3.13314 -1.12006,0.64667 -2.49781,0.64667 -3.61787,0 -1.12006,-0.64667 -1.80867,-1.8398 -1.80867,-3.13314 h -0.23978 -1.26607 c 0,1.29334 -0.6881,2.48647 -1.80816,3.13314 -1.12006,0.64667 -2.49729,0.64667 -3.61735,0 -1.120061,-0.64667 -1.808681,-1.8398 -1.808681,-3.13314 h -0.23978 z m 25.612911,0 v 1.264 h 5.58209 v -1.264 z m -37.824051,6.9944 v 1.26349 h 43.406141 v -1.26349 z"/></g></svg>