<svg width="200" height="200" version="1.1" xmlns="http://www.w3.org/2000/svg"><g fill="none"><g stroke="#999" stroke-width="3"><path d="m0 16v-16h16"/><path d="m200 16v-16h-16"/><path d="m0 184v16h16"/><path d="m200 184v16h-16"/></g><g stroke="#000" stroke-width="5"><path d="m130.18 100a30.179 30.179 0 0 1-30.179 30.179 30.179 30.179 0 0 1-30.179-30.179 30.179 30.179 0 0 1 30.179-30.179 30.179 30.179 0 0 1 30.179 30.179z"/><path d="m144.93 151.31a52.669 52.563 0 0 1-63.926 19.722 52.669 52.563 0 0 1-31.729-58.792 52.669 52.563 0 0 1 51.678-42.417"/><path transform="rotate(240)" d="m-91.672 87.91a52.669 52.563 0 0 1-63.926 19.722 52.669 52.563 0 0 1-31.729-58.792 52.669 52.563 0 0 1 51.678-42.417"/><path transform="rotate(120)" d="m81.533-85.295a52.669 52.563 0 0 1-63.926 19.722 52.669 52.563 0 0 1-31.729-58.792 52.669 52.563 0 0 1 51.678-42.417"/></g></g></svg>