<svg width="53.710415mm" height="53.710415mm" viewBox="0 0 53.710415 53.710415" version="1.1" id="svg1630" xmlns="http://www.w3.org/2000/svg"><g id="layer1" transform="translate(-30.617561,-117.34294)"><g fill="none" id="g50898" transform="matrix(0.26458333,0,0,0.26458333,31.014436,117.73981)" style="display:inline"><g stroke="#999999" stroke-width="3" id="g50892"><path d="M 0,16 V 0 h 16" id="path50884"/><path d="M 200,16 V 0 h -16" id="path50886"/><path d="m 0,184 v 16 h 16" id="path50888"/><path d="m 200,184 v 16 h -16" id="path50890"/></g></g><path id="path856" style="color:#000000;fill:#000000;-inkscape-stroke:none" d="m 40.177445,124.1327 c -1.488172,0 -2.708872,1.22071 -2.708882,2.70888 0,1.48817 1.22071,2.70681 2.708882,2.70681 1.05232,0 1.97017,-0.60923 2.41742,-1.49242 l 29.615251,7.48533 -17.3545,4.2907 17.49041,4.32428 -17.25735,4.34961 17.15968,4.37906 -29.678811,7.40626 c -0.45593,-0.85741 -1.35921,-1.4459 -2.3921,-1.4459 -1.488172,0 -2.708882,1.22122 -2.708882,2.70939 0,1.48818 1.22071,2.70888 2.708882,2.70888 1.48817,0 2.70733,-1.2207 2.70733,-2.70888 0,-0.0136 -3.2e-4,-0.0273 -5.2e-4,-0.0408 l 34.358621,-8.69508 -16.9695,-4.26796 17.15709,-4.38061 -17.19223,-4.3403 17.23874,-4.41523 -34.592721,-8.59069 c -0.01,-1.4802 -1.2245,-2.69131 -2.70681,-2.69131 z m 0,1.26555 c 0.80452,0 1.44332,0.63882 1.44332,1.44333 0,0.80451 -0.6388,1.44332 -1.44332,1.44332 -0.80452,0 -1.443332,-0.63881 -1.443332,-1.44332 0,-0.80451 0.638812,-1.44333 1.443332,-1.44333 z m 0,34.71261 c 0.80452,0 1.44332,0.63933 1.44332,1.44384 0,0.80452 -0.6388,1.44332 -1.44332,1.44332 -0.80452,0 -1.443332,-0.6388 -1.443332,-1.44332 0,-0.80451 0.638812,-1.44384 1.443332,-1.44384 z"/></g></svg>