<svg width="53.710415mm" height="53.710415mm" viewBox="0 0 53.710415 53.710415" version="1.1" id="svg2093" xmlns="http://www.w3.org/2000/svg"><g id="layer1" transform="translate(-92.725437,-162.98351)"><g fill="none" id="g50898" transform="matrix(0.26458333,0,0,0.26458333,93.122312,163.38038)" style="display:inline"><g stroke="#999999" stroke-width="3" id="g50892"><path d="M 0,16 V 0 h 16" id="path50884"/><path d="M 200,16 V 0 h -16" id="path50886"/><path d="m 0,184 v 16 h 16" id="path50888"/><path d="m 200,184 v 16 h -16" id="path50890"/></g></g><path id="path989" style="color:#000000;fill:#000000;-inkscape-stroke:none" d="m 98.53568,168.87875 v 1.26555 h 42.08993 v -1.26555 z m 4.26589,4.21266 v 1.26349 h 33.56022 v -1.26349 z m 4.17184,4.21111 v 1.26349 h 25.21654 v -1.26349 z m 4.29689,4.2106 v 1.26555 h 16.62276 v -1.26555 z m 7.67757,3.49229 v 6.72156 l -2.80758,-4.78576 -1.09192,0.64027 3.8995,6.64249 v 4.34341 c -1.41502,-2.19312 -3.878,-3.64991 -6.67556,-3.64991 -4.37776,0 -7.93957,3.56388 -7.93957,7.94163 0,4.37777 3.56181,7.93957 7.93957,7.93957 4.02951,0 7.36657,-3.01821 7.87238,-6.91224 0.0685,-0.54547 0.0687,-0.73797 0.0687,-1.02733 v -8.63513 l 3.8995,-6.64249 -1.09192,-0.64027 -2.80758,4.78627 v -6.72207 z m -6.67556,11.17761 c 3.6941,0 6.67556,2.98199 6.67556,6.67608 0,3.69411 -2.98146,6.67556 -6.67556,6.67556 -3.6941,0 -6.67401,-2.98145 -6.67401,-6.67556 0,-3.69409 2.97991,-6.67608 6.67401,-6.67608 z"/></g></svg>