<svg width="53.710415mm" height="53.710415mm" viewBox="0 0 53.710415 53.710415" version="1.1" id="svg9060" xmlns="http://www.w3.org/2000/svg"><g id="layer1" transform="translate(-161.73807,-103.57701)"><g fill="none" stroke="#999999" stroke-width="3" id="g160" transform="matrix(0.26458333,0,0,0.26458333,162.13494,103.97388)"><path d="M 0,16 V 0 h 16" id="path152"/><path d="M 200,16 V 0 h -16" id="path154"/><path d="m 0,184 v 16 h 16" id="path156"/><path d="m 200,184 v 16 h -16" id="path158"/></g><path id="path8174" style="display:inline;fill:#000000;stroke:none;stroke-width:1.36877" d="m 201.85491,110.55359 -0.63303,1.09554 6.42235,3.70727 h -24.2223 c -0.0136,-1.9e-4 -0.0272,-3.6e-4 -0.0408,-5.1e-4 l -0.0139,5.1e-4 h -0.42168 v 0.016 c -9.47561,0.2362 -17.03589,7.9824 -17.04185,17.46095 -7e-5,9.65257 7.82491,17.47755 17.47748,17.47749 9.65258,7e-5 17.47756,-7.82491 17.47749,-17.47749 -3.2e-4,-7.13349 -4.33591,-13.55087 -10.95385,-16.21348 h 17.76895 l -6.50452,3.75584 0.63097,1.09554 9.48263,-5.4746 z m -18.47381,18.65985 c 1.99926,-6e-5 3.62,1.62067 3.61994,3.61993 6e-5,1.99926 -1.62068,3.62 -3.61994,3.61994 -1.99926,6e-5 -3.61999,-1.62068 -3.61993,-3.61994 -6e-5,-1.99926 1.62067,-3.61999 3.61993,-3.61993 z"/></g></svg>