<svg width="53.710415mm" height="53.710415mm" viewBox="0 0 53.710415 53.710415" version="1.1" id="svg5769" xmlns="http://www.w3.org/2000/svg"><g id="layer1" transform="translate(-210.95128,-58.493575)"><g fill="none" stroke="#999999" stroke-width="3" id="g160" transform="matrix(0.26458333,0,0,0.26458333,211.34815,58.89045)"><path d="M 0,16 V 0 h 16" id="path152"/><path d="M 200,16 V 0 h -16" id="path154"/><path d="m 0,184 v 16 h 16" id="path156"/><path d="m 200,184 v 16 h -16" id="path158"/></g><path id="path4716" style="color:#000000;fill:#000000;fill-opacity:1;-inkscape-stroke:none" d="m 239.78001,62.20136 -2.49235,2.49184 v 4.35891 c -2.76748,0.1375 -5.28465,1.2361 -7.2254,2.96777 l -2.7187,-2.71869 v -2.99982 h -1.26504 v 3.52485 l 3.08509,3.08508 c -1.74574,1.92972 -2.86023,4.44042 -3.01739,7.20421 h -3.84059 l -2.12132,-2.12131 -0.89452,0.89452 2.49235,2.49235 h 4.35891 c 0.13735,2.76761 1.23545,5.28507 2.96675,7.22592 l -2.71818,2.71818 h -2.99982 v 1.26504 h 3.52433 l 3.08508,-3.08509 c 1.92957,1.74609 4.44046,2.86095 7.20473,3.01791 v 3.84007 l -2.12131,2.12132 0.89451,0.89452 2.49236,-2.49236 v -4.35839 c 2.76816,-0.13761 5.28619,-1.23623 7.22746,-2.96829 l 2.71767,2.71818 -0.002,3.00085 h 1.26556 V 91.7546 l -3.08457,-3.08457 c 1.74705,-1.93017 2.86248,-4.44201 3.01894,-7.20731 h 3.83956 l 2.1208,2.12338 0.89452,-0.89452 -2.49184,-2.49235 h -4.35839 c -0.13778,-2.76803 -1.23687,-5.28577 -2.96933,-7.22695 l 2.71818,-2.7187 3.00137,0.002 v -1.26504 l -3.52433,-5.1e-4 -3.08509,3.08508 c -1.93032,-1.7467 -4.44197,-2.86175 -7.20679,-3.01842 v -3.84008 l 2.12338,-2.1208 z m -1.90169,8.10132 c 5.79972,0 10.48825,4.68852 10.48825,10.48825 0,5.79971 -4.68853,10.48669 -10.48825,10.48669 -5.79972,0 -10.48825,-4.68698 -10.48825,-10.48669 0,-5.79973 4.68853,-10.48825 10.48825,-10.48825 z m 0,7.6817 c -1.54163,0 -2.805,1.26492 -2.805,2.80655 0,1.54161 1.26337,2.80499 2.805,2.80499 1.54163,0 2.80448,-1.26338 2.80448,-2.80499 0,-1.54163 -1.26285,-2.80655 -2.80448,-2.80655 z m 0,1.26555 c 0.85797,0 1.54099,0.68303 1.54099,1.541 0,0.85795 -0.68302,1.53944 -1.54099,1.53944 -0.85797,0 -1.53944,-0.68149 -1.53944,-1.53944 0,-0.85797 0.68147,-1.541 1.53944,-1.541 z m -5.60948,16.06052 -9.01082,5.20279 h -7.11895 v 2.78019 h 7.11895 l 9.01082,5.20278 0.63252,-1.09554 -7.11326,-4.10724 h 33.6858 v -2.78019 h -33.6858 l 7.11326,-4.10673 z"/></g></svg>