<svg width="53.710415mm" height="53.710415mm" viewBox="0 0 53.710415 53.710415" version="1.1" id="svg6681" xmlns="http://www.w3.org/2000/svg"><g id="layer1" transform="translate(-64.693179,-57.596405)"><g fill="none" id="g50898" transform="matrix(0.26458333,0,0,0.26458333,65.090054,57.99328)" style="display:inline"><g stroke="#999999" stroke-width="3" id="g50892"><path d="M 0,16 V 0 h 16" id="path50884"/><path d="M 200,16 V 0 h -16" id="path50886"/><path d="m 0,184 v 16 h 16" id="path50888"/><path d="m 200,184 v 16 h -16" id="path50890"/></g></g><path id="path9325" style="color:#000000;fill:#000000;stroke-width:1.03287" d="m 91.307574,61.342431 c -5.971303,0 -10.824145,4.85281 -10.824145,10.82414 0,5.97131 4.852842,10.82621 10.824145,10.82621 5.971324,0 10.826216,-4.8549 10.826216,-10.82621 0,-5.97133 -4.854892,-10.82414 -10.826216,-10.82414 z m 0,1.26348 c 5.287675,0 9.560656,4.27298 9.560656,9.56066 0,5.28766 -4.272981,9.56066 -9.560656,9.56066 -5.287654,0 -9.560656,-4.273 -9.560656,-9.56066 0,-5.28768 4.273002,-9.56066 9.560656,-9.56066 z m 0,6.90036 c -1.462538,0 -2.661852,1.19776 -2.661852,2.6603 0,1.462541 1.199314,2.66237 2.661852,2.66237 1.462539,0 2.66237,-1.19983 2.66237,-2.66237 0,-1.46254 -1.199831,-2.6603 -2.66237,-2.6603 z m 0,1.264 c 0.77889,0 1.396814,0.61742 1.396814,1.3963 0,0.77889 -0.617924,1.39837 -1.396814,1.39837 -0.778879,0 -1.396297,-0.61948 -1.396297,-1.39837 0,-0.77888 0.617418,-1.3963 1.396297,-1.3963 z m -17.226855,8.10494 -0.326078,1.22266 16.323034,4.35426 -16.323034,4.352704 0.326078,1.22267 16.220715,-4.326354 0.791166,-0.06047 h 18.24953 v -1.11311 -0.15037 -1.11518 H 91.0926 l -0.791166,-0.06046 z m 17.226855,7.03523 c -5.971303,0 -10.824145,4.852834 -10.824145,10.824144 0,5.971335 4.852842,10.826215 10.824145,10.826215 5.971324,0 10.826216,-4.85488 10.826216,-10.826215 0,-5.97131 -4.854892,-10.824144 -10.826216,-10.824144 z m 0,1.26348 c 5.287675,0 9.560656,4.273004 9.560656,9.560664 0,5.287685 -4.272981,9.560665 -9.560656,9.560665 -5.287654,0 -9.560656,-4.27298 -9.560656,-9.560665 0,-5.28766 4.273002,-9.560664 9.560656,-9.560664 z m 0,6.900364 c -1.462528,0 -2.661852,1.19779 -2.661852,2.6603 0,1.46254 1.199324,2.66237 2.661852,2.66237 1.462539,0 2.66237,-1.19983 2.66237,-2.66237 0,-1.46251 -1.199831,-2.6603 -2.66237,-2.6603 z m 0,1.264 c 0.77889,0 1.396814,0.61743 1.396814,1.3963 0,0.77889 -0.617924,1.39836 -1.396814,1.39836 -0.778879,0 -1.396297,-0.61947 -1.396297,-1.39836 0,-0.77887 0.617418,-1.3963 1.396297,-1.3963 z"/></g></svg>