<svg width="53.710415mm" height="53.710415mm" viewBox="0 0 53.710415 53.710415" version="1.1" id="svg16269" xmlns="http://www.w3.org/2000/svg"><g id="layer1" transform="translate(-84.564147,-86.693179)"><g fill="none" id="g50898" transform="matrix(0.26458333,0,0,0.26458333,84.961022,87.090054)" style="display:inline"><g stroke="#999999" stroke-width="3" id="g50892"><path d="M 0,16 V 0 h 16" id="path50884"/><path d="M 200,16 V 0 h -16" id="path50886"/><path d="m 0,184 v 16 h 16" id="path50888"/><path d="m 200,184 v 16 h -16" id="path50890"/></g></g><path id="rect3683" style="color:#000000;display:inline;fill:#000000;stroke-width:0.994711" d="m 92.44401,98.27355 v 0.001 h -4.573761 v 1.25057 h 4.573761 v 0.001 h 26.97872 c 1.02194,0 1.82624,0.7939 1.82624,1.80506 v 0.0212 c 0,1.01115 -0.8043,1.8066 -1.82624,1.8066 h -0.16434 v -0.001 h -2.64583 v -0.0103 l -25.920381,5.2e-4 c -1.700865,0 -3.089734,1.37478 -3.089734,3.0577 v 0.0212 c 0,1.68293 1.388869,3.05718 3.089734,3.05718 h 0.164331 v 0.001 h 41.3603 c 1.02194,0 1.82624,0.79389 1.82624,1.80506 v 0.0212 c 0,1.01116 -0.8043,1.80661 -1.82624,1.80661 h -0.16433 v -0.002 H 90.692179 c -1.700865,0 -3.089734,1.37425 -3.089734,3.05718 v 0.0212 c 0,1.68292 1.388869,3.05769 3.089734,3.05769 h 0.164331 v 10e-4 h 28.56622 c 1.02194,0 1.82624,0.79389 1.82624,1.80506 v 0.0207 c 0,1.01117 -0.8043,1.80713 -1.82624,1.80713 h -1.82212 v -0.001 l -26.978711,5.2e-4 c -1.700865,0 -3.089734,1.37477 -3.089734,3.05769 v 0.0212 c 0,1.68293 1.388869,3.0577 3.089734,3.0577 h 0.164331 v 0.001 h 31.118 v -1.25367 h -31.118 v 10e-4 h -0.164331 c -1.021944,0 -1.826245,-0.79545 -1.826245,-1.8066 v -0.0212 c 0,-1.01116 0.804301,-1.80506 1.826245,-1.80506 h 26.978711 v -0.001 h 1.82212 c 1.70086,0 3.08973,-1.37476 3.08973,-3.0577 v -0.0207 c 0,-1.68294 -1.38887,-3.05769 -3.08973,-3.05769 H 90.85651 v 10e-4 h -0.164331 c -1.021944,0 -1.826245,-0.79598 -1.826245,-1.80712 v -0.0212 c 0,-1.01117 0.804301,-1.80454 1.826245,-1.80454 h 41.360301 v -5.2e-4 h 0.16433 c 1.70087,0 3.08973,-1.37477 3.08973,-3.05769 v -0.0212 c 0,-1.68293 -1.38886,-3.0577 -3.08973,-3.0577 h -41.3603 v 10e-4 h -0.164331 c -1.021944,0 -1.826245,-0.79596 -1.826245,-1.80713 v -0.0212 c 0,-1.01117 0.804301,-1.80506 1.826245,-1.80506 h 3.269051 v 0.0124 h 25.29716 v -0.001 h 0.16434 c 1.70086,0 3.08973,-1.37477 3.08973,-3.0577 v -0.0212 c 0,-1.68294 -1.38887,-3.0577 -3.08973,-3.0577 z"/></g></svg>