<svg width="53.710415mm" height="53.710415mm" viewBox="0 0 53.710415 53.710415" version="1.1" id="svg14441" xmlns="http://www.w3.org/2000/svg"><g id="layer1" transform="translate(-101.85627,-146.59555)"><g fill="none" stroke="#999999" stroke-width="3" id="g160" transform="matrix(0.26458333,0,0,0.26458333,102.25314,146.99242)"><path d="M 0,16 V 0 h 16" id="path152"/><path d="M 200,16 V 0 h -16" id="path154"/><path d="m 0,184 v 16 h 16" id="path156"/><path d="m 200,184 v 16 h -16" id="path158"/></g><path id="path14232-1-2" style="color:#000000;fill:#000000" d="m 132.18413,152.61402 -5.73764,3.3414 c -6.8293,0.291 -13.5659,1.8436 -19.42258,4.65656 l 1.21853,2.5368 c 5.31759,-2.55405 11.51969,-3.99221 17.83405,-4.31447 l 6.16603,3.63286 0.64079,-1.08986 -4.43332,-2.61121 c 7.28564,-0.0493 14.59256,1.38029 20.74395,4.29328 l 1.2051,-2.54507 c -6.42436,-3.04223 -13.88481,-4.57647 -21.35322,-4.60798 l 3.77496,-2.19884 z m -16.36955,9.77356 c -4.57535,0 -8.29871,3.72387 -8.29871,8.29924 0,4.57535 3.72336,8.29872 8.29871,8.29872 4.36281,0 7.94958,-3.38529 8.2734,-7.66672 h 4.09122 v 11.67371 c -0.22931,0.0105 -0.45922,0.0268 -0.68884,0.0491 -3.29805,0.32078 -6.3497,1.847 -8.58036,4.26692 l 0.86403,-5.83323 -1.25212,-0.18552 -1.30276,8.80256 8.5881,-2.29288 -0.32659,-1.2206 -5.53765,1.47743 c 2.01103,-2.12919 4.73056,-3.47108 7.66879,-3.75688 0.1892,-0.0184 0.37841,-0.0318 0.5674,-0.0413 v 6.11022 a 2.0111167,2.0111167 0 0 0 -1.37872,1.9079 2.0111167,2.0111167 0 0 0 2.01124,2.01124 2.0111167,2.0111167 0 0 0 2.01125,-2.01124 2.0111167,2.0111167 0 0 0 -1.37821,-1.90893 v -6.10764 c 2.64327,0.14258 5.18705,1.14553 7.22953,2.88148 l 0.82011,-0.9648 c -2.27228,-1.93125 -5.10695,-3.03824 -8.04964,-3.1812 v -11.67634 h 4.09019 c 0.32395,4.28143 3.91214,7.66672 8.27495,7.66672 4.57536,0 8.29716,-3.72337 8.29716,-8.29872 0,-4.57537 -3.7218,-8.29924 -8.29716,-8.29924 -4.36264,0 -7.95076,3.386 -8.27495,7.66724 h -9.44697 c -0.32406,-4.28124 -3.91076,-7.66724 -8.2734,-7.66724 z m 0,1.26608 c 3.67861,0 6.68582,2.80699 7.00423,6.40116 h -4.61471 c -0.28172,-1.0554 -1.24953,-1.84072 -2.38952,-1.84072 -1.35821,0 -2.47271,1.11451 -2.47271,2.47272 0,1.35822 1.1145,2.47272 2.47271,2.47272 1.14002,0 2.10783,-0.78529 2.38952,-1.84072 h 4.61471 c -0.31842,3.59418 -3.32562,6.40116 -7.00423,6.40116 -3.8917,0 -7.03316,-3.14145 -7.03316,-7.03316 0,-3.89171 3.14146,-7.03316 7.03316,-7.03316 z m 25.99532,0 c 3.89171,0 7.03316,3.14145 7.03316,7.03316 0,3.89171 -3.14145,7.03316 -7.03316,7.03316 -3.67861,0 -6.68635,-2.80697 -7.00475,-6.40116 h 4.61523 c 0.28171,1.05542 1.24951,1.84072 2.38952,1.84072 1.35821,0 2.47271,-1.1145 2.47271,-2.47272 0,-1.35821 -1.1145,-2.47272 -2.47271,-2.47272 -1.13998,0 -2.10779,0.78533 -2.38952,1.84072 h -4.61523 c 0.3184,-3.59418 3.32614,-6.40116 7.00475,-6.40116 z m -25.99532,5.826 c 0.67455,0 1.20716,0.53261 1.20716,1.20716 0,0.67456 -0.53261,1.20664 -1.20716,1.20664 -0.67456,0 -1.20871,-0.53208 -1.20871,-1.20664 0,-0.67455 0.53415,-1.20716 1.20871,-1.20716 z m 25.99532,0 c 0.67455,0 1.20716,0.53261 1.20716,1.20716 0,0.67456 -0.53261,1.20664 -1.20716,1.20664 -0.67456,0 -1.20872,-0.53208 -1.20872,-1.20664 0,-0.67455 0.53416,-1.20716 1.20872,-1.20716 z"/></g></svg>