<svg width="53.710415mm" height="53.710415mm" viewBox="0 0 53.710415 53.710415" version="1.1" id="svg1817" xmlns="http://www.w3.org/2000/svg"><g id="layer1" transform="translate(-118.62867,-120.04802)"><g fill="none" id="g50898" transform="matrix(0.26458333,0,0,0.26458333,119.02554,120.44489)" style="display:inline"><g stroke="#999999" stroke-width="3" id="g50892"><path d="M 0,16 V 0 h 16" id="path50884"/><path d="M 200,16 V 0 h -16" id="path50886"/><path d="m 0,184 v 16 h 16" id="path50888"/><path d="m 200,184 v 16 h -16" id="path50890"/></g></g><path id="path1671" style="color:#000000;fill:#000000;stroke-width:1.03287" d="m 139.68964,124.93092 c -5.97133,0 -10.82414,4.8528 -10.82414,10.82415 0,5.97133 4.85281,10.82621 10.82414,10.82621 5.97134,0 10.82621,-4.85488 10.82621,-10.82621 0,-5.97135 -4.85487,-10.82415 -10.82621,-10.82415 z m 0,1.26349 c 5.28769,0 9.56066,4.27296 9.56066,9.56066 0,5.28767 -4.27297,9.56065 -9.56066,9.56065 -5.28767,0 -9.56065,-4.27298 -9.56065,-9.56065 0,-5.2877 4.27298,-9.56066 9.56065,-9.56066 z m 17.22376,2.16679 -5.17385,8.95966 1.09554,0.63252 3.44527,-5.96811 v 12.97905 h -4.55579 v 1.26504 h 10.37766 v -1.26504 h -4.5558 v -12.97181 l 3.44527,5.96501 1.09554,-0.63356 z m -17.22376,4.73357 c -1.46254,0 -2.66184,1.19776 -2.66184,2.6603 0,1.46254 1.1993,2.66237 2.66184,2.66237 1.46254,0 2.66237,-1.19983 2.66237,-2.66237 0,-1.46254 -1.19983,-2.6603 -2.66237,-2.6603 z m 0,1.264 c 0.77889,0 1.39682,0.61742 1.39682,1.3963 0,0.77889 -0.61793,1.39836 -1.39682,1.39836 -0.77888,0 -1.3963,-0.61947 -1.3963,-1.39836 0,-0.77888 0.61742,-1.3963 1.3963,-1.3963 z m 0,12.8664 c -5.97133,0 -10.82414,4.85281 -10.82414,10.82414 0,5.97135 4.85281,10.82622 10.82414,10.82622 5.97134,0 10.82621,-4.85487 10.82621,-10.82622 0,-5.97133 -4.85487,-10.82414 -10.82621,-10.82414 z m 12.03494,0.35192 v 1.26503 h 4.55579 v 12.97906 l -3.44527,-5.9676 -1.09555,0.63252 5.17385,8.95915 5.17384,-8.96277 -1.09553,-0.63355 -3.44527,5.96501 v -12.97182 h 4.55579 v -1.26503 z m -12.03494,0.91157 c 5.28769,0 9.56066,4.27297 9.56066,9.56065 0,5.28769 -4.27297,9.56066 -9.56066,9.56066 -5.28767,0 -9.56065,-4.27297 -9.56065,-9.56066 0,-5.28768 4.27298,-9.56065 9.56065,-9.56065 z m 0,6.90035 c -1.46253,0 -2.66184,1.19778 -2.66184,2.6603 0,1.46254 1.19931,2.66237 2.66184,2.66237 1.46254,0 2.66237,-1.19983 2.66237,-2.66237 0,-1.46252 -1.19983,-2.6603 -2.66237,-2.6603 z m 0,1.26401 c 0.77889,0 1.39682,0.61741 1.39682,1.39629 0,0.77889 -0.61793,1.39837 -1.39682,1.39837 -0.77888,0 -1.3963,-0.61948 -1.3963,-1.39837 0,-0.77888 0.61742,-1.39629 1.3963,-1.39629 z"/></g></svg>