<svg width="53.710415mm" height="53.710415mm" viewBox="0 0 53.710415 53.710415" version="1.1" id="svg3039" xmlns="http://www.w3.org/2000/svg"><g id="layer1" transform="translate(-74.628663,-141.69318)"><g fill="none" stroke="#999999" stroke-width="3" id="g160" transform="matrix(0.26458333,0,0,0.26458333,75.025538,142.09005)"><path d="M 0,16 V 0 h 16" id="path152"/><path d="M 200,16 V 0 h -16" id="path154"/><path d="m 0,184 v 16 h 16" id="path156"/><path d="m 200,184 v 16 h -16" id="path158"/></g><path id="path2182" style="color:#000000;fill:#000000;fill-opacity:1" d="m 112.31137,154.60711 c -7.69187,0 -13.939199,6.24941 -13.939199,13.94127 0,7.69187 6.247329,13.94127 13.939199,13.94127 7.69187,0 13.94127,-6.2494 13.94127,-13.94127 0,-7.69186 -6.2494,-13.94127 -13.94127,-13.94127 z m 0,1.26556 c 7.00822,0 12.67571,5.66749 12.67571,12.67571 0,7.00822 -5.66749,12.67571 -12.67571,12.67571 -7.00821,0 -12.675709,-5.66749 -12.675709,-12.67571 0,-7.00822 5.667499,-12.67571 12.675709,-12.67571 z m -15.406289,0.81855 c -2.55062,2.55062 -4.10564,5.72631 -4.665865,9.03924 h -9.721371 v -2.95692 l -5.802747,5.76554 5.802747,5.78517 v -2.96467 h 9.71982 c 0.558966,3.3161 2.114536,6.49514 4.667416,9.04802 l 2.02158,-2.02106 c -5.44489,-5.44489 -5.44489,-14.22937 0,-19.67425 z m -15.652792,9.12347 v 1.18133 h 10.822079 c -0.09496,1.03023 -0.09494,2.06772 -5.17e-4,3.098 H 81.252289 v 1.10433 l -2.734717,-2.66703 z"/></g></svg>