<svg width="53.710415mm" height="53.710415mm" viewBox="0 0 53.710415 53.710415" version="1.1" id="svg13342" xmlns="http://www.w3.org/2000/svg"><g id="layer1" transform="translate(-112.24157,-68.241566)"><g fill="none" id="g50898" transform="matrix(0.26458333,0,0,0.26458333,112.63844,68.638441)" style="display:inline"><g stroke="#999999" stroke-width="3" id="g50892"><path d="M 0,16 V 0 h 16" id="path50884"/><path d="M 200,16 V 0 h -16" id="path50886"/><path d="m 0,184 v 16 h 16" id="path50888"/><path d="m 200,184 v 16 h -16" id="path50890"/></g></g><path id="path13308" style="fill:#000000;fill-opacity:1;stroke:none;stroke-width:1.265" d="m 132.01478,77.586473 -6.84506,11.856123 0.0615,-7.446057 -1.26607,-0.0098 -0.0899,10.936284 9.55446,-5.4653 -0.62787,-1.09709 -6.55877,3.750158 6.86624,-11.892297 z m 8.97413,0.08113 -19.32492,33.472377 2.53938,1.46606 19.32543,-33.472377 z m -9.46919,25.898677 -4.59404,8.43515 1.11156,0.60565 4.23437,-7.77524 h 22.99188 v 7.47241 h 1.26607 v -8.73797 z"/></g></svg>