<svg width="53.710415mm" height="53.710415mm" viewBox="0 0 53.710415 53.710415" version="1.1" id="svg8273" xmlns="http://www.w3.org/2000/svg"><g id="layer1" transform="translate(-27.176078,-109.77168)"><g fill="none" stroke="#999999" stroke-width="3" id="g160" transform="matrix(0.26458333,0,0,0.26458333,27.572953,110.16855)"><path d="M 0,16 V 0 h 16" id="path152"/><path d="M 200,16 V 0 h -16" id="path154"/><path d="m 0,184 v 16 h 16" id="path156"/><path d="m 200,184 v 16 h -16" id="path158"/></g><g id="g8249" transform="translate(-47.093798,6.134233)"><path id="path862" style="color:#000000;fill:#000000;fill-opacity:1;-inkscape-stroke:none" d="m 101.12405,107.50442 c -11.294577,0 -20.462832,9.1698 -20.462832,20.46438 0,9.1808 6.057978,16.95662 14.39137,19.54558 l -0.04961,0.0718 8.517312,5.89473 0.71727,-1.03714 -6.117976,-4.2323 c 0.980808,0.14456 1.983726,0.22065 3.004466,0.22065 11.29458,0 20.4649,-9.16877 20.4649,-20.46335 0,-11.29458 -9.17032,-20.46438 -20.4649,-20.46438 z m 0,1.25936 c 10.61363,0 19.20503,8.59139 19.20503,19.20502 0,10.61362 -8.5914,19.20348 -19.20503,19.20348 -1.256689,0 -2.484638,-0.12197 -3.673676,-0.35191 l 7.177336,-3.91398 -0.60306,-1.10742 -8.390186,4.57698 c -7.93443,-2.35919 -13.713375,-9.70169 -13.713375,-18.40715 0,-10.61363 8.589337,-19.20502 19.202961,-19.20502 z m -13.980541,18.48827 v 1.25987 h 28.048931 v -1.25987 z"/><text xml:space="preserve" style="font-size:12.2386px;line-height:1.25;font-family:sans-serif;letter-spacing:0px;word-spacing:0px;stroke-width:0.286841" x="97.516426" y="123.47769" id="text8146"><tspan id="tspan8144" style="font-style:italic;font-variant:normal;font-weight:normal;font-stretch:normal;font-size:12.2386px;font-family:sans-serif;-inkscape-font-specification:'sans-serif Italic';stroke-width:0.286841" x="97.516426" y="123.47769">n</tspan></text><text xml:space="preserve" style="font-size:12.2386px;line-height:1.25;font-family:sans-serif;letter-spacing:0px;word-spacing:0px;stroke-width:0.286841" x="88.860367" y="139.15137" id="text8146-1"><tspan id="tspan8144-6" style="font-style:normal;font-variant:normal;font-weight:normal;font-stretch:normal;font-size:12.2386px;font-family:sans-serif;-inkscape-font-specification:sans-serif;stroke-width:0.286841" x="88.860367" y="139.15137">min</tspan></text></g></g></svg>