<svg width="53.710415mm" height="53.710415mm" viewBox="0 0 53.710415 53.710415" version="1.1" id="svg3317" xmlns="http://www.w3.org/2000/svg"><g id="layer1" transform="translate(-88.434479,-191.33483)"><g fill="none" stroke="#999999" stroke-width="3" id="g160" transform="matrix(0.26458333,0,0,0.26458333,88.831354,191.7317)"><path d="M 0,16 V 0 h 16" id="path152"/><path d="M 200,16 V 0 h -16" id="path154"/><path d="m 0,184 v 16 h 16" id="path156"/><path d="m 200,184 v 16 h -16" id="path158"/></g><path id="path3245" style="color:#000000;fill:#000000;fill-opacity:1;stroke-width:1.0089" d="m 115.28969,198.73308 c 1.7e-4,-0.006 -6.2203,10.58746 -6.2203,10.58746 0,0 -1.1788,1.86353 -1.12706,4.18476 0,3.93312 3.35805,7.07657 7.34735,7.07657 3.98931,0 7.34736,-3.14345 7.34736,-7.07657 0.0517,-2.32123 -1.12706,-4.18476 -1.12706,-4.18476 z m 5.1e-4,2.88406 4.78679,8.22585 c 0,0 1.05148,1.76208 1.02784,3.66231 -0.10682,3.09208 -2.59666,5.67769 -5.81514,5.67769 -3.21849,0 -5.70833,-2.58561 -5.81515,-5.67769 -0.0236,-1.90023 1.02784,-3.66231 1.02784,-3.66231 z m -22.170738,16.25792 v 1.3994 h 8.742618 l 9.35395,9.35343 v 9.01909 h 2.66186 v -8.39535 l -11.37657,-11.37657 z m 34.959108,0 -11.37657,11.37657 v 8.39535 h 2.66134 v -9.01909 l 9.35395,-9.35343 h 8.74262 v -1.3994 z"/></g></svg>