<svg width="53.710415mm" height="53.710415mm" viewBox="0 0 53.710415 53.710415" version="1.1" id="svg9400" xmlns="http://www.w3.org/2000/svg"><g id="layer1" transform="translate(-37.844676,-92.564259)"><g fill="none" stroke="#999999" stroke-width="3" id="g160" transform="matrix(0.26458333,0,0,0.26458333,38.241551,92.961134)"><path d="M 0,16 V 0 h 16" id="path152"/><path d="M 200,16 V 0 h -16" id="path154"/><path d="m 0,184 v 16 h 16" id="path156"/><path d="m 200,184 v 16 h -16" id="path158"/></g><path id="path8825" style="color:#000000;fill:#000000;-inkscape-stroke:none" d="m 80.760409,104.90769 -1.03147,0.73433 4.18579,5.87096 c -6.56042,-3.64072 -13.87611,-5.25111 -21.08811,-4.87258 -7.35421,0.38601 -14.59978,2.83865 -20.82509,7.30912 l -1.026294,-2.36213 -1.160136,0.50384 9.49038,21.84002 1.16013,-0.50385 -0.71365,-1.64228 c 8.01125,-7.63643 17.83729,-8.68955 26.60768,-2.93212 l -7.1577,0.68368 0.11885,1.25987 10.33994,-0.9865 -5.99033,-8.40621 -1.0294,0.73433 3.80442,5.33869 c -3.13584,-1.94222 -6.42285,-3.06367 -9.71775,-3.37654 -6.10366,-0.57957 -12.23617,1.61262 -17.49971,6.47816 l -6.705531,-15.4311 c 11.836391,-8.62984 27.548691,-9.66228 40.379961,-2.73834 l -6.61096,0.63149 0.11937,1.25781 10.33994,-0.98444 z m 7.66206,6.6797 -4.56355,10.50272 c -3.85051,-2.9781 -8.13896,-4.96754 -12.57649,-5.94899 -7.52077,-1.66337 -15.47007,-0.435 -22.44462,3.76669 l 4.35787,-6.11539 -1.02888,-0.73225 -5.99033,8.40414 10.33787,0.9865 0.12092,-1.25781 -6.59856,-0.63045 c 10.67841,-6.12539 23.49912,-5.14964 33.35404,2.60449 l -4.45865,10.26036 1.16014,0.50385 9.49244,-21.84002 z"/></g></svg>