<svg width="53.710415mm" height="53.710415mm" viewBox="0 0 53.710415 53.710415" version="1.1" id="svg2810" xmlns="http://www.w3.org/2000/svg"><g id="layer1" transform="translate(-148.78996,-137.78996)"><g fill="none" stroke="#999999" stroke-width="3" id="g160" transform="matrix(0.26458333,0,0,0.26458333,149.18683,138.18683)"><path d="M 0,16 V 0 h 16" id="path152"/><path d="M 200,16 V 0 h -16" id="path154"/><path d="m 0,184 v 16 h 16" id="path156"/><path d="m 200,184 v 16 h -16" id="path158"/></g><path id="path2182-5" style="color:#000000;fill:#000000;fill-opacity:1" d="m 186.42848,150.70389 c -3.84594,0 -7.33135,1.56219 -9.85521,4.08605 l -2.00247,-2.00246 c -6.53707,6.53708 -6.53707,17.17777 0,23.71483 l 2.00298,-2.00142 c 2.52382,2.52356 6.00902,4.08554 9.8547,4.08554 7.69187,0 13.94127,-6.2494 13.94127,-13.94127 0,-7.69188 -6.2494,-13.94127 -13.94127,-13.94127 z m 0,1.26556 c 7.00821,0 12.67571,5.66749 12.67571,12.67571 0,7.00822 -5.6675,12.67571 -12.67571,12.67571 -7.00822,0 -12.67623,-5.66749 -12.67623,-12.67571 0,-7.00822 5.66801,-12.67571 12.67623,-12.67571 z m -23.77736,6.90035 v 2.95692 h -11.73055 v 5.62912 h 11.73055 v 2.96468 l 5.80274,-5.78518 z m 1.26555,3.04116 2.73472,2.71663 -2.73472,2.66702 v -1.10433 h -11.73055 v -3.098 h 11.73055 z"/></g></svg>