<svg width="53.710415mm" height="53.710415mm" viewBox="0 0 53.710415 53.710415" version="1.1" id="svg2472" xmlns="http://www.w3.org/2000/svg"><g id="layer1" transform="translate(89.490205,-24.078743)"><g fill="none" stroke="#999999" stroke-width="3" id="g160" transform="matrix(0.26458333,0,0,0.26458333,-89.09333,24.475618)"><path d="M 0,16 V 0 h 16" id="path152"/><path d="M 200,16 V 0 h -16" id="path154"/><path d="m 0,184 v 16 h 16" id="path156"/><path d="m 200,184 v 16 h -16" id="path158"/></g><path id="path1881" style="color:#000000;display:inline;fill:#000000;stroke-width:1.265;-inkscape-stroke:none" d="m -68.45067,27.432026 -1.22008,0.32815 1.80248,6.7324 h 2.62309 5.21881 2.62257 l 1.80455,-6.7324 -1.22215,-0.32815 -1.55236,5.79448 h -1.65261 -5.21881 -1.65209 z m 0.40153,9.87072 -2.55075,9.51983 1.22267,0.32814 2.55074,-9.51983 z m 10.82621,0 -1.22266,0.32814 2.55075,9.51983 1.22266,-0.32814 z m -6.04459,0.93379 v 9.85521 h 0.632 0.63149 v -9.85521 z m -8.23671,12.5274 -2.55075,9.52138 1.2206,0.32608 2.55282,-9.51932 z m 17.73639,0 -1.22267,0.32814 2.55282,9.51932 1.2206,-0.32608 z m -9.49968,0.6444 v 9.85573 h 0.632 0.63149 v -9.85573 h -0.63149 z m -11.68352,12.82041 -2.55127,9.51932 0.6103,0.16278 v 5.1e-4 l 0.61081,0.16278 2.55075,-9.51931 z m 24.6326,0 -1.22266,0.32608 2.55074,9.51931 1.22267,-0.32607 z m -12.94908,0.3514 v 9.85573 h 1.26349 v -9.85573 h -0.63149 z"/></g></svg>