<svg width="53.710415mm" height="53.710415mm" viewBox="0 0 53.710415 53.710415" version="1.1" id="svg85636" xmlns="http://www.w3.org/2000/svg"><g id="layer1" transform="translate(-63.983502,-94.854469)"><g fill="none" id="g50898" transform="matrix(0.26458333,0,0,0.26458333,64.380377,95.251344)"><g stroke="#999999" stroke-width="3" id="g50892"><path d="M 0,16 V 0 h 16" id="path50884"/><path d="M 200,16 V 0 h -16" id="path50886"/><path d="m 0,184 v 16 h 16" id="path50888"/><path d="m 200,184 v 16 h -16" id="path50890"/></g></g><path id="path82534" style="color:#000000;fill:#000000;-inkscape-stroke:none" d="m 99.753667,101.65844 -2.19418,3.79977 c -2.04267,-0.95429 -4.32025,-1.48828 -6.72156,-1.48828 -5.34074,0 -10.0712,2.63769 -12.95941,6.67969 l -3.70262,-2.13734 -1.47381,2.55334 3.69228,2.13165 c -0.74869,1.61153 -1.23545,3.36844 -1.4056,5.21674 h -4.25555 v 2.94814 h 4.25555 c 0.70348,7.63941 6.81635,13.7238 14.46837,14.3831 v 4.55217 h -19.28409 v 1.46348 h 41.331323 v -1.46348 H 92.405277 v -4.56871 c 1.82581,-0.1789 3.56146,-0.66719 5.15421,-1.41128 l 2.19418,3.79977 2.553333,-1.47433 -2.20296,-3.81579 c 4.02632,-2.89001 6.65179,-7.61074 6.65179,-12.93926 0,-2.35627 -0.5137,-4.59334 -1.43454,-6.60632 l 3.83904,-2.2164 -1.47381,-2.55282 -3.83491,2.21382 c -1.02943,-1.45868 -2.29753,-2.73674 -3.74757,-3.77754 l 2.20296,-3.81579 z m -8.91574,3.57498 c 8.1002,0 14.654413,6.5542 14.654413,14.6544 0,8.1002 -6.554213,14.65233 -14.654413,14.65233 -8.1002,0 -14.65233,-6.55213 -14.65233,-14.65233 0,-8.1002 6.55213,-14.65439 14.65233,-14.6544 z m 0,11.60756 c -1.67558,0 -3.04684,1.37125 -3.04684,3.04684 0,1.6756 1.37126,3.04684 3.04684,3.04684 1.6756,0 3.04891,-1.37124 3.04891,-3.04684 0,-1.67559 -1.37331,-3.04684 -3.04891,-3.04684 z m 0,1.26348 c 0.99194,0 1.78336,0.79142 1.78336,1.78336 0,0.99194 -0.79142,1.78336 -1.78336,1.78335 -0.99193,0 -1.78128,-0.79141 -1.78128,-1.78335 0,-0.99194 0.78935,-1.78336 1.78128,-1.78336 z"/></g></svg>