<svg width="53.710415mm" height="53.710415mm" viewBox="0 0 53.710415 53.710415" version="1.1" id="svg27953" xmlns="http://www.w3.org/2000/svg"><g id="layer1" transform="translate(-40.918986,-103.01577)"><g fill="none" stroke="#999999" stroke-width="3" id="g160" transform="matrix(0.26458333,0,0,0.26458333,41.315861,103.41264)"><path d="M 0,16 V 0 h 16" id="path152"/><path d="M 200,16 V 0 h -16" id="path154"/><path d="m 0,184 v 16 h 16" id="path156"/><path d="m 200,184 v 16 h -16" id="path158"/></g><path id="path27609" style="color:#000000;fill:#000000;fill-opacity:1;-inkscape-stroke:none" d="m 80.515543,118.0665 c -1.42529,0 -2.7923,0.25292 -4.05815,0.71727 l 0.5333,1.15084 c 1.10189,-0.3899 2.28805,-0.60256 3.52485,-0.60256 0.92469,0 1.82119,0.11879 2.67528,0.34158 l 0.4346,-1.19113 c -0.99117,-0.2707 -2.03375,-0.416 -3.10988,-0.416 z m -5.82497,0.99167 -7.03161,0.81183 0.14521,1.25625 5.56245,-0.64285 c -1.52137,1.16095 -2.75414,2.68133 -3.56774,4.43539 l 1.18855,0.43356 c 0.91333,-1.92508 2.39301,-3.52758 4.22455,-4.59403 l -0.43305,-0.93534 z m 10.77557,0.0972 -0.43357,1.18855 c 1.92577,0.91297 3.52886,2.39236 4.59559,4.22404 l 1.14773,-0.53176 c -1.21499,-2.12921 -3.07382,-3.84443 -5.30975,-4.88083 z m -19.75952,0.93999 -5.82962,0.67283 0.14521,1.25728 5.82962,-0.67333 z m -7.78092,0.89814 -5.92057,0.68369 c 0.0204,0.58342 0.0102,1.16605 0.005,1.74976 1.64684,0.25187 3.08713,1.11856 4.08347,2.358 l 1.09967,-0.63511 c -0.81125,-1.05953 -1.88884,-1.90348 -3.13055,-2.43551 l 4.00854,-0.46354 z m -7.91218,1.15808 c -2.10649,0.2709 -3.95121,1.38859 -5.18366,2.99825 l 1.10019,0.63511 c 0.99644,-1.23944 2.43653,-2.10624 4.08347,-2.358 z m 41.58919,3.66179 -1.15083,0.53329 c 0.38982,1.10171 0.60255,2.28764 0.60255,3.52433 0,0.92529 -0.11904,1.82227 -0.3421,2.67684 l 1.19166,0.4346 c 0.27094,-0.9916 0.41599,-2.03475 0.41599,-3.11144 0,-1.42511 -0.25303,-2.79202 -0.71727,-4.05762 z m -22.47718,0.9467 c -0.27095,0.99147 -0.41651,2.03439 -0.41651,3.11092 0,1.42511 0.25341,2.79206 0.71779,4.05763 l 1.15031,-0.5333 c -0.38995,-1.10171 -0.60254,-2.28764 -0.60254,-3.52433 0,-0.92511 0.11904,-1.8219 0.34209,-2.67632 z m -25.297163,0.11627 c -0.386136,0.92246 -0.599963,1.93382 -0.599963,2.99465 0,1.06082 0.213817,2.07269 0.599963,2.99517 l 1.104323,-0.63769 c -0.28256,-0.7308 -0.43873,-1.52528 -0.43873,-2.35748 0,-0.8322 0.15617,-1.62651 0.43873,-2.35748 z m 14.366053,0 -1.10433,0.63769 c 0.28245,0.73084 0.43873,1.52492 0.43873,2.35696 0,0.83202 -0.15628,1.62628 -0.43873,2.35696 l 1.10433,0.63769 c 0.38603,-0.92236 0.60048,-1.934 0.60048,-2.99465 0,-1.06083 -0.21435,-2.07219 -0.60048,-2.99465 z m -7.19181,0.41393 c -1.41807,0 -2.58072,1.16266 -2.58072,2.58072 0,1.41808 1.16266,2.58124 2.58072,2.58124 1.41807,0 2.58072,-1.16316 2.58072,-2.58124 0,-1.41806 -1.16265,-2.58072 -2.58072,-2.58072 z m 29.56719,0 c -1.41807,0 -2.58073,1.16267 -2.58073,2.58072 0,1.41809 1.16267,2.58124 2.58073,2.58124 1.41806,0 2.58072,-1.16315 2.58072,-2.58124 0,-1.41805 -1.16266,-2.58072 -2.58072,-2.58072 z m -29.56719,1.22473 c 0.75622,0 1.35599,0.59978 1.35599,1.35599 0,0.75623 -0.59977,1.35599 -1.35599,1.35599 -0.75622,0 -1.35599,-0.59976 -1.35599,-1.35599 0,-0.75621 0.59977,-1.35599 1.35599,-1.35599 z m 29.56719,0 c 0.75621,0 1.35599,0.59978 1.35599,1.35599 0,0.75623 -0.59978,1.35599 -1.35599,1.35599 -0.75622,0 -1.35599,-0.59976 -1.35599,-1.35599 0,-0.75621 0.59977,-1.35599 1.35599,-1.35599 z m -34.63975,5.44205 -1.10019,0.6351 c 1.23245,1.60982 3.07703,2.72733 5.18366,2.99827 v -1.27693 c -1.6468,-0.25159 -3.08704,-1.11766 -4.08347,-2.35644 z m 10.16269,0 c -0.99634,1.23865 -2.43637,2.10475 -4.08296,2.35644 -0.008,0.56119 -0.005,1.74666 -0.005,1.74666 l 5.92109,0.68833 0.14521,-1.25728 -4.00802,-0.46302 c 1.24194,-0.53197 2.31928,-1.37624 3.13055,-2.43603 z m 33.94935,0.43253 c -0.91328,1.92582 -2.39302,3.52855 -4.22507,4.59507 l 0.53175,1.14773 c 2.12951,-1.2147 3.84513,-3.07341 4.88187,-5.30924 z m -18.64124,0.78445 -1.14722,0.53175 c 0.78982,1.38374 1.853,2.59132 3.1135,3.55275 l -5.56296,-0.64285 -0.14521,1.25625 7.03161,0.81184 0.8108,0.10542 0.0615,-0.20309 0.43356,-1.18908 c -1.92537,-0.91306 -3.52885,-2.39181 -4.59558,-4.22299 z m -11.37864,2.54248 -0.14521,1.25728 5.82962,0.67283 0.14521,-1.25677 z m 24.01611,2.09134 c -1.1013,0.38949 -2.28666,0.60203 -3.52278,0.60203 -0.92547,0 -1.82257,-0.11895 -2.67736,-0.3421 l -0.4346,1.19115 c 0.99187,0.27104 2.03505,0.41651 3.11196,0.41651 1.4245,0 2.7909,-0.25288 4.05608,-0.71675 z"/></g></svg>