<svg width="53.710415mm" height="53.710415mm" viewBox="0 0 53.710415 53.710415" version="1.1" id="svg2547" xmlns="http://www.w3.org/2000/svg"><g id="layer1" transform="translate(-52.987202,-121.81687)"><g fill="none" stroke="#999999" stroke-width="3" id="g160" transform="matrix(0.26458333,0,0,0.26458333,53.384077,122.21374)"><path d="M 0,16 V 0 h 16" id="path152"/><path d="M 200,16 V 0 h -16" id="path154"/><path d="m 0,184 v 16 h 16" id="path156"/><path d="m 200,184 v 16 h -16" id="path158"/></g><path id="path2445-7" style="color:#000000;fill:#000000" d="m 82.025479,129.58461 c -5.987693,0 -10.827764,4.84058 -10.827764,10.82828 v 0.30075 0.30283 c 0,5.98765 4.84007,10.82776 10.827764,10.82776 h 0.302824 19.457217 v -1.26556 H 87.479412 c 3.55079,-1.8614 5.97793,-5.58399 5.97793,-9.86503 0,-4.28102 -2.42714,-8.00252 -5.97793,-9.86348 h 14.306108 v -1.26555 H 82.328303 Z m 0.302824,1.26762 c 5.454699,0 9.861419,4.40673 9.861419,9.86141 0,5.45472 -4.40672,9.86348 -9.861419,9.86348 -5.4547,0 -9.862965,-4.40876 -9.862965,-9.86348 0,-5.45468 4.408265,-9.86141 9.862965,-9.86141 z m 0,7.09982 c -1.518078,0 -2.763655,1.24558 -2.763655,2.76366 0,1.51808 1.244026,2.76159 2.762105,2.76159 1.518078,0 2.763655,-1.24351 2.763655,-2.76159 0,-1.51808 -1.244036,-2.76366 -2.762105,-2.76366 z m 0,1.26556 c 0.833879,0 1.49655,0.66421 1.49655,1.4981 0,0.83389 -0.664221,1.49603 -1.4981,1.49603 -0.833879,0 -1.496033,-0.66214 -1.496033,-1.49603 0,-0.83389 0.663694,-1.4981 1.497583,-1.4981 z m -12.969751,13.0576 v 4.85552 h -5.631181 v -2.97036 l -5.828068,5.88646 5.828068,5.82807 v -3.13263 h 5.631181 v 5.01727 h 1.265556 v -15.48433 z m 3.733106,0 v 15.48433 h 1.265555 v -5.01727 h 5.631181 v 3.13263 l 5.828068,-5.82807 -5.828068,-5.88646 v 2.97036 h -5.631181 v -4.85552 z m -10.629843,4.96301 v 1.15806 h 6.89622 v 3.08044 h -6.89622 v 1.34152 l -2.775024,-2.77709 z m 18.792135,0 2.775024,2.80293 -2.775024,2.77709 v -1.34152 h -6.89622 v -3.08044 h 6.89622 z"/></g></svg>