<svg width="53.710415mm" height="53.710415mm" viewBox="0 0 53.710415 53.710415" version="1.1" id="svg4484" xmlns="http://www.w3.org/2000/svg"><g id="layer1" transform="translate(-49.435115,-95.918986)"><g fill="none" id="g50898" transform="matrix(0.26458333,0,0,0.26458333,49.83199,96.315861)" style="display:inline"><g stroke="#999999" stroke-width="3" id="g50892"><path d="M 0,16 V 0 h 16" id="path50884"/><path d="M 200,16 V 0 h -16" id="path50886"/><path d="m 0,184 v 16 h 16" id="path50888"/><path d="m 200,184 v 16 h -16" id="path50890"/></g></g><path id="rect854" style="color:#000000;fill:#000000;-inkscape-stroke:none" d="m 64.4652,104.69933 -0.0134,1.26607 c 5.11585,0.0522 8.81767,1.76782 11.69696,4.22816 2.28798,1.9551 4.04651,4.39419 5.50095,6.84455 l -6.55722,-3.78582 -0.63097,1.09554 9.49813,5.48442 v -10.98641 h -1.26556 v 7.475 c -1.48598,-2.49699 -3.30737,-5.02364 -5.72316,-7.08794 -3.06909,-2.62254 -7.10977,-4.47849 -12.5057,-4.53357 z m -0.11162,8.47803 c -6.13004,2.8e-4 -11.13932,4.86291 -11.37812,10.93525 h -0.0103 v 0.4532 12.06438 h 1.3007 v -6.78201 c 1.90633,3.62779 5.71165,6.1066 10.08827,6.1066 4.71836,0 8.77317,-2.88097 10.49962,-6.97683 l 0.63148,7.97264 c 0.1733,2.15688 1.6364,3.89847 3.80029,3.89847 2.16387,0 3.75256,-1.76894 3.92586,-3.92586 0.17913,-1.96651 0.30029,-3.9262 0.45681,-5.87406 0.11893,-1.48018 1.17691,-2.66237 2.66186,-2.66237 1.48496,0 2.43595,1.18219 2.55488,2.66237 0.12782,1.97416 0.25391,3.92746 0.41031,5.87406 0.1733,2.15692 1.762,3.92586 3.92586,3.92586 2.16388,0 3.75256,-1.76894 3.92586,-3.92586 0.17914,-1.96651 0.3003,-3.9262 0.45682,-5.87406 0.10073,-1.25361 0.875,-2.29331 2.01176,-2.58227 v -1.28778 c -1.82613,0.31417 -3.12035,1.93566 -3.27577,3.87005 -0.17913,1.96651 -0.30031,3.9262 -0.45682,5.87406 -0.11893,1.48016 -1.17689,2.66237 -2.66185,2.66237 -1.48496,0 -2.54136,-1.1822 -2.6603,-2.66237 -0.1278,-1.97417 -0.2539,-3.92747 -0.41031,-5.87406 -0.1733,-2.15693 -1.65655,-3.92586 -3.82044,-3.92586 -2.16388,0 -3.75257,1.76893 -3.92586,3.92586 -0.17915,1.96651 -0.3003,3.9262 -0.45682,5.87406 -0.11893,1.48016 -1.1769,2.66237 -2.66185,2.66237 -1.48496,0 -2.4158,-1.15484 -2.53473,-2.63498 l -1.01441,-12.80646 h -0.003 c -0.2225,-6.08714 -5.23844,-10.96649 -11.37915,-10.96677 z m 5.2e-4,1.26556 c 5.59853,0 10.12289,4.52436 10.12289,10.12289 0,5.59855 -4.52436,10.1229 -10.12289,10.1229 -5.31425,0 -9.65998,-4.07627 -10.08776,-9.2785 v -1.2976 h -0.0248 c 0.23655,-5.38732 4.666,-9.66969 10.11256,-9.66969 z m 0,7.38249 c -1.50542,0 -2.73834,1.23499 -2.73834,2.7404 0,1.50541 1.23292,2.73834 2.73834,2.73834 1.5054,0 2.73988,-1.23293 2.73988,-2.73834 0,-1.50541 -1.23448,-2.7404 -2.73988,-2.7404 z m 0,1.26607 c 0.82175,0 1.47433,0.65257 1.47433,1.47433 0,0.82176 -0.65258,1.47485 -1.47433,1.47485 -0.82176,0 -1.47485,-0.65309 -1.47485,-1.47485 0,-0.82176 0.65309,-1.47433 1.47485,-1.47433 z"/></g></svg>