<svg width="53.710415mm" height="53.710415mm" viewBox="0 0 53.710415 53.710415" version="1.1" id="svg3385" xmlns="http://www.w3.org/2000/svg"><g id="layer1" transform="translate(1.306821,-77.822211)"><g fill="none" id="g50898" transform="matrix(-0.26458333,0,0,0.26458333,52.00672,78.219086)"><g stroke="#999999" stroke-width="3" id="g50892"><path d="M 0,16 V 0 h 16" id="path50884"/><path d="M 200,16 V 0 h -16" id="path50886"/><path d="m 0,184 v 16 h 16" id="path50888"/><path d="m 200,184 v 16 h -16" id="path50890"/></g></g><path id="path2313" style="color:#000000;fill:#000000;-inkscape-stroke:none" d="m 13.212965,87.290109 v 6.30401 h -2.791044 v -6.30401 z m 32.150493,1.95751 v 1.45675 H 14.679542 v -1.45675 z m 0,5.52937 v 1.43764 H 15.023191 v -1.43764 z m -32.244027,0.51935 3.918623,14.625471 -2.695959,0.72243 -3.919134,-14.625461 z m 32.244027,5.136641 v 1.35392 H 16.482016 v -1.35392 z m 0,5.62136 v 1.27744 H 17.751706 v -1.27744 z m -19.571932,7.83467 7.08794,4.0721 -7.085874,4.10362 -0.632519,-1.09347 4.075204,-2.36161 h -2.749704 -4.962487 v -1.26556 h 4.962487 2.781227 l -4.105176,-2.35954 z m -12.970268,0 0.628901,1.09554 -4.105168,2.35954 h 2.78122 4.962487 v 1.26556 h -4.962487 -2.7497 l 4.075199,2.36161 -0.63252,1.09347 -7.085869,-4.10362 z"/></g></svg>