<svg width="53.710415mm" height="53.710415mm" viewBox="0 0 53.710415 53.710415" version="1.1" id="svg2515" xmlns="http://www.w3.org/2000/svg"><g id="layer1" transform="translate(-16.080276,-115.43512)"><g fill="none" id="g50898" transform="matrix(0.26458333,0,0,0.26458333,16.477151,115.83199)" style="display:inline"><g stroke="#999999" stroke-width="3" id="g50892"><path d="M 0,16 V 0 h 16" id="path50884"/><path d="M 200,16 V 0 h -16" id="path50886"/><path d="m 0,184 v 16 h 16" id="path50888"/><path d="m 200,184 v 16 h -16" id="path50890"/></g></g><path id="path2083" style="color:#000000;fill:#000000" d="m 42.935742,122.7065 c -10.8084,0 -19.584335,8.77542 -19.584335,19.58382 0,10.80839 8.775935,19.58382 19.584334,19.58382 10.8084,0 19.58382,-8.77543 19.58382,-19.58382 0,-10.8084 -8.77542,-19.58382 -19.583819,-19.58382 z m 0,1.26556 c 4.56706,0 8.74067,1.66756 11.94707,4.42712 h -23.89466 c 3.2064,-2.75956 7.38053,-4.42712 11.94759,-4.42712 z m -13.27826,5.69267 h 24.985559 l -25.114229,25.11268 c -3.047418,-3.27075 -4.91185,-7.65891 -4.91185,-12.48709 0,-4.89628 1.9164,-9.34082 5.04052,-12.62559 z m 26.661419,0.11318 c 3.06133,3.27339 4.935101,7.67183 4.935101,12.51241 0,4.89679 -1.91684,9.34175 -5.04155,12.62662 H 31.178322 Z M 30.989182,156.1825 h 23.8926 c -3.20626,2.75899 -7.37949,4.42608 -11.94604,4.42608 -4.56655,0 -8.74029,-1.66709 -11.94656,-4.42608 z"/></g></svg>