<svg width="53.710415mm" height="53.710415mm" viewBox="0 0 53.710415 53.710415" version="1.1" id="svg1777" xmlns="http://www.w3.org/2000/svg"><g id="layer1" transform="translate(-49.545719,-91.187666)"><g fill="none" stroke="#999999" stroke-width="3" id="g160" transform="matrix(0.26458333,0,0,0.26458333,49.942594,91.584541)"><path d="M 0,16 V 0 h 16" id="path152"/><path d="M 200,16 V 0 h -16" id="path154"/><path d="m 0,184 v 16 h 16" id="path156"/><path d="m 200,184 v 16 h -16" id="path158"/></g><path id="path367" style="color:#000000;fill:#000000;fill-opacity:1" d="m 86.875476,101.48084 -0.61133,1.03301 7.391798,4.40697 H 55.509436 v -2.66651 h -1.19889 v 21.23953 6.57634 0.0729 h 1.19889 v -0.0729 -2.71146 h 38.145992 l -7.241422,4.21317 0.611331,1.03301 10.029883,-5.84202 -10.179743,-6.04251 -0.61133,1.03301 7.391798,4.40696 H 55.509436 v -2.6665 -17.37465 h 38.145992 l -7.241422,4.21317 0.611331,1.03302 10.029883,-5.84202 z m 10.416938,2.77347 v 12.92427 H 59.145906 l 7.3918,-4.40697 -0.611339,-1.033 -10.179741,6.04303 10.02988,5.84203 0.61133,-1.03302 -7.24141,-4.21317 h 38.145989 v 13.6927 h 1.198893 v -27.81587 z"/></g></svg>