<svg width="53.710415mm" height="53.710415mm" viewBox="0 0 53.710415 53.710415" version="1.1" id="svg2252" xmlns="http://www.w3.org/2000/svg"><g id="layer1" transform="translate(-64.693179,-108.33834)"><g fill="none" id="g50898" transform="matrix(-0.26458333,0,0,0.26458333,118.00672,108.73521)"><g stroke="#999999" stroke-width="3" id="g50892"><path d="M 0,16 V 0 h 16" id="path50884"/><path d="M 200,16 V 0 h -16" id="path50886"/><path d="m 0,184 v 16 h 16" id="path50888"/><path d="m 200,184 v 16 h -16" id="path50890"/></g></g><path id="path302" style="color:#000000;fill:#000000" d="m 73.544576,115.6875 v 1.264 H 109.5522 v -1.264 z m 0,5.64461 v 1.26556 H 109.5522 v -1.26556 z m 18.20457,3.53519 -4.05867,7.08587 1.09761,0.6289 2.39262,-4.17649 v 17.36432 h 1.26556 v -17.23823 l 2.40088,4.05815 1.08934,-0.6444 z m 17.803054,19.51509 c -5.55566,2.26299 -11.633844,3.51038 -18.004595,3.51038 -6.370089,0 -12.448019,-1.24679 -18.003029,-3.50935 v 1.3286 c 5.57347,2.20548 11.64639,3.42098 18.003029,3.42098 6.35733,0 12.430465,-1.21557 18.004595,-3.4215 z m 0,5.56503 c -5.55581,2.26327 -11.633534,3.51193 -18.004595,3.51193 -6.370499,0 -12.447779,-1.24851 -18.003029,-3.51141 v 1.33429 c 5.57322,2.205 11.647019,3.41736 18.003029,3.41736 6.356601,0 12.430785,-1.2125 18.004595,-3.41788 z"/></g></svg>