<svg width="53.710415mm" height="53.710415mm" viewBox="0 0 53.710415 53.710415" version="1.1" id="svg8897" xmlns="http://www.w3.org/2000/svg"><g id="layer1" transform="translate(-121.82222,-177.88673)"><g fill="none" id="g50898" transform="matrix(0.26458333,0,0,0.26458333,122.21909,178.2836)" style="display:inline"><g stroke="#999999" stroke-width="3" id="g50892"><path d="M 0,16 V 0 h 16" id="path50884"/><path d="M 200,16 V 0 h -16" id="path50886"/><path d="m 0,184 v 16 h 16" id="path50888"/><path d="m 200,184 v 16 h -16" id="path50890"/></g></g><path id="path8077" style="color:#000000;fill:#000000;-inkscape-stroke:none" d="m 153.49649,189.40875 -1.2113,0.36328 c 0.70907,2.36753 1.38358,4.34124 1.47485,5.85959 0.0912,1.51736 -0.25754,2.52738 -1.78336,3.4861 -9.8e-4,6.2e-4 -10e-4,0.001 -0.002,0.002 l -16.87701,9.74204 -0.0191,0.014 c 0.0139,-0.01 -0.26308,0.0871 -0.60771,0.10955 -0.34463,0.0225 -0.75746,0.017 -1.13275,0.0253 l 0.0134,-0.002 h -5.30665 -0.006 c -1.9712,-0.013 -3.16964,1.51504 -3.19309,3.01946 -0.0117,0.75301 0.24269,1.5209 0.78858,2.10736 0.5459,0.58647 1.38184,0.96247 2.40037,0.96894 h 0.002 41.47292 c 0.63085,0.002 1.02049,0.22168 1.3007,0.55242 0.28056,0.33115 0.43633,0.80639 0.43356,1.29139 -0.003,0.485 -0.1642,0.96249 -0.44907,1.29863 -0.28487,0.33614 -0.67409,0.55813 -1.28932,0.56276 h -36.30838 v 1.26555 h 36.31613 0.002 c 0.94816,-0.007 1.73866,-0.4131 2.24431,-1.00976 0.50565,-0.59665 0.74553,-1.35796 0.74983,-2.11149 0.004,-0.75352 -0.22789,-1.51528 -0.73432,-2.11305 -0.50644,-0.59776 -1.30408,-0.9996 -2.26343,-1.00201 h -41.46879 c -0.72637,-0.005 -1.17957,-0.24083 -1.4826,-0.56637 -0.30302,-0.32554 -0.45616,-0.76957 -0.44906,-1.22473 0.0142,-0.91031 0.55966,-1.78481 1.92391,-1.77354 h 0.002 5.32009 0.008 c 0.33638,-0.007 0.76705,1e-5 1.18752,-0.0274 0.42048,-0.0274 0.82925,-0.0443 1.24024,-0.32608 l -0.0408,0.0253 16.88476,-9.74772 0.01,-0.006 c 1.8411,-1.1556 2.48537,-2.82733 2.3766,-4.63693 -0.10878,-1.8096 -0.8276,-3.81103 -1.52704,-6.14639 z m -5.54282,5.20691 -9.75909,8.18814 0.89969,1.18184 11.28561,-6.51589 z m 13.56972,2.94349 -0.63252,1.09606 5.87096,3.39049 h -11.41016 v 1.26556 h 11.40912 l -5.86992,3.38842 0.63097,1.09606 8.86716,-5.11752 z m -8.30854,4.8209 -11.28613,6.51588 0.57412,1.36994 11.97033,-4.35735 z"/></g></svg>