<svg width="53.710415mm" height="53.710415mm" viewBox="0 0 53.710415 53.710415" version="1.1" id="svg5856" xmlns="http://www.w3.org/2000/svg"><g id="layer1" transform="translate(-117.68709,-137.64769)"><g fill="none" stroke="#999999" stroke-width="3" id="g160" transform="matrix(0.26458333,0,0,0.26458333,118.08396,138.04456)"><path d="M 0,16 V 0 h 16" id="path152"/><path d="M 200,16 V 0 h -16" id="path154"/><path d="m 0,184 v 16 h 16" id="path156"/><path d="m 200,184 v 16 h -16" id="path158"/></g><path id="path856-4" style="color:#000000;fill:#000000;fill-opacity:1" d="m 130.47999,145.69062 c -1.44064,0.0172 -2.89834,1.01835 -3.32124,2.84892 l -0.004,0.014 -1.43971,7.77731 c -0.0964,0.29844 -0.36828,0.72434 -0.74414,1.03869 -0.37793,0.31607 -0.83785,0.52458 -1.32395,0.52349 l -0.002,1.264 c 0.8429,0.002 1.58125,-0.35011 2.13889,-0.81649 0.55764,-0.46637 0.95509,-1.04108 1.14256,-1.6309 l 0.0114,-0.0393 1.45314,-7.84551 c 2.5e-4,-0.001 0.002,-0.001 0.002,-0.002 0.31977,-1.37855 1.26175,-1.8969 2.18592,-1.86707 0.92489,0.0298 1.80694,0.61034 1.99574,1.90221 l 0.002,0.0196 1.78697,8.31163 c 0.13793,0.38133 0.69908,1.10731 1.35961,1.4578 0.3559,0.18885 0.75272,0.31323 1.18907,0.3855 0.44999,0.0218 0.78776,0.0388 1.20561,0 0.43634,-0.0723 0.83318,-0.19665 1.18908,-0.3855 0.66052,-0.35049 1.27542,-0.99017 1.41335,-1.3715 l 1.73323,-8.39793 0.002,-0.0196 c 0.1888,-1.29187 1.07136,-1.87237 1.99626,-1.90221 0.92489,-0.0298 1.86842,0.48814 2.18746,1.86914 l 1.43454,7.74061 c 0.0994,0.31456 0.61696,1.30871 1.1746,1.77508 0.55764,0.46638 1.29393,0.81839 2.13682,0.81649 1.02995,-0.0172 1.44026,-0.23413 1.97456,-0.51004 0.66052,-0.35049 1.2561,-1.08682 1.45728,-1.64021 l 1.6893,-8.12922 0.004,-0.0196 c 0.1888,-1.29187 1.0693,-1.87237 1.99419,-1.90221 0.92417,-0.0298 1.8677,0.48852 2.18746,1.86707 2.6e-4,0.001 0.002,0.001 0.002,0.002 l 1.45315,7.84603 0.0119,0.0388 c 0.42573,1.51875 1.93369,2.42924 3.28093,2.44739 l -0.004,-1.26349 c -0.92877,-0.11665 -1.75727,-0.65679 -2.06654,-1.55856 l -1.44125,-7.78144 -0.002,-0.014 c -0.43655,-1.88963 -1.97596,-2.89528 -3.46077,-2.84737 -1.48482,0.0479 -2.9385,1.14473 -3.20704,2.98225 l -1.68982,7.89461 c -0.17154,0.4688 -0.4087,0.75278 -0.80047,0.96066 -1.02875,0.36847 -1.83437,0.49376 -2.70888,-0.15916 -0.37459,-0.31328 -0.64533,-0.7373 -0.74259,-1.0356 l -1.44125,-7.78092 -0.004,-0.0139 c -0.43654,-1.88963 -1.97595,-2.89528 -3.46077,-2.84737 -1.48481,0.0479 -2.93849,1.14473 -3.20704,2.98224 l -1.68723,7.89461 c -0.37957,0.9062 -1.1531,1.2471 -1.99833,1.26194 -0.96035,-0.0262 -1.71647,-0.50101 -2.00349,-1.26194 l -1.68776,-7.89461 c -0.26854,-1.83751 -1.72222,-2.93484 -3.20704,-2.98276 v 5.2e-4 c -0.0464,-0.001 -0.093,-0.002 -0.13952,-0.002 z m 19.29185,17.41909 -1.22267,0.32815 2.76934,10.33012 h -4.29948 l -2.84479,-10.61331 -1.22059,0.32815 2.75538,10.28516 h -3.48195 l -0.10181,0.50798 -0.68574,3.37498 h -14.85336 v 5.66426 h 31.29525 l -2.55695,-9.54722 h -2.69803 z m -6.50969,11.92382 h 11.09183 l 1.88051,7.01611 h -28.38276 v -3.13521 h 14.62339 z"/></g></svg>