<svg width="53.710415mm" height="53.710415mm" viewBox="0 0 53.710415 53.710415" version="1.1" id="svg63759" xmlns="http://www.w3.org/2000/svg"><g id="layer1" transform="translate(-45.531889,-89.886727)"><g fill="none" id="g50898" transform="matrix(0.26458333,0,0,0.26458333,45.928764,90.283602)" style="display:inline"><g stroke="#999999" stroke-width="3" id="g50892"><path d="M 0,16 V 0 h 16" id="path50884"/><path d="M 200,16 V 0 h -16" id="path50886"/><path d="m 0,184 v 16 h 16" id="path50888"/><path d="m 200,184 v 16 h -16" id="path50890"/></g></g><path id="path63613" style="color:#000000;fill:#000000" d="m 58.463394,94.409962 v 0.63252 44.031418 h 27.8474 V 94.409962 Z m 1.26349,1.26556 h 25.31835 v 7.183018 h -25.31835 z m 0.88057,8.446508 h 23.55773 l -11.77912,11.77861 z m -0.88057,0.90847 11.76466,11.76466 -11.76466,11.76465 z m 25.31835,5.2e-4 v 23.52828 l -11.76414,-11.76414 z m -12.65917,12.65866 11.67112,11.6706 h -23.34173 z m -12.65918,12.93616 h 25.31835 v 7.18457 h -25.31835 z"/></g></svg>