<svg width="53.710415mm" height="53.710415mm" viewBox="0 0 53.710415 53.710415" version="1.1" id="svg1307" xmlns="http://www.w3.org/2000/svg"><g id="layer1" transform="translate(-94.144792,-75.693179)"><g fill="none" id="g50898" transform="matrix(0.26458333,0,0,0.26458333,94.541667,76.090054)" style="display:inline"><g stroke="#999999" stroke-width="3" id="g50892"><path d="M 0,16 V 0 h 16" id="path50884"/><path d="M 200,16 V 0 h -16" id="path50886"/><path d="m 0,184 v 16 h 16" id="path50888"/><path d="m 200,184 v 16 h -16" id="path50890"/></g></g><path id="path867" style="color:#000000;fill:#000000;-inkscape-stroke:none" d="m 110.08154,84.086994 -9.51932,5.4963 9.51726,5.52163 0.63511,-1.09399 -6.52157,-3.78323 h 16.83204 l -6.52364,3.78323 0.6346,1.09399 9.51983,-5.52163 -9.51983,-5.4963 -0.63252,1.09606 6.55257,3.78116 h -16.89406 l 6.55258,-3.78116 z m -11.452005,10e-4 v 11.01742 h 1.2578 v -11.01742 z m 26.701205,0 v 11.01742 h 1.2578 v -11.01742 z m -12.65814,14.6327 v 1.26556 h 28.03136 v -1.26556 z m 0,3.504176 v 1.26556 h 28.03136 v -1.26556 z m 0,3.50366 v 1.26556 h 28.03136 v -1.26556 z m -2.66186,1.32033 v 5.63274 h 2.66082 v -5.63274 z m 30.69839,0 v 5.63274 h 2.66133 v -5.63274 z m -28.03653,2.18385 v 1.26556 h 28.03136 v -1.26556 z m 0,3.50366 v 1.26556 h 28.03136 v -1.26556 z m 0,3.50366 v 1.26608 h 28.03136 v -1.26608 z m 0,3.50625 v 1.26349 h 28.03136 v -1.26349 z"/></g></svg>