<svg width="53.710415mm" height="53.710415mm" viewBox="0 0 53.710415 53.710415" version="1.1" id="svg15478" xmlns="http://www.w3.org/2000/svg"><g id="layer1" transform="translate(-145.59641,-116.85447)"><g fill="none" id="g50898" transform="matrix(0.26458333,0,0,0.26458333,145.99328,117.25134)" style="display:inline"><g stroke="#999999" stroke-width="3" id="g50892"><path d="M 0,16 V 0 h 16" id="path50884"/><path d="M 200,16 V 0 h -16" id="path50886"/><path d="m 0,184 v 16 h 16" id="path50888"/><path d="m 200,184 v 16 h -16" id="path50890"/></g></g><path id="path15338" style="color:#000000;fill:#000000;-inkscape-stroke:none" d="m 172.44593,126.30661 c -1.40141,0 -2.43603,1.29909 -2.43603,2.76934 v 23.05491 a 4.8235888,4.8235888 0 0 0 -2.38177,4.15841 4.8235888,4.8235888 0 0 0 4.82348,4.82347 4.8235888,4.8235888 0 0 0 4.824,-4.82347 4.8235888,4.8235888 0 0 0 -2.3828,-4.15996 v -23.05336 c 0,-1.47025 -1.03463,-2.76934 -2.43603,-2.76934 z m 0,1.26556 h 0.0114 c 0.59727,0 1.17202,0.60675 1.17202,1.50378 v 18.11414 c -0.59175,0.007 -1.71601,0.0183 -2.35335,0.0114 v -18.12551 c 0,-0.89703 0.57268,-1.50378 1.16996,-1.50378 z m -21.58577,1.26813 v 1.26556 h 17.15606 v -1.26556 z m 26.02684,0 v 1.26556 h 17.15606 v -1.26556 z m -26.02684,7.03317 v 1.26555 h 17.15606 v -1.26555 z m 26.02684,0 v 1.26555 h 17.15606 v -1.26555 z m -26.02684,7.03316 v 1.26556 h 17.15606 v -1.26556 z m 26.02684,0 v 1.26556 h 17.15606 v -1.26556 z m -26.02684,7.03315 v 1.26556 h 17.15606 v -1.26556 z m 26.02684,0 v 1.26556 h 17.15606 v -1.26556 z m -26.02684,7.03316 v 1.17978 h 14.89832 v -1.17978 z m 28.28458,0 v 1.17978 h 14.89832 v -1.17978 z"/></g></svg>