<svg width="53.710415mm" height="53.710415mm" viewBox="0 0 53.710415 53.710415" version="1.1" id="svg26842" xmlns="http://www.w3.org/2000/svg"><g id="layer1" transform="translate(-96.628663,-122.17706)"><g fill="none" stroke="#999999" stroke-width="3" id="g160" transform="matrix(0.26458333,0,0,0.26458333,97.025538,122.57393)"><path d="M 0,16 V 0 h 16" id="path152"/><path d="M 200,16 V 0 h -16" id="path154"/><path d="m 0,184 v 16 h 16" id="path156"/><path d="m 200,184 v 16 h -16" id="path158"/></g><path id="path26821" style="color:#000000;fill:#000000;fill-opacity:1;-inkscape-stroke:none" d="m 137.1187,136.56946 c -0.6959,0 -1.37823,0.0579 -2.04329,0.16795 -0.0875,0.0119 -7.44333,1.01435 -14.90606,2.03502 -3.75348,0.51337 -7.51214,1.02814 -10.34356,1.41749 -1.41571,0.19467 -2.59819,0.35876 -3.4339,0.4749 -0.37988,0.0528 -0.66385,0.0922 -0.88935,0.12403 -4.48651,0.0697 -8.116298,3.74169 -8.116298,8.24445 0,4.50417 3.632018,8.17494 8.120438,8.24239 0.2252,0.0317 0.50709,0.0709 0.88521,0.12351 0.83571,0.11615 2.01819,0.28023 3.4339,0.47491 2.83142,0.38937 6.59008,0.90463 10.34356,1.418 7.46273,1.02067 14.81861,2.0231 14.90606,2.03502 0.66506,0.11003 1.34739,0.16794 2.04329,0.16794 6.8751,0 12.4628,-5.58771 12.4628,-12.4628 0,-6.8751 -5.5877,-12.46281 -12.4628,-12.46281 z m 0,1.26556 c 6.19144,0 11.19725,5.00581 11.19725,11.19725 0,6.19143 -5.00581,11.19725 -11.19725,11.19725 -6.19144,0 -11.19725,-5.00582 -11.19725,-11.19725 0,-6.19144 5.00581,-11.19725 11.19725,-11.19725 z m -6.93549,0.84594 c -3.33164,2.23875 -5.52732,6.04196 -5.52732,10.35131 0,4.30775 2.19413,8.10965 5.5237,10.34872 -2.88324,-0.39335 -5.5172,-0.7521 -9.83816,-1.34307 -3.75333,-0.51334 -7.51119,-1.02872 -10.342,-1.418 -0.36026,-0.0495 -0.54558,-0.0753 -0.87385,-0.12041 2.80447,-1.31714 4.75113,-4.16813 4.75113,-7.46621 0,-3.29969 -1.94854,-6.15295 -4.75527,-7.46983 0.32966,-0.0455 0.51603,-0.0717 0.87799,-0.12143 2.83081,-0.38928 6.58867,-0.9026 10.342,-1.41594 4.26694,-0.58359 6.95948,-0.95134 9.84178,-1.34514 z m -24.55096,3.37189 c 3.8625,0 6.98045,3.11797 6.98045,6.98045 0,3.86251 -3.11795,6.98046 -6.98045,6.98046 -3.8625,0 -6.980452,-3.11795 -6.980452,-6.98046 0,-3.82945 3.065082,-6.92672 6.881752,-6.97942 0.0188,0.002 0.0379,0.002 0.0579,-5.1e-4 1.2e-4,-2e-5 4e-4,1e-5 5.1e-4,0 0.0135,-8e-5 0.0268,-5.2e-4 0.0403,-5.2e-4 z m -0.001,4.31343 c -1.46479,0 -2.66599,1.20121 -2.66599,2.66599 0,1.46479 1.20121,2.66599 2.66599,2.66599 1.46478,0 2.66599,-1.2012 2.66599,-2.66599 0,-1.46478 -1.20121,-2.66599 -2.66599,-2.66599 z m 31.48748,0 c -1.46478,0 -2.66599,1.2012 -2.66599,2.66599 0,1.46478 1.20121,2.66599 2.66599,2.66599 1.46478,0 2.66599,-1.20121 2.66599,-2.66599 0,-1.46479 -1.20121,-2.66599 -2.66599,-2.66599 z m -31.48748,1.26556 c 0.78113,0 1.40043,0.6193 1.40043,1.40043 0,0.78113 -0.6193,1.40043 -1.40043,1.40043 -0.78113,0 -1.40043,-0.6193 -1.40043,-1.40043 0,-0.78113 0.6193,-1.40043 1.40043,-1.40043 z m 31.48748,0 c 0.78113,0 1.40043,0.6193 1.40043,1.40043 0,0.78113 -0.6193,1.40043 -1.40043,1.40043 -0.78113,0 -1.40043,-0.6193 -1.40043,-1.40043 0,-0.78113 0.6193,-1.40043 1.40043,-1.40043 z"/></g></svg>