<svg width="53.710415mm" height="53.710415mm" viewBox="0 0 53.710415 53.710415" version="1.1" id="svg1121" xmlns="http://www.w3.org/2000/svg"><g id="layer1" transform="translate(-43.048018,-128.91899)"><g fill="none" id="g50898" transform="matrix(0.26458333,0,0,0.26458333,43.444893,129.31586)" style="display:inline"><g stroke="#999999" stroke-width="3" id="g50892"><path d="M 0,16 V 0 h 16" id="path50884"/><path d="M 200,16 V 0 h -16" id="path50886"/><path d="m 0,184 v 16 h 16" id="path50888"/><path d="m 200,184 v 16 h -16" id="path50890"/></g></g><path id="path313" style="color:#000000;fill:#000000;-inkscape-stroke:none" d="m 69.903484,135.57103 c -11.1505,0 -20.203418,9.0524 -20.203418,20.2029 0,11.1505 9.052918,20.20342 20.203418,20.20342 11.150498,0 20.202902,-9.05292 20.202902,-20.20342 0,-11.1505 -9.052404,-20.2029 -20.202902,-20.2029 z m 0,1.26349 c 2.829589,0 5.512931,0.62024 7.923031,1.73064 l 8.817033,26.07696 c -3.178678,5.99176 -9.478742,10.06916 -16.740064,10.06916 -7.261572,0 -13.561067,-4.07758 -16.73903,-10.06967 l 8.815482,-26.07593 c 2.41015,-1.11071 5.093548,-1.73116 7.923548,-1.73116 z m 9.545154,2.57555 c 5.620782,3.28342 9.394259,9.37913 9.394259,16.36386 0,2.55637 -0.506244,4.99325 -1.422652,7.21713 z m -19.091342,0.001 -7.970056,23.57633 c -0.915274,-2.2229 -1.421102,-4.65853 -1.421102,-7.21351 0,-6.98406 3.771877,-13.07918 9.391158,-16.36282 z m 8.913668,6.99233 v 4.24832 c -1.417542,0.17463 -2.660141,0.92751 -3.483508,2.01435 l -3.681946,-2.12597 -0.633036,1.09658 3.678845,2.12441 c -0.263517,0.61867 -0.409277,1.29872 -0.409277,2.01177 0,0.71369 0.146342,1.39401 0.41031,2.01331 l -3.679878,2.12442 0.633036,1.09657 3.682463,-2.12596 c 0.823373,1.08682 2.065837,1.84014 3.482991,2.01486 v 4.2478 h 1.266073 v -4.2478 c 1.417132,-0.17471 2.659571,-0.92791 3.482475,-2.01486 l 3.682463,2.12596 0.633036,-1.09657 -3.680395,-2.12493 c 0.263621,-0.61913 0.409794,-1.29935 0.409794,-2.0128 0,-0.71289 -0.146061,-1.3927 -0.409277,-2.01125 l 3.679878,-2.12493 -0.633036,-1.09658 -3.681946,2.12597 c -0.822896,-1.08697 -2.06547,-1.83973 -3.482992,-2.01435 v -4.24832 z m 0.633036,5.47461 c 2.159038,0 3.894854,1.73581 3.894854,3.89485 0,2.15904 -1.735816,3.8964 -3.894854,3.8964 -2.159038,0 -3.896403,-1.73736 -3.896403,-3.8964 0,-2.15904 1.737365,-3.89485 3.896403,-3.89485 z"/></g></svg>