<svg width="53.710415mm" height="53.710415mm" viewBox="0 0 53.710415 53.710415" version="1.1" id="svg2370" xmlns="http://www.w3.org/2000/svg"><g id="layer1" transform="translate(-12.886727,-82.435115)"><g fill="none" id="g50898" transform="matrix(0.26458333,0,0,0.26458333,13.283602,82.83199)" style="display:inline"><g stroke="#999999" stroke-width="3" id="g50892"><path d="M 0,16 V 0 h 16" id="path50884"/><path d="M 200,16 V 0 h -16" id="path50886"/><path d="m 0,184 v 16 h 16" id="path50888"/><path d="m 200,184 v 16 h -16" id="path50890"/></g></g><path id="path1944" style="color:#000000;fill:#000000;stroke-linecap:round" d="m 39.110449,86.33454 v 2.48512 c -10.989815,0.33441 -19.81016,9.36053 -19.81016,20.43079 0,11.07026 8.820345,20.09638 19.81016,20.43079 v 2.56522 h 1.263489 v -2.56522 c 10.989574,-0.33468 19.809644,-9.36071 19.809644,-20.43079 -1e-6,-5.13881 -1.90108,-9.83703 -5.036902,-13.43019 -0.0019,-0.002 -0.0038,-0.005 -0.0057,-0.007 a 20.386345,20.386345 0 0 0 -0.270784,-0.30437 l -5.17e-4,-5.2e-4 a 20.386345,20.386345 0 0 0 -0.703833,-0.74052 l -0.0021,0.002 C 50.60494,91.22528 45.749032,88.98296 40.37389,88.81931 v -2.48512 z m 0.631486,3.74034 c 5.286099,0 10.068955,2.13451 13.536125,5.5888 L 26.274023,122.9044 c -3.524049,-3.47624 -5.707662,-8.30756 -5.707662,-13.65395 0,-10.598 8.577573,-19.17557 19.175574,-19.17557 z"/></g></svg>