<svg width="53.710415mm" height="53.710415mm" viewBox="0 0 53.710415 53.710415" version="1.1" id="svg71723" xmlns="http://www.w3.org/2000/svg"><g id="layer1" transform="translate(-35.596405,-83.854469)"><g fill="none" id="g50898" transform="matrix(0.26458333,0,0,0.26458333,35.99328,84.251344)"><g stroke="#999999" stroke-width="3" id="g50892"><path d="M 0,16 V 0 h 16" id="path50884"/><path d="M 200,16 V 0 h -16" id="path50886"/><path d="m 0,184 v 16 h 16" id="path50888"/><path d="m 200,184 v 16 h -16" id="path50890"/></g></g><path id="path71677" style="color:#000000;display:inline;fill:#000000" d="m 77.458452,89.701654 v 4.53615 h -5.344376 v -4.49326 h -2.742985 v 4.49326 H 64.02103 v -4.30206 h -2.74299 v 4.35994 c -1.92993,0.16259 -3.76104,0.66684 -5.43274,1.45263 l -2.17816,-3.7729 -2.37557,1.37149 2.18126,3.77807 c -1.54343,1.08308 -2.8851,2.43271 -3.95945,3.982696 l -3.79305,-2.189526 -1.37149,2.375556 3.80184,2.1947 c -0.77246,1.66859 -1.26576,3.49369 -1.41956,5.41621 h -4.42195 v 2.74298 h 4.43539 c 0.17114,1.91255 0.67766,3.72688 1.46141,5.38366 l -3.85713,2.22725 1.37149,2.37505 3.86747,-2.23294 c 1.0763,1.52567 2.41407,2.85282 3.94808,3.91811 l -2.24431,3.88658 2.37557,1.37149 2.24792,-3.89382 c 1.65288,0.76703 3.45978,1.25978 5.36298,1.42007 v 4.34547 h -16.1215 v 1.26918 h 37.384806 v -1.26918 h -2.339909 v -4.28707 h 2.392619 v -1.55495 H 69.515268 c 5.372287,-2.57057 9.0873,-8.05792 9.0873,-14.40584 0,-6.34833 -3.715485,-11.837466 -9.088334,-14.408416 h 13.079822 v -1.55443 h -2.392619 v -4.53615 z m -14.816668,6.09058 h 2.926438 c 6.719642,1.35501 11.770858,7.286116 11.770858,14.408416 0,7.1223 -5.05122,13.05122 -11.770858,14.40584 h -2.926438 c -7.995044,0 -14.408424,-6.4108 -14.408424,-14.40584 0,-7.99504 6.41338,-14.408416 14.408424,-14.408416 z m -5.2e-4,11.343496 c -1.696854,0 -3.093864,1.37585 -3.093864,3.06441 0,1.68857 1.39701,3.06286 3.093864,3.06286 1.696866,0 3.093356,-1.37429 3.093356,-3.06286 0,-1.68856 -1.39649,-3.06441 -3.093356,-3.06441 z m 0,1.26555 c 1.021662,0 1.8278,0.80251 1.8278,1.79886 0,0.99636 -0.806138,1.79679 -1.8278,1.79679 -1.021644,0 -1.828314,-0.80043 -1.828314,-1.79679 0,-0.99635 0.80667,-1.79886 1.828314,-1.79886 z m 1.379766,17.76016 h 5.350061 v 4.28707 H 64.02103 Z m 8.093046,0 h 5.344376 v 4.28707 h -5.344376 z"/></g></svg>