<svg width="53.710415mm" height="53.710415mm" viewBox="0 0 53.710415 53.710415" version="1.1" id="svg3600" xmlns="http://www.w3.org/2000/svg"><g id="layer1" transform="translate(-22.70215,-117.34294)"><g fill="none" stroke="#999999" stroke-width="3" id="g160" transform="matrix(0.26458333,0,0,0.26458333,23.099025,117.73981)"><path d="M 0,16 V 0 h 16" id="path152"/><path d="M 200,16 V 0 h -16" id="path154"/><path d="m 0,184 v 16 h 16" id="path156"/><path d="m 200,184 v 16 h -16" id="path158"/></g><path id="path3501" style="color:#000000;fill:#000000;fill-opacity:1" d="m 55.235047,127.27721 -0.611332,1.03301 7.391797,4.40697 H 31.50988 v 1.19889 h 30.505115 l -7.241418,4.21318 0.611332,1.03301 10.029879,-5.84202 z m 11.094413,5.19865 v 17.6382 l -4.213179,-7.24142 -1.033011,0.61133 5.84202,10.02988 6.043043,-10.17974 -1.033013,-0.61133 -4.406965,7.3918 v -17.63872 z m -34.341056,2.39313 -5.842021,10.02988 1.033012,0.61134 4.21318,-7.24142 v 17.6382 h 1.198893 v -17.63872 l 4.406966,7.3918 1.033012,-0.61133 z m 11.848889,14.36502 -10.17974,6.04304 10.02988,5.84202 0.611332,-1.03301 -7.24142,-4.21318 H 67.56246 v -1.19889 H 37.056829 l 7.391797,-4.40697 z"/></g></svg>