<svg width="53.710415mm" height="53.710415mm" viewBox="0 0 53.710415 53.710415" version="1.1" id="svg64584" xmlns="http://www.w3.org/2000/svg"><g id="layer1" transform="translate(-26.725437,-90.241566)"><g fill="none" id="g50898" transform="matrix(0.26458333,0,0,0.26458333,27.122312,90.638441)" style="display:inline"><g stroke="#999999" stroke-width="3" id="g50892"><path d="M 0,16 V 0 h 16" id="path50884"/><path d="M 200,16 V 0 h -16" id="path50886"/><path d="m 0,184 v 16 h 16" id="path50888"/><path d="m 200,184 v 16 h -16" id="path50890"/></g></g><path id="path63940" style="color:#000000;fill:#000000" d="m 52.716105,96.718688 c -11.24676,0 -20.37706,9.132372 -20.37706,20.379122 0,11.24675 9.1303,20.37705 20.37706,20.37705 7.89683,0 14.749669,-4.50171 18.131705,-11.07633 h 3.974435 v -1.26349 h -3.379122 c 1.06104,-2.46657 1.650028,-5.18356 1.650028,-8.03723 0,-2.85425 -0.589099,-5.57163 -1.650545,-8.03879 h 3.379639 v -1.264 H 70.846777 C 67.464443,101.22072 60.612265,96.718688 52.716105,96.718688 Z m 0,1.26607 c 7.18464,0 13.436643,3.956242 16.701819,9.810262 H 43.833955 v 1.264 h 0.04806 l 15.24506,8.0331 -15.22181,8.04292 h -0.07131 v 1.26349 h 25.585002 c -3.264925,5.85433 -9.517552,9.81077 -16.702852,9.81077 -10.5631,0 -19.11357,-8.54839 -19.11357,-19.11149 0,-10.5631 8.55047,-19.113052 19.11357,-19.113052 z m -6.01772,11.074262 h 23.363944 c 1.133153,2.44337 1.766817,5.16623 1.766817,8.03879 0,2.87198 -0.633068,5.59446 -1.765784,8.03723 H 46.766595 l 15.04766,-8.04705 z"/></g></svg>