<svg width="53.710415mm" height="53.710415mm" viewBox="0 0 53.710415 53.710415" version="1.1" id="svg9434" xmlns="http://www.w3.org/2000/svg"><g id="layer1" transform="translate(-13.410145,-81.207364)"><g fill="none" stroke="#999999" stroke-width="3" id="g160" transform="matrix(0.26458333,0,0,0.26458333,13.80702,81.604239)"><path d="M 0,16 V 0 h 16" id="path152"/><path d="M 200,16 V 0 h -16" id="path154"/><path d="m 0,184 v 16 h 16" id="path156"/><path d="m 200,184 v 16 h -16" id="path158"/></g><path id="path9348" style="color:#000000;fill:#000000;fill-opacity:1;-inkscape-stroke:none" d="m 53.57669,85.833699 -3.65818,6.3376 4.23334,4.23333 1.17357,1.17357 6.33656,-3.65972 -0.63303,-1.09399 -5.49476,3.17242 -0.48782,-0.48731 -3.54656,-3.54656 3.1719,-5.49527 z m -4.53513,8.95449 -17.64336,13.323221 0.76377,1.01028 17.64182,-13.325291 z m 3.32745,3.37137 -7.75612,11.286141 1.04077,0.71572 7.75766,-11.285101 z m -10.31462,11.926411 -1.22266,0.32814 2.76934,10.33012 h -4.29948 l -2.84479,-10.6133 -1.22059,0.32814 2.75538,10.28516 h -3.48195 l -0.10181,0.50798 -0.68574,3.37499 H 18.86873 v 5.66425 h 31.29525 l -2.55695,-9.54722 H 44.909 Z m -6.50968,11.92382 h 11.09183 l 1.88051,7.01611 H 20.13429 v -3.13521 h 14.62339 z"/></g></svg>