<svg width="53.710415mm" height="53.710415mm" viewBox="0 0 53.710415 53.710415" version="1.1" id="svg52555" xmlns="http://www.w3.org/2000/svg"><g id="layer1" transform="translate(-65.402857,-139.20931)"><g fill="none" id="g50898" transform="matrix(0.26458333,0,0,0.26458333,65.799732,139.60618)"><g stroke="#999999" stroke-width="3" id="g50892"><path d="M 0,16 V 0 h 16" id="path50884"/><path d="M 200,16 V 0 h -16" id="path50886"/><path d="m 0,184 v 16 h 16" id="path50888"/><path d="m 200,184 v 16 h -16" id="path50890"/></g></g><path id="path51100" style="color:#000000;fill:#000000;stroke-width:0.264583;-inkscape-stroke:none" d="m 84.863169,142.61582 c -1.139875,0 -2.077392,0.93751 -2.077392,2.07739 V 180.213 a 4.883886,4.883886 0 0 0 -2.806549,4.41627 4.883886,4.883886 0 0 0 4.883941,4.88394 4.883886,4.883886 0 0 0 4.883938,-4.88394 4.883886,4.883886 0 0 0 -2.806547,-4.41936 v -7.35511 h 16.50442 v -1.27021 h -1.80299 l -0.0734,-12.1021 h 2.96829 l -5.667353,-5.47719 -5.559866,5.47719 h 2.920235 v 12.1021 H 86.94056 v -26.89138 c 0,-1.13988 -0.937521,-2.07739 -2.077391,-2.07739 z m 0,1.26969 c 0.458264,0 0.807185,0.34944 0.807185,0.8077 v 26.89138 h -1.614371 v -26.89138 c 0,-0.45826 0.348922,-0.8077 0.807186,-0.8077 z m 14.013612,11.62254 2.999819,2.89905 h -1.3901 l 0.0796,13.17749 H 97.305302 V 158.4071 H 95.93381 Z"/></g></svg>