<svg width="53.710415mm" height="53.710415mm" viewBox="0 0 53.710415 53.710415" version="1.1" id="svg1138" xmlns="http://www.w3.org/2000/svg"><g id="layer1" transform="translate(-1.886727,-81.725437)"><g fill="none" id="g50898" transform="matrix(0.26458333,0,0,0.26458333,2.283602,82.122312)" style="display:inline"><g stroke="#999999" stroke-width="3" id="g50892"><path d="M 0,16 V 0 h 16" id="path50884"/><path d="M 200,16 V 0 h -16" id="path50886"/><path d="m 0,184 v 16 h 16" id="path50888"/><path d="m 200,184 v 16 h -16" id="path50890"/></g></g><path id="path313" style="color:#000000;fill:#000000;-inkscape-stroke:none" d="m 28.742968,88.251652 c -11.219796,0 -20.330025,9.10816 -20.330025,20.327958 0,11.21979 9.110229,20.33003 20.330025,20.33003 11.219796,0 20.327959,-9.11024 20.327959,-20.33003 0,-11.219798 -9.108163,-20.327958 -20.327959,-20.327958 z m -0.896069,1.28726 5.17e-4,5.2e-4 -18.14773,18.147728 C 10.151494,97.863192 18.02331,89.992442 27.846899,89.538912 Z m 1.790588,0 c 9.823838,0.45298 17.694722,8.32363 18.146696,18.147728 L 29.636454,89.539432 Z m -0.263549,1.52601 18.409729,18.410238 c -0.45729,9.91075 -8.464257,17.83464 -18.409729,18.15755 z m -1.263489,5.2e-4 v 36.567268 c -9.944724,-0.3236 -17.952622,-8.24699 -18.410246,-18.15703 z"/></g></svg>