<svg width="53.710415mm" height="53.710415mm" viewBox="0 0 53.710415 53.710415" version="1.1" id="svg9446" xmlns="http://www.w3.org/2000/svg"><g id="layer1" transform="translate(-92.220111,-140.40088)"><g fill="none" id="g50898" transform="matrix(0.26458333,0,0,0.26458333,92.616986,140.79775)" style="display:inline"><g stroke="#999999" stroke-width="3" id="g50892"><path d="M 0,16 V 0 h 16" id="path50884"/><path d="M 200,16 V 0 h -16" id="path50886"/><path d="m 0,184 v 16 h 16" id="path50888"/><path d="m 200,184 v 16 h -16" id="path50890"/></g></g><path id="path33803" style="color:#000000;fill:#000000;stroke-width:1.02656;stroke-linecap:round" d="m 119.07533,145.43235 c -1.55585,-1.1e-4 -2.81723,1.26105 -2.8174,2.81688 -1.1e-4,1.55605 1.26135,2.81751 2.8174,2.8174 1.55585,-1.7e-4 2.81699,-1.26155 2.81688,-2.8174 -1.7e-4,-1.55563 -1.26123,-2.81671 -2.81688,-2.81688 z m -15.30966,3.34915 v 1.29915 h 6.84712 c -8.40639,3.82312 -13.272444,12.90215 -11.645804,22.12733 1.719874,9.75385 10.204024,16.87184 20.108344,16.87184 9.90433,0 18.38847,-7.11799 20.10833,-16.87184 1.62666,-9.22518 -3.23941,-18.30421 -11.6458,-22.12733 h 6.84609 V 148.7815 H 123.1805 l 5.56504,9.64024 1.12499,-0.65009 -4.03593,-6.99234 c 8.58878,3.24518 13.66776,12.13833 12.06955,21.20233 -1.61193,9.14173 -9.54607,15.79903 -18.82882,15.79903 -9.28274,0 -17.21741,-6.65731 -18.82935,-15.79903 -1.598274,-9.06432 3.47975,-17.95743 12.06904,-21.20233 l -4.03852,6.99234 1.12552,0.65009 5.56555,-9.64024 z m 5.90971,14.7407 v 2.34715 h -3.83542 v 5.53093 h 3.83542 v 3.00033 h -3.83542 v 1.26555 h 3.83542 v 2.34611 h 1.26763 v -2.34611 h 7.49773 v 2.34611 h 1.26762 v -2.34611 h 7.50032 v 2.34611 h 1.26556 v -2.34611 h 3.83646 v -5.53144 h -3.83646 v -2.99982 h 3.83646 v -1.26555 h -3.83646 v -2.34715 h -1.26556 v 2.34715 h -7.50032 v -2.34715 h -1.26762 v 2.34715 h -7.49773 v -2.34715 z m -2.56986,3.6127 h 2.56986 v 2.99982 h -2.56986 z m 3.83749,0 h 7.49773 v 2.99982 h -7.49773 z m 8.76535,0 h 7.50032 v 2.99982 h -7.50032 z m -8.76535,4.26538 h 7.49773 v 3.00033 h -7.49773 z m 8.76535,0 h 7.50032 v 3.00033 h -7.50032 z m 8.76588,0 h 2.5709 v 3.00033 h -2.5709 z"/></g></svg>