<svg width="53.710415mm" height="53.710415mm" viewBox="0 0 53.710415 53.710415" version="1.1" id="svg5429" xmlns="http://www.w3.org/2000/svg"><g id="layer1" transform="translate(-103.23286,-88.434479)"><g fill="none" id="g50898" transform="matrix(0.26458333,0,0,0.26458333,103.62973,88.831354)"><g stroke="#999999" stroke-width="3" id="g50892"><path d="M 0,16 V 0 h 16" id="path50884"/><path d="M 200,16 V 0 h -16" id="path50886"/><path d="m 0,184 v 16 h 16" id="path50888"/><path d="m 200,184 v 16 h -16" id="path50890"/></g></g><path id="path3975" style="fill:#000000;stroke-width:0.334698" d="m 108.01577,97.121544 v 1.26401 h 10.39781 v -1.26401 z m 28.31558,2.45929 -3.89434,2.120276 -8.99582,-0.22634 -1.56787,0.85369 4.68551,8.60619 1.11001,-0.60461 -4.08037,-7.49463 0.15916,-0.0863 8.99531,0.22427 4.19251,-2.28306 z m 5.55366,0.656286 1.70534,3.13159 -8.30493,4.52117 2.67219,4.90823 8.30441,-4.52117 1.79471,3.29592 4.10364,-9.58236 z m 2.21124,1.7601 6.13089,1.04593 -2.44893,5.71748 -1.1648,-2.13992 -8.14111,4.43125 -1.44177,-2.64893 8.13904,-4.43436 z m -36.08048,2.13888 v 1.26401 h 10.39781 v -1.26401 z m 0,7.01404 v 1.26453 h 10.39781 v -1.26453 z m 21.86843,0.44546 -0.89349,0.894 3.98477,3.98477 0.89349,-0.894 z m 15.10553,3.88865 -4.19302,2.28255 -4.69274,7.6786 -0.15916,0.0863 -4.08141,-7.49619 -1.11001,0.6041 4.68551,8.60619 1.56786,-0.85369 4.69377,-7.67654 3.89434,-2.11976 z m -20.07164,2.01486 -0.632,1.09451 4.88032,2.81791 0.632,-1.0945 z m -16.90233,0.66559 v 1.26401 h 10.39782 v -1.26401 z m 13.81363,6.43992 -0.32763,1.22111 5.4436,1.45831 0.32711,-1.22059 z m -13.81363,0.57464 v 1.26401 h 10.39782 v -1.26401 z m 0,7.01456 v 1.26401 h 10.39782 v -1.26401 z m 12.56823,0 v 1.26401 h 5.63531 v -1.26401 z"/></g></svg>