<svg width="53.710415mm" height="53.710415mm" viewBox="0 0 53.710415 53.710415" version="1.1" id="svg30215" xmlns="http://www.w3.org/2000/svg"><g id="layer1" transform="translate(-95.209308,-154.11254)"><g fill="none" id="g50898" transform="matrix(0.26458333,0,0,0.26458333,95.606183,154.50941)" style="display:inline"><g stroke="#999999" stroke-width="3" id="g50892"><path d="M 0,16 V 0 h 16" id="path50884"/><path d="M 200,16 V 0 h -16" id="path50886"/><path d="m 0,184 v 16 h 16" id="path50888"/><path d="m 200,184 v 16 h -16" id="path50890"/></g></g><path id="path9325-3" style="color:#000000;fill:#000000;stroke-width:1.03287" d="m 113.63015,158.99544 c -5.97131,0 -10.82415,4.85281 -10.82415,10.82414 0,5.97131 4.85284,10.82622 10.82415,10.82622 5.97132,0 10.82621,-4.85491 10.82621,-10.82622 0,-5.97133 -4.85489,-10.82414 -10.82621,-10.82414 z m 0,1.26349 c 5.28767,0 9.56065,4.27297 9.56065,9.56065 0,5.28766 -4.27298,9.56066 -9.56065,9.56066 -5.28766,0 -9.56066,-4.273 -9.56066,-9.56066 0,-5.28768 4.273,-9.56065 9.56066,-9.56065 z m 0,6.90035 c -1.46254,0 -2.66186,1.19777 -2.66186,2.6603 0,1.46254 1.19932,2.66237 2.66186,2.66237 1.46254,0 2.66237,-1.19983 2.66237,-2.66237 0,-1.46253 -1.19983,-2.6603 -2.66237,-2.6603 z m 0,1.26401 c 0.77889,0 1.39681,0.61742 1.39681,1.39629 0,0.77889 -0.61792,1.39837 -1.39681,1.39837 -0.77888,0 -1.3963,-0.61948 -1.3963,-1.39837 0,-0.77887 0.61742,-1.39629 1.3963,-1.39629 z m 12.92169,0.74672 v 1.26607 h 14.77119 v -1.26607 z m 7.38663,1.50844 -5.95209,7.00629 h 3.11919 v 6.68796 h 5.6658 v -6.68796 h 3.11712 z m -5.2e-4,1.96835 3.21841,3.77393 h -1.65003 v 6.68797 h -3.13676 v -6.68797 h -1.65003 z m -20.3078,8.64289 c -5.97131,0 -10.82415,4.85283 -10.82415,10.82414 0,5.97134 4.85284,10.82621 10.82415,10.82621 5.97132,0 10.82621,-4.85487 10.82621,-10.82621 0,-5.97131 -4.85489,-10.82414 -10.82621,-10.82414 z m 0,1.26348 c 5.28767,0 9.56065,4.273 9.56065,9.56066 0,5.28768 -4.27298,9.56066 -9.56065,9.56066 -5.28766,0 -9.56066,-4.27298 -9.56066,-9.56066 0,-5.28766 4.273,-9.56066 9.56066,-9.56066 z m 0,6.90036 c -1.46253,0 -2.66186,1.19779 -2.66186,2.6603 0,1.46254 1.19933,2.66237 2.66186,2.66237 1.46254,0 2.66237,-1.19983 2.66237,-2.66237 0,-1.46251 -1.19983,-2.6603 -2.66237,-2.6603 z m 0,1.264 c 0.77889,0 1.39681,0.61743 1.39681,1.3963 0,0.77889 -0.61792,1.39837 -1.39681,1.39837 -0.77888,0 -1.3963,-0.61948 -1.3963,-1.39837 0,-0.77887 0.61742,-1.3963 1.3963,-1.3963 z"/></g></svg>