<svg width="53.710415mm" height="53.710415mm" viewBox="0 0 53.710415 53.710415" version="1.1" id="svg15909" xmlns="http://www.w3.org/2000/svg"><g id="layer1" transform="translate(16.18661,-113.55731)"><g fill="none" stroke="#999999" stroke-width="3" id="g160" transform="matrix(0.26458333,0,0,0.26458333,-15.789735,113.95418)"><path d="M 0,16 V 0 h 16" id="path152"/><path d="M 200,16 V 0 h -16" id="path154"/><path d="m 0,184 v 16 h 16" id="path156"/><path d="m 200,184 v 16 h -16" id="path158"/></g><path id="path15333" style="color:#000000;fill:#000000" d="m -8.943642,134.90484 -6.359302,11.01535 h 12.62662 v -1.26556 h -9.325529 c 13.505421,-9.83287 31.838386,-9.83307 45.344006,0 h -9.32863 v 1.26556 h 12.62662 l -6.3593,-11.01535 -1.09554,0.63252 4.56561,7.90856 c -6.89851,-4.92223 -14.99085,-7.38544 -23.083349,-7.38508 -8.092937,3.8e-4 -16.184681,2.46379 -23.082829,7.38715 l 4.567163,-7.91063 z"/></g></svg>