<svg width="53.710415mm" height="53.710415mm" viewBox="0 0 53.710415 53.710415" version="1.1" id="svg8229" xml:space="preserve" xmlns="http://www.w3.org/2000/svg"><g id="layer1" transform="translate(-66.753135,-75.356843)"><g fill="none" stroke="#999999" stroke-width="3" id="g160" transform="matrix(0.26458333,0,0,0.26458333,67.15001,75.753718)"><path d="M 0,16 V 0 h 16" id="path152"/><path d="M 200,16 V 0 h -16" id="path154"/><path d="m 0,184 v 16 h 16" id="path156"/><path d="m 200,184 v 16 h -16" id="path158"/></g><path id="path8405" style="color:#000000;fill:#000000" d="m 95.733136,84.058626 c -4.094866,-0.03911 -8.214927,1.29901 -11.608594,4.05454 l -2.986898,-2.98794 -0.894519,0.89452 7.330302,7.33186 0.894519,-0.89452 -3.443201,-3.44424 c 6.854225,-5.47994 16.796085,-4.80795 22.847185,1.62781 6.16995,6.56216 6.11115,16.793034 -0.13436,23.283324 -6.24551,6.4903 -16.467738,6.94263 -23.262145,1.0294 -6.311842,-5.49326 -7.589827,-14.67254 -3.277319,-21.626064 v 6.725694 h 1.266072 V 89.797296 l -8.965344,5.1754 0.633036,1.09605 6.042526,-3.48919 c -4.688998,7.477654 -3.328603,17.410964 3.471105,23.328804 7.293224,6.34736 18.298059,5.86143 25.002089,-1.10536 6.70403,-6.96678 6.76762,-17.983474 0.1447,-25.027404 -3.31147,-3.52197 -7.71678,-5.4383 -12.215278,-5.68958 -0.281156,-0.0157 -0.562236,-0.0247 -0.843876,-0.02739 z"/></g></svg>