<svg width="53.710415mm" height="53.710415mm" viewBox="0 0 53.710415 53.710415" version="1.1" id="svg3151" xmlns="http://www.w3.org/2000/svg"><g id="layer1" transform="translate(-60.080276,-51.918986)"><g fill="none" id="g50898" transform="matrix(0.26458333,0,0,0.26458333,60.477151,52.315861)"><g stroke="#999999" stroke-width="3" id="g50892"><path d="M 0,16 V 0 h 16" id="path50884"/><path d="M 200,16 V 0 h -16" id="path50886"/><path d="m 0,184 v 16 h 16" id="path50888"/><path d="m 200,184 v 16 h -16" id="path50890"/></g></g><path id="path2313" style="color:#000000;fill:#000000;-inkscape-stroke:none" d="m 69.411488,61.462071 v 6.30401 h 2.791045 v -6.30401 z m 32.256942,0 v 6.30401 h 2.79105 v -6.30401 z m -27.999837,1.9575 v 1.45676 h 26.533267 v -1.45676 z m 0.345715,5.52938 v 1.43764 h 25.843901 v -1.43764 z m -1.90531,0.51935 -2.696476,0.72244 3.919141,14.62546 2.695959,-0.72244 z m 29.652972,0 -3.918625,14.62546 2.695965,0.72244 3.91913,-14.62546 z m -26.28987,5.13664 v 1.35392 h 22.927283 v -1.35392 z m 1.270724,5.62136 v 1.27744 h 20.38687 v -1.27744 z m -4.950602,7.68429 -7.08794,4.0721 7.085873,4.10362 0.632519,-1.09347 -4.075203,-2.36161 h 2.749703 7.899776 2.749703 l -4.075204,2.36161 0.63252,1.09347 7.085872,-4.10362 -7.087939,-4.0721 -0.628902,1.09554 4.105175,2.35954 H 78.99695 71.097174 68.315948 l 4.105176,-2.35954 z m 23.776843,0 -7.08794,4.0721 7.085873,4.10362 0.632519,-1.09347 -4.075203,-2.36161 h 2.749703 7.899773 2.74971 l -4.07521,2.36161 0.63252,1.09347 7.08588,-4.10362 -7.08795,-4.0721 -0.6289,1.09554 4.10518,2.35954 h -2.78123 -7.899773 -2.781226 l 4.105176,-2.35954 z"/></g></svg>