<svg width="53.710415mm" height="53.710415mm" viewBox="0 0 53.710415 53.710415" version="1.1" id="svg19710" xmlns="http://www.w3.org/2000/svg"><g id="layer1" transform="translate(-58.149427,-143.15407)"><g fill="none" id="g50898" transform="matrix(0.26458333,0,0,0.26458333,58.546302,143.55094)"><g stroke="#999999" stroke-width="3" id="g50892"><path d="M 0,16 V 0 h 16" id="path50884"/><path d="M 200,16 V 0 h -16" id="path50886"/><path d="m 0,184 v 16 h 16" id="path50888"/><path d="m 200,184 v 16 h -16" id="path50890"/></g></g><path id="path19590-4-7" style="fill:#000000;stroke-width:0.658271" d="m 75.6047,149.42965 v 21.50152 c -2.9092,0.31634 -5.1847,2.79079 -5.1847,5.78208 0,3.20471 2.61147,5.81618 5.81618,5.81618 3.20472,0 5.8167,-2.61147 5.8167,-5.81618 0,-2.99092 -2.27498,-5.46473 -5.18366,-5.78156 v -21.50204 z m 0.63148,22.73297 c 2.52106,0 4.55115,2.02956 4.55115,4.55063 0,2.52105 -2.03009,4.55063 -4.55115,4.55063 -2.52105,0 -4.55062,-2.02958 -4.55062,-4.55063 0,-2.52107 2.02957,-4.55063 4.55062,-4.55063 z m 20.22047,7.53753 -6.92102,3.99614 H 62.616855 v 2.89646 H 89.53563 l 6.92102,3.99614 0.63252,-1.09503 -5.02501,-2.90111 h 15.32826 v -2.89646 H 92.06467 l 5.0245,-2.90112 z"/></g></svg>