<svg width="53.710415mm" height="53.710415mm" viewBox="0 0 53.710415 53.710415" version="1.1" id="svg4629" xmlns="http://www.w3.org/2000/svg"><g id="layer1" transform="translate(-97.33834,-130.69318)"><g fill="none" id="g50898" transform="matrix(0.26458333,0,0,0.26458333,97.735215,131.09005)" style="display:inline"><g stroke="#999999" stroke-width="3" id="g50892"><path d="M 0,16 V 0 h 16" id="path50884"/><path d="M 200,16 V 0 h -16" id="path50886"/><path d="m 0,184 v 16 h 16" id="path50888"/><path d="m 200,184 v 16 h -16" id="path50890"/></g></g><path id="path4595" style="color:#000000;fill:#000000;stroke-width:0.994711" d="m 141.04005,138.68623 -31.21203,5.1e-4 c -1.70086,0 -3.08974,1.37478 -3.08974,3.0577 v 0.0217 c 0,1.68291 1.38888,3.05718 3.08974,3.05718 h 0.16433 v 5.2e-4 h 28.5662 c 1.02195,0 1.82626,0.79389 1.82626,1.80505 v 0.0212 c 0,1.01114 -0.80431,1.80661 -1.82626,1.80661 h -0.16433 v -0.002 h -28.5662 c -1.70086,0 -3.08974,1.37426 -3.08974,3.05718 v 0.0212 c 0,1.68294 1.38888,3.05769 3.08974,3.05769 h 0.16433 v 0.001 h 31.48851 v -1.25212 h -31.48851 v 5.1e-4 h -0.16433 c -1.02194,0 -1.82625,-0.79596 -1.82625,-1.80712 v -0.0212 c 0,-1.01115 0.80431,-1.80454 1.82625,-1.80454 h 28.5662 v -5.2e-4 h 0.16433 c 1.70087,0 3.09026,-1.37475 3.09026,-3.05769 v -0.0212 c 0,-1.68293 -1.38939,-3.05769 -3.09026,-3.05769 h -28.5662 v 0.001 h -0.16433 c -1.02194,0 -1.82625,-0.79596 -1.82625,-1.80713 v -0.0207 c 0,-1.01116 0.80431,-1.80505 1.82625,-1.80505 h 31.21203 z m -38.73819,18.29397 v 2.72852 h 43.78337 v -2.72852 z m 21.25968,4.03593 v 11.80445 l -3.16776,-5.48804 -1.09554,0.63304 4.87464,8.44496 4.91596,-8.51369 -1.09553,-0.63252 -3.16776,5.48493 v -11.73313 z"/></g></svg>