<svg width="53.710415mm" height="53.710415mm" viewBox="0 0 53.710415 53.710415" version="1.1" id="svg16621" xmlns="http://www.w3.org/2000/svg"><g id="layer1" transform="translate(-35.435638,-113.55731)"><g fill="none" stroke="#999999" stroke-width="3" id="g160" transform="matrix(0.26458333,0,0,0.26458333,35.832513,113.95418)"><path d="M 0,16 V 0 h 16" id="path152"/><path d="M 200,16 V 0 h -16" id="path154"/><path d="m 0,184 v 16 h 16" id="path156"/><path d="m 200,184 v 16 h -16" id="path158"/></g><path id="path16222" style="color:#000000;fill:#000000" d="m 75.336561,130.97717 -1.06815,0.67954 5.02605,7.88117 c -4.70069,-2.22495 -9.7052,-3.47432 -14.737087,-3.77186 -9.58454,-0.56673 -19.264596,2.32034 -27.11514,8.49819 l 0.781347,0.99374 c 11.718042,-9.22132 27.63523,-10.87092 40.94634,-4.37545 l -9.7963,0.49506 0.0625,1.26349 12.92014,-0.65422 z m 10.63863,4.59558 -5.87096,13.78107 1.16427,0.49403 5.87096,-13.77901 z"/></g></svg>