<svg width="53.710415mm" height="53.710415mm" viewBox="0 0 53.710415 53.710415" version="1.1" id="svg1516" xmlns="http://www.w3.org/2000/svg"><g id="layer1" transform="translate(-73.564147,-90.951244)"><g fill="none" id="g50898" transform="matrix(0.26458333,0,0,0.26458333,73.961022,91.348119)" style="display:inline"><g stroke="#999999" stroke-width="3" id="g50892"><path d="M 0,16 V 0 h 16" id="path50884"/><path d="M 200,16 V 0 h -16" id="path50886"/><path d="m 0,184 v 16 h 16" id="path50888"/><path d="m 200,184 v 16 h -16" id="path50890"/></g></g><path id="path865" style="stroke-width:1.42798" d="m 82.422524,99.757169 v 14.558801 h 1.265555 v -13.2948 H 108.7992 v 13.2948 h 1.26349 V 99.757169 Z m 6.263183,3.759981 a 1.0201613,1.0201613 0 0 0 -1.020093,1.02009 1.0201613,1.0201613 0 0 0 1.020093,1.02009 1.0201613,1.0201613 0 0 0 1.020093,-1.02009 1.0201613,1.0201613 0 0 0 -1.020093,-1.02009 z m 16.519403,0.22634 a 1.0201613,1.0201613 0 0 0 -1.02009,1.02009 1.0201613,1.0201613 0 0 0 1.02009,1.02009 1.0201613,1.0201613 0 0 0 1.02009,-1.02009 1.0201613,1.0201613 0 0 0 -1.02009,-1.02009 z m -3.9672,0.87023 a 1.0201613,1.0201613 0 0 0 -1.02009,1.02009 1.0201613,1.0201613 0 0 0 1.02009,1.02009 1.0201613,1.0201613 0 0 0 1.02009,-1.02009 1.0201613,1.0201613 0 0 0 -1.02009,-1.02009 z m 12.13776,1.00356 a 1.0201613,1.0201613 0 0 0 -1.02061,1.02009 1.0201613,1.0201613 0 0 0 1.02061,1.02009 1.0201613,1.0201613 0 0 0 1.02009,-1.02009 1.0201613,1.0201613 0 0 0 -1.02009,-1.02009 z m -14.843017,1.41128 a 1.0201613,1.0201613 0 0 0 -1.02009,1.02009 1.0201613,1.0201613 0 0 0 1.02009,1.02009 1.0201613,1.0201613 0 0 0 1.02009,-1.02009 1.0201613,1.0201613 0 0 0 -1.02009,-1.02009 z m -11.267531,0.0155 a 1.0201613,1.0201613 0 0 0 -1.020094,1.02061 1.0201613,1.0201613 0 0 0 1.020094,1.02009 1.0201613,1.0201613 0 0 0 1.020093,-1.02009 1.0201613,1.0201613 0 0 0 -1.020093,-1.02061 z m 26.612328,2.88561 a 1.0201613,1.0201613 0 0 0 -1.0201,1.0201 1.0201613,1.0201613 0 0 0 1.0201,1.02009 1.0201613,1.0201613 0 0 0 1.02009,-1.02009 1.0201613,1.0201613 0 0 0 -1.02009,-1.0201 z m -25.796874,0.81546 a 1.0201613,1.0201613 0 0 0 -1.020093,1.02009 1.0201613,1.0201613 0 0 0 1.020093,1.02009 1.0201613,1.0201613 0 0 0 1.020093,-1.02009 1.0201613,1.0201613 0 0 0 -1.020093,-1.02009 z m 9.440767,0.57774 a 1.0201613,1.0201613 0 0 0 -1.02009,1.02009 1.0201613,1.0201613 0 0 0 1.02009,1.0201 1.0201613,1.0201613 0 0 0 1.02061,-1.0201 1.0201613,1.0201613 0 0 0 -1.02061,-1.02009 z m 16.829457,1.72961 -0.63252,1.09554 5.24103,3.02566 h -6.64146 v 1.26555 h 6.71794 l -5.31751,3.06028 0.63046,1.09554 8.27959,-4.76353 z m -2.54351,0.82889 a 1.0201613,1.0201613 0 0 0 -1.02009,1.02009 1.0201613,1.0201613 0 0 0 1.02009,1.02061 1.0201613,1.0201613 0 0 0 1.02009,-1.02061 1.0201613,1.0201613 0 0 0 -1.02009,-1.02009 z m -21.625034,0.45475 a 1.0201613,1.0201613 0 0 0 -1.020093,1.02061 1.0201613,1.0201613 0 0 0 1.020093,1.0201 1.0201613,1.0201613 0 0 0 1.020092,-1.0201 1.0201613,1.0201613 0 0 0 -1.020092,-1.02061 z m 9.942024,0.31368 a 1.0201613,1.0201613 0 0 0 -1.020087,1.02009 1.0201613,1.0201613 0 0 0 1.020087,1.02061 1.0201613,1.0201613 0 0 0 1.02009,-1.02061 1.0201613,1.0201613 0 0 0 -1.02009,-1.02009 z m -6.123657,1.5136 a 1.0201613,1.0201613 0 0 0 -1.020089,1.02009 1.0201613,1.0201613 0 0 0 1.020089,1.0201 1.0201613,1.0201613 0 0 0 1.0201,-1.0201 1.0201613,1.0201613 0 0 0 -1.0201,-1.02009 z m 15.219227,0.65061 a 1.0201613,1.0201613 0 0 0 -1.02009,1.02009 1.0201613,1.0201613 0 0 0 1.02009,1.02009 1.0201613,1.0201613 0 0 0 1.02009,-1.02009 1.0201613,1.0201613 0 0 0 -1.02009,-1.02009 z m -31.009473,0.35967 v 1.26555 h 9.667626 v -1.26555 z m 19.287196,0.46353 a 1.0201613,1.0201613 0 0 0 -1.02009,1.0201 1.0201613,1.0201613 0 0 0 1.02009,1.02009 1.0201613,1.0201613 0 0 0 1.02009,-1.02009 1.0201613,1.0201613 0 0 0 -1.02009,-1.0201 z m 7.754557,0.98031 a 1.0201613,1.0201613 0 0 0 -1.02009,1.02009 1.0201613,1.0201613 0 0 0 1.02009,1.02009 1.0201613,1.0201613 0 0 0 1.0201,-1.02009 1.0201613,1.0201613 0 0 0 -1.0201,-1.02009 z m -3.9672,1.92856 a 1.0201613,1.0201613 0 0 0 -1.02009,1.02061 1.0201613,1.0201613 0 0 0 1.02009,1.02009 1.0201613,1.0201613 0 0 0 1.0201,-1.02009 1.0201613,1.0201613 0 0 0 -1.0201,-1.02061 z m -18.862407,0.75086 v 14.5588 h 27.640167 v -14.5588 h -1.26349 v 13.29479 H 83.688078 v -13.29479 z m 29.720147,1.13791 a 1.0201613,1.0201613 0 0 0 -1.02009,1.0201 1.0201613,1.0201613 0 0 0 1.02009,1.02009 1.0201613,1.0201613 0 0 0 1.02009,-1.02009 1.0201613,1.0201613 0 0 0 -1.02009,-1.0201 z m -13.962967,0.79324 a 1.0201613,1.0201613 0 0 0 -1.0201,1.02009 1.0201613,1.0201613 0 0 0 1.0201,1.02009 1.0201613,1.0201613 0 0 0 1.02009,-1.02009 1.0201613,1.0201613 0 0 0 -1.02009,-1.02009 z m 16.194357,2.42776 a 1.0201613,1.0201613 0 0 0 -1.02009,1.02009 1.0201613,1.0201613 0 0 0 1.02009,1.02009 1.0201613,1.0201613 0 0 0 1.02009,-1.02009 1.0201613,1.0201613 0 0 0 -1.02009,-1.02009 z m -18.656227,0.94361 a 1.0201613,1.0201613 0 0 0 -1.02009,1.02009 1.0201613,1.0201613 0 0 0 1.02009,1.02009 1.0201613,1.0201613 0 0 0 1.0201,-1.02009 1.0201613,1.0201613 0 0 0 -1.0201,-1.02009 z m -1.03508,3.70106 a 1.0201613,1.0201613 0 0 0 -1.02009,1.0201 1.0201613,1.0201613 0 0 0 1.02009,1.02009 1.0201613,1.0201613 0 0 0 1.0201,-1.02009 1.0201613,1.0201613 0 0 0 -1.0201,-1.0201 z"/></g></svg>