<svg width="53.710415mm" height="53.710415mm" viewBox="0 0 53.710415 53.710415" version="1.1" id="svg9029" xmlns="http://www.w3.org/2000/svg"><g id="layer1" transform="translate(41.048761,-40.564147)"><g fill="none" id="g50898" transform="matrix(-0.26458333,0,0,0.26458333,12.26478,40.961022)"><g stroke="#999999" stroke-width="3" id="g50892"><path d="M 0,16 V 0 h 16" id="path50884"/><path d="M 200,16 V 0 h -16" id="path50886"/><path d="m 0,184 v 16 h 16" id="path50888"/><path d="m 200,184 v 16 h -16" id="path50890"/></g></g><path id="path7781" style="color:#000000;fill:#000000;fill-opacity:1" d="m -23.70899,49.975974 v 1.26556 H 3.34775 v -1.26556 z m -8.07238,5.63273 v 1.26556 h 27.05675 v -1.26556 z m 29.79302,2.08205 -0.63459,1.093988 4.16564,2.4138 h -36.0624 v -2.42775 h -1.26556 v 17.29868 h 1.26556 V 62.464102 H 1.33702 l -3.95789,2.27376 0.63097,1.09554 7.05848,-4.05298 z m 8.12095,0.972028 v 13.60537 h -35.85673 l 3.9579,-2.27376 -0.63097,-1.09554 -7.05848,4.05298 7.05693,4.08968 0.63459,-1.094 -4.16564,-2.4138 H 6.1326 v 2.42776 h 1.26555 v -17.29869 z m -29.88448,19.34611 v 1.26607 H 3.3028 v -1.26607 z m -8.07445,5.58829 v 1.26555 h 27.05675 v -1.26555 z"/></g></svg>