<svg width="53.710415mm" height="53.710415mm" viewBox="0 0 53.710415 53.710415" version="1.1" id="svg1400" xmlns="http://www.w3.org/2000/svg"><g id="layer1" transform="translate(124.08101,-8.628663)"><g fill="none" id="g50898" transform="matrix(0.26458333,0,0,0.26458333,-123.68414,9.025538)"><g stroke="#999999" stroke-width="3" id="g50892"><path d="M 0,16 V 0 h 16" id="path50884"/><path d="M 200,16 V 0 h -16" id="path50886"/><path d="m 0,184 v 16 h 16" id="path50888"/><path d="m 200,184 v 16 h -16" id="path50890"/></g></g><path id="path1111" style="color:#000000;fill:#000000;-inkscape-stroke:none" d="m -83.99535,15.715308 -0.63097,1.09606 6.25285,3.60908 c -7.9723,0 -15.94459,0 -23.91689,0 v 5.1e-4 c -9.58698,0.0286 -17.36328,7.82186 -17.36328,17.41548 0,9.61125 7.80475,17.41599 17.41599,17.41599 9.61125,0 17.41599,-7.80474 17.41599,-17.41599 0,-7.30743 -4.51211,-13.56928 -10.89907,-16.15199 h 17.28111 l -6.19032,3.61322 0.63821,1.09141 9.19375,-5.36505 z m -18.2423,5.96914 c 8.92759,0 16.15044,7.2244 16.15044,16.15199 0,8.92759 -7.22285,16.15043 -16.15044,16.15043 -8.92759,0 -16.1525,-7.22284 -16.1525,-16.15043 0,-8.92759 7.22491,-16.15199 16.1525,-16.15199 z"/></g></svg>