<svg width="53.710415mm" height="53.710415mm" viewBox="0 0 53.710415 53.710415" version="1.1" id="svg21278" xmlns="http://www.w3.org/2000/svg"><g id="layer1" transform="translate(-36.660921,-99.112534)"><g fill="none" id="g50898" transform="matrix(0.26458333,0,0,0.26458333,37.057796,99.509409)"><g stroke="#999999" stroke-width="3" id="g50892"><path d="M 0,16 V 0 h 16" id="path50884"/><path d="M 200,16 V 0 h -16" id="path50886"/><path d="m 0,184 v 16 h 16" id="path50888"/><path d="m 200,184 v 16 h -16" id="path50890"/></g></g><path id="path20071" style="color:#000000;fill:#000000;-inkscape-stroke:none" d="m 53.433808,107.8381 v 36.25929 h 2.615861 V 107.8381 Z m 17.547766,0 v 36.25929 h 2.616378 V 107.8381 Z m -12.34705,3.55224 v 1.27693 h 9.762712 v -1.27693 z m 0,5.57589 v 1.27744 h 9.762712 v -1.27744 z m -12.450919,4.86068 -7.090007,4.08968 0.931726,0.55087 c 0,0 1.502016,0.88857 3.023588,1.77767 0.760789,0.44456 1.527751,0.8891 2.115117,1.22421 0.293681,0.16756 0.541297,0.3073 0.72657,0.40825 0.09264,0.0505 0.168018,0.0908 0.232544,0.12299 0.03226,0.0161 0.06208,0.0298 0.09767,0.045 0.0178,0.008 0.03653,0.0169 0.06821,0.0274 0.01584,0.005 0.03505,0.0107 0.0646,0.0176 0.02954,0.007 0.145096,0.0176 0.146244,0.0176 v -1.26555 c -0.0011,0 0.11318,0.01 0.13901,0.0155 0.02583,0.006 0.03991,0.0104 0.05064,0.014 0.02146,0.007 0.02733,0.011 0.02946,0.0119 0.0042,0.002 -0.0097,-0.004 -0.02946,-0.0134 -0.03958,-0.0198 -0.107643,-0.0567 -0.19327,-0.10335 -0.171254,-0.0933 -0.41542,-0.23144 -0.705383,-0.39688 -0.579927,-0.33087 -1.344361,-0.77303 -2.103231,-1.21646 -0.413243,-0.24148 -0.725076,-0.42485 -1.002523,-0.58808 h 8.008297 v -1.26349 h -8.001062 l 4.124296,-2.37918 z m 34.665069,0 -0.63303,1.09606 4.12429,2.37918 h -8.001066 v 1.26349 h 8.008306 c -0.27745,0.16323 -0.58928,0.3466 -1.00252,0.58808 -0.75887,0.44343 -1.52331,0.88559 -2.10323,1.21646 -0.28997,0.16544 -0.53413,0.30358 -0.70539,0.39688 -0.0856,0.0466 -0.15369,0.0836 -0.19327,0.10335 -0.0198,0.009 -0.0337,0.0154 -0.0295,0.0134 0.002,-9e-4 0.008,-0.005 0.0295,-0.0119 0.0107,-0.004 0.0248,-0.008 0.0506,-0.014 0.0258,-0.005 0.14011,-0.0155 0.13901,-0.0155 v 1.26555 c 10e-4,0 0.11671,-0.0106 0.14625,-0.0176 0.0296,-0.007 0.0487,-0.0126 0.0646,-0.0176 0.0317,-0.0105 0.0504,-0.0194 0.0682,-0.0274 0.0356,-0.0152 0.0654,-0.0289 0.0977,-0.045 0.0645,-0.0322 0.1399,-0.0725 0.23254,-0.12299 0.18527,-0.10095 0.43289,-0.24069 0.72657,-0.40825 0.58737,-0.33511 1.35433,-0.77965 2.11512,-1.22421 1.52157,-0.8891 3.02359,-1.77767 3.02359,-1.77767 l 0.93172,-0.55087 z m -22.21415,0.71366 v 1.27744 h 9.762712 v -1.27744 z m 0,5.57588 v 1.27744 h 9.762712 v -1.27744 z m 0,5.57434 v 1.27744 h 9.762712 v -1.27744 z m 0,5.5764 v 1.27744 h 9.762712 v -1.27744 z"/></g></svg>