<svg width="53.710415mm" height="53.710415mm" viewBox="0 0 53.710415 53.710415" version="1.1" id="svg3809" xmlns="http://www.w3.org/2000/svg"><g id="layer1" transform="translate(-55.822211,-97.693179)"><g fill="none" id="g50898" transform="matrix(0.26458333,0,0,0.26458333,56.219086,98.090054)" style="display:inline"><g stroke="#999999" stroke-width="3" id="g50892"><path d="M 0,16 V 0 h 16" id="path50884"/><path d="M 200,16 V 0 h -16" id="path50886"/><path d="m 0,184 v 16 h 16" id="path50888"/><path d="m 200,184 v 16 h -16" id="path50890"/></g></g><path id="rect3683" style="color:#000000;fill:#000000;stroke-width:0.994711" d="m 99.559334,109.25758 -31.212048,5.2e-4 c -1.700869,0 -3.089734,1.37477 -3.089734,3.05769 v 0.0212 c 0,1.68293 1.388865,3.05718 3.089734,3.05718 h 0.164331 v 10e-4 h 28.566215 c 1.021946,0 1.826245,0.79389 1.826245,1.80506 v 0.0212 c 0,1.01116 -0.804299,1.80661 -1.826245,1.80661 h -0.164331 v -0.002 H 68.347286 c -1.700869,0 -3.089734,1.37424 -3.089734,3.05717 v 0.0212 c 0,1.68294 1.388865,3.0577 3.089734,3.0577 h 0.164331 v 0.001 h 28.566215 c 1.021946,0 1.826245,0.79389 1.826245,1.80506 v 0.0207 c 0,1.01117 -0.804299,1.80712 -1.826245,1.80712 h -1.822111 v -10e-4 l -26.978715,5.2e-4 c -1.700869,0 -3.089734,1.37475 -3.089734,3.05769 v 0.0212 c 0,1.68293 1.388865,3.05769 3.089734,3.05769 h 0.164331 v 0.001 h 31.117997 v -1.25368 H 68.441337 v 0.001 h -0.164331 c -1.021946,0 -1.826245,-0.79544 -1.826245,-1.80661 v -0.0212 c 0,-1.01116 0.804299,-1.80505 1.826245,-1.80505 h 26.978715 v -0.001 h 1.822111 c 1.700868,0 3.089738,-1.37475 3.089738,-3.05769 v -0.0207 c 0,-1.68294 -1.38887,-3.0577 -3.089738,-3.0577 H 68.511617 v 0.001 h -0.164331 c -1.021946,0 -1.826245,-0.79597 -1.826245,-1.80713 v -0.0212 c 0,-1.01117 0.804299,-1.80454 1.826245,-1.80454 h 28.566215 v -5.1e-4 h 0.164331 c 1.700868,0 3.089738,-1.37476 3.089738,-3.0577 v -0.0212 c 0,-1.68293 -1.38887,-3.05769 -3.089738,-3.05769 H 68.511617 v 10e-4 h -0.164331 c -1.021946,0 -1.826245,-0.79595 -1.826245,-1.80712 v -0.0207 c 0,-1.01117 0.804299,-1.80506 1.826245,-1.80506 h 31.212048 z m -38.77076,28.08666 v 2.49494 h 43.777686 v -2.49494 z"/></g></svg>