<svg width="53.710415mm" height="53.710415mm" viewBox="0 0 53.710415 53.710415" version="1.1" id="svg13034" xmlns="http://www.w3.org/2000/svg"><g id="layer1" transform="translate(-79.142475,-149.34874)"><g fill="none" id="g50898" transform="matrix(0.26458333,0,0,0.26458333,79.53935,149.74561)" style="display:inline"><g stroke="#999999" stroke-width="3" id="g50892"><path d="M 0,16 V 0 h 16" id="path50884"/><path d="M 200,16 V 0 h -16" id="path50886"/><path d="m 0,184 v 16 h 16" id="path50888"/><path d="m 200,184 v 16 h -16" id="path50890"/></g></g><path id="path12994" style="color:#000000;fill:#000000;-inkscape-stroke:none" d="m 124.41133,158.78683 c -2.14421,-0.0206 -4.11764,1.40475 -4.69791,3.57032 l -6.75256,25.2026 c -0.24687,0.92135 -0.20709,1.85206 0.0625,2.69906 l -15.06419,-8.69663 -0.0372,-0.0646 -4.33255,-7.50394 -1.09399,0.63355 3.2737,5.67046 -12.32431,-7.11585 -0.63201,1.09451 12.34602,7.12773 -6.56859,-0.0129 -0.002,1.26452 8.76691,0.0171 18.01957,10.4035 0.003,-0.006 c 0.30844,0.1614 0.63847,0.29222 0.98857,0.38603 2.56661,0.68772 5.21063,-0.83681 5.89835,-3.40341 l 6.75307,-25.20312 c 0.68772,-2.5666 -0.83938,-5.21114 -3.40599,-5.89886 -0.40103,-0.10746 -0.80389,-0.16053 -1.20096,-0.16433 z m -0.0176,1.26297 c 0.29385,0.004 0.59285,0.044 0.89142,0.12402 1.91081,0.512 3.02244,2.43828 2.51044,4.34909 l -6.75308,25.2026 c -0.512,1.91081 -2.43776,3.02244 -4.34857,2.51044 -0.28851,-0.0773 -0.55846,-0.18716 -0.8077,-0.32401 l -0.12609,-0.0729 c -1.31911,-0.79632 -1.99863,-2.37878 -1.57717,-3.95169 l 6.75308,-25.2026 c 0.432,-1.61225 1.87086,-2.65578 3.45767,-2.63498 z"/></g></svg>