<svg width="53.710415mm" height="53.710415mm" viewBox="0 0 53.710415 53.710415" version="1.1" id="svg21487" xmlns="http://www.w3.org/2000/svg"><g id="layer1" transform="translate(-129.27383,-127.49964)"><g fill="none" id="g50898" transform="matrix(0.26458333,0,0,0.26458333,129.6707,127.89651)"><g stroke="#999999" stroke-width="3" id="g50892"><path d="M 0,16 V 0 h 16" id="path50884"/><path d="M 200,16 V 0 h -16" id="path50886"/><path d="m 0,184 v 16 h 16" id="path50888"/><path d="m 200,184 v 16 h -16" id="path50890"/></g></g><path id="path20071-3" style="color:#000000;fill:#000000;-inkscape-stroke:none" d="m 138.02497,136.22546 v 36.25877 h 2.61586 v -36.25877 z m 33.59227,0 v 36.25877 h 2.61586 v -36.25877 z m -28.67423,2.93419 v 1.27744 h 26.37204 v -1.27744 z m 0,5.53609 v 1.27744 h 26.37204 v -1.27744 z m 4.49689,5.59811 -0.63356,1.09554 4.12482,2.37918 h -8.00107 v 1.26349 h 8.00778 c -0.27744,0.16323 -0.58928,0.3466 -1.00252,0.58808 -0.75887,0.44343 -1.52279,0.88559 -2.10271,1.21646 -0.28997,0.16545 -0.53465,0.30358 -0.7059,0.39688 -0.0856,0.0467 -0.15318,0.0836 -0.19276,0.10335 -0.0198,0.009 -0.0342,0.0154 -0.03,0.0134 0.002,-9e-4 0.009,-0.004 0.03,-0.0114 0.0107,-0.004 0.0243,-0.008 0.0501,-0.014 0.0258,-0.006 0.14011,-0.0155 0.13901,-0.0155 v 1.26556 c 0.001,0 0.1167,-0.0106 0.14624,-0.0176 0.0296,-0.007 0.0493,-0.0126 0.0651,-0.0176 0.0317,-0.0105 0.0499,-0.0194 0.0677,-0.0274 0.0356,-0.0152 0.0659,-0.0289 0.0982,-0.045 0.0645,-0.0322 0.1399,-0.0725 0.23254,-0.12299 0.18528,-0.10095 0.43289,-0.24068 0.72657,-0.40824 0.58737,-0.33511 1.35433,-0.77966 2.11512,-1.22422 1.52157,-0.88911 3.02359,-1.77767 3.02359,-1.77767 l 0.93172,-0.55087 z m 17.37878,0 -7.09052,4.08967 0.93224,0.55087 c 0,0 1.50201,0.88856 3.02359,1.77767 0.76078,0.44456 1.52775,0.88911 2.11511,1.22422 0.29369,0.16756 0.5413,0.30729 0.72657,0.40824 0.0926,0.0505 0.16802,0.0908 0.23255,0.12299 0.0323,0.0161 0.0621,0.0298 0.0977,0.045 0.0178,0.008 0.036,0.0169 0.0677,0.0274 0.0158,0.005 0.0351,0.0107 0.0646,0.0176 0.0295,0.007 0.14509,0.0176 0.14624,0.0176 v -1.26556 c -10e-4,0 0.11318,0.01 0.13901,0.0155 0.0258,0.006 0.0399,0.0104 0.0507,0.014 0.0215,0.007 0.0273,0.0105 0.0294,0.0114 0.004,0.002 -0.01,-0.004 -0.0294,-0.0134 -0.0396,-0.0198 -0.10765,-0.0567 -0.19327,-0.10335 -0.17126,-0.0933 -0.41543,-0.23143 -0.70539,-0.39688 -0.57992,-0.33087 -1.34436,-0.77303 -2.10323,-1.21646 -0.41324,-0.24148 -0.72508,-0.42485 -1.00252,-0.58808 h 8.0083 v -1.26349 h -8.00107 l 4.1243,-2.37918 z m -21.87567,12.4101 v 1.27744 h 26.37204 v -1.27744 z m 0,5.77949 v 1.27744 h 26.37204 v -1.27744 z"/></g></svg>