<svg width="53.710415mm" height="53.710415mm" viewBox="0 0 53.710415 53.710415" version="1.1" id="svg7352" xmlns="http://www.w3.org/2000/svg"><g id="layer1" transform="translate(-67.78558,-111.49242)"><g fill="none" stroke="#999999" stroke-width="3" id="g160" transform="matrix(0.26458333,0,0,0.26458333,68.182455,111.88929)"><path d="M 0,16 V 0 h 16" id="path152"/><path d="M 200,16 V 0 h -16" id="path154"/><path d="m 0,184 v 16 h 16" id="path156"/><path d="m 200,184 v 16 h -16" id="path158"/></g><path id="path7283" style="color:#000000;fill:#000000" d="m 96.396504,119.19608 c -5.987699,0 -10.827773,4.84058 -10.827773,10.82828 v 0.30075 0.30283 c 0,5.98766 4.840074,10.82776 10.827773,10.82776 h 0.30282 19.457206 v -1.26555 h -14.3061 c 3.55079,-1.86141 5.97793,-5.584 5.97793,-9.86504 0,-4.28103 -2.42714,-8.00252 -5.97793,-9.86348 h 14.3061 v -1.26555 H 96.699324 Z m 0.30282,1.26762 c 5.454696,0 9.861406,4.40672 9.861406,9.86141 0,5.45472 -4.40671,9.86348 -9.861406,9.86348 -5.454705,0 -9.86297,-4.40876 -9.86297,-9.86348 0,-5.45469 4.408265,-9.86141 9.86297,-9.86141 z m 0,7.09983 c -1.51808,0 -2.76366,1.24557 -2.76366,2.76365 0,1.51808 1.24403,2.76159 2.76211,2.76159 1.51808,0 2.76365,-1.24351 2.76365,-2.76159 0,-1.51808 -1.24403,-2.76365 -2.7621,-2.76365 z m 0,1.26555 c 0.83388,0 1.49655,0.66421 1.49655,1.4981 0,0.83389 -0.66422,1.49603 -1.4981,1.49603 -0.83388,0 -1.49603,-0.66214 -1.49603,-1.49603 0,-0.83389 0.66369,-1.4981 1.49758,-1.4981 z m -11.257717,13.18576 v 15.48433 h 1.265557 v -15.48433 z m -5.948991,1.91616 v 2.97036 h -6.36757 v 5.61155 h 6.36757 v 3.13262 l 5.828068,-5.82807 z m 13.164054,0 -5.828068,5.88646 5.828068,5.82807 v -3.13262 h 6.367064 v -5.61155 H 92.65667 Z m -1.265556,3.07578 v 1.16014 h 6.36499 v 3.08043 h -6.367057 l 0.0021,0.63252 v 0.709 l -2.777608,-2.77709 z m -10.632942,0.002 2.775024,2.80293 -2.775024,2.77709 v -1.34152 h -0.633037 -5.734016 v -3.08043 h 6.367053 z"/></g></svg>