<svg width="53.710415mm" height="53.710415mm" viewBox="0 0 53.710415 53.710415" version="1.1" id="svg8572" xmlns="http://www.w3.org/2000/svg"><g id="layer1" transform="translate(-116.3105,-176.19231)"><g fill="none" stroke="#999999" stroke-width="3" id="g160" transform="matrix(0.26458333,0,0,0.26458333,116.70737,176.58918)"><path d="M 0,16 V 0 h 16" id="path152"/><path d="M 200,16 V 0 h -16" id="path154"/><path d="m 0,184 v 16 h 16" id="path156"/><path d="m 200,184 v 16 h -16" id="path158"/></g><path id="path8494" style="color:#000000;fill:#000000;fill-opacity:1;-inkscape-stroke:none" d="m 141.27228,179.81922 -0.89452,0.89452 2.12338,2.1208 v 3.84007 c -2.76481,0.15667 -5.27647,1.27172 -7.20679,3.01842 l -3.08508,-3.08508 -3.52434,5.2e-4 v 1.26504 l 3.00137,-0.002 2.71818,2.7187 c -1.73246,1.94118 -2.83155,4.45892 -2.96933,7.22695 h -4.35839 l -2.49184,2.49236 0.89452,0.89452 2.1208,-2.12339 h 3.83956 c 0.15646,2.7653 1.27189,5.27714 3.01894,7.20731 l -3.08457,3.08457 v 3.52433 h 1.26556 l -0.002,-3.00085 2.71767,-2.71818 c 1.94126,1.73206 4.4593,2.83069 7.22746,2.9683 v 4.35839 l 2.49236,2.49235 0.89452,-0.89452 -2.12132,-2.12132 v -3.84007 c 2.76427,-0.15696 5.27516,-1.27182 7.20473,-3.01791 l 3.08508,3.08509 h 3.52433 v -1.26504 h -2.99981 l -2.71819,-2.71818 c 1.7313,-1.94085 2.8294,-4.45831 2.96675,-7.22592 h 4.35891 l 2.49235,-2.49235 -0.89452,-0.89452 -2.12132,2.12132 h -3.84059 c -0.15716,-2.76379 -1.27165,-5.2745 -3.01739,-7.20422 l 3.08509,-3.08508 v -3.52485 h -1.26504 v 2.99982 l -2.7187,2.7187 c -1.94075,-1.73167 -4.45792,-2.83028 -7.2254,-2.96778 v -4.35891 z m 1.90169,8.10131 c 5.79971,0 10.48825,4.68852 10.48825,10.48825 0,5.7997 -4.68854,10.4867 -10.48825,10.4867 -5.79971,0 -10.48825,-4.687 -10.48825,-10.4867 0,-5.79973 4.68854,-10.48825 10.48825,-10.48825 z m 0,7.6817 c -1.54163,0 -2.80448,1.26492 -2.80448,2.80655 0,1.54161 1.26285,2.805 2.80448,2.805 1.54163,0 2.805,-1.26339 2.805,-2.805 0,-1.54163 -1.26337,-2.80655 -2.805,-2.80655 z m 0,1.26556 c 0.85797,0 1.53944,0.68302 1.53944,1.54099 0,0.85795 -0.68147,1.53944 -1.53944,1.53944 -0.85797,0 -1.54099,-0.68149 -1.54099,-1.53944 0,-0.85797 0.68302,-1.54099 1.54099,-1.54099 z m -6.92102,17.34933 -8.15093,4.70617 h -4.27881 v 2.64635 h 4.27985 l 8.14989,4.70617 0.63303,-1.09605 -6.25233,-3.61012 h 31.87454 v -2.64635 h -31.87557 l 6.25336,-3.61063 -0.31677,-0.54777 z"/></g></svg>