<svg width="53.710415mm" height="53.710415mm" viewBox="0 0 53.710415 53.710415" version="1.1" id="svg4595" xmlns="http://www.w3.org/2000/svg"><g id="layer1" transform="translate(-5.45522,-87.911995)"><g fill="none" id="g50898" transform="matrix(0.26458333,0,0,0.26458333,5.852095,88.30887)"><g stroke="#999999" stroke-width="3" id="g50892"><path d="M 0,16 V 0 h 16" id="path50884"/><path d="M 200,16 V 0 h -16" id="path50886"/><path d="m 0,184 v 16 h 16" id="path50888"/><path d="m 200,184 v 16 h -16" id="path50890"/></g></g><path id="rect5267" style="color:#000000;fill:#000000;fill-opacity:1;stroke:none;stroke-opacity:1;-inkscape-stroke:none" d="m 38.92036,96.516588 v 19.411222 c -2.95033,0.317 -5.25962,2.82412 -5.25962,5.85649 0,3.24607 2.6466,5.8906 5.89266,5.8906 3.24606,0 5.8906,-2.64453 5.8906,-5.8906 0,-3.03307 -2.30906,-5.54043 -5.26015,-5.85649 V 96.516588 Z m 0.63304,20.642672 c 2.5624,0 4.62452,2.06263 4.62452,4.62504 0,2.56241 -2.06212,4.62659 -4.62452,4.62659 -2.56241,0 -4.62711,-2.06418 -4.62711,-4.62659 0,-2.56241 2.0647,-4.62504 4.62711,-4.62504 z m -14.20327,6.38204 -2.863394,5.2e-4 v 2.74867 h -2.6417 v 1.40301 h 2.6417 v 1.80144 c 0,0.21114 -0.52279,0.65791 -0.71313,0.65784 l -11.77706,-0.004 v 2.86804 l 11.83597,0.001 c 2.664484,2.3e-4 3.517614,-1.54005 3.517614,-3.45353 v -1.87069 h 2.06241 v 1.87069 c 0,1.91348 0.85313,3.45376 3.51761,3.45353 l 23.69416,-0.001 v -2.86804 l -23.63525,0.004 c -0.19034,7e-5 -0.71313,-0.4467 -0.71313,-0.65784 v -1.80144 h 2.6417 v -1.40301 h -2.6417 v -2.74867 l -2.86339,-5.2e-4 v 2.74919 h -2.06241 z"/></g></svg>