<svg width="53.710415mm" height="53.710415mm" viewBox="0 0 53.710415 53.710415" version="1.1" id="svg11344" xmlns="http://www.w3.org/2000/svg"><g id="layer1" transform="translate(-85.273824,-121.11254)"><g fill="none" id="g50898" transform="matrix(0.26458333,0,0,0.26458333,85.670699,121.50941)" style="display:inline"><g stroke="#999999" stroke-width="3" id="g50892"><path d="M 0,16 V 0 h 16" id="path50884"/><path d="M 200,16 V 0 h -16" id="path50886"/><path d="m 0,184 v 16 h 16" id="path50888"/><path d="m 200,184 v 16 h -16" id="path50890"/></g></g><path id="path11287" style="color:#000000;fill:#000000;stroke-width:0.994711" d="m 94.697539,134.33986 -0.63304,1.09554 5.48804,3.16776 h -10.33839 v 1.26401 h 10.26708 l -5.48494,3.16776 0.63252,1.09554 8.513691,-4.91598 z m 34.862991,0 -8.44496,4.87463 8.51369,4.91598 0.63252,-1.09554 -5.48494,-3.16776 h 10.26708 v -1.26401 h -10.33839 l 5.48804,-3.16776 z m -0.58498,11.35021 -31.212051,5.1e-4 c -1.70086,0 -3.08973,1.37478 -3.08973,3.0577 v 0.0217 c 0,1.68291 1.38887,3.05718 3.08973,3.05718 h 0.16433 v 5.2e-4 h 28.566221 c 1.02194,0 1.82625,0.7939 1.82625,1.80506 v 0.0212 c 0,1.01114 -0.80431,1.80661 -1.82625,1.80661 h -0.16433 v -0.002 H 97.763499 c -1.70086,0 -3.08973,1.37426 -3.08973,3.05718 v 0.0212 c 0,1.68294 1.38887,3.05769 3.08973,3.05769 h 0.16433 v 0.001 H 129.41635 V 160.3435 H 97.927829 v 5.1e-4 h -0.16433 c -1.02194,0 -1.82624,-0.79596 -1.82624,-1.80712 v -0.0212 c 0,-1.01115 0.8043,-1.80454 1.82624,-1.80454 h 28.566221 v -5.2e-4 h 0.16433 c 1.70086,0 3.09025,-1.37475 3.09025,-3.05769 v -0.0212 c 0,-1.68293 -1.38939,-3.05769 -3.09025,-3.05769 H 97.927829 v 0.001 h -0.16433 c -1.02194,0 -1.82624,-0.79595 -1.82624,-1.80712 v -0.0207 c 0,-1.01116 0.8043,-1.80506 1.82624,-1.80506 h 31.212051 z"/></g></svg>