<svg width="53.710415mm" height="53.710415mm" viewBox="0 0 53.710415 53.710415" version="1.1" id="svg4751" xmlns="http://www.w3.org/2000/svg"><g id="layer1" transform="translate(-79.241566,-127.49964)"><g fill="none" id="g50898" transform="matrix(0.26458333,0,0,0.26458333,79.638441,127.89651)" style="display:inline"><g stroke="#999999" stroke-width="3" id="g50892"><path d="M 0,16 V 0 h 16" id="path50884"/><path d="M 200,16 V 0 h -16" id="path50886"/><path d="m 0,184 v 16 h 16" id="path50888"/><path d="m 200,184 v 16 h -16" id="path50890"/></g></g><path id="path4717" style="color:#000000;fill:#000000;stroke-width:1.03287" d="m 97.582561,132.38254 c -5.97132,0 -10.82414,4.8528 -10.82414,10.82415 0,5.97132 4.85282,10.82621 10.82414,10.82621 5.971329,0 10.826209,-4.85489 10.826209,-10.82621 0,-5.97135 -4.85488,-10.82415 -10.826209,-10.82415 z m 0,1.26349 c 5.287689,0 9.560659,4.27296 9.560659,9.56066 0,5.28766 -4.27297,9.56066 -9.560659,9.56066 -5.28766,0 -9.56066,-4.273 -9.56066,-9.56066 0,-5.2877 4.273,-9.56066 9.56066,-9.56066 z m 20.386349,6.0508 -5.95002,7.00629 h 3.11712 v 7.01145 h -4.63072 v 1.26401 h 4.63072 v 7.02748 h -3.11712 l 5.95002,7.00629 5.95209,-7.00629 h -3.11918 v -7.02748 h 4.6333 v -1.26401 h -4.6333 v -7.01145 h 3.11918 z m -20.386349,0.84956 c -1.46254,0 -2.66185,1.19776 -2.66185,2.6603 0,1.46254 1.19931,2.66237 2.66185,2.66237 1.46254,0 2.662369,-1.19983 2.662369,-2.66237 0,-1.46254 -1.199829,-2.6603 -2.662369,-2.6603 z m 20.387389,1.11879 3.2184,3.77393 h -1.65002 v 8.27546 h -3.13676 v -8.27546 h -1.65055 z m -20.387389,0.14521 c 0.77889,0 1.39681,0.61742 1.39681,1.3963 0,0.77889 -0.61792,1.39836 -1.39681,1.39836 -0.77888,0 -1.3963,-0.61947 -1.3963,-1.39836 0,-0.77888 0.61742,-1.3963 1.3963,-1.3963 z m 0,12.8664 c -5.97132,0 -10.82414,4.85282 -10.82414,10.82414 0,5.97135 4.85282,10.82622 10.82414,10.82622 5.971329,0 10.826209,-4.85487 10.826209,-10.82622 0,-5.97132 -4.85488,-10.82414 -10.826209,-10.82414 z m 18.819009,0.30179 h 3.13676 v 8.29148 h 1.65002 l -3.2184,3.77393 -3.21893,-3.77393 h 1.65055 z m -18.819009,0.9617 c 5.287689,0 9.560659,4.27298 9.560659,9.56065 0,5.28769 -4.27297,9.56066 -9.560659,9.56066 -5.28766,0 -9.56066,-4.27297 -9.56066,-9.56066 0,-5.28767 4.273,-9.56065 9.56066,-9.56065 z m 0,6.90035 c -1.46253,0 -2.66185,1.19779 -2.66185,2.6603 0,1.46254 1.19932,2.66237 2.66185,2.66237 1.46254,0 2.662369,-1.19983 2.662369,-2.66237 0,-1.46251 -1.199829,-2.6603 -2.662369,-2.6603 z m 0,1.26401 c 0.77889,0 1.39681,0.61742 1.39681,1.39629 0,0.77889 -0.61792,1.39837 -1.39681,1.39837 -0.77888,0 -1.3963,-0.61948 -1.3963,-1.39837 0,-0.77887 0.61742,-1.39629 1.3963,-1.39629 z"/></g></svg>