<svg width="53.710415mm" height="53.710415mm" viewBox="0 0 53.710415 53.710415" version="1.1" id="svg34282" xmlns="http://www.w3.org/2000/svg"><g id="layer1" transform="translate(-129.62867,-180.01576)"><g fill="none" id="g50898" transform="matrix(0.26458333,0,0,0.26458333,130.02554,180.41263)" style="display:inline"><g stroke="#999999" stroke-width="3" id="g50892"><path d="M 0,16 V 0 h 16" id="path50884"/><path d="M 200,16 V 0 h -16" id="path50886"/><path d="m 0,184 v 16 h 16" id="path50888"/><path d="m 200,184 v 16 h -16" id="path50890"/></g></g><path id="path33803" style="color:#000000;fill:#000000;stroke-linecap:round;-inkscape-stroke:none" d="m 156.48387,185.6118 a 2.7443159,2.7443159 0 0 0 -2.74453,2.74402 2.7443159,2.7443159 0 0 0 2.74453,2.74453 2.7443159,2.7443159 0 0 0 2.74402,-2.74453 2.7443159,2.7443159 0 0 0 -2.74402,-2.74402 z m -14.91381,3.26285 v 1.26555 h 6.67039 c -8.18896,3.72424 -12.9291,12.56819 -11.34453,21.55476 1.67538,9.50156 9.93981,16.43517 19.58795,16.43517 9.64815,0 17.91257,-6.93361 19.58795,-16.43517 1.58458,-8.98657 -3.15557,-17.83052 -11.34452,-21.55476 h 6.66936 v -1.26555 H 160.4826 l 5.42137,9.39064 1.09606,-0.63304 -3.93155,-6.81147 c 8.36662,3.16124 13.31378,11.82399 11.75691,20.65353 -1.57024,8.90528 -9.29887,15.39027 -18.34152,15.39027 -9.04264,0 -16.77179,-6.485 -18.34203,-15.39027 -1.55694,-8.82985 3.38926,-17.49257 11.75639,-20.65353 l -3.93361,6.81147 1.09606,0.63304 5.42189,-9.39064 z"/></g></svg>