<svg width="53.710415mm" height="53.710415mm" viewBox="0 0 53.710415 53.710415" version="1.1" id="svg9924" xmlns="http://www.w3.org/2000/svg"><g id="layer1" transform="translate(-14.44259,11.368534)"><g fill="none" id="g50898" transform="matrix(0.26458333,0,0,0.26458333,14.839465,-10.971659)"><g stroke="#999999" stroke-width="3" id="g50892"><path d="M 0,16 V 0 h 16" id="path50884"/><path d="M 200,16 V 0 h -16" id="path50886"/><path d="m 0,184 v 16 h 16" id="path50888"/><path d="m 200,184 v 16 h -16" id="path50890"/></g></g><path id="path9785" style="color:#000000;fill:#000000" d="m 45.618719,-2.582539 c -8.057598,0 -14.860731,5.24138 -17.199467,12.5088 -0.006,0.0198 -0.0123,0.0414 -0.0186,0.0615 h -8.652185 v 0.63252 10.36526 h 8.651152 c 2.319546,7.29981 9.138166,12.57081 17.219104,12.57081 h 7.541658 0.804602 2.833419 c 3.340412,0 6.048727,-2.70886 6.048727,-6.04924 v -1.54926 -1.52136 -3.16414 H 61.40794 l -5.408455,5.40793 c 0,0 -5.561416,0.0109 -8.342127,0.014 -6.219642,0 -11.207068,-4.98745 -11.207068,-11.20706 0,-6.21968 4.987436,-11.20707 11.207068,-11.20707 2.804136,0 8.412407,0 8.412407,0 l 5.338175,5.44204 h 1.439189 v -3.18533 -1.50017 -1.57045 c 0,-3.34037 -2.708319,-6.04924 -6.048727,-6.04924 h -2.833419 -0.804602 z m 0,1.26556 h 7.5861 v 5.1e-4 h 3.593579 c 2.661485,0 4.785238,2.12173 4.785238,4.78317 v 1.57045 h -0.0021 v 3.0701 l -4.988326,-5.0922 c 0,0 -5.957259,0 -8.935889,0 -6.898558,0 -12.472624,5.57404 -12.472624,12.47263 0,6.89854 5.574076,12.47107 12.472624,12.47107 2.955208,-0.002 8.865609,-0.012 8.865609,-0.012 l 5.058606,-5.05861 v 3.07062 h 0.0021 v 1.54926 c 0,2.66145 -2.12375,4.78317 -4.785238,4.78317 h -3.593579 v 5.1e-4 h -7.5861 c -7.41456,0 -13.665226,-4.73573 -15.91169,-11.36468 -0.14052,-0.41468 -0.265648,-0.77527 -0.374138,-1.20406 H 28.09369 28.03271 21.014017 v -8.46873 h 7.048666 v 5.2e-4 h 1.302246 c 0.11199,-0.42892 0.240879,-0.91299 0.384989,-1.32757 2.281766,-6.56476 8.500249,-11.24324 15.868799,-11.24324 z"/></g></svg>