<svg width="53.710415mm" height="53.710415mm" viewBox="0 0 53.710415 53.710415" version="1.1" id="svg66753" xmlns="http://www.w3.org/2000/svg"><g id="layer1" transform="translate(4.500369,-117.20931)"><g fill="none" id="g50898" transform="matrix(0.26458333,0,0,0.26458333,-4.103494,117.60618)" style="display:inline"><g stroke="#999999" stroke-width="3" id="g50892"><path d="M 0,16 V 0 h 16" id="path50884"/><path d="M 200,16 V 0 h -16" id="path50886"/><path d="m 0,184 v 16 h 16" id="path50888"/><path d="m 200,184 v 16 h -16" id="path50890"/></g></g><path id="path66579" style="color:#000000;fill:#000000;-inkscape-stroke:none" d="m 4.044073,123.12523 v 0.63045 36.06446 H 21.72258 v 5.18367 h 1.265556 v -5.18367 h 17.677469 v -36.69491 z m 1.266072,1.26349 h 34.08939 v 34.16587 H 22.988136 v -3.99821 h 14.017749 v -1.26555 H 22.988136 v -12.01477 l 13.427599,6.28747 0.53744,-1.14412 -13.965039,-6.5412 v -11.32024 l 13.427599,6.28747 0.53744,-1.14411 -14.598592,-6.83783 -14.598593,6.83783 0.534852,1.14411 13.431738,-6.28902 v 11.32127 l -13.96659,6.54172 0.534852,1.14412 13.431738,-6.28902 v 12.01632 H 7.70328 v 1.26555 h 14.0193 v 3.99821 H 5.310145 Z"/></g></svg>