<svg width="53.710415mm" height="53.710415mm" viewBox="0 0 53.710415 53.710415" version="1.1" id="svg2590" xmlns="http://www.w3.org/2000/svg"><g id="layer1" transform="translate(-145.59641,-110.46738)"><g fill="none" id="g50898" transform="matrix(0.26458333,0,0,0.26458333,145.99328,110.86425)" style="display:inline"><g stroke="#999999" stroke-width="3" id="g50892"><path d="M 0,16 V 0 h 16" id="path50884"/><path d="M 200,16 V 0 h -16" id="path50886"/><path d="m 0,184 v 16 h 16" id="path50888"/><path d="m 200,184 v 16 h -16" id="path50890"/></g></g><path id="rect3683" style="color:#000000;fill:#000000;stroke-width:0.994711" d="m 189.29813,118.45319 -31.21205,5.2e-4 c -1.70086,0 -3.08973,1.37477 -3.08973,3.05769 v 0.0217 c 0,1.68291 1.38887,3.05717 3.08973,3.05717 h 0.16433 v 5.2e-4 h 28.56622 c 1.02194,0 1.82624,0.79389 1.82624,1.80506 v 0.0212 c 0,1.01114 -0.8043,1.8066 -1.82624,1.8066 h -0.16433 v -0.002 h -28.56622 c -1.70086,0 -3.08973,1.37425 -3.08973,3.05717 v 0.0212 c 0,1.68294 1.38887,3.0577 3.08973,3.0577 h 0.16433 v 0.001 h 31.48852 v -1.25216 h -31.48852 v 5.2e-4 h -0.16433 c -1.02194,0 -1.82624,-0.79597 -1.82624,-1.80713 v -0.0212 c 0,-1.01115 0.8043,-1.80454 1.82624,-1.80454 h 28.56622 v -5.1e-4 h 0.16433 c 1.70086,0 3.09025,-1.37476 3.09025,-3.0577 v -0.0212 c 0,-1.68293 -1.38939,-3.0577 -3.09025,-3.0577 h -28.56622 v 10e-4 h -0.16433 c -1.02194,0 -1.82624,-0.79595 -1.82624,-1.80712 v -0.0207 c 0,-1.01117 0.8043,-1.80506 1.82624,-1.80506 h 31.21205 z m -38.7382,18.29397 v 2.72852 h 43.78337 v -2.72852 z m 21.87101,4.0504 -4.87464,8.44497 1.09554,0.63303 3.16777,-5.48803 v 11.80444 h 1.264 v -11.73313 l 3.16777,5.48494 1.09554,-0.63252 z"/></g></svg>