<svg width="53.710415mm" height="53.710415mm" viewBox="0 0 53.710415 53.710415" version="1.1" id="svg1560" xmlns="http://www.w3.org/2000/svg"><g id="layer1" transform="translate(-23.046298,-79.830771)"><g fill="none" stroke="#999999" stroke-width="3" id="g160" transform="matrix(0.26458333,0,0,0.26458333,23.443173,80.227646)"><path d="M 0,16 V 0 h 16" id="path152"/><path d="M 200,16 V 0 h -16" id="path154"/><path d="m 0,184 v 16 h 16" id="path156"/><path d="m 200,184 v 16 h -16" id="path158"/></g><path id="path367" style="color:#000000;fill:#000000;fill-opacity:1" d="m 27.811123,92.778041 v 27.815879 h 1.19889 v -20.24683 h 38.146 l -7.24142,4.21318 0.61133,1.03301 10.02988,-5.842025 -10.17974,-6.042522 -0.61133,1.033012 7.39179,4.406966 h -38.14651 v -6.37067 z m 42.98187,0 v 20.332609 h -38.14651 l 7.3918,-4.40696 -0.61134,-1.03301 -10.17974,6.04304 10.02988,5.84202 0.61133,-1.03301 -7.24141,-4.21318 h 38.14599 v 6.28437 h 1.19889 V 92.778041 Z"/></g></svg>