<svg width="200" height="200" version="1.1" xmlns="http://www.w3.org/2000/svg"><g fill="none"><g stroke="#999" stroke-width="3"><path d="m0 16v-16h16"/><path d="m200 16v-16h-16"/><path d="m0 184v16h16"/><path d="m200 184v16h-16"/></g><g stroke="#000" stroke-width="5"><circle cx="100" cy="100" r="7.5212"/><circle cx="100" cy="100" r="52.764"/><path d="m91.91 47.87 2e-6 -14.462c0-4.4817 3.608-8.0898 8.0898-8.0898 4.4817 0 8.0898 3.608 8.0898 8.0898v14.454"/><path d="m152.13 91.91 14.462 2e-6c4.4817 0 8.0898 3.608 8.0898 8.0898 0 4.4817-3.608 8.0898-8.0898 8.0898h-14.454"/><path d="m108.09 152.13-1e-5 14.462c0 4.4817-3.608 8.0898-8.0898 8.0898-4.4817 0-8.0898-3.608-8.0898-8.0898v-14.454"/><path d="m47.87 108.09-14.462-1e-5c-4.4817 0-8.0898-3.608-8.0898-8.0898 0-4.4817 3.608-8.0898 8.0898-8.0898h14.454"/><path d="m34.233 181.87h131.53"/></g></g></svg>