<svg width="53.710415mm" height="53.710415mm" viewBox="0 0 53.710415 53.710415" version="1.1" id="svg7683" xmlns="http://www.w3.org/2000/svg"><g id="layer1" transform="translate(-45.531889,-93.080276)"><g fill="none" id="g50898" transform="matrix(0.26458333,0,0,0.26458333,45.928764,93.477151)" style="display:inline"><g stroke="#999999" stroke-width="3" id="g50892"><path d="M 0,16 V 0 h 16" id="path50884"/><path d="M 200,16 V 0 h -16" id="path50886"/><path d="m 0,184 v 16 h 16" id="path50888"/><path d="m 200,184 v 16 h -16" id="path50890"/></g></g><path id="path7659" style="color:#000000;fill:#000000;stroke-width:1.03287" d="m 66.493654,97.963181 c -5.97132,0 -10.82414,4.852799 -10.82414,10.824149 0,5.97132 4.85282,10.82621 10.82414,10.82621 5.97134,0 10.82621,-4.85489 10.82621,-10.82621 0,-5.97135 -4.85487,-10.824149 -10.82621,-10.824149 z m 0,1.26349 c 5.28769,0 9.56066,4.272959 9.56066,9.560659 0,5.28766 -4.27297,9.56065 -9.56066,9.56065 -5.28766,0 -9.56066,-4.27299 -9.56066,-9.56065 0,-5.2877 4.273,-9.560659 9.56066,-9.560659 z m 0,6.900359 c -1.46254,0 -2.66185,1.19776 -2.66185,2.6603 0,1.46254 1.19931,2.66237 2.66185,2.66237 1.46254,0 2.66237,-1.19983 2.66237,-2.66237 0,-1.46254 -1.19983,-2.6603 -2.66237,-2.6603 z m 0,1.264 c 0.77889,0 1.39681,0.61742 1.39681,1.3963 0,0.77889 -0.61792,1.39836 -1.39681,1.39836 -0.77888,0 -1.3963,-0.61947 -1.3963,-1.39836 0,-0.77888 0.61742,-1.3963 1.3963,-1.3963 z m 12.23336,11.88816 v 1.26504 h 10.37766 v -1.26504 z m -12.23336,0.97824 c -5.97132,0 -10.82414,4.85282 -10.82414,10.82414 0,5.97135 4.85282,10.82622 10.82414,10.82622 5.97134,0 10.82621,-4.85487 10.82621,-10.82622 0,-5.97132 -4.85487,-10.82414 -10.82621,-10.82414 z m 17.55552,0.55397 -4.8643,8.2889 1.09554,0.63252 3.13572,-5.29735 v 12.97905 h 1.26607 V 124.4427 l 2.99052,5.36918 1.09554,-0.63355 z m -17.55552,0.70952 c 5.28769,0 9.56066,4.27298 9.56066,9.56065 0,5.28769 -4.27297,9.56066 -9.56066,9.56066 -5.28766,0 -9.56066,-4.27297 -9.56066,-9.56066 0,-5.28767 4.273,-9.56065 9.56066,-9.56065 z m 0,6.90035 c -1.46253,0 -2.66185,1.19779 -2.66185,2.6603 0,1.46254 1.19932,2.66237 2.66185,2.66237 1.46254,0 2.66237,-1.19983 2.66237,-2.66237 0,-1.46251 -1.19983,-2.6603 -2.66237,-2.6603 z m 0,1.26401 c 0.77889,0 1.39681,0.61742 1.39681,1.39629 0,0.77889 -0.61792,1.39837 -1.39681,1.39837 -0.77888,0 -1.3963,-0.61948 -1.3963,-1.39837 0,-0.77887 0.61742,-1.39629 1.3963,-1.39629 z"/></g></svg>