<svg width="53.710415mm" height="53.710415mm" viewBox="0 0 53.710415 53.710415" version="1.1" id="svg4463" xmlns="http://www.w3.org/2000/svg"><g id="layer1" transform="translate(-74.668546,-118.71954)"><g fill="none" stroke="#999999" stroke-width="3" id="g160" transform="matrix(0.26458333,0,0,0.26458333,75.065421,119.11641)"><path d="M 0,16 V 0 h 16" id="path152"/><path d="M 200,16 V 0 h -16" id="path154"/><path d="m 0,184 v 16 h 16" id="path156"/><path d="m 200,184 v 16 h -16" id="path158"/></g><path id="path4321" style="color:#000000;fill:#000000;-inkscape-stroke:none" d="m 104.99123,122.82135 v 17.77617 c -0.6015,-0.24367 -1.12475,-0.55091 -1.60094,-0.90485 -1.1346,-0.84333 -2.00475,-1.97832 -2.93573,-3.1657 -1.861986,-2.37477 -4.090694,-4.94571 -9.109526,-5.0059 h -0.0036 -10.156486 v 1.26556 H 91.3373 c 4.606158,0.058 6.275544,2.16805 8.120951,4.52169 0.923299,1.17758 1.859809,2.42044 3.178099,3.40031 1.3183,0.97987 3.02023,1.66678 5.34955,1.74614 h 0.0114 17.92604 v -1.264 H 108.0288 c -0.0399,-10e-4 -0.0779,-0.004 -0.11731,-0.006 v -18.36322 z m -18.329631,17.2191 -9.537402,5.50767 9.633004,5.56091 0.633036,-1.09606 -6.588228,-3.80442 H 104.1086 v -1.26556 H 80.70124 l 6.592879,-3.807 z m 21.324281,8.65425 c -2.32931,0.0794 -4.03125,0.76628 -5.34955,1.74615 -1.31829,0.97987 -2.25479,2.22273 -3.178096,3.40031 -1.846605,2.35516 -3.515736,4.46637 -8.128703,4.52169 h -10.1446 v 1.26555 h 10.156486 0.0036 c 5.018832,-0.0602 7.24754,-2.63319 9.109523,-5.00796 0.93099,-1.18739 1.80113,-2.32028 2.93574,-3.16363 0.47618,-0.35394 0.99944,-0.66118 1.60093,-0.90486 v 17.77618 h 2.92024 v -18.36322 c 0.0394,-0.002 0.0774,-0.005 0.1173,-0.006 h 17.89454 v -1.26421 h -17.92604 z"/></g></svg>