<svg width="53.710415mm" height="53.710415mm" viewBox="0 0 53.710415 53.710415" version="1.1" id="svg3723" xmlns="http://www.w3.org/2000/svg"><g id="layer1" transform="translate(-81.01576,-82.080276)"><g fill="none" id="g50898" transform="matrix(0.26458333,0,0,0.26458333,81.412635,82.477151)" style="display:inline"><g stroke="#999999" stroke-width="3" id="g50892"><path d="M 0,16 V 0 h 16" id="path50884"/><path d="M 200,16 V 0 h -16" id="path50886"/><path d="m 0,184 v 16 h 16" id="path50888"/><path d="m 200,184 v 16 h -16" id="path50890"/></g></g><path id="path20142" style="color:#000000;fill:#000000;-inkscape-stroke:none" d="m 105.50366,87.294941 v 8.45582 h 7.9003 v 5.179529 h -7.9003 v 16.00987 h 7.90805 v 5.17953 h -7.90805 v 8.45633 H 87.339918 v -1.26555 H 104.23811 V 110.28785 H 87.339918 v -2.70526 H 104.23811 V 88.561021 H 87.339918 v -1.26556 z m 6.6363,9.72137 h -6.6363 v 2.64842 h 6.6363 z m 16.26206,0.70281 v 1.26607 h -12.65454 v -1.26607 z m -6.32624,1.50844 5.95003,7.006289 h -3.11712 v 6.68797 h -5.66581 v -6.68797 h -3.11919 z m -5.1e-4,1.968359 -3.21841,3.77392 h 1.65003 v 6.68796 h 3.13676 v -6.68796 h 1.65002 z m -9.92911,17.0098 h -6.63681 v 2.64842 h 6.63681 z"/></g></svg>