<svg width="53.710415mm" height="53.710415mm" viewBox="0 0 53.710415 53.710415" version="1.1" id="svg7858" xmlns="http://www.w3.org/2000/svg"><g id="layer1" transform="translate(-164.04802,-96.273824)"><g fill="none" id="g50898" transform="matrix(0.26458333,0,0,0.26458333,164.44489,96.670699)" style="display:inline"><g stroke="#999999" stroke-width="3" id="g50892"><path d="M 0,16 V 0 h 16" id="path50884"/><path d="M 200,16 V 0 h -16" id="path50886"/><path d="m 0,184 v 16 h 16" id="path50888"/><path d="m 200,184 v 16 h -16" id="path50890"/></g></g><path id="path3355" style="color:#000000;fill:#000000" d="m 177.52859,136.86075 -8.98653,-6.33759 0.72864,-1.03302 5.86269,4.13361 c -2.13329,-4.37458 -3.39461,-9.03509 -3.79357,-13.7506 h 1.26814 c 0.41417,4.73176 1.72679,9.40404 3.94757,13.7692 l 0.72295,-7.80263 1.25987,0.11679 z m -3.28455,-17.74879 v -0.63252 -2.86081 h -5.59449 v -2.72748 h 5.59449 v -3.49384 h 33.4238 v 3.49384 h 5.59656 v 2.72748 h -5.59656 v 3.49333 z m 1.26607,-1.26349 h 30.89424 v -7.18767 h -30.89424 z"/></g></svg>