<svg width="53.710415mm" height="53.710415mm" viewBox="0 0 53.710415 53.710415" version="1.1" id="svg11043" xmlns="http://www.w3.org/2000/svg"><g id="layer1" transform="translate(-83.499631,-150.56415)"><g fill="none" id="g50898" transform="matrix(0.26458333,0,0,0.26458333,83.896506,150.96102)" style="display:inline"><g stroke="#999999" stroke-width="3" id="g50892"><path d="M 0,16 V 0 h 16" id="path50884"/><path d="M 200,16 V 0 h -16" id="path50886"/><path d="m 0,184 v 16 h 16" id="path50888"/><path d="m 200,184 v 16 h -16" id="path50890"/></g></g><path id="path9325" style="color:#000000;fill:#000000;stroke-width:1.03287" d="m 110.35381,155.4734 c -5.9713,0 -10.824154,4.85282 -10.824154,10.82415 0,5.97129 4.852854,10.82621 10.824154,10.82621 5.97132,0 10.82621,-4.85492 10.82621,-10.82621 0,-5.97133 -4.85489,-10.82415 -10.82621,-10.82415 z m 0,1.26349 c 5.28767,0 9.56066,4.27297 9.56066,9.56066 0,5.28764 -4.27299,9.56066 -9.56066,9.56066 -5.28765,0 -9.56066,-4.27302 -9.56066,-9.56066 0,-5.28769 4.27301,-9.56066 9.56066,-9.56066 z m 0,6.90036 c -1.46254,0 -2.66185,1.19776 -2.66185,2.6603 0,1.46254 1.19931,2.66237 2.66185,2.66237 1.46254,0 2.66237,-1.19983 2.66237,-2.66237 0,-1.46254 -1.19983,-2.6603 -2.66237,-2.6603 z m 0,1.264 c 0.77889,0 1.39681,0.61742 1.39681,1.3963 0,0.77889 -0.61792,1.39836 -1.39681,1.39836 -0.77888,0 -1.3963,-0.61947 -1.3963,-1.39836 0,-0.77888 0.61742,-1.3963 1.3963,-1.3963 z m -6.93343,1.39733 c 0,2.47606 1.32265,4.76574 3.46697,6.00377 2.14433,1.23803 4.7891,1.23803 6.93343,0 2.14433,-1.23803 3.46697,-3.52771 3.46697,-6.00377 h -1.26349 c 0,2.02615 -1.08131,3.89516 -2.836,4.90823 -1.75469,1.01308 -3.91318,1.01308 -5.66787,0 -1.75469,-1.01307 -2.83393,-2.88208 -2.83393,-4.90823 z m 6.93343,11.41636 c -5.9713,0 -10.824154,4.85492 -10.824154,10.82621 0,5.97134 4.852854,10.82415 10.824154,10.82415 5.97132,0 10.82621,-4.85281 10.82621,-10.82415 0,-5.97129 -4.85489,-10.82621 -10.82621,-10.82621 z m 0,1.26556 c 5.28767,0 9.56066,4.27301 9.56066,9.56065 0,5.28769 -4.27299,9.56066 -9.56066,9.56066 -5.28765,0 -9.56066,-4.27297 -9.56066,-9.56066 0,-5.28764 4.27301,-9.56065 9.56066,-9.56065 z m 0,2.62723 c -1.19727,0 -2.39429,0.30961 -3.46646,0.92862 -2.14432,1.23803 -3.46697,3.52771 -3.46697,6.00377 h 1.26608 c 0,-2.02615 1.07924,-3.89516 2.83393,-4.90823 1.75469,-1.01308 3.91318,-1.01308 5.66787,0 1.75469,1.01307 2.836,2.88208 2.836,4.90823 h 1.26349 c 0,-2.47606 -1.32264,-4.76574 -3.46697,-6.00377 -1.07216,-0.61901 -2.2697,-0.92862 -3.46697,-0.92862 z m 0,4.27105 c -1.46254,0 -2.66185,1.19983 -2.66185,2.66237 0,1.46254 1.19931,2.66031 2.66185,2.66031 1.46254,0 2.66237,-1.19777 2.66237,-2.66031 0,-1.46254 -1.19983,-2.66237 -2.66237,-2.66237 z m 0,1.26401 c 0.77889,0 1.39681,0.61947 1.39681,1.39836 0,0.77888 -0.61792,1.3963 -1.39681,1.3963 -0.77888,0 -1.3963,-0.61742 -1.3963,-1.3963 0,-0.77889 0.61742,-1.39836 1.3963,-1.39836 z"/></g></svg>