<svg width="53.710415mm" height="53.710415mm" viewBox="0 0 53.710415 53.710415" version="1.1" id="svg21906" xmlns="http://www.w3.org/2000/svg"><g id="layer1" transform="translate(-23.177055,-129.98351)"><g fill="none" id="g50898" transform="matrix(0.26458333,0,0,0.26458333,23.57393,130.38038)"><g stroke="#999999" stroke-width="3" id="g50892"><path d="M 0,16 V 0 h 16" id="path50884"/><path d="M 200,16 V 0 h -16" id="path50886"/><path d="m 0,184 v 16 h 16" id="path50888"/><path d="m 200,184 v 16 h -16" id="path50890"/></g></g><path id="path21676" style="color:#000000;fill:#000000;stroke-width:0.639115" d="m 42.06117,139.78213 -3.83336,14.3061 2.5275,0.67696 3.83335,-14.3061 z m 15.94166,0 -2.52749,0.67696 3.83335,14.3061 2.5275,-0.67696 z M 45.57,143.3199 v 1.27744 h 8.924 v -1.27744 z m -1.33377,5.11906 v 1.27744 h 11.59102 v -1.27744 z m -9.99216,4.49069 -6.5722,3.79305 6.5722,3.77134 0.63097,-1.09761 -3.57911,-2.05258 h 7.2316 v -1.26608 h -7.20576 l 3.55327,-2.05258 z m 31.57637,0 -0.63097,1.09554 3.55327,2.05258 h -7.20576 v 1.26608 h 7.2316 l -3.57911,2.05258 0.63097,1.09761 6.57221,-3.77134 z m -22.93917,0.67179 v 1.27744 h 14.30145 v -1.27744 z m 0,5.1971 v 1.27744 h 14.30145 v -1.27744 z m -2.12596,0.11369 -2.5275,0.67696 3.83336,14.3061 2.52749,-0.67696 z m 18.55338,0 -3.83335,14.3061 2.52749,0.67696 3.83336,-14.3061 z m -15.07194,5.04878 v 1.27744 h 11.59102 v -1.27744 z m 1.33325,5.11907 v 1.27744 h 8.924 v -1.27744 z"/></g></svg>