<svg width="53.710415mm" height="53.710415mm" viewBox="0 0 53.710415 53.710415" version="1.1" id="svg72459" xmlns="http://www.w3.org/2000/svg"><g id="layer1" transform="translate(-11.112534,-103.01576)"><g fill="none" id="g50898" transform="matrix(0.26458333,0,0,0.26458333,11.509409,103.41263)" style="display:inline"><g stroke="#999999" stroke-width="3" id="g50892"><path d="M 0,16 V 0 h 16" id="path50884"/><path d="M 200,16 V 0 h -16" id="path50886"/><path d="m 0,184 v 16 h 16" id="path50888"/><path d="m 200,184 v 16 h -16" id="path50890"/></g></g><path id="rect70549" style="color:#000000;fill:#000000;stroke-linecap:round;-inkscape-stroke:none" d="m 15.316411,114.21172 0.226859,0.80253 8.597408,30.51596 h 27.654643 l 8.823752,-31.31849 z m 1.672249,1.26349 H 27.2547 l -8.308019,6.95203 z m 12.087119,0 h 17.78341 l -0.06046,0.0723 9.814387,8.21449 -5.774842,20.50261 H 25.097726 l -5.775358,-20.50365 9.813872,-8.21345 z m 19.606554,0 h 10.265006 l -1.95802,6.95203 z m -19.525939,6.09368 -0.894519,0.89452 8.811348,8.81185 -8.811348,8.81135 0.894519,0.89452 8.811865,-8.81186 8.811347,8.81186 0.894519,-0.89452 -8.811864,-8.81135 8.811864,-8.81185 -0.894519,-0.89452 -8.811347,8.81134 z"/></g></svg>