<svg width="53.710415mm" height="53.710415mm" viewBox="0 0 53.710415 53.710415" version="1.1" id="svg1763" xmlns="http://www.w3.org/2000/svg"><g id="layer1" transform="translate(-34.17705,-121.82222)"><g fill="none" id="g50898" transform="matrix(0.26458333,0,0,0.26458333,34.573925,122.21909)" style="display:inline"><g stroke="#999999" stroke-width="3" id="g50892"><path d="M 0,16 V 0 h 16" id="path50884"/><path d="M 200,16 V 0 h -16" id="path50886"/><path d="m 0,184 v 16 h 16" id="path50888"/><path d="m 200,184 v 16 h -16" id="path50890"/></g></g><path id="path1319" style="color:#000000;fill:#000000;-inkscape-stroke:none" d="m 38.677808,134.56174 v 1.11518 27.11514 l 22.355226,-13.37851 16.241386,9.72033 v 3.65921 h 2.634981 v -2.08204 l 3.477307,2.08101 v -28.23032 l -3.477307,2.08101 v -2.08101 H 77.27442 v 3.65818 l -16.241386,9.72085 z m 1.265556,2.23036 19.857187,11.88506 -19.857187,11.88454 z m 42.177788,0 v 23.7696 l -2.211751,-1.32395 v -21.1217 z m -4.846732,2.90059 v 17.96842 l -15.010971,-8.98395 z"/></g></svg>