<svg width="53.710415mm" height="53.710415mm" viewBox="0 0 53.710415 53.710415" version="1.1" id="svg7646" xmlns="http://www.w3.org/2000/svg"><g id="layer1" transform="translate(-119.06369,-139.36843)"><g fill="none" id="g50898" transform="matrix(0.26458333,0,0,0.26458333,119.46056,139.7653)" style="display:inline"><g stroke="#999999" stroke-width="3" id="g50892"><path d="M 0,16 V 0 h 16" id="path50884"/><path d="M 200,16 V 0 h -16" id="path50886"/><path d="m 0,184 v 16 h 16" id="path50888"/><path d="m 200,184 v 16 h -16" id="path50890"/></g></g><path id="path33803" style="color:#000000;fill:#000000;stroke-width:1.02656;stroke-linecap:round" d="m 145.91888,144.3999 c -1.55585,-1.1e-4 -2.81722,1.26104 -2.81739,2.81688 -1.2e-4,1.55605 1.26134,2.81751 2.81739,2.8174 1.55585,-1.7e-4 2.817,-1.26155 2.81689,-2.8174 -1.8e-4,-1.55564 -1.26124,-2.81671 -2.81689,-2.81688 z m -15.30966,3.34915 v 1.29915 h 6.84713 c -8.4064,3.82313 -13.27245,12.90214 -11.6458,22.12733 1.71987,9.75386 10.204,16.87184 20.10833,16.87184 9.90434,0 18.38848,-7.11798 20.10834,-16.87184 1.62665,-9.22519 -3.2394,-18.3042 -11.6458,-22.12733 h 6.84609 v -1.29915 h -11.20345 l 5.56503,9.64024 1.125,-0.65009 -4.03593,-6.99234 c 8.58877,3.24518 13.66776,12.13834 12.06955,21.20233 -0.63803,3.61847 -2.26738,6.84715 -4.57802,9.42836 h -28.50213 c -2.31065,-2.58118 -3.93999,-5.80997 -4.57802,-9.42836 -1.59827,-9.06431 3.47974,-17.95743 12.06903,-21.20233 l -4.03851,6.99234 1.12551,0.65009 5.56555,-9.64024 z m 5.42603,15.67915 9.67021,16.74988 8.94106,-15.48433 h 5.19968 v -1.26555 z m 2.19366,1.26555 h 14.95671 l -7.47809,12.95322 z m -5.31853,16.94936 h 26.01649 c -3.43588,3.18838 -8.02744,5.10511 -13.00799,5.10511 -4.98054,0 -9.57248,-1.91673 -13.0085,-5.10511 z"/></g></svg>