<svg width="53.710415mm" height="53.710415mm" viewBox="0 0 53.710415 53.710415" version="1.1" id="svg27428" xmlns="http://www.w3.org/2000/svg"><g id="layer1" transform="translate(-89.17705,-137.43512)"><g fill="none" id="g50898" transform="matrix(0.26458333,0,0,0.26458333,89.573925,137.83199)" style="display:inline"><g stroke="#999999" stroke-width="3" id="g50892"><path d="M 0,16 V 0 h 16" id="path50884"/><path d="M 200,16 V 0 h -16" id="path50886"/><path d="m 0,184 v 16 h 16" id="path50888"/><path d="m 200,184 v 16 h -16" id="path50890"/></g></g><path id="path20142" style="color:#000000;fill:#000000" d="m 113.13579,142.64978 v 8.45582 h 7.90029 v 5.17953 h -7.90029 V 172.295 h 7.90805 v 5.17953 h -7.90805 v 8.45633 H 94.972046 v -1.26555 H 111.87024 V 165.64269 H 94.972046 v -2.70526 H 111.87024 V 143.91586 H 94.972046 v -1.26556 z m 19.40502,7.07089 v 6.68796 h 3.11712 l -5.95002,7.00629 -5.9521,-7.00629 h 3.11919 v -6.68796 z m -1.26556,1.264 h -3.13676 v 6.68797 h -1.65003 l 3.21841,3.77393 3.21893,-3.77393 h -1.65055 z m -11.50317,1.38648 h -6.63629 v 2.64842 h 6.63629 z m 17.32039,11.28614 v 1.26607 h -14.77119 v -1.26607 z m -7.38456,1.50843 5.95002,7.00629 h -3.11712 v 6.68797 H 126.875 v -6.68797 h -3.11919 z m -5.2e-4,1.96836 -3.21841,3.77393 h 1.65003 v 6.68796 h 3.13676 v -6.68796 h 1.65003 z m -9.92911,6.42648 h -6.6368 v 2.64841 h 6.6368 z"/></g></svg>