<svg version="1.1" xmlns="http://www.w3.org/2000/svg" xmlns:xlink="http://www.w3.org/1999/xlink" x="0px" y="0px" width="400px" height="200px" viewBox="0 0 400 200" enable-background="new 0 0 400 200" xml:space="preserve"><g id="svg22"><rect fill="#FFFFFF" width="200" height="200"/><path id="path6" fill="#A92121" d="M5.419,5.423h189.16v189.15H5.419V5.423z"/><path id="path8" fill="#FFFFFF" d="M50,50V38h-5C28.237,55.711,30,49,29.065,63.799l-6.388,0.024C23,39,21,46,44.459,24.865L53,25 v-5h16v6c4.563,0.101,8.964,0.601,13,2v9c-3.045,0.876-6.865,1.305-11,2l-0.208,10.963C81.425,53.288,88.101,57.82,88,69l-1,111H33 V69C34.982,53.741,42.445,50.263,50,50L50,50z"/><path id="path10" fill="#FFFFFF" d="M140.84,85.974C134.16,71.392,135,58.507,125,52.387C147.311,50,147.109,67.12,159.2,87.119 c6.161,10.209,9.296,12.113,19.261,19.134C167.578,107.367,154.971,109.008,140.84,85.974L140.84,85.974z"/><path id="path12" fill="#FFFFFF" d="M178.221,148.83c-10.1,8.964-25.396,7.83-35.73,0.123 c-9.084-9.199-13.227-19.521-28.508-22.043c24.088-14.799,35.884,7.03,42.401,12.638 C164.912,146.402,171.059,145.98,178.221,148.83L178.221,148.83z"/><path id="path14" fill="#FFFFFF" d="M178.54,116.43v22.555c-33.72-6.904-47.46-29.049-47.786-53.979 c18.753,20.208,21.385,26.81,47.786,31.427V116.43z"/><path id="path16" fill="#FFFFFF" d="M178.4,180.29c-28.332,0.931-42.125-5.755-47.351-30.64 c22.613,15.748,29.453,12.343,46.581,10.089C178.367,166.504,178.4,173.493,178.4,180.29L178.4,180.29z"/><path id="path18" fill="#FFFFFF" d="M177.52,73.365l0.758,21.609c-20.65-11.003-28.25-32.075-21.281-51.974 C164.007,59.483,164.132,66.157,177.52,73.365L177.52,73.365z"/><rect id="rect20" x="40" y="80" fill="#AB2323" width="40" height="25"/></g><g id="Layer_2"><rect x="200" fill="#FFFFFF" width="200" height="200"/><path fill="#A92121" d="M205.419,5.422h189.16v189.151h-189.16V5.422z"/><path fill="#FFFFFF" d="M258.28,35.152l44.844,44.845h-75.5v40h75l-44.844,44.844h49.5l44.844-44.844h0.5v-0.5l19.75-19.75 l-19.75-19.75L307.78,35.152H258.28z"/></g></svg>