<svg id="svg22" xmlns="http://www.w3.org/2000/svg" version="1.1" viewBox="0 0 200 200"><defs><style> .st0 { fill: #fff; } .st1 { fill: #a92121; fill-rule: evenodd; } </style></defs><path id="path6" class="st1" d="M5.4,5.4h189.2v189.1H5.4s0-189.1,0-189.1Z"/><path class="st0" d="M71,50v-11h2.9c1.4,0,2.7-.2,4-.6l4.4-1.3c0,0,0,0,0-.1v-8.3c0,0,0-.1,0-.1l-4.4-1.3c-1.3-.4-2.7-.6-4-.6h-5.4v-6.6h-16v5.4h-7.1c-.5,0-1.1.2-1.5.5-3.1,2.4-6.4,5.1-9.8,8.1-3,2.6-5.7,5.3-8.2,7.8s-.9,1.1-1,1.8c-.6,2.2-1.1,4.7-1.5,7.5-.7,4.7-.7,9-.5,12.5h6.4l1.2-9.6c.1-.8.5-1.6,1.1-2.2l12-11.7c.7-.6,1.6-1,2.5-1h4v11c-9.5.5-17,8.4-17,18v109.9c0,1.2,1,2.2,2.2,2.2h50.6c1.2,0,2.2-1,2.2-2.2v-109.9c0-9.6-7.5-17.5-17-18ZM80.5,105h-40v-25h40v25Z"/><path id="path14553-3-5" class="st0" d="M157.8,43c-1.9,7.3-2.5,15.9-1.1,23.4,2.8,10.6,9.2,18.8,17.2,25.6,1.4,1.3,3,2.1,4.6,3v-22c-4.8-.8-8.3-5-10.9-8.8-4.3-6.7-7.1-14-9.8-21.2h0ZM130.3,52.6c-1.1,0-2.3,0-3.4,0,6.3,4.8,8.3,12.1,10.4,19,2.2,7.6,4.9,14.8,9.2,21,8,10.6,20.2,15.3,32.1,11.9-10.5-4.4-17-14.7-21.9-23.5-4.4-7-5.6-15.7-11.5-21.5-4.3-4.1-9.2-7.1-14.8-7.1h0ZM132,84.4c-.7,13.6,3.9,24.9,12.1,34.4,8.7,10.2,22.7,15.4,34.4,19.2v-22c-7.5-.1-14.3-2.6-20.1-6.1-11.4-6.9-19.5-14.8-26.4-25.4h0ZM116.3,126.8c10.6,2.5,15.6,9.4,21.5,16.5,4.7,6.1,11,9.7,18,10.9,8.6,1.5,16.8.1,22.8-6.3-13.8-2.5-21.9-11-31.4-18.7-11-7.4-19.6-10.9-30.9-2.4ZM132,148.7c1.3,7,3.4,13.5,7.4,18.8,10.9,12.9,25.1,12.6,39.1,12.9v-22c-8.9,2.1-19.9,3.1-28.1,1.1-7.5-1.5-13.2-6-18.4-10.8h0Z"/></svg>