<svg width="200" height="200" version="1.1" xmlns="http://www.w3.org/2000/svg"><path d="m73.398 72.679a166.02 166.02 0 0 0-53.203 9.123 166.02 166.02 0 0 0-4.4668 36.395 166.02 166.02 0 0 0 4.4668 36.393 166.02 166.02 0 0 0 53.203 9.125 166.02 166.02 0 0 0 53.203-9.125 166.02 166.02 0 0 0 4.4668-36.393 166.02 166.02 0 0 0-4.1348-36.604 166.02 166.02 0 0 0-53.535-8.9141z" fill="none" stroke="#000" stroke-width="5"/><path d="m159.54 61.358-91.973 62.904" stroke="#000" stroke-width="5"/><g fill="none" stroke="#000" stroke-width="5"><path d="m82.762 92.573-15.195 31.689 35.038-2.6775"/><path d="m124.5 64.031 35.042-2.6709-15.2 31.682"/><path d="m130.64 127.25a166.02 166.02 0 0 0 49.163-9.0493 166.02 166.02 0 0 0 4.4668-36.393 166.02 166.02 0 0 0-4.1348-36.604 166.02 166.02 0 0 0-53.535-8.9141 166.02 166.02 0 0 0-53.203 9.123 166.02 166.02 0 0 0-4.1232 27.455"/></g> 
<g fill="none" stroke="#999" stroke-width="3">
  <path d="m0 16v-16h16"/>
  <path d="m200 16v-16h-16"/>
  <path d="m0 184v16h16"/>
  <path d="m200 184v16h-16"/>
 </g></svg>