<svg width="200" height="200" version="1.1" xmlns="http://www.w3.org/2000/svg">
 <g stroke="#000">
  <path d="m100 35.766a178.39 178.39 0 0 0-73.947 16.062 178.39 178.39 0 0 0-6.7734 48.172 178.39 178.39 0 0 0 6.7734 48.172 178.39 178.39 0 0 0 73.947 16.062 178.39 178.39 0 0 0 73.947-16.062 178.39 178.39 0 0 0 6.7734-48.172 178.39 178.39 0 0 0-6.7734-48.172 178.39 178.39 0 0 0-73.947-16.062z" fill="none" stroke-width="5"/>
  <path d="m103.3 71.02 50.457 28.98-50.457 28.98z" fill="none" stroke-width="5"/>
  <path d="m77.107 68.068v63.865" stroke-width="5"/>
  <path d="m50.914 68.068v63.865" stroke-width="5"/>
 </g>
 
<g fill="none" stroke="#999" stroke-width="3">
  <path d="m0 16v-16h16"/>
  <path d="m200 16v-16h-16"/>
  <path d="m0 184v16h16"/>
  <path d="m200 184v16h-16"/>
 </g></svg>