<svg width="200" height="200" version="1.1" xmlns="http://www.w3.org/2000/svg">
 <path d="m99.744 166.49c24.659 0 49.032-5.2883 71.511-15.523 5.1594-16.544 7.7639-33.751 7.7639-51.056 0-17.336-2.6139-34.573-7.7484-51.113-22.313-10.069-46.524-15.286-71.015-15.286-24.659 0-49.032 5.2883-71.511 15.523-5.1594 16.544-7.7639 33.751-7.7639 51.056 0 17.336 2.6139 34.573 7.7484 51.113 22.313 10.069 46.524 15.286 71.015 15.286z" fill="none" stroke="#000" stroke-width="5"/>
 <path d="m112.45 53.545a48.093 48.093 0 0 1 35.235 52.732 48.093 48.093 0 0 1-47.682 41.816 48.093 48.093 0 0 1-47.682-41.816 48.093 48.093 0 0 1 35.235-52.732" fill="none" stroke="#000" stroke-width="5"/>
 <circle cx="100" cy="100" r="6.7545"/>
 <path d="m100 64.112v35.888h-27.829" fill="none" stroke="#000" stroke-width="5"/>
 <circle cx="100" cy="51.907" r="6.7545"/>
 <path d="m22.881 22.881 154.24 154.24" fill="none" stroke="#000" stroke-width="5"/>
 <path d="m177.12 22.881-154.24 154.24" fill="none" stroke="#000" stroke-width="5"/>
 
<g fill="none" stroke="#999" stroke-width="3">
  <path d="m0 16v-16h16"/>
  <path d="m200 16v-16h-16"/>
  <path d="m0 184v16h16"/>
  <path d="m200 184v16h-16"/>
 </g></svg>