<svg width="200" height="200" version="1.1" xmlns="http://www.w3.org/2000/svg">
 <g fill="none">
  <g stroke="#999" stroke-width="3">
   <path d="m0 16v-16h16"/>
   <path d="m200 16v-16h-16"/>
   <path d="m0 184v16h16"/>
   <path d="m200 184v16h-16"/>
  </g>
  <g stroke="#000">
   <path d="m30.861 46.441v106.67" stroke-width="5"/>
   <path d="m12.584 136.93h176.18" stroke-width="5"/>
   <g stroke-width="5">
    <path d="m12.584 96.104h18.277"/>
    <path d="m12.584 55.28h18.277"/>
    <path d="m16.821 75.692h14.04"/>
    <path d="m16.821 116.52h14.04"/>
   </g>
   <path d="m30.936 116.67c5.5797 0.0561 11.168-0.89865 16.413-2.804 5.73-2.0816 10.986-5.2581 16.434-7.9931 5.4485-2.735 11.268-5.0729 17.361-5.2688 6.9604-0.22379 13.678 2.3519 20.103 5.0364 6.4258 2.6845 12.954 5.561 19.905 5.9912 5.1957 0.32155 10.412-0.75702 15.279-2.6034 4.8672-1.8464 9.4139-4.4463 13.805-7.2428 8.7816-5.5929 17.606-11.054 27.095-15.34 1.9125-0.86396 3.8637-1.444 5.6135-1.444" stroke-width="10"/>
  </g>
 </g>
</svg>