<svg width="200" height="200" version="1.1" xmlns="http://www.w3.org/2000/svg">
 <g fill="none">
  <g stroke="#999" stroke-width="3">
   <path d="m0 16v-16h16"/>
   <path d="m200 16v-16h-16"/>
   <path d="m0 184v16h16"/>
   <path d="m200 184v16h-16"/>
  </g>
  <g stroke="#000" stroke-width="6">
   <path d="M 100,24.495 A 75.505,75.505 0 0 1 175.505,100 75.505,75.505 0 0 1 100,175.505 75.505,75.505 0 0 1 24.495,100 75.505,75.505 0 0 1 100,24.495 Z"/>
   <path d="m32.516 66.136 43.513 75.41"/>
   <path d="m36.954 141.55 87.017-2e-3"/>
   <path d="m167.48 133.86-43.513-75.41"/>
   <path d="m163.05 58.452-87.017 0.0024"/>
   <path d="m104.46 175.37 43.487-75.373"/>
   <path d="M 95.543,24.627 52.056,100"/>
  </g>
 </g>
</svg>