<svg width="200" height="200" version="1.1" xmlns="http://www.w3.org/2000/svg"><g stroke="#000" stroke-width="5"><path d="m8.9701 102.98h97.264"/><path d="m126.26 160.9c-21.062 0-41.879-4.6065-61.078-13.522-4.4067-14.411-6.6312-29.4-6.6312-44.474 0-15.101 2.2326-30.116 6.618-44.523 19.058-8.7709 39.737-13.315 60.655-13.315 21.062 0 41.879 4.6065 61.078 13.522 4.4067 14.411 6.6312 29.4 6.6312 44.474 0 15.101-2.2326 30.116-6.618 44.523-19.058 8.7709-39.737 13.315-60.655 13.315z" fill="none"/><path d="m75.28 85.407 30.432 17.578-30.432 17.57" fill="none"/></g><circle transform="scale(-1,1)" cx="-149.79" cy="83.033" r="10.042"/><circle transform="scale(-1,1)" cx="-168.17" cy="113.48" r="10.042"/><circle transform="scale(-1,1)" cx="-132.38" cy="113.48" r="10.042"/><path d="m22.03 69.506v-17.414a12.882 12.993 0 0 1 12.882-12.993 12.882 12.993 0 0 1 12.882 12.993v17.414" fill="none" stroke="#000" stroke-width="5"/> 
<g fill="none" stroke="#999" stroke-width="3">
  <path d="m0 16v-16h16"/>
  <path d="m200 16v-16h-16"/>
  <path d="m0 184v16h16"/>
  <path d="m200 184v16h-16"/>
 </g></svg>