<svg width="200" height="200" version="1.1" xmlns="http://www.w3.org/2000/svg">
 <g fill="none" stroke="#999" stroke-width="3">
  <path d="m0 16v-16h16"/>
  <path d="m200 16v-16h-16"/>
  <path d="m0 184v16h16"/>
  <path d="m200 184v16h-16"/>
 </g>
 <path d="m37.924 151.8h124.15v-61.914h15.899l-37.933-37.933v-37.041h-17.979v19.062l-22.063-22.063-77.975 77.975h15.899z" fill="none" stroke="#000" stroke-width="5"/>
 <path d="m87.942 183.75h-4.4934v-16.934q-2.4626 2.3027-5.8047 3.4061v-4.0777q1.759-0.57568 3.8218-2.1748 2.0628-1.6151 2.8304-3.7579h3.6459z"/>
 <path d="m102.25 160.21q3.406 0 5.325 2.4306 2.2867 2.8784 2.2867 9.5465 0 6.6522-2.3027 9.5625-1.9029 2.3986-5.309 2.3986-3.422 0-5.5169-2.6225-2.0948-2.6385-2.0948-9.3866 0-6.6202 2.3027-9.5306 1.9029-2.3986 5.309-2.3986zm0 3.7259q-0.81554 0-1.4552 0.52769-0.63964 0.51171-0.99144 1.8549-0.46374 1.743-0.46374 5.8686 0 4.1256 0.41576 5.6768 0.41576 1.5351 1.0394 2.0468 0.63963 0.51171 1.4552 0.51171 0.81553 0 1.4552-0.51171 0.63964-0.5277 0.99144-1.8709 0.46373-1.727 0.46373-5.8527 0-4.1256-0.41576-5.6608-0.41576-1.5511-1.0554-2.0628-0.62364-0.52769-1.4392-0.52769z"/>
 <path d="m120.47 160.21q3.4061 0 5.325 2.4306 2.2867 2.8784 2.2867 9.5465 0 6.6522-2.3027 9.5625-1.9029 2.3986-5.309 2.3986-3.422 0-5.5168-2.6225-2.0948-2.6385-2.0948-9.3866 0-6.6202 2.3027-9.5306 1.9029-2.3986 5.309-2.3986zm0 3.7259q-0.81553 0-1.4552 0.52769-0.63963 0.51171-0.99143 1.8549-0.46373 1.743-0.46373 5.8686 0 4.1256 0.41576 5.6768 0.41576 1.5351 1.0394 2.0468 0.63964 0.51171 1.4552 0.51171 0.81554 0 1.4552-0.51171 0.63964-0.5277 0.99144-1.8709 0.46373-1.727 0.46373-5.8527 0-4.1256-0.41576-5.6608-0.41576-1.5511-1.0554-2.0628-0.62364-0.52769-1.4392-0.52769z"/>
 <path d="m155.79 183.75h-5.1491l-2.0468-5.325h-9.3706l-1.9349 5.325h-5.0211l9.1308-23.443h5.0051zm-8.715-9.2747-3.2302-8.699-3.1662 8.699z"/>
 <path d="m46.133 157.01v5.4121l13.445 5.5684-13.445 5.5703v5.4121l26.512-10.982-26.512-10.98z"/>
 <path d="m46.133 182.79h24.841" fill="none" stroke="#000" stroke-width="5"/>
</svg>