<svg width="200" height="200" version="1.1" xmlns="http://www.w3.org/2000/svg">
 <g fill="none" stroke="#999" stroke-width="3">
  <path d="m0 16v-16h16"/>
  <path d="m200 16v-16h-16"/>
  <path d="m0 184v16h16"/>
  <path d="m200 184v16h-16"/>
 </g>
 <path d="m85.004 70.094-20.649 33.911 7.3828 5.1758 15.451-25.371v27.586l-16.213 44.547h11.705l16.772-44.547h1.0932l16.772 44.547h11.705l-16.213-44.547v-27.586l15.451 25.371 7.3828-5.1758-20.649-33.911c-1.3571-2.2287-3.7778-3.5889-6.3872-3.5889h-17.217c-2.6094 0-5.0301 1.3602-6.3872 3.5889z"/>
 <circle cx="100" cy="52.963" r="8.9058"/>
 <rect x="33.184" y="33.184" width="133.63" height="133.63" rx="0" ry="0" fill="none" stroke="#000" stroke-width="5"/>
</svg>