<svg width="200" height="200" version="1.1" xmlns="http://www.w3.org/2000/svg">
 <g fill="none" stroke="#000" stroke-width="5">
  <path d="m53.814 140.69v-82.17c0-6.3381 5.1025-11.441 11.441-11.441h69.492c6.3381 0 11.441 5.1025 11.441 11.441v82.17"/>
  <path d="m146.19 140.68a46.186 46.186 0 0 1-23.093 39.999 46.186 46.186 0 0 1-46.186 0 46.186 46.186 0 0 1-23.093-39.999"/>
  <path d="m53.814 90.466h92.373"/>
  <path d="m100 47.076v43.39"/>
  <path d="m100 47.076c0-0.82527 0-1.6515 0.37951-2.7095 0.3795-1.0579 1.1386-2.3467 1.8625-4.2886s1.4124-4.5372 0.82147-7.0264c-0.59094-2.4892-2.4623-4.8726-3.5574-7.574-1.095-2.7013-1.4128-5.7203-1.0069-8.3602 0.40592-2.6399 1.5358-4.8997 2.4893-6.5418 0.95343-1.6421 1.7303-2.6661 2.5072-3.6902"/>
 </g>
 
<g fill="none" stroke="#999" stroke-width="3">
  <path d="m0 16v-16h16"/>
  <path d="m200 16v-16h-16"/>
  <path d="m0 184v16h16"/>
  <path d="m200 184v16h-16"/>
 </g></svg>