<svg width="200" height="200" version="1.1" xmlns="http://www.w3.org/2000/svg">
 <g fill="none" stroke="#999" stroke-width="3">
  <path d="m0 16v-16h16"/>
  <path d="m200 16v-16h-16"/>
  <path d="m0 184v16h16"/>
  <path d="m200 184v16h-16"/>
 </g>
 <rect x="82.772" y="32.06" width="34.456" height="34.456"/>
 <g fill="none" stroke="#000" stroke-width="5">
  <path d="m126.83 164.34a106.07 106.07 0 0 1-26.828 3.4488 106.07 106.07 0 0 1-26.828-3.4488"/>
  <path d="m126.83 89.678a106.07 106.07 0 0 1-26.828 3.4488 106.07 106.07 0 0 1-26.828-3.4488"/>
  <path d="m126.83 114.56a106.07 106.07 0 0 1-26.828 3.4488 106.07 106.07 0 0 1-26.828-3.4488"/>
  <path d="m126.83 139.45a106.07 106.07 0 0 1-26.828 3.4488 106.07 106.07 0 0 1-26.828-3.4488"/>
 </g>
</svg>