<svg width="200" height="200" version="1.1" xmlns="http://www.w3.org/2000/svg">
 <g fill="none">
  <g stroke="#999" stroke-width="3">
   <path d="m0.98522 16.828v-15.842h15.842"/>
   <path d="m199.01 16.828v-15.842h-15.842"/>
   <path d="m0.98522 183.17v15.842h15.842"/>
   <path d="m199.01 183.17v15.842h-15.842"/>
  </g>
  <g stroke="#000">
   <circle cx="100" cy="121.12" r="18.452" stroke-width="5"/>
   <path d="m124.55 83.756a44.707 44.707 0 0 1 20.161 37.366 44.707 44.707 0 0 1-20.36 37.496" stroke-width="5"/>
   <path d="m75.654 158.62a44.707 44.707 0 0 1-20.361-37.496 44.707 44.707 0 0 1 20.358-37.494" stroke-width="5"/>
   <path d="m100 80.454a95.734 95.734 0 0 0-78.059 40.668 95.734 95.734 0 0 0 78.059 40.668 95.734 95.734 0 0 0 78.171-40.818 95.734 95.734 0 0 0-78.171-40.517z" stroke-width="5"/>
   <g stroke-width="5">
    <path d="m62.958 37.945 8.0917 30.199"/>
    <path d="m137.04 37.945-8.0917 30.199"/>
    <path d="m185.4 61.34-18.655 25.088"/>
    <path d="m14.6 61.34 18.655 25.088"/>
   </g>
  </g>
 </g>
</svg>