<svg width="200" height="200" version="1.1" xmlns="http://www.w3.org/2000/svg">
 <g fill="none" stroke="#999" stroke-width="3">
  <path d="m0 16v-16h16"/>
  <path d="m200 16v-16h-16"/>
  <path d="m0 184v16h16"/>
  <path d="m200 184v16h-16"/>
 </g>
 <path d="m153.51 144.46-120.1 28.748v5.4746h120.1v-34.223zm-5 6.3379v22.885h-95.602l95.602-22.885z"/>
 <g fill="none" stroke="#000" stroke-width="5">
  <path d="m166.64 99.246a133.3 133.3 0 0 1-66.645 17.856 133.3 133.3 0 0 1-66.645-17.856"/>
  <path d="m153.53 76.508a107.05 107.05 0 0 1-53.529 14.345 107.05 107.05 0 0 1-53.529-14.345"/>
  <path d="m140.4 53.777a80.799 80.799 0 0 1-40.399 10.825 80.799 80.799 0 0 1-40.399-10.825"/>
  <path d="m127.28 31.04a54.549 54.549 0 0 1-27.283 7.3129 54.549 54.549 0 0 1-27.283-7.3129"/>
 </g>
</svg>