<svg width="200" height="200" version="1.1" xmlns="http://www.w3.org/2000/svg">
 <g fill="none" stroke="#999" stroke-width="3">
  <path d="m0 16v-16h16"/>
  <path d="m200 16v-16h-16"/>
  <path d="m0 184v16h16"/>
  <path d="m200 184v16h-16"/>
 </g>
 <g>
  <path d="m80.614 159.43-48.729-3.7076 5.7203-15.466 22.564-1.0593 1.1526-19.485c0.17274-4.5783 2.6518-8.6947 6.4733-10.749s8.3822-1.7213 11.909 0.86865c3.5266 2.5899 5.4625 7.0284 5.0549 11.59z"/>
  <path d="m119.7 151.31 15.73-0.59925-15.131-54.681 39.999-4.9438 3.8951-13.333-54.531 2.2472-29.213 18.127 13.034 23.221 15.281-2.9962z"/>
  <circle cx="121.6" cy="55.702" r="18.951"/>
  <path d="m37.552 22.552 141.95 141.95" stroke="#000" stroke-width="5"/>
 </g>
</svg>