<svg width="200" height="200" version="1.1" xmlns="http://www.w3.org/2000/svg">
 <g fill="none">
  <g stroke="#999" stroke-width="3">
   <path d="m0 16v-16h16"/>
   <path d="m200 16v-16h-16"/>
   <path d="m0 184v16h16"/>
   <path d="m200 184v16h-16"/>
  </g>
  <g stroke="#000">
   <g stroke-width="5">
    <path d="m169.11 39.104 9.4355 9.4355"/>
    <path d="m158.74 49.357 19.812 19.812"/>
    <path d="m158.74 69.987 19.812 19.812"/>
    <path d="m158.74 90.617 19.813 19.813"/>
    <path d="m158.74 111.25 19.812 19.812"/>
    <path d="m158.74 131.88 19.812 19.812"/>
    <path d="m158.74 152.51 9.1387 9.1387"/>
   </g>
   <path d="m19.002 161.27h162" stroke-width="10"/>
   <path d="m19.002 38.727h162" stroke-width="10"/>
   <g stroke-width="5">
    <path d="m158.75 161.27-0.0265-122.17"/>
    <path d="m178.55 161.27 0.0265-122.55"/>
    <path d="m31.892 39.104 9.4355 9.4355"/>
    <path d="m21.515 49.357 19.812 19.812"/>
    <path d="m21.514 69.987 19.812 19.812"/>
    <path d="m21.514 90.617 19.813 19.813"/>
    <path d="m21.514 111.25 19.812 19.812"/>
    <path d="m21.515 131.88 19.812 19.812"/>
    <path d="m21.515 152.51 9.1387 9.1387"/>
    <path d="m21.529 161.27-0.0265-122.17"/>
    <path d="m41.326 161.27 0.0265-122.55"/>
   </g>
  </g>
 </g>
</svg>