<svg width="200" height="200" version="1.1" xmlns="http://www.w3.org/2000/svg">
 <g fill="none">
  <g stroke="#999" stroke-width="3">
   <path d="m0 16v-16h16"/>
   <path d="m200 16v-16h-16"/>
   <path d="m0 184v16h16"/>
   <path d="m200 184v16h-16"/>
  </g>
  <g stroke="#000">
   <path d="m100 24.025c41.99 3e-6 75.975 33.985 75.975 75.975 0 41.99-33.985 75.975-75.975 75.975-41.99 0-75.975-33.985-75.975-75.975-2e-6 -41.99 33.985-75.975 75.975-75.975z" stroke-width="10"/>
   <path d="m100 40.339c32.974 3e-6 59.661 26.688 59.661 59.661 0 32.974-26.688 59.661-59.661 59.661-32.974 0-59.661-26.688-59.661-59.661-1e-6 -32.974 26.688-59.661 59.661-59.661z" stroke-width="5"/>
   <path d="m100 54.152c25.339 2e-6 45.848 20.509 45.848 45.848 0 25.339-20.509 45.848-45.848 45.848-25.339 0-45.848-20.509-45.848-45.848-1e-6 -25.339 20.509-45.848 45.848-45.848z" stroke-width="5"/>
  </g>
 </g>
</svg>