<svg width="200" height="200" version="1.1" xmlns="http://www.w3.org/2000/svg">
 <g fill="none" stroke="#999" stroke-width="3">
  <path d="m0 16v-16h16"/>
  <path d="m200 16v-16h-16"/>
  <path d="m0 184v16h16"/>
  <path d="m200 184v16h-16"/>
 </g>
 <g>
  <rect x="59.958" y="66.737" width="80.085" height="66.525"/>
  <path d="m47.754 80.885-15 17.387v34.992h15v-52.379zm104.49 0v52.379h15v-34.992l-15-17.387zm-129.28 28.732-15 17.387v6.2598h15v-23.646zm154.07 0v23.646h15v-6.2598l-15-17.387z"/>
  <path d="m15.466 153.6v-100.64m24.788 100.64v-100.64m144.28 100.64v-100.64m-24.788 100.64v-100.64" stroke-width="15"/>
 </g>
</svg>