<svg width="200" height="200" version="1.1" xmlns="http://www.w3.org/2000/svg">
 <path d="m100 4.9197-95.654 162.12h191.31z" fill="none" stroke="#000" stroke-width="5"/>
 <path d="m104.32 99.453c-6.7698-4.166-13.54-8.332-20.309-12.498-0.47036-0.28945-1.1682-0.20751-1.5588 0.18301-6.6856 6.6856-13.371 13.371-20.057 20.057-1.4212 1.4212-1.9763 3.4927-1.4561 5.4341 0.5202 1.9414 2.0366 3.4579 3.9781 3.9781 1.9414 0.52021 4.0129-0.0348 5.4341-1.4561l10.125-10.125a8.1447 8.1447 154.35 0 1 4.9778-2.3899 7.7729 7.7729 57.446 0 1 5.1339 6.0059l2.2462 7.7311a4.9019 4.9019 113.01 0 1-2.4233 5.7049l-13.05 6.8723a4.3467 4.3467 127.52 0 0-2.2132 2.8821l-0.75972 3.3404a6.7392 6.7392 86.284 0 0 0.24854 3.8266l1.2477 3.3828 49.449-14.878a14.597 14.597 8.875 0 1 12.472 1.9476l11.711 8.0474m-39.333-43.474c-4.7873-2.946-9.5747-5.8921-14.362-8.8381-0.47036-0.28945-1.2938-0.45349-1.8391-0.3664l-2.0238 0.32319a3.0844 3.0844 152.96 0 0-1.6946 0.8648l-2.9674 2.9674m30.698 0.82079c-3.6892-2.2703-7.3785-4.5406-11.068-6.8109-0.47036-0.28945-1.2994-0.52758-1.8516-0.53188l-3.2895-0.02559a2.3879 2.3879 157.72 0 0-1.7071 0.69933l-2.8965 2.8965m41.905 7.7175c-7.5487-4.6453-15.097-9.2907-22.646-13.936-0.47036-0.28945-1.2987-0.49952-1.8502-0.4692l-2.6992 0.14839a2.6151 2.6151 155.93 0 0-1.7056 0.762l-2.9372 2.9372" fill="none" stroke="#000" stroke-width="5"/>
 <path d="m34.112 158.55 0.13811-17.678 7.1816-20.44 6.2148 20.164 7.734-26.931 7.734 28.588v18.092l-7.734-24.583-7.4578 24.169-6.3529-19.887z"/>
 
<g fill="none" stroke="#999" stroke-width="3">
  <path d="m0 16v-16h16"/>
  <path d="m200 16v-16h-16"/>
  <path d="m0 184v16h16"/>
  <path d="m200 184v16h-16"/>
 </g></svg>