<svg width="200" height="200" version="1.1" xmlns="http://www.w3.org/2000/svg">
 <g fill="none" stroke="#000" stroke-width="5">
  <path d="m53.602 70.883a106.86 106.2 0 0 0-34.244 5.836 106.86 106.2 0 0 0-2.875 23.281 106.86 106.2 0 0 0 2.875 23.28 106.86 106.2 0 0 0 34.244 5.8372 106.86 106.2 0 0 0 34.244-5.8372 106.86 106.2 0 0 0 2.875-23.28 106.86 106.2 0 0 0-2.6613-23.415 106.86 106.2 0 0 0-34.458-5.7023z"/>
  <path d="m146.4 70.883a106.86 106.2 0 0 0-34.244 5.836 106.86 106.2 0 0 0-2.875 23.281 106.86 106.2 0 0 0 2.875 23.28 106.86 106.2 0 0 0 34.244 5.8372 106.86 106.2 0 0 0 34.244-5.8372 106.86 106.2 0 0 0 2.875-23.28 106.86 106.2 0 0 0-2.6613-23.415 106.86 106.2 0 0 0-34.458-5.7023z"/>
  <path d="m110.82 83.388 45.202 45.202"/>
  <path d="m109.31 100.62 28.039 28.039"/>
  <path d="m120.43 74.244 51.59 51.59"/>
  <path d="m136.39 71.459 45.508 45.508"/>
  <path d="m154.92 71.238 28.588 28.588"/>
 </g>
 
<g fill="none" stroke="#999" stroke-width="3">
  <path d="m0 16v-16h16"/>
  <path d="m200 16v-16h-16"/>
  <path d="m0 184v16h16"/>
  <path d="m200 184v16h-16"/>
 </g></svg>