<svg width="200" height="200" version="1.1" xmlns="http://www.w3.org/2000/svg">
 <g fill="none">
  <g stroke="#999" stroke-width="3">
   <path d="m0 16v-16h16"/>
   <path d="m200 16v-16h-16"/>
   <path d="m0 184v16h16"/>
   <path d="m200 184v16h-16"/>
  </g>
  <g stroke="#000" stroke-width="5">
   <circle cx="100" cy="100" r="50.486"/>
   <path d="m54.569 121.59 67.136-67.136"/>
   <path d="m49.876 103.68 54.005-54.005"/>
   <path d="m94.057 149.9 56.035-56.035"/>
   <path d="m76.792 144.56 67.947-67.947"/>
   <path d="m63.74 135.02 71.316-71.316"/>
   <path d="m81.266 53.188v-36.935h37.468v36.869"/>
   <path d="m10.487 100h25.168"/>
   <path d="m36.705 36.705 17.797 17.797"/>
   <path d="m163.3 36.705-17.797 17.797"/>
   <path d="m189.51 100h-25.168"/>
   <path d="m36.705 163.3 17.796-17.796"/>
   <path d="m100 189.51v-25.168"/>
   <path d="m163.3 163.3-17.796-17.796"/>
  </g>
 </g>
</svg>