<svg width="200" height="200" version="1.1" xmlns="http://www.w3.org/2000/svg">
 <g fill="none" stroke="#999" stroke-width="3">
  <path d="m0 16v-16h16"/>
  <path d="m200 16v-16h-16"/>
  <path d="m0 184v16h16"/>
  <path d="m200 184v16h-16"/>
 </g>
 <path d="m35.162 103 24.599-23.189 23.315 18.973-17.142 20.937a6.8041 6.8041 0 0 0 1.1831 9.7542l42.968 32.215a6.0403 6.0403 0 0 0 7.4692-9.4906l-36.742-30.337 19.728-18.777 72.375 62.976a5.4821 5.4821 0 0 0 7.5156-7.9711l-98.392-100.49 16.489-18.302 18.505 15.191a5.5673 5.5673 0 0 0 7.2697-8.4296l-21.308-19.298a6.3684 6.3684 0 0 0-8.7782 0.21706l-63.227 63.227-14.536-14.064a5.8259 5.8259 0 0 0-8.4164 8.0449l16.181 18.31a7.624 7.624 0 0 0 10.942 0.49912z"/>
 <path d="m55.667 34.303a15.431 15.431 0 0 1 0 21.823 15.431 15.431 0 0 1-21.823 0 15.431 15.431 0 0 1 1e-6 -21.823 15.431 15.431 0 0 1 21.823 0z"/>
</svg>