<svg width="200" height="200" version="1.1" xmlns="http://www.w3.org/2000/svg">
 <g fill="none" stroke="#999" stroke-width="3">
  <path d="m0 16v-16h16"/>
  <path d="m200 16v-16h-16"/>
  <path d="m0 184v16h16"/>
  <path d="m200 184v16h-16"/>
 </g>
 <path d="m100 61.783-7.2657 3e-6a33.059 33.333 0 0 0-28.63 16.666 33.059 33.333 0 0 0 0 33.333 33.059 33.333 0 0 0 28.63 16.666h7.2657"/>
 <path d="m100 28.999-8.0072 0.05093a65.715 66.066 0 0 0-56.911 33.033 65.715 66.066 0 0 0 0 66.066 65.715 66.066 0 0 0 56.911 33.033l8.0072 0.23166" fill="none" stroke="#000" stroke-width="5"/>
 <path d="m100 71.371 7.2657 3e-6a33.059 33.333 0 0 1 28.63 16.666 33.059 33.333 0 0 1 0 33.333 33.059 33.333 0 0 1-28.63 16.666h-7.2657"/>
 <path d="m100 38.587 8.0072 0.05093a65.715 66.066 0 0 1 56.911 33.033 65.715 66.066 0 0 1 0 66.066 65.715 66.066 0 0 1-56.911 33.033l-8.0072 0.23166" fill="none" stroke="#000" stroke-width="5"/>
</svg>