<svg width="200" height="200" version="1.1" xmlns="http://www.w3.org/2000/svg">
 <g fill="none">
  <path d="m21.822 31.78v126.69c0 8.2161 6.6144 14.83 14.831 14.83h126.69c8.2161 0 14.831-6.6144 14.831-14.83v-126.69" stroke="#000" stroke-width="5"/>
  <g stroke="#999" stroke-width="3">
   <path d="m0 16v-16h16"/>
   <path d="m200 16v-16h-16"/>
   <path d="m0 184v16h16"/>
   <path d="m200 184v16h-16"/>
  </g>
  <path d="m158.09 158.5c0-1.2428-3.0448-13.274-4.9808-20.07-3.7777-13.261-7.3795-24.462-12.002-35.908-1.451-3.5421-3.436-6.9383-6.2903-9.4888-2.473-2.2097-5.5268-3.7127-8.7189-4.6121-3.1921-0.89941-6.5262-1.2132-9.8426-1.2261-3.687-0.01441-7.4728 0.36551-10.774 2.0078-3.9787 1.9794-6.9188 5.6555-8.7816 9.6901s-2.7493 8.4429-3.4919 12.824c-1.1158 6.5835-1.941 13.213-2.643 19.854-0.56659 5.3595-1.0907 10.864-3.4716 15.699-1.1905 2.4175-2.8495 4.6333-4.9939 6.2652s-4.7924 2.6543-7.4871 2.6455c-2.9143-0.01-5.6846-1.1884-8.3336-2.4032-8.6944-3.987-17.094-8.5816-25.529-13.09" stroke="#000" stroke-width="5"/>
  <path d="m139.46 57.787a25.601 25.601 0 0 1-25.601 25.601 25.601 25.601 0 0 1-25.601-25.601 25.601 25.601 0 0 1 25.601-25.601 25.601 25.601 0 0 1 25.601 25.601z" stroke="#000" stroke-width="5"/>
 </g>
</svg>