<svg width="200" height="200" version="1.1" xmlns="http://www.w3.org/2000/svg">
 <g fill="none">
  <g stroke="#999" stroke-width="3">
   <path d="m0 16v-16h16"/>
   <path d="m200 16v-16h-16"/>
   <path d="m0 184v16h16"/>
   <path d="m200 184v16h-16"/>
  </g>
  <g stroke="#000" stroke-width="5">
   <path d="m59.996 153.5c-8.7704-7.1406-16.047-16.142-20.737-26.463-6.7203-14.526-7.5621-31.451-2.9342-46.719 1.7896-6.9574 5.4839-13.136 9.5382-18.989"/>
   <path d="m78.201 163.29c9.9297 2.1702 20.231 4.5677 30.378 2.2618 14.176-2.822 26.968-13.047 31.64-26.904 3.516-9.5524 4.6753-20.015 2.5846-30.025-0.57471-3.0267-1.5442-5.9574-2.5809-8.8524"/>
   <path d="m99.474 130.93c-7.3116-0.80076-14.742-2.8616-20.448-7.7144-5.8851-4.9663-9.2166-12.598-9.9892-20.164-1.0595-9.1921 2.4202-18.662 9.1698-24.985 6.0509-6.1141 14.719-9.3034 23.283-8.8657 7.305 0.13071 14.345 2.9474 20.556 6.6339 3.0036 1.8308 5.6079 4.2122 7.9157 6.8557m-71.385-34.906c7.7559-5.8092 16.487-10.434 25.976-12.621 19.135-4.4325 40.393-0.16297 55.718 12.324 7.5614 5.7151 13.998 12.995 18.075 21.599 4.2744 8.2435 6.9034 17.331 7.3515 26.622 0.11064 1.4526 0.20197 2.9066 0.29327 4.3605"/>
  </g>
 </g>
</svg>