<svg width="200" height="200" version="1.1" xmlns="http://www.w3.org/2000/svg">
 <g fill="none" stroke="#000">
  <path d="m100 4.9197-95.654 162.12h191.31z" stroke-width="5"/>
  <g stroke-width="5">
   <path d="m73.543 96.202a40 40 0 0 1 3.6096 16.605 40 40 0 0 1-3.6096 16.605"/>
   <path d="m63.536 100.77a29 29 0 0 1 2.6167 12.038 29 29 0 0 1-2.617 12.039"/>
   <path d="m53.527 105.33a18 18 0 0 1 1.6257 7.4754 18 18 0 0 1-1.625 7.4739"/>
  </g>
  <path d="m103.45 97.695c3.2142-1.768 7.4043-2.5137 10.535-0.1636 3.6949 2.0856 4.8068 6.6609 4.1079 10.597-0.40273 5.2092-3.765 9.8774-8.5077 12.026-3.0196 1.5034-6.4301 2.3254-9.8107 2.0913-1.015 6.5749-2.706 13.166-2.3686 19.86-0.0041 3.1156 2.7005 5.1193 5.4384 5.8737 5.3672 1.7665 11.87 1.1212 16.337-2.4976 3.0004-2.8 4.5473-6.8001 4.813-10.841 1.3124-7.3629 8.4277-11.643 10.628-18.631 3.2189-8.0404 2.4429-17.536-2.3471-24.789-5.7606-9.6243-17.673-15.568-28.799-13.014-7.2401 1.343-14.906 5.6709-17.018 13.187-1.4588 4.357-1.0789 9.4409 1.9226 13.076 3.3396 5.064 9.2967 7.6464 15.289 7.1391" stroke-width="5"/>
 </g>
 
<g fill="none" stroke="#999" stroke-width="3">
  <path d="m0 16v-16h16"/>
  <path d="m200 16v-16h-16"/>
  <path d="m0 184v16h16"/>
  <path d="m200 184v16h-16"/>
 </g></svg>