<svg width="200" height="200" version="1.1" xmlns="http://www.w3.org/2000/svg">
 <g fill="none">
  <g stroke="#999" stroke-width="3">
   <path d="m0 16v-16h16"/>
   <path d="m200 16v-16h-16"/>
   <path d="m0 184v16h16"/>
   <path d="m200 184v16h-16"/>
  </g>
  <g stroke="#000" stroke-width="5">
   <path d="m45.621 73.19a53.183 53.183 0 0 1 37.19-50.721 53.183 53.183 0 0 1 59.557 20.217 53.183 53.183 0 0 1-1.372 62.88 53.183 53.183 0 0 1-60.382 17.6"/>
   <path d="m110.99 109.88-32.412 13.603 29.142 22.887"/>
   <path d="m154.38 126.81a53.183 53.183 0 0 1-37.19 50.721 53.183 53.183 0 0 1-59.557-20.217 53.183 53.183 0 0 1 1.372-62.88 53.183 53.183 0 0 1 60.382-17.6"/>
   <path d="m89.015 90.119 32.412-13.603-29.142-22.887"/>
  </g>
 </g>
</svg>