<svg width="200" height="200" version="1.1" xmlns="http://www.w3.org/2000/svg"><g fill="none" stroke="#000" stroke-width="5"><path d="m45.566 147.28 13.484-3.1862 8.2095 34.742-13.484 3.1862z"/><path d="m69.404 187.91c-4.1653-17.627-8.3309-35.256-12.497-52.887"/><path d="m42.849 135.78-7.9041-33.45c-6.7463-27.07 3.9749-55.488 26.92-71.356 22.945-15.868 53.319-15.869 76.265-0.0034 22.947 15.866 33.67 44.284 26.926 71.354l-7.9004 33.456"/><path d="m154.44 147.28-13.484-3.1861-8.2094 34.742 13.484 3.1861z"/><path d="m130.6 187.91c4.1653-17.627 8.3309-35.256 12.497-52.887"/><path d="m110.28 84.216a28.919 28.919 0 0 1-28.919 28.919 28.919 28.919 0 0 1-28.919-28.919 28.919 28.919 0 0 1 28.919-28.919 28.919 28.919 0 0 1 28.919 28.919z"/><path d="m99.998 62.111a28.919 28.919 0 0 1 18.646-6.8141 28.919 28.919 0 0 1 28.919 28.919 28.919 28.919 0 0 1-28.919 28.919 28.919 28.919 0 0 1-18.659-6.8249"/></g> 
<g fill="none" stroke="#999" stroke-width="3">
  <path d="m0 16v-16h16"/>
  <path d="m200 16v-16h-16"/>
  <path d="m0 184v16h16"/>
  <path d="m200 184v16h-16"/>
 </g></svg>