<svg
   width="53.710388mm"
   height="53.710449mm"
   viewBox="0 0 53.710388 53.710449"
   version="1.1"
   id="svg20990"
   xml:space="preserve"
   xmlns:inkscape="http://www.inkscape.org/namespaces/inkscape"
   xmlns:sodipodi="http://sodipodi.sourceforge.net/DTD/sodipodi-0.dtd"
   xmlns="http://www.w3.org/2000/svg"
   xmlns:svg="http://www.w3.org/2000/svg"><sodipodi:namedview
     id="namedview20992"
     pagecolor="#ffffff"
     bordercolor="#000000"
     borderopacity="0.25"
     inkscape:showpageshadow="2"
     inkscape:pageopacity="0.0"
     inkscape:pagecheckerboard="0"
     inkscape:deskcolor="#d1d1d1"
     inkscape:document-units="mm"
     showgrid="false"
     showguides="false" /><defs
     id="defs20987" /><g
     inkscape:label="Layer 1"
     inkscape:groupmode="layer"
     id="layer1"
     transform="translate(-905.22054,-623.09227)"><path
       d="m 932.07574,624.81877 -25.30845,42.89425 h 50.61744 z"
       stroke-width="1.32292"
       id="path36187"
       style="fill:none;stroke:#000000" /><g
       fill="none"
       stroke="#999999"
       stroke-width="3"
       id="g36203"
       transform="matrix(0.26458333,0,0,0.26458333,905.61741,623.48917)"><path
         d="M 0,16 V 0 h 16"
         id="path36195" /><path
         d="M 200,16 V 0 h -16"
         id="path36197" /><path
         d="m 0,184 v 16 h 16"
         id="path36199" /><path
         d="m 200,184 v 16 h -16"
         id="path36201" /></g><path
       id="path37434"
       style="color:#000000;fill:#000000;-inkscape-stroke:none"
       d="m 931.91195,639.11706 c -4.71706,0 -7.44297,2.5294 -8.84546,4.99815 -1.40249,2.46875 -1.60558,4.92786 -1.60558,4.92786 l -0.002,0.0295 v 6.99957 h 1.45314 v -6.92774 c 0.003,-0.034 0.19967,-2.16783 1.418,-4.3124 1.22805,-2.16169 3.36708,-4.26176 7.58197,-4.26176 4.21489,0 6.35392,2.10007 7.58197,4.26176 1.21832,2.14457 1.4149,4.27841 1.418,4.3124 v 6.92774 h 1.45314 v -6.99957 l -0.002,-0.0295 c 0,0 -0.20465,-2.45911 -1.60714,-4.92786 -1.40248,-2.46875 -4.12686,-4.99815 -8.8439,-4.99815 z m -2.40451,2.80655 v 3.76514 c -1.43789,0.85411 -2.40605,2.42307 -2.40605,4.20957 0,2.69297 2.19975,4.89479 4.89272,4.89479 2.69299,0 4.89428,-2.20182 4.89428,-4.89479 0,-1.78675 -0.96932,-3.35606 -2.40812,-4.21008 v -3.76463 z m 1.45315,1.45314 h 2.06654 v 1.73995 c -0.3333,-0.0722 -0.67882,-0.11059 -1.03302,-0.11059 -0.35436,0 -0.70013,0.0383 -1.03352,0.11059 z m -4.19096,0.39842 -1.02733,1.02733 1.3069,1.30483 1.02732,-1.02733 z m 10.28516,0 -1.30638,1.30483 1.02733,1.02733 1.30638,-1.30483 z m -5.06068,2.87115 c 1.80579,0 3.252,1.4462 3.252,3.252 0,1.80578 -1.44621,3.25406 -3.252,3.25406 -1.80578,0 -3.25199,-1.44828 -3.25199,-3.25406 0,-1.8058 1.44621,-3.252 3.25199,-3.252 z m -8.01914,2.66598 v 1.45315 h 1.84536 v -1.45315 z m 14.02705,0 v 1.45315 h 1.84795 v -1.45315 z m -10.95282,4.47105 -1.3069,1.30638 1.02733,1.02733 1.30689,-1.30638 z m 9.72654,0 -1.02733,1.02733 1.30638,1.30638 1.02733,-1.02733 z m -15.3169,3.15588 v 2.85202 h 20.90622 v -2.85202 z m 0.1757,3.69745 -2.66599,2.66599 1.02733,1.02732 2.66599,-2.66598 z m 20.88296,0 -1.02732,1.02733 2.66598,2.66598 1.02733,-1.02732 z m -11.16831,0.32608 v 3.76979 h 1.45314 v -3.76979 z" /></g></svg>