<svg width="200" height="200" version="1.1" xmlns="http://www.w3.org/2000/svg">
 <g fill="none">
  <g stroke="#999" stroke-width="3">
   <path d="m0 16v-16h16"/>
   <path d="m200 16v-16h-16"/>
   <path d="m0 184v16h16"/>
   <path d="m200 184v16h-16"/>
  </g>
  <g stroke="#000">
   <g stroke-width="5">
    <path d="m169.11 38.726 9.4375 9.4375"/>
    <path d="m148.48 38.726 30.068 30.068"/>
    <path d="m127.85 38.726 50.697 50.697"/>
    <path d="m115.63 47.132 62.922 62.922"/>
    <path d="m115.63 67.763 62.921 62.921"/>
    <path d="m115.63 88.394 62.921 62.921"/>
    <path d="m115.63 109.02 52.25 52.25"/>
    <path d="m115.63 129.65 31.619 31.619"/>
    <path d="m115.63 150.28 10.99 10.99"/>
   </g>
   <path d="m19.002 160.9h162" stroke-width="10"/>
   <path d="m178.55 160.9 0.0265-122.55" stroke-width="5"/>
   <path d="m181 38.352h-162" stroke-width="10"/>
   <g stroke-width="5">
    <path d="m115.65 38.352-0.0265 122.55"/>
    <path d="m74.986 38.727 9.4375 9.4375"/>
    <path d="m54.356 38.726 30.068 30.068"/>
    <path d="m33.726 38.727 50.697 50.697"/>
    <path d="m21.502 47.133 62.922 62.922"/>
    <path d="m21.502 67.764 62.921 62.921"/>
    <path d="m21.502 88.394 62.921 62.921"/>
    <path d="m21.502 109.02 52.25 52.25"/>
    <path d="m21.502 129.65 31.619 31.619"/>
    <path d="m21.501 150.28 10.99 10.99"/>
    <path d="m84.423 160.9 0.0265-122.55"/>
    <path d="m21.529 38.352-0.0265 122.55"/>
   </g>
  </g>
 </g>
</svg>