<svg width="200" height="200" version="1.1" xmlns="http://www.w3.org/2000/svg">
 <g fill="none" stroke="#999" stroke-width="3">
  <path d="m0 16v-16h16"/>
  <path d="m200 16v-16h-16"/>
  <path d="m0 184v16h16"/>
  <path d="m200 184v16h-16"/>
 </g>
 <path d="m68.885 51.203-13.905 54.583 25.468-13.633-5.8426 41.048-9.7195-11.583 9.8922 27.179 17.465-23.505-12.626 8.3205 14.611-53.161-26.92 14.41 17.334-43.659z"/>
 <path d="m103.07 66.011 19.775-10.412-5.1685 10.487 13.558-5.6928-6.5917 14.382h30.412l-27.565 16.329 10.637 3.4456-10.112 5.0187 20.449 12.359-24.419-3.8951 7.1909 9.7377-8.8388-3.146 9.5879 22.921-24.12-22.172 0.89886 14.082-5.6928-11.236v-11.685l10.936 6.7415-4.5692-12.659 8.6141 0.37452-4.5692-4.8689 4.3445-0.59924-6.9662-4.1198 10.337-7.3407-12.809-0.89886 5.3183-8.7639-10.637-0.48688z"/>
 <path d="m32.627 126.27c0 14.298 3.5241 26.639 11.41 37.939 7.8857 11.3 19.539 19.921 32.651 24.156 6.6704 2.1545 13.731 3.2217 20.038 6.2801 1.1227 0.54439 2.2159 1.1496 3.2732 1.8122 1.0573-0.66255 2.1505-1.2678 3.2732-1.8122 6.3074-3.0584 13.368-4.1256 20.038-6.2801 13.112-4.2351 24.766-12.857 32.651-24.156 7.8857-11.3 11.41-23.641 11.41-37.939v-107.4h-134.75z" fill="none" stroke="#000" stroke-width="5"/>
</svg>