<svg width="200" height="200" version="1.1" xmlns="http://www.w3.org/2000/svg">
 <g fill="none">
  <g stroke="#999" stroke-width="3">
   <path d="m0 16v-16h16"/>
   <path d="m200 16v-16h-16"/>
   <path d="m0 184v16h16"/>
   <path d="m200 184v16h-16"/>
  </g>
  <g stroke="#000" stroke-width="5">
   <path d="m30.508 163.56h138.98l-17.865-127.12h-103.25z"/>
   <path d="m117.38 139.77c-1.7642-5.0394-3.3633-10.137-4.7939-15.281-2.2815-8.2035-4.137-16.542-5.1152-25.001-1.1304-9.7752-1.0749-19.745 0.92052-29.381 1.278-6.1715 3.3477-12.179 6.1422-17.827"/>
   <path d="m82.62 139.77c1.7642-5.0394 3.3633-10.137 4.7939-15.281 2.2815-8.2035 4.137-16.542 5.1152-25.001 1.1304-9.7752 1.0749-19.745-0.92052-29.381-1.278-6.1715-3.3477-12.179-6.1422-17.827"/>
  </g>
 </g>
 <rect x="93.173" y="78.647" width="13.558" height="16.055"/>
</svg>