<svg width="200" height="200" version="1.1" xmlns="http://www.w3.org/2000/svg">
 <g fill="none" stroke="#999" stroke-width="3">
  <path d="m0 16v-16h16"/>
  <path d="m200 16v-16h-16"/>
  <path d="m0 184v16h16"/>
  <path d="m200 184v16h-16"/>
 </g>
 <g>
  <path d="m69.193 16.701v101.79h31.322c0.84408 0 1.6663-0.1913 2.4102-0.54687 0.74383-0.35558 1.4085-0.87563 1.9394-1.5293l0.50196-0.61719 2e-3 -2e-3 27.879-34.322c1.5569-1.9169 2.4043-4.3161 2.4043-6.7891v-57.988zm5 5h56.459v52.988c0 1.3295-0.45782 2.6157-1.2871 3.6367l-1.0137 1.248c-0.69887 0.86044-1.7273 1.3496-2.8125 1.3496h-23.676v30.66c0 0.39178-0.13647 0.76768-0.37695 1.0645v2e-3l-0.50195 0.61719c-0.12304 0.15148-0.29058 0.22851-0.46876 0.22851h-26.322z"/>
  <path d="m18.215 40.68v101.79h105.47c1.6882 0 3.2878-0.76688 4.3496-2.0742l0.50196-0.61914 27.881-34.324c1.5569-1.9169 2.4043-4.3161 2.4043-6.7891v-57.988h-25.674v5h20.674v52.988c0 1.3295-0.45782 2.6157-1.2871 3.6367l-1.0137 1.248c-0.69887 0.86045-1.7273 1.3496-2.8125 1.3496h-23.676v30.66c0 0.39242-0.13573 0.76941-0.37695 1.0664l-0.50196 0.61914c-0.12304 0.15148-0.29057 0.22656-0.46875 0.22656h-100.47v-91.795h48.479v-5z"/>
  <path d="m156.33 53.031v5h22.541v66.547c0 1.3295-0.45782 2.6157-1.2871 3.6367l-1.0137 1.25-4e-3 4e-3c-0.69879 0.8577-1.7252 1.3438-2.8086 1.3438h-23.676v30.66c0 0.39241-0.13572 0.76941-0.37695 1.0664l-0.50195 0.61914c-0.12304 0.15149-0.29057 0.22852-0.46875 0.22852h-125.52v-107.86h-5v112.86h130.52c1.6882 0 3.2878-0.76884 4.3496-2.0762l0.50195-0.61914 26.861-33.07 4e-3 -4e-3 1.0137-1.25c1.5569-1.9169 2.4062-4.3161 2.4062-6.7891v-71.547z"/>
 </g>
</svg>