<svg width="200" height="200" version="1.1" xmlns="http://www.w3.org/2000/svg">
 <g fill="none">
  <g stroke="#999" stroke-width="3">
   <path d="m0 16v-16h16"/>
   <path d="m200 16v-16h-16"/>
   <path d="m0 184v16h16"/>
   <path d="m200 184v16h-16"/>
  </g>
  <g stroke="#000" stroke-width="5">
   <path d="m100 182.1v-164.19"/>
   <path d="m71.948 33.857v40.051a21.728 21.728 67.5 0 0 6.364 15.364l21.688 21.688"/>
   <path d="m100 152.68-50.503-50.503a21.728 21.728 67.5 0 1-6.364-15.364v-19.997"/>
   <path d="m100 135.64 46.371-46.371a21.728 21.728 112.5 0 0 6.364-15.364v-7.0927"/>
   <path d="m120.03 115.61h23.704a21.554 21.554 157.34 0 0 15.327-6.4002l9.0521-9.1561"/>
   <path d="m100 89.272 21.058-17.052a18.869 18.869 115.5 0 0 6.9943-14.664v-23.699"/>
  </g>
 </g>
</svg>