<svg width="200" height="200" version="1.1" xmlns="http://www.w3.org/2000/svg">
 <g fill="none" stroke="#000">
  <path d="m100 4.9197-95.654 162.12h191.31z" stroke-width="5"/>
  <circle cx="83.295" cy="106.52" r="22.022" stroke-width="5"/>
  <g stroke-width="5">
   <path d="m83.295 84.493v-7.4156"/>
   <path d="m139.07 120.58c0.6393-2.3859 1.2791-4.7735 1.9193-7.163"/>
   <path d="m94.306 87.444c1.235-2.1391 2.471-4.2798 3.7078-6.4221"/>
   <path d="m102.37 95.504c2.1391-1.235 4.2798-2.471 6.4221-3.7078"/>
   <path d="m105.32 106.52h7.4156"/>
   <path d="m102.37 117.53c2.1391 1.235 4.2798 2.471 6.4221 3.7078"/>
   <path d="m94.306 125.59c1.235 2.1391 2.471 4.2798 3.7078 6.4221"/>
   <path d="m83.295 128.54v7.4156"/>
   <path d="m72.284 125.59c-1.235 2.1391-2.471 4.2798-3.7078 6.4221"/>
   <path d="m64.223 117.53c-2.1391 1.235-4.2798 2.471-6.4221 3.7078"/>
   <path d="m61.273 106.52h-7.4156"/>
   <path d="m64.223 95.504c-2.1391-1.235-4.2798-2.471-6.4221-3.7078"/>
   <path d="m72.284 87.444c-1.235-2.1391-2.471-4.2798-3.7078-6.4221"/>
  </g>
  <circle cx="134.53" cy="137.53" r="17.539" stroke-width="5"/>
  <g stroke-width="5">
   <path d="m146.93 125.12c1.7466-1.7466 3.4945-3.4945 5.2436-5.2436"/>
   <path d="m151.47 132.99c2.3859-0.6393 4.7735-1.2791 7.163-1.9193"/>
   <path d="m151.47 142.07c2.3859 0.6393 4.7735 1.2791 7.1629 1.9193"/>
   <path d="m146.93 149.93c1.7466 1.7466 3.4944 3.4944 5.2436 5.2436"/>
   <path d="m139.07 154.47c0.63929 2.3859 1.2791 4.7735 1.9193 7.1629"/>
   <path d="m129.99 154.47c-0.6393 2.3859-1.2791 4.7735-1.9193 7.163"/>
   <path d="m122.13 149.93c-1.7466 1.7466-3.4945 3.4945-5.2436 5.2436"/>
   <path d="m117.59 142.07c-2.3859 0.6393-4.7735 1.2791-7.163 1.9193"/>
   <path d="m117.59 132.99c-2.3859-0.6393-4.7735-1.2791-7.1629-1.9193"/>
   <path d="m122.13 125.12c-1.7466-1.7466-3.4944-3.4944-5.2436-5.2436"/>
   <path d="m129.99 120.58c-0.63929-2.3859-1.2791-4.7735-1.9193-7.1629"/>
  </g>
 </g>
 
<g fill="none" stroke="#999" stroke-width="3">
  <path d="m0 16v-16h16"/>
  <path d="m200 16v-16h-16"/>
  <path d="m0 184v16h16"/>
  <path d="m200 184v16h-16"/>
 </g></svg>