<svg width="200" height="200" version="1.1" xmlns="http://www.w3.org/2000/svg">
 <g fill="none" stroke="#999" stroke-width="3">
  <path d="m0 16v-16h16"/>
  <path d="m200 16v-16h-16"/>
  <path d="m0 184v16h16"/>
  <path d="m200 184v16h-16"/>
 </g>
 <circle cx="137.79" cy="56.374" r="9.2528"/>
 <path d="m122.1 70.766c-2.9469 0-5.3185 2.3729-5.3185 5.3198v44.8h7.1508v-34.211h3.7744v75.255h8.2028v-46.028h3.7744v46.028h8.2028v-75.255h3.7744v34.211h7.1508v-44.8c0-2.9469-2.3716-5.3198-5.3185-5.3198z"/>
 <circle cx="67.714" cy="36.511" r="12.215"/>
 <path d="m46.992 55.511c-3.8904 0-7.0213 3.1327-7.0213 7.0231v59.144h9.4403v-45.165h4.9829v99.349h10.829v-60.766h4.9829v60.766h10.829v-99.349h4.9829v45.165h9.4403v-59.144c0-3.8904-3.1309-7.0231-7.0213-7.0231z"/>
 <path d="m100.27 66.997 75.058 75.058" fill="none" stroke="#000" stroke-width="5"/>
 <path d="m175.32 66.997-75.058 75.058" fill="none" stroke="#000" stroke-width="5"/>
</svg>