<svg width="200" height="200" version="1.1" xmlns="http://www.w3.org/2000/svg">
 <g fill="none" stroke="#000" stroke-width="5">
  <path d="m100.26 166.49c-24.659 0-49.032-5.2883-71.511-15.523-5.1594-16.544-7.7639-33.751-7.7639-51.056 0-17.336 2.6139-34.573 7.7484-51.113 22.313-10.069 46.524-15.286 71.015-15.286 24.659 0 49.032 5.2883 71.511 15.523 5.1594 16.544 7.7639 33.751 7.7639 51.056 0 17.336-2.6139 34.573-7.7484 51.113-22.313 10.069-46.524 15.286-71.015 15.286z"/>
  <path d="m104.01 123.74h58.318l-29.159-51.927z"/>
  <path d="m41.88 69.664h45.568"/>
  <path d="m41.88 99.974h45.568"/>
  <path d="m41.88 130.28h45.568"/>
 </g>
 
<g fill="none" stroke="#999" stroke-width="3">
  <path d="m0 16v-16h16"/>
  <path d="m200 16v-16h-16"/>
  <path d="m0 184v16h16"/>
  <path d="m200 184v16h-16"/>
 </g></svg>