<svg width="200" height="200" version="1.1" xmlns="http://www.w3.org/2000/svg">
 <g fill="none" stroke="#999" stroke-width="3">
  <path d="m0 16v-16h16"/>
  <path d="m200 16v-16h-16"/>
  <path d="m0 184v16h16"/>
  <path d="m200 184v16h-16"/>
 </g>
 <path d="m175.03 100a75.029 74.712 0 0 1-75.029 74.712 75.029 74.712 0 0 1-75.029-74.712 75.029 74.712 0 0 1 75.029-74.712 75.029 74.712 0 0 1 75.029 74.712z" fill="none" stroke="#000" stroke-width="7"/>
 <path d="m113.21 100a13.208 13.208 0 0 1-13.208 13.208 13.208 13.208 0 0 1-13.208-13.208 13.208 13.208 0 0 1 13.208-13.208 13.208 13.208 0 0 1 13.208 13.208z" stroke-width="5"/>
 <path d="m24.973 100c-0.30298 28.447 15.511 53.537 40.619 63.385 21.007 8.9959 46.566 5.9341 64.686-8.0471 21.895-15.983 31.201-47.432 20.06-72.422-7.8796-19.576-29.114-33.344-50.336-30.48-19.345 2.2525-35.756 18.747-37.838 38.128-2.7312 18.348 8.1482 38.456 26.281 44.041 16.312 5.836 36.101-3.2143 42.147-19.495 6.1454-14.204 0.57761-33.244-14.036-39.746-11.151-5.5272-26.053-0.44423-31.132 11.03-4.9751 9.7916-2.0956 24.691 9.1152 28.66 8.496 3.3112 18.389-4.6671 17.007-13.705-0.40695-8.8683-11.529-14.916-18.922-9.5648-2.7844 1.838-4.6977 4.9154-5.1559 8.2158" fill="none" stroke="#000" stroke-width="7"/>
</svg>