<svg width="200" height="200" version="1.1" xmlns="http://www.w3.org/2000/svg"><path d="m99.999 4.9197-95.654 162.12h191.31z" fill="none" stroke="#000" stroke-width="5"/><path d="m112.94 108.2c-0.78177-0.1341-1.6033-0.0333-2.3477 0.32227l-19.67 9.3965c-1.4829 0.70834-2.1649 1.9127-2.6055 3.0859-0.44055 1.1733-0.6211 2.427-0.41797 3.7441 0.38058 2.4677 2.0555 4.5547 4.3828 5.459 2.5561 0.9931 4.8709-0.0515 6.4121-0.79296l8.6391-4.1564a3.0253 3.0253 7.776 0 1 3.3061 0.45147l1.9865 1.7418a4.4135 4.4135 65.622 0 1 1.5038 3.3186v1.4551a2.3786 2.3786 130.06 0 1-1.9703 2.3433l-13.03 2.27c-1.148 0.20002-2.2053 0.75027-3.0293 1.5742l-0.53516 0.53321c-0.92089 0.9209-1.4375 2.1722-1.4375 3.4746v6.7949h44.104c3.8199 0 7.4805 1.5157 10.182 4.2168l7.877 7.875 3.5352-3.5352-7.875-7.875c-3.6374-3.6374-8.5746-5.6816-13.719-5.6816h-39.104v-1.7598l0.50781-0.50781c0.09637-0.0964 0.2193-0.16021 0.35352-0.1836l17.17-2.9925a2.3787 2.3787 130.06 0 0 1.9703-2.3434v-7.9238a4.413 4.413 65.62 0 0-1.5039-3.3184l-6.1758-5.414a3.0257 3.0257 7.7741 0 0-3.3062-0.45137l-11.616 5.588c-1.3571 0.65291-1.9945 0.81003-2.4355 0.63867-0.66977-0.26023-1.1424-0.85041-1.252-1.5606-0.04192-0.27181 0.01238-0.83625 0.1582-1.2246 0.14582-0.38835 0.40211-0.48678 0.07813-0.33203l18.977-9.0644 13.561 13.559 3.5352-3.5352-9.3711-9.373 0.21484-0.12305c0.18741-0.1082 0.39883-0.16601 0.61524-0.16601h1.2363l11.012 11.014 3.5371-3.5371-7.1699-7.1699 0.24414-0.14063c0.18741-0.1082 0.39883-0.16601 0.61523-0.16601h1.1894l8.5469 8.5469 3.5352-3.5371-4.6875-4.6875 0.13086-0.0742c0.20667-0.11932 0.43891-0.18344 0.67773-0.18945l1.252-0.0312 15.715 15.715 3.5352-3.5352-15.766-15.768c-0.93495-0.93495-2.2153-1.4472-3.5371-1.4141l-1.3242 0.0332c-1.0732 0.027-2.1228 0.32249-3.0527 0.85937l-1.2891 0.7461-0.22462-0.22461c-0.92092-0.92091-2.1742-1.4394-3.4766-1.4394h-1.2246c-1.0938 0-2.1679 0.28901-3.1152 0.83593l-1.4062 0.81055-0.20703-0.20703c-0.92091-0.92091-2.1722-1.4394-3.4746-1.4394h-1.2715c-1.0938 0-2.168 0.28901-3.1152 0.83593l-1.375 0.79297-1.0703-1.0703c-0.58333-0.58333-1.3257-0.95183-2.1074-1.0859z"/><g fill="none" stroke="#000" stroke-width="5"><path d="m94.32 102.83c0.88651-1.4666 1.7773-2.9474 2.4699-4.6573 0.69275-1.7099 1.1829-3.6831 1.182-5.7169-6.88e-4 -2.0333-0.49231-4.0048-1.1852-5.7141-0.6929-1.7092-1.5828-3.1903-2.4668-4.6601-0.88406-1.4697-1.7739-2.9508-2.4668-4.6601-0.6929-1.7092-1.1844-3.6807-1.1852-5.7141-6.83e-4 -2.0337 0.48929-4.007 1.182-5.7169 0.69275-1.7099 1.5835-3.1908 2.4699-4.6573"/><path d="m107.35 102.83c0.88651-1.4666 1.7773-2.9474 2.4699-4.6573 0.69276-1.7099 1.1829-3.6831 1.182-5.7169-6.9e-4 -2.0333-0.49231-4.0048-1.1852-5.7141-0.6929-1.7092-1.5828-3.1903-2.4668-4.6601-0.88405-1.4697-1.7739-2.9508-2.4668-4.6601-0.6929-1.7092-1.1844-3.6807-1.1852-5.7141-6.8e-4 -2.0337 0.48929-4.007 1.182-5.7169 0.69276-1.7099 1.5835-3.1908 2.4699-4.6573"/><path d="m120.38 102.83c0.88651-1.4666 1.7773-2.9474 2.4699-4.6573 0.69276-1.7099 1.1829-3.6831 1.182-5.7169-6.9e-4 -2.0333-0.49231-4.0048-1.1852-5.7141-0.6929-1.7092-1.5828-3.1903-2.4668-4.6601-0.88405-1.4697-1.7739-2.9508-2.4668-4.6601-0.6929-1.7092-1.1844-3.6807-1.1852-5.7141-6.8e-4 -2.0337 0.48929-4.007 1.182-5.7169 0.69276-1.7099 1.5835-3.1908 2.4699-4.6573"/></g><path d="m67.413 81.176 9.8242 20.715h-13.881l22.209 26.482-9.8223-20.715h13.881z"/><rect x="47.766" y="128.37" width="41.858" height="10.465"/> 
<g fill="none" stroke="#999" stroke-width="3">
  <path d="m0 16v-16h16"/>
  <path d="m200 16v-16h-16"/>
  <path d="m0 184v16h16"/>
  <path d="m200 184v16h-16"/>
 </g></svg>