<svg width="200" height="200" version="1.1" xmlns="http://www.w3.org/2000/svg">
 <g fill="none" stroke="#999" stroke-width="3">
  <path d="m0 16v-16h16"/>
  <path d="m200 16v-16h-16"/>
  <path d="m0 184v16h16"/>
  <path d="m200 184v16h-16"/>
 </g>
 <path d="m74.412 183.09h-17.078l23.97-64.829-1e-6 -42.578-23.325 38.348-10.874-8.022 21.534-35.403c5.6418-9.2755 8.979-14.762 11.337-17.505s3.735-2.7434 6.952-2.7434h26.147c3.217 0 4.5942 0 6.952 2.7434s5.695 8.2299 11.337 17.505l21.534 35.403-10.874 8.022-23.325-38.348-1e-5 42.578 23.97 64.829h-17.078l-25.588-67.241z"/>
 <circle cx="100.26" cy="30.363" r="13.453"/>
</svg>