<svg width="200" height="200" version="1.1" xmlns="http://www.w3.org/2000/svg">
 <g fill="none" stroke="#999" stroke-width="3">
  <path d="m0 16v-16h16"/>
  <path d="m200 16v-16h-16"/>
  <path d="m0 184v16h16"/>
  <path d="m200 184v16h-16"/>
 </g>
 <path d="m100 26.812-33.486 58.002 103.28 62.889-69.797-120.89zm1.3047 25.836c0.39222 1.3101 0.90296 2.5834 1.5254 3.8008 1.7088 3.3423 4.2189 6.199 6.2559 9.3516 1.25 1.9346 2.3279 3.9982 2.9766 6.209 0.64869 2.2108 0.85388 4.5808 0.36328 6.832-0.54841 2.5166-1.9767 4.8301-3.9805 6.4453-2.0038 1.6152-4.5682 2.5203-7.1406 2.5195-2.5724 9.88e-4 -5.1368-0.90433-7.1406-2.5195-2.0038-1.6152-3.434-3.9287-3.9824-6.4453-0.49059-2.2512-0.2854-4.6213 0.36328-6.832 0.64868-2.2108 1.7285-4.2744 2.9785-6.209 2.037-3.1526 4.5451-6.0093 6.2539-9.3516 0.62244-1.2174 1.1351-2.4907 1.5273-3.8008zm24.324 35.578c0.27537 0.92253 0.63329 1.8205 1.0703 2.6777 1.1998 2.3536 2.9624 4.364 4.3926 6.584 0.87764 1.3623 1.6344 2.8162 2.0898 4.373s0.60031 3.2253 0.25586 4.8106c-0.38504 1.7721-1.39 3.4017-2.7969 4.5391-1.4069 1.1374-3.2056 1.774-5.0117 1.7734-1.8061 6.8e-4 -3.6068-0.63604-5.0137-1.7734-1.4069-1.1374-2.4099-2.7669-2.7949-4.5391-0.34445-1.5853-0.20153-3.2538 0.25391-4.8106s1.2142-3.0107 2.0918-4.373c1.4301-2.22 3.1908-4.2304 4.3906-6.584 0.43702-0.85727 0.7969-1.7552 1.0723-2.6777zm-69.119 13.914-37.562 65.061h144.41l-106.85-65.061zm5.8105 13.664c0.48493 1.6176 1.1191 3.1902 1.8887 4.6934 2.1128 4.1269 5.2139 7.6542 7.7324 11.547 1.5455 2.3888 2.8796 4.9362 3.6816 7.666 0.80203 2.7298 1.0558 5.6558 0.44922 8.4355-0.67805 3.1074-2.4464 5.9646-4.9238 7.959-2.4775 1.9944-5.6476 3.1123-8.8281 3.1113-3.1805 0.00122-6.3487-1.117-8.8262-3.1113-2.4775-1.9944-4.2458-4.8516-4.9238-7.959-0.60656-2.7797-0.35281-5.7058 0.44922-8.4355 0.80203-2.7298 2.1361-5.2772 3.6816-7.666 2.5185-3.8926 5.6196-7.42 7.7324-11.547 0.76957-1.5032 1.4018-3.0758 1.8867-4.6934z"/>
</svg>