<svg width="200" height="200" version="1.1" xmlns="http://www.w3.org/2000/svg">
 <g fill="none">
  <g stroke="#999" stroke-width="3">
   <path d="m0 16v-16h16"/>
   <path d="m200 16v-16h-16"/>
   <path d="m0 184v16h16"/>
   <path d="m200 184v16h-16"/>
  </g>
  <g stroke="#000" stroke-width="5">
   <path d="m44.043 137.3a56.014 56.014 0 0 1-0.056253-2.5097 56.014 56.014 0 0 1 56.014-56.014 56.014 56.014 0 0 1 56.014 56.014 56.014 56.014 0 0 1-0.05625 2.5097"/>
   <path d="m9.428 137.29h181.14"/>
   <path d="m100 23.093v39.195"/>
   <path d="m45.388 37.726 19.597 33.944"/>
   <path d="m5.4093 77.705 33.944 19.597"/>
   <path d="m154.61 37.726-19.597 33.944"/>
   <path d="m194.59 77.705-33.944 19.597"/>
  </g>
 </g>
</svg>