<svg width="200" height="200" version="1.1" xmlns="http://www.w3.org/2000/svg"><path d="m42.739 123.85h114.29v-46.26h-78.278" fill="none" stroke="#000" stroke-width="5"/><path d="m106.15 61.792-27.397 15.799 27.397 15.799" fill="none" stroke="#000" stroke-width="5"/><circle cx="54.139" cy="76.691" r="11.4"/><path d="m99.732 166.49c25.849 0 51.398-5.2883 74.962-15.523 5.4084-16.544 8.1386-33.751 8.1386-51.056 0-17.336-2.74-34.573-8.1224-51.113-23.39-10.069-48.769-15.286-74.442-15.286-25.849 0-51.398 5.2883-74.962 15.523-5.4084 16.544-8.1386 33.751-8.1386 51.056 0 17.336 2.74 34.573 8.1223 51.113 23.39 10.069 48.769 15.286 74.442 15.286z" fill="none" stroke="#000" stroke-width="5"/> 
<g fill="none" stroke="#999" stroke-width="3">
  <path d="m0 16v-16h16"/>
  <path d="m200 16v-16h-16"/>
  <path d="m0 184v16h16"/>
  <path d="m200 184v16h-16"/>
 </g></svg>