<svg width="200" height="200" version="1.1" xmlns="http://www.w3.org/2000/svg">
 <g fill="none" stroke="#999" stroke-width="3">
  <path d="m0 16v-16h16"/>
  <path d="m200 16v-16h-16"/>
  <path d="m0 184v16h16"/>
  <path d="m200 184v16h-16"/>
 </g>
 <path d="m84.585 80.264c-5.7915-3.688-9.4332-10.138-10.911-16.843-1.4227-6.4552-0.93074-13.55 2.5424-19.174 1.221-1.9772 2.7772-3.73 4.4557-5.3371 1.4984-1.4345 3.1276-2.7781 5.0251-3.6161 1.0766-0.47547 2.249-0.79474 3.1666-1.5319 1.0206-0.81992 1.5998-2.0544 2.1526-3.241 0.82664-1.7744 1.7051-3.5894 3.156-4.9035 0.44964-0.40727 0.87595-1.0479 1.4826-1.0479 0.60666 0 1.033 0.64067 1.4826 1.0479 1.4508 1.3141 2.3293 3.1291 3.1559 4.9035 0.55284 1.1867 1.1321 2.4211 2.1526 3.241 0.91752 0.73713 2.0899 1.0564 3.1666 1.5319 1.8975 0.83799 3.5267 2.1816 5.0251 3.6161 1.6786 1.607 3.2347 3.3599 4.4557 5.3371 3.4731 5.6242 3.9651 12.719 2.5424 19.174-1.4778 6.7051-5.1195 13.155-10.911 16.843-3.286 2.0925-7.1742 3.2273-11.07 3.2309-3.8957-4e-3 -7.7839-1.1384-11.07-3.2309z"/>
 <path d="m45.834 83.314c-6.4018-0.18189-8.1686-0.54588-9.6579-1.18s-2.7007-1.5388-3.6153-2.8077c-0.91463-1.269-1.5317-2.9024-1.8842-4.8553-0.35244-1.9529-0.43983-4.225-0.12784-6.204s1.0236-3.6644 2.166-5.4436 2.7154-3.6518 4.3385-5.1126 3.296-2.5095 5.1563-3.4708c1.8603-0.96131 3.9077-1.8352 5.2563-2.172 1.3487-0.33678 1.9978-0.13704 2.3218-0.08679 0.32399 0.05025 0.32399-0.04962 0.38635-0.44922 0.0624-0.3996 0.18719-1.0987 0.82397-2.0105 0.63678-0.91176 1.7853-2.0353 3.5082-3.4711s4.02-3.1835 7.2374-4.7425c2.701-1.3087 6.0503-2.4843 9.5041-3.6389-0.62189 0.81343-1.2076 1.655-1.7471 2.5276-4.915 7.9493-5.6136 17.981-3.5991 27.107 1.2815 5.8057 3.7124 11.475 7.2685 16.193-10.662-1e-3 -21.158-8e-3 -27.336-0.18307z"/>
 <path d="m145.48 83.314c6.4018-0.18189 8.1686-0.54588 9.6579-1.18s2.7007-1.5388 3.6153-2.8077c0.91463-1.269 1.5317-2.9024 1.8842-4.8553 0.35244-1.9529 0.43983-4.225 0.12784-6.204s-1.0236-3.6644-2.166-5.4436-2.7154-3.6518-4.3385-5.1126-3.296-2.5095-5.1563-3.4708c-1.8603-0.96131-3.9077-1.8352-5.2563-2.172-1.3487-0.33678-1.9978-0.13704-2.3218-0.08679-0.32399 0.05025-0.32399-0.04962-0.38635-0.44922-0.0624-0.3996-0.18719-1.0987-0.82397-2.0105-0.63678-0.91176-1.7853-2.0353-3.5082-3.4711s-4.02-3.1835-7.2374-4.7425c-2.701-1.3087-6.0503-2.4843-9.5041-3.6389 0.62189 0.81343 1.2076 1.655 1.7471 2.5276 4.915 7.9493 5.6136 17.981 3.5991 27.107-1.2815 5.8057-3.7124 11.475-7.2685 16.193 10.662-1e-3 21.158-8e-3 27.336-0.18307z"/>
 <path d="m119.33 128.23 14.191 33.262 33.043-14.285-14.191-33.262" fill="none" stroke="#000" stroke-width="5"/>
 <path d="m140.77 158.36 7.9639 18.667 18.544-8.0168-7.9639-18.667" fill="none" stroke="#000" stroke-width="5"/>
 <path d="m149.5 108.38 2.5086 0.67143-35.949 15.542 1.2436-2.2936c3.044-5.6137 7.8713-10.036 13.709-12.56 5.8377-2.5237 12.348-3.0023 18.488-1.3593z"/>
 <path d="m161.95 94.531h-132.58" stroke="#000" stroke-width="5"/>
</svg>