<svg width="200" height="200" version="1.1" xmlns="http://www.w3.org/2000/svg">
 <g fill="none" stroke="#999" stroke-width="3">
  <path d="m0 16v-16h16"/>
  <path d="m200 16v-16h-16"/>
  <path d="m0 184v16h16"/>
  <path d="m200 184v16h-16"/>
 </g>
 <g>
  <circle cx="137.75" cy="108.95" r="8.7265"/>
  <path d="m114.25 18.758c-11.195 0-22.239 2.3425-31.844 7.8105-7.7732 4.4254-14.575 10.653-19.391 18.27-5.0309 7.9597-7.7029 17.072-9.1094 26.143-0.7375 4.7563-1.1743 9.4875-1.3008 14.219 1.5242 2.1889 3.1742 4.2978 4.9492 6.3164-0.22054-6.5432 0.25779-13.093 1.293-19.77 1.3368-8.6208 3.8598-17.062 8.3945-24.236 4.335-6.8572 10.53-12.549 17.639-16.596 8.7045-4.9555 18.873-7.1562 29.369-7.1562 10.497 0 20.667 2.2007 29.371 7.1562 7.1087 4.0466 13.302 9.7384 17.637 16.596 4.5348 7.1737 7.0578 15.615 8.3945 24.236 1.6995 10.963 1.9214 21.583-0.0391 32.389a2.5002 2.5002 0 0 0 3.125 2.8555c1.3147-0.36352 2.0662-0.3192 3.4805-0.0625 0.80986 0.14708 1.5838 0.56226 2.4316 2.1348 0.84793 1.5726 1.5816 4.3261 1.6484 8.0371 0.0666 3.7112-0.52637 8.4746-1.541 12.295-1.0147 3.8206-2.4192 6.7086-4.2891 9.0215-1.8701 2.313-4.3432 4.1335-6.2617 4.9824-1.9194 0.8493-3.4587 0.90631-5.4785 0.97851a2.5002 2.5002 0 0 0-2.2285 1.5606c-1.3704 3.3896-2.6774 6.627-5.3223 11.457-2.645 4.8298-6.6333 11.225-10.904 16.328-4.2711 5.1029-8.8371 8.9421-13.721 11.152a2.5002 2.5002 0 0 0 0 2e-3c-5.0577 2.2883-10.494 3.6348-16.301 3.6348-5.8092 0-11.246-1.3473-16.305-3.6367-4.8833-2.2095-9.4496-6.049-13.721-11.152-4.2713-5.1031-8.2597-11.498-10.904-16.328-2.6444-4.8297-3.9518-8.0674-5.3223-11.457a2.5002 2.5002 0 0 0-2.2285-1.5606c-2.0197-0.0721-3.5593-0.12923-5.4785-0.97851-1.9185-0.84886-4.3917-2.6694-6.2617-4.9824-1.8698-2.3126-3.2744-5.2009-4.2891-9.0215-1.0147-3.8204-1.6077-8.5838-1.541-12.295 0.06676-3.7111 0.80046-6.4643 1.6484-8.0371 0.84801-1.5727 1.6214-1.9876 2.4316-2.1348 0.27231-0.0495 0.45183-0.0458 0.68359-0.0781-0.74189-0.69061-1.4859-1.3785-2.2051-2.0977-0.59122-0.59122-1.1527-1.2059-1.7246-1.8125-1.4145 0.81826-2.6789 2.0678-3.5859 3.75-1.3884 2.5752-2.1688 6.0253-2.2461 10.32-0.07723 4.2948 0.55716 9.3385 1.707 13.668 1.1498 4.3293 2.8459 7.9311 5.2324 10.883 2.3863 2.9516 5.3209 5.1686 8.127 6.4102 2.1284 0.94184 3.9993 1.1645 5.6992 1.2754 1.2221 2.9938 2.5705 6.1723 4.9668 10.549a2.5002 2.5002 0 0 0 0 2e-3c2.7656 5.0508 6.8551 11.637 11.457 17.135 4.6011 5.4977 9.7007 9.8792 15.492 12.5 5.617 2.5422 11.782 4.0801 18.367 4.0801 6.5837 0 12.746-1.5384 18.363-4.0801 1e-3 -6e-4 3e-3 -9.5e-4 4e-3 -2e-3 5.7902-2.6215 10.888-7.0016 15.488-12.498 4.6016-5.4983 8.6911-12.084 11.457-17.135 2.3967-4.3768 3.7449-7.5574 4.9668-10.551 1.6998-0.11087 3.5708-0.33359 5.6992-1.2754 2.806-1.2417 5.7407-3.4588 8.127-6.4102 2.3864-2.9518 4.0846-6.5535 5.2344-10.883 1.1499-4.3295 1.7822-9.3733 1.7051-13.668-0.0774-4.2948-0.85755-7.745-2.2461-10.32-1.3885-2.5751-3.5728-4.2522-5.9375-4.6816-0.69248-0.12574-1.4209-0.17104-2.1543-0.19922 1.4897-10.328 1.2331-20.518-0.36524-30.828-1.4064-9.0706-4.0782-18.184-9.1094-26.143-4.8147-7.6174-11.617-13.845-19.391-18.27-9.6048-5.4681-20.649-7.8105-31.844-7.8105z"/>
  <path d="m85.629 125.81c-1.7228 4.0795-3.4334 8.0658-4.6758 10.949-4.5476 10.554-0.80096 11.744 8.3945 2.6562 4.2879-4.2377 7.8141-7.7403 10.559-10.486-4.8582-0.63409-9.6336-1.6731-14.277-3.1191"/>
  <path d="m54.447 108.21 7.6133 28.955c0.89102 3.3878 3.2264 3.7973 5.2188 0.91601 3.2482-4.6976 6.5644-9.4802 8.959-12.875 0.46061-0.653 1.0871-1.5173 1.5996-2.2383-8.4938-3.5848-16.402-8.5544-23.391-14.758"/>
  <path d="m112.98 115.66c0.95503-0.97324 1.855-1.8839 2.6111-2.6289 2.514-2.477 4.6278-4.4181 6.6289-6.209 1.2719-1.1383 1.832-0.75561 1.2402 0.8457l-2.7461 7.4277c-6.3949 17.304-3.0111 19.055 8.4629 4.6113 1.405-1.7686 2.6996-3.3472 3.8535-4.6914 5.6955-6.6348 7.9874-7.5161 10.254-8.9844 2.2665-1.4682 4.5066-3.5234 7.7129-4.9258 3.2062-1.4023 7.3761-2.1521 9.998-2.2891 2.6219-0.13699 3.9102 0.43248 4.668 1.2285 0.75776 0.79603 1.9661 2.55 2.2402 3.8789 0.54066 2.6205 3.1842 3.1308 3.9117 3.1476 0.71194 0.0164-0.95801-2.5559 0.26217-2.7042 2.0035-11.056 1.7591-21.905 0.0391-33-1.3716-8.846-3.969-17.623-8.752-25.189-4.5745-7.2374-11.073-13.198-18.514-17.434-9.1546-5.2118-19.762-7.4824-30.607-7.4824-10.846 0-21.453 2.2706-30.607 7.4824-7.441 4.2363-13.939 10.197-18.514 17.434-4.7828 7.5672-7.3803 16.344-8.752 25.189-0.88962 5.7373-1.3756 11.41-1.373 17.078 1.7519 2.234 3.6279 4.3838 5.6562 6.4121 7.3268 7.3268 16.091 12.875 25.625 16.398 0.45687-0.6248 1.0201-1.4082 1.4355-1.9726 0.4465-0.60671 0.8802-1.1932 1.3027-1.7637 3.966-5.3541 5.6158-4.49 3.291 1.7539-0.40929 1.0993-0.88056 2.3115-1.3535 3.5274 6.4256 1.8801 13.136 2.873 19.953 2.873"/>
 </g>
 <g fill="none" stroke="#000" stroke-width="5">
  <path d="m110.91 122.67a78.072 78.072 0 0 1-55.205-22.867 78.072 78.072 0 0 1-22.867-55.205v-23.924"/>
  <path d="m15.281 51.085 17.558-30.412 17.558 30.412"/>
  <path d="m120.44 166.66s-4.1286 0.16854-6.194 0.16854-6.194-0.16854-6.194-0.16854" stroke-linecap="round"/>
  <path d="m132.9 156.72c-0.64878-0.1298-1.2968-0.25944-4.4069-0.32419-3.1101-0.0648-8.6818-0.0648-14.251-0.0648-5.5691 0-11.141 0-14.251 0.0648-3.1101 0.0647-3.7581 0.19439-4.4069 0.32419" stroke-linecap="round"/>
 </g>
</svg>