<svg width="200" height="200" version="1.1" xmlns="http://www.w3.org/2000/svg">
 <g fill="none" stroke="#999" stroke-width="3">
  <path d="m0 16v-16h16"/>
  <path d="m200 16v-16h-16"/>
  <path d="m0 184v16h16"/>
  <path d="m200 184v16h-16"/>
 </g>
 <path d="m93.646 28.868-7.5696 3.7855 3.7261 3.7261 7.5696-3.7855zm7.1456 7.1456-6.6844 4.6708 3.5908 3.5908 6.6844-4.6708zm7.107 7.107-5.6776 5.6776 3.5355 3.5355 5.6776-5.6776zm7.0504 7.0504-4.6708 6.6844 3.5908 3.5908 4.6708-6.6844zm7.0103 7.0103-3.7855 7.5696 3.7261 3.7261 3.7855-7.5696zm-40.598-22.172-7.5696 3.7855 3.7275 3.7275 7.5696-3.7855zm8.5833 8.5833-6.6844 4.6708 3.5894 3.5894 6.6858-4.6694zm8.7408 8.7408-5.6776 5.6776 3.5355 3.5355 5.6776-5.6776zm8.6842 8.6842-4.6694 6.6858 3.5894 3.5894 4.6708-6.6844zm8.448 8.448-3.7855 7.5696 3.7261 3.7261 3.7855-7.5696z"/>
 <path d="m97.729 25.82 32.343 32.343 3.4438-11.264a4.1578 4.1578 76 0 0-1.0361-4.1556l-19.331-19.331a4.1578 4.1578 14 0 0-4.1556-1.0361z"/>
 <g fill="none" stroke="#000">
  <path d="m119.48 38.877 6.8913-6.8913a9.5655 9.5655 0 0 1 16.329 6.7638v63.872" stroke-width="5"/>
  <path d="m181.99 99.788v61.017c0 4.108-3.3072 7.4153-7.4152 7.4153h-149.15c-4.108 0-7.4153-3.3072-7.4153-7.4153v-61.017" stroke-width="5"/>
  <path d="m181.99 119.93c-1.2288-0.36782-2.404-0.99508-3.4774-1.7595-1.7364-1.2367-3.241-2.825-4.7341-4.4028-1.493-1.5778-2.9977-3.166-4.7341-4.4028-1.7364-1.2367-3.7392-2.1138-5.8048-2.1153-2.066-1e-3 -4.0706 0.8733-5.8077 2.1097-1.7371 1.2364-3.2415 2.8261-4.7312 4.4083-1.4899 1.5822-2.9942 3.172-4.7313 4.4083-1.7371 1.2364-3.7416 2.1112-5.8077 2.1097-2.0656-1e-3 -4.0684-0.87866-5.8048-2.1153-1.7364-1.2367-3.241-2.8249-4.7341-4.4028-1.493-1.5778-2.9977-3.166-4.7341-4.4028-1.7364-1.2367-3.7392-2.1138-5.8049-2.1153-2.066-1e-3 -4.0706 0.8733-5.8076 2.1097-1.7371 1.2364-3.2415 2.8261-4.7313 4.4083-1.4899 1.5822-2.9942 3.172-4.7312 4.4083-1.7371 1.2364-3.7416 2.1112-5.8077 2.1097-2.0656-1e-3 -4.0684-0.87866-5.8048-2.1153-1.7364-1.2367-3.241-2.8249-4.7341-4.4028-1.493-1.5779-2.9977-3.1661-4.7341-4.4028-1.7364-1.2367-3.7392-2.1138-5.8048-2.1154-2.066-1e-3 -4.0706 0.8733-5.8077 2.1097-1.7371 1.2364-3.2415 2.8261-4.7313 4.4083-1.4899 1.5822-2.9942 3.172-4.7313 4.4083-1.7371 1.2364-3.7416 2.1112-5.8077 2.1097-2.0656-1e-3 -4.0684-0.87866-5.8048-2.1153-1.7364-1.2367-3.241-2.8249-4.7341-4.4028-1.493-1.5779-2.9977-3.1661-4.7341-4.4028-1.7364-1.2367-3.7392-2.1138-5.8048-2.1154-2.066-1e-3 -4.0706 0.8733-5.8077 2.1097-1.7371 1.2364-3.2415 2.8261-4.7313 4.4083-1.4899 1.5822-2.9942 3.172-4.7313 4.4083-1.0752 0.76527-2.2528 1.392-3.484 1.7582" stroke-width="5"/>
 </g>
</svg>