<svg width="200" height="200" version="1.1" xmlns="http://www.w3.org/2000/svg">
 <g fill="none">
  <g stroke="#999" stroke-width="3">
   <path d="m0 16v-16h16"/>
   <path d="m200 16v-16h-16"/>
   <path d="m0 184v16h16"/>
   <path d="m200 184v16h-16"/>
  </g>
  <path d="m158.5 27.865h-47.939v59.175h-23.67" stroke="#000" stroke-width="5"/>
  <path d="m57.193 118.3a39.269 39.269 0 0 1-15.304-31.109v-59.325h45.002" stroke="#000" stroke-width="5"/>
 </g>
 <circle cx="66.936" cy="49.054" r="6.5"/>
 <circle cx="136.15" cy="49.054" r="6.5"/>
 <g fill="none" stroke="#000" stroke-width="5">
  <path d="m109.22 121.39-0.59236 12.72"/>
  <path d="m120.91 119.96 3.6238 12.207"/>
  <path d="m131.48 114.78 7.4368 10.337"/>
  <path d="m139.76 106.4 10.423 7.3159"/>
  <path d="m144.83 95.766 12.249 3.4814"/>
  <path d="m146.11 84.059 12.712-0.7405"/>
 </g>
 <rect transform="rotate(12.468)" x="94.563" y="95.298" width="28.944" height="21.08" ry="0"/>
 <path d="m78.515 134.1c-11.915-4.9568-27.589-2.6407-34.246 8.9571-5.4719 8.8114-1.6383 20.807 6.5908 26.426 9.8887 7.1876 23.31 6.3664 34.199 2.0603 15.468-5.6913 28.153-18.255 45.029-20.036 9.8193-1.2688 21.108 3.3009 24.828 12.988 1.2814 3.1592 1.7766 6.647 1.3374 10.033" fill="none" stroke="#000" stroke-width="5"/>
</svg>