<svg width="200" height="200" version="1.1" xmlns="http://www.w3.org/2000/svg">
 <g fill="none" stroke="#999" stroke-width="3">
  <path d="m0 16v-16h16"/>
  <path d="m200 16v-16h-16"/>
  <path d="m0 184v16h16"/>
  <path d="m200 184v16h-16"/>
 </g>
 <path d="m145.23 68.538c3.5037-3.4171 7.7065-6.1494 12.332-7.7478 4.6258-1.5984 9.6768-2.0402 14.469-1.0446 5.6182 1.1674 10.76 4.2984 14.615 8.5487 3.8552 4.2503 6.4452 9.5813 7.7185 15.177 2.5466 11.19-0.14813 23.054-5.1729 33.372-5.9365 12.19-15.055 22.7-25.759 31.023-5.5978 4.3528-11.62 8.1242-17.407 12.223-2.2433 1.5891-4.4516 3.2277-6.6226 4.9143-2.171-1.6866-4.3792-3.3252-6.6226-4.9143-5.7863-4.0988-11.809-7.8702-17.407-12.223-10.704-8.323-19.822-18.833-25.759-31.023-5.0248-10.318-7.7195-22.182-5.1729-33.372 1.2733-5.5952 3.8633-10.926 7.7185-15.177 3.8552-4.2503 8.9972-7.3813 14.615-8.5487 4.7918-0.99568 9.8428-0.55386 14.469 1.0446 4.6258 1.5984 8.8286 4.3307 12.332 7.7478 2.2364 2.1811 4.1987 4.6429 5.8263 7.3093 1.6276-2.6664 3.5899-5.1282 5.8263-7.3093z"/>
 <path d="m22.914 97.859c-4.5647 0-8.2402 3.6755-8.2402 8.2402v36.881c0 4.5647 3.6755 8.2402 8.2402 8.2402h36.881c4.5647 0 8.2383-3.6755 8.2383-8.2402v-23.82h-26.68v-21.301h-18.439z" fill="none" stroke="#000" stroke-width="5"/>
 <path d="m41.354 107.61h10.481c4.5647 0 8.2396-3.6748 8.2396-8.2396l1e-6 -39.951c1e-6 -11.728 9.5076-21.236 21.236-21.236 11.728 0 21.236 9.5076 21.236 21.236v11.236" fill="none" stroke="#000" stroke-width="5"/>
</svg>