<svg width="200" height="200" version="1.1" xmlns="http://www.w3.org/2000/svg"><g fill="none" stroke="#000" stroke-width="5"><path d="m99.733 166.49c25.781 0 51.263-5.2883 74.765-15.523 5.3942-16.544 8.1172-33.751 8.1172-51.056 0-17.336-2.7328-34.573-8.101-51.113-23.328-10.069-48.641-15.286-74.246-15.286-25.781 0-51.263 5.2883-74.765 15.523-5.3942 16.544-8.1172 33.751-8.1172 51.056 0 17.336 2.7328 34.573 8.101 51.113 23.328 10.069 48.641 15.286 74.246 15.286z"/><rect x="36" y="62" width="128" height="76"/><path d="m80.15 138v-50.667"/><path d="m36 87.333h128"/><path d="m36 112.67h128"/></g> 
<g fill="none" stroke="#999" stroke-width="3">
  <path d="m0 16v-16h16"/>
  <path d="m200 16v-16h-16"/>
  <path d="m0 184v16h16"/>
  <path d="m200 184v16h-16"/>
 </g></svg>