<svg width="200" height="200" version="1.1" xmlns="http://www.w3.org/2000/svg">
 <g fill="none" stroke="#000">
  <rect transform="scale(1,-1)" x="16.5" y="-167" width="167" height="134" rx="8" ry="8" stroke-width="5"/>
  <g stroke-width="5">
   <circle cx="103.14" cy="100" r="20.961"/>
   <path d="m61.51 116.77a33.545 33.545 0 0 1 3.3539-38.335 33.545 33.545 0 0 1 37.17-9.9597 33.545 33.545 0 0 1 22.072 31.522"/>
   <path transform="rotate(240)" d="m-179.81 56.099a33.545 33.545 0 0 1 3.3539-38.335 33.545 33.545 0 0 1 37.17-9.9597 33.545 33.545 0 0 1 22.072 31.522"/>
   <path transform="rotate(120)" d="m-6.6053-122.55a33.545 33.545 0 0 1 3.3539-38.335 33.545 33.545 0 0 1 37.17-9.9597 33.545 33.545 0 0 1 22.072 31.522"/>
  </g>
 </g>
 
<g fill="none" stroke="#999" stroke-width="3">
  <path d="m0 16v-16h16"/>
  <path d="m200 16v-16h-16"/>
  <path d="m0 184v16h16"/>
  <path d="m200 184v16h-16"/>
 </g></svg>