<svg width="200" height="200" version="1.1" xmlns="http://www.w3.org/2000/svg">
 <g fill="none">
  <g stroke="#999" stroke-width="3">
   <path d="m0 16v-16h16"/>
   <path d="m200 16v-16h-16"/>
   <path d="m0 184v16h16"/>
   <path d="m200 184v16h-16"/>
  </g>
  <path d="m57.599 148.71c3.1946-1.4524 6.0869-3.9238 8.742-7.1104 2.6551-3.1869 5.0725-7.0889 6.6917-10.059 1.6192-2.9704 2.4395-5.0088 3.2597-7.0466 1.2088-0.0434 2.4168-0.0867 3.8307-0.71516 1.4138-0.62846 3.0326-1.8425 4.3063-3.425 1.2737-1.5826 2.2018-3.5336 2.8495-5.9835 0.64772-2.4499 1.0146-5.3982 0.97158-7.8048-0.04306-2.4066-0.49634-4.271-1.1656-5.5179-0.66924-1.2468-1.5542-1.8756-2.5042-2.0489-0.95006-0.1733-1.7356-0.21339-2.7494 0.06824 1.2077-6.6868 1.0667-13.254 0.03008-19.971-0.8209-5.3183-2.3748-10.595-5.2374-15.144-2.7378-4.3512-6.6276-7.9344-11.081-10.481-5.479-3.1334-11.827-4.4989-18.318-4.4989s-12.839 1.3655-18.318 4.4989c-4.4534 2.5469-8.3428 6.13-11.081 10.481-2.8625 4.5495-4.4165 9.826-5.2374 15.144-1.0366 6.7156-1.1776 13.283 0.03008 19.971-1.0138-0.28164-1.7993-0.24154-2.7494-0.06824-0.95006 0.1733-1.835 0.80197-2.5043 2.0489-0.66924 1.2469-1.1225 3.1112-1.1656 5.5179-0.043078 2.4066 0.32385 5.3549 0.97158 7.8048 0.64772 2.4499 1.5758 4.401 2.8495 5.9835 1.2737 1.5826 2.8925 2.7966 4.3063 3.425 1.4138 0.62847 2.6219 0.67181 3.8307 0.71516 0.82022 2.0379 1.6408 4.0765 3.2597 7.0466 1.619 2.9702 4.0364 6.8722 6.6917 10.059 2.6551 3.1869 5.5474 5.6584 8.742 7.1104 3.1946 1.4524 6.6661 2.3195 10.375 2.3195 3.7085 0 7.1802-0.86712 10.375-2.3195z" stroke="#000" stroke-linejoin="round" stroke-width="5"/>
  <path d="m38.523 92.328c-2.2873-0.52015-4.5752-1.0404-7.4461-1.2465-2.8709-0.20606-6.3244-0.09766-9.7787 0.01074" stroke="#000" stroke-linecap="round" stroke-width="5"/>
 </g>
 <path d="m36.742 101.01a4.7919 4.8129 0 0 1-4.7919 4.8129 4.7919 4.8129 0 0 1-4.7919-4.8129 4.7919 4.8129 0 0 1 4.7919-4.8129 4.7919 4.8129 0 0 1 4.7919 4.8129z"/>
 <g stroke="#000" stroke-linecap="round" stroke-width="5">
  <path d="m36.226 130.27c3.6046-0.12307 7.2089-0.24612 10.812-0.2461 3.604 3e-5 7.2071 0.12303 10.811 0.2461"/>
  <path d="m50.52 136.11c-1.1609 0.0307-2.3211 0.0614-3.4807 0.0614s-2.3199-0.0306-3.4807-0.0614"/>
  <path d="m55.551 92.328c2.2873-0.52015 4.5752-1.0404 7.4461-1.2465 2.8709-0.20605 6.3244-0.09766 9.7787 0.01074" fill="none"/>
 </g>
 <path d="m57.336 101.01a4.7919 4.8129 0 0 0 4.7919 4.8129 4.7919 4.8129 0 0 0 4.7919-4.8129 4.7919 4.8129 0 0 0-4.7919-4.8129 4.7919 4.8129 0 0 0-4.7919 4.8129z"/>
 <g fill="none" stroke="#000" stroke-width="5">
  <g stroke-linecap="round">
   <path d="m123.82 91.01c2.2481-0.17485 4.4952-0.34963 7.0921-0.23716 2.5968 0.11247 5.5431 0.51196 8.4882 0.9113"/>
   <path d="m134.56 126.3c0.62906-0.5834 1.2581-1.1668 1.887-1.7501"/>
   <path d="m164.53 126.3c-0.62906-0.5834-1.2581-1.1668-1.887-1.7501"/>
  </g>
  <path d="m163.59 125.42c-1.8479 1.519-3.6947 3.0371-6.0348 4.0518s-5.1733 1.5267-8.0055 1.5267-5.6654-0.512-8.0055-1.5267-4.1869-2.5328-6.0348-4.0518"/>
  <path d="m153.82 137.01c-1.4254 0.30845-2.8497 0.61665-4.2728 0.61665s-2.8474-0.3082-4.2728-0.61665" stroke-linecap="round"/>
 </g>
 <g>
  <path d="m127.63 103.61c1.2051 0.40518 3.7144-0.25647 6.1491-0.25621 2.4347 2.5e-4 4.7942 0.66189 6.0357 0.25019s1.3664-1.8973 0.65535-3.3579c-0.71106-1.4607-2.259-2.8963-4.2067-3.5148-1.9476-0.6185-4.2946-0.41876-5.968 0.30544s-2.6721 1.9726-3.2214 3.3338c-0.54929 1.3612-0.64916 2.8343 0.55594 3.2395z"/>
  <path d="m175.28 91.01c-2.2481-0.17485-4.4952-0.34963-7.0921-0.23716-2.5968 0.11247-5.5431 0.51196-8.4882 0.9113" fill="none" stroke="#000" stroke-linecap="round" stroke-width="5"/>
  <path d="m171.46 103.61c-1.2051 0.40518-3.7144-0.25647-6.1491-0.25621-2.4347 2.5e-4 -4.7942 0.66189-6.0357 0.25019s-1.3664-1.8973-0.65535-3.3579c0.71106-1.4607 2.259-2.8963 4.2067-3.5148 1.9476-0.6185 4.2946-0.41876 5.968 0.30544s2.6721 1.9726 3.2214 3.3338c0.54929 1.3612 0.64916 2.8343-0.55594 3.2395z"/>
 </g>
 <g stroke="#000" stroke-width="5">
  <path d="m159.92 148.71c3.1946-1.4524 6.0869-3.9238 8.742-7.1104 2.6551-3.1869 5.0725-7.0889 6.6917-10.059 1.6192-2.9704 2.4395-5.0088 3.2598-7.0466 1.2088-0.0434 2.4168-0.0867 3.8307-0.71516s3.0326-1.8425 4.3063-3.425c1.2737-1.5826 2.2018-3.5336 2.8495-5.9835 0.64772-2.4499 1.0146-5.3982 0.97158-7.8048-0.0431-2.4066-0.49634-4.271-1.1656-5.5179-0.66924-1.2468-1.5542-1.8756-2.5042-2.0489-0.95006-0.1733-1.7356-0.21339-2.7494 0.06824 1.2077-6.6868 1.0667-13.254 0.0301-19.971-0.8209-5.3183-2.3748-10.595-5.2374-15.144-2.7378-4.3512-6.6276-7.9344-11.081-10.481-5.479-3.1334-11.827-4.4989-18.318-4.4989s-12.839 1.3655-18.318 4.4989c-4.4534 2.5469-8.3428 6.13-11.081 10.481-2.8625 4.5495-4.4165 9.826-5.2374 15.144-1.0366 6.7156-1.1776 13.283 0.0301 19.971-1.0138-0.28164-1.7993-0.24154-2.7494-0.06824-0.95006 0.1733-1.835 0.80197-2.5042 2.0489-0.66924 1.2469-1.1225 3.1112-1.1656 5.5179-0.0431 2.4066 0.32385 5.3549 0.97157 7.8048s1.5758 4.401 2.8495 5.9835c1.2737 1.5826 2.8925 2.7966 4.3063 3.425 1.4138 0.62847 2.6219 0.67181 3.8307 0.71516 0.82022 2.0379 1.6408 4.0765 3.2597 7.0466 1.619 2.9702 4.0364 6.8722 6.6917 10.059 2.6551 3.1869 5.5474 5.6584 8.742 7.1104 3.1946 1.4524 6.6661 2.3195 10.375 2.3195 3.7085 0 7.1802-0.86712 10.375-2.3195z" fill="none" stroke-linejoin="round"/>
  <path d="m101.38 51.835 96.331 96.331"/>
  <path d="m197.71 51.835-96.331 96.331"/>
 </g>
</svg>