<svg width="200" height="200" version="1.1" xmlns="http://www.w3.org/2000/svg">
 <g fill="none">
  <g stroke="#999" stroke-width="3">
   <path d="m0 16v-16h16"/>
   <path d="m200 16v-16h-16"/>
   <path d="m0 184v16h16"/>
   <path d="m200 184v16h-16"/>
  </g>
  <g stroke="#000" stroke-width="5">
   <g stroke-linecap="round">
    <path d="m21.671 34.007c3.067-3.3566 6.1347-6.7139 9.713-9.468s7.6688-4.9064 11.636-6.4235 7.8093-2.3985 12.782-2.5912c4.9729-0.19272 11.075 0.30302 16.772 2.5295s10.985 6.1805 14.688 9.6534 5.8162 6.4594 7.9293 9.4457"/>
    <path d="m14.68 55.193c3.2083-3.745 6.4172-7.4908 10.225-11.48s8.2159-8.2254 13.384-11.173c5.1681-2.9475 11.093-4.6056 17.602-4.8335s13.599 0.97388 20.232 4.7897 12.803 10.24 16.806 16.663c4.0031 6.4222 5.8339 12.833 7.665 19.244"/>
    <path d="m13.771 71.292c2.0835-1.6597 4.1667-3.3193 7.274-6.7091s7.2386-8.5097 11.67-13.065c4.4316-4.5552 9.1631-8.5452 14.337-10.84s10.788-2.8955 16.067-1.8358 10.223 3.7785 13.824 7.31c3.6015 3.5314 5.8613 7.8745 7.662 12.818s3.1424 10.487 4.3078 14.689c1.1653 4.2021 2.154 7.0621 3.602 9.9047 1.448 2.8425 3.3547 5.6673 5.2607 8.4911"/>
    <path d="m15.36 84.116c2.2248-1.4126 4.4494-2.825 7.2565-5.2084s6.1968-5.7378 9.8515-10.311c3.6547-4.5727 7.574-10.363 12.412-13.559 4.8382-3.1958 10.594-3.7961 15.184-2.9305 4.5906 0.86557 8.0156 3.196 10.77 6.4272 2.754 3.2312 4.8373 7.3624 6.0906 11.3 1.2533 3.9372 1.677 7.68 2.4364 11.246 0.75933 3.5665 1.8539 6.9562 3.708 10.328 1.8541 3.3722 4.467 6.7267 7.0792 10.08"/>
    <path d="m18.644 94.068c3.5666-2.5778 7.1329-5.1554 10.682-7.9803 3.5487-2.8249 7.0797-5.8968 10.417-9.5338 3.3368-3.637 6.4794-7.8388 9.7461-10.434 3.2667-2.5956 6.6564-3.5842 9.4639-3.3012 2.8075 0.28298 5.032 1.8366 6.497 3.8319s2.1712 4.4316 1.5177 7.8918c-0.65354 3.4602-2.6662 7.9445-6.4797 12.764-3.8135 4.8197-9.4278 9.975-14.301 14.142-4.8729 4.1667-9.0041 7.3446-13.136 10.523"/>
    <path d="m24.258 104.45c4.2022-2.8603 8.4041-5.7204 11.97-8.5982 3.5663-2.8778 6.4971-5.7732 9.3043-8.9159 2.8072-3.1426 5.4907-6.5323 7.4505-8.9512s3.1957-3.8666 4.4316-5.3144"/>
    <path d="m44.174 118.75c2.931-2.0835 5.8617-4.1668 8.3687-6.5148 2.507-2.3481 4.5902-4.961 7.062-8.5097s5.3318-8.033 7.7513-10.169c2.4195-2.1364 4.3968-1.9246 6.1973 0.33592 1.8006 2.2605 3.4248 6.5682 4.8727 9.6933s2.7191 5.0671 3.9895 7.008"/>
    <path d="m54.767 122.35c2.7897-2.1188 5.5792-4.2374 7.6889-6.7531s3.5397-5.4287 4.8734-6.7794 2.5695-1.1389 3.549 0.14163c0.97951 1.2805 1.7033 3.6286 2.4893 5.3853 0.78591 1.7567 1.6333 2.922 2.48 4.0861"/>
   </g>
   <g>
    <path d="m102.33 133.05v-21.556c0-4.3134 3.4726-7.786 7.786-7.786s7.786 3.4726 7.786 7.786v17.044"/>
    <path d="m117.9 128.54v-20.434c0-4.3134 3.4726-7.786 7.786-7.786s7.786 3.4726 7.786 7.786l1e-5 19.086"/>
    <path d="m133.47 127.19-1e-5 -21.946c0-4.3135 3.4726-7.786 7.786-7.786s7.8679 3.4733 7.786 7.786l-0.42372 22.317"/>
    <path d="m149.05 106.84v-34.438c0-4.3135 3.4726-7.786 7.786-7.786 4.3135 0 7.786 3.4726 7.786 7.786v63.652"/>
    <path d="m164.62 124.97v-12.429c0-4.3135 3.4726-7.786 7.786-7.786s7.786 3.4726 7.786 7.786v21.555"/>
    <ellipse cx="110.12" cy="133.05" rx="5.9626" ry="3.9881"/>
    <ellipse cx="125.69" cy="130.41" rx="6.5618" ry="3.9881"/>
    <ellipse cx="141.26" cy="127.19" rx="6.9915" ry="3.9881"/>
    <path d="m102.33 133.05v10.953c0 2.3918 0.86932 4.702 2.4461 6.5005l3.3381 3.8075c2.4496 2.7941 4.4493 5.9524 5.9273 9.3617 1.2331 3.0556 1.826 6.3318 1.742 9.6258v7.6338m64.407-46.837v10.806c0 2.3995-0.82997 4.7252-2.3491 6.5826l-8.9028 10.885c-1.5192 1.8574-2.3491 4.183-2.3491 6.5826v11.98"/>
   </g>
  </g>
 </g>
</svg>