<svg
   width="53.710388mm"
   height="53.710388mm"
   viewBox="0 0 53.710388 53.710388"
   version="1.1"
   id="svg20990"
   xml:space="preserve"
   xmlns:inkscape="http://www.inkscape.org/namespaces/inkscape"
   xmlns:sodipodi="http://sodipodi.sourceforge.net/DTD/sodipodi-0.dtd"
   xmlns="http://www.w3.org/2000/svg"
   xmlns:svg="http://www.w3.org/2000/svg"><sodipodi:namedview
     id="namedview20992"
     pagecolor="#ffffff"
     bordercolor="#000000"
     borderopacity="0.25"
     inkscape:showpageshadow="2"
     inkscape:pageopacity="0.0"
     inkscape:pagecheckerboard="0"
     inkscape:deskcolor="#d1d1d1"
     inkscape:document-units="mm"
     showgrid="false"
     showguides="false" /><defs
     id="defs20987" /><g
     inkscape:label="Layer 1"
     inkscape:groupmode="layer"
     id="layer1"
     transform="translate(-750.76998,-668.73295)"><g
       fill="none"
       stroke="#999999"
       stroke-width="3"
       id="g38020"
       transform="matrix(0.26458333,0,0,0.26458333,751.16689,669.1298)"
       inkscape:export-filename="Lambv.svg"
       inkscape:export-xdpi="96"
       inkscape:export-ydpi="96"><path
         d="M 0,16 V 0 h 16"
         id="path38012" /><path
         d="M 200,16 V 0 h -16"
         id="path38014" /><path
         d="m 0,184 v 16 h 16"
         id="path38016" /><path
         d="m 200,184 v 16 h -16"
         id="path38018" /></g><path
       id="path38022"
       style="color:#000000;fill:#000000;-inkscape-stroke:none"
       d="m 776.8723,675.25026 v 16.24552 l -15.64039,-15.64039 -1.8774,1.87534 16.36799,16.36799 -2.59106,2.59105 c -0.0815,-0.13301 -0.16007,-0.2671 -0.23202,-0.40255 -0.77776,-1.46416 -0.90383,-2.94763 -0.90383,-2.94763 h -1.43557 c 0,0 -0.12507,1.48347 -0.90278,2.94763 -0.7777,1.46415 -2.07356,2.84582 -4.72633,2.84582 -2.65277,0 -3.94708,-1.38167 -4.72478,-2.84582 -0.7777,-1.46416 -0.90432,-2.94763 -0.90433,-2.94763 h -1.43558 c 0,0 -0.12485,1.48344 -0.90227,2.94763 -0.77741,1.46418 -2.07141,2.84582 -4.72271,2.84582 v 1.43918 c 3.18236,0 5.06043,-1.846 5.99654,-3.60908 0.18461,-0.3477 0.22016,-0.62038 0.34726,-0.95343 0.12717,0.33318 0.16509,0.60559 0.34985,0.95343 0.93648,1.76311 2.81244,3.60908 5.99602,3.60908 3.18359,0 5.06159,-1.84597 5.99808,-3.60908 0.18476,-0.34784 0.22216,-0.62025 0.34934,-0.95343 0.12715,0.33306 0.16308,0.60572 0.34778,0.95343 0.13535,0.2548 0.29339,0.5103 0.46922,0.76275 l -12.74082,12.74082 1.8774,1.87534 12.76976,-12.76976 c 0.78407,0.49605 1.73428,0.8523 2.87063,0.96273 v 14.48594 l -3.81837,-6.28438 -1.2423,0.75551 5.78724,9.52345 5.78724,-9.52345 -1.2423,-0.75551 -3.81837,6.28438 v -14.48077 c 1.14444,-0.1027 2.1014,-0.45416 2.8913,-0.94723 l 12.74909,12.74909 1.8774,-1.87534 -12.70981,-12.70982 c 0.18472,-0.26243 0.35003,-0.52851 0.49092,-0.79375 0.18444,-0.34722 0.22228,-0.61873 0.34933,-0.95136 0.12699,0.33243 0.16348,0.60438 0.34779,0.95136 0.93648,1.76311 2.8145,3.60908 5.99808,3.60908 3.18359,0 5.0616,-1.84597 5.99808,-3.60908 0.1843,-0.34698 0.2208,-0.61893 0.34779,-0.95136 0.12699,0.33262 0.16498,0.60415 0.34933,0.95136 0.9361,1.76308 2.8121,3.60908 5.99447,3.60908 v -1.43918 c -2.65131,0 -3.9453,-1.38164 -4.72271,-2.84582 -0.77741,-1.46419 -0.90227,-2.94763 -0.90227,-2.94763 h -1.43558 c 0,0 -0.12457,1.48347 -0.90227,2.94763 -0.7777,1.46415 -2.07407,2.84582 -4.72684,2.84582 -2.65277,0 -3.94863,-1.38167 -4.72633,-2.84582 -0.7777,-1.46416 -0.90278,-2.94763 -0.90278,-2.94763 h -1.43506 c 0,0 -0.12502,1.48347 -0.90278,2.94763 -0.0781,0.147 -0.1628,0.29264 -0.25219,0.43666 l -2.62516,-2.62516 16.36799,-16.36799 -1.8774,-1.87534 -15.64039,15.64039 v -16.24552 z m 0,21.4514 v 2.39055 c -0.72347,-0.0795 -1.3309,-0.27336 -1.84433,-0.54622 z m 1.45314,0 1.86242,1.86242 c -0.51892,0.26981 -1.13139,0.46046 -1.86242,0.53433 z" /></g></svg>