<svg width="200" height="200" version="1.1" xmlns="http://www.w3.org/2000/svg">
 <g fill="none">
  <g stroke="#999" stroke-width="3">
   <path d="m0 16v-16h16"/>
   <path d="m200 16v-16h-16"/>
   <path d="m0 184v16h16"/>
   <path d="m200 184v16h-16"/>
  </g>
  <g stroke="#000">
   <g stroke-width="5">
    <path d="m119.6 46.292 34.11 34.11-71.186 71.186-34.11-34.11z"/>
    <path d="m37.229 4.5705 51.535 51.535-29.812 29.812-51.535-51.535z"/>
    <path d="m24.595 51.561 29.812-29.812"/>
    <path d="m71.586 38.927-29.812 29.812"/>
    <path d="m73.858 71.012 10.51 10.51"/>
    <path d="m195.07 163.13-51.535-51.535-29.812 29.812 51.535 51.535z"/>
    <path d="m148.07 175.77 29.812-29.812"/>
    <path d="m160.71 128.78-29.812 29.812"/>
    <path d="m128.62 126.51-10.51-10.51"/>
   </g>
   <g stroke-width="5">
    <path d="m62.965 197.4a62.921 62.921 0 0 1-41.99-18.379 62.921 62.921 0 0 1-18.379-41.99"/>
    <path d="m62.966 176.11a41.647 41.647 0 0 1-26.949-12.123 41.647 41.647 0 0 1-12.123-26.947"/>
    <path d="m62.965 155.96a21.573 21.573 0 0 1-12.753-6.173 21.573 21.573 0 0 1-6.1728-12.751"/>
   </g>
  </g>
 </g>
</svg>