<svg width="200" height="200" version="1.1" xmlns="http://www.w3.org/2000/svg"><path d="m100 35.766v24.404a39.831 39.831 0 0 1 39.83 39.83 39.831 39.831 0 0 1-39.83 39.83v24.404a178.39 178.39 0 0 0 73.947-16.062 178.39 178.39 0 0 0 6.7734-48.172 178.39 178.39 0 0 0-6.7734-48.172 178.39 178.39 0 0 0-73.947-16.062z"/><path d="m100 60.17a39.831 39.831 0 0 0-39.83 39.83 39.831 39.831 0 0 0 39.83 39.83v-79.66z"/><path d="m100 164.23a178.39 178.39 0 0 1-73.947-16.062 178.39 178.39 0 0 1-6.7734-48.172 178.39 178.39 0 0 1 6.7734-48.172 178.39 178.39 0 0 1 73.947-16.062 178.39 178.39 0 0 1 73.947 16.062 178.39 178.39 0 0 1 6.7734 48.172 178.39 178.39 0 0 1-6.7734 48.172 178.39 178.39 0 0 1-73.947 16.062z" fill="none" stroke="#000" stroke-width="5"/> 
<g fill="none" stroke="#999" stroke-width="3">
  <path d="m0 16v-16h16"/>
  <path d="m200 16v-16h-16"/>
  <path d="m0 184v16h16"/>
  <path d="m200 184v16h-16"/>
 </g></svg>