<svg width="200" height="200" version="1.1" xmlns="http://www.w3.org/2000/svg">
 <g fill="none">
  <g stroke="#999" stroke-width="3">
   <path d="m0 16v-16h16"/>
   <path d="m200 16v-16h-16"/>
   <path d="m0 184v16h16"/>
   <path d="m200 184v16h-16"/>
  </g>
  <g stroke="#000">
   <path d="m184.39 155.63c0-1.7909-5.7404-27.374-8.8264-40.721-0.77146-3.3367-1.556-6.6894-2.8707-9.8517-1.3147-3.1623-3.1963-6.1534-5.8479-8.3209-2.2354-1.8273-4.9511-3.0113-7.7603-3.6778-2.8092-0.66652-5.7171-0.83173-8.6036-0.7696-3.4632 0.07455-7.0324 0.50878-10.035 2.2365-3.1104 1.7899-5.3464 4.8398-6.7607 8.138-1.4143 3.2982-2.0799 6.8622-2.6605 10.404-0.96166 5.8648-1.7186 11.762-2.3514 17.671-0.41887 3.9116-0.79686 7.8868-2.2252 11.552-0.7142 1.8327-1.6925 3.575-2.9947 5.0491-1.3022 1.4742-2.9371 2.6747-4.7855 3.3472-1.7885 0.65075-3.7161 0.79461-5.6164 0.89886-1.5334 0.0841-2.9923 0.1866-4.6033 0.1866" stroke-width="5"/>
   <path d="m168.24 68.405a21.657 21.657 0 0 1-21.657 21.657 21.657 21.657 0 0 1-21.657-21.657 21.657 21.657 0 0 1 21.657-21.657 21.657 21.657 0 0 1 21.657 21.657z" stroke-width="5"/>
   <path d="m15.61 155.63c0-1.7909 5.7404-27.374 8.8264-40.721 0.77146-3.3367 1.556-6.6894 2.8707-9.8517 1.3147-3.1623 3.1963-6.1534 5.8479-8.3209 2.2354-1.8273 4.9511-3.0113 7.7603-3.6778 2.8092-0.66652 5.7171-0.83173 8.6036-0.7696 3.4632 0.07455 7.0324 0.50878 10.035 2.2365 3.1104 1.7899 5.3464 4.8398 6.7607 8.138 1.4143 3.2982 2.0799 6.8622 2.6605 10.404 0.96166 5.8648 1.7186 11.762 2.3514 17.671 0.41887 3.9116 0.79686 7.8868 2.2252 11.552 0.7142 1.8327 1.6925 3.575 2.9947 5.0491 1.3022 1.4742 2.9371 2.6747 4.7855 3.3472 1.7885 0.65075 3.7161 0.79461 5.6164 0.89886 1.5334 0.0841 2.9923 0.1866 4.6033 0.1866" stroke-width="5"/>
   <path d="m31.757 68.405a21.657 21.657 0 0 0 21.657 21.657 21.657 21.657 0 0 0 21.657-21.657 21.657 21.657 0 0 0-21.657-21.657 21.657 21.657 0 0 0-21.657 21.657z" stroke-width="5"/>
  </g>
 </g>
</svg>