<svg width="200" height="200" version="1.1" xmlns="http://www.w3.org/2000/svg">
 <g fill="none" stroke="#999" stroke-width="3">
  <path d="m0 16v-16h16"/>
  <path d="m200 16v-16h-16"/>
  <path d="m0 184v16h16"/>
  <path d="m200 184v16h-16"/>
 </g>
 <g>
  <path d="m75.459 30.953 93.588 93.588v-16.262l-77.326-77.326h-16.262zm40.375 0 53.213 53.213v-16.266l-36.947-36.947h-16.266zm40.379 0 12.834 12.836v-12.836h-12.834z"/>
  <path d="m30.953 105.79v63.258h63.258l-63.258-63.258"/>
  <path d="m30.953 46.119v43.408l79.52 79.52h43.408l-122.93-122.93"/>
  <path d="m54.221 30.953h-22.17l137 137v-22.172"/>
 </g>
</svg>