<svg width="200" height="200" version="1.1" xmlns="http://www.w3.org/2000/svg">
 <g fill="none">
  <g stroke="#999" stroke-width="3">
   <path d="m0 16v-16h16"/>
   <path d="m200 16v-16h-16"/>
   <path d="m0 184v16h16"/>
   <path d="m200 184v16h-16"/>
  </g>
  <g stroke="#000" stroke-width="5">
   <path d="m85.437 55.473h29.392"/>
   <path d="m25.761 146.41h148.48"/>
   <path d="m20.197 110.04h159.61"/>
   <path d="m21.849 73.661 156.45 1e-6"/>
   <path d="m47.969 55.473h29.392"/>
   <path d="m25.342 55.473h14.551"/>
   <path d="m122.9 55.473h29.392"/>
   <path d="m160.37 55.473h14.544"/>
   <path d="m85.437 91.849h29.392"/>
   <path d="m47.969 91.849h29.392"/>
   <path d="m20.106 91.849h19.788"/>
   <path d="m122.9 91.849h29.392"/>
   <path d="m160.37 91.849h19.57"/>
   <path d="m85.437 128.23h29.392"/>
   <path d="m47.969 128.23h29.392"/>
   <path d="m22.106 128.23h17.788"/>
   <path d="m122.9 128.23h29.392"/>
   <path d="m160.37 128.23h17.523"/>
   <path d="m100 36.107a193.63 193.63 0 0 0-73.68 14.979 193.63 193.63 0 0 0-6.6172 48.914 193.63 193.63 0 0 0 6.6172 48.914 193.63 193.63 0 0 0 73.68 14.979 193.63 193.63 0 0 0 73.68-14.979 193.63 193.63 0 0 0 6.6172-48.914 193.63 193.63 0 0 0-6.4082-49.232 193.63 193.63 0 0 0-73.889-14.66z"/>
  </g>
 </g>
</svg>