<svg width="200" height="200" version="1.1" xmlns="http://www.w3.org/2000/svg">
 <g fill="none" stroke="#999" stroke-width="3">
  <path d="m0 16v-16h16"/>
  <path d="m200 16v-16h-16"/>
  <path d="m0 184v16h16"/>
  <path d="m200 184v16h-16"/>
 </g>
 <circle cx="100" cy="100" r="50.486" fill="none" stroke="#000" stroke-width="5"/>
 <path d="m150.49 100a50.486 50.486 0 0 1-25.243 43.722 50.486 50.486 0 0 1-50.486 0 50.486 50.486 0 0 1-25.243-43.722"/>
 <g fill="none" stroke="#000" stroke-width="5">
  <path d="m81.266 53.188v-36.935h37.468v36.869"/>
  <path d="m10.487 100h25.168"/>
  <path d="m36.705 36.705 17.797 17.797"/>
  <path d="m163.3 36.705-17.797 17.797"/>
  <path d="m189.51 100-25.168 1e-6"/>
 </g>
</svg>