<svg width="200" height="200" version="1.1" xmlns="http://www.w3.org/2000/svg">
 <path d="m105.19 100c3.1946-3.0168 6.4201-6.0481 10.145-8.4056 3.7246-2.3575 8.0226-4.0254 12.453-4.0226 4.429 3e-3 8.7234 1.6754 12.446 4.0334 3.7231 2.358 6.9495 5.3862 10.151 8.3948 3.2013 3.0085 6.4277 6.0368 10.151 8.3948 3.7231 2.358 8.0175 4.0305 12.446 4.0334 4.43 3e-3 8.7279-1.6651 12.453-4.0226 3.7246-2.3575 6.9502-5.3887 10.145-8.4056" fill="none" stroke="#000" stroke-width="5"/>
 <path d="m89.295 133.12-28.463-48.16v48.16h-9.0521v-66.231h8.7722l28.09 48.065v-48.065h9.0521v66.231z"/>
 <path d="m7.08 133.21v-4.8254q0-7.4747 1.9046-12.111 2.0104-4.7308 4.8672-7.7585 2.9626-3.1223 6.3485-5.2039 3.4917-2.0816 6.3485-4.447 2.9626-2.3654 4.8672-5.5823 2.0104-3.2169 2.0104-8.6101 0-2.1762-0.42324-4.2577-0.31743-2.0816-1.2697-3.69-0.95228-1.7031-2.5394-2.6492-1.4813-1.0408-3.8091-1.0408-2.751 0-4.3382 1.4192-1.5871 1.4192-2.3278 3.5954-0.74066 2.1762-0.95228 4.8254-0.10581 2.5546-0.10581 4.92h-9.6286q0-10.313 4.444-16.274 4.444-6.0554 13.438-6.0554 4.8672 0 8.2531 1.7977 3.3859 1.7031 5.3962 4.5416 2.0104 2.8385 2.8568 6.5285 0.95228 3.5954 0.95228 7.2854 0 6.15-2.0104 10.124-1.9046 3.9739-4.7614 6.8124-2.8568 2.7439-6.3485 4.92-3.3859 2.0816-6.2427 4.447t-4.8672 5.4877q-1.9046 3.0277-1.9046 7.8531h26.135v7.9478z"/>
 
<g fill="none" stroke="#999" stroke-width="3">
  <path d="m0 16v-16h16"/>
  <path d="m200 16v-16h-16"/>
  <path d="m0 184v16h16"/>
  <path d="m200 184v16h-16"/>
 </g></svg>