<svg width="200" height="200" version="1.1" xmlns="http://www.w3.org/2000/svg">
 <g fill="none" stroke="#000" stroke-width="5">
  <path d="m99.988 152.35c-20.277 0-40.405-3.437-59.514-10.143-5.3808-13.395-8.1545-27.719-8.1545-42.178 0-14.471 2.7781-28.806 8.1847-42.229 19.12-6.7198 39.241-10.154 59.509-10.154 20.277 0 40.405 3.437 59.514 10.143 5.3808 13.395 8.1545 27.719 8.1545 42.178 0 14.471-2.7781 28.806-8.1847 42.229-19.12 6.7198-39.241 10.154-59.509 10.154z"/>
  <path d="m17.005 32.735v134.53"/>
  <path d="m183 32.735v134.53"/>
 </g>
 <g>
  <circle cx="99.977" cy="80" r="14.686"/>
  <circle cx="77.843" cy="119.61" r="14.686"/>
  <circle cx="122.16" cy="120" r="14.686"/>
 </g>
 
<g fill="none" stroke="#999" stroke-width="3">
  <path d="m0 16v-16h16"/>
  <path d="m200 16v-16h-16"/>
  <path d="m0 184v16h16"/>
  <path d="m200 184v16h-16"/>
 </g></svg>