<svg width="200" height="200" version="1.1" xmlns="http://www.w3.org/2000/svg">
 <g fill="none">
  <g stroke="#999" stroke-width="3">
   <path d="m0 16v-16h16"/>
   <path d="m200 16v-16h-16"/>
   <path d="m0 184v16h16"/>
   <path d="m200 184v16h-16"/>
  </g>
  <path d="m163.47 126.4a74.306 74.306 0 0 1-69.459 47.907 74.306 74.306 0 0 1-74.306-74.306 74.306 74.306 0 0 1 74.306-74.306 74.306 74.306 0 0 1 69.469 47.934" stroke="#000" stroke-width="5"/>
  <path d="m96.105 126.37c-14.562 0-26.367-11.805-26.367-26.367 0-14.562 11.805-26.367 26.367-26.367l87.582-2e-6v52.733z" stroke="#000" stroke-width="5"/>
 </g>
</svg>