<svg width="200" height="200" version="1.1" xmlns="http://www.w3.org/2000/svg"><path d="m99.999 4.9197-95.654 162.12h191.31z" fill="none" stroke="#000" stroke-width="5"/><path d="m67.516 97.246c-0.78792-5.8942 0.58287-12.305 5.065-16.481 13.951-13.737 38.19-14.402 53.131-1.8723 4.981 3.7834 7.8768 10.028 7.2276 16.287-1.3194 19.311-2.7275 38.617-4.0815 57.926h-17.954c1.2583-18.272 2.6768-36.537 3.8218-54.815-0.0851-5.6778-6.0302-8.8977-10.926-9.9451-6.2776-1.2255-13.776 0.81064-17.335 6.4144-1.8736 4.3099-0.11636 9.129-0.20688 13.643 1.0519 14.901 2.1052 29.802 3.168 44.703h-17.954c-1.3187-18.62-2.6374-37.241-3.9562-55.861z"/> 
<g fill="none" stroke="#999" stroke-width="3">
  <path d="m0 16v-16h16"/>
  <path d="m200 16v-16h-16"/>
  <path d="m0 184v16h16"/>
  <path d="m200 184v16h-16"/>
 </g></svg>