<svg width="200" height="200" version="1.1" xmlns="http://www.w3.org/2000/svg">
 <g fill="none">
  <g stroke="#999" stroke-width="3">
   <path d="m0 16v-16h16"/>
   <path d="m200 16v-16h-16"/>
   <path d="m0 184v16h16"/>
   <path d="m200 184v16h-16"/>
  </g>
  <path d="m91.691 59.554c-5.5014 9.0609-12.87 16.907-18.068 26.146-4.4535 7.9163-7.2472 16.898-7.0937 25.98 0.1535 9.0817 3.4152 18.243 9.7412 24.761 6.1135 6.299 14.957 9.852 23.729 9.5339 8.7721 0.3181 17.615-3.235 23.729-9.5339 6.326-6.5179 9.5877-15.679 9.7412-24.761 0.1535-9.0817-2.6402-18.064-7.0937-25.98-5.1974-9.2386-12.566-17.085-18.068-26.146-3.6498-6.0112-6.4553-12.534-8.3087-19.318-1.8534 6.7839-4.6589 13.307-8.3087 19.318z" stroke="#000" stroke-width="5"/>
  <rect x="33.157" y="33.157" width="133.69" height="133.69" stroke="#000" stroke-width="5"/>
 </g>
</svg>