<svg width="200" height="200" version="1.1" xmlns="http://www.w3.org/2000/svg">
 <g fill="none" stroke="#999" stroke-width="3">
  <path d="m0 16v-16h16"/>
  <path d="m200 16v-16h-16"/>
  <path d="m0 184v16h16"/>
  <path d="m200 184v16h-16"/>
 </g>
 <path d="m50.169 136.33 18.503-24.932-16.317-22.909h7.5384l8.6806 12.27q2.7086 3.8182 3.8508 5.8741 1.5991-2.6107 3.7855-5.4499l9.627-12.695h6.8858l-16.806 22.55 18.112 25.291h-7.8321l-12.042-17.068q-1.0117-1.4685-2.0886-3.1981-1.5991 2.6107-2.2844 3.5897l-12.009 16.676z"/>
 <path d="m106.65 136.33v-34.657h5.254v4.8624q1.6317-2.5454 4.3403-4.0792 2.7086-1.5664 6.1678-1.5664 3.8508 0 6.2983 1.5991 2.4802 1.5991 3.4918 4.4708 4.1119-6.0699 10.704-6.0699 5.1562 0 7.93 2.8718 2.7739 2.8392 2.7739 8.7785v23.79h-5.8415v-21.832q0-3.5245-0.58741-5.0582-0.55477-1.5664-2.0559-2.5128t-3.5245-0.94638q-3.655 0-6.0699 2.4475-2.4149 2.4149-2.4149 7.7669v20.135h-5.8741v-22.517q0-3.9161-1.4359-5.8741t-4.6993-1.958q-2.4802 0-4.6014 1.3054-2.0886 1.3054-3.035 3.8182-0.94638 2.5128-0.94638 7.2447v17.981z"/>
 <g fill="none" stroke="#000">
  <g stroke-width="5">
   <path d="m71.61 74.007 28.39-28.39 28.39 28.39"/>
   <path d="m71.61 152.52 28.39 28.39 28.39-28.39"/>
   <path d="m69.842 186.94h60.316"/>
  </g>
  <g stroke-width="5">
   <path d="m100 14.681v3.3356a23.002 23.244 0 0 1-11.501 20.13 23.002 23.244 0 0 1-23.002 0 23.002 23.244 0 0 1-11.501-20.13v-3.3356"/>
   <path d="m27.966 41.261h3.0277a23.002 23.244 0 0 0 23.002-23.244v-3.3356"/>
   <path d="m100 14.681v3.3356a23.002 23.244 0 0 0 11.501 20.13 23.002 23.244 0 0 0 23.002 0 23.002 23.244 0 0 0 11.501-20.13v-3.3356"/>
   <path d="m172.03 41.261h-3.0277a23.002 23.244 0 0 1-23.002-23.244v-3.3356"/>
  </g>
 </g>
</svg>