<svg width="200" height="200" version="1.1" xmlns="http://www.w3.org/2000/svg">
 <g fill="none" stroke="#999" stroke-width="3">
  <path d="m0 16v-16h16"/>
  <path d="m200 16v-16h-16"/>
  <path d="m0 184v16h16"/>
  <path d="m200 184v16h-16"/>
 </g>
 <path d="m100 38.135-8.3027 39.055-31.463-24.58 18.744 35.254-39.902 1.3945 37.018 14.957-29.67 26.717 37.975-12.338-5.5566 39.539 21.158-33.859 21.158 33.859-5.5566-39.539 37.975 12.338-29.67-26.717 37.018-14.957-39.902-1.3945 18.744-35.254-31.463 24.58-8.3027-39.055zm0 41.387c11.275 0 20.479 9.2039 20.479 20.479s-9.2039 20.479-20.479 20.479-20.479-9.2039-20.479-20.479 9.2039-20.479 20.479-20.479zm0 6c-8.0319 0-14.479 6.4466-14.479 14.479 0 8.0319 6.4466 14.479 14.479 14.479 8.0319 0 14.479-6.4466 14.479-14.479 0-8.0319-6.4466-14.479-14.479-14.479z"/>
 <path d="m130.19 172.89-60.383-4e-5 -42.697-42.699 4.7e-5 -60.383 42.699-42.697 60.383 4.6e-5 42.697 42.699-5e-5 60.383z" fill="none" stroke="#000" stroke-width="5"/>
</svg>