<svg width="200" height="200" version="1.1" xmlns="http://www.w3.org/2000/svg">
 <g fill="none">
  <g stroke="#999" stroke-width="3">
   <path d="m0 16v-16h16"/>
   <path d="m200 16v-16h-16"/>
   <path d="m0 184v16h16"/>
   <path d="m200 184v16h-16"/>
  </g>
  <g stroke="#000" stroke-width="5">
   <path d="m114.83 48.517 12.946 39.842c0.68792-0.06326 1.3784-0.09494 2.0692-0.09494 12.479 0 22.596 10.116 22.596 22.596 0 12.479-10.116 22.596-22.596 22.596-3.133 0-6.2317-0.65152-9.0684-1.9338 1.9932 4.615 2.3513 9.7731 1.0484 14.635-2.6469 9.8785-11.599 16.748-21.826 16.748-10.227 0-19.179-6.869-21.826-16.748-1.3029-4.8623-0.94477-10.02 1.0484-14.635-2.8367 1.2823-5.9355 1.9338-9.0684 1.9338-12.479 0-22.596-10.116-22.596-22.596 0-12.479 10.116-22.596 22.596-22.596 0.69082-1e-6 1.3813 0.03168 2.0692 0.09494l12.946-39.842"/>
   <path d="m100 59.746v28.178"/>
   <path d="m57.839 37.288h84.322"/>
  </g>
 </g>
</svg>