<svg width="200" height="200" version="1.1" xmlns="http://www.w3.org/2000/svg">
 <g fill="none">
  <g stroke="#999" stroke-width="3">
   <path d="m0 16v-16h16"/>
   <path d="m200 16v-16h-16"/>
   <path d="m0 184v16h16"/>
   <path d="m200 184v16h-16"/>
  </g>
  <g stroke="#000" stroke-width="5">
   <path d="m26.714 123.18-23.182-23.182 21.873-21.873"/>
   <path d="m63.377 159.84-21.918-21.918"/>
   <path d="m121.87 174.59-21.873 21.873-21.873-21.873"/>
   <path d="m158.54 137.93-21.918 21.918"/>
   <path d="m174.59 78.128 21.873 21.873-23.182 23.182"/>
   <path d="m137.93 41.464 21.918 21.918"/>
   <path d="m76.819 26.717 23.182-23.182 23.182 23.182"/>
   <path d="m40.154 63.382 21.918-21.918"/>
   <path d="m100 37.229v125.54"/>
  </g>
 </g>
</svg>