<svg width="200" height="200" version="1.1" xmlns="http://www.w3.org/2000/svg">
 <g fill="none">
  <path d="m138.18 66.949 7.8827 3e-6a13.558 13.558 0 0 1 13.558 13.558 13.558 13.558 0 0 1-13.558 13.558h-9.3638" stroke="#000" stroke-width="5"/>
  <g stroke="#999" stroke-width="3">
   <path d="m0 16v-16h16"/>
   <path d="m200 16v-16h-16"/>
   <path d="m0 184v16h16"/>
   <path d="m200 184v16h-16"/>
  </g>
  <path d="m57.772 66.949 1.6517 30.24c0.80655 14.767 13.016 26.327 27.805 26.327h21.498c14.789 0 26.998-11.561 27.805-26.327l1.6517-30.24c-26.803 0-53.607 1e-6 -80.41 1e-6z" stroke="#000" stroke-width="5"/>
  <path d="m162.14 130.08-23.736 23.736h-76.807l-23.736-23.736" stroke="#000" stroke-width="5"/>
 </g>
</svg>