<svg width="200" height="200" version="1.1" xmlns="http://www.w3.org/2000/svg">
 <g fill="none">
  <g stroke="#999" stroke-width="3">
   <path d="m0 16v-16h16"/>
   <path d="m200 16v-16h-16"/>
   <path d="m0 184v16h16"/>
   <path d="m200 184v16h-16"/>
  </g>
  <g stroke="#000" stroke-width="5">
   <path d="m141.1 46.822h36.865v106.36h-155.93v-106.36h36.865"/>
   <path d="m58.898 33.475h82.203v66.525h-82.203z"/>
   <path d="m113.18 66.737a13.183 13.183 0 0 1-13.183 13.183 13.183 13.183 0 0 1-13.183-13.183 13.183 13.183 0 0 1 13.183-13.183 13.183 13.183 0 0 1 13.183 13.183z"/>
  </g>
 </g>
 <path d="m123.04 126.12a2.9069 2.9069 0 0 1-2.9069 2.9069 2.9069 2.9069 0 0 1-2.9069-2.9069 2.9069 2.9069 0 0 1 2.9069-2.9069 2.9069 2.9069 0 0 1 2.9069 2.9069z"/>
 <path d="m163.01 126.12a2.9069 2.9069 0 0 1-2.9069 2.9069 2.9069 2.9069 0 0 1-2.9069-2.9069 2.9069 2.9069 0 0 1 2.9069-2.9069 2.9069 2.9069 0 0 1 2.9069 2.9069z"/>
 <path d="m149.69 126.12a2.9069 2.9069 0 0 1-2.9069 2.9069 2.9069 2.9069 0 0 1-2.9069-2.9069 2.9069 2.9069 0 0 1 2.9069-2.9069 2.9069 2.9069 0 0 1 2.9069 2.9069z"/>
 <path d="m136.36 126.12a2.9069 2.9069 0 0 1-2.9069 2.9069 2.9069 2.9069 0 0 1-2.9069-2.9069 2.9069 2.9069 0 0 1 2.9069-2.9069 2.9069 2.9069 0 0 1 2.9069 2.9069z"/>
 <path d="m56.428 126.12a2.9069 2.9069 0 0 1-2.9069 2.9069 2.9069 2.9069 0 0 1-2.9069-2.9069 2.9069 2.9069 0 0 1 2.9069-2.9069 2.9069 2.9069 0 0 1 2.9069 2.9069z"/>
 <path d="m43.106 126.12a2.9069 2.9069 0 0 1-2.9069 2.9069 2.9069 2.9069 0 0 1-2.9069-2.9069 2.9069 2.9069 0 0 1 2.9069-2.9069 2.9069 2.9069 0 0 1 2.9069 2.9069z"/>
 <path d="m83.073 126.12a2.9069 2.9069 0 0 1-2.9069 2.9069 2.9069 2.9069 0 0 1-2.9069-2.9069 2.9069 2.9069 0 0 1 2.9069-2.9069 2.9069 2.9069 0 0 1 2.9069 2.9069z"/>
 <path d="m69.751 126.12a2.9069 2.9069 0 0 1-2.9069 2.9069 2.9069 2.9069 0 0 1-2.9069-2.9069 2.9069 2.9069 0 0 1 2.9069-2.9069 2.9069 2.9069 0 0 1 2.9069 2.9069z"/>
 <path d="m109.72 126.12a2.9069 2.9069 0 0 1-2.9069 2.9069 2.9069 2.9069 0 0 1-2.9069-2.9069 2.9069 2.9069 0 0 1 2.9069-2.9069 2.9069 2.9069 0 0 1 2.9069 2.9069z"/>
 <path d="m96.395 126.12a2.9069 2.9069 0 0 1-2.9069 2.9069 2.9069 2.9069 0 0 1-2.9069-2.9069 2.9069 2.9069 0 0 1 2.9069-2.9069 2.9069 2.9069 0 0 1 2.9069 2.9069z"/>
 <path d="m116.38 139.44a2.9069 2.9069 0 0 1-2.9069 2.9069 2.9069 2.9069 0 0 1-2.9069-2.9069 2.9069 2.9069 0 0 1 2.9069-2.9069 2.9069 2.9069 0 0 1 2.9069 2.9069z"/>
 <path d="m156.35 139.44a2.9069 2.9069 0 0 1-2.9069 2.9069 2.9069 2.9069 0 0 1-2.9069-2.9069 2.9069 2.9069 0 0 1 2.9069-2.9069 2.9069 2.9069 0 0 1 2.9069 2.9069z"/>
 <path d="m143.02 139.44a2.9069 2.9069 0 0 1-2.9069 2.9069 2.9069 2.9069 0 0 1-2.9069-2.9069 2.9069 2.9069 0 0 1 2.9069-2.9069 2.9069 2.9069 0 0 1 2.9069 2.9069z"/>
 <path d="m129.7 139.44a2.9069 2.9069 0 0 1-2.9069 2.9069 2.9069 2.9069 0 0 1-2.9069-2.9069 2.9069 2.9069 0 0 1 2.9069-2.9069 2.9069 2.9069 0 0 1 2.9069 2.9069z"/>
 <path d="m49.767 139.44a2.9069 2.9069 0 0 1-2.9069 2.9069 2.9069 2.9069 0 0 1-2.9069-2.9069 2.9069 2.9069 0 0 1 2.9069-2.9069 2.9069 2.9069 0 0 1 2.9069 2.9069z"/>
 <path d="m36.445 139.44a2.9069 2.9069 0 0 1-2.9069 2.9069 2.9069 2.9069 0 0 1-2.9069-2.9069 2.9069 2.9069 0 0 1 2.9069-2.9069 2.9069 2.9069 0 0 1 2.9069 2.9069z"/>
 <path d="m76.412 139.44a2.9069 2.9069 0 0 1-2.9069 2.9069 2.9069 2.9069 0 0 1-2.9069-2.9069 2.9069 2.9069 0 0 1 2.9069-2.9069 2.9069 2.9069 0 0 1 2.9069 2.9069z"/>
 <path d="m63.089 139.44a2.9069 2.9069 0 0 1-2.9069 2.9069 2.9069 2.9069 0 0 1-2.9069-2.9069 2.9069 2.9069 0 0 1 2.9069-2.9069 2.9069 2.9069 0 0 1 2.9069 2.9069z"/>
 <path d="m103.06 139.44a2.9069 2.9069 0 0 1-2.9069 2.9069 2.9069 2.9069 0 0 1-2.9069-2.9069 2.9069 2.9069 0 0 1 2.9069-2.9069 2.9069 2.9069 0 0 1 2.9069 2.9069z"/>
 <path d="m89.734 139.44a2.9069 2.9069 0 0 1-2.9069 2.9069 2.9069 2.9069 0 0 1-2.9069-2.9069 2.9069 2.9069 0 0 1 2.9069-2.9069 2.9069 2.9069 0 0 1 2.9069 2.9069z"/>
 <path d="m169.67 139.44a2.9069 2.9069 0 0 1-2.9069 2.9069 2.9069 2.9069 0 0 1-2.9069-2.9069 2.9069 2.9069 0 0 1 2.9069-2.9069 2.9069 2.9069 0 0 1 2.9069 2.9069z"/>
 <path d="m163.01 99.47a2.9069 2.9069 0 0 1-2.9069 2.9069 2.9069 2.9069 0 0 1-2.9069-2.9069 2.9069 2.9069 0 0 1 2.9069-2.9069 2.9069 2.9069 0 0 1 2.9069 2.9069z"/>
 <path d="m43.106 99.47a2.9069 2.9069 0 0 1-2.9069 2.9069 2.9069 2.9069 0 0 1-2.9069-2.9069 2.9069 2.9069 0 0 1 2.9069-2.9069 2.9069 2.9069 0 0 1 2.9069 2.9069z"/>
 <path d="m116.38 112.79a2.9069 2.9069 0 0 1-2.9069 2.9069 2.9069 2.9069 0 0 1-2.9069-2.9069 2.9069 2.9069 0 0 1 2.9069-2.9069 2.9069 2.9069 0 0 1 2.9069 2.9069z"/>
 <path d="m156.35 112.79a2.9069 2.9069 0 0 1-2.9069 2.9069 2.9069 2.9069 0 0 1-2.9069-2.9069 2.9069 2.9069 0 0 1 2.9069-2.9069 2.9069 2.9069 0 0 1 2.9069 2.9069z"/>
 <path d="m143.02 112.79a2.9069 2.9069 0 0 1-2.9069 2.9069 2.9069 2.9069 0 0 1-2.9069-2.9069 2.9069 2.9069 0 0 1 2.9069-2.9069 2.9069 2.9069 0 0 1 2.9069 2.9069z"/>
 <path d="m129.7 112.79a2.9069 2.9069 0 0 1-2.9069 2.9069 2.9069 2.9069 0 0 1-2.9069-2.9069 2.9069 2.9069 0 0 1 2.9069-2.9069 2.9069 2.9069 0 0 1 2.9069 2.9069z"/>
 <path d="m49.767 112.79a2.9069 2.9069 0 0 1-2.9069 2.9069 2.9069 2.9069 0 0 1-2.9069-2.9069 2.9069 2.9069 0 0 1 2.9069-2.9069 2.9069 2.9069 0 0 1 2.9069 2.9069z"/>
 <path d="m36.445 112.79a2.9069 2.9069 0 0 1-2.9069 2.9069 2.9069 2.9069 0 0 1-2.9069-2.9069 2.9069 2.9069 0 0 1 2.9069-2.9069 2.9069 2.9069 0 0 1 2.9069 2.9069z"/>
 <path d="m76.412 112.79a2.9069 2.9069 0 0 1-2.9069 2.9069 2.9069 2.9069 0 0 1-2.9069-2.9069 2.9069 2.9069 0 0 1 2.9069-2.9069 2.9069 2.9069 0 0 1 2.9069 2.9069z"/>
 <path d="m63.089 112.79a2.9069 2.9069 0 0 1-2.9069 2.9069 2.9069 2.9069 0 0 1-2.9069-2.9069 2.9069 2.9069 0 0 1 2.9069-2.9069 2.9069 2.9069 0 0 1 2.9069 2.9069z"/>
 <path d="m103.06 112.79a2.9069 2.9069 0 0 1-2.9069 2.9069 2.9069 2.9069 0 0 1-2.9069-2.9069 2.9069 2.9069 0 0 1 2.9069-2.9069 2.9069 2.9069 0 0 1 2.9069 2.9069z"/>
 <path d="m89.734 112.79a2.9069 2.9069 0 0 1-2.9069 2.9069 2.9069 2.9069 0 0 1-2.9069-2.9069 2.9069 2.9069 0 0 1 2.9069-2.9069 2.9069 2.9069 0 0 1 2.9069 2.9069z"/>
 <path d="m169.67 112.79a2.9069 2.9069 0 0 1-2.9069 2.9069 2.9069 2.9069 0 0 1-2.9069-2.9069 2.9069 2.9069 0 0 1 2.9069-2.9069 2.9069 2.9069 0 0 1 2.9069 2.9069z"/>
 <path d="m163.01 72.826a2.9069 2.9069 0 0 1-2.9069 2.9069 2.9069 2.9069 0 0 1-2.9069-2.9069 2.9069 2.9069 0 0 1 2.9069-2.9069 2.9069 2.9069 0 0 1 2.9069 2.9069z"/>
 <path d="m43.106 72.826a2.9069 2.9069 0 0 1-2.9069 2.9069 2.9069 2.9069 0 0 1-2.9069-2.9069 2.9069 2.9069 0 0 1 2.9069-2.9069 2.9069 2.9069 0 0 1 2.9069 2.9069z"/>
 <path d="m156.35 86.148a2.9069 2.9069 0 0 1-2.9069 2.9069 2.9069 2.9069 0 0 1-2.9069-2.9069 2.9069 2.9069 0 0 1 2.9069-2.9069 2.9069 2.9069 0 0 1 2.9069 2.9069z"/>
 <path d="m49.767 86.148a2.9069 2.9069 0 0 1-2.9069 2.9069 2.9069 2.9069 0 0 1-2.9069-2.9069 2.9069 2.9069 0 0 1 2.9069-2.9069 2.9069 2.9069 0 0 1 2.9069 2.9069z"/>
 <path d="m36.445 86.148a2.9069 2.9069 0 0 1-2.9069 2.9069 2.9069 2.9069 0 0 1-2.9069-2.9069 2.9069 2.9069 0 0 1 2.9069-2.9069 2.9069 2.9069 0 0 1 2.9069 2.9069z"/>
 <path d="m169.67 86.148a2.9069 2.9069 0 0 1-2.9069 2.9069 2.9069 2.9069 0 0 1-2.9069-2.9069 2.9069 2.9069 0 0 1 2.9069-2.9069 2.9069 2.9069 0 0 1 2.9069 2.9069z"/>
 <path d="m156.35 59.503a2.9069 2.9069 0 0 1-2.9069 2.9069 2.9069 2.9069 0 0 1-2.9069-2.9069 2.9069 2.9069 0 0 1 2.9069-2.9069 2.9069 2.9069 0 0 1 2.9069 2.9069z"/>
 <path d="m49.767 59.503a2.9069 2.9069 0 0 1-2.9069 2.9069 2.9069 2.9069 0 0 1-2.9069-2.9069 2.9069 2.9069 0 0 1 2.9069-2.9069 2.9069 2.9069 0 0 1 2.9069 2.9069z"/>
 <path d="m36.445 59.503a2.9069 2.9069 0 0 1-2.9069 2.9069 2.9069 2.9069 0 0 1-2.9069-2.9069 2.9069 2.9069 0 0 1 2.9069-2.9069 2.9069 2.9069 0 0 1 2.9069 2.9069z"/>
 <path d="m169.67 59.503a2.9069 2.9069 0 0 1-2.9069 2.9069 2.9069 2.9069 0 0 1-2.9069-2.9069 2.9069 2.9069 0 0 1 2.9069-2.9069 2.9069 2.9069 0 0 1 2.9069 2.9069z"/>
</svg>