<svg
   width="53.710388mm"
   height="53.710388mm"
   viewBox="0 0 53.710388 53.710388"
   version="1.1"
   id="svg20990"
   xml:space="preserve"
   xmlns:inkscape="http://www.inkscape.org/namespaces/inkscape"
   xmlns:sodipodi="http://sodipodi.sourceforge.net/DTD/sodipodi-0.dtd"
   xmlns="http://www.w3.org/2000/svg"
   xmlns:svg="http://www.w3.org/2000/svg"><sodipodi:namedview
     id="namedview20992"
     pagecolor="#ffffff"
     bordercolor="#000000"
     borderopacity="0.25"
     inkscape:showpageshadow="2"
     inkscape:pageopacity="0.0"
     inkscape:pagecheckerboard="0"
     inkscape:deskcolor="#d1d1d1"
     inkscape:document-units="mm"
     showgrid="false"
     showguides="false" /><defs
     id="defs20987" /><g
     inkscape:label="Layer 1"
     inkscape:groupmode="layer"
     id="layer1"
     transform="translate(-788.74428,-848.73514)"><g
       stroke="#999999"
       stroke-width="3"
       id="g25938-1-8"
       transform="matrix(0.26458333,0,0,0.26458333,789.1412,849.132)"
       style="fill:none"
       inkscape:export-filename="IEC 60417 - Ref-No 6400A.svg"
       inkscape:export-xdpi="96"
       inkscape:export-ydpi="96"><g
         id="g26000-7-1"><path
           d="M 0,16 V 0 h 16"
           id="path25930-1-4" /><path
           d="M 200,16 V 0 h -16"
           id="path25932-3-6" /><path
           d="m 0,184 v 16 h 16"
           id="path25934-5-1" /><path
           d="m 200,184 v 16 h -16"
           id="path25936-3-3" /></g></g><path
       id="path38497"
       style="color:#000000;fill:#000000;stroke-width:1.29445;-inkscape-stroke:none"
       d="m 815.59927,857.06485 -10.69391,18.52445 -10.69703,18.52651 h 1.264 20.12694 21.39146 L 826.2963,875.5893 Z m 0,2.92024 9.43303,16.33491 9.42991,16.33441 H 815.59927 796.73635 L 806.16936,876.32 Z m 8.05171,4.439 -0.59169,1.33584 c 2.65792,1.17866 4.59277,2.8901 5.87871,4.33616 0.64297,0.72304 1.12425,1.37777 1.449,1.86294 0.32475,0.48516 0.45888,0.73882 0.52969,0.86144 0.0708,0.12265 0.22073,0.36501 0.47852,0.88884 0.25779,0.52383 0.58571,1.26705 0.89038,2.1854 0.60936,1.83668 1.12472,4.36886 0.8165,7.26001 l 1.45107,0.154 c 0.33583,-3.15025 -0.22234,-5.89099 -0.88057,-7.87497 -0.32911,-0.99199 -0.68418,-1.79443 -0.96686,-2.36885 -0.28269,-0.57441 -0.53004,-0.98237 -0.52556,-0.97461 0.004,0.008 -0.2242,-0.40953 -0.58032,-0.94154 -0.35612,-0.53202 -0.8754,-1.24263 -1.56993,-2.02365 -1.38907,-1.56203 -3.48284,-3.41673 -6.37894,-4.70101 z" /></g></svg>