<svg width="200" height="200" version="1.1" xmlns="http://www.w3.org/2000/svg"><g stroke="#000" stroke-width="5"><path d="m6.4695 102.95h97.264"/><path d="m123.76 160.87c-21.062 0-41.879-4.6065-61.078-13.522-4.4067-14.411-6.6312-29.4-6.6312-44.474 0-15.101 2.2326-30.116 6.618-44.523 19.058-8.7709 39.737-13.315 60.655-13.315 21.062 0 41.879 4.6065 61.078 13.522 4.4067 14.411 6.6312 29.4 6.6312 44.474 0 15.101-2.2326 30.116-6.618 44.523-19.058 8.7709-39.737 13.315-60.655 13.315z" fill="none"/><path d="m72.78 85.373 30.432 17.578-30.432 17.57" fill="none"/></g><circle transform="scale(-1,1)" cx="-147.29" cy="82.999" r="10.042"/><circle transform="scale(-1,1)" cx="-165.67" cy="113.45" r="10.042"/><circle transform="scale(-1,1)" cx="-129.88" cy="113.45" r="10.042"/><g fill="none" stroke="#000" stroke-width="5"><path d="m36.17 36.633v32.521"/><path d="m45.49 45.955h-32.521"/><path d="m22.29 69.155v-32.521"/><path d="m12.97 59.833h32.521"/></g> 
<g fill="none" stroke="#999" stroke-width="3">
  <path d="m0 16v-16h16"/>
  <path d="m200 16v-16h-16"/>
  <path d="m0 184v16h16"/>
  <path d="m200 184v16h-16"/>
 </g></svg>