<svg width="200" height="200" version="1.1" xmlns="http://www.w3.org/2000/svg">
 <g fill="none">
  <g stroke="#999" stroke-width="3">
   <path d="m0 16v-16h16"/>
   <path d="m200 16v-16h-16"/>
   <path d="m0 184v16h16"/>
   <path d="m200 184v16h-16"/>
  </g>
  <g stroke="#000" stroke-width="5">
   <path d="m142.37 100a42.373 42.373 0 0 1-42.373 42.373 42.373 42.373 0 0 1-42.373-42.373 42.373 42.373 0 0 1 42.373-42.373 42.373 42.373 0 0 1 42.373 42.373z"/>
   <path d="m100 40.89v-39.86"/>
   <path d="m70.445 48.809-19.93-34.52"/>
   <path d="m48.809 70.445-34.52-19.93"/>
   <path d="m40.89 100-39.86 1e-6"/>
   <path d="m48.809 129.56-34.52 19.93"/>
   <path d="m70.445 151.19-19.93 34.52"/>
   <path d="m100 159.11 5e-6 39.86"/>
   <path d="m129.56 151.19 19.93 34.52"/>
   <path d="m151.19 129.56 34.52 19.93"/>
   <path d="m159.11 100 39.86-5e-6"/>
   <path d="m151.19 70.445 34.52-19.93"/>
   <path d="m129.56 48.809 19.93-34.52"/>
  </g>
 </g>
</svg>