<svg width="200" height="200" version="1.1" xmlns="http://www.w3.org/2000/svg">
 <path d="m69.546 100c3.7825-3.6338 7.6016-7.285 12.012-10.125 4.41-2.8397 9.4989-4.8487 14.744-4.8453 5.244 0.0039 10.329 2.018 14.737 4.8583s8.2284 6.4878 12.019 10.112c3.7904 3.6238 7.6106 7.2714 12.019 10.112 4.4082 2.8403 9.4929 4.8548 14.737 4.8583 5.2452 4e-3 10.334-2.0056 14.744-4.8453 4.41-2.8396 8.2292-6.4908 12.012-10.125" fill="none" stroke="#000" stroke-width="5"/>
 <path d="m32.809 103.22v-7.4747q5.8195 0 8.8879-1.0408 3.1743-1.1354 4.5498-2.8385 1.4813-1.7031 1.6929-3.69 0.31743-2.0816 0.31743-3.9739 0-5.4877-2.3278-8.3262-2.222-2.8385-5.6079-2.8385-3.1743 0-5.3962 2.7439-2.1162 2.6492-2.1162 8.6101h-9.6286q0-4.8254 1.4813-8.3262 1.4813-3.5954 3.8091-5.8662 2.4336-2.3654 5.5021-3.5008 3.1743-1.23 6.3485-1.23t6.3485 1.1354 5.7137 3.5008q2.6452 2.3654 4.2324 5.8662 1.5871 3.5008 1.5871 8.137 0 4.92-2.3278 9.0831-2.3278 4.0685-8.6763 5.9608 3.1743 0.94616 5.2904 2.6492 2.1162 1.6085 3.4917 3.7846t1.9046 4.7308q0.63485 2.46 0.63485 5.0146 0 3.5954-1.1639 7.0962-1.0581 3.4062-3.2801 6.15-2.222 2.6492-5.7137 4.3523-3.3859 1.6085-8.1473 1.6085-3.7033 0-7.0892-1.1354-3.2801-1.1354-5.8195-3.5008-2.5394-2.46-4.1265-6.15-1.4813-3.69-1.4813-8.8939h9.6286q0 3.3116 0.74066 5.677 0.84647 2.2708 2.0104 3.69 1.2697 1.4192 2.8568 2.0816 1.5871 0.66232 3.1743 0.66232 3.7033 0 5.8195-2.9331 2.222-3.0277 2.222-8.7047 0-6.2447-2.751-9.1778-2.6452-2.9331-7.724-2.9331z"/>
 
<g fill="none" stroke="#999" stroke-width="3">
  <path d="m0 16v-16h16"/>
  <path d="m200 16v-16h-16"/>
  <path d="m0 184v16h16"/>
  <path d="m200 184v16h-16"/>
 </g></svg>