<svg width="200" height="200" version="1.1" xmlns="http://www.w3.org/2000/svg">
 <g fill="none" stroke="#999" stroke-width="3">
  <path d="m0 16v-16h16"/>
  <path d="m200 16v-16h-16"/>
  <path d="m0 184v16h16"/>
  <path d="m200 184v16h-16"/>
 </g>
 <path d="m181.12 47.939-17.078 101.87h-128.09l-17.078-101.87" fill="none" stroke="#000" stroke-width="5"/>
 <g fill="none" stroke="#000" stroke-width="5">
  <path d="m45.328 60.332 18.169-12.125v63.72"/>
  <path d="m113.68 78.87c0.4128-5.0371 3.0971-9.8211 7.1656-12.815 3.2508-2.4422 7.3495-3.6855 11.407-3.537 3.2541-9.22e-4 6.4581 1.1622 9.0927 3.0439 2.1786 1.5405 3.8147 3.7789 4.7324 6.2758 1.1578 2.982 1.1106 6.272 0.64615 9.3922-0.33544 1.9711-0.94714 3.9036-1.8202 5.7019-1.1731 2.0078-2.7532 3.7359-4.2437 5.5079-5.1904 5.9379-10.59 11.688-15.945 17.477-3.9881 4.2903-7.9861 8.5713-11.984 12.853h38.127"/>
  <path d="m72.669 126.91c14.548-30.367 29.096-60.734 43.644-91.102"/>
 </g>
</svg>