<svg width="200" height="200" version="1.1" xmlns="http://www.w3.org/2000/svg"><g fill="none" stroke="#000" stroke-width="5"><path d="m48.786 68.69c3.6201-2.2924 7.275-4.5957 11.496-6.387 4.2208-1.7914 9.0914-3.0588 14.111-3.0567 5.019 2e-3 9.8856 1.2731 14.105 3.0648s7.8752 4.093 11.503 6.3789c3.6277 2.2861 7.2835 4.5871 11.503 6.3789 4.219 1.7918 9.0853 3.0627 14.105 3.0648 5.02 2e-3 9.8911-1.2652 14.111-3.0567 4.2207-1.7914 7.8758-4.0947 11.496-6.387"/><path d="m48.786 100c3.6201-2.2924 7.275-4.5957 11.496-6.387 4.2208-1.7914 9.0914-3.0588 14.111-3.0567 5.019 2e-3 9.8856 1.2731 14.105 3.0648s7.8752 4.093 11.503 6.3789c3.6277 2.2861 7.2835 4.5871 11.503 6.3789 4.219 1.7918 9.0853 3.0627 14.105 3.0648 5.02 2e-3 9.8911-1.2652 14.111-3.0567 4.2207-1.7914 7.8758-4.0947 11.496-6.387"/><path d="m48.786 131.31c3.6201-2.2924 7.275-4.5957 11.496-6.387 4.2208-1.7914 9.0914-3.0588 14.111-3.0567 5.019 2e-3 9.8856 1.273 14.105 3.0648s7.8752 4.093 11.503 6.3789c3.6277 2.2861 7.2835 4.5871 11.503 6.3789 4.219 1.7918 9.0853 3.0627 14.105 3.0648 5.02 2e-3 9.8911-1.2652 14.111-3.0567 4.2207-1.7914 7.8758-4.0947 11.496-6.387"/><rect transform="scale(1,-1)" x="16.5" y="-167" width="167" height="134" rx="8" ry="8"/></g> 
<g fill="none" stroke="#999" stroke-width="3">
  <path d="m0 16v-16h16"/>
  <path d="m200 16v-16h-16"/>
  <path d="m0 184v16h16"/>
  <path d="m200 184v16h-16"/>
 </g></svg>