<svg width="200" height="200" version="1.1" xmlns="http://www.w3.org/2000/svg">
 <g fill="none" stroke="#999" stroke-width="3">
  <path d="m0 16v-16h16"/>
  <path d="m200 16v-16h-16"/>
  <path d="m0 184v16h16"/>
  <path d="m200 184v16h-16"/>
 </g>
 <g>
  <path d="m54.395 49.43c-4.3157-1e-6 -7.7891 3.4753-7.7891 7.791v65.812h10.805v-52.135h6.5723v109.81h10.807v-67.713h5.9727v67.713h10.805v-109.81h6.5742v52.135h10.805v-65.812c0-4.3157-3.4753-7.791-7.791-7.791z"/>
  <circle cx="77.775" cy="30.861" r="13.483"/>
  <circle cx="145.02" cy="161.8" r="14.532"/>
 </g>
 <rect x="137.93" y="56.499" width="14.183" height="107.63" rx="7.0917" ry="7.0917" fill="none" stroke="#000" stroke-width="5"/>
 <rect x="137.93" y="111.96" width="14.183" height="52.164" rx="0" ry="0"/>
</svg>