<svg width="200" height="200" version="1.1" xmlns="http://www.w3.org/2000/svg">
 <g fill="none">
  <g stroke="#999" stroke-width="3">
   <path d="m0 16v-16h16"/>
   <path d="m200 16v-16h-16"/>
   <path d="m0 184v16h16"/>
   <path d="m200 184v16h-16"/>
  </g>
  <path d="m177.5 66.726c-9.3743-0.32437-17.238-7.3077-18.809-16.652-1.6092 9.5704-9.8187 16.664-19.492 16.664-9.6727 2e-6 -17.882-7.0936-19.492-16.664-1.6092 9.5704-9.8187 16.664-19.492 16.664-9.6728 1e-6 -17.882-7.0937-19.492-16.664-1.6093 9.5705-9.8188 16.664-19.492 16.664-9.6727 0-17.882-7.0936-19.492-16.664-1.5949 9.4851-9.673 16.538-19.233 16.662" stroke="#000" stroke-width="5"/>
  <path d="m19.492 47.034 15.678 102.54h129.66l15.678-102.54" stroke="#000" stroke-width="5"/>
 </g>
</svg>