<svg width="200" height="200" version="1.1" xmlns="http://www.w3.org/2000/svg">
 <g fill="none">
  <g stroke="#999" stroke-width="3">
   <path d="m0 16v-16h16"/>
   <path d="m200 16v-16h-16"/>
   <path d="m0 184v16h16"/>
   <path d="m200 184v16h-16"/>
  </g>
  <g stroke="#000" stroke-width="5">
   <path d="m129.24 83.724c2.9594-3.67e-4 5.8666-0.77952 8.4295-2.2592 8.0654-4.6565 10.829-14.97 6.1722-23.035-4.6566-8.0653-14.97-10.829-23.035-6.1722-2.5662 1.4816-4.6967 3.6133-6.1769 6.1803l-29.271 50.618c-1.4769 2.562-3.6077 4.6935-6.1739 6.1752-8.0654 4.6565-18.379 1.8932-23.035-6.1722-4.6566-8.0654-1.8932-18.379 6.1722-23.035 2.5629-1.4797 5.4701-2.2589 8.4295-2.2592"/>
   <path d="m114.64 109.06c1.48 2.5627 3.6084 4.6909 6.1713 6.1706 8.0654 4.6566 18.379 1.8932 23.035-6.1722s1.8931-18.379-6.1722-23.035c-2.5662-1.4816-5.4776-2.2608-8.4348-2.2592l-58.472-0.04036c-2.9632 0.0016-5.8746-0.77757-8.4408-2.2592-8.0654-4.6566-10.829-14.97-6.1722-23.035 4.6565-8.0654 14.97-10.829 23.035-6.1722 2.5629 1.4797 4.6913 3.6078 6.1713 6.1706"/>
   <path d="m114.6 58.408c1.4794-2.5631 2.2582-5.4704 2.2582-8.4298 1e-5 -9.3131-7.5498-16.863-16.863-16.863-9.3131-1e-6 -16.863 7.5498-16.863 16.863 1e-6 2.9632 0.78085 5.8742 2.2608 8.4344l29.201 50.658c1.483 2.5654 2.2639 5.4763 2.2639 8.4396-1e-5 9.3131-7.5498 16.863-16.863 16.863-9.3131 0-16.863-7.5498-16.863-16.863 3e-6 -2.9594 0.77883-5.8667 2.2582-8.4298"/>
   <path d="m19.492 47.034 15.678 102.54h129.66l15.678-102.54"/>
  </g>
 </g>
</svg>