<svg width="200" height="200" version="1.1" xmlns="http://www.w3.org/2000/svg">
 <g fill="none">
  <g stroke="#999" stroke-width="3">
   <path d="m0 16v-16h16"/>
   <path d="m200 16v-16h-16"/>
   <path d="m0 184v16h16"/>
   <path d="m200 184v16h-16"/>
  </g>
  <path d="m104.12 49.887c-6.8901-2.1968-13.781-4.3941-20.573-5.4679-6.7916-1.0738-13.483-1.0239-18.951-0.47467-5.4683 0.54923-9.7128 1.5979-13.583 3.2708-3.8704 1.6729-7.3659 3.97-9.5384 6.2175-2.1725 2.2475-3.0214 4.4447-2.9845 6.8524s0.95891 5.025 3.0231 7.3469c2.0642 2.3219 5.2697 4.3485 8.9535 5.9906 3.6838 1.6421 7.8456 2.8999 26.506 3.5286 18.66 0.62874 51.817 0.62874 70.228 0.32424 18.411-0.3045 22.074-0.91334 24.885-1.5179 2.8113-0.6046 4.771-1.2049 6.4744-2.1582 1.7035-0.95333 3.1512-2.2598 4.0692-3.566 0.91797-1.3062 1.3064-2.6126 1.1831-4.0601-0.12326-1.4475-0.75883-3.0364-2.1356-4.608-1.3768-1.5715-3.4954-3.1252-6.0025-4.2554-2.5071-1.1302-5.4025-1.8364-8.2981-2.2426-2.8956-0.40621-5.791-0.51214-8.0612-0.4089-2.2703 0.10323-3.915 0.4158-5.5604 0.72852" stroke="#000" stroke-width="5"/>
  <path d="m145.97 62.818c1.5944-1.2852 3.1887-2.5702 4.6188-3.859 1.43-1.2888 2.6959-2.5814 3.6112-4.375s1.4803-4.0887 1.4452-6.3307c-0.0351-2.242-0.67064-4.4312-2.4712-6.7619-1.8005-2.3307-4.7666-4.8024-8.6507-6.9742-3.8842-2.1718-8.6863-4.0433-14.389-5.2617-5.7028-1.2184-12.306-1.7834-18.15-1.7482-5.8441 0.03522-10.929 0.6708-15.36 1.5006-4.4316 0.82977-8.2098 1.8538-11.035 2.8218-2.825 0.96802-4.6964 1.88-6.6159 3.1437s-3.8864 2.8788-5.4047 4.406c-1.5183 1.5272-2.5875 2.966-3.6566 4.4046" stroke="#000" stroke-width="5"/>
 </g>
 <path d="m64.32 77.33-1.373 5.123 4.8281 1.293 1.7188-6.416h-5.1738zm19.234 0-2.6621 9.9316 4.8301 1.293 3.0078-11.225h-5.1758zm19.234 0-3.9492 14.74 4.8301 1.293 4.2969-16.033h-5.1777zm19.236 0-5.2383 19.549 4.8301 1.2949 5.5859-20.844h-5.1777zm19.236 0-6.5273 24.357 4.8301 1.2949 6.873-25.652h-5.1758zm19.234 0-7.8144 29.166 4.8301 1.2949 8.1621-30.461h-5.1777zm-98.926 10.256-1.4121 5.2734 4.8281 1.2949 1.4141-5.2734-4.8301-1.2949zm17.947 4.8086-1.4121 5.2754 4.8281 1.293 1.4141-5.2734-4.8301-1.2949zm17.947 4.8105-1.4121 5.2734 4.8281 1.293 1.4141-5.2734-4.8301-1.293zm-38.684 0.78906c-3.6819 13.741-7.3634 27.481-11.045 41.221l4.8301 1.2949c3.6815-13.74 7.363-27.48 11.045-41.221l-4.8301-1.2949zm56.631 4.0195-1.4141 5.2734 4.8301 1.2949 1.4141-5.2754-4.8301-1.293zm-38.684 0.78906-11.045 41.221 4.8301 1.2949 11.045-41.221-4.8301-1.2949zm56.631 4.0195-1.4141 5.2734 4.8301 1.2949 1.4141-5.2734-4.8301-1.2949zm-38.684 0.79101-11.045 41.221 4.8301 1.293 11.045-41.221-4.8301-1.293zm56.631 4.0176-1.4141 5.2734 4.8301 1.2949 1.4141-5.2734-4.8301-1.2949zm-38.684 0.79102-11.045 41.221 4.8301 1.293 11.045-41.221-4.8301-1.293zm17.947 4.8086-11.045 41.221 4.8301 1.2949 11.045-41.223-4.8301-1.293zm17.947 4.8086-11.045 41.221 4.8301 1.2949 11.045-41.221-4.8301-1.2949zm-102.16 22.311-1.4141 5.2734 4.8301 1.2949 1.4141-5.2734-4.8301-1.2949zm17.947 4.8086-1.4141 5.2734 4.8301 1.2949 1.4141-5.2734-4.8301-1.2949zm17.947 4.8086-1.4141 5.2754 4.8301 1.293 1.4121-5.2734-4.8281-1.2949zm-38.684 0.79101-7.3535 27.445h5.1758l7.0078-26.15-4.8301-1.2949zm56.631 4.0195-1.4141 5.2734 4.8301 1.293 1.4121-5.2734-4.8281-1.293zm-38.684 0.78907-6.0645 22.637h5.1758l5.7188-21.342-4.8301-1.2949zm56.631 4.0195-1.4141 5.2734 4.8301 1.2949 1.4121-5.2754-4.8281-1.293zm-38.684 0.78906-4.7773 17.828h5.1758l4.4316-16.533-4.8301-1.2949zm56.631 4.0195-1.4141 5.2734 4.8301 1.2949 1.4121-5.2754-4.8281-1.293zm-38.684 0.79102-3.4883 13.018h5.1758l3.1426-11.725-4.8301-1.293zm17.947 4.8086-2.1992 8.209h5.1738l1.8535-6.916-4.8281-1.293zm17.947 4.8086-0.91015 3.4004h5.1738l0.56445-2.1074-4.8281-1.293z"/>
 <path d="m22.771 22.771 154.45 154.45" fill="none" stroke="#000" stroke-width="5"/>
 <path d="m22.771 177.23c51.486-51.486 102.97-102.97 154.45-154.45" fill="none" stroke="#000" stroke-width="5"/>
</svg>