<svg width="200" height="200" version="1.1" xmlns="http://www.w3.org/2000/svg">
 <g fill="none" stroke="#000" stroke-width="5.005">
  <path d="m45.555 147.26 13.497-3.1894 8.2177 34.777-13.497 3.1894z"/>
  <path d="m69.41 187.94c-4.1695-17.645-8.3392-35.291-12.509-52.94"/>
  <path d="m42.792 135.84-7.912-33.483c-6.753-27.097 3.9789-55.543 26.947-71.427 22.968-15.884 53.372-15.885 76.341-0.003404 22.97 15.882 33.704 44.328 26.953 71.425l-7.9083 33.489"/>
  <path d="m154.45 147.27-13.497-3.1893-8.2176 34.777 13.497 3.1893z"/>
  <path d="m130.59 187.94c4.1695-17.645 8.3392-35.291 12.51-52.94"/>
 </g>
 
<g fill="none" stroke="#999" stroke-width="3">
  <path d="m0 16v-16h16"/>
  <path d="m200 16v-16h-16"/>
  <path d="m0 184v16h16"/>
  <path d="m200 184v16h-16"/>
 </g></svg>