<svg width="200" height="200" version="1.1" xmlns="http://www.w3.org/2000/svg">
 <g fill="none">
  <g stroke="#999" stroke-width="3">
   <path d="m0 16v-16h16"/>
   <path d="m200 16v-16h-16"/>
   <path d="m0 184v16h16"/>
   <path d="m200 184v16h-16"/>
  </g>
  <g stroke="#000" stroke-width="5">
   <path d="m100 95.449v98.614"/>
   <path d="m118.62 127.7-18.621-32.253-18.621 32.253"/>
   <path d="m118.62 161.81-18.621 32.253-18.621-32.253"/>
   <path d="m44.095 135.08a166.33 166.33 0 0 1-22.872-10.162"/>
   <path d="m77.852 143.27a166.33 166.33 0 0 1-24.484-5.1895"/>
   <path d="m115.1 144.07a166.33 166.33 0 0 1-15.096 0.68647 166.33 166.33 0 0 1-14.936-0.67197"/>
   <path d="m146.78 138.04a166.33 166.33 0 0 1-24.482 5.213"/>
   <path d="m178.91 124.85a166.33 166.33 0 0 1-22.862 10.181"/>
   <path d="m186.19 123.62-69.116-116.43c-5.1649 3.0666-11.062 4.6855-17.07 4.6855-5.962 0-11.816-1.594-16.953-4.6159l-69.154 116.5"/>
  </g>
 </g>
</svg>