<svg width="200" height="200" version="1.1" xmlns="http://www.w3.org/2000/svg">
 <g fill="none">
  <g stroke="#999" stroke-width="3">
   <path d="m0 16v-16h16"/>
   <path d="m200 16v-16h-16"/>
   <path d="m0 184v16h16"/>
   <path d="m200 184v16h-16"/>
  </g>
  <path transform="scale(-1,1)" d="m-58.727 36.555c5.8097 0 10.488 4.6767 10.488 10.486v93.482c0 5.8096-4.6786 10.486-10.488 10.486h-41.471v-114.46z" stroke="#000" stroke-width="5"/>
  <path d="m100.2 45.339h30.523v84.746h-30.523" stroke="#000" stroke-width="5"/>
 </g>
 <g>
  <path d="m130.72 68.698 31.971-13.686c2.6976-1.1547 5.7989 0.087313 6.9536 2.7849 1.1547 2.6976-0.0873 5.7989-2.7849 6.9536l-36.138 15.47" stroke-width="5"/>
  <path d="m130.72 101.17h39.83c2.9343 0 5.2966 2.3623 5.2966 5.2966 0 2.9343-2.3623 5.2966-5.2966 5.2966h-39.83" stroke-width="5"/>
  <path d="m22.881 22.881 154.24 154.24" stroke="#000" stroke-width="10"/>
 </g>
 <path d="m72.888 151.01v17.091c0 4.0074 0 5.4804-0.59822 7.4567s-1.7944 4.456-3.7542 6.4782-4.6836 3.5872-7.4077 5.1524" fill="none" stroke="#000" stroke-width="5"/>
 <path d="m85.547 151.01v17.004c0 3.92 0 5.2183-0.26112 7.1698-0.26112 1.9515-0.78319 4.5562-1.9248 7.1048-1.1416 2.5485-2.9027 5.0416-4.4394 6.8603-1.5367 1.8186-2.8487 2.9628-4.1611 4.1072" fill="none" stroke="#000" stroke-width="5"/>
</svg>