<svg width="200" height="200" version="1.1" xmlns="http://www.w3.org/2000/svg">
 <g fill="none" stroke="#000" stroke-width="5">
  <path d="m161.33 33.683v32.521"/>
  <path d="m152.01 43.005h32.521"/>
  <path d="m175.21 66.205v-32.521"/>
  <path d="m184.53 56.883h-32.521"/>
 </g>
 <path d="m191.03 99.997h-97.264" stroke="#000" stroke-width="5"/>
 <g fill="none" stroke="#000" stroke-width="5">
  <path d="m73.742 157.92c21.062 0 41.879-4.6065 61.078-13.522 4.4067-14.411 6.6312-29.4 6.6312-44.474 0-15.101-2.2326-30.116-6.618-44.523-19.058-8.7709-39.737-13.315-60.655-13.315-21.062 0-41.879 4.6065-61.078 13.522-4.4067 14.411-6.6312 29.4-6.6312 44.474 0 15.101 2.2326 30.116 6.618 44.523 19.058 8.7709 39.737 13.315 60.655 13.315z"/>
  <path d="m124.72 82.423-30.432 17.578 30.432 17.57"/>
  <path d="m160.6 82.423 30.432 17.578-30.432 17.57"/>
  <circle cx="53.764" cy="100" r="6.8"/>
  <circle cx="79.228" cy="100" r="6.8"/>
  <circle cx="28.299" cy="100" r="6.8"/>
 </g>
 
<g fill="none" stroke="#999" stroke-width="3">
  <path d="m0 16v-16h16"/>
  <path d="m200 16v-16h-16"/>
  <path d="m0 184v16h16"/>
  <path d="m200 184v16h-16"/>
 </g></svg>