<svg width="200" height="200" version="1.1" xmlns="http://www.w3.org/2000/svg">
 <path d="m105.19 100c3.1946-3.0168 6.4201-6.0481 10.145-8.4056 3.7246-2.3575 8.0226-4.0254 12.453-4.0226 4.429 0.0033 8.7234 1.6754 12.446 4.0334 3.7231 2.358 6.9495 5.3862 10.151 8.3948 3.2013 3.0085 6.4277 6.0368 10.151 8.3948 3.7231 2.358 8.0175 4.0305 12.446 4.0334 4.43 3e-3 8.7279-1.6651 12.453-4.0226 3.7246-2.3575 6.9502-5.3887 10.145-8.4056" fill="none" stroke="#000" stroke-width="5"/>
 <path d="m89.295 133.12-28.463-48.16v48.16h-9.0521v-66.231h8.7722l28.09 48.065v-48.065h9.0521v66.231z"/>
 <path d="m17.555 103.22v-7.4747q5.8195 0 8.8879-1.0408 3.1743-1.1354 4.5498-2.8385 1.4813-1.7031 1.6929-3.69 0.31743-2.0816 0.31743-3.9739 0-5.4877-2.3278-8.3262-2.222-2.8385-5.6079-2.8385-3.1743 0-5.3962 2.7439-2.1162 2.6492-2.1162 8.6101h-9.6286q0-4.8254 1.4813-8.3262 1.4813-3.5954 3.8091-5.8662 2.4336-2.3654 5.5021-3.5008 3.1743-1.23 6.3485-1.23t6.3485 1.1354 5.7137 3.5008q2.6452 2.3654 4.2324 5.8662 1.5871 3.5008 1.5871 8.137 0 4.92-2.3278 9.0831-2.3278 4.0685-8.6763 5.9608 3.1743 0.94616 5.2904 2.6492 2.1162 1.6085 3.4917 3.7846t1.9046 4.7308q0.63485 2.46 0.63485 5.0146 0 3.5954-1.1639 7.0962-1.0581 3.4062-3.2801 6.15-2.222 2.6492-5.7137 4.3523-3.3859 1.6085-8.1473 1.6085-3.7033 0-7.0892-1.1354-3.2801-1.1354-5.8195-3.5008-2.5394-2.46-4.1265-6.15-1.4813-3.69-1.4813-8.8939h9.6286q0 3.3116 0.74066 5.677 0.84647 2.2708 2.0104 3.69 1.2697 1.4192 2.8568 2.0816 1.5871 0.66232 3.1743 0.66232 3.7033 0 5.8195-2.9331 2.222-3.0277 2.222-8.7047 0-6.2447-2.751-9.1778-2.6452-2.9331-7.724-2.9331z"/>
 
<g fill="none" stroke="#999" stroke-width="3">
  <path d="m0 16v-16h16"/>
  <path d="m200 16v-16h-16"/>
  <path d="m0 184v16h16"/>
  <path d="m200 184v16h-16"/>
 </g></svg>