<svg width="200" height="200" version="1.1" xmlns="http://www.w3.org/2000/svg">
 <g fill="none">
  <g stroke="#999" stroke-width="3">
   <path d="m184 200h16v-16"/>
   <path d="m184 0h16v16"/>
   <path d="m16 200h-16v-16"/>
   <path d="m16 0h-16v16"/>
  </g>
  <g stroke="#000">
   <path d="m153.28 46.716c24.117 24.117 29.028 61.425 11.975 90.961-17.053 29.537-51.819 43.937-84.762 35.11s-55.852-38.681-55.852-72.787c0.26433-23.495 12.095-46.585 31.011-60.524 13.889-10.235 31.66-15.565 48.732-13.077 5.1282 0.74708 10.199 2.1941 14.716 4.7338 4.5173 2.5397 8.4667 6.2182 10.883 10.803 2.2243 4.2202 3.0871 9.1791 2.2215 13.87-1.0139 5.4948-4.2666 10.321-7.94 14.532-2.2189 2.5432-4.6154 4.9247-7.0068 7.3064" stroke-width="5"/>
   <g stroke-width="5">
    <path d="m105.43 128.5 11.835-11.835a27.591 27.591 0 0 0 0-39.019 27.591 27.591 0 0 0-39.019-4e-6l-11.835 11.835"/>
    <path d="m62.023 85.094 47.79 47.79"/>
    <path d="m98.652 121.72-11.61 11.61"/>
    <path d="m72.285 95.356-11.61 11.61"/>
   </g>
  </g>
 </g>
</svg>