<svg width="200" height="200" version="1.1" xmlns="http://www.w3.org/2000/svg">
 <g fill="none">
  <g stroke="#999" stroke-width="3">
   <path d="m0 16v-16h16"/>
   <path d="m200 16v-16h-16"/>
   <path d="m0 184v16h16"/>
   <path d="m200 184v16h-16"/>
  </g>
  <path d="m114.92 167.99c4.593-2.081 8.7513-5.622 12.569-10.188 3.8173-4.5662 7.2929-10.157 9.6208-14.413 2.328-4.256 3.5073-7.1766 4.6866-10.096 1.7379-0.0622 3.4747-0.12422 5.5075-1.0247 2.0327-0.90046 4.3601-2.64 6.1913-4.9074 1.8312-2.2676 3.1656-5.063 4.0968-8.5732 0.93125-3.5102 1.4587-7.7346 1.3969-11.183-0.062-3.4482-0.7136-6.1195-1.6758-7.9061-0.96219-1.7864-2.2345-2.6874-3.6004-2.9357s-2.4953-0.30575-3.9529 0.09772c1.7364-9.5809 1.5336-18.99 0.0432-28.614-1.1802-7.6201-3.4143-15.181-7.53-21.698-3.9362-6.2344-9.5287-11.368-15.931-15.017-7.8773-4.4895-17.004-6.446-26.336-6.446-9.3323 0-18.459 1.9565-26.336 6.446-6.4028 3.6492-11.995 8.7831-15.931 15.017-4.1155 6.5185-6.3497 14.079-7.53 21.698-1.4904 9.6221-1.6931 19.032 0.04325 28.614-1.4576-0.40354-2.5869-0.34608-3.9529-0.09772-1.3659 0.2483-2.6382 1.1491-3.6005 2.9357-0.96219 1.7866-1.6139 4.4577-1.6758 7.9061-0.06194 3.4482 0.46561 7.6725 1.3969 11.183 0.93125 3.5102 2.2656 6.3058 4.0968 8.5732 1.8312 2.2675 4.1586 4.007 6.1913 4.9074 2.0327 0.90047 3.7696 0.96256 5.5075 1.0247 1.1793 2.9199 2.359 5.8408 4.6866 10.096 2.3277 4.2557 5.8032 9.8465 9.6208 14.413 3.8173 4.5662 7.9757 8.1074 12.569 10.188 4.593 2.081 9.584 3.3234 14.916 3.3234 5.3318 0 10.323-1.2424 14.916-3.3234z" stroke="#000" stroke-linejoin="round" stroke-width="5"/>
  <path d="m87.489 87.209c-3.2885-0.74527-6.5779-1.4907-10.705-1.786-4.1276-0.29524-9.0928-0.13998-14.059 0.015328" stroke="#000" stroke-linecap="round" stroke-width="5"/>
 </g>
 <path d="m84.928 99.648a6.8895 6.8959 0 0 1-6.8895 6.8959 6.8895 6.8959 0 0 1-6.8895-6.8959 6.8895 6.8959 0 0 1 6.8895-6.8959 6.8895 6.8959 0 0 1 6.8895 6.8959z"/>
 <g stroke="#000" stroke-linecap="round" stroke-width="5">
  <path d="m84.187 141.57c5.1824-0.17633 10.364-0.35264 15.545-0.35261 5.1816 4e-5 10.362 0.17628 15.543 0.35261"/>
  <path d="m104.74 149.94c-1.6691 0.044-3.3371 0.088-5.0043 0.088s-3.3354-0.0438-5.0043-0.088"/>
  <path d="m111.97 87.209c3.2885-0.74527 6.5779-1.4907 10.705-1.786 4.1276-0.29523 9.0928-0.13993 14.059 0.01539" fill="none"/>
 </g>
 <path d="m114.54 99.648a6.8895 6.8959 0 0 0 6.8894 6.8959 6.8895 6.8959 0 0 0 6.8895-6.8959 6.8895 6.8959 0 0 0-6.8895-6.8959 6.8895 6.8959 0 0 0-6.8894 6.8959z"/>
 <g fill="none" stroke="#000" stroke-width="8">
  <path d="m33.784 39.926v-21.873l21.873-1e-6"/>
  <path d="m55.657 181.95h-21.873l-1e-6 -21.873"/>
  <path d="m166.22 160.07v21.873l-21.873-1e-5"/>
  <path d="m144.34 18.054h21.873v21.873"/>
 </g>
</svg>