<svg width="200" height="200" version="1.1" xmlns="http://www.w3.org/2000/svg">
 <g fill="none">
  <g stroke="#999" stroke-width="3">
   <path d="m0 16v-16h16"/>
   <path d="m200 16v-16h-16"/>
   <path d="m0 184v16h16"/>
   <path d="m200 184v16h-16"/>
  </g>
  <g stroke="#000" stroke-width="6">
   <path d="m84.004 24.153v151.69"/>
   <path d="m97.128 51.02-26.248 97.96"/>
   <path d="m121.93 34.314-75.847 131.37"/>
   <path d="m119.86 64.144-71.711 71.711"/>
   <path d="m149.69 62.076-131.37 75.847"/>
   <path d="m132.98 86.876-97.96 26.248"/>
   <path d="m191.84 100-183.69 1e-6"/>
   <path d="m132.98 113.12-97.96-26.248"/>
   <path d="m149.69 137.92-131.37-75.847"/>
   <path d="m119.86 135.86-71.711-71.711"/>
   <path d="m121.93 165.69-75.847-131.37"/>
   <path d="m97.128 148.98-26.248-97.96"/>
  </g>
 </g>
</svg>