<svg width="200" height="200" version="1.1" xmlns="http://www.w3.org/2000/svg">
 <g fill="none" stroke="#999" stroke-width="3">
  <path d="m0 16v-16h16"/>
  <path d="m200 16v-16h-16"/>
  <path d="m0 184v16h16"/>
  <path d="m200 184v16h-16"/>
 </g>
 <path d="m56.497 78.352c-4.0609-0.06938-8.3961 0.23202-11.834 2.6344-4.7122 3.0813-7.7887 8.0431-9.7364 13.226-3.1911 8.4725-5.7034 17.179-8.4387 25.805l-9.9562 31.919c4.8802 1.5221 9.7604 3.0443 14.641 4.5664 4.0443-12.967 8.0885-25.934 12.133-38.9h4.2363v48.838h47.789c-0.0047-22.276 0.0095-44.553-0.0071-66.829-0.11049-8.0238-5.1013-15.696-12.354-19.107-3.4784-1.74-7.4045-2.2881-11.257-2.1519z"/>
 <path d="m87.726 48.937a21.123 21.123 0 0 1-21.123 21.123 21.123 21.123 0 0 1-21.123-21.123 21.123 21.123 0 0 1 21.123-21.123 21.123 21.123 0 0 1 21.123 21.123z"/>
 <path d="m143.5 78.352c4.0609-0.06938 8.3961 0.23202 11.834 2.6344 4.7122 3.0813 7.7887 8.0431 9.7364 13.226 3.1911 8.4725 5.7034 17.179 8.4387 25.805 3.3187 10.64 6.6375 21.279 9.9562 31.919-4.8802 1.5221-9.7604 3.0443-14.641 4.5664l-12.133-38.9h-4.2363v48.838h-47.789c5e-3 -22.276-9e-3 -44.553 7e-3 -66.829 0.11049-8.0238 5.1013-15.696 12.354-19.107 3.4784-1.74 7.4045-2.2881 11.257-2.1519z"/>
 <path d="m112.28 48.937a21.123 21.123 0 0 0 21.123 21.123 21.123 21.123 0 0 0 21.123-21.123 21.123 21.123 0 0 0-21.123-21.123 21.123 21.123 0 0 0-21.123 21.123z"/>
</svg>