<svg width="200" height="200" version="1.1" xml:space="preserve" xmlns="http://www.w3.org/2000/svg"><g fill="none" stroke="#000" stroke-width="5"><path d="m100.26 166.49c-24.659 0-49.032-5.2883-71.511-15.523-5.1594-16.544-7.7639-33.751-7.7639-51.056 0-17.336 2.6139-34.573 7.7484-51.113 22.313-10.069 46.524-15.286 71.015-15.286 24.659 0 49.032 5.2883 71.511 15.523 5.1594 16.544 7.7639 33.751 7.7639 51.056 0 17.336-2.6139 34.573-7.7484 51.113-22.313 10.069-46.524 15.286-71.015 15.286z"/><path d="m39.827 69.175h48.512"/><path d="m39.827 100h48.512"/><path d="m39.827 130.83h48.512"/></g><path d="m118.1 84.125v5h11.662v39.027h-12.678v5h35.355v-5h-12.678v-44.027h-21.662z" stroke-width="5"/><circle cx="133.56" cy="67.38" r="8.7"/> 
<g fill="none" stroke="#999" stroke-width="3">
  <path d="m0 16v-16h16"/>
  <path d="m200 16v-16h-16"/>
  <path d="m0 184v16h16"/>
  <path d="m200 184v16h-16"/>
 </g></svg>