<svg width="200" height="200" version="1.1" xmlns="http://www.w3.org/2000/svg">
 <g fill="none">
  <g stroke="#999" stroke-width="3">
   <path d="m0 16v-16h16"/>
   <path d="m200 16v-16h-16"/>
   <path d="m0 184v16h16"/>
   <path d="m200 184v16h-16"/>
  </g>
  <path d="m166.65 133.37v-44.157c0-12.286-9.9598-22.246-22.246-22.246h-128.11" stroke="#000" stroke-width="5"/>
  <path d="m16.297 100.37h106.36c5.8505 0 10.593 4.7428 10.593 10.593v22.409" stroke="#000" stroke-width="5"/>
 </g>
 <path d="m16.297 66.966v33.4" fill="#f00"/>
 <path d="m99.924 30.711v36.254" fill="none" stroke="#000" stroke-width="5"/>
 <path d="m66.891 30.711h66.067" fill="none" stroke="#000" stroke-width="5"/>
 <g>
  <path d="m141.6 144.27-4.1375 39.363 4.9727 0.52148 4.1925-39.885"/>
  <path d="m130.04 144.27-12.218 33.569 4.6992 1.709 12.84-35.277"/>
  <path d="m151.99 144.27 4.1295 39.287 4.9727-0.52344-4.0745-38.764"/>
  <path d="m163.41 144.27 12.622 34.68 4.6973-1.7109-12-32.969"/>
 </g>
</svg>