<svg width="200" height="200" version="1.1" xmlns="http://www.w3.org/2000/svg">
 <g fill="none" stroke="#999" stroke-width="3">
  <path d="m0 16v-16h16"/>
  <path d="m200 16v-16h-16"/>
  <path d="m0 184v16h16"/>
  <path d="m200 184v16h-16"/>
 </g>
 <rect x="47.246" y="30.508" width="105.51" height="35.169"/>
 <g fill="none" stroke="#000" stroke-width="5">
  <path d="m152.8 79.836a109.3 109.3 0 0 1-52.796 13.597 109.3 109.3 0 0 1-52.796-13.597"/>
  <path d="m152.8 152.72a109.3 109.3 0 0 1-52.796 13.597 109.3 109.3 0 0 1-52.796-13.597"/>
  <path d="m152.8 104.13a109.3 109.3 0 0 1-52.796 13.597 109.3 109.3 0 0 1-52.796-13.597"/>
  <path d="m152.8 128.42a109.3 109.3 0 0 1-52.796 13.597 109.3 109.3 0 0 1-52.796-13.597"/>
 </g>
</svg>