<svg width="200" height="200" version="1.1" xmlns="http://www.w3.org/2000/svg">
 <g fill="none" stroke="#000">
  <circle cx="100" cy="100" r="65.967" stroke-width="5"/>
  <path d="m34.033 29.589v140.82" stroke-width="5"/>
  <path d="m95.869 102.47c3.3465 0 7.0501-0.10163 8.5048 3.2338 2.8417 6.0263-0.35269 12.761-4.0263 17.658-5.051 6.5893-13.026 10.879-21.382 10.995-12.541 0.97953-25.026-6.9833-29.565-18.681-3.0292-7.2769-2.902-15.364-2.2145-23.072 1.2958-10.738 8.384-20.688 18.509-24.753 9.9665-4.0457 22.413-2.8017 30.579 4.5235 5.0524 4.4535 9.2677 10.799 9.1882 17.747 0.0208 3.7426-2.6652 7.3351-6.7983 7.3796-0.93361 0.04512-1.81 0.02689-2.7952 0.03083" stroke-width="5"/>
 </g>
 
<g fill="none" stroke="#999" stroke-width="3">
  <path d="m0 16v-16h16"/>
  <path d="m200 16v-16h-16"/>
  <path d="m0 184v16h16"/>
  <path d="m200 184v16h-16"/>
 </g></svg>