<svg width="200" height="200" version="1.1" xmlns="http://www.w3.org/2000/svg">
 <g fill="none">
  <g stroke="#999" stroke-width="3">
   <path d="m0 16v-16h16"/>
   <path d="m200 16v-16h-16"/>
   <path d="m0 184v16h16"/>
   <path d="m200 184v16h-16"/>
  </g>
  <g stroke="#000">
   <path d="m25.938 175.99h148.12l-74.062-128.35z" stroke-width="5"/>
   <path d="m59.258 156.67h81.484l-40.742-70.174z" stroke-width="5"/>
   <g stroke-width="5">
    <path d="m177.08 20.444a89 89 0 0 1 11.924 44.5 89 89 0 0 1-11.923 44.498"/>
    <path d="m22.923 109.44a89 89 0 0 1-11.923-44.498 89 89 0 0 1 11.921-44.496"/>
    <path d="m158.02 31.443a67 67 0 0 1 8.9769 33.501 67 67 0 0 1-8.9783 33.503"/>
    <path d="m41.978 98.448a67 67 0 0 1-8.9783-33.503 67 67 0 0 1 8.9775-33.502"/>
    <path d="m138.97 42.444a45 45 0 0 1 6.0291 22.5 45 45 0 0 1-6.0265 22.496"/>
    <path d="m61.027 87.44a45 45 0 0 1-6.0265-22.496 45 45 0 0 1 6.0262-22.495"/>
   </g>
  </g>
 </g>
</svg>