<svg width="200" height="200" version="1.1" xmlns="http://www.w3.org/2000/svg">
 <path d="m100 36.686a230.22 230.94 0 0 0-73.776 12.69 230.22 230.94 0 0 0-6.1941 50.624 230.22 230.94 0 0 0 6.1941 50.621 230.22 230.94 0 0 0 73.776 12.693 230.22 230.94 0 0 0 73.776-12.693 230.22 230.94 0 0 0 6.1941-50.621 230.22 230.94 0 0 0-5.7337-50.915 230.22 230.94 0 0 0-74.237-12.399z" fill="none" stroke="#000" stroke-width="5"/>
 <g stroke="#000" stroke-width="5">
  <path d="m49.492 100h18.432"/>
  <path d="m21.398 100h18.432"/>
  <path d="m77.585 100h18.432"/>
  <path d="m105.68 100h18.432"/>
  <path d="m133.77 100h18.432"/>
  <path d="m161.86 100h18.432"/>
 </g>
 
<g fill="none" stroke="#999" stroke-width="3">
  <path d="m0 16v-16h16"/>
  <path d="m200 16v-16h-16"/>
  <path d="m0 184v16h16"/>
  <path d="m200 184v16h-16"/>
 </g></svg>