<svg width="200" height="200" version="1.1" xmlns="http://www.w3.org/2000/svg">
 <g fill="none">
  <g stroke="#999" stroke-width="3">
   <path d="m0 16v-16h16"/>
   <path d="m200 16v-16h-16"/>
   <path d="m0 184v16h16"/>
   <path d="m200 184v16h-16"/>
  </g>
  <path d="m32.627 126.27c0 14.298 3.5241 26.639 11.41 37.939 7.8857 11.3 19.539 19.921 32.651 24.156 6.6704 2.1545 13.731 3.2217 20.038 6.2801 1.1227 0.54439 2.2159 1.1496 3.2732 1.8122 1.0573-0.66255 2.1505-1.2678 3.2732-1.8122 6.3074-3.0584 13.368-4.1256 20.038-6.2801 13.112-4.2351 24.766-12.857 32.651-24.156 7.8857-11.3 11.41-23.641 11.41-37.939v-107.4h-134.75z" stroke="#000" stroke-width="5"/>
 </g>
</svg>