<svg width="200" height="200" version="1.1" xmlns="http://www.w3.org/2000/svg">
 <path d="m80.184 48.725 19.816 34.322 19.816-34.322" fill="none" stroke="#000" stroke-width="5"/>
 <circle transform="scale(-1)" cx="-100" cy="-110.38" r="13.042"/>
 <g fill="none" stroke="#000" stroke-width="5">
  <path d="m116.74 133.42a30.309 30.309 0 0 1-16.738 5.0412 30.309 30.309 0 0 1-16.738-5.0409"/>
  <path d="m140.7 166.4a71.057 71.057 0 0 1-40.701 12.811 71.057 71.057 0 0 1-40.701-12.812"/>
  <path d="m128.02 148.94a49.484 49.484 0 0 1-28.018 8.696 49.484 49.484 0 0 1-28.018-8.6962"/>
  <path d="m21.61 110.38h156.78"/>
  <path d="m100 83.047v-61.861"/>
 </g>
 
<g fill="none" stroke="#999" stroke-width="3">
  <path d="m0 16v-16h16"/>
  <path d="m200 16v-16h-16"/>
  <path d="m0 184v16h16"/>
  <path d="m200 184v16h-16"/>
 </g></svg>