<svg width="200" height="200" version="1.1" xmlns="http://www.w3.org/2000/svg">
 <path d="m87.871 92.956c-9.0237 0.95061-18.267-0.71525-25.935-5.7197-15.606-8.5305-21.604-29.978-13.085-45.51 7.8863-15.239 25.308-22.002 41.277-25.103 31.016-5.5229 63.343 16.028 72.281 45.839 7.6944 23.17 0.26974 49.79-16.328 67.275-6.9178 8.2143-10.124 18.78-11.354 29.28-2.9935 20.298-26.498 32.626-45.373 26.555-6.5171-1.9622-13.483-6.3789-15.531-13.161 0.63748-15.154 3.3767-30.174 4.9913-45.256 15.005 1.1564 30.427-6.4535 38.529-19.191 8.3706-10.663 11.423-25.854 5.3248-38.323-6.5437-13.62-24.352-18.659-37.573-9.5113l-1.4079 0.88742" fill="none" stroke="#000" stroke-width="5"/>
 
<g fill="none" stroke="#999" stroke-width="3">
  <path d="m0 16v-16h16"/>
  <path d="m200 16v-16h-16"/>
  <path d="m0 184v16h16"/>
  <path d="m200 184v16h-16"/>
 </g></svg>