<svg width="200" height="200" version="1.1" xmlns="http://www.w3.org/2000/svg">
 <g fill="none">
  <g stroke="#999" stroke-width="3">
   <path d="m0 16v-16h16"/>
   <path d="m200 16v-16h-16"/>
   <path d="m0 184v16h16"/>
   <path d="m200 184v16h-16"/>
  </g>
  <g stroke="#000" stroke-width="5">
   <path d="m111.39 26.032a74.84 74.84 0 0 1 63.451 73.968 74.84 74.84 0 0 1-74.84 74.84 74.84 74.84 0 0 1-74.84-74.84 74.84 74.84 0 0 1 63.462-73.97"/>
   <path d="M 100,45.763 88.608,26.032 100,6.301 111.392,26.032 Z"/>
   <path d="m137.18 108.67-67.166 32.759c-6.6843-10.293-13.369-20.586-20.053-30.879l57.246-48.035 42.489 5.217z"/>
   <path d="m51.256 134.19 9.7307 29.689-32.59-3.7756"/>
   <path d="m148.75 134.19-9.7307 29.689 32.59-3.7756"/>
  </g>
 </g>
</svg>