<svg width="200" height="200" version="1.1" xmlns="http://www.w3.org/2000/svg">
 <g fill="none" stroke="#999" stroke-width="3">
  <path d="m0 16v-16h16"/>
  <path d="m200 16v-16h-16"/>
  <path d="m0 184v16h16"/>
  <path d="m200 184v16h-16"/>
 </g>
 <path d="m44.709 14.873v170.03h52.213c1.1779 0 2.3266-0.2641 3.3672-0.75586 1.0406-0.49176 1.9729-1.211 2.7207-2.1211l0.86718-1.0527c2e-3 -2e-3 0.00191-0.00581 0.00391-0.00781l46.332-56.385 1.75-2.1289c2.4251-2.9513 3.752-6.6547 3.752-10.475v-97.102h-111.01zm5 5h101.01v92.102c0 2.663-0.92455 5.2432-2.6152 7.3008l-1.75 2.1289c-1.5413 1.8757-3.836 2.9609-6.2637 2.9609h-39.027v50.512c0 1.0654-0.36855 2.0948-1.0449 2.918l-0.86523 1.0547c-0.54807 0.667-1.3633 1.0508-2.2266 1.0508h-47.213v-160.03z"/>
</svg>