<svg width="200" height="200" version="1.1" xmlns="http://www.w3.org/2000/svg">
 <path d="m99.985 163.44c-24.526 0-48.873-4.1648-71.987-12.291-6.5085-16.231-9.8635-33.589-9.8635-51.11 0-17.535 3.3603-34.906 9.9-51.171 23.127-8.1428 47.465-12.304 71.98-12.304 24.526 0 48.873 4.1648 71.987 12.291 6.5085 16.231 9.8635 33.589 9.8635 51.11 0 17.535-3.3603 34.906-9.9 51.171-23.127 8.1428-47.465 12.304-71.98 12.304z" fill="none" stroke="#000" stroke-width="5"/>
 <g>
  <path d="m100.01 36.562-0.0295 126.88" stroke="#000" stroke-width="5"/>
  <path d="m102.51 36.582-0.0586 63.418" stroke="#000" stroke-width="5"/>
  <path d="m97.546 36.582-0.06211 63.416 9.938 0.0039 0.062-63.418z"/>
 </g>
 
<g fill="none" stroke="#999" stroke-width="3">
  <path d="m0 16v-16h16"/>
  <path d="m200 16v-16h-16"/>
  <path d="m0 184v16h16"/>
  <path d="m200 184v16h-16"/>
 </g></svg>