<svg width="200" height="200" version="1.1" xmlns="http://www.w3.org/2000/svg">
 <g fill="none">
  <g stroke="#999" stroke-width="3">
   <path d="m0 16v-16h16"/>
   <path d="m200 16v-16h-16"/>
   <path d="m0 184v16h16"/>
   <path d="m200 184v16h-16"/>
  </g>
  <path d="m42.698 139.98v-61.454h61.454v61.454" stroke="#000" stroke-width="5"/>
  <path d="m56.181 78.528v-34.488h34.488v34.488" stroke="#000" stroke-width="5"/>
 </g>
 <path d="m103.37 150.6 3.4892-2.739h-66.859l3.4892 2.739c8.5403 6.7038 19.083 10.347 29.94 10.347 10.857 0 21.4-3.6437 29.94-10.347z"/>
 <g fill="none" stroke="#000" stroke-width="5">
  <path d="m119.92 83.475 18.644-32.292 18.644 32.292"/>
  <path d="m138.56 51.182v98.034"/>
  <path d="m119.92 116.92 18.644 32.292 18.644-32.292"/>
 </g>
</svg>