<svg width="200" height="200" version="1.1" xmlns="http://www.w3.org/2000/svg">
 <g fill="none" stroke="#999" stroke-width="3">
  <path d="m0 16v-16h16"/>
  <path d="m200 16v-16h-16"/>
  <path d="m0 184v16h16"/>
  <path d="m200 184v16h-16"/>
 </g>
 <path d="m64.068 97.03c2.7158-4.4697 5.958-8.6192 9.6382-12.335 5.4158-5.4686 11.871-10.037 19.157-12.518 7.2856-2.4814 15.443-2.7663 22.626-0.0024 4.5706 1.7586 8.6586 4.7096 11.874 8.4032s5.5644 8.1178 6.9587 12.812c2.0488 6.8982 2.0337 14.318 0.55196 21.36-1.4818 7.0418-4.3916 13.727-8.0072 19.949-6.7424 11.602-15.939 21.661-26.245 30.254-11.023 9.191-23.376 16.785-36.554 22.472v-178.57" fill="none" stroke="#000" stroke-width="5"/>
</svg>