<svg width="200" height="200" version="1.1" xmlns="http://www.w3.org/2000/svg">
 <g fill="none" stroke="#999" stroke-width="3">
  <path d="m0 16v-16h16"/>
  <path d="m200 16v-16h-16"/>
  <path d="m0 184v16h16"/>
  <path d="m200 184v16h-16"/>
 </g>
 <path d="m36.563 96.662c-1.6319-0.3251-3.1533 0.92391-3.1523 2.5879v34.912c-2.74e-4 21.881 17.738 39.619 39.619 39.619h10.623v-30.656l-45.74-45.74c-0.36852-0.36904-0.83818-0.62052-1.3496-0.72266z"/>
 <path d="m67.949 30.025c-0.60908-0.0013-1.2182 0.40388-1.6816 1.2168-4.4575 7.8196-8.7126 15.813-11.076 24.479-0.94624 3.4691-1.5832 7.028-1.8027 10.617 0 24.052 18.221 43.844 41.611 46.34v61.104h31.971c21.881 2.7e-4 39.619-17.738 39.619-39.619v-34.912c5.4e-4 -2.3498-2.8405-3.5269-4.502-1.8652l-57.088 57.088v-41.795c23.39-2.4953 41.611-22.287 41.611-46.34-0.21957-3.5892-0.8565-7.148-1.8027-10.617-2.3636-8.6655-6.6186-16.659-11.076-24.479-0.92661-1.6255-2.4372-1.6203-3.3633 0.0059l-14.479 25.426-14.195-24.588c-0.75264-1.3065-2.638-1.3065-3.3906 0l-14.195 24.588-14.479-25.426c-0.46304-0.81312-1.0726-1.2214-1.6816-1.2227z"/>
</svg>