<svg width="200" height="200" version="1.1" xmlns="http://www.w3.org/2000/svg">
 <g fill="none">
  <path d="m87.493 82.408c-4.65-0.43333-9.2323-1.5641-13.571-3.2823-2.7888-1.3886-2.1317-4.6801-2.2062-7.2226 0.07088-5.9018-0.15751-11.814 0.14657-17.708 1.0115-11.432 9.7039-21.638 20.809-24.504 10.506-2.9712 22.497 0.83625 29.341 9.3479 4.6698 5.543 6.8533 12.895 6.4829 20.09-0.0336 5.6606 0.0678 11.326-0.0518 16.984-0.42734 3.1394-3.8808 3.5894-6.3101 4.4537-6.2597 1.8683-12.832 2.2548-19.296 2.919-5.1351 0.3729-10.261-0.45654-15.345-1.0773z" stroke="#000" stroke-width="4"/>
  <g stroke="#999" stroke-width="3">
   <path d="m0 16v-16h16"/>
   <path d="m200 16v-16h-16"/>
   <path d="m0 184v16h16"/>
   <path d="m200 184v16h-16"/>
  </g>
  <g stroke="#000">
   <path d="m142.58 183.37v-123.2c0-23.46-19.018-42.479-42.479-42.479-23.46-2e-6 -42.479 19.018-42.479 42.479v123.2" stroke-width="4"/>
   <g stroke-width="4">
    <path d="m100.11 170.65v-70.122"/>
    <path d="m88.125 107.34v17.105a9.2796 9.2796 0 0 0 2.7179 6.5616l9.2625 9.2625"/>
    <path d="m100.11 158.09-21.569-21.569a9.2796 9.2796 0 0 1-2.7179-6.5616v-8.5403"/>
    <path d="m100.11 150.81 19.804-19.804a9.2796 9.2796 0 0 0 2.7179-6.5616v-3.0292"/>
    <path d="m108.66 142.26h10.124a9.2053 9.2053 0 0 0 6.5458-2.7334l3.866-3.9104"/>
    <path d="m100.11 131.01 8.9934-7.2826a8.0586 8.0586 0 0 0 2.9871-6.2627v-10.121"/>
   </g>
  </g>
 </g>
</svg>