<svg width="200" height="200" version="1.1" xmlns="http://www.w3.org/2000/svg">
 <circle cx="100" cy="100" r="75.567" fill="none" stroke="#000" stroke-width="5"/>
 <g>
  <path d="m100 24.434v22.66a15.975 15.975 0 0 1 15.975 15.975 15.975 15.975 0 0 1-15.975 15.977v96.521a75.567 75.567 0 0 0 75.566-75.566 75.567 75.567 0 0 0-75.566-75.566zm33.18 78.545a15.975 15.975 0 0 1 15.975 15.975 15.975 15.975 0 0 1-15.975 15.977 15.975 15.975 0 0 1-15.975-15.977 15.975 15.975 0 0 1 15.975-15.975z"/>
  <path d="m100 79.045a15.975 15.975 0 0 1-13.835-7.9877 15.975 15.975 0 0 1 0-15.975 15.975 15.975 0 0 1 13.835-7.9877"/>
  <circle cx="66.82" cy="118.41" r="15.975"/>
 </g>
 
<g fill="none" stroke="#999" stroke-width="3">
  <path d="m0 16v-16h16"/>
  <path d="m200 16v-16h-16"/>
  <path d="m0 184v16h16"/>
  <path d="m200 184v16h-16"/>
 </g></svg>