<svg width="200" height="200" version="1.1" xmlns="http://www.w3.org/2000/svg">
 <g fill="none" stroke="#999" stroke-width="3">
  <path d="m0 16v-16h16"/>
  <path d="m200 16v-16h-16"/>
  <path d="m0 184v16h16"/>
  <path d="m200 184v16h-16"/>
 </g>
 <g>
  <path d="m75.4 18.297c-12.355 0.16839-24.922 5.6913-32.169 15.935-4.3217 6.0154-7.0768 13.325-7.2045 20.764 0.19506 7.0627 6.1682 13.447 13.266 13.861 6.9528 0.69118 13.738-4.507 15.131-11.305 1.7222-6.9097-2.3295-14.696-9.0753-17.079-3.2242-1.2559-6.9357-1.1126-10.105 0.085 4.5381-7.5998 12.822-12.188 21.306-13.971 8.4794-2.0172 17.66-0.95549 25.317 3.262 8.0155 4.375 15.065 10.599 20.351 18.049 6.5397 9.1686 8.3793 20.863 7.4828 31.894-1.775 20.742-9.4128 41.189-22.781 57.269-12.942 15.601-29.822 27.704-48.154 36.196-1.7473 0.71077-4.0197 1.1741-2.3839 3.1813 0.40857 0.92804 0.81714 1.8561 1.2257 2.7841 22.533-8.4344 43.696-21.652 59.28-40.181 15.846-18.875 25.251-43.728 23.387-68.515-0.77006-11.221-4.7218-22.284-11.84-31.056-10.228-12.955-26.378-21.482-43.035-21.176z"/>
  <circle cx="153.5" cy="51.589" r="11.653"/>
  <circle cx="153.5" cy="91.102" r="11.653"/>
 </g>
</svg>