<svg width="200" height="200" version="1.1" xmlns="http://www.w3.org/2000/svg">
 <g fill="none" stroke="#999" stroke-width="3">
  <path d="m0 16v-16h16"/>
  <path d="m200 16v-16h-16"/>
  <path d="m0 184v16h16"/>
  <path d="m200 184v16h-16"/>
 </g>
 <g stroke-width="6">
  <path d="m115.78 100a15.784 15.784 0 0 1-15.784 15.784 15.784 15.784 0 0 1-15.784-15.784 15.784 15.784 0 0 1 15.784-15.784 15.784 15.784 0 0 1 15.784 15.784z"/>
  <path d="m115.78 166.74a15.784 15.784 0 0 1-15.784 15.784 15.784 15.784 0 0 1-15.784-15.784 15.784 15.784 0 0 1 15.784-15.784 15.784 15.784 0 0 1 15.784 15.784z"/>
  <path d="m100 166.74v-66.737" stroke="#000"/>
  <path d="m41.407 135.63a15.784 15.784 87.618 0 1-19.889-10.134 15.784 15.784 87.618 0 1 10.134-19.889 15.784 15.784 87.618 0 1 19.889 10.134 15.784 15.784 87.618 0 1-10.134 19.889z"/>
  <path d="m36.529 120.62 63.471-20.623" stroke="#000"/>
  <path d="m48.003 55.286a15.784 15.784 3.5625 0 1 3.4919-22.047 15.784 15.784 3.5625 0 1 22.047 3.4919 15.784 15.784 3.5625 0 1-3.4919 22.047 15.784 15.784 3.5625 0 1-22.047-3.4919z"/>
  <path d="M 60.772803,46.0084 100,100" stroke="#000"/>
  <path d="m126.46 36.731a15.784 15.784 86.437 0 1 22.047-3.4919 15.784 15.784 86.437 0 1 3.4919 22.047 15.784 15.784 86.437 0 1-22.047 3.4919 15.784 15.784 86.437 0 1-3.4919-22.047z"/>
  <path d="m139.23 46.008-39.227 53.992" stroke="#000"/>
  <path d="m168.35 105.61a15.784 15.784 0 0 1 10.134 19.889 15.784 15.784 0 0 1-19.889 10.134 15.784 15.784 0 0 1-10.134-19.889 15.784 15.784 0 0 1 19.889-10.134z"/>
  <path d="m163.47 120.62-63.471-20.623" stroke="#000"/>
 </g>
</svg>