<svg width="200" height="200" version="1.1" xmlns="http://www.w3.org/2000/svg">
 <g stroke-width="5">
  <rect x="44.703" y="91.949" width="110.59" height="91.525" fill="none" stroke="#000"/>
  <path d="m71.626 44.445 7.7502-13.424c12.315-21.331 39.591-28.639 60.921-16.324 21.331 12.315 28.639 39.591 16.324 60.921l-9.4282 16.33" fill="none" stroke="#000"/>
  <path d="m106.8 135.89c5.3278-3.076 7.9253-9.3469 6.333-15.289-1.5922-5.9423-6.9772-10.074-13.129-10.074-6.152 0-11.537 4.132-13.129 10.074s1.0053 12.213 6.333 15.289l-6.7032 29.606h26.999z"/>
 </g>
 
<g fill="none" stroke="#999" stroke-width="3">
  <path d="m0 16v-16h16"/>
  <path d="m200 16v-16h-16"/>
  <path d="m0 184v16h16"/>
  <path d="m200 184v16h-16"/>
 </g></svg>