<svg width="200" height="200" version="1.1" xmlns="http://www.w3.org/2000/svg">
 <g fill="none">
  <g stroke="#999" stroke-width="3">
   <path d="m0 16v-16h16"/>
   <path d="m200 16v-16h-16"/>
   <path d="m0 184v16h16"/>
   <path d="m200 184v16h-16"/>
  </g>
  <g stroke="#000" stroke-width="5">
   <circle cx="70.003" cy="79.997" r="11.209"/>
   <path d="m83.927 55.983a27.766 27.756 0 0 1 13.842 24.014 27.766 27.756 0 0 1-13.771 23.972"/>
   <path d="m56.006 103.97a27.766 27.756 0 0 1-13.769-23.971 27.766 27.756 0 0 1 13.769-23.971"/>
  </g>
 </g>
 <path d="m69.996 51.797c-20.501 0.056819-39.715 10.027-51.559 26.756l-1.0215 1.4453 1.0215 1.4434c11.844 16.728 31.058 26.699 51.559 26.756h0.013672c11.37-0.03038 22.337-3.1228 31.877-8.7129v-5.9375c-9.3368 6.1691-20.37 9.617-31.877 9.6504-18.267-0.05023-35.353-8.6949-46.332-23.199 10.977-14.503 28.06-23.148 46.324-23.201h0.007813c18.272 0.0089 35.384 8.6202 46.395 23.107-0.81772 1.0849-1.6805 2.1261-2.5645 3.1445h6.5215c0.43028-0.56857 0.87262-1.1258 1.2852-1.7109l1.0215-1.4473-1.0274-1.4414c-11.882-16.712-31.127-26.645-51.637-26.652h-0.007812z"/>
 <g fill="none" stroke="#000" stroke-width="5">
  <path d="m88.09 46.237 4.8115-19.291"/>
  <path d="m112.89 57.533 11.408-16.286"/>
  <path d="m53.186 45.932-4.474-19.372"/>
  <path d="m27.122 57.533-11.408-16.286"/>
  <rect x="170.31" y="69.619" width="15.564" height="79.785"/>
  <rect x="111.89" y="93.049" width="9.7219" height="32.925"/>
  <path d="m133.79 88.929v41.647"/>
  <path d="m145.96 138.98v-57.855"/>
  <path d="m158.14 74.923v69.177"/>
  <path d="m104.98 158.37 33.138-8.8792-8.8792 33.138"/>
  <path d="m138.12 149.49c-4.2819 5.343-9.2961 10.098-14.858 14.091-6.7322 4.8327-14.392 8.5828-22.586 9.8229-12.865 1.947-26.312-2.618-36.171-11.109-11.606-9.9952-17.891-25.375-17.891-40.684"/>
 </g>
</svg>