<svg width="200" height="200" version="1.1" xmlns="http://www.w3.org/2000/svg">
 <g fill="none">
  <g stroke="#999" stroke-width="3">
   <path d="m0 16v-16h16"/>
   <path d="m200 16v-16h-16"/>
   <path d="m0 184v16h16"/>
   <path d="m200 184v16h-16"/>
  </g>
  <path d="m130.19 172.89-60.383-4e-5 -42.697-42.699 4.7e-5 -60.383 42.699-42.697 60.383 4.6e-5 42.697 42.699-5e-5 60.383z" stroke="#000" stroke-width="5"/>
 </g>
 <path d="m118.43 61.725a16.674 16.671 0 0 1-8.337 14.438 16.674 16.671 0 0 1-16.674 0 16.674 16.671 0 0 1-8.337-14.438v-3.7798h33.348z"/>
 <path d="m101.75 34.338a18.893 18.904 0 0 0-9.4473 2.5332 18.893 18.904 0 0 0-9.3164 14.396l-5.0762 3.3926h42.732v-1.418a18.893 18.904 0 0 0-9.4453-16.371 18.893 18.904 0 0 0-9.4473-2.5332z"/>
 <path d="m69.289 81.047c-5.4494 0-9.902 4.1151-10.434 9.4199h-0.05273v59.469h14.205v-43.141h6.1953v51.381h41.594v-51.381h6.1953v43.141h14.205v-59.469h-0.0527c-0.53162-5.3048-4.9842-9.4199-10.434-9.4199h-61.422zm33.984 15.145c1.2732-0.0149 2.5496 0.22167 3.7285 0.70312 1.8864 0.77032 3.5114 2.1627 4.5625 3.9082s1.5218 3.8357 1.3203 5.8633c-0.20152 2.0276-1.0731 3.9818-2.4473 5.4863-1.3316 1.458-3.1164 2.5058-4.1914 4.1621-0.6258 0.96412-0.97783 2.1048-1.0039 3.2539v24.324c0 2.5314-2.039 4.5703-4.5703 4.5703-2.5314 0-4.5684-2.039-4.5684-4.5703v-21.76c0.03422-1.2891-0.338-2.5854-1.0508-3.6602-1.1174-1.6848-2.963-2.7334-4.3301-4.2227-1.8799-2.0479-2.7771-4.9602-2.375-7.7109 0.40209-2.7507 2.095-5.2848 4.4824-6.709l3.4883 8.543c1.5099 0.56816 3.2335 0.54574 4.7285-0.0606 1.5046-0.6102 2.7622-1.8053 3.4473-3.2773l-3.4883-8.543c0.73969-0.19154 1.5037-0.29184 2.2676-0.30078z"/>
</svg>