<svg width="200" height="200" version="1.1" xmlns="http://www.w3.org/2000/svg">
 <g fill="none">
  <g stroke="#999" stroke-width="3">
   <path d="m0 16v-16h16"/>
   <path d="m200 16v-16h-16"/>
   <path d="m0 184v16h16"/>
   <path d="m200 184v16h-16"/>
  </g>
  <path d="m108.05 69.512-75.016 1e-6v-45.592h133.93v45.592h-39.847" stroke="#000" stroke-width="5"/>
  <path d="m108.05 95.021v-38.877c0-5.2818 4.2521-9.5339 9.5339-9.5339s9.5339 4.2521 9.5339 9.5339v38.877" stroke="#000" stroke-width="5"/>
 </g>
 <path d="m119.12 46.732-4.4766 0.33594-5.1992 4.0957-2.0605 6.3613c5.3251 5.4429 13.986 5.7453 19.678 0.6875l-0.27148-4.5645-3.6973-6.0312zm-1.5371 3.1113c0.67895 0 1.3584 0.1761 1.9668 0.52734 1.2167 0.70248 1.9668 1.9993 1.9668 3.4043l0.0488 2.4043c-2.5392 1.2393-5.1751 1.2575-7.9141 0v-2.4043c0-1.405 0.75007-2.7018 1.9668-3.4043 0.60837-0.35124 1.2859-0.52734 1.9648-0.52734z"/>
 <g fill="none" stroke="#000" stroke-width="5">
  <path d="m127.12 95.021c0 2.4551 0 4.9092 9e-3 6.7807 9e-3 1.8715 0.0265 3.1603 0.56549 4.3609s1.5983 2.3128 2.6566 3.4241"/>
  <path d="m127.12 89.587c6.6078 1.7706 13.214 3.5408 17.246 5.3639 4.0316 1.8231 5.4883 3.6982 6.3912 5.7844 0.90284 2.0862 1.2524 4.3832 1.2523 13.722-1e-4 9.3383-0.34964 25.717-0.34956 35.28s0.34962 12.31 2.772 16.28c2.4224 3.97 6.9166 9.1634 11.41 14.356"/>
  <path d="m108.05 95.021v8.0486c-0.86136 1.2484-1.7229 2.4971-2.4032 4.0953-0.68039 1.5982-1.1797 3.5458-1.1796 11.186 1.2e-4 7.6406 0.49947 20.974 1.0988 29.113s1.2985 11.086 2.5972 13.433c1.2988 2.347 3.1963 4.0947 4.9442 5.218s3.3458 1.6226 4.6941 1.8971c1.3482 0.27449 2.4468 0.32443 3.5444 0.37432"/>
  <path d="m106.63 156.5c-0.28908 3.713-0.57808 7.4251-0.42273 10.205s0.75458 4.6277 1.5538 6.3505c0.79917 1.7228 1.7979 3.3208 5.1439 6.5666 3.346 3.2458 9.0387 8.1396 14.73 13.032"/>
  <path d="m108.05 84.493c-3.2571-1.198-6.5155-2.3965-9.0937-2.6965-2.5783-0.29994-4.4758 0.2993-5.8745 1.3982-1.3986 1.0989-2.2975 2.6968-2.7468 12.435s-0.44934 27.615-0.19949 37.466c0.24985 9.851 0.7492 11.675 3.5408 14.415 2.7916 2.7398 7.8745 6.3951 12.956 10.05"/>
  <path d="m90.113 102.56c1.1479 2.4169 2.2957 4.8336 4.6897 7.4667 2.394 2.6331 6.0291 5.4783 9.665 8.3241"/>
  <path d="m90.113 115.4c1.1479 2.4169 2.2957 4.8336 4.6897 7.4667 2.394 2.6331 6.0291 5.4783 9.665 8.3241"/>
  <path d="m90.113 128.25c1.1479 2.4169 2.2957 4.8336 4.6897 7.4667 2.394 2.6331 6.0291 5.4783 9.665 8.3241"/>
 </g>
</svg>