<svg width="200" height="200" version="1.1" xmlns="http://www.w3.org/2000/svg">
 <g fill="none" stroke="#999" stroke-width="3">
  <path d="m0 16v-16h16"/>
  <path d="m200 16v-16h-16"/>
  <path d="m0 184v16h16"/>
  <path d="m200 184v16h-16"/>
 </g>
 <path d="m175.42 154.24h-158.05l79.053-136.92" fill="none" stroke="#000" stroke-width="5"/>
 <path d="m96.936 109.31-5.8427 0.64442q-0.2148-1.8044-1.117-2.6636-0.90218-0.85921-2.3414-0.85921-1.9118 0-3.2435 1.7184-1.3103 1.7184-1.654 7.153 2.2554-2.6636 5.6064-2.6636 3.7806 0 6.4656 2.8784 2.7065 2.8784 2.7065 7.4322 0 4.8331-2.8354 7.7544-2.8354 2.9213-7.2819 2.9213-4.7687 0-7.8404-3.6946-3.0717-3.7161-3.0717-12.158 0-8.6566 3.2006-12.48 3.2006-3.8235 8.3129-3.8235 3.5872 0 5.9286 2.0192 2.3628 1.9977 3.0073 5.8212zm-13.683 13.168q0 2.9428 1.3533 4.5538 1.3533 1.5896 3.0932 1.5896 1.6755 0 2.7925-1.3103 1.117-1.3103 1.117-4.2961 0-3.0717-1.2029-4.4894-1.2029-1.4392-3.0073-1.4392-1.7399 0-2.9428 1.3747-1.2029 1.3533-1.2029 4.0168z"/>
 <path d="m111.16 101.47q4.5753 0 7.153 3.265 3.0717 3.8665 3.0717 12.824 0 8.9359-3.0932 12.845-2.5562 3.2221-7.1315 3.2221-4.5968 0-7.4107-3.5228-2.8139-3.5443-2.8139-12.609 0-8.8929 3.0932-12.802 2.5562-3.2221 7.1315-3.2221zm0 5.0049q-1.0955 0-1.9547 0.70885-0.85921 0.68738-1.3318 2.4917-0.62294 2.3414-0.62294 7.8833 0 5.542 0.5585 7.6256 0.55849 2.0621 1.3962 2.7495 0.85922 0.68737 1.9547 0.68737t1.9547-0.68737q0.85922-0.70886 1.3318-2.5132 0.62293-2.3199 0.62293-7.8618 0-5.5419-0.55849-7.6041-0.55849-2.0836-1.4177-2.771-0.83774-0.70885-1.9332-0.70885z"/>
 <path d="m125.4 107.92q0-2.8569 1.9977-4.8546 2.0192-1.9977 4.8546-1.9977 2.8354 0 4.8331 2.0192 2.0192 1.9977 2.0192 4.8331 0 2.8354-2.0192 4.8546-1.9977 1.9977-4.8331 1.9977-2.8354 0-4.8546-1.9977-1.9977-2.0192-1.9977-4.8546zm3.5658 0q0 1.3533 0.96662 2.3199t2.3199 0.96662q1.3533 0 2.3199-0.96662t0.96662-2.3199q0-1.3533-0.96662-2.3199t-2.3199-0.96662q-1.3533 0-2.3199 0.96662t-0.96662 2.3199z"/>
</svg>