<svg width="200" height="200" version="1.1" xmlns="http://www.w3.org/2000/svg">
 <g fill="none" stroke="#999" stroke-width="3">
  <path d="m0 16v-16h16"/>
  <path d="m200 16v-16h-16"/>
  <path d="m0 184v16h16"/>
  <path d="m200 184v16h-16"/>
 </g>
 <g>
  <path d="m28.288 71.301 30.92 28.562-2e-6 72.645a7.8425 7.8425 0 0 0 7.8425 7.8425l91.128 1e-5a10.066 10.066 0 0 0 8.9061-14.756l-29.913-56.797v-15.509" fill="none" stroke="#000" stroke-width="6"/>
  <path d="m92.232 14.79a15.431 15.431 0 0 1-5.648 21.078 15.431 15.431 0 0 1-21.078-5.648 15.431 15.431 0 0 1 5.648-21.078 15.431 15.431 0 0 1 21.078 5.648z"/>
  <path d="m126.84 122.22a27.64 27.64 0 0 1-10.117 37.757 27.64 27.64 0 0 1-37.757-10.117 27.64 27.64 0 0 1 10.117-37.757 27.64 27.64 0 0 1 37.757 10.117z" fill="none" stroke="#000" stroke-width="6"/>
 </g>
 <path d="m99.847 143.25 10.484-6.8415-16.303-28.667 33.777-21.093a9.6507 9.6507 0 0 0 3.2458-13.011l-19.764-34.232a11.221 11.221 0 0 0-16.106-3.614l-35.829 24.815-33.1-1e-6v12.903l38.42 1e-6 19.467-14.258a2.1853 2.1853 0 0 1 3.1838 0.67034l15.615 27.046-18.773 11.724a9.2284 9.2284 0 0 0-3.0776 12.487z"/>
</svg>