<svg width="200" height="200" version="1.1" xmlns="http://www.w3.org/2000/svg">
 <g fill="none">
  <g stroke="#999" stroke-width="3">
   <path d="m0 16v-16h16"/>
   <path d="m200 16v-16h-16"/>
   <path d="m0 184v16h16"/>
   <path d="m200 184v16h-16"/>
  </g>
  <g stroke="#000" stroke-width="5">
   <path d="m16.42 97.483c17.733-3.7037 35.641-7.5435 53.43-11.325l-4.2449-17.002c10.93-4.4148 22.607-6.6841 34.395-6.6841s23.465 2.2693 34.395 6.6841l-4.2449 17.002c17.79 3.7818 35.698 7.6216 53.43 11.325-0.27476-13.814-2.5659-27.513-6.8224-40.873-22.909-14.927-49.546-22.753-76.758-22.753-27.211 0-53.849 7.8256-76.758 22.753-4.2562 13.36-6.5474 27.059-6.8221 40.873z"/>
   <rect x="18.761" y="129.56" width="27.648" height="27.648"/>
   <rect x="63.704" y="129.56" width="27.648" height="27.648"/>
   <rect x="108.65" y="129.56" width="27.648" height="27.648"/>
   <rect x="153.59" y="129.56" width="27.648" height="27.648"/>
  </g>
 </g>
</svg>