<svg width="200" height="200" version="1.1" xmlns="http://www.w3.org/2000/svg">
 <g fill="none">
  <g stroke="#999" stroke-width="3">
   <path d="m0 16v-16h16"/>
   <path d="m200 16v-16h-16"/>
   <path d="m0 184v16h16"/>
   <path d="m200 184v16h-16"/>
  </g>
  <path d="m69.273 155.56v-61.454h61.454v61.454" stroke="#000" stroke-width="5"/>
  <path d="m82.756 94.108v-34.488h34.488v34.488" stroke="#000" stroke-width="5"/>
 </g>
 <path d="m129.94 166.18 3.4892-2.739h-66.859l3.4892 2.739c8.5403 6.7038 19.083 10.347 29.94 10.347 10.857 0 21.4-3.6437 29.94-10.347z"/>
 <g fill="none" stroke="#000" stroke-width="5">
  <circle cx="100" cy="125.37" r="6.7051"/>
  <path d="m43.201 26.946-4.1009 37.062 34.147-14.979"/>
  <path d="m41.996 61.809a65.97 65.97 0 0 1 58.126-34.543 65.97 65.97 0 0 1 57.998 34.759"/>
  <path d="m156.8 26.946 4.1009 37.062-34.147-14.979"/>
 </g>
</svg>