<svg width="200" height="200" version="1.1" xmlns="http://www.w3.org/2000/svg">
 <g fill="none" stroke="#999" stroke-width="3">
  <path d="m0 16v-16h16"/>
  <path d="m200 16v-16h-16"/>
  <path d="m0 184v16h16"/>
  <path d="m200 184v16h-16"/>
 </g>
 <path d="m14.374 145.32h170.71l-1e-5 -38.872c0-41.617-33.738-75.355-75.355-75.355-41.617-2e-6 -75.355 33.738-75.355 75.355v12.963c5e-6 2.8213 1.1e-5 5.6415-1.0429 8.225-1.0429 2.5835-3.1286 4.9311-5.2056 6.9871-2.077 2.056-4.1455 3.8204-6.5253 5.6288-2.3798 1.8084-5.0707 3.6607-7.7619 5.5132" fill="none" stroke="#000" stroke-width="5"/>
</svg>