<svg width="200" height="200" version="1.1" xmlns="http://www.w3.org/2000/svg">
 <g stroke="#000" stroke-width="5">
  <path d="m131.54 100h-128.42"/>
  <path d="m131.34 153.91c19.612 0 38.997-4.2877 56.875-12.586 4.1035-13.414 6.1749-27.365 6.1749-41.395 0-14.056-2.0789-28.031-6.1626-41.442-17.746-8.1638-37.002-12.394-56.481-12.394-19.612 0-38.997 4.2877-56.875 12.586-4.1035 13.414-6.1749 27.365-6.1749 41.395 0 14.056 2.0789 28.031 6.1626 41.442 17.746 8.1638 37.002 12.394 56.481 12.394z" fill="none"/>
  <path d="m101.11 82.422 30.432 17.578-30.432 17.57" fill="none"/>
 </g>
 
<g fill="none" stroke="#999" stroke-width="3">
  <path d="m0 16v-16h16"/>
  <path d="m200 16v-16h-16"/>
  <path d="m0 184v16h16"/>
  <path d="m200 184v16h-16"/>
 </g></svg>