<svg
   width="53.710388mm"
   height="53.710419mm"
   viewBox="0 0 53.710388 53.710419"
   version="1.1"
   id="svg20990"
   xml:space="preserve"
   xmlns:inkscape="http://www.inkscape.org/namespaces/inkscape"
   xmlns:sodipodi="http://sodipodi.sourceforge.net/DTD/sodipodi-0.dtd"
   xmlns="http://www.w3.org/2000/svg"
   xmlns:svg="http://www.w3.org/2000/svg"><sodipodi:namedview
     id="namedview20992"
     pagecolor="#ffffff"
     bordercolor="#000000"
     borderopacity="0.25"
     inkscape:showpageshadow="2"
     inkscape:pageopacity="0.0"
     inkscape:pagecheckerboard="0"
     inkscape:deskcolor="#d1d1d1"
     inkscape:document-units="mm"
     showgrid="false"
     showguides="false" /><defs
     id="defs20987" /><g
     inkscape:label="Layer 1"
     inkscape:groupmode="layer"
     id="layer1"
     transform="translate(-708.73445,-398.33645)"><g
       stroke="#999999"
       stroke-width="3"
       id="g25938"
       transform="matrix(0.26458333,0,0,0.26458333,709.13131,398.73331)"
       style="fill:none"
       inkscape:export-filename="IEC 60417 - Ref-No 6400.svg"
       inkscape:export-xdpi="96"
       inkscape:export-ydpi="96"><g
         id="g26000"><path
           d="M 0,16 V 0 h 16"
           id="path25930" /><path
           d="M 200,16 V 0 h -16"
           id="path25932" /><path
           d="m 0,184 v 16 h 16"
           id="path25934" /><path
           d="m 200,184 v 16 h -16"
           id="path25936" /></g></g><path
       id="path34509"
       style="color:#000000;fill:#000000;stroke-linecap:round;stroke-linejoin:round;-inkscape-stroke:none"
       d="m 736.45238,401.42048 c -0.16966,0.27985 -0.35682,0.58843 -0.50746,0.96066 -0.15221,0.37529 -0.26412,0.81256 -0.26355,1.28365 v 5.1e-4 5.2e-4 c 1.2e-4,0.47027 0.11164,0.90699 0.26407,1.28209 0.1506,0.372 0.3373,0.68006 0.50591,0.95963 0.16816,0.27936 0.31999,0.5347 0.43305,0.81339 v 5.2e-4 c 0.11163,0.2747 0.18706,0.58715 0.18706,0.88986 v 5.2e-4 c 3.8e-4,0.30225 -0.0753,0.61488 -0.18706,0.89039 v 5.1e-4 c -0.11225,0.27784 -0.26357,0.53243 -0.43202,0.81029 l 0.89452,0.54209 c 0.16937,-0.27938 0.35679,-0.58746 0.50746,-0.96015 0.15225,-0.3753 0.26415,-0.81285 0.26355,-1.28416 -6e-5,-0.47084 -0.11167,-0.90811 -0.26406,-1.28313 -0.15093,-0.3719 -0.33736,-0.67908 -0.50592,-0.95911 v -5.2e-4 c -0.16817,-0.27884 -0.3202,-0.53476 -0.43253,-0.81235 l -5.1e-4,-5.2e-4 v -5.2e-4 c -0.11156,-0.27452 -0.18707,-0.58729 -0.18707,-0.88935 v -5.1e-4 -5.2e-4 c -3.8e-4,-0.3022 0.0754,-0.61555 0.18707,-0.8909 v -5.2e-4 c 0.11234,-0.27759 0.26371,-0.53268 0.43201,-0.81029 z m -4.96145,10e-4 c -0.16885,0.27942 -0.35537,0.58737 -0.50643,0.95912 -0.15255,0.37605 -0.26355,0.81366 -0.26355,1.28416 0,0.47056 0.11156,0.90781 0.26406,1.28312 0.15106,0.37175 0.33751,0.67985 0.5054,0.95912 v 5.1e-4 c 0.16848,0.2799 0.32066,0.53507 0.43357,0.81339 0.11146,0.27553 0.18758,0.58828 0.18758,0.89038 0,0.30271 -0.0756,0.61546 -0.18707,0.89142 -0.11287,0.27802 -0.26475,0.53267 -0.43305,0.81029 l 0.89504,0.54209 c 0.1695,-0.27959 0.35683,-0.58755 0.50798,-0.96015 l 5.2e-4,-5.2e-4 v -5.2e-4 c 0.15149,-0.37495 0.26251,-0.81163 0.26251,-1.28261 0,-0.47147 -0.11212,-0.90839 -0.26355,-1.2826 v -5.2e-4 c -0.15109,-0.37242 -0.33811,-0.68 -0.50643,-0.95963 v -5.2e-4 c -0.16778,-0.27909 -0.32011,-0.53547 -0.43305,-0.81339 -0.11155,-0.27452 -0.18706,-0.5878 -0.18706,-0.88986 0,-0.30309 0.0751,-0.61613 0.18655,-0.89091 v -5.1e-4 c 0.11299,-0.27797 0.26509,-0.5339 0.43305,-0.81184 z m 2.48047,0 c -0.16885,0.27942 -0.35589,0.58737 -0.50695,0.95912 -0.15256,0.37605 -0.26355,0.81366 -0.26355,1.28416 0,0.47056 0.11157,0.90781 0.26407,1.28312 0.15088,0.37128 0.33748,0.6795 0.50643,0.95963 0.16837,0.27972 0.32034,0.53468 0.43253,0.81236 v 10e-4 5.2e-4 c 0.11162,0.27468 0.18713,0.58713 0.18758,0.89038 -1.2e-4,0.30249 -0.0754,0.6151 -0.18707,0.89039 h -5.1e-4 v 5.1e-4 c -0.11225,0.27783 -0.26356,0.53242 -0.43202,0.81029 l 0.89504,0.54209 c 0.16937,-0.27938 0.35627,-0.58746 0.50694,-0.96015 0.15229,-0.3754 0.26407,-0.81266 0.26407,-1.28365 v -5.1e-4 -5.2e-4 c -7.6e-4,-0.47003 -0.11185,-0.90666 -0.26407,-1.28157 -0.15073,-0.37308 -0.33753,-0.68094 -0.50591,-0.96067 h -5.1e-4 c -0.16791,-0.27841 -0.31986,-0.53485 -0.43305,-0.81339 -0.11155,-0.27452 -0.18656,-0.5878 -0.18656,-0.88986 0,-0.30308 0.0751,-0.61613 0.18656,-0.89091 v -5.1e-4 c 0.11299,-0.27796 0.2651,-0.5339 0.43305,-0.81184 z m -8.7328,8.55348 -0.74208,2.73782 10.81485,4.824 0.0579,-0.0915 1.48157,-2.29082 z m 8.68629,1.56528 c -0.90669,0.004 -1.84459,0.17368 -2.7001,0.63924 1.82827,0.39298 6.52276,2.85495 8.03052,3.81372 -1.73305,-1.64537 -0.28939,-2.00969 -0.28939,-2.00969 -2.11073,-0.85974 -0.61236,-1.3777 -0.61236,-1.3777 0,0 -2.11159,-1.07519 -4.42867,-1.06557 z m 9.63248,3.14296 a 3.1253905,3.1253905 0 0 0 -3.12539,3.1254 3.1253905,3.1253905 0 0 0 3.12539,3.12539 3.1253905,3.1253905 0 0 0 3.12539,-3.12539 3.1253905,3.1253905 0 0 0 -3.12539,-3.1254 z m -15.49466,0.16795 a 1.4065,1.4065 0 0 0 -0.12195,0.0656 1.4065,1.4065 0 0 0 -0.37104,1.95285 l 4.39663,6.45542 a 1.4066406,1.4066406 0 0 0 1.07435,0.61134 l 5.24619,0.33538 -5.44359,13.46532 a 1.4066406,1.4066406 0 0 0 -0.1018,0.5271 v 9.0625 a 1.4065,1.4065 0 0 0 1.40611,1.40663 1.4065,1.4065 0 0 0 1.40663,-1.40663 v -8.78913 l 2.71663,-6.72103 v 7.27397 a 1.4066406,1.4066406 0 0 0 0.11938,0.56844 l 3.74189,8.46667 a 1.4065,1.4065 0 0 0 1.8557,0.71675 1.4065,1.4065 0 0 0 0.71882,-1.85518 l -3.62304,-8.1933 v -7.03161 l 4.63435,-10.52908 a 4.0514321,4.0514321 0 0 1 -2.1606,0.62684 4.0514321,4.0514321 0 0 1 -3.48557,-2.0035 l -0.32453,0.80254 h -1.87689 l -1.76165,-3.437 -0.31832,0.49196 -0.28681,0.4563 -2.65668,-1.18494 a 1.4065,1.4065 0 0 0 0.0589,0.15606 l 2.10323,4.10156 -1.10329,-0.0703 -3.63544,-5.33662 z"
       inkscape:export-filename="scald.svg"
       inkscape:export-xdpi="96"
       inkscape:export-ydpi="96" /></g></svg>