<svg width="200" height="200" version="1.1" xmlns="http://www.w3.org/2000/svg">
 <path d="m99.744 166.49c24.659 0 49.032-5.2883 71.511-15.523 5.1594-16.544 7.7639-33.751 7.7639-51.056 0-17.336-2.6139-34.573-7.7484-51.113-22.313-10.069-46.524-15.286-71.015-15.286-24.659 0-49.032 5.2883-71.511 15.523-5.1594 16.544-7.7639 33.751-7.7639 51.056 0 17.336 2.6139 34.573 7.7484 51.113 22.313 10.069 46.524 15.286 71.015 15.286z" fill="none" stroke="#000" stroke-width="5"/>
 <path d="m100.26 33.512c-0.0854 0-0.1705 0.003906-0.25586 0.003906v66.484h79.018c1e-5 -0.03 0.00195-0.059944 0.00195-0.089844 0-17.336-2.6136-34.573-7.748-51.113-22.313-10.069-46.525-15.285-71.016-15.285zm36.355 21.471h5v34.006h-5v-34.006zm-28.246 1.3926 27.037 15.611-27.037 15.609v-31.221zm61.494 0v31.221l-27.037-15.609 27.037-15.611z"/>
 
<g fill="none" stroke="#999" stroke-width="3">
  <path d="m0 16v-16h16"/>
  <path d="m200 16v-16h-16"/>
  <path d="m0 184v16h16"/>
  <path d="m200 184v16h-16"/>
 </g></svg>