<svg width="200" height="200" version="1.1" xmlns="http://www.w3.org/2000/svg">
 <g fill="none" stroke="#999" stroke-width="3">
  <path d="m0 16v-16h16"/>
  <path d="m200 16v-16h-16"/>
  <path d="m0 184v16h16"/>
  <path d="m200 184v16h-16"/>
 </g>
 <path d="m161.73 22.721-93.819 25.139v106.96c0 0.21638 0.02483 0.42586 0.03125 0.64062h4.9688v-98.592l83.818-22.459v98.775h5z"/>
 <path d="m129.58 115.13c8.8474-2.5259 19.411-1.7145 26.348 4.8763 5.4116 4.8751 7.2498 13.051 4.6229 19.816-3.3092 9.2113-12.5 14.882-21.705 16.869-8.765 2.1063-19.069 0.69359-25.453-6.1557-5.2773-5.3507-6.3692-13.952-3.0982-20.632 3.5264-7.7449 11.294-12.643 19.286-14.774zm-88.819 22.276c8.8474-2.5259 19.411-1.7145 26.348 4.8763 5.4116 4.8751 7.2498 13.051 4.6228 19.816-3.3092 9.2113-12.5 14.882-21.705 16.869-8.765 2.1063-19.069 0.69359-25.453-6.1557-5.2773-5.3507-6.3692-13.952-3.0982-20.632 3.5264-7.7449 11.294-12.643 19.286-14.774z"/>
</svg>