<svg width="200" height="200" version="1.1" xmlns="http://www.w3.org/2000/svg">
 <g fill="none">
  <g stroke="#999" stroke-width="3">
   <path d="m0 16v-16h16"/>
   <path d="m200 16v-16h-16"/>
   <path d="m0 184v16h16"/>
   <path d="m200 184v16h-16"/>
  </g>
  <g stroke="#000" stroke-width="5">
   <circle cx="47" cy="93" r="34.5"/>
   <circle cx="153" cy="93" r="34.5"/>
   <path d="M47,127.5H153"/>
   <path d="M75,10C72,21 72,32 75,44 90,51 110,51 125,44 128,33 128,21 125,10 110,3 90,3 75,10z"/>
   <path d="M100,130V187M81,157 100,190 119,157"/>
   <circle cx="91" cy="34.5" r="3.5" fill="black"/>
   <circle cx="109" cy="34.5" r="3.5" fill="black"/>
   <circle cx="100" cy="19" r="3.5" fill="black"/>
  </g>
 </g>
</svg>