<svg width="200" height="200" version="1.1" xmlns="http://www.w3.org/2000/svg"><path d="m100.26 33.512c-24.659 0-49.033 5.2868-71.512 15.521-5.1505 16.515-7.7527 33.692-7.7617 50.967h74.662l62.219-44.334h-30.863v-5h42.188l-13.773 39.875-4.7266-1.6309 10.076-29.174-60.764 43.301v63.447c24.572-0.03648 48.855-5.3183 71.256-15.518 5.1594-16.544 7.7637-33.752 7.7637-51.057 0-17.336-2.6136-34.573-7.748-51.113-22.313-10.069-46.525-15.285-71.016-15.285z"/><path d="m99.744 166.49c24.659 0 49.032-5.2883 71.511-15.523 5.1594-16.544 7.7639-33.751 7.7639-51.056 0-17.336-2.6139-34.573-7.7484-51.113-22.313-10.069-46.524-15.286-71.015-15.286-24.659 0-49.032 5.2883-71.511 15.523-5.1594 16.544-7.7639 33.751-7.7639 51.056 0 17.336 2.6139 34.573 7.7484 51.113 22.313 10.069 46.524 15.286 71.015 15.286z" fill="none" stroke="#000" stroke-width="5"/><path d="m100.26 31.012c-25.016 0-49.743 5.3636-72.547 15.746l-1.0176 0.46484-0.33399 1.0664c-5.2349 16.786-7.877 34.245-7.877 51.801 0 17.587 2.6522 35.073 7.8613 51.854l0.33398 1.0762 1.0254 0.46289c22.636 10.215 47.197 15.506 72.043 15.506 25.016 0 49.743-5.3636 72.547-15.746l1.0176-0.46485 0.33399-1.0664c5.2349-16.786 7.877-34.245 7.877-51.801 0-17.587-2.6522-35.073-7.8613-51.854l-0.33398-1.0762-1.0254-0.46289c-22.636-10.215-47.197-15.506-72.043-15.506zm0 5c23.758 0 47.229 5.0343 68.932 14.654 4.8335 15.958 7.332 32.549 7.332 49.244 0 16.667-2.4909 33.231-7.3477 49.191-21.868 9.7827-45.502 14.887-69.428 14.887-23.758 0-47.229-5.0343-68.932-14.654-4.8335-15.958-7.332-32.549-7.332-49.244 0-16.667 2.4909-33.231 7.3476-49.191 21.868-9.7827 45.502-14.887 69.428-14.887z" fill="none"/> 
<g fill="none" stroke="#999" stroke-width="3">
  <path d="m0 16v-16h16"/>
  <path d="m200 16v-16h-16"/>
  <path d="m0 184v16h16"/>
  <path d="m200 184v16h-16"/>
 </g></svg>