<svg width="200" height="200" version="1.1" xmlns="http://www.w3.org/2000/svg">
 <g fill="none">
  <g stroke="#999" stroke-width="3">
   <path d="m0 16v-16h16"/>
   <path d="m200 16v-16h-16"/>
   <path d="m0 184v16h16"/>
   <path d="m200 184v16h-16"/>
  </g>
  <g stroke="#000" stroke-width="5">
   <path d="m166.11 120.17v-15.728a1.7803 1.7803 0 0 0-0.91719-1.5571l-46.257-25.641c-1.4866-0.82402-2.4089-2.3898-2.4089-4.0895v-25.6h-33.051v25.6c0 1.6997-0.92234 3.2655-2.4089 4.0895l-46.257 25.641a1.7803 1.7803 0 0 0-0.91719 1.5571v15.728z"/>
   <path d="m183.14 136.42v16.03h-166.29v-16.03"/>
   <path d="m106.4 136.42v16.03"/>
   <path d="m29.647 136.42v16.03"/>
   <path d="m119.19 136.42v16.03"/>
   <path d="m42.438 136.42v16.03"/>
   <path d="m131.98 136.42v16.03"/>
   <path d="m55.23 136.42v16.03"/>
   <path d="m144.77 136.42v16.03"/>
   <path d="m68.021 136.42v16.03"/>
   <path d="m157.56 136.42v16.03"/>
   <path d="m80.813 136.42v16.03"/>
   <path d="m170.35 136.42v16.03"/>
   <path d="m93.604 136.42v16.03"/>
  </g>
 </g>
</svg>