<svg width="200" height="200" version="1.1" xmlns="http://www.w3.org/2000/svg">
 <g fill="none">
  <g stroke="#000" stroke-width="5">
   <g>
    <path d="m100 133.56v37.288"/>
    <path d="m76.907 133.77-12.753 35.039"/>
    <path d="m50.579 132.82-24.26 28.317"/>
    <path d="m123.09 133.77 12.753 35.039"/>
    <path d="m149.42 132.82 24.26 28.317"/>
   </g>
   <path d="m38.136 83.774h123.73"/>
   <path d="m38.136 116.23h123.73"/>
  </g>
  <g stroke="#999" stroke-width="3">
   <path d="m0 16v-16h16"/>
   <path d="m200 16v-16h-16"/>
   <path d="m0 184v16h16"/>
   <path d="m200 184v16h-16"/>
  </g>
  <g stroke="#000">
   <path d="m38.829 81.274v37.452" stroke-width="10"/>
   <path d="m161.17 118.73v-37.452" stroke-width="10"/>
   <g stroke-width="5">
    <path d="m100 66.442v-37.288"/>
    <path d="m76.907 66.231-12.753-35.039"/>
    <path d="m50.579 67.184-24.26-28.317"/>
    <path d="m123.09 66.231 12.753-35.039"/>
    <path d="m149.42 67.184 24.26-28.317"/>
   </g>
  </g>
 </g>
</svg>