<svg width="200" height="200" version="1.1" xmlns="http://www.w3.org/2000/svg">
 <path d="m70.445 99.243c3.7825-3.6338 7.6016-7.285 12.012-10.125s9.4989-4.8487 14.744-4.8453c5.244 4e-3 10.329 2.018 14.737 4.8583 4.4082 2.8403 8.2284 6.4878 12.019 10.112 3.7904 3.6238 7.6106 7.2714 12.019 10.112 4.4082 2.8403 9.4929 4.8548 14.737 4.8583 5.2452 4e-3 10.334-2.0056 14.744-4.8453 4.41-2.8396 8.2292-6.4908 12.012-10.125" fill="none" stroke="#000" stroke-width="5"/>
 <path d="m36.883 133.12v-51.944q-0.84647 1.5139-2.3278 3.2169-1.4813 1.6085-3.5975 3.3116-2.0104 1.7031-4.6556 3.3116-2.5394 1.5139-5.5021 2.7439v-8.7993q6.0311-3.5008 10.263-7.9477 4.2324-4.447 7.5124-10.124h8.5705v66.231z"/>
 
<g fill="none" stroke="#999" stroke-width="3">
  <path d="m0 16v-16h16"/>
  <path d="m200 16v-16h-16"/>
  <path d="m0 184v16h16"/>
  <path d="m200 184v16h-16"/>
 </g></svg>