<svg width="200" height="200" version="1.1" xmlns="http://www.w3.org/2000/svg">
 <g fill="none" stroke="#000">
  <g stroke-width="5">
   <path d="m40.807 84.889 13.469-3.249 7.9262 32.859-13.469 3.249z"/>
   <path d="m64.271 123.08c-4.0215-16.672-8.0433-33.345-12.065-50.019"/>
   <path d="m113.72 166.54a21.127 21.127 0 0 1-21.448 20.801 21.127 21.127 0 0 1-20.801-21.448 21.127 21.127 0 0 1 21.448-20.801 21.127 21.127 0 0 1 20.801 21.448z"/>
   <path d="m90.044 136.43c11.405 9.6331 22.809 19.265 34.212 28.896"/>
   <path d="m38.819 72.661a61.333 61.333 0 0 1 29.277-56.701 61.333 61.333 0 0 1 63.813 0.0031 61.333 61.333 0 0 1 29.271 56.704"/>
  </g>
  <path d="m159.19 84.889-13.469-3.2489-7.926 32.859 13.469 3.2489z" stroke-width="5"/>
  <path d="m135.73 123.08c4.0215-16.672 8.0433-33.345 12.065-50.019" stroke-width="5"/>
  <path d="m51.579 129.55c1.0521 3.0768 2.1039 6.1524 3.3267 9.6336s2.6165 7.3678 4.0206 11.02c1.4041 3.6523 2.8182 7.0698 4.7481 11.077 1.9299 4.007 4.3752 8.603 6.7988 12.021 2.4236 3.4178 4.8248 5.6574 7.2251 7.896" stroke-width="5"/>
 </g>
 
<g fill="none" stroke="#999" stroke-width="3">
  <path d="m0 16v-16h16"/>
  <path d="m200 16v-16h-16"/>
  <path d="m0 184v16h16"/>
  <path d="m200 184v16h-16"/>
 </g></svg>