<svg width="200" height="200" version="1.1" xmlns="http://www.w3.org/2000/svg">
 <g fill="none">
  <g stroke="#999" stroke-width="3">
   <path d="m0 16v-16h16"/>
   <path d="m200 16v-16h-16"/>
   <path d="m0 184v16h16"/>
   <path d="m200 184v16h-16"/>
  </g>
  <g stroke="#000">
   <circle cx="100" cy="100" r="37.566" stroke-width="5"/>
   <path d="m85.767 65.234 5.92e-4 -27.669h28.464l5.9e-4 27.669" stroke-width="5"/>
   <g stroke-width="5">
    <path d="m41.422 136.99-36.988-36.988 37.365-37.365"/>
    <path d="m137.36 158.2-37.363 37.363-37.363-37.363"/>
    <path d="m158.2 62.635 37.365 37.365-36.988 36.988"/>
    <path d="m63.012 41.422 36.988-36.988 36.988 36.988"/>
   </g>
   <g stroke-width="5">
    <path d="m51.337 148.66 15.4-15.4"/>
    <path d="m31.181 100 21.779-1e-6"/>
    <path d="m51.337 51.337 15.4 15.4"/>
    <path d="m148.66 51.337-15.4 15.4"/>
    <path d="m168.82 100-21.779-1e-6"/>
    <path d="m148.66 148.66-15.4-15.4"/>
    <path d="m100 168.82v-21.779"/>
   </g>
  </g>
 </g>
</svg>