<svg width="200" height="200" version="1.1" xmlns="http://www.w3.org/2000/svg"><path d="m100 35.766a178.39 178.39 0 0 0-73.947 16.062 178.39 178.39 0 0 0-6.7734 48.172 178.39 178.39 0 0 0 6.7734 48.172 178.39 178.39 0 0 0 73.947 16.062 178.39 178.39 0 0 0 73.947-16.062 178.39 178.39 0 0 0 6.7734-48.172 178.39 178.39 0 0 0-6.7734-48.172 178.39 178.39 0 0 0-73.947-16.062z" fill="none" stroke="#000" stroke-width="5"/><path d="m73.923 55.125v89.75h10v-41.068l29.799 41.068h12.355l-29.799-41.068h4.4512c13.345 0 24.27-10.925 24.27-24.27s-10.925-24.27-24.27-24.27zm10 10.055 16.793 0.0879h0.0137c7.9403 0 14.27 6.3292 14.27 14.27 0 7.9403-6.3292 14.27-14.27 14.27h-16.807z"/> 
<g fill="none" stroke="#999" stroke-width="3">
  <path d="m0 16v-16h16"/>
  <path d="m200 16v-16h-16"/>
  <path d="m0 184v16h16"/>
  <path d="m200 184v16h-16"/>
 </g></svg>