<svg width="200" height="200" version="1.1" xmlns="http://www.w3.org/2000/svg">
 <g fill="none" stroke="#999" stroke-width="3">
  <path d="m0 16v-16h16"/>
  <path d="m200 16v-16h-16"/>
  <path d="m0 184v16h16"/>
  <path d="m200 184v16h-16"/>
 </g>
 <circle cx="67.392" cy="45.881" r="9.5821"/>
 <path d="m39.019 50.615c3.2967-0.52861 6.4319-2.0265 8.9145-4.2591 2.194-1.973 3.8469-4.4605 5.5502-6.8699s3.5226-4.8093 5.9396-6.5018c2.7804-1.947 6.2811-2.8392 9.6542-2.4604s6.5888 2.0252 8.868 4.5405" fill="none" stroke="#000" stroke-width="4.5"/>
 <path d="m45.56 60.245-20.492 9.316-4.7392 13.044a5.2913 5.2913 0 0 0 3.1668 6.784 5.2913 5.2913 0 0 0 6.7766-3.1668l3.2185-8.8656 14.358-6.5256h17.495v35.079h25.209a5.2913 5.2913 0 0 0 5.2928-5.2928 5.2913 5.2913 0 0 0-5.2928-5.2929h-14.631v-35.079z"/>
 <path d="m49.643 63.641-33.293 86.656c-1.0474 2.7274 0.31393 5.7876 3.041 6.836 2.728 1.0472 5.7884-0.31522 6.8359-3.043l18.676-48.609v4.5703l10.586-0.4043v-2.3125l15.324-39.898zm5.8457 50.545-10.586 0.40623v24.402l-9.0801 15.982c-1.4426 2.5404-0.55339 5.7692 1.9863 7.2129 2.5417 1.4465 5.7749 0.55691 7.2188-1.9863l10.461-18.418z"/>
 <path d="m135.89 148.54a48.109 11.551 0 0 0-7.2715 0.13682l4.7715 6.4941 14.061-0.336 4.3106 4.414-26.172 7.9883-4.625-5.5703 7.5762-5.4356-5.3496-7.2812a48.109 11.551 0 0 0-35.41 11.141 48.109 11.551 0 0 0 48.109 11.551 48.109 11.551 0 0 0 48.109-11.551 48.109 11.551 0 0 0-48.109-11.551zm-9.1719 0.21279a48.109 11.551 0 0 0-0.5 0.0227 48.109 11.551 0 0 1 0.5-0.0227zm-3.0058 0.16403a48.109 11.551 0 0 0-0.46289 0.0302 48.109 11.551 0 0 1 0.46289-0.0302z"/>
 <path d="m80.892 109.09a27.521 27.521 0 0 1-22.488 11.656" fill="none" stroke="#000" stroke-width="4.5"/>
 <path d="m97.255 105.98-3.6523 2.6875 29.592 40.279a48.109 11.551 0 0 1 2.3574-0.1406 48.109 11.551 0 0 1 2.5586-0.11716 48.109 11.551 0 0 1 0.50976-0.0189z"/>
</svg>