<svg width="200" height="200" version="1.1" xmlns="http://www.w3.org/2000/svg">
 <path d="m94.267 155.66c-21.543 0-42.928-3.6539-63.231-10.783-5.7168-14.24-8.6638-29.468-8.6638-44.84 0-15.384 2.9516-30.624 8.6958-44.893 20.314-7.1438 41.692-10.795 63.225-10.795 21.543 0 42.928 3.6539 63.231 10.783 5.7168 14.24 8.6638 29.468 8.6638 44.84 0 15.384-2.9516 30.624-8.6958 44.893-20.314 7.1438-41.692 10.795-63.225 10.795z" fill="none" stroke="#000" stroke-width="10"/>
 <path d="m127.02 145.12c-17.503 0-34.879-2.962-51.375-8.7414-4.6449-11.544-7.0393-23.889-7.0393-36.35 0-12.471 2.3981-24.825 7.0653-36.393 16.505-5.7912 33.874-8.7507 51.37-8.7507 17.503 0 34.879 2.962 51.375 8.7414 4.6449 11.544 7.0393 23.889 7.0393 36.35 0 12.471-2.3982 24.825-7.0653 36.393-16.505 5.7912-33.874 8.7506-51.37 8.7506z" fill="none" stroke="#000" stroke-width="5"/>
 
<g fill="none" stroke="#999" stroke-width="3">
  <path d="m0 16v-16h16"/>
  <path d="m200 16v-16h-16"/>
  <path d="m0 184v16h16"/>
  <path d="m200 184v16h-16"/>
 </g></svg>