<svg width="200" height="200" version="1.1" xmlns="http://www.w3.org/2000/svg">
 <g fill="none" stroke="#999" stroke-width="3">
  <path d="m0 16v-16h16"/>
  <path d="m200 16v-16h-16"/>
  <path d="m0 184v16h16"/>
  <path d="m200 184v16h-16"/>
 </g>
 <g>
  <path d="m91.691 140.58-15.361-13.353-18.404 21.171 26.869 26.185 9.8267-12.896-11.081-11.731z"/>
  <circle cx="100" cy="47.265" r="21.123"/>
  <path d="m122.03 114.62v-16.102h2.0718l17.302 14.912 10.075-8.7579-27.103-29.325a7.9 7.9 23.628 0 0-5.8016-2.538h-37.156a7.9 7.9 156.37 0 0-5.8016 2.538l-27.103 29.325 10.075 8.7579 17.302-14.912h2.0718v16.102z"/>
  <path d="m108.31 140.58 15.361-13.353 18.404 21.171-26.869 26.185-9.8267-12.896 11.081-11.731z"/>
 </g>
</svg>