<svg width="200" height="200" version="1.1" xmlns="http://www.w3.org/2000/svg">
 <g fill="none">
  <g stroke="#999" stroke-width="3">
   <path d="m0 16v-16h16"/>
   <path d="m200 16v-16h-16"/>
   <path d="m0 184v16h16"/>
   <path d="m200 184v16h-16"/>
  </g>
  <g stroke="#000">
   <path d="m30.787 30.787h138.43v138.43h-138.43z" stroke-width="5"/>
   <g stroke-linecap="round">
    <path d="m63.983 169.21c2.1893-9.5771 4.8983-19.304 4.1748-29.223-0.66963-5.501-2.1426-11.044-5.3329-15.656-5.0897-7.5604-10.91-15.058-12.803-24.185-1.6923-8.0414-1.0331-16.581 1.747-24.305 3.2576-8.448 9.9393-15.354 17.818-19.674 6.9143-3.7261 14.594-6.3072 22.513-6.3512 8.4634-0.24745 17.252 0.80438 24.693 5.1251 8.0081 4.6017 14.592 11.524 19.327 19.415 2.1433 3.8489 4.0655 7.9393 4.8591 12.297 0.19241 2.4812-1.0652 4.8302-1.0057 7.2811 1.3578 3.6594 3.3966 7.039 5.047 10.575 1.6827 3.5312 3.6319 6.9526 5.0514 10.6-0.24563 1.8648-3.2755 1.4646-4.5744 2.5807-2.4753 1.0974-3.9949 3.8412-3.5012 6.5274 0.0611 0.58193 0.16318 1.1585 0.26955 1.7335" stroke-width="5"/>
    <path d="m122.78 169.21c0.19381-4.532-0.0842-9.1546 0.975-13.596 1.0863-3.6643 4.8027-6.3002 8.6285-6.0807 3-0.17154 6.0487 0.32927 9.0133-0.19344 2.1394-0.87192 3.1082-3.8253 1.7553-5.7555-0.95091-1.999-0.93999-4.1546-0.87779-6.3207-0.0389-1.5572-0.0899-3.1142-0.13957-4.6711" stroke-width="5"/>
    <path d="m143.8 131.72c-1.8022-0.82321-5.7119-0.59245-4.2472-3.6546 0.87868-1.5526 3.052-1.5254 4.618-1.5055" stroke-width="4"/>
   </g>
  </g>
 </g>
</svg>