<svg width="200" height="200" version="1.1" xmlns="http://www.w3.org/2000/svg">
 <path d="m18.354 33.635v132.73h163.29v-132.73h-163.29zm120.09 10.689a33.599 33.599 0 0 1 32.291 33.566 33.599 33.599 0 0 1-33.6 33.6 33.599 33.599 0 0 1-22.578-8.7832 33.599 33.599 0 0 0 1.3047 0.09375 33.599 33.599 0 0 0 33.6-33.6 33.599 33.599 0 0 0-11.018-24.877zm-62.809 23.684a25.636 25.636 0 0 1 25.637 25.637 25.636 25.636 0 0 1-25.637 25.635 25.636 25.636 0 0 1-25.635-25.635 25.636 25.636 0 0 1 25.635-25.637zm-20.383 55.191h7.2949a13.453 13.453 0 0 0 13.088 10.486 13.453 13.453 0 0 0 13.088-10.486h7.2969c13.196 0 23.82 10.624 23.82 23.82v14.383h-88.408v-14.383c0-13.196 10.624-23.82 23.82-23.82z" stroke-width="5"/>
 <g fill="none" stroke="#999" stroke-width="3">
  <path d="m0 16v-16h16"/>
  <path d="m200 16v-16h-16"/>
  <path d="m0 184v16h16"/>
  <path d="m200 184v16h-16"/>
 </g>
</svg>