<svg width="200" height="200" version="1.1" xmlns="http://www.w3.org/2000/svg">
 <g fill="none" stroke="#999" stroke-width="3">
  <path d="m0 16v-16h16"/>
  <path d="m200 16v-16h-16"/>
  <path d="m0 184v16h16"/>
  <path d="m200 184v16h-16"/>
 </g>
 <path d="m90.107 42.079c-3.9953 5.7498-9.1516 17.249-12.641 29.405-3.4891 12.156-5.312 24.968-6.6353 35.834-1.3233 10.866-2.1468 19.782 2.7605 24.24 4.9073 4.4589 15.544 4.4589 26.183 4.4589 10.639 0 21.275 0 26.183-4.4589 4.9074-4.4589 4.0838-13.375 2.7606-24.24-1.3233-10.866-3.1461-23.678-6.6352-35.834-3.4892-12.156-8.6454-23.655-12.641-29.405-3.9953-5.7498-6.8307-5.7498-9.6671-5.7498-2.8363 0-5.6718 0-9.6671 5.7498z"/>
 <path d="m93.838 116.95c0.0023 0.0609 0.0098 0.12013 0.0098 0.18164v39.938c0 2.3207-1.6799 4.2338-3.8945 4.5977l-7.2344 1.1875v3.0371h34.109v-3.0371l-7.2344-1.1875c-2.2146-0.36383-3.8926-2.2769-3.8926-4.5977v-39.938c0-0.0615 7e-3 -0.12071 0.01-0.18164z"/>
 <path d="m66.826 152.54h-50.936v-105.08h50.936" fill="none" stroke="#000" stroke-width="5"/>
 <path d="m133.17 47.458h50.936v105.08h-50.936" fill="none" stroke="#000" stroke-width="5"/>
</svg>