<svg width="200" height="200" version="1.1" xmlns="http://www.w3.org/2000/svg">
 <g fill="none">
  <g stroke="#999" stroke-width="3">
   <path d="m0 16v-16h16"/>
   <path d="m200 16v-16h-16"/>
   <path d="m0 184v16h16"/>
   <path d="m200 184v16h-16"/>
  </g>
  <g stroke="#000" stroke-width="5">
   <path d="m116.1 67.161c6.1661-0.82894 12.623-1.9586 18.72-0.11434 7.1122 2.3796 13.321 7.8705 15.753 15.065 1.8494 5.5946 1.8141 11.689 0.78593 17.439-1.1445 5.4593-4.2588 10.52-8.5879 14.03-2.2222 1.7157-4.7078 3.4286-7.6402 3.3881-5.1848 0.55945-10.701 0.52104-15.419 3.0241-4.4884 2.6386-6.4233 7.8296-7.5384 12.656-1.3662 6.0428-2.2757 12.355-1.3206 18.529 1.2208 5.7362 5.0152 10.732 9.6757 14.176 4.0565 3.0007 9.1132 4.4382 14.137 4.2511 6.1161 0.2642 12.363-2.3411 16.218-7.1382 2.0001-2.835 2.4106-6.4104 3.4502-9.6477 3.1471-11.086 5.0885-22.585 9.7005-33.206 1.677-3.5291 3.5967-6.9372 5.2033-10.502 3.7759-7.6995 10.192-14.044 12.422-22.488 2.6848-9.9709 0.32902-20.542-3.4918-29.887-3.5749-8.6745-9.3562-16.675-17.45-21.628-7.5477-4.8033-16.399-7.6982-25.392-7.5628-10.59-0.09693-21.63 2.2729-30.139 8.8735-5.8561 4.6898-10.274 11.375-11.517 18.842-1.5843 8.7543-0.1596 18.082 4.0961 25.904 3.1784 5.5601 7.7396 10.313 13.274 13.558 2.0076 1.2482 4.0654 2.4131 6.1195 3.5825"/>
   <path d="m60.124 61.601a85.66 85.66 0 0 1 9.0888 38.399 85.66 85.66 0 0 1-9.0888 38.399"/>
   <path d="m38.155 72.618a61.084 61.084 0 0 1 6.4809 27.382 61.084 61.084 0 0 1-6.4809 27.382"/>
   <path d="m15.619 83.92a35.872 35.872 0 0 1 3.8058 16.08 35.872 35.872 0 0 1-3.8074 16.083"/>
  </g>
 </g>
</svg>