<svg width="200" height="200" version="1.1" xmlns="http://www.w3.org/2000/svg">
 <g fill="none" stroke="#999" stroke-width="3">
  <path d="m0 16v-16h16"/>
  <path d="m200 16v-16h-16"/>
  <path d="m0 184v16h16"/>
  <path d="m200 184v16h-16"/>
 </g>
 <path d="m55.759 54.181c-8.2014 7.8547-16.426 15.686-24.613 23.555-1.886 1.9385-2.7197 4.6921-2.5605 7.359 0.01339 6.7726-0.02693 13.547 0.02041 20.318 0.18948 3.4744 3.3188 6.4487 6.7989 6.4591 3.4791 0.16971 6.7577-2.6439 7.1244-6.1062 0.12118-2.5603 0.02595-5.1297 0.05624-7.6938v-11.922l9.6426-9.2227v42.854c-2.9622 8.4401-5.9245 16.88-8.8867 25.32-6.5503 6.607-13.118 13.197-19.657 19.815-2.3784 2.539-2.3622 6.8551 0.03515 9.3762 2.2836 2.6318 6.5839 3.0541 9.3393 0.92458 1.6193-1.396 3.0445-3.0056 4.5776-4.4963 5.9565-6 11.913-12 17.869-18 3.3743-9.6159 6.7487-19.232 10.123-28.848 0.0061 17.155-0.01214 34.311 0.0091 51.466 0.10015 3.478 3.1527 6.5305 6.6307 6.6307 3.4753 0.25892 6.8249-2.4718 7.2796-5.9249 0.1653-2.1317 0.04301-4.278 0.08066-6.4161v-70.359c2.5417 2.3973 5.0236 4.8614 7.605 7.2143 2.7008 2.1948 7.0075 1.8769 9.354-0.69475 2.4623-2.4623 2.5821-6.7806 0.26434-9.378-2.5652-2.5622-5.2365-5.0205-7.844-7.5412l-9.3793-8.9577c-0.01404-5.7619 0.02857-11.525-0.02219-17.286-0.23625-5.4879-4.1404-10.552-9.3645-12.219-1.3883-0.46225-2.8514-0.69761-4.3144-0.69653-3.8302-0.02875-7.5538 1.7009-10.169 4.4698z"/>
 <g>
  <path d="m81.078 31.579a12.03 12.03 0 0 1-12.03 12.03 12.03 12.03 0 0 1-12.03-12.03 12.03 12.03 0 0 1 12.03-12.03 12.03 12.03 0 0 1 12.03 12.03z"/>
  <path d="m69.047 19.398c-6.7251 0-12.18 5.4546-12.18 12.18s5.4546 12.182 12.18 12.182 12.182-5.4566 12.182-12.182-5.4566-12.18-12.182-12.18zm0 0.30078c6.563 0 11.881 5.316 11.881 11.879s-5.3179 11.881-11.881 11.881-11.879-5.3179-11.879-11.881 5.316-11.879 11.879-11.879z"/>
 </g>
 <g>
  <path d="m135.57 46.076c-6.2835 0-11.342 5.0603-11.342 11.344v35.486h42.355v-35.486c0-6.2835-5.0583-11.344-11.342-11.344h-4.2656l-5.5703 6.8691-5.5703-6.8691z"/>
  <path d="m133.24 31.783c0.53244 3.856 2.2892 5.7907 4.329 7.8306 2.0394 2.0393 4.8053 3.1852 7.6894 3.1855h0.30078c6.2932 3.09e-4 11.395-5.1014 11.395-11.395v-3.323a0.60637 0.60637 0 0 0-0.60637-0.60637h-22.919l-3.9474 5.3571 1.1528 0.07042a3.1367 3.1367 0 0 0 2.4703-0.97569z"/>
  <path d="m156.48 24.875 1.8609-4.8046-29.197-4.1647 4.2784 8.9692z"/>
  <path d="m110.03 102.51h86.717" stroke="#000" stroke-width="10"/>
 </g>
</svg>