<svg width="200" height="200" version="1.1" xmlns="http://www.w3.org/2000/svg">
 <g fill="none">
  <g stroke="#999" stroke-width="3">
   <path d="m0 16v-16h16"/>
   <path d="m200 16v-16h-16"/>
   <path d="m0 184v16h16"/>
   <path d="m200 184v16h-16"/>
  </g>
  <g stroke="#000">
   <path d="m33.558 147.71h133.33" stroke-width="10"/>
   <g stroke-width="5">
    <path d="m153.41 124.41c-2.1965 0.4992-4.3937 0.99857-6.0917 1.473-1.698 0.47438-2.8964 0.92381-3.7954 1.2983-0.89894 0.37453-1.4982 0.67415-3.5456 1.7228-2.0474 1.0487-5.543 2.8464-10.661 4.5443-5.1184 1.6979-11.86 3.2958-18.501 4.5693-6.6416 1.2734-13.183 2.2222-20.299 2.1974-7.116-0.0248-14.806-1.0236-22.217-3.4733-7.4109-2.4497-14.542-6.3507-20.298-10.681s-10.136-9.0891-13.288-13.93-5.0723-9.7632-5.9084-13.298c-0.83606-3.5351-0.58638-5.6823 0.18774-7.3307 0.77412-1.6484 2.0726-2.797 3.1628-3.6312 1.0902-0.83415 1.9721-1.3539 2.6652-1.6973 0.6931-0.34336 1.1963-0.51003 1.7261-0.63081s1.0837-0.19524 1.7137-0.56349c0.63006-0.36825 1.3365-1.0303 5.5851-2.822 4.2486-1.7918 12.038-4.713 22.975-8.1462 10.936-3.4332 25.018-7.3781 33.208-9.5254 8.1899-2.1473 10.487-2.4968 12.085-2.5716 1.5982-0.07472 2.497 0.12502 3.1834 0.14976 0.68639 0.02474 1.1608-0.12506 1.5601-0.29983 0.39934-0.17477 0.72391-0.37451 3.3083-1.598s7.4282-3.4706 14.095-5.8426 15.156-4.8688 22.447-6.8413 13.383-3.4207 19.475-4.8687"/>
    <path d="m37.003 85.682c-0.5744 0.77419-1.1487 1.5482-1.2483 2.535-0.09962 0.98678 0.2749 2.1852 2.3228 3.6456 2.0479 1.4604 5.7681 3.1831 10.358 4.2109 4.5903 1.0277 10.05 1.3609 15.24 1.2153 5.1895-0.14562 10.108-0.7698 15.327-1.8435 5.2184-1.0737 10.736-2.5967 15.867-4.2572 5.131-1.6604 9.8749-3.4581 13.083-5.1933 3.2082-1.7352 4.8811-3.4081 6.067-4.6814 1.186-1.2734 1.8851-2.1472 2.3135-3.3855 0.4284-1.2382 0.58604-2.8415 0.47769-5.6172s-0.48287-6.7239-0.8575-10.673"/>
    <path d="m100.47 104.34v11.547h5.7203l-13.16 15.683-13.16-15.683h5.7203v-11.547h14.879z"/>
   </g>
  </g>
 </g>
</svg>