<svg width="200" height="200" version="1.1" xmlns="http://www.w3.org/2000/svg"><path d="m16.289 107.53c5.9171-5.6372 11.891-11.301 18.79-15.706 6.8989-4.4051 14.86-7.5218 23.065-7.5165 8.2035 0.0053 16.158 3.1305 23.054 7.5366 6.896 4.4061 12.872 10.065 18.801 15.686 5.9295 5.6216 11.905 11.28 18.801 15.686 6.896 4.4061 14.85 7.5313 23.054 7.5366 8.2053 5e-3 16.167-3.1113 23.065-7.5165 6.8988-4.4051 12.873-10.069 18.79-15.706" fill="none" stroke="#000" stroke-width="5"/><path d="m14.509 69.244h170.98" stroke="#000" stroke-width="5"/> 
<g fill="none" stroke="#999" stroke-width="3">
  <path d="m0 16v-16h16"/>
  <path d="m200 16v-16h-16"/>
  <path d="m0 184v16h16"/>
  <path d="m200 184v16h-16"/>
 </g></svg>