<svg width="200" height="200" version="1.1" xmlns="http://www.w3.org/2000/svg">
 <g fill="none" stroke="#999" stroke-width="3">
  <path d="m0 16v-16h16"/>
  <path d="m200 16v-16h-16"/>
  <path d="m0 184v16h16"/>
  <path d="m200 184v16h-16"/>
 </g>
 <g stroke="#000">
  <path d="m69.962 182.92v-12.673a16.274 16.274 75.345 0 0-2.0834-7.9669l-0.62715-1.1171a35.147 35.147 53.786 0 0-4.9923-6.8176l-6.8075-7.2699a10.771 10.771 68.441 0 1-2.9089-7.3624v-41.301c0-5.2231 4.2049-9.428 9.5975-9.428s9.5975 4.2049 9.5975 9.428v29.237l2e-6 -77.966c0-5.2231 4.2049-9.428 9.5975-9.428s9.5975 4.2049 9.5975 9.428l2e-6 57.627v-17.373c0-5.2231 4.2049-9.428 9.5975-9.428 5.3926 0 9.5974 4.2049 9.5974 9.428l1e-5 21.292v-17.903c0-5.2231 4.2049-9.428 9.5975-9.428s9.5975 4.2049 9.5975 9.428l-1e-5 21.61v-17.585c0-5.2231 4.2049-9.428 9.5974-9.428 5.3926 0 9.5975 4.2049 9.5975 9.428v40.118a11.966 11.966 109.58 0 1-2.6873 7.556l-8.1628 10.024a23.548 23.548 118.91 0 0-4.0495 7.3321l-1.0209 3.022a25.894 25.894 99.333 0 0-1.3622 8.2879v9.2271" fill="none" stroke-width="5"/>
  <path d="m81.334 40.254-6.3906 2.3574-4.6387 7.0078a12.737 12.737 0 0 0 9.3672 6.2598 12.737 12.737 0 0 0 10.67-3.623l0.58984-2.3613-2.7617-6.8691-6.8359-2.7715zm0 2.9961a3.7453 3.7453 0 0 1 1.873 0.50195 3.7453 3.7453 0 0 1 1.873 3.2441v2.8984h-7.4902v-2.8984a3.7453 3.7453 0 0 1 1.873-3.2441 3.7453 3.7453 0 0 1 1.8711-0.50195z"/>
  <path d="m71.736 69.512-38.701 2e-6v-45.592h133.93v45.592h-76.034" fill="none" stroke-width="5"/>
 </g>
</svg>