<svg width="200" height="200" version="1.1" xmlns="http://www.w3.org/2000/svg">
 <g fill="none" stroke="#999" stroke-width="3">
  <path d="m0 16v-16h16"/>
  <path d="m200 16v-16h-16"/>
  <path d="m0 184v16h16"/>
  <path d="m200 184v16h-16"/>
 </g>
 <path d="m22.152 86.652c-2.823 0-5.1113 2.2887-5.1113 5.1113v23.119c22.575 0 40.162-0.0148 57.873-0.0293-0.85011-1.4683-1.3457-3.1636-1.3457-4.9707 0-5.4932 4.5068-10 10-10h30.402a2.5 2.5 0 0 1 2.5 2.5 2.5 2.5 0 0 1-2.5 2.5h-30.402c-2.791 0-5 2.209-5 5 0 2.5989 1.9165 4.6907 4.4336 4.9668 4.608-5e-3 12.801 5.1e-4 16.406-8e-3 18.098-0.0418 22.176-0.12579 25.037-0.45703 2.8611-0.33123 4.5014-0.90877 5.7109-1.4277 1.2096-0.51896 1.9859-0.9781 2.8223-1.5254 0.83637-0.5473 1.7333-1.183 2.3633-1.8203 0.48668-0.49229 0.81474-0.98543 1.0918-1.4707 2.4595 4.8553 7.4424 7.9062 12.885 7.9063 7.9986 0 14.482-6.483 14.482-14.48 0-7.9975-6.4838-14.48-14.482-14.48-5.51-2e-6 -10.543 3.1259-12.977 8.0684-0.70326-1.0025-1.4267-2.0009-2.2969-2.8828-0.94864-0.96145-2.0722-1.7844-3.8574-2.6211-1.0702-0.50156-2.3796-1.0078-3.7832-1.5156-1.5954-0.57726-4.2721-1.0195-5.9688-1.0195h-32.133c-1.6966 0-4.4156 0.29303-6.0723 0.6582-4.8617 1.0717-9.5772 2.144-14.387 3.4277-5.7921 1.546-10.543 3.0779-15.148 4.3086-4.6056 1.2307-8.3213 1.9534-11.398 2.4531-3.0771 0.49968-5.2136 0.7221-6.5137 0.875-1.3 0.15285-1.8484 0.24752-2.3848 0.1582-0.53636-0.08932-1.1244-0.37032-1.9844-1.1191-0.85998-0.74883-2.0049-1.9723-2.5781-3.0703-0.57322-1.098-0.57226-2.0695-0.57226-3.043 0-2.8226-2.2883-5.1113-5.1113-5.1113z"/>
 <path d="m16.99 130.63h163.52v-32.509" fill="none" stroke="#000" stroke-width="5"/>
</svg>