<svg width="200" height="200" version="1.1" xmlns="http://www.w3.org/2000/svg">
 <g fill="none" stroke="#999" stroke-width="3">
  <path d="m0 16v-16h16"/>
  <path d="m200 16v-16h-16"/>
  <path d="m0 184v16h16"/>
  <path d="m200 184v16h-16"/>
 </g>
 <circle cx="59.551" cy="39.196" r="11.684"/>
 <path d="m39.73 57.37c-3.7212 0-6.7159 2.9964-6.7159 6.7177v56.572h9.0297v-43.2h4.7662v95.028h10.358v-58.123h4.7662v58.123h10.358v-95.028h4.7662v43.2h9.0297v-56.572c0-3.7212-2.9947-6.7177-6.7159-6.7177z"/>
 <path d="m94.065 53.616 92.767 92.767" fill="none" stroke="#000" stroke-width="5"/>
 <path d="m186.83 53.616-92.767 92.767" fill="none" stroke="#000" stroke-width="5"/>
 <circle cx="140.45" cy="39.196" r="11.684"/>
 <path d="m120.63 57.37c-3.7212 0-6.7159 2.9964-6.7159 6.7177v56.572h9.0297v-43.2h4.7662v95.028h10.358v-58.123h4.7662v58.123h10.358v-95.028h4.7662v43.2h9.0297v-56.572c0-3.7212-2.9947-6.7177-6.7159-6.7177z"/>
</svg>