<svg width="200" height="200" version="1.1" xmlns="http://www.w3.org/2000/svg">
 <g fill="none">
  <g stroke="#999" stroke-width="3">
   <path d="m0 16v-16h16"/>
   <path d="m200 16v-16h-16"/>
   <path d="m0 184v16h16"/>
   <path d="m200 184v16h-16"/>
  </g>
  <g stroke="#000">
   <path d="m149.76 105.39c-15.097 7.1123-31.963 11.088-49.757 11.088-17.794 0-34.66-3.9761-49.757-11.088" stroke-width="5"/>
   <g stroke-width="5">
    <path d="m52.512 83.004 11.543-19.218"/>
    <path d="m68.265 56.7 11.543-19.218"/>
    <path d="m36.741 109.31 11.543-19.218"/>
    <path d="m20.866 135.61 11.543-19.218"/>
    <path d="m147.55 83.004-11.543-19.218"/>
    <path d="m131.8 56.7-11.543-19.218"/>
    <path d="m163.32 109.31-11.543-19.218"/>
    <path d="m179.2 135.61-11.543-19.218"/>
   </g>
   <path d="m185.95 141.99a166.33 166.33 0 0 1-85.947 23.927 166.33 166.33 0 0 1-85.901-23.899" stroke-width="5"/>
   <path d="m117.56 28.142a33.521 33.521 0 0 1-17.56 4.9675 33.521 33.521 0 0 1-17.518-4.9418" stroke-width="5"/>
   <path d="m81.568 100.42-31.334 4.9628 18.7 25.739m49.498-30.702 31.334 4.9628-18.7 25.739" stroke-width="5"/>
  </g>
 </g>
</svg>