<svg width="200" height="200" version="1.1" xmlns="http://www.w3.org/2000/svg"><path d="m59.291 121.26 7.6543-2.8428 8.4972 19.394-6e-3 2e-3c-5.9243 1.8456-12.078 2.8531-18.354 2.9959-9.252-11.707-14.24-26.156-14.24-41.034s4.9882-29.327 14.24-41.034c6.2765 0.14279 12.43 1.1503 18.354 2.9959l6e-3 2e-3 -8.4972 19.394-7.6543-2.8428c-2.3611 6.9187-3.5654 14.177-3.5652 21.484-1.7e-4 7.307 1.2042 14.566 3.5652 21.484z"/><path d="m100.26 166.49c-24.659 0-49.032-5.2883-71.511-15.523-5.1594-16.544-7.7639-33.751-7.7639-51.056 0-17.336 2.6139-34.573 7.7484-51.113 22.313-10.069 46.524-15.286 71.015-15.286 24.659 0 49.032 5.2883 71.511 15.523 5.1594 16.544 7.7639 33.751 7.7639 51.056 0 17.336-2.6139 34.573-7.7484 51.113-22.313 10.069-46.524 15.286-71.015 15.286z" fill="none" stroke="#000" stroke-width="5"/> 
<g fill="none" stroke="#999" stroke-width="3">
  <path d="m0 16v-16h16"/>
  <path d="m200 16v-16h-16"/>
  <path d="m0 184v16h16"/>
  <path d="m200 184v16h-16"/>
 </g></svg>