<svg width="200" height="200" version="1.1" xmlns="http://www.w3.org/2000/svg">
 <g fill="none">
  <g stroke="#999" stroke-width="3">
   <path d="m0 16v-16h16"/>
   <path d="m200 16v-16h-16"/>
   <path d="m0 184v16h16"/>
   <path d="m200 184v16h-16"/>
  </g>
  <path d="m69.273 104.06v-61.454h61.454v61.454" stroke="#000" stroke-width="5"/>
  <path d="m82.756 42.602v-34.488h34.488v34.488" stroke="#000" stroke-width="5"/>
 </g>
 <g>
  <path d="m129.94 114.68 3.4892-2.739h-66.859l3.4892 2.739c8.5403 6.7038 19.083 10.347 29.94 10.347 10.857 0 21.4-3.6437 29.94-10.347z"/>
  <path d="m102.65 181.56c-0.87318 0.0766-1.755 0.12305-2.6484 0.12305-0.79252 0-1.5749-0.0411-2.3516-0.10157v5.0137c0.77804 0.0522 1.5605 0.0879 2.3516 0.0879 0.89196 0 1.7732-0.0451 2.6484-0.11133z"/>
  <path d="m72.084 162.3-4.1992 2.9395c3.5289 8.4697 10.313 15.254 18.783 18.783l2.9395-4.1992c-8.0973-3.006-14.517-9.4262-17.523-17.523z"/>
  <path d="m129.67 149.56c0.0604 0.77671 0.10156 1.559 0.10156 2.3516 0 0.89346-0.0464 1.7753-0.12305 2.6484h5.0117c0.0663-0.87526 0.11133-1.7565 0.11133-2.6484 0-0.79107-0.0356-1.5735-0.0879-2.3516z"/>
  <path d="m65.336 149.26c-0.06628 0.87527-0.11133 1.7565-0.11133 2.6484 0 0.79106 0.03565 1.5735 0.08789 2.3516h5.0137c-0.06043-0.7767-0.10156-1.559-0.10156-2.3516 0-0.89346 0.04642-1.7752 0.12305-2.6484z"/>
  <path d="m123.5 126.3-4.1894 2.9316c3.8296 3.2626 6.8204 7.4765 8.6055 12.285l4.1992-2.9395c-1.9585-4.7008-4.9194-8.8828-8.6152-12.277z"/>
  <circle cx="100" cy="151.91" r="9.0556"/>
 </g>
 <g fill="none" stroke="#000">
  <path d="m43.895 152.06h14.082" stroke-width="5"/>
  <path d="m76.808 151.91h46.385" stroke-width="5"/>
  <path d="m156.11 152.06h-14.082" stroke-width="5"/>
  <path d="m100 175.1v-46.385" stroke-width="5"/>
 </g>
 <g>
  <path d="m97.352 181.56c0.87318 0.0766 1.755 0.12305 2.6484 0.12305 0.79251 0 1.5749-0.0411 2.3516-0.10157v5.0137c-0.77804 0.0522-1.5605 0.0879-2.3516 0.0879-0.89196 0-1.7732-0.0451-2.6484-0.11133z"/>
  <path d="m127.92 162.3 4.1992 2.9395c-3.5289 8.4697-10.313 15.254-18.783 18.783l-2.9394-4.1992c8.0973-3.006 14.517-9.4262 17.523-17.523z"/>
  <path d="m76.5 126.3 4.1894 2.9316c-3.8296 3.2626-6.8204 7.4765-8.6055 12.285l-4.1992-2.9395c1.9585-4.7008 4.9194-8.8828 8.6152-12.277z"/>
  <path d="m99.852 208.02v-14.082" stroke-width="5"/>
  <path d="m97.352 193.93v4.9004h5v-4.9004h-5z"/>
 </g>
</svg>