<svg width="200" height="200" version="1.1" xmlns="http://www.w3.org/2000/svg">
 <g fill="none">
  <g stroke="#999" stroke-width="3">
   <path d="m0 16v-16h16"/>
   <path d="m200 16v-16h-16"/>
   <path d="m0 184v16h16"/>
   <path d="m200 184v16h-16"/>
  </g>
  <g stroke="#000" stroke-width="5">
   <path d="m166.42 18.856v113.14c-0.63858 11.174-4.5064 22.146-11.017 31.25-7.3087 10.22-17.776 17.944-29.237 23.093-4.5624 2.0496-9.2932 3.713-14.101 5.0912-2.7998 0.80258-5.641 1.5139-8.3034 2.6948-1.3089 0.58054-2.5685 1.2724-3.7606 2.0657-1.1921-0.79327-2.4516-1.4851-3.7606-2.0657-2.6625-1.1809-5.5036-1.8922-8.3034-2.6948-4.808-1.3782-9.5388-3.0416-14.101-5.0912-11.461-5.1489-21.929-12.873-29.237-23.093-6.5105-9.1043-10.378-20.076-11.017-31.25v-113.14z"/>
   <circle cx="100" cy="75.654" r="37.603"/>
   <circle cx="100" cy="124.19" r="37.603"/>
   <path d="m48.091 99.924h103.82"/>
  </g>
 </g>
</svg>