<svg width="200" height="200" version="1.1" xmlns="http://www.w3.org/2000/svg">
 <path d="m148.3 83.487v-24.062h-96.609v31.959h81.334l1.3991-10.98h-70.682v-10h72.508v3.7563z"/>
 <path d="m46.695 16.609v166.78h106.61v-45.623l-10-24.143v59.766h-86.609v-146.78h86.609v53.008l10 7.7396v-70.748z"/>
 <g fill="none" stroke="#000">
  <g stroke-width="10">
   <path d="m63.746 43.445h72.508"/>
   <path d="m63.746 139.32h72.508"/>
   <path d="m63.746 107.36h67.247"/>
  </g>
  <path d="m135.32 73.435-5.6113 44.039 12.969-5.373 22.611 54.59 14.783-6.123-22.611-54.59 12.967-5.3711z" stroke-width="5"/>
 </g>
 <path d="m133.39 68.782-0.55273 4.3359-6.1562 48.314 14.641-6.0664 22.611 54.59 19.402-8.0352-22.611-54.59 14.639-6.0644zm3.8555 9.3047 28.242 21.857-11.295 4.6797 22.609 54.59-10.162 4.2109-22.611-54.592-11.297 4.6797z"/>
 <g fill="none" stroke="#999" stroke-width="3">
  <path d="m0 16v-16h16"/>
  <path d="m200 16v-16h-16"/>
  <path d="m0 184v16h16"/>
  <path d="m200 184v16h-16"/>
 </g>
</svg>