<svg width="200" height="200" version="1.1" xmlns="http://www.w3.org/2000/svg">
 <path d="m100.26 33.512c-0.0854 0-0.1705 0.0039-0.25586 0.0039v62.949l33.656-33.656-20.371 5.459-1.2949-4.8301 33.566-8.9941-8.9941 33.566-4.8301-1.2949 5.459-20.371-33.656 33.656h75.482c1e-5 -0.03 2e-3 -0.05994 2e-3 -0.08984 0-17.336-2.6136-34.573-7.748-51.113-22.313-10.069-46.525-15.285-71.016-15.285z"/>
 <g stroke="#000" stroke-width="5">
  <path d="m99.744 166.49c24.659 0 49.032-5.2883 71.511-15.523 5.1594-16.544 7.7639-33.751 7.7639-51.056 0-17.336-2.6139-34.573-7.7484-51.113-22.313-10.069-46.524-15.286-71.015-15.286-24.659 0-49.032 5.2883-71.511 15.523-5.1594 16.544-7.7639 33.751-7.7639 51.056 0 17.336 2.6139 34.573 7.7484 51.113 22.313 10.069 46.524 15.286 71.015 15.286z" fill="none"/>
  <path d="m88.285 133.23-29.383 7.873 7.873-29.383" fill="none"/>
  <path d="m59.824 140.18 40.176-40.176"/>
 </g>
 
<g fill="none" stroke="#999" stroke-width="3">
  <path d="m0 16v-16h16"/>
  <path d="m200 16v-16h-16"/>
  <path d="m0 184v16h16"/>
  <path d="m200 184v16h-16"/>
 </g></svg>