<svg width="200" height="200" version="1.1" xmlns="http://www.w3.org/2000/svg">
 <g fill="none" stroke="#999" stroke-width="3">
  <path d="m0 16v-16h16"/>
  <path d="m200 16v-16h-16"/>
  <path d="m0 184v16h16"/>
  <path d="m200 184v16h-16"/>
 </g>
 <path d="m141.85 63.213c-2.4578 0.02725-4.9197 0.46912-7.1328 1.5762-5.2739 2.4804-8.9041 8.0602-8.9844 13.895-0.011 16.198 9e-5 32.396-4e-3 48.594h7.1836v39.549h27.564v-75.061h3.0801c2.9407 9.4285 5.8815 18.857 8.8223 28.285 3.5486-1.1068 7.0979-2.2135 10.646-3.3203-2.4132-7.7364-4.8271-15.473-7.2402-23.209-1.9889-6.2722-3.8144-12.603-6.1348-18.764-1.4163-3.7686-3.6537-7.3767-7.0801-9.6172-2.4995-1.7468-5.6527-1.9665-8.6055-1.916z"/>
 <path d="m132.96 39.999a15.281 15.281 0 0 0 15.281 15.281 15.281 15.281 0 0 0 15.281-15.281 15.281 15.281 0 0 0-15.281-15.281 15.281 15.281 0 0 0-15.281 15.281z" stroke-width="5"/>
 <path d="m88.727 80.785a11.273 11.273 0 0 0 11.273 11.273 11.273 11.273 0 0 0 11.273-11.273 11.273 11.273 0 0 0-11.273-11.273 11.273 11.273 0 0 0-11.273 11.273z" stroke-width="5"/>
 <path d="m89.714 100.32c-2.3992 0-3.255-1e-3 -4.3184 0.61719-1.0634 0.61843-2.3345 1.8549-3.5703 3.3027-1.2358 1.4478-2.4352 3.1068-3.6895 5.0352-1.2542 1.9284-2.5629 4.1263-4.4141 7.1719-1.8512 3.0456-4.2444 6.9381-6.6387 10.832h7.1836l13.904-15.908v55.457h23.658v-55.457l13.904 15.908h7.1836c-2.3942-3.8939-4.7875-7.7864-6.6387-10.832-1.8512-3.0456-3.1598-5.2435-4.4141-7.1719-1.2542-1.9284-2.4536-3.5873-3.6894-5.0352-1.2358-1.4478-2.507-2.6843-3.5703-3.3027s-1.9191-0.61719-4.3184-0.61719h-20.572z"/>
 <path d="m58.145 63.213c2.4578 0.02725 4.9197 0.46912 7.1328 1.5762 5.2739 2.4804 8.9041 8.0602 8.9844 13.895 0.011 16.198-9e-5 32.396 4e-3 48.594h-7.1836v39.549h-27.564v-75.061h-3.0801c-2.9407 9.4285-5.8815 18.857-8.8223 28.285-3.5486-1.1068-7.0979-2.2135-10.646-3.3203 2.4132-7.7364 4.8271-15.473 7.2402-23.209 1.9889-6.2722 3.8144-12.603 6.1348-18.764 1.4163-3.7686 3.6537-7.3767 7.0801-9.6172 2.4995-1.7468 5.6527-1.9665 8.6055-1.916z"/>
 <path d="m67.042 39.999a15.281 15.281 0 0 1-15.281 15.281 15.281 15.281 0 0 1-15.281-15.281 15.281 15.281 0 0 1 15.281-15.281 15.281 15.281 0 0 1 15.281 15.281z" stroke-width="5"/>
</svg>