<svg width="200" height="200" version="1.1" xmlns="http://www.w3.org/2000/svg">
 <g fill="none">
  <g stroke="#999" stroke-width="3">
   <path d="m0 16v-16h16"/>
   <path d="m200 16v-16h-16"/>
   <path d="m0 184v16h16"/>
   <path d="m200 184v16h-16"/>
  </g>
  <g stroke="#000">
   <g stroke-width="5">
    <path d="m175.19 90.997a75.739 75.284 0 0 1 0.55087 9.0634 75.739 75.284 0 0 1-0.5377 8.9548"/>
    <path d="m165.9 62.958a75.739 75.284 0 0 1 6.9731 16.598"/>
    <path d="m146.58 40.693a75.739 75.284 0 0 1 12.816 12.649"/>
    <path d="m120.28 27.524a75.739 75.284 0 0 1 16.665 6.8142"/>
    <path d="m79.7 172.59a75.739 75.284 0 0 1-16.702-6.8412"/>
    <path d="m109.02 174.81a75.739 75.284 0 0 1-9.0161 0.53532 75.739 75.284 0 0 1-9.0161-0.53532"/>
    <path d="m137 165.75a75.739 75.284 0 0 1-16.703 6.842"/>
    <path d="m159.45 146.7a75.739 75.284 0 0 1-12.818 12.68"/>
    <path d="m172.91 120.43a75.739 75.284 0 0 1-6.9669 16.653"/>
    <path d="m40.159 146.21a75.739 75.284 0 0 1-8.1771-79.265 75.739 75.284 0 0 1 68.018-42.167"/>
   </g>
   <path d="m65.89 10.381 35.5 12.921-28.94 24.283" stroke-width="5"/>
  </g>
 </g>
 <path d="m46.455 156.84 65.381-56.835-11.836-11.836-56.835 65.381z"/>
</svg>