<svg width="200" height="200" version="1.1" xmlns="http://www.w3.org/2000/svg">
 <path d="m6.4695 99.997h97.264" stroke="#000" stroke-width="5"/>
 <g fill="none" stroke="#000" stroke-width="5">
  <path d="m123.76 157.92c-21.062 0-41.879-4.6065-61.078-13.522-4.4067-14.411-6.6312-29.4-6.6312-44.474 0-15.101 2.2326-30.116 6.618-44.523 19.058-8.7709 39.737-13.315 60.655-13.315 21.062 0 41.879 4.6065 61.078 13.522 4.4067 14.411 6.6312 29.4 6.6312 44.474 0 15.101-2.2326 30.116-6.618 44.523-19.058 8.7709-39.737 13.315-60.655 13.315z"/>
  <path d="m72.78 82.423 30.432 17.578-30.432 17.57"/>
  <circle transform="scale(-1,1)" cx="-143.74" cy="100" r="6.8"/>
  <circle transform="scale(-1,1)" cx="-118.27" cy="100" r="6.8"/>
  <circle transform="scale(-1,1)" cx="-169.2" cy="100" r="6.8"/>
  <path d="m19.529 66.522v-17.414a12.882 12.993 0 0 1 12.882-12.993 12.882 12.993 0 0 1 12.882 12.993v17.414"/>
 </g>
 
<g fill="none" stroke="#999" stroke-width="3">
  <path d="m0 16v-16h16"/>
  <path d="m200 16v-16h-16"/>
  <path d="m0 184v16h16"/>
  <path d="m200 184v16h-16"/>
 </g></svg>