<svg width="200" height="200" version="1.1" xmlns="http://www.w3.org/2000/svg">
 <g fill="none" stroke="#999" stroke-width="3">
  <path d="m0 16v-16h16"/>
  <path d="m200 16v-16h-16"/>
  <path d="m0 184v16h16"/>
  <path d="m200 184v16h-16"/>
 </g>
 <path d="m137.27 14.802c-0.68266 3.9156-0.64316 7.9193-0.25209 11.864 0.20334 2.6278 0.79067 5.3142 0.14362 7.9264-0.46863 1.9258-1.5832 3.694-3.1516 4.9115-0.63923-2.8706-2.6897-5.3613-5.3617-6.5801-2.672-1.2696-5.8602-1.3449-8.6115-0.27704 2.5717 0.15988 4.9641 1.6702 6.326 3.84 1.3624 2.056 1.7233 4.5997 1.5403 7.0172-0.20144 2.7483-0.86959 5.4326-1.248 8.1575-0.59773 3.9113-0.98112 7.857-1.0956 11.813-2.8116-0.41865-5.3404-2.324-6.5153-4.9129-0.67264-1.45-0.93112-3.0888-0.73878-4.6755-1.3902 2.1193-1.8344 4.789-1.3246 7.2613 0.63303 3.2483 2.1834 6.2685 2.523 9.5832 0.26419 2.34-0.11755 4.6966-0.72968 6.9534-0.26721 0.99847-0.21354 2.2354-1.119 2.9236-1.0419 0.72662-2.4609 0.70156-3.608 0.24454 0.51572-1.2183 0.22148-2.6536-0.56753-3.6861-0.95849-1.2691-2.1024-2.3839-3.194-3.5368-0.47096-0.48242-0.94718-0.9597-1.4285-1.4318 0.88055 3.1677 1.7949 6.3363 2.3496 9.5811 0.73749 4.6153 0.67003 9.3164 1.4013 13.933 0.94783 6.4972 3.5492 12.852 7.9626 17.77 3.2853 3.6874 7.5737 6.5105 12.335 7.8704 1.8982 0.55846 3.8493 0.92319 5.8124 1.1607-0.97637-1.6901-2.2829-3.1737-3.8009-4.3975-2.0671-1.7637-4.6013-2.9206-6.5128-4.8734-1.7762-1.7851-2.4814-4.3488-2.5729-6.8062-0.0809-2.0917 0.26759-4.23-0.30349-6.2799-0.80126-3.0871-2.7813-5.8233-5.3665-7.6709 2.8441 0.2982 5.4804 2.0272 6.9078 4.5015-0.75353-5.0266 0.45826-10.302 3.2968-14.514 0.52391-0.78334 1.1012-1.531 1.728-2.2349-0.11528 4.0173-0.1183 8.0414 0.1028 12.055 0.14627 2.5219 0.69823 5.0528 1.9148 7.2844 0.17915 0.25474 0.56655 1.2725 0.53076 0.47766 0.28233-2.9829 0.29556-5.9808 0.28044-8.9742 3e-3 -2.628 0.19427-5.2944 1.0739-7.7921 0.94783-2.807 2.276-5.4892 2.9232-8.3942 0.27137-1.137 0.4741-2.2902 0.60703-3.4515 0.84914 1.9695 1.004 4.174 0.67479 6.2781-0.28686 1.9873-0.67351 4.0057-0.33675 6.0142 0.46552 3.0649 1.8335 5.9203 3.4973 8.5081 0.31143 0.47486 0.63787 0.93978 0.97909 1.3937 0.27968-2.3436 1.1456-4.5834 2.3393-6.609 1.1947-2.0904 2.5032-4.2147 2.8619-6.639 0.5085-3.1677-0.0748-6.3664-0.47611-9.5105-0.46163-3.3056-0.96401-6.6055-1.4785-9.9033 0.83036 3.2425 2.4706 6.2515 4.658 8.7776 1.3502 1.6173 2.7612 3.3878 3.0061 5.5552 0.16403 1.6306 0.0461 3.2733 0.0677 4.909-4e-3 3.767-0.27326 7.5501-1.1159 11.23 0.0782 0.0854 0.539-0.54588 0.76667-0.73542 1.0391-1.1314 2.189-2.161 3.1745-3.3403 0.67329-0.80939 1.0305-1.8651 0.93351-2.9177-0.0941-1.1596-0.17764-2.3621 0.25625-3.4707 0.57687-1.6685 1.966-3.0209 3.6409-3.5714-0.94858 1.3912-1.0462 3.2528-0.36548 4.7772 0.73032 1.6994 1.7068 3.379 1.7304 5.2808 0.034 2.4691-1.3435 4.6168-2.1267 6.878-0.59251 1.7181-0.8674 3.5449-0.80806 5.3613 2.5881-0.75648 4.7508-2.7988 5.653-5.3399 0.44217 5.6552-0.79049 11.407-3.4151 16.429-2.4005 4.6296-5.8845 8.6994-10.113 11.755 4.5203-0.53877 9.0146-1.8529 12.858-4.3456 5.9204-3.7966 10.282-9.7705 12.59-16.373 1.9539-5.5682 2.5208-11.62 1.6116-17.452-0.92489 2.6354-3.1677 4.7639-5.8574 5.5267 0.3549-1.7593 0.29405-3.5676 0.0601-5.3378-0.14211-1.083 8e-3 -2.1887 0.42447-3.1969 1.5408-3.8258 2.3079-8.0064 1.8734-12.127-0.38634-4.164-2.0779-8.0358-3.6806-11.848-0.60265-1.4367-1.2034-2.8741-1.8036-4.3119 0.36888 2.6073 0.65231 5.2362 0.65767 7.8719-4e-3 1.9022-0.44349 3.8486-1.5579 5.4182-0.97614 1.4227-2.3718 2.5474-3.9572 3.2238 0.45857-5.1772-0.0695-10.401-1.2093-15.459-1.1193-5.0028-2.6632-10.036-5.636-14.276-1.2992-1.85-2.8517-3.5219-4.601-4.9539 1.8358 2.6205 2.1808 6.3332 0.50422 9.116-0.15458 0.26041-0.35414 0.6929-0.43555 0.1372-1.0386-2.5094-2.0177-5.0694-3.461-7.3822-1.3826-2.1634-3.2984-3.9504-4.4931-6.241-0.95924-1.7337-1.8984-3.5928-3.5721-4.7534-1.6186-1.1883-3.616-2.0212-4.7033-3.799-1.0178-1.6887-1.233-3.6951-1.6096-5.5914-0.093-0.53087-0.18028-1.0627-0.2623-1.5954z"/>
 <path d="m63.834 62.6c-0.37984 2.1787-0.35792 4.4063-0.14022 6.601 0.11301 1.4621 0.43994 2.9568 0.07975 4.4102-0.26079 1.0715-0.88093 2.0553-1.7536 2.7328-0.35565-1.5972-1.4965-2.983-2.9833-3.6612-1.4867-0.70639-3.2606-0.74831-4.7914-0.1542 1.4309 0.0892 2.762 0.92935 3.5198 2.1366 0.75806 1.1439 0.95883 2.5593 0.85704 3.9044-0.11225 1.5292-0.48386 3.0227-0.69441 4.5388-0.3326 2.1762-0.54588 4.3716-0.60956 6.5726-1.5644-0.23282-2.9714-1.293-3.6251-2.7335-0.37417-0.80682-0.5181-1.7186-0.41106-2.6014-0.77352 1.1791-1.0207 2.6646-0.73705 4.0402 0.35225 1.8073 1.2149 3.4878 1.4038 5.3321 0.14702 1.302-0.06539 2.6132-0.406 3.8688-0.14854 0.55555-0.11868 1.2438-0.62264 1.6267-0.57967 0.4043-1.3692 0.39035-2.0075 0.13607 0.28687-0.67785 0.12321-1.4765-0.31597-2.051-0.53329-0.70613-1.1698-1.3264-1.7771-1.9679-0.26192-0.26835-0.52698-0.53397-0.79484-0.79665 0.48994 1.7625 0.9987 3.5255 1.3073 5.3309 0.41034 2.5679 0.37266 5.1836 0.77964 7.7523 0.52736 3.615 1.9748 7.151 4.4304 9.8874 1.8279 2.0516 4.214 3.6224 6.8631 4.379 1.0562 0.31068 2.1417 0.51368 3.234 0.64585-0.54327-0.94039-1.2702-1.7659-2.1148-2.4468-1.1501-0.98128-2.5601-1.625-3.6237-2.7116-0.98827-0.99322-1.3806-2.4197-1.4315-3.787-0.04498-1.1638 0.14891-2.3536-0.16894-3.4941-0.44583-1.7176-1.5475-3.2401-2.9859-4.2681 1.5825 0.16592 3.0493 1.1279 3.8435 2.5046-0.41926-2.7968 0.25512-5.7319 1.8343-8.0757 0.2914-0.43589 0.6127-0.8519 0.96144-1.2435-0.06425 2.2352-0.06576 4.4742 0.05707 6.7074 0.08126 1.4032 0.3885 2.8114 1.0654 4.0531 0.09978 0.14173 0.31521 0.70805 0.29518 0.2657 0.15723-1.6597 0.16441-3.3277 0.1561-4.9932 0.0019-1.4623 0.10809-2.9458 0.5975-4.3355 0.52736-1.5618 1.2663-3.0542 1.6265-4.6705 0.1508-0.63262 0.26381-1.2742 0.33789-1.9204 0.47244 1.0958 0.55865 2.3224 0.37531 3.4931-0.1595 1.1057-0.37493 2.2288-0.18746 3.3463 0.2589 1.7053 1.0202 3.294 1.9459 4.7339 0.17348 0.26419 0.3549 0.52294 0.54478 0.77549 0.15572-1.304 0.63742-2.5502 1.3016-3.6772 0.66474-1.1632 1.3928-2.3451 1.5924-3.694 0.28309-1.7625-0.04158-3.5422-0.26494-5.2916-0.25701-1.8393-0.53635-3.6753-0.82261-5.5102 0.46201 1.8041 1.3747 3.4783 2.5917 4.8838 0.75126 0.89983 1.5363 1.885 1.6726 3.0909 0.09109 0.90727 0.02646 1.8213 0.03779 2.7313-0.0021 2.096-0.15194 4.2009-0.62086 6.2482 0.04347 0.0476 0.29972-0.30387 0.4266-0.40921 0.57816-0.62952 1.2179-1.2024 1.7663-1.8585 0.37455-0.45033 0.57332-1.0377 0.51938-1.6234-0.05216-0.6452-0.09902-1.3142 0.14249-1.9311 0.32088-0.92832 1.0938-1.6808 2.0258-1.9871-0.52781 0.77409-0.58212 1.8099-0.20334 2.6581 0.40634 0.94553 0.94964 1.88 0.96276 2.9382 0.0189 1.3738-0.74755 2.5687-1.1833 3.8268-0.32957 0.95596-0.48261 1.9724-0.44961 2.983 1.44-0.42089 2.6434-1.5573 3.1454-2.9711 0.24605 3.1465-0.43982 6.3468-1.9002 9.1408-1.3356 2.5759-3.2741 4.8403-5.6267 6.5406 2.5151-0.29972 5.0157-1.0309 7.1542-2.4179 3.2941-2.1124 5.7208-5.4363 7.0049-9.1101 1.0871-3.0982 1.4026-6.4654 0.89673-9.7102-0.51462 1.4663-1.7625 2.6506-3.259 3.075 0.19767-0.97886 0.16365-1.985 0.03401-2.9699-0.07899-0.60261 0.0038-1.2178 0.23622-1.7788 0.85735-2.1286 1.2841-4.4547 1.0424-6.7472-0.21506-2.3169-1.1562-4.4711-2.0479-6.5921-0.33524-0.79941-0.66962-1.5992-1.0035-2.3991 0.20523 1.4507 0.36284 2.9134 0.36586 4.3799-2e-3 1.0583-0.2468 2.1414-0.8668 3.0147-0.54312 0.79158-1.3197 1.4174-2.2018 1.7937 0.25512-2.8806-0.03855-5.7868-0.67287-8.6013-0.62275-2.7836-1.4818-5.5842-3.1358-7.9432-0.72287-1.0293-1.5867-1.9595-2.5599-2.7563 1.0214 1.4581 1.2134 3.5238 0.28044 5.0722-0.08617 0.14476-0.19691 0.38551-0.24227 0.0764-0.57793-1.3962-1.1227-2.8206-1.9257-4.1074-0.76932-1.2037-1.8353-2.198-2.5-3.4724-0.53371-0.96465-1.0562-1.9991-1.9875-2.6448-0.90059-0.66115-2.0119-1.1246-2.6169-2.1137-0.56629-0.93959-0.68606-2.056-0.89556-3.1111-0.05178-0.29556-0.10016-0.59127-0.14589-0.88766z"/>
 <path d="m15.373 93.07c-0.18671 1.0714-0.17613 2.1668-0.06879 3.246 0.05556 0.71898 0.21619 1.454 0.03931 2.1687-0.12813 0.52689-0.43321 1.0107-0.8623 1.3438-0.17499-0.78542-0.73591-1.4669-1.467-1.8003-0.73107-0.34734-1.6034-0.36813-2.3561-0.0756 0.70363 0.0438 1.3582 0.45698 1.7308 1.0506 0.37266 0.56251 0.4715 1.2585 0.42142 1.9199-0.05518 0.75193-0.23811 1.4864-0.34129 2.2319-0.16365 1.0702-0.26835 2.1497-0.29972 3.232-0.76928-0.11452-1.4612-0.63587-1.7826-1.3442-0.18406-0.39674-0.25474-0.8451-0.2022-1.2793-0.38037 0.57986-0.50188 1.3103-0.36246 1.9867 0.1731 0.88876 0.59739 1.7151 0.69029 2.622 0.07219 0.64021-0.03024 1.285-0.19956 1.9025-0.07295 0.27326-0.05858 0.61161-0.30614 0.7999-0.28498 0.19881-0.67329 0.192-0.98714 0.0669 0.14098-0.33335 0.06047-0.72605-0.15534-1.0085-0.2623-0.34734-0.57521-0.65223-0.87387-0.96767-0.12888-0.13191-0.25928-0.26268-0.39088-0.39175 0.24076 0.86668 0.49111 1.7336 0.64286 2.6214 0.20183 1.2628 0.18331 2.549 0.3834 3.8122 0.25928 1.7776 0.97107 3.5164 2.1786 4.862 0.89885 1.0089 2.0722 1.7813 3.3748 2.1534 0.51934 0.1527 1.0532 0.25247 1.5903 0.31748-0.26721-0.46242-0.6246-0.86834-1.0399-1.2032-0.56557-0.48257-1.2589-0.79911-1.7819-1.3334-0.48597-0.48839-0.67892-1.1898-0.70394-1.8622-0.02268-0.5723 0.07332-1.1573-0.08315-1.7182-0.21921-0.84465-0.76097-1.5933-1.4683-2.0988 0.77817 0.0816 1.4995 0.55465 1.89 1.2316-0.20598-1.3753 0.12548-2.8186 0.90202-3.9712 0.14324-0.2143 0.30123-0.41889 0.47278-0.61145-0.03024 1.0991-0.03402 2.2001 0.02646 3.2983 0.04006 0.68999 0.19087 1.3825 0.52392 1.993 0.04876 0.0699 0.15496 0.34809 0.14513 0.13077 0.0771-0.81611 0.08088-1.6364 0.07672-2.4553 9.45e-4 -0.71906 0.05291-1.4486 0.29367-2.132 0.25928-0.76796 0.62272-1.5018 0.79979-2.2967 0.07408-0.31105 0.12964-0.62657 0.16592-0.94431 0.23244 0.53885 0.27477 1.142 0.18444 1.7177-0.07824 0.54376-0.18406 1.096-0.09222 1.6455 0.12737 0.83857 0.50166 1.6198 0.95686 2.3278 0.08504 0.13002 0.17461 0.25701 0.26797 0.38132 0.07635-0.6412 0.31332-1.254 0.64002-1.8082 0.32693-0.57196 0.68489-1.1532 0.78304-1.8165 0.13909-0.86668-0.0189-1.7418-0.13039-2.6021-0.12624-0.90444-0.26381-1.8073-0.40452-2.7096 0.22715 0.88716 0.67597 1.7104 1.2745 2.4016 0.36926 0.44247 0.75545 0.9269 0.8225 1.5199 0.04498 0.44614 0.01134 0.8956 0.0189 1.3431-1e-3 1.0306-0.07484 2.0657-0.30539 3.0725 0.02268 0.0227 0.1474-0.14929 0.20976-0.20107 0.28422-0.30955 0.5989-0.59127 0.86854-0.91393 0.18406-0.22148 0.28195-0.51028 0.2555-0.79828-0.02646-0.31748-0.04876-0.64626 0.06992-0.94956 0.15798-0.4565 0.53786-0.82651 0.99613-0.97716-0.25965 0.38067-0.28611 0.88996-0.10016 1.3071 0.19994 0.46496 0.467 0.92447 0.47342 1.4448 0.01134 0.67555-0.36775 1.2632-0.58186 1.8818-0.16214 0.47006-0.23736 0.9699-0.2211 1.4668 0.7081-0.20712 1.2998-0.76573 1.5467-1.461 0.12094 1.5472-0.21619 3.1209-0.93437 4.4948-0.65677 1.2667-1.61 2.3802-2.7668 3.2163 1.2368-0.1474 2.4664-0.50695 3.518-1.189 1.6198-1.0388 2.8131-2.6732 3.4445-4.4798 0.53458-1.5234 0.68969-3.1793 0.44096-4.7749-0.25323 0.72106-0.86672 1.3034-1.6026 1.5121 0.09713-0.48136 0.0805-0.9761 0.01512-1.4604-0.03893-0.29632 0.0024-0.59887 0.11603-0.8747 0.42157-1.0467 0.63144-2.1906 0.51254-3.3179-0.10583-1.1393-0.56852-2.1986-1.007-3.2416-0.16479-0.39307-0.3292-0.78637-0.49349-1.1797 0.10091 0.71335 0.17839 1.4326 0.1799 2.1538-1e-3 0.5204-0.12132 1.053-0.42626 1.4824-0.26721 0.38926-0.64894 0.69699-1.0827 0.88203 0.12548-1.4165-0.0189-2.8456-0.33071-4.2296-0.30614-1.3688-0.72866-2.746-1.542-3.906-0.35565-0.50616-0.78025-0.96355-1.2588-1.3554 0.50226 0.71697 0.59667 1.7328 0.13795 2.4941-0.04233 0.0714-0.09676 0.18973-0.11906 0.0378-0.28422-0.68658-0.55208-1.387-0.94696-2.0198-0.37829-0.5919-0.90244-1.0808-1.2293-1.7075-0.2623-0.47437-0.51942-0.98301-0.97731-1.3006-0.44285-0.32504-0.98937-0.55298-1.2869-1.0394-0.27855-0.46201-0.33751-1.011-0.44035-1.5298-0.02646-0.14513-0.04951-0.29065-0.07181-0.4365z"/>
 <path d="m146.98 130.36 32.536 18.785-32.536 18.785" fill="none" stroke="#000" stroke-width="5"/>
 <path d="m179.52 149.14h-165.19" fill="none" stroke="#000" stroke-width="5"/>
</svg>