<svg width="200" height="200" version="1.1" xmlns="http://www.w3.org/2000/svg">
 <g fill="none" stroke="#999" stroke-width="3">
  <path d="m0 16v-16h16"/>
  <path d="m200 16v-16h-16"/>
  <path d="m0 184v16h16"/>
  <path d="m200 184v16h-16"/>
 </g>
 <g stroke="#000">
  <path d="m124.25 162.18v-10.284a13.173 13.207 0 0 0-1.6864-6.4653l-0.50763-0.90656a28.449 28.522 0 0 0-4.041-5.5326l-5.5102-5.8996a8.7188 8.7412 0 0 1-2.3546-5.9747v-33.517c0-4.2386 3.4036-7.6509 7.7685-7.6509 4.3649 0 7.7685 3.4123 7.7685 7.6509v23.727-63.271c0-4.2386 3.4036-7.6509 7.7685-7.6509s7.7685 3.4123 7.7685 7.6509v46.765-14.098c0-4.2386 3.4036-7.6509 7.7685-7.6509s7.7685 3.4123 7.7685 7.6509l1e-5 17.279v-14.528c0-4.2386 3.4036-7.6509 7.7685-7.6509s7.7685 3.4123 7.7685 7.6509l-1e-5 17.537v-14.27c0-4.2386 3.4036-7.6509 7.7685-7.6509 4.365 0 7.7685 3.4123 7.7685 7.6509v32.556a9.686 9.7109 0 0 1-2.1752 6.1318l-6.6073 8.1349a19.061 19.11 0 0 0-3.2778 5.9501l-0.82638 2.4524a20.96 21.014 0 0 0-1.1026 6.7257v7.4879" fill="none" stroke-width="5"/>
  <path d="m133.45 46.408-5.1728 1.9131-3.7547 5.687a10.309 10.336 0 0 0 7.5821 5.0799 10.309 10.336 0 0 0 8.6366-2.9402l0.47744-1.9163-2.2354-5.5744zm0 2.4314a3.0315 3.0393 0 0 1 1.5161 0.40734 3.0315 3.0393 0 0 1 1.5161 2.6327v2.3521h-6.0628v-2.3521a3.0315 3.0393 0 0 1 1.5161-2.6327 3.0315 3.0393 0 0 1 1.5145-0.40734z"/>
  <path d="m58.78 64.718-25.746 1e-6v-36.004h133.93v36.004h-25.746" fill="none" stroke-width="5"/>
  <path d="m75.755 162.18v-10.284a13.173 13.207 0 0 1 1.6864-6.4653l0.50763-0.90656a28.449 28.522 0 0 1 4.041-5.5326l5.5102-5.8996a8.7188 8.7412 0 0 0 2.3546-5.9747v-33.517c0-4.2386-3.4036-7.6509-7.7685-7.6509-4.3649 0-7.7685 3.4123-7.7685 7.6509v23.727-63.271c0-4.2386-3.4036-7.6509-7.7685-7.6509s-7.7685 3.4123-7.7685 7.6509v46.765-14.098c0-4.2386-3.4036-7.6509-7.7685-7.6509s-7.7685 3.4123-7.7685 7.6509l-1e-5 17.279v-14.528c0-4.2386-3.4036-7.6509-7.7685-7.6509s-7.7685 3.4123-7.7685 7.6509l1e-5 17.537v-14.27c0-4.2386-3.4036-7.6509-7.7685-7.6509-4.365 0-7.7685 3.4123-7.7685 7.6509v32.556a9.686 9.7109 0 0 0 2.1752 6.1318l6.6073 8.1349a19.061 19.11 0 0 1 3.2778 5.9501l0.82638 2.4524a20.96 21.014 0 0 1 1.1026 6.7257v7.4879" fill="none" stroke-width="5"/>
  <path d="m66.55 46.408 5.1728 1.9131 3.7547 5.687a10.309 10.336 0 0 1-7.5821 5.0799 10.309 10.336 0 0 1-8.6366-2.9402l-0.47744-1.9163 2.2354-5.5744zm0 2.4314a3.0315 3.0393 0 0 0-1.5161 0.40734 3.0315 3.0393 0 0 0-1.5161 2.6327v2.3521h6.0628v-2.3521a3.0315 3.0393 0 0 0-1.5161-2.6327 3.0315 3.0393 0 0 0-1.5145-0.40734z"/>
  <path d="m74.317 64.718h51.365" fill="none" stroke-width="5"/>
 </g>
</svg>