<svg width="200" height="200" version="1.1" xmlns="http://www.w3.org/2000/svg">
 <g fill="none" stroke="#999" stroke-width="3">
  <path d="m0 16v-16h16"/>
  <path d="m200 16v-16h-16"/>
  <path d="m0 184v16h16"/>
  <path d="m200 184v16h-16"/>
 </g>
 <path d="m99.789 53.814-8.1582 8.1562v46.086a20 20 0 0 0-11.631 18.158 20 20 0 0 0 20 20 20 20 0 0 0 20-20 20 20 0 0 0-11.631-18.158v-13.777l-8.5801-8.5801 8.1289-8.1309-7.8652-7.8652 7.8125-7.8125-8.0762-8.0762zm0.21094 73.15a6.6672 6.6672 0 0 1 6.668 6.668 6.6672 6.6672 0 0 1-6.668 6.666 6.6672 6.6672 0 0 1-6.668-6.666 6.6672 6.6672 0 0 1 6.668-6.668z"/>
 <g fill="none" stroke="#000" stroke-width="5">
  <rect x="18.876" y="44.943" width="162.1" height="112.36"/>
  <path d="m119.55 87.952 61.422-43.008"/>
  <path d="m18.876 44.943 61.422 43.008"/>
 </g>
</svg>