<svg
   width="53.710388mm"
   height="53.710419mm"
   viewBox="0 0 53.710388 53.710419"
   version="1.1"
   id="svg20990"
   xml:space="preserve"
   xmlns:inkscape="http://www.inkscape.org/namespaces/inkscape"
   xmlns:sodipodi="http://sodipodi.sourceforge.net/DTD/sodipodi-0.dtd"
   xmlns="http://www.w3.org/2000/svg"
   xmlns:svg="http://www.w3.org/2000/svg"><sodipodi:namedview
     id="namedview20992"
     pagecolor="#ffffff"
     bordercolor="#000000"
     borderopacity="0.25"
     inkscape:showpageshadow="2"
     inkscape:pageopacity="0.0"
     inkscape:pagecheckerboard="0"
     inkscape:deskcolor="#d1d1d1"
     inkscape:document-units="mm"
     showgrid="false"
     showguides="false" /><defs
     id="defs20987" /><g
     inkscape:label="Layer 1"
     inkscape:groupmode="layer"
     id="layer1"
     transform="translate(-708.73445,-398.33645)"><path
       id="path35446"
       style="color:#000000;fill:#000000;stroke-linecap:square;-inkscape-stroke:none"
       d="m 726.69311,406.47286 v 2.70682 h -13.11083 v 29.83022 h 44.2495 v -29.83022 h -13.41985 v -2.70682 z m 1.45314,1.45315 h 14.81253 v 16.95297 0.72657 h 1.45315 v -0.72657 -3.26596 h 3.32434 v 4.36563 c 0,0.0633 -0.0724,0.32845 -0.37104,0.70487 -0.29856,0.37643 -0.79483,0.8526 -1.48828,1.38854 -1.21075,0.93574 -3.28764,2.12869 -5.72058,3.39463 -0.17622,-0.58503 -0.44692,-1.17244 -0.91829,-1.70326 -0.7851,-0.88411 -2.03725,-1.55029 -3.68556,-1.55029 -1.6483,0 -2.90201,0.66618 -3.68711,1.55029 -0.47137,0.53082 -0.74002,1.11823 -0.91623,1.70326 -2.43294,-1.26594 -4.50983,-2.45889 -5.72058,-3.39463 -0.69345,-0.53594 -1.18971,-1.01211 -1.48828,-1.38854 -0.29856,-0.37642 -0.37104,-0.6416 -0.37104,-0.70487 v -4.36563 h 3.32383 v 3.26596 0.72657 h 1.45314 v -0.72657 z m -13.11134,2.70681 h 11.6582 v 2.01383 h -7.96437 -0.72657 v 1.45314 h 0.72657 7.96437 v 2.14819 h -7.96437 -0.72657 v 1.45314 h 0.72657 7.96437 v 2.45928 h -4.77697 v 5.81825 c 0,0.58249 0.27569,1.09287 0.68523,1.6092 0.40955,0.51634 0.98397,1.05197 1.7384,1.63505 1.50887,1.16615 3.74356,2.51421 6.79286,4.03696 l 1.0511,0.52555 v -1.17616 c 0,-0.50207 0.23717,-1.28108 0.76946,-1.8805 0.5323,-0.59943 1.32621,-1.06299 2.59933,-1.06299 1.27312,0 2.06755,0.46356 2.59984,1.06299 0.5323,0.59942 0.76947,1.37843 0.76946,1.8805 v 1.17616 l 1.05058,-0.52555 c 3.04931,-1.52275 5.28452,-2.87081 6.79339,-4.03696 0.75444,-0.58308 1.32833,-1.11871 1.73788,-1.63505 0.40954,-0.51633 0.68574,-1.02671 0.68574,-1.6092 v -5.81825 h -4.77748 v -2.45928 h 8.27391 0.72657 v -1.45314 h -0.72657 -8.27391 v -2.14819 h 8.27391 0.72657 v -1.45314 h -0.72657 -8.27391 v -2.01383 h 11.96722 v 26.92393 h -41.34424 z" /><g
       stroke="#999999"
       stroke-width="3"
       id="g25938"
       transform="matrix(0.26458333,0,0,0.26458333,709.13131,398.73331)"
       style="fill:none"
       inkscape:export-filename="Cubir.svg"
       inkscape:export-xdpi="96"
       inkscape:export-ydpi="96"><g
         id="g26000"><path
           d="M 0,16 V 0 h 16"
           id="path25930" /><path
           d="M 200,16 V 0 h -16"
           id="path25932" /><path
           d="m 0,184 v 16 h 16"
           id="path25934" /><path
           d="m 200,184 v 16 h -16"
           id="path25936" /></g></g><g
       id="path35856"
       style="fill:#000000"><path
         style="color:#000000;fill:#000000;stroke-width:1.453;-inkscape-stroke:none"
         d="m 751.73995,403.60872 -32.06584,32.06581"
         id="path35862" /><path
         style="color:#000000;fill:#000000;-inkscape-stroke:none"
         d="m 751.22656,403.0957 -32.0664,32.06446 1.02734,1.02734 32.06641,-32.06445 z"
         id="path35864" /></g><g
       id="path35858"
       style="fill:#000000"><path
         style="color:#000000;fill:#000000;stroke-width:1.453;-inkscape-stroke:none"
         d="m 719.67411,403.60872 32.06584,32.06581"
         id="path35868" /><path
         style="color:#000000;fill:#000000;-inkscape-stroke:none"
         d="m 720.1875,403.0957 -1.02734,1.02735 32.0664,32.06445 1.02735,-1.02734 z"
         id="path35870" /></g></g></svg>