<svg width="200" height="200" version="1.1" xmlns="http://www.w3.org/2000/svg">
 <g fill="none" stroke="#999" stroke-width="3">
  <path d="m0 16v-16h16"/>
  <path d="m200 16v-16h-16"/>
  <path d="m0 184v16h16"/>
  <path d="m200 184v16h-16"/>
 </g>
 <path d="m162.72 54.166-10.822 1.9512-7.3574 13.359-10.611 1.1836v36.961l52.732 5.5137v-48.352l-15.662 1.7441-8.2793-12.361zm-5.3496 21.311a10.189 13.367 0 0 1 10.189 13.367 10.189 13.367 0 0 1-10.189 13.367 10.189 13.367 0 0 1-10.188-13.367 10.189 13.367 0 0 1 10.188-13.367z"/>
 <path d="m44.044 16.779c2.2163 0 4.4315 0 7.7774 0.64936 3.3459 0.64937 7.822 1.9477 11.708 3.6458 3.8861 1.6981 7.1819 3.7954 10.727 6.592 3.5455 2.7966 7.3406 6.2921 10.486 10.687s5.6426 9.6878 7.0905 14.831 1.8474 10.137 2.0471 13.982 0.1997 6.5416 0.1997 8.2395 0 2.397 0.19083 3.0766 0.5718 1.3394 0.99146 2.0663c0.41966 0.72688 0.87798 1.5207 3.3343 4.961 2.4563 3.4403 6.9102 9.527 9.2869 12.895s2.6763 4.0172 2.6759 4.6785c-3.8e-4 0.6613-0.3 1.3354-2.0599 2.3089s-4.9807 2.2468-6.6415 3.0837c-1.6608 0.83694-1.7608 1.2367-1.7207 1.792 0.0401 0.55529 0.2197 1.2667 0.98205 2.516 0.76235 1.2493 2.1039 3.0322 2.7006 4.2002 0.59673 1.168 0.44703 1.7169-0.80114 2.6028-1.2482 0.88596-3.5951 2.1094-4.6813 2.9965-1.0862 0.88709-0.91138 1.4364 0.07531 2.1352 0.98669 0.69882 2.7843 1.5477 3.5826 2.3343 0.79832 0.78658 0.59858 1.5106-0.18783 2.4966-0.7864 0.98591-2.1596 2.2343-2.8713 3.2335-0.71167 0.99925-0.76161 1.7483-0.64919 4.6947 0.11242 2.9464 0.38706 8.0897-0.33704 11.435-0.7241 3.3453-2.4469 4.8933-4.806 5.8795-2.3592 0.98622-5.3553 1.4107-9.5499 1.3484-4.1947-0.0623-9.5876-0.61159-12.759-0.44937-3.1716 0.16222-4.1204 1.0362-5.3919 2.9154-1.2715 1.8792-2.8656 4.7637-4.7883 7.9848-1.9227 3.2211-4.1734 6.778-6.6723 10.105s-5.2452 6.4228-7.9917 9.5188" fill="none" stroke="#000" stroke-width="5"/>
 <circle cx="79.025" cy="77.377" r="5.7934"/>
</svg>