<svg width="200" height="200" version="1.1" xmlns="http://www.w3.org/2000/svg">
 <g fill="none" stroke="#999" stroke-width="3">
  <path d="m0 16v-16h16"/>
  <path d="m200 16v-16h-16"/>
  <path d="m0 184v16h16"/>
  <path d="m200 184v16h-16"/>
 </g>
 <g>
  <path d="m95.106 70.115c-2.0227 2.9109-4.6331 8.7327-6.3995 14.887-1.7664 6.1539-2.6892 12.64-3.3592 18.141-0.66994 5.501-1.0868 10.015 1.3976 12.272s7.8692 2.2574 13.255 2.2574c5.3861 0 10.771 0 13.255-2.2574s2.0675-6.7711 1.3976-12.272c-0.66995-5.501-1.5928-11.988-3.3592-18.141-1.7664-6.1539-4.3769-11.976-6.3995-14.887-2.0227-2.9109-3.4582-2.9109-4.8941-2.9109-1.4359 0-2.8714 0-4.8941 2.9109z"/>
  <path d="m96.995 108.02c0.0011 0.0309 5e-3 0.0608 5e-3 0.092v20.219c0 1.1749-0.85048 2.1434-1.9717 2.3276l-3.6625 0.60119v1.5376h17.268v-1.5376l-3.6625-0.60119c-1.1212-0.1842-1.9707-1.1527-1.9707-2.3276v-20.219c0-0.0311 3e-3 -0.0611 5e-3 -0.092z"/>
  <path d="m137.88 70.115c-2.0227 2.9109-4.6331 8.7327-6.3995 14.887-1.7664 6.1539-2.6892 12.64-3.3592 18.141-0.66994 5.501-1.0868 10.015 1.3976 12.272s7.8692 2.2574 13.255 2.2574c5.3861 0 10.771 0 13.255-2.2574s2.0675-6.7711 1.3976-12.272c-0.66995-5.501-1.5928-11.988-3.3592-18.141-1.7664-6.1539-4.3769-11.976-6.3995-14.887-2.0227-2.9109-3.4582-2.9109-4.8941-2.9109-1.4359 0-2.8714 0-4.8941 2.9109z"/>
  <path d="m139.77 108.02c1e-3 0.0309 5e-3 0.0608 5e-3 0.092v20.219c0 1.1749-0.85048 2.1434-1.9717 2.3276l-3.6625 0.60119v1.5376h17.268v-1.5376l-3.6625-0.60119c-1.1212-0.1842-1.9707-1.1527-1.9707-2.3276v-20.219c0-0.0311 3e-3 -0.0611 5e-3 -0.092z"/>
  <path d="m52.335 70.115c-2.0227 2.9109-4.6331 8.7327-6.3995 14.887-1.7664 6.1539-2.6892 12.64-3.3592 18.141-0.66994 5.501-1.0868 10.015 1.3976 12.272s7.8692 2.2574 13.255 2.2574c5.3861 0 10.771 0 13.255-2.2574s2.0675-6.7711 1.3976-12.272c-0.66995-5.501-1.5928-11.988-3.3592-18.141-1.7664-6.1539-4.3769-11.976-6.3995-14.887-2.0227-2.9109-3.4582-2.9109-4.8941-2.9109-1.4359 0-2.8714 0-4.8941 2.9109z"/>
  <path d="m54.224 108.02c1e-3 0.0309 5e-3 0.0608 5e-3 0.092v20.219c0 1.1749-0.85048 2.1434-1.9717 2.3276l-3.6625 0.60119v1.5376h17.268v-1.5376l-3.6625-0.60119c-1.1212-0.1842-1.9707-1.1527-1.9707-2.3276v-20.219c0-0.0311 3e-3 -0.0611 5e-3 -0.092z"/>
 </g>
 <rect x="16.855" y="47.866" width="166.29" height="104.27" fill="none" stroke="#000" stroke-width="5"/>
</svg>