<svg width="200" height="200" version="1.1" xmlns="http://www.w3.org/2000/svg">
 <g fill="none">
  <g stroke="#999" stroke-width="3">
   <path d="m0 16v-16h16"/>
   <path d="m200 16v-16h-16"/>
   <path d="m0 184v16h16"/>
   <path d="m200 184v16h-16"/>
  </g>
  <g stroke="#000" stroke-width="5">
   <rect x="69.156" y="75.53" width="72.757" height="48.941"/>
   <path d="m26.966 118.13a18.127 18.127 0 0 0 18.127-18.127 18.127 18.127 0 0 0-18.127-18.127h-11.535v36.254z"/>
   <path transform="scale(-1,1)" d="m-194.07 79.197h2.9045a21.086 20.803 0 0 1 21.086 20.803 21.086 20.803 0 0 1-21.086 20.803h-2.9045"/>
   <path d="m15.431 88.4h-11.617"/>
   <path d="m15.431 111.6h-11.617"/>
   <path d="m45.093 100 24.063 1e-5"/>
   <path d="m141.91 100 28.164 1e-5"/>
  </g>
 </g>
</svg>