<svg width="200" height="200" version="1.1" xmlns="http://www.w3.org/2000/svg">
 <g fill="none">
  <g stroke="#999" stroke-width="3">
   <path d="m0 16v-16h16"/>
   <path d="m200 16v-16h-16"/>
   <path d="m0 184v16h16"/>
   <path d="m200 184v16h-16"/>
  </g>
  <g stroke="#000">
   <g>
    <path d="m33.558 147.71h133.33" stroke-width="10"/>
    <path d="m153.41 124.41c-2.1965 0.4992-4.3937 0.99857-6.0917 1.473-1.698 0.47438-2.8964 0.92381-3.7954 1.2983-0.89895 0.37453-1.4982 0.67415-3.5456 1.7228-2.0474 1.0487-5.543 2.8464-10.661 4.5443s-11.86 3.2958-18.501 4.5693c-6.6416 1.2734-13.183 2.2222-20.299 2.1974-7.116-0.0248-14.806-1.0236-22.217-3.4733-7.4109-2.4497-14.542-6.3507-20.298-10.681-5.7561-4.3301-10.136-9.0891-13.288-13.93-3.1511-4.8409-5.0723-9.7632-5.9084-13.298-0.83605-3.5351-0.58637-5.6823 0.18775-7.3307 0.77411-1.6484 2.0726-2.797 3.1628-3.6312s1.9721-1.3539 2.6652-1.6973c0.6931-0.34336 1.1963-0.51003 1.7261-0.63081 0.52982-0.12079 1.0837-0.19524 1.7138-0.56349 0.63006-0.36825 1.3365-1.0303 5.5851-2.822 4.2486-1.7918 12.038-4.713 22.975-8.1462s25.018-7.3781 33.208-9.5254c8.1899-2.1473 10.487-2.4968 12.085-2.5716 1.5982-0.0747 2.497 0.12502 3.1834 0.14976 0.6864 0.0247 1.1608-0.12506 1.5601-0.29983 0.39934-0.17477 0.72392-0.37451 3.3083-1.598 2.5844-1.2235 7.4282-3.4706 14.095-5.8426 6.6668-2.372 15.156-4.8688 22.447-6.8413 7.2909-1.9725 13.383-3.4207 19.475-4.8686" stroke-width="5"/>
    <path d="m37.003 85.682c-0.5744 0.77419-1.1487 1.5482-1.2483 2.535-0.0996 0.98678 0.2749 2.1852 2.3228 3.6456 2.0479 1.4604 5.7681 3.1831 10.358 4.2109 4.5903 1.0277 10.05 1.3609 15.24 1.2153 5.1895-0.14561 10.108-0.7698 15.327-1.8435 5.2184-1.0737 10.736-2.5967 15.867-4.2572 5.131-1.6604 9.8749-3.4581 13.083-5.1933s4.8811-3.4081 6.067-4.6814 1.8851-2.1472 2.3135-3.3854c0.42839-1.2382 0.58604-2.8415 0.47768-5.6172-0.10835-2.7757-0.48287-6.7239-0.8575-10.673" stroke-width="5"/>
   </g>
   <path d="m167.49 68.144c6.6763 4.1788 11.921 10.601 14.681 17.977 2.7938 7.4652 3.034 15.801 1.0487 23.52-2.1735 8.4512-7.0026 16.199-13.633 21.872" stroke-width="5"/>
   <path d="m172.69 107.7-5.502 26.567 25.24-9.1868" stroke-width="5"/>
  </g>
 </g>
</svg>