<svg width="200" height="200" version="1.1" xmlns="http://www.w3.org/2000/svg">
 <g fill="none" stroke="#999" stroke-width="3">
  <path d="m0 16v-16h16"/>
  <path d="m200 16v-16h-16"/>
  <path d="m0 184v16h16"/>
  <path d="m200 184v16h-16"/>
 </g>
 <path d="m118.84 27.193a75.205 75.205 0 0 1 56.366 72.807 75.205 75.205 0 0 1-75.205 75.205 75.205 75.205 0 0 1-75.205-75.205 75.205 75.205 0 0 1 56.36-72.806" fill="none" stroke="#000" stroke-width="5"/>
 <g>
  <circle cx="100" cy="100" r="10.469"/>
  <circle cx="100" cy="24.795" r="10.469"/>
  <path d="m100 101.2v-57.979" stroke="#000" stroke-width="5"/>
  <path d="m56.78 99.788h43.22" stroke="#000" stroke-width="5"/>
 </g>
</svg>