<svg width="200" height="200" version="1.1" xmlns="http://www.w3.org/2000/svg">
 <g fill="none" stroke="#999" stroke-width="3">
  <path d="m0 16v-16h16"/>
  <path d="m200 16v-16h-16"/>
  <path d="m0 184v16h16"/>
  <path d="m200 184v16h-16"/>
 </g>
 <g>
  <path d="m95.233 80.421c-0.10547-1.5002-1.2707-3.1951-3.2833-4.4314-2.0125-1.2363-4.8727-2.0131-9.0924-2.9313-4.2197-0.91814-9.7987-1.9774-15.713-2.6484-5.9147-0.67099-12.165-0.95347-18.785-1.1654-6.6208-0.21188-13.612-0.35312-19.633 0.088187-6.0207 0.44131-11.07 1.4653-14.054 2.4011-2.9841 0.9358-3.9022 1.7832-4.5732 2.9135-0.67103 1.1303-1.0947 2.5427-1.3065 4.7851s-0.21177 5.3144 0.26509 8.6338 1.4302 6.8856 3.0194 10.629c1.5892 3.743 3.8137 7.6624 6.4269 11.211s5.6145 6.7266 8.8986 9.1805 6.8504 4.1841 11.37 5.4904c4.5198 1.3063 9.9928 2.1891 14.724 2.2065 4.7315 0.0175 8.7215-0.82997 12.535-2.1365 3.8134-1.3065 7.4504-3.072 10.222-4.9434 2.7717-1.8714 4.6784-3.8487 6.3556-6.3027s3.1249-5.3847 4.6256-9.41c1.5007-4.0254 3.0544-9.1453 4.096-12.57 1.0417-3.4252 1.5713-5.1554 2.3129-6.674s1.6949-2.8251 1.5895-4.3253z" stroke-width="16"/>
  <path d="m81.992 84.048c6.0036-0.96637 12.006-1.9326 18.009-1.9325 6.003 1.57e-4 12.004 0.96608 18.008 1.9325" stroke="#000" stroke-width="10"/>
  <path d="m104.77 80.421c0.10548-1.5002 1.2707-3.1951 3.2833-4.4314 2.0125-1.2363 4.8726-2.0131 9.0924-2.9313 4.2197-0.91814 9.7987-1.9774 15.713-2.6484 5.9147-0.67099 12.165-0.95347 18.785-1.1654 6.6208-0.21188 13.612-0.35312 19.633 0.08819 6.0206 0.44131 11.07 1.4653 14.054 2.4011 2.9841 0.9358 3.9022 1.7832 4.5732 2.9135 0.67103 1.1303 1.0948 2.5427 1.3065 4.7851s0.21177 5.3144-0.26509 8.6338c-0.47687 3.3193-1.4302 6.8856-3.0194 10.629-1.5892 3.743-3.8137 7.6624-6.4269 11.211s-5.6145 6.7266-8.8986 9.1805c-3.284 2.4539-6.8504 4.1841-11.37 5.4904-4.5198 1.3063-9.9928 2.1891-14.724 2.2065-4.7315 0.0175-8.7215-0.82997-12.535-2.1365-3.8134-1.3065-7.4504-3.072-10.222-4.9434-2.7717-1.8714-4.6784-3.8487-6.3556-6.3027-1.6772-2.4539-3.1249-5.3847-4.6256-9.41-1.5007-4.0254-3.0544-9.1453-4.096-12.57s-1.5713-5.1554-2.3129-6.674-1.6949-2.8251-1.5895-4.3253z" stroke-width="16"/>
  <path d="m23.305 23.305 153.39 153.39" stroke="#000" stroke-width="5"/>
  <path d="m176.69 23.305c-51.131 51.131-102.26 102.26-153.39 153.39" stroke="#000" stroke-width="5"/>
 </g>
</svg>