<svg width="200" height="200" version="1.1" xmlns="http://www.w3.org/2000/svg">
 <path d="m191.03 100h-97.264" stroke="#000" stroke-width="5"/>
 <g fill="none" stroke="#000" stroke-width="5">
  <path d="m73.742 157.92c21.062 0 41.879-4.6065 61.078-13.522 4.4067-14.411 6.6312-29.4 6.6312-44.474 0-15.101-2.2326-30.116-6.618-44.523-19.058-8.7709-39.737-13.315-60.655-13.315-21.062 0-41.879 4.6065-61.078 13.522-4.4067 14.411-6.6312 29.4-6.6312 44.474 0 15.101 2.2326 30.116 6.618 44.523 19.058 8.7709 39.737 13.315 60.655 13.315z"/>
  <path d="m124.72 82.426-30.432 17.578 30.432 17.57"/>
  <path d="m160.6 82.426 30.432 17.578-30.432 17.57"/>
 </g>
 <g>
  <circle cx="50.211" cy="80.052" r="10.042"/>
  <circle cx="31.826" cy="110.5" r="10.042"/>
  <circle cx="67.62" cy="110.5" r="10.042"/>
 </g>
 <path d="m177.97 66.525v-17.414a12.882 12.993 0 0 0-12.882-12.993 12.882 12.993 0 0 0-12.882 12.993v17.414" fill="none" stroke="#000" stroke-width="5"/>
 
<g fill="none" stroke="#999" stroke-width="3">
  <path d="m0 16v-16h16"/>
  <path d="m200 16v-16h-16"/>
  <path d="m0 184v16h16"/>
  <path d="m200 184v16h-16"/>
 </g></svg>