<svg width="200" height="200" version="1.1" xmlns="http://www.w3.org/2000/svg">
 <path d="m99.744 166.49c24.659 0 49.032-5.2883 71.511-15.523 5.1594-16.544 7.7639-33.751 7.7639-51.056 0-17.336-2.6139-34.573-7.7484-51.113-22.313-10.069-46.524-15.286-71.015-15.286-24.659 0-49.032 5.2883-71.511 15.523-5.1594 16.544-7.7639 33.751-7.7639 51.056 0 17.336 2.6139 34.573 7.7484 51.113 22.313 10.069 46.524 15.286 71.015 15.286z" fill="none" stroke="#000" stroke-width="5"/>
 <rect x="74.153" y="79.237" width="52" height="41.525"/>
 <g stroke-width="5">
  <path d="m126.15 120.76v41.525h11.371c11.564-2.597 22.871-6.3752 33.732-11.32 3.0784-9.871 5.2258-19.982 6.4746-30.205z"/>
  <path d="m22.242 120.76c1.2449 10.311 3.4013 20.504 6.4863 30.441 10.699 4.8282 21.839 8.5273 33.232 11.084h12.191v-41.525z"/>
  <path d="m126.15 37.713v41.523h51.605c-1.2449-10.311-3.4015-20.502-6.4863-30.439-10.699-4.8282-21.839-8.5273-33.232-11.084z"/>
  <path d="m62.477 37.713c-11.564 2.597-22.871 6.3752-33.732 11.32-3.0782 9.8704-5.2258 19.981-6.4746 30.203h51.883v-41.523z"/>
 </g>
 
<g fill="none" stroke="#999" stroke-width="3">
  <path d="m0 16v-16h16"/>
  <path d="m200 16v-16h-16"/>
  <path d="m0 184v16h16"/>
  <path d="m200 184v16h-16"/>
 </g></svg>