<svg width="200" height="200" version="1.1" xmlns="http://www.w3.org/2000/svg">
 <g fill="none" stroke="#999" stroke-width="3">
  <path d="m0 16v-16h16"/>
  <path d="m200 16v-16h-16"/>
  <path d="m0 184v16h16"/>
  <path d="m200 184v16h-16"/>
 </g>
 <path d="m99.254 25.074-34.23 59.289 7.1777 4.3418c0.8754-1.1983 1.7509-2.3991 2.6958-3.544 0.77054-0.93444 1.7441-1.701 2.8551-2.1902 1.6365-0.73464 3.4062-1.0946 5.1502-1.4744 4.2809-0.88716 8.6554-1.2019 13.019-1.3043 3.5406-0.10069 7.0859-0.05492 10.623-0.26504 3.5193-0.21664 7.0725-0.77822 10.312-2.2299 2.0405-0.89796 3.9131-2.1702 5.4918-3.745 1.1185-1.097 2.1225-2.304 3.0801-3.5421-8.7246-15.112-17.449-30.224-26.174-45.336zm42.385 73.414c-1.6508 0.77969-3.0303 2.0829-3.9579 3.6507-1.1542 1.8665-1.7154 4.0047-2.4929 6.0369-0.98468 2.621-2.7445 4.8667-4.7036 6.8326-1.9112 1.9102-4.0278 3.6012-6.1873 5.22 15.314 9.2663 30.629 18.533 45.943 27.799-9.5338-16.513-19.068-33.026-28.602-49.539zm-86.617 3.1992c-12.375 21.434-24.75 42.868-37.125 64.303h143.4c-18.299-11.072-36.598-22.145-54.896-33.217-1.2959 0.88832-2.5469 1.8764-3.5177 3.1234-1.1637 1.459-2.097 3.0826-3.2165 4.5741-1.1566 1.5831-2.3282 3.1937-3.0155 5.0474-0.90285 2.3296-1.3555 4.8494-2.6654 7.0087-0.74418 1.2442-1.5949 2.4262-2.2309 3.7333-0.63418 1.2267-1.3535 2.5277-2.6055 3.218-1.0682 0.57709-2.2978 0.71524-3.4798 0.89334-0.75422 0.10669-1.5762 1e-3 -2.1835-0.49102-0.79473-0.62072-1.2698-1.5402-1.737-2.4116-1.0872-2.1277-1.6075-4.5137-1.6752-6.8939-0.07699-2.4348 0.10386-4.8677 0.2251-7.2981 0.14305-2.1925 0.13568-4.3974 0.43233-6.5776 0.21619-1.6024 0.67783-3.218 1.672-4.5206 0.90044-1.2079 2.0097-2.2361 3.0086-3.3593 1.1415-1.2417 2.3649-2.4718 3.9096-3.2024 0.73345-0.34176 1.4053-0.84636 1.8315-1.5452 0.13476-0.19702 0.11922-0.32937 0.0094-0.51914-5.2005-3.1465-10.401-6.293-15.601-9.4394-0.85743 1.2552-1.3769 2.7293-2.4087 3.8668-0.53347 0.63068-1.2491 1.0637-1.9955 1.3965-0.75323 0.35346-1.5728 0.82531-1.8371 1.6709-0.04992 0.29645 0.4822 0.37641 0.64143 0.63607 0.84512 0.77091 1.1542 1.9195 1.3741 3.001 0.3611 1.7786 0.82846 3.5999 0.5431 5.4248-0.26262 1.6201-1.17 3.0328-1.6138 4.5988-0.07379 0.43439-0.40428 0.99035-0.26229 1.3628 2.2074 1.4129 3.7474 3.7219 4.4568 6.2234 0.65693 2.2696 0.80389 4.6398 1.1301 6.9694 0.25546 2.0349 0.41438 4.1655-0.26838 6.1385-0.78611 2.2436-2.6653 4.0865-4.9359 4.8002-1.0834 0.34252-2.3211 0.25961-3.29-0.36242-1.2238-0.77018-1.8699-2.1403-2.3392-3.4558-0.8185-2.4265-1.843-4.7747-2.8237-7.1381-1.1742-2.845-2.1841-5.7537-3.2376-8.6445-0.54895-1.54-1.0066-3.1236-1.1731-4.7553-0.11752-1.0026-0.31438-2.0441-0.94929-2.8618-0.85384-1.1665-2.1359-2.0141-2.707-3.3825-0.71734-1.6302-0.68423-3.4419-0.88691-5.1797-0.20345-1.9897-0.38581-4.0298 0.09421-5.9961 0.58515-2.4876 1.8615-4.7302 3.0633-6.9604 1.2448-2.262 2.6019-4.4747 4.2465-6.4712 0.05026-0.10541-0.20403-0.15552-0.28516-0.23708l-5.073-3.0703z"/>
</svg>