<svg width="200" height="200" version="1.1" xmlns="http://www.w3.org/2000/svg">
 <g fill="none">
  <g stroke="#999" stroke-width="3">
   <path d="m1e-6 16v-16h16"/>
   <path d="m200 16v-16h-16"/>
   <path d="m1e-6 184v16h16"/>
   <path d="m200 184v16h-16"/>
  </g>
  <g stroke="#000">
   <path d="m150.36 134.45v29.961h-127.91v-127.91h127.91v29.963" stroke-width="5"/>
   <path d="m167.25 96.041 16.525-9.541-16.525-9.541" stroke-width="5"/>
   <path d="m131.94 86.5h-13.208" stroke-width="5"/>
  </g>
 </g>
 <path d="m74.393 101.56v-4.4149l15.94-0.02567v13.964q-3.6706 2.9262-7.5721 4.4149-3.9016 1.4631-8.0085 1.4631-5.5443 0-10.088-2.3615-4.5176-2.3872-6.8278-6.8791-2.3101-4.492-2.3101-10.036 0-5.493 2.2845-10.242 2.3101-4.7743 6.6224-7.0844 4.3123-2.3101 9.9336-2.3101 4.0813 0 7.3668 1.3348 3.3112 1.3091 5.185 3.6706t2.8492 6.1604l-4.4919 1.2321q-0.84705-2.8748-2.1048-4.5176-1.2577-1.6428-3.5936-2.6182-2.3358-1.0011-5.185-1.0011-3.4139 0-5.9037 1.0524-2.4898 1.0267-4.0299 2.7208-1.5144 1.6941-2.3615 3.7219-1.4374 3.4909-1.4374 7.5721 0 5.031 1.7198 8.4192 1.7454 3.3882 5.0566 5.031 3.3112 1.6428 7.0331 1.6428 3.2342 0 6.3144-1.2321 3.0802-1.2577 4.6716-2.6695v-7.0074z"/>
 <path d="m153.05 86.5h-13.208" fill="none" stroke="#000" stroke-width="5"/>
 <path d="m182.11 86.5h-21.148" fill="none" stroke="#000" stroke-width="5"/>
</svg>