<svg width="200" height="200" version="1.1" xmlns="http://www.w3.org/2000/svg">
 <g fill="none">
  <g stroke="#999" stroke-width="3">
   <path d="m0 16v-16h16"/>
   <path d="m200 16v-16h-16"/>
   <path d="m0 184v16h16"/>
   <path d="m200 184v16h-16"/>
  </g>
  <g stroke="#000" stroke-width="5">
   <path d="m109.68 113.35h-34.958c-11.429 0-21.991-6.0976-27.705-15.996-5.7147-9.8982-5.7147-22.093 1e-6 -31.992 5.7147-9.8982 16.276-15.996 27.705-15.996l86.307 1e-6"/>
   <path d="m132.78 33.051 28.256 16.314-28.256 16.314"/>
   <path d="m90.315 86.653h34.958c11.429 0 21.991 6.0976 27.705 15.996 5.7147 9.8982 5.7147 22.093 0 31.992-5.7147 9.8982-16.276 15.996-27.705 15.996l-86.307-1e-5"/>
   <path d="m67.222 166.95-28.256-16.314 28.256-16.314"/>
  </g>
 </g>
</svg>