<svg width="200" height="200" version="1.1" xmlns="http://www.w3.org/2000/svg">
 <g fill="none">
  <g stroke="#999" stroke-width="3">
   <path d="m0 16v-16h16"/>
   <path d="m200 16v-16h-16"/>
   <path d="m0 184v16h16"/>
   <path d="m200 184v16h-16"/>
  </g>
  <path d="m47.492 113.02v-61.454h61.454v61.454" stroke="#000" stroke-width="5"/>
  <path d="m60.975 51.562v-34.488h34.488v34.488" stroke="#000" stroke-width="5"/>
 </g>
 <path d="m108.16 123.64 3.4892-2.739h-66.859l3.4892 2.739c8.5403 6.7038 19.083 10.347 29.94 10.347 10.857 0 21.4-3.6437 29.94-10.347z"/>
 <g fill="none" stroke="#000" stroke-width="5">
  <path d="m143.35 24.216v88.606"/>
  <path d="m37.056 165.75c3.921-6.4737 9.132-12.162 15.238-16.635 12.446-9.1159 28.024-12.871 43.346-14.663 15.895-1.8591 32.029-1.8251 47.878 0.3929 7.4703 1.0454 14.873 2.574 22.146 4.573"/>
  <path d="m124.71 80.53 18.644 32.292 18.644-32.292"/>
 </g>
</svg>