<svg width="200" height="200" version="1.1" xmlns="http://www.w3.org/2000/svg">
 <g fill="none">
  <g stroke="#999" stroke-width="3">
   <path d="m0 16v-16h16"/>
   <path d="m200 16v-16h-16"/>
   <path d="m0 184v16h16"/>
   <path d="m200 184v16h-16"/>
  </g>
  <g stroke="#000" stroke-width="5">
   <path d="m150.5,133.5v30H22.5V36h128v30"/>
   <path d="m165.5,75 18.5,10.5 -18.5,10.5"/>
   <path d="m117,85.5h67"/>
   <path d="m141,104 -18.5,10.5 18.5,10.5"/>
   <path d="m122.5,114.5h67"/>
   <path d="M 57.5,97.5C57.5,87.5 63,80 73,80 83,80 88.5,87.5 88.5,97.5 88.5,107.5 83,115 73,115 63,115 57.5,107.5 57.5,97.5 Z"/>
  </g>
 </g>
</svg>