<svg width="200" height="200" version="1.1" xmlns="http://www.w3.org/2000/svg">
 <g fill="none" stroke="#000" stroke-width="5">
  <path d="m100 4.9197-95.654 162.12h191.31z"/>
  <circle cx="97.535" cy="115.47" r="6.9038"/>
  <path d="m91.617 111.91c-5.9238 1.4624-12.385-0.14407-17.108-3.9597-3.305-2.6095-6.5691-5.6039-8.265-9.5373-1.2842-3.4892-0.93212-7.3722-0.09104-10.923 1.0806-4.5366 4.3837-8.2396 8.3798-10.502 3.6027-2.0429 7.5104-3.9532 11.714-4.1861 3.3471-0.06308 6.6137 1.6885 8.7273 4.2269 1.9855 2.6424 2.0266 6.2724 0.77746 9.2395-1.3703 3.3219-2.8699 6.6934-2.9751 10.35-0.19572 4.2474 1.2615 8.3252 2.5338 12.311"/>
  <path d="m101.09 109.55c-1.4624-5.9238 0.14407-12.385 3.9597-17.108 2.6095-3.305 5.6039-6.5691 9.5373-8.265 3.4892-1.2842 7.3722-0.93212 10.923-0.09104 4.5366 1.0806 8.2396 4.3837 10.502 8.3798 2.0429 3.6027 3.9532 7.5104 4.1861 11.714 0.0631 3.3471-1.6885 6.6137-4.2269 8.7273-2.6424 1.9855-6.2724 2.0266-9.2395 0.77747-3.3219-1.3703-6.6934-2.8699-10.35-2.9751-4.2474-0.19573-8.3252 1.2615-12.311 2.5338"/>
  <path d="m103.45 119.02c5.9238-1.4624 12.385 0.14407 17.108 3.9597 3.305 2.6095 6.5691 5.6039 8.265 9.5373 1.2842 3.4892 0.93212 7.3722 0.091 10.923-1.0806 4.5366-4.3837 8.2396-8.3798 10.502-3.6028 2.0429-7.5104 3.9532-11.714 4.1861-3.3471 0.0631-6.6137-1.6885-8.7273-4.2269-1.9855-2.6424-2.0265-6.2724-0.77747-9.2395 1.3703-3.3219 2.8699-6.6934 2.9751-10.35 0.19573-4.2474-1.2615-8.3252-2.5338-12.311"/>
  <path d="m93.979 121.38c1.4624 5.9238-0.14407 12.385-3.9597 17.108-2.6095 3.305-5.6039 6.5691-9.5373 8.265-3.4892 1.2842-7.3722 0.93212-10.923 0.091-4.5366-1.0806-8.2396-4.3837-10.502-8.3798-2.0429-3.6028-3.9532-7.5104-4.1861-11.714-0.0631-3.3471 1.6885-6.6137 4.2269-8.7273 2.6424-1.9855 6.2724-2.0266 9.2395-0.77747 3.3219 1.3703 6.6934 2.8699 10.35 2.9751 4.2474 0.19573 8.3252-1.2615 12.311-2.5338"/>
 </g>
 
<g fill="none" stroke="#999" stroke-width="3">
  <path d="m0 16v-16h16"/>
  <path d="m200 16v-16h-16"/>
  <path d="m0 184v16h16"/>
  <path d="m200 184v16h-16"/>
 </g></svg>