<svg width="200" height="200" version="1.1" xmlns="http://www.w3.org/2000/svg">
 <g fill="none" stroke="#999" stroke-width="3">
  <path d="m0 16v-16h16"/>
  <path d="m200 16v-16h-16"/>
  <path d="m0 184v16h16"/>
  <path d="m200 184v16h-16"/>
 </g>
 <path d="m162.71 43.508-35.266 10.781v-46.596l-4.8984 1.498v46.596l-45.102 13.789v-46.598l-4.8984 1.498 2e-6 46.598-35.265 10.782 7.6e-5 5.1233 35.265-10.782v64.389l-35.265 10.782 7.6e-5 5.1233 35.265-10.782v46.877l4.8984-1.498-2e-6 -46.875 45.102-13.789v46.877l4.8984-1.498v-46.877l35.265-10.782-8e-5 -5.1233-35.265 10.782v-64.389l35.265-10.782zm-40.164 17.404v64.387l-45.102 13.789v-64.387l45.102-13.789"/>
</svg>