<svg width="200" height="200" version="1.1" xmlns="http://www.w3.org/2000/svg">
 <path d="m98.144 167.36c6.867-16.694 12.1-34.182 14.217-52.148 1.9077-16.66 0.81186-33.572-2.233-50.029-1.059-5.5482-2.4132-11.041-4.0827-16.437 8.4812 5.2094 15.609 12.451 21.066 20.748 4.4212 6.5256 8.0466 13.82 8.967 21.738 0.10967 0.59902 0.0363 1.9968 0.50998 0.69728 3.9826-7.3504 4.3491-16.323 1.6299-24.16-3.9337-11.858-14.14-21.316-26.202-24.493 10.415 0.44622 21.07 2.7477 29.801 8.6955 7.2084 4.8293 13.204 11.336 17.93 18.582-0.28094-8.0373-3.8245-15.678-9.0342-21.705-5.504-6.554-13.07-11.463-21.49-13.234-6.9711-1.5489-14.306-1.2924-21.192 0.56037 6.6061-5.8685 15.334-9.1775 24.153-9.3637 9.8881-0.30115 20.057 2.7309 27.564 9.3149-5.7442-10.698-16.97-18.466-29.179-19.274-12.139-0.81602-24.774 4.5409-32.019 14.439-5.15-8.3803-14.364-13.87-24.007-15.308-11.14-1.664-22.782 3.3718-29.662 12.196-0.38782 0.63239-2.6825 3.1292-0.94528 2.0076 8.6368-4.4628 18.759-6.597 28.372-4.5058 6.0053 1.2524 11.695 3.9185 16.558 7.6499-11.856-2.4516-24.796-0.019045-34.572 7.2461-8.7123 6.4299-14.716 16.246-16.949 26.801 6.1891-8.2238 14.773-14.294 23.923-18.824 5.6806-2.9108 11.811-5.1345 18.228-5.5541 4.4556-0.36504 8.9474-0.18329 13.384 0.32962-8.6123 1.2348-16.65 5.895-21.987 12.769-7.0593 8.8706-10.122 21.122-6.9044 32.128 1.2444 4.3953 3.3685 8.5453 6.2449 12.097-0.90106-9.1578-0.44168-18.691 2.9668-27.332 4.3338-10.708 13.11-19.028 22.887-24.856 1.3124-1.0383 1.0989 1.9122 1.6769 2.7305 7.1437 23.792 8.81 49.487 3.0769 73.761-3.3057 13.948-8.8068 27.345-15.863 39.806"/>
 <g fill="none" stroke="#999" stroke-width="3">
  <path d="m0 16v-16h16"/>
  <path d="m200 16v-16h-16"/>
  <path d="m0 184v16h16"/>
  <path d="m200 184v16h-16"/>
 </g>
 <path d="m38.808 172.16 33.862-10.469 30.297 6.7433 23.093-9.5339 33.686 12.5-41.102 10.381-37.288-0.63559-34.414-5.684z" fill="none" stroke="#000" stroke-width="5"/>
</svg>