<svg width="200" height="200" version="1.1" xmlns="http://www.w3.org/2000/svg">
 <g fill="none" stroke="#999" stroke-width="3">
  <path d="m0 16v-16h16"/>
  <path d="m200 16v-16h-16"/>
  <path d="m0 184v16h16"/>
  <path d="m200 184v16h-16"/>
 </g>
 <path d="m97 5.2969v142.27c-7.1167-6.8275-18.159-7.5798-27.144-4.4896-10.06 3.285-19.805 10.511-22.673 21.138-2.2632 7.6802 0.51301 16.603 7.1207 21.265 8.112 6.0738 19.348 5.6287 28.31 1.7743 9.4243-3.8094 18.207-11.49 20.052-21.904 0.6142-4.6684 0.22442-9.4106 0.33438-14.121v-124.45c4.7882 10.587 14.157 17.822 22.425 25.556 6.4085 5.7576 12.577 12.219 15.682 20.416 5.98 14.923 4.3815 31.797-0.61783 46.754-1.8748 5.8656-4.5386 11.604-8.7804 16.148 1.237 1.3144 2.474 2.6289 3.7109 3.9434 9.1602-10.837 13.559-24.824 15.808-38.618 1.9537-12.848-0.54645-26.106-5.7291-37.926-5.8293-12.335-16.12-21.716-25.928-30.883-7.0118-6.5876-14.375-14.016-16.16-23.883 0.1008-2.2679-0.5025-3.519-2.7948-2.993h-3.6166z"/>
</svg>