<svg width="200" height="200" version="1.1" xmlns="http://www.w3.org/2000/svg">
 <g fill="none">
  <g stroke="#999" stroke-width="3">
   <path d="m0 16v-16h16"/>
   <path d="m200 16v-16h-16"/>
   <path d="m0 184v16h16"/>
   <path d="m200 184v16h-16"/>
  </g>
  <path d="m134.45 166.12c-0.13622-1.945-0.35768-4.7797-0.71774-9.0606-0.93541-11.121-2.8062-32.002-5.6337-44.75-2.8276-12.748-6.6115-17.361-11.455-19.668-4.8435-2.3066-10.745-2.3067-16.646-2.3067-5.9006 0-11.802 2e-6 -16.645 2.3067-4.8435 2.3067-8.6275 6.9196-11.455 19.668-2.8275 12.748-4.6983 33.629-5.6337 44.75-0.36006 4.2809-0.58153 7.1155-0.71774 9.0606" stroke="#000" stroke-width="5"/>
  <circle cx="100" cy="59.918" r="25.917" stroke="#000" stroke-width="5"/>
 </g>
</svg>