<svg width="200" height="200" version="1.1" xmlns="http://www.w3.org/2000/svg">
 <g fill="none">
  <g stroke="#999" stroke-width="3">
   <path d="m0 16v-16h16"/>
   <path d="m200 16v-16h-16"/>
   <path d="m0 184v16h16"/>
   <path d="m200 184v16h-16"/>
  </g>
  <path d="m116.97 179.34c5.226-2.3655 9.9576-6.3908 14.301-11.581 4.3434-5.1906 8.2981-11.546 10.947-16.384s3.9908-8.158 5.3326-11.477c1.9774-0.0706 3.9537-0.14121 6.2666-1.1648 2.3129-1.0236 4.9611-3.001 7.0447-5.5785 2.0836-2.5776 3.602-5.7554 4.6615-9.7456 1.0596-3.9902 1.6598-8.7923 1.5894-12.712-0.0705-3.9198-0.81196-6.9564-1.9068-8.9872-1.0948-2.0308-2.5425-3.0548-4.0967-3.3371-1.5542-0.28226-2.8392-0.34756-4.4977 0.11115 1.9756-10.891 1.745-21.588 0.0492-32.527-1.3429-8.6622-3.885-17.256-8.5678-24.666-4.4787-7.087-10.842-12.923-18.127-17.071-8.963-5.1035-19.347-7.3275-29.967-7.3275s-21.004 2.224-29.967 7.3275c-7.2853 4.1483-13.648 9.9842-18.127 17.071-4.6828 7.41-7.2249 16.004-8.5678 24.666-1.6957 10.938-1.9264 21.635 0.0492 32.527-1.6584-0.45871-2.9435-0.3934-4.4977-0.11115-1.5542 0.28226-3.0019 1.3062-4.0967 3.3371-1.0948 2.0308-1.8363 5.0674-1.9068 8.9872-0.07047 3.9198 0.52979 8.7218 1.5894 12.712 1.0596 3.9902 2.5779 7.1681 4.6615 9.7456 2.0836 2.5776 4.7318 4.5549 7.0447 5.5785s4.2892 1.0942 6.2666 1.1648c1.3418 3.3192 2.6841 6.6396 5.3326 11.477 2.6485 4.8376 6.6031 11.193 10.947 16.384 4.3434 5.1906 9.075 9.216 14.301 11.581 5.2261 2.3655 10.905 3.7778 16.972 3.7778 6.0668 0 11.746-1.4123 16.972-3.7778z" stroke="#000" stroke-linejoin="round" stroke-width="5"/>
  <path d="m85.764 87.509c-3.7418-0.84719-7.4846-1.6946-12.181-2.0302-4.6965-0.33561-10.346-0.15906-15.997 0.017528" stroke="#000" stroke-linecap="round" stroke-width="5"/>
 </g>
 <path d="m82.85 101.65a7.839 7.839 0 0 1-7.839 7.839 7.839 7.839 0 0 1-7.839-7.839 7.839 7.839 0 0 1 7.839-7.839 7.839 7.839 0 0 1 7.839 7.839z" stroke-linecap="round"/>
 <g stroke="#000" stroke-linecap="round" stroke-width="5">
  <path d="m82.006 149.31c5.8968-0.20044 11.793-0.40085 17.688-0.40082 5.8958 4e-5 11.79 0.20038 17.686 0.40082"/>
  <path d="m105.39 158.82c-1.8991 0.05-3.7971 0.0999-5.6941 0.0999s-3.7951-0.0499-5.6941-0.0999"/>
  <path d="m113.62 87.509c3.7418-0.84719 7.4846-1.6946 12.181-2.0302 4.6965-0.3356 10.346-0.15906 15.997 0.01753" fill="none"/>
 </g>
 <path d="m116.54 101.65a7.839 7.839 0 0 0 7.839 7.839 7.839 7.839 0 0 0 7.839-7.839 7.839 7.839 0 0 0-7.839-7.839 7.839 7.839 0 0 0-7.839 7.839z" stroke-linecap="round"/>
</svg>