<svg width="200" height="200" version="1.1" xmlns="http://www.w3.org/2000/svg"><g fill="none" stroke="#000" stroke-width="5"><path d="m133.25 126.42a47.301 47.916 0 0 1-42.17-26.06 47.301 47.916 0 0 1 3.7378-49.896z"/><path d="m114.33 88.001 14.369-7.4605"/><path d="m111.89 145.39h-45.104l22.377-42.964z"/><path d="m100 35.766a178.39 178.39 0 0 0-73.947 16.062 178.39 178.39 0 0 0-6.7734 48.172 178.39 178.39 0 0 0 6.7734 48.172 178.39 178.39 0 0 0 73.947 16.062 178.39 178.39 0 0 0 73.947-16.062 178.39 178.39 0 0 0 6.7734-48.172 178.39 178.39 0 0 0-6.7734-48.172 178.39 178.39 0 0 0-73.947-16.062z"/></g> 
<g fill="none" stroke="#999" stroke-width="3">
  <path d="m0 16v-16h16"/>
  <path d="m200 16v-16h-16"/>
  <path d="m0 184v16h16"/>
  <path d="m200 184v16h-16"/>
 </g></svg>