<svg width="200" height="200" version="1.1" xmlns="http://www.w3.org/2000/svg">
 <g fill="none" stroke="#999" stroke-width="3">
  <path d="m0 16v-16h16"/>
  <path d="m200 16v-16h-16"/>
  <path d="m0 184v16h16"/>
  <path d="m200 184v16h-16"/>
 </g>
 <path d="m98.144 167.36c6.867-16.694 12.1-34.182 14.217-52.148 1.9077-16.66 0.81186-33.572-2.233-50.029-1.059-5.5482-2.4132-11.041-4.0827-16.437 8.4812 5.2094 15.609 12.451 21.066 20.748 4.4212 6.5256 8.0466 13.82 8.967 21.738 0.10967 0.59902 0.0363 1.9968 0.50998 0.69729 3.9826-7.3504 4.3491-16.323 1.6299-24.16-3.9337-11.858-14.14-21.316-26.202-24.493 10.415 0.44622 21.07 2.7477 29.801 8.6955 7.2084 4.8293 13.204 11.336 17.93 18.582-0.28094-8.0373-3.8245-15.678-9.0342-21.705-5.504-6.554-13.07-11.463-21.49-13.234-6.9711-1.5489-14.306-1.2924-21.192 0.56037 6.6061-5.8685 15.334-9.1775 24.153-9.3637 9.8881-0.30115 20.057 2.7309 27.564 9.3149-5.7442-10.698-16.97-18.466-29.179-19.274-12.139-0.81602-24.774 4.5409-32.019 14.439-5.15-8.3803-14.364-13.87-24.007-15.308-11.14-1.664-22.782 3.3718-29.662 12.196-0.38782 0.63239-2.6825 3.1292-0.94528 2.0076 8.6368-4.4628 18.759-6.597 28.372-4.5058 6.0053 1.2524 11.695 3.9185 16.558 7.6499-11.856-2.4516-24.796-0.01905-34.572 7.2461-8.7123 6.4299-14.716 16.246-16.949 26.801 6.1891-8.2238 14.773-14.294 23.923-18.824 5.6806-2.9108 11.811-5.1345 18.228-5.5541 4.4556-0.36504 8.9474-0.18329 13.384 0.32962-8.6123 1.2348-16.65 5.895-21.987 12.769-7.0593 8.8706-10.122 21.122-6.9044 32.128 1.2444 4.3953 3.3685 8.5452 6.2449 12.097-0.90106-9.1578-0.44168-18.691 2.9668-27.332 4.3338-10.708 13.11-19.028 22.887-24.856 1.3124-1.0383 1.0989 1.9122 1.6769 2.7305 7.1437 23.792 8.81 49.487 3.0769 73.761-3.3057 13.948-8.8068 27.345-15.863 39.806"/>
 <g fill="none" stroke="#999" stroke-width="3">
  <path d="m0 16v-16h16"/>
  <path d="m200 16v-16h-16"/>
  <path d="m0 184v16h16"/>
  <path d="m200 184v16h-16"/>
 </g>
 <path d="m38.808 172.16 33.862-10.469 30.297 6.7433 23.093-9.5339 33.686 12.5-41.102 10.381-37.288-0.63559-34.414-5.684z" fill="none" stroke="#000" stroke-width="5"/>
 <path d="m69.604 162.64c1.4588-5.0554 2.5573-10.211 3.1736-15.44 1.0442-9.1192 0.44439-18.377-1.2223-27.385-0.57966-3.0369-1.3209-6.0436-2.2348-8.9974 4.6424 2.8515 8.5437 6.8152 11.531 11.357 2.4201 3.5719 4.4045 7.5649 4.9083 11.899 0.06002 0.32789 0.01987 1.093 0.27915 0.38168 2.18-4.0234 2.3806-8.935 0.89217-13.225-2.1532-6.4906-7.7398-11.668-14.342-13.407 5.7008 0.24425 11.533 1.504 16.312 4.7597 3.9457 2.6435 7.2277 6.2051 9.8143 10.171-0.15378-4.3994-2.0934-8.5819-4.9451-11.881-3.0127-3.5875-7.1543-6.2747-11.763-7.244-3.8158-0.84782-7.8307-0.70745-11.6 0.30675 3.616-3.2123 8.3933-5.0235 13.221-5.1255 5.4125-0.16484 10.979 1.4948 15.088 5.0987-3.1442-5.8556-9.2887-10.108-15.972-10.55-6.6445-0.44667-13.561 2.4856-17.526 7.9033-2.819-4.5872-7.8625-7.5919-13.141-8.3793-6.0979-0.91083-12.47 1.8457-16.236 6.6756-0.21228 0.34615-1.4683 1.7129-0.51742 1.0989 4.7276-2.4428 10.268-3.611 15.53-2.4664 3.2871 0.68551 6.4015 2.1449 9.0635 4.1874-6.4897-1.342-13.573-0.0105-18.924 3.9663-4.7689 3.5196-8.0553 8.8926-9.2776 14.67 3.3878-4.5015 8.0866-7.8239 13.095-10.304 3.1094-1.5933 6.4651-2.8105 9.9777-3.0402 2.4389-0.19983 4.8976-0.10031 7.326 0.18041-4.7141 0.67591-9.1138 3.2268-12.035 6.9895-3.8641 4.8556-5.5403 11.562-3.7793 17.586 0.68113 2.4059 1.8438 4.6774 3.4183 6.6214-0.49322-5.0128-0.24176-10.231 1.6239-14.961 2.3722-5.8611 7.1761-10.415 12.528-13.605 0.71838-0.56834 0.60149 1.0467 0.9179 1.4946 3.9103 13.023 4.8223 27.088 1.6842 40.375-1.0155 4.2851-2.4096 8.475-4.1202 12.533"/>
 <path d="m143.1 165.22c3.5112-8.7635 6.1732-17.916 7.2801-27.308 1.0442-9.1192 0.44439-18.377-1.2223-27.385-0.57966-3.0369-1.3209-6.0436-2.2348-8.9974 4.6424 2.8515 8.5437 6.8152 11.531 11.357 2.4201 3.5719 4.4045 7.5649 4.9083 11.899 0.06 0.32789 0.0199 1.093 0.27915 0.38168 2.18-4.0234 2.3806-8.935 0.89216-13.225-2.1532-6.4906-7.7398-11.668-14.342-13.407 5.7008 0.24425 11.533 1.504 16.312 4.7597 3.9457 2.6435 7.2277 6.2051 9.8143 10.171-0.15378-4.3994-2.0934-8.5819-4.9451-11.881-3.0127-3.5875-7.1543-6.2747-11.763-7.244-3.8158-0.84782-7.8306-0.70745-11.6 0.30675 3.616-3.2123 8.3933-5.0235 13.221-5.1255 5.4125-0.16484 10.979 1.4948 15.088 5.0987-3.1442-5.8556-9.2887-10.108-15.972-10.55-6.6445-0.44667-13.561 2.4856-17.526 7.9033-2.819-4.5872-7.8625-7.5919-13.141-8.3793-6.0979-0.91083-12.47 1.8457-16.236 6.6756-0.21228 0.34615-1.4683 1.7129-0.51742 1.0989 4.7276-2.4428 10.268-3.611 15.53-2.4664 3.2871 0.68551 6.4015 2.1449 9.0635 4.1874-6.4897-1.342-13.573-0.0105-18.924 3.9663-4.7689 3.5196-8.0553 8.8926-9.2776 14.67 3.3878-4.5015 8.0866-7.8239 13.095-10.304 3.1094-1.5933 6.4651-2.8105 9.9777-3.0402 2.4389-0.19983 4.8976-0.10031 7.326 0.18041-4.7142 0.67591-9.1138 3.2268-12.035 6.9895-3.8641 4.8556-5.5403 11.562-3.7793 17.586 0.68113 2.4059 1.8438 4.6774 3.4183 6.6214-0.49322-5.0128-0.24177-10.231 1.6239-14.961 2.3722-5.8611 7.1762-10.415 12.528-13.605 0.71838-0.56834 0.60149 1.0467 0.9179 1.4946 3.9103 13.023 4.8224 27.088 1.6842 40.375-1.6278 6.8684-4.228 13.492-7.5458 19.719"/>
</svg>