<svg width="200" height="200" version="1.1" xmlns="http://www.w3.org/2000/svg">
 <g fill="none">
  <g stroke="#999" stroke-width="3">
   <path d="m0 16v-16h16"/>
   <path d="m200 16v-16h-16"/>
   <path d="m0 184v16h16"/>
   <path d="m200 184v16h-16"/>
  </g>
  <g stroke="#000" stroke-width="5">
   <rect x="16.525" y="47.458" width="166.95" height="105.08"/>
   <path d="m66.154 47.246c0 4.2198 0 8.6394-0.87049 12.959s-2.7657 9.3492-4.9245 14.89c-2.1588 5.5403-4.5462 11.512-7.5882 17.273-3.042 5.7608-8.9512 15.361-14.014 23.586 1.3276 2.9927 2.6557 5.9865 4.0569 10.181 1.4012 4.1948 2.876 9.5913 3.6134 14.193 0.73731 4.6018 0.73731 8.4086 0.73731 12.214"/>
   <path d="m16.525 115.95h22.232"/>
   <path d="m133.85 47.246c0 4.2198 0 8.6394 0.87049 12.959s2.7657 9.3492 4.9245 14.89c2.1588 5.5403 4.5462 11.512 7.5882 17.273s8.9512 15.361 14.014 23.586c-1.3276 2.9927-2.6557 5.9865-4.0569 10.181-1.4012 4.1948-2.876 9.5913-3.6134 14.193s-0.73731 8.4086-0.73731 12.214"/>
   <path d="m183.47 115.95h-22.232"/>
  </g>
 </g>
</svg>