<svg width="200" height="200" version="1.1" xmlns="http://www.w3.org/2000/svg">
 <g fill="none" stroke="#999" stroke-width="3">
  <path d="m0 16v-16h16"/>
  <path d="m200 16v-16h-16"/>
  <path d="m0 184v16h16"/>
  <path d="m200 184v16h-16"/>
 </g>
 <path d="m100 24.65a75.35 75.35 0 0 0-75.35 75.35 75.35 75.35 0 0 0 75.35 75.35 75.35 75.35 0 0 0 75.35-75.35 75.35 75.35 0 0 0-75.35-75.35zm-33.646 34.633 33.646 33.646 33.646-33.646 7.0703 7.0703-33.646 33.646 33.646 33.646-7.0703 7.0703-33.646-33.646-33.646 33.646-7.0703-7.0703 33.646-33.646-33.646-33.646 7.0703-7.0703z"/>
</svg>