<svg width="200" height="200" version="1.1" xmlns="http://www.w3.org/2000/svg">
 <g fill="none" stroke="#999" stroke-width="3">
  <path d="m0 16v-16h16"/>
  <path d="m200 16v-16h-16"/>
  <path d="m0 184v16h16"/>
  <path d="m200 184v16h-16"/>
 </g>
 <path d="m116.74 146.82c2.344-0.16644 5.2485-0.35342 7.7985-0.31839 2.8352 0.0389 10.4 0.40545 14.877 0.99868 3.9881 0.5285 6.0299 1.1687 7.9908 1.8688 0.39828 0.1422 0.79295-0.0753 0.8825-0.48881 1.4109-6.5148 2.8114-13.091 3.9337-21.346 1.1653-8.5717 2.0304-18.953 0.55654-27.277-1.4739-8.3245-5.2873-14.592-9.8952-18.6s-10.01-5.7561-15.352-4.9177c-5.3413 0.83837-10.62 4.2634-13.631 10.841-3.0105 6.5773-3.752 16.305-3.4075 24.427s1.7745 14.636 2.8691 20.18c1.0343 5.2385 1.769 9.609 2.4873 13.933 0.0693 0.41726 0.46753 0.73077 0.88953 0.70081z"/>
 <path d="m144.26 177.7c-0.55951 5.4599-3.9893 10.207-8.9975 12.452-5.0082 2.2454-10.834 1.6484-15.282-1.5661-4.4486-3.2145-6.8444-8.5581-6.2849-14.018l1.7752-16.276a1.5767 1.5767 0 0 1 1.7338-1.3969l27.375 2.9057a1.5721 1.5721 0 0 1 1.3974 1.7293z"/>
 <path d="m83.255 146.82c-2.344-0.16644-5.2485-0.35342-7.7985-0.31839-2.8352 0.0389-10.4 0.40545-14.877 0.99868-3.9881 0.5285-6.0299 1.1687-7.9908 1.8688-0.39828 0.1422-0.79296-0.0753-0.88251-0.48881-1.4109-6.5148-2.8114-13.091-3.9337-21.346-1.1653-8.5717-2.0304-18.953-0.55653-27.277 1.4738-8.3245 5.2873-14.592 9.8952-18.6 4.6079-4.0082 10.01-5.7561 15.352-4.9177 5.3413 0.83837 10.62 4.2634 13.631 10.841s3.752 16.305 3.4075 24.427-1.7745 14.636-2.8691 20.18c-1.0343 5.2385-1.769 9.609-2.4873 13.933-0.0693 0.41726-0.46753 0.73077-0.88953 0.70081z"/>
 <path d="m55.741 177.7c0.55951 5.4599 3.9893 10.207 8.9975 12.452 5.0082 2.2454 10.834 1.6484 15.282-1.5661 4.4486-3.2145 6.8444-8.5581 6.2849-14.018l-1.7752-16.276a1.5767 1.5767 0 0 0-1.7338-1.3969l-27.375 2.9057a1.5721 1.5721 0 0 0-1.3974 1.7293z"/>
 <g stroke-width="5" fill="none" stroke="#000">
  <path d="m77.966 46.822 22.034-38.164 22.034 38.164"/>
  <path d="m100 67.161v-58.503"/>
 </g>
</svg>