<svg width="200" height="200" version="1.1" xmlns="http://www.w3.org/2000/svg"><path d="m100 35.766a178.39 178.39 0 0 0-73.947 16.062 178.39 178.39 0 0 0-6.7734 48.172 178.39 178.39 0 0 0 6.7734 48.172 178.39 178.39 0 0 0 73.947 16.062 178.39 178.39 0 0 0 73.947-16.062 178.39 178.39 0 0 0 6.7734-48.172 178.39 178.39 0 0 0-6.7734-48.172 178.39 178.39 0 0 0-73.947-16.062z" fill="none" stroke="#000" stroke-width="5"/><rect x="118.01" y="76.1" width="40.763" height="47.8"/> 
<g fill="none" stroke="#999" stroke-width="3">
  <path d="m0 16v-16h16"/>
  <path d="m200 16v-16h-16"/>
  <path d="m0 184v16h16"/>
  <path d="m200 184v16h-16"/>
 </g></svg>