<svg width="200" height="200" version="1.1" xmlns="http://www.w3.org/2000/svg">
 <g fill="none" stroke="#999" stroke-width="3">
  <path d="m0 16v-16h16"/>
  <path d="m200 16v-16h-16"/>
  <path d="m0 184v16h16"/>
  <path d="m200 184v16h-16"/>
 </g>
 <path d="m81.334 41.006-6.3906 2.3574-4.6387 7.0078c1.9796 3.4292 5.4415 5.7427 9.3672 6.2598 3.9265 0.51688 7.87-0.82217 10.67-3.623l0.58984-2.3613-2.7617-6.8691zm0 2.9961c0.65759-1.8e-5 1.3036 0.1731 1.873 0.50195 1.1591 0.66904 1.8732 1.9058 1.873 3.2441v2.8984h-7.4902v-2.8984c-1.44e-4 -1.3384 0.7139-2.5751 1.873-3.2441 0.56888-0.32852 1.2142-0.50163 1.8711-0.50195z"/>
 <path d="m72.059 69.512-39.024 1e-6v-45.592h133.93v45.592h-24.046" fill="none" stroke="#000" stroke-width="5"/>
 <path d="m99.686 35.089-6.3906 2.3574-4.6387 7.0078c1.9796 3.4292 5.4415 5.7427 9.3672 6.2598 3.9265 0.51688 7.87-0.82217 10.67-3.623l0.58984-2.3613-2.7617-6.8691zm0 2.9961c0.65759-1.8e-5 1.3036 0.1731 1.8731 0.50195 1.1592 0.66904 1.8732 1.9058 1.873 3.2441v2.8984h-7.4902v-2.8984c-1.44e-4 -1.3384 0.7139-2.5751 1.873-3.2441 0.56888-0.32852 1.2142-0.50163 1.8711-0.50195z"/>
 <path d="m118.56 38.534-6.3906 2.3574-4.6387 7.0078c1.9796 3.4292 5.4415 5.7427 9.3672 6.2598 3.9265 0.51688 7.87-0.82217 10.67-3.623l0.58984-2.3613-2.7617-6.8691zm0 2.9961c0.6576-1.8e-5 1.3036 0.1731 1.8731 0.50195 1.1592 0.66904 1.8732 1.9058 1.873 3.2441v2.8984h-7.4902v-2.8984c-1.4e-4 -1.3384 0.71391-2.5751 1.873-3.2441 0.56889-0.32852 1.2142-0.50163 1.8711-0.50195z"/>
 <path d="m134.89 56.512-6.3906 2.3574-1.9421 7.3823c1.9796 3.4292 2.7449 5.3681 6.6706 5.8852 3.9265 0.51688 7.87-0.82217 10.67-3.623l0.58984-2.3613-2.7617-6.8691zm0 2.9961c0.6576-1.8e-5 1.3036 0.1731 1.8731 0.50195 1.1592 0.66904 1.8732 1.9058 1.873 3.2441v2.8984h-7.4902v-2.8984c-1.4e-4 -1.3384 0.71391-2.5751 1.873-3.2441 0.56889-0.32852 1.2142-0.50163 1.8711-0.50195z"/>
 <path d="m69.492 183.07c0-7.3143 0-14.629-0.21168-18.94-0.21168-4.3109-0.63538-5.6173-2.736-7.5067s-5.8787-4.361-8.3861-6.6914c-2.5074-2.3303-3.7432-4.5195-4.2909-9.8163s-0.40643-13.701-0.60051-19.138-0.72373-7.9095-1.4829-10.929c-0.75915-3.0191-1.7478-6.5854-3.3718-9.6752-1.624-3.0898-3.8839-5.7027-4.9437-7.3095-1.0599-1.6068-0.91863-2.2071-0.45946-2.8431 0.45917-0.636 1.236-1.3069 2.2779-1.8896 1.0419-0.5827 2.3484-1.077 4.0259-1.2535 1.6775-0.17641 3.7255-0.03517 5.8443 0.51238 2.1187 0.54755 4.308 1.5009 6.0734 2.6664 1.7654 1.1655 3.1072 2.5426 4.8413 6.7614 1.9297 4.1536 5.9877 14.26 5.9877 18.338v-64.868c0-5.0627 4.0758-9.1385 9.1385-9.1385s9.1385 4.0758 9.1385 9.1385v53.482l4e-6 -59.025c0-5.1457 4.1426-9.2883 9.2883-9.2883 5.1457 0 9.2883 4.1426 9.2883 9.2883l-1e-5 62.471v-59.475c0-5.1457 4.1426-9.2883 9.2883-9.2883s9.2883 4.1426 9.2883 9.2883v62.995-46.142c0-4.2743 3.441-7.7153 7.7152-7.7153s7.7153 3.441 7.7153 7.7153v72.283c0 2.5332-0.30485 5.0571-0.90796 7.5175l-2e-3 7e-3c-0.59934 2.445-1.678 4.7466-3.1734 6.7716l-5.6387 7.6357c-1.4714 1.9926-2.2654 4.4043-2.2654 6.8813v17.179" fill="none" stroke="#000" stroke-width="5"/>
 <path d="m49.857 103.63c0.93165 0.0968 1.8622 0.19341 2.7507-0.25264 0.88844-0.44605 1.7359-1.4347 2.2302-2.529 0.49434-1.0942 0.63558-2.2948 0.38871-3.6188-0.24686-1.324-0.88245-2.7717-1.712-3.8489-0.8295-1.0772-1.8535-1.7834-3.4778-2.3134-1.6243-0.52997-3.8489-0.88307-6.0746-1.2364" fill="none" stroke="#000" stroke-width="5"/>
</svg>