<svg width="200" height="200" version="1.1" xmlns="http://www.w3.org/2000/svg">
 <path d="m100 25.539a74.46 74.46 0 0 0-74.461 74.461 74.46 74.46 0 0 0 74.461 74.461 74.46 74.46 0 0 0 74.461-74.461 74.46 74.46 0 0 0-74.461-74.461zm-55.057 37.082h14.682v74.758h-14.682v-74.758zm25.617 0h14.682v74.758h-14.682v-74.758zm25.617 0 73.361 37.379-73.361 37.379v-74.758z"/>
 <g fill="none" stroke="#999" stroke-width="3">
  <path d="m0 16v-16h16"/>
  <path d="m200 16v-16h-16"/>
  <path d="m0 184v16h16"/>
  <path d="m200 184v16h-16"/>
 </g>
</svg>