<svg width="200" height="200" version="1.1" xmlns="http://www.w3.org/2000/svg">
 <g fill="none" stroke="#999" stroke-width="3">
  <path d="m0 16v-16h16"/>
  <path d="m200 16v-16h-16"/>
  <path d="m0 184v16h16"/>
  <path d="m200 184v16h-16"/>
 </g>
 <rect x="69.703" y="25.424" width="26.907" height="8.2627" rx="0" ry="0"/>
 <rect x="33.263" y="33.686" width="99.788" height="99.364" rx="8.0898" ry="8.0898" fill="none" stroke="#000" stroke-width="5"/>
 <g>
  <path d="m33.264 58.45-13.984-6.9476a5.5 5.5 0 0 0-4.2012-0.28906 5.5 5.5 0 0 0-3.1719 2.7676 5.5 5.5 0 0 0 2.4785 7.3711l18.879 9.3793"/>
  <path d="m133.05 58.45 13.984-6.9476a5.5 5.5 0 0 1 4.2012-0.28906 5.5 5.5 0 0 1 3.1719 2.7676 5.5 5.5 0 0 1-2.4785 7.3711l-18.879 9.3793"/>
  <path d="m141.07 146.29 45.055-7.9434a5.5 5.5 0 0 0 4.4609-6.373 5.5 5.5 0 0 0-6.3711-4.4609v0l-40.004 7.0546"/>
 </g>
 <path d="m13.923 133.47 9.5939 35.805h113.98l7.6793-28.66" fill="none" stroke="#000" stroke-width="5"/>
</svg>