<svg
   width="53.710419mm"
   height="53.710388mm"
   viewBox="0 0 53.710419 53.710388"
   version="1.1"
   id="svg5"
   xml:space="preserve"
   xmlns:inkscape="http://www.inkscape.org/namespaces/inkscape"
   xmlns:sodipodi="http://sodipodi.sourceforge.net/DTD/sodipodi-0.dtd"
   xmlns="http://www.w3.org/2000/svg"
   xmlns:svg="http://www.w3.org/2000/svg"><sodipodi:namedview
     id="namedview7"
     pagecolor="#ffffff"
     bordercolor="#000000"
     borderopacity="0.25"
     inkscape:showpageshadow="2"
     inkscape:pageopacity="0.0"
     inkscape:pagecheckerboard="0"
     inkscape:deskcolor="#d1d1d1"
     inkscape:document-units="mm"
     showgrid="false"
     inkscape:zoom="27.395714"
     inkscape:cx="172.8555"
     inkscape:cy="994.38911"
     inkscape:window-width="1920"
     inkscape:window-height="1017"
     inkscape:window-x="-8"
     inkscape:window-y="-8"
     inkscape:window-maximized="1"
     inkscape:current-layer="layer1" /><defs
     id="defs2" /><g
     inkscape:label="Layer 1"
     inkscape:groupmode="layer"
     id="layer1"
     transform="translate(-63.38762,-675.23088)"><g
       stroke="#999999"
       stroke-width="3"
       id="g6657"
       transform="matrix(0.26458333,0,0,0.26458333,63.784493,675.62776)"
       style="fill:none"><path
         d="M 0,16 V 0 h 16"
         id="path6649" /><path
         d="M 200,16 V 0 h -16"
         id="path6651" /><path
         d="m 0,184 v 16 h 16"
         id="path6653" /><path
         d="m 200,184 v 16 h -16"
         id="path6655" /></g><g
       id="g6756"
       transform="matrix(0.75816029,0,0,0.75816029,21.824171,169.91848)"
       style="stroke-width:1.31898"><path
         id="path1479-6-9-6"
         style="stroke-width:0.0923343"
         d="m 87.229832,691.57685 c -1.03615,-7e-5 -1.83038,0.79646 -1.83038,1.83813 0,1.04362 0.794153,1.83968 1.83038,1.83968 1.036099,0 1.832447,-0.79606 1.832447,-1.83968 0,-1.04167 -0.796271,-1.83813 -1.832447,-1.83813 z m 0.221691,4.13256 v 5.2e-4 c -0.58795,-0.0131 -0.655526,0.17133 -0.936377,0.47077 -0.755223,0.93189 -1.580911,1.92546 -2.317688,2.79414 -0.102314,0.12275 -0.159921,0.17517 -0.403592,0.17312 -0.451223,-0.008 -0.847067,7.9e-4 -1.19631,0.0212 H 81.1563 v 1.76371 h 3.092835 c 0.0217,1.5e-4 0.04191,10e-4 0.06356,10e-4 0.01421,0 0.02152,-0.002 0.03514,-0.002 0.0091,-1.5e-4 0.01814,-5.2e-4 0.02687,-10e-4 0.372599,-0.007 0.453316,-0.0731 0.719852,-0.33951 L 86.711,698.68081 c 0.448302,0.9804 0.870327,1.81431 1.316716,2.76107 0.05033,0.0968 0.169396,0.31432 0.0801,0.48369 l -4.442107,8.96999 1.629359,-0.006 c 0.852059,0.0187 1.207275,-0.56969 1.506884,-1.09606 1.20169,-2.42208 2.409045,-4.842 3.612699,-7.26415 l 0.227376,4.31033 c 0.05945,0.746 0.563272,0.93556 1.223698,0.95601 l 7.463628,0.0171 c 0,-0.8578 -0.850377,-1.99104 -2.234489,-2.04483 0,0 -2.665562,0.0302 -4.059184,0.0357 -0.176703,0 -0.224875,-0.0985 -0.245463,-0.24546 -0.06475,-1.10889 -0.12653,-2.22535 -0.195336,-3.33416 -0.04305,-0.55045 -0.0914,-0.93157 -0.251148,-1.34824 -0.52062,-1.11621 -1.041433,-2.22705 -1.562696,-3.33933 l 1.907377,-0.0227 c 0.0501,-0.002 0.08869,0.0104 0.114722,0.0543 l 1.380795,2.41794 c 0.569376,1.03819 2.107665,0.28109 1.592151,-0.8201 l -1.69292,-2.83135 c -0.297721,-0.4427 -0.433618,-0.59561 -1.207161,-0.61961 0,0 -3.614473,-0.006 -5.424477,-0.006 z" /><g
         stroke="#000000"
         id="g6683"
         transform="matrix(0.26458333,0,0,0.26458333,63.784493,675.62776)"
         style="fill:none;stroke-width:1.73971"><g
           stroke-width="6.59491"
           id="g6665"><circle
             cx="100"
             cy="100"
             r="50"
             id="circle6659"
             style="stroke-width:6.59491" /><path
             d="m 99.997,163.67 v 26.448"
             id="path6661"
             style="stroke-width:6.59491" /><path
             d="M 36.802,100.47 H 10.354"
             id="path6663"
             style="stroke-width:6.59491" /></g><path
           d="M 81.216,53.661 V 16.326 h 37.564 v 37.335"
           stroke-width="6.59491"
           id="path6667" /><g
           stroke-width="6.59491"
           id="g6681"><path
             d="m 145.02,145.03 18.702,18.702"
             id="path6669"
             style="stroke-width:6.59491" /><path
             d="m 163.67,100 h 26.448"
             id="path6671"
             style="stroke-width:6.59491" /><path
             d="M 145.03,54.977 163.732,36.275"
             id="path6673"
             style="stroke-width:6.59491" /><path
             d="M 54.977,54.974 36.275,36.272"
             id="path6675"
             style="stroke-width:6.59491" /><path
             d="m 36.326,99.997 -26.448,2e-6"
             id="path6677"
             style="stroke-width:6.59491" /><path
             d="M 54.974,145.02 36.272,163.722"
             id="path6679"
             style="stroke-width:6.59491" /></g></g></g><g
       id="g6780"><g
         id="g6766"
         transform="translate(0,0.05703055)"><path
           style="fill:none;fill-opacity:1;stroke:#000000;stroke-width:1.452;stroke-dasharray:none;stroke-opacity:1"
           d="m 80.503342,686.64294 9.801427,-9.88859 9.801431,9.88859"
           id="path6758"
           sodipodi:nodetypes="ccc" /><path
           style="fill:none;fill-opacity:1;stroke:#000000;stroke-width:1.452;stroke-dasharray:none;stroke-opacity:1"
           d="m 80.503342,717.41516 9.801427,9.88859 9.801431,-9.88859"
           id="path6762"
           sodipodi:nodetypes="ccc" /></g><g
         id="g6772"
         transform="rotate(90,90.276256,702.05757)"><path
           style="fill:none;fill-opacity:1;stroke:#000000;stroke-width:1.452;stroke-dasharray:none;stroke-opacity:1"
           d="m 80.503342,686.64294 9.801427,-9.88859 9.801431,9.88859"
           id="path6768"
           sodipodi:nodetypes="ccc" /><path
           style="fill:none;fill-opacity:1;stroke:#000000;stroke-width:1.452;stroke-dasharray:none;stroke-opacity:1"
           d="m 80.503342,717.41516 9.801427,9.88859 9.801431,-9.88859"
           id="path6770"
           sodipodi:nodetypes="ccc" /></g></g></g></svg>