<svg width="200" height="200" version="1.1" xmlns="http://www.w3.org/2000/svg">
 <g fill="none">
  <g stroke="#999" stroke-width="3">
   <path d="m0 16v-16h16"/>
   <path d="m200 16v-16h-16"/>
   <path d="m0 184v16h16"/>
   <path d="m200 184v16h-16"/>
  </g>
  <g stroke="#000" stroke-width="5">
   <path d="m106.96 68.277c-4.9049 3.7053-9.4128 8.7745-14.948 8.8536-9.0644-0.24882-15.193-12.567-23.843-12.68-5.6723 0.16381-10.2 5.0453-14.914 8.7027"/>
   <rect x="33.605" y="33.605" width="132.79" height="132.79"/>
   <path d="m33.605 166.39 132.79-132.79"/>
   <path d="m89.798 16.662 29.346 16.943-29.346 16.943"/>
   <path d="m97.684 127.19h55.456"/>
   <path d="m97.684 140.17h12.974"/>
   <path d="m118.93 140.17h12.974"/>
   <path d="m140.17 140.17h12.974"/>
  </g>
 </g>
</svg>