<svg width="200" height="200" version="1.1" xmlns="http://www.w3.org/2000/svg">
 <g fill="none">
  <g stroke="#999" stroke-width="3">
   <path d="m0 16v-16h16"/>
   <path d="m200 16v-16h-16"/>
   <path d="m0 184v16h16"/>
   <path d="m200 184v16h-16"/>
  </g>
  <g stroke="#000" stroke-width="5">
   <path d="m156.43 151.69h-102.39c-20.259 0-37.337-15.109-39.806-35.217-2.469-20.108 10.446-38.9 30.104-43.801 2.4058-0.59983 4.862-0.97527 7.3372-1.1215 7.6249-0.45044 15.22 1.2859 21.892 5.0049l17.907 9.9818"/>
   <path d="m148.63 99.159a26.847 26.847 0 0 1 23.579 3.9696 26.847 26.847 0 0 1 9.7526 30.015 26.847 26.847 0 0 1-25.533 18.551"/>
   <path d="m51.533 71.596a50.486 50.486 0 0 1 35.95-35.506 50.486 50.486 0 0 1 55.446 21.924 50.486 50.486 0 0 1-4.1153 59.481"/>
  </g>
 </g>
</svg>