<svg
   width="53.710449mm"
   height="53.710388mm"
   viewBox="0 0 53.710449 53.710388"
   version="1.1"
   id="svg20990"
   xml:space="preserve"
   xmlns:inkscape="http://www.inkscape.org/namespaces/inkscape"
   xmlns:sodipodi="http://sodipodi.sourceforge.net/DTD/sodipodi-0.dtd"
   xmlns="http://www.w3.org/2000/svg"
   xmlns:svg="http://www.w3.org/2000/svg"><sodipodi:namedview
     id="namedview20992"
     pagecolor="#ffffff"
     bordercolor="#000000"
     borderopacity="0.25"
     inkscape:showpageshadow="2"
     inkscape:pageopacity="0.0"
     inkscape:pagecheckerboard="0"
     inkscape:deskcolor="#d1d1d1"
     inkscape:document-units="mm"
     showgrid="false"
     showguides="false" /><defs
     id="defs20987" /><g
     inkscape:label="Layer 1"
     inkscape:groupmode="layer"
     id="layer1"
     transform="translate(-1065.3294,-959.95462)"><path
       id="path40944"
       style="color:#000000;fill:#000000;stroke-linecap:round;-inkscape-stroke:none"
       d="m 1092.1838,963.7366 c -12.7355,0 -23.0725,10.33902 -23.0725,23.07456 0,12.73553 10.337,23.07194 23.0725,23.07194 12.7356,0 23.0741,-10.33641 23.0741,-23.07194 0,-12.73554 -10.3385,-23.07456 -23.0741,-23.07456 z m 0,1.28157 c 12.0427,0 21.793,9.7503 21.793,21.79299 0,12.04269 -9.7503,21.79094 -21.793,21.79094 -12.0427,0 -21.7909,-9.74825 -21.7909,-21.79094 0,-12.04269 9.7482,-21.79299 21.7909,-21.79299 z m 10.6526,4.89428 v 0.8909 1.64021 h -0.9085 v 0.64079 2.90214 h -1.4045 v -0.971 a 1.7115234,1.7115234 0 0 0 -1.4821,0.85577 1.7115234,1.7115234 0 0 0 0,1.71152 1.7115234,1.7115234 0 0 0 1.4821,0.85576 v -0.97152 h 1.4045 v 2.33423 h -3.6581 -0.8909 v 1.5813 h -9.4057 v 16.74471 1.23042 h -9.7777 -0.8904 v 1.78332 h 0.8904 26.4217 v -23.67398 h 1.9709 v -1.48053 h -1.9709 v -5.18314 -0.8909 z m -16.1489,3.15639 -0.7539,1.27538 2.9491,1.74201 h -10.5228 v 1.4826 h 10.5259 l -2.9522,1.74408 0.7539,1.27537 6.3655,-3.75998 z m 4.2964,25.05842 h 9.5457 l 0.9684,1.23042 h -11.4825 z" /><g
       stroke="#999999"
       stroke-width="3"
       id="g25938-1-8"
       transform="matrix(0.26458333,0,0,0.26458333,1065.7263,960.35151)"
       style="fill:none"
       inkscape:export-filename="antitip.svg"
       inkscape:export-xdpi="96"
       inkscape:export-ydpi="96"><g
         id="g26000-7-1"><path
           d="M 0,16 V 0 h 16"
           id="path25930-1-4" /><path
           d="M 200,16 V 0 h -16"
           id="path25932-3-6" /><path
           d="m 0,184 v 16 h 16"
           id="path25934-5-1" /><path
           d="m 200,184 v 16 h -16"
           id="path25936-3-3" /></g></g></g></svg>