<svg width="200" height="200" version="1.1" xmlns="http://www.w3.org/2000/svg">
 <g fill="none" stroke="#999" stroke-width="3">
  <path d="m0 16v-16h16"/>
  <path d="m200 16v-16h-16"/>
  <path d="m0 184v16h16"/>
  <path d="m200 184v16h-16"/>
 </g>
 <path d="m65.622 37.732c-7.9772-3.3043-17.159-1.4778-23.265 4.6277-6.1055 6.1055-7.9319 15.288-4.6277 23.265 3.3043 7.9772 11.089 13.178 19.723 13.178h85.093c11.79 0 21.348-9.5578 21.348-21.348s-9.5578-21.348-21.348-21.348c-11.79 1e-6 -21.348 9.5578-21.348 21.348v85.093c0 8.6345 5.2013 16.419 13.178 19.723s17.159 1.4778 23.265-4.6277 7.9319-15.288 4.6277-23.265-11.089-13.178-19.723-13.178h-85.093c-8.6345 0-16.419 5.2013-19.723 13.178s-1.4778 17.159 4.6277 23.265c6.1055 6.1055 15.288 7.9319 23.265 4.6277 7.9772-3.3043 13.178-11.089 13.178-19.723v-85.093c0-8.6345-5.2013-16.419-13.178-19.723z" fill="none" stroke="#000" stroke-width="5"/>
</svg>