<svg width="200" height="200" version="1.1" xmlns="http://www.w3.org/2000/svg">
 <g fill="none">
  <g stroke="#999" stroke-width="3">
   <path d="m0 16v-16h16"/>
   <path d="m200 16v-16h-16"/>
   <path d="m0 184v16h16"/>
   <path d="m200 184v16h-16"/>
  </g>
  <g stroke="#000">
   <g stroke-width="6">
    <path d="m89.369 49.579v100.84"/>
    <path d="m98.094 67.44-17.45 65.123"/>
    <path d="m114.58 56.334-50.423 87.334"/>
    <path d="m113.21 76.164-47.673 47.673"/>
    <path d="m133.04 74.79-87.334 50.423"/>
    <path d="m121.93 91.277-65.123 17.45"/>
    <path d="m161.06 100h-122.12"/>
    <path d="m121.93 108.72-65.123-17.45"/>
    <path d="m133.04 125.21-87.334-50.423"/>
    <path d="m113.21 123.84-47.673-47.673"/>
    <path d="m114.58 143.67-50.423-87.334"/>
    <path d="m98.094 132.56-17.45-65.123"/>
   </g>
   <path d="m130.19 172.89-60.383-4e-5 -42.697-42.699 5e-5 -60.383 42.699-42.697 60.383 4e-5 42.697 42.699-5e-5 60.383z" stroke-width="5"/>
  </g>
 </g>
</svg>