<svg width="200" height="200" version="1.1" xmlns="http://www.w3.org/2000/svg">
 <g fill="none">
  <g stroke="#999" stroke-width="3">
   <path d="m0 16v-16h16"/>
   <path d="m200 16v-16h-16"/>
   <path d="m0 184v16h16"/>
   <path d="m200 184v16h-16"/>
  </g>
  <g stroke="#000">
   <g stroke-width="5">
    <path d="m66.582 79.038v73.817h66.836v-73.817"/>
    <path d="m66.582 98.237h-19.202"/>
    <path d="m153.09 97.445v-18.904c0-1.9344-0.51087-3.8351-1.482-5.5082l-1.8609-3.2043c-0.9711-1.6731-2.3674-3.0593-4.0472-4.0191l-29.507-16.857c-4.3e-4 8.942-7.2511 16.191-16.195 16.19-8.9439 2.41e-4 -16.195-7.2484-16.195-16.19l-29.507 16.857c-1.6798 0.95972-3.0761 2.346-4.0472 4.0191l-1.8609 3.2043c-0.97111 1.673-1.482 3.5738-1.482 5.5082v18.904"/>
    <path d="m133.42 98.237h19.202"/>
   </g>
   <path d="m116.33 26.475a75.318 75.318 0 0 1 58.984 73.525 75.318 75.318 0 0 1-58.946 73.517" stroke-width="5"/>
   <path d="m83.628 173.52a75.318 75.318 0 0 1-58.946-73.517 75.318 75.318 0 0 1 58.946-73.517" stroke-width="5"/>
  </g>
 </g>
</svg>