<svg width="200" height="200" version="1.1" xml:space="preserve" xmlns="http://www.w3.org/2000/svg">
 <g fill="none" stroke="#999" stroke-width="3">
  <path d="m0 16v-16h16"/>
  <path d="m200 16v-16h-16"/>
  <path d="m0 184v16h16"/>
  <path d="m200 184v16h-16"/>
 </g>
 <path d="m139.27 114.32v-91.137h37.104v140.8h-152.75v-49.667l21.081-36.524 18.469 31.083 18.469-31.083 18.469 31.083 18.469-31.083 20.292 35.159" fill="none" stroke="#000" stroke-width="5"/>
 <path d="m86.043 121.89c-8.2659 0-15 6.7341-15 15 0 8.2659 6.7341 15 15 15 2.2625 0 4.4096-0.50778 6.3359-1.4102v-3.5137c-1.8328 1.1517-4.0035 1.8203-6.3359 1.8203-6.5887 0-11.896-5.3078-11.896-11.896 0-6.5887 5.3078-11.896 11.896-11.896 2.3323 0 4.5032 0.66674 6.3359 1.8184v-3.5117c-1.9263-0.90238-4.0734-1.4102-6.3359-1.4102z" fill-rule="evenodd" fill="#000"/>
 <path d="m110.84 121.89c-8.2659 0-15 6.7341-15 15 0 8.2659 6.7341 15 15 15 2.2625 0 4.4096-0.50778 6.3359-1.4102v-3.5137c-1.8328 1.1517-4.0035 1.8203-6.3359 1.8203-6.5887 0-11.896-5.3078-11.896-11.896 0-6.5887 5.3078-11.896 11.896-11.896 2.3323 0 4.5032 0.66674 6.3359 1.8184v-3.5117c-1.9263-0.90238-4.0734-1.4102-6.3359-1.4102z" fill-rule="evenodd" fill="#000"/>
</svg>