<svg width="200" height="200" version="1.1" xmlns="http://www.w3.org/2000/svg">
 <path d="m192.19 100h-125.34" stroke="#000" stroke-width="5"/>
 <g fill="none" stroke="#000" stroke-width="5">
  <path d="m130.32 86.441c-0.91044-9.1871-2.7497-18.268-5.4952-27.099-17.744-7.9954-36.998-12.138-56.474-12.138-19.61 0-38.992 4.1992-56.869 12.326-4.103 13.137-6.1742 26.8-6.1742 40.542 0 13.766 2.0787 27.453 6.1619 40.587 17.744 7.9954 36.998 12.138 56.474 12.138 19.61 0 38.992-4.1992 56.869-12.326 2.7422-8.7799 4.5768-17.795 5.4922-26.911"/>
  <path d="m97.292 82.426-30.432 17.578 30.432 17.57"/>
  <path d="m161.76 82.426 30.432 17.578-30.432 17.57"/>
 </g>
 
<g fill="none" stroke="#999" stroke-width="3">
  <path d="m0 16v-16h16"/>
  <path d="m200 16v-16h-16"/>
  <path d="m0 184v16h16"/>
  <path d="m200 184v16h-16"/>
 </g></svg>