<svg width="200" height="200" version="1.1" xmlns="http://www.w3.org/2000/svg"><g stroke-width="1.3832"><path d="m52.034 46.591 15.988 27.702 15.988-27.702z"/><path d="m84.011 46.591 15.988 27.702 15.988-27.702z"/><path d="m115.99 46.591 15.989 27.702 15.988-27.702z"/></g><path d="m134.11 151.38c-14.582-2.9915-27.186-12.083-34.629-24.978-7.4604-12.926-9.0183-28.432-4.2786-42.584l8.5707 0.04076c4.7233 14.142 3.1607 29.631-4.2922 42.544-7.46 12.925-20.105 22.028-34.726 24.998l-4.2807-7.4124c9.8826-11.182 24.086-17.586 39.007-17.586 14.937 0 29.155 6.4178 39.039 17.622z" fill="none" stroke="#000" stroke-width="5"/><rect x="16.5" y="33" width="167" height="134" rx="8" ry="8" fill="none" stroke="#000" stroke-width="5"/> 
<g fill="none" stroke="#999" stroke-width="3">
  <path d="m0 16v-16h16"/>
  <path d="m200 16v-16h-16"/>
  <path d="m0 184v16h16"/>
  <path d="m200 184v16h-16"/>
 </g></svg>