<svg width="200" height="200" version="1.1" xmlns="http://www.w3.org/2000/svg">
 <g>
  <path d="m141.57 81.612c-0.70969 11.076 16.144 4.1533 9.2427-3.826-3.2574-4.1168-9.5654-1.156-9.2427 3.826z"/>
  <path d="m111.13 78.669c-6.9366 9.2613 14.771 12.367 9.8875 0.97377-0.75235-5.2078-7.322-3.5339-9.8875-0.97377z"/>
  <path d="m47.668 79.805c-3.0665 10.524 14.514 9.1182 10.986-0.81973-1.9491-4.0825-9.7515-3.7906-10.986 0.81973z"/>
  <path d="m79.495 78.788c-5.5464 8.4276 13.225 12.74 10.782 1.9454-0.51974-5.6688-8.007-6.0105-10.782-1.9454z"/>
  <path d="m141.91 108.54c-7.5936 6.7643 7.6354 17.316 11.361 7.7482 4.0412-7.4234-6.05-14.052-11.361-7.7482z"/>
  <path d="m109.47 110.09c-4.323 7.0491 7.4512 13.723 11.872 7.2151 6.2986-7.8416-7.5758-16.23-11.872-7.2151z"/>
  <path d="m46.265 111.71c-2.2215 10.121 14.798 11.763 14.079 0.84487-0.05311-7.8633-13.288-9.0695-14.079-0.84487z"/>
  <path d="m78.698 109.9c-5.7193 9.5126 12.553 15.318 12.6 3.9312 1.0882-7.2054-9.9744-11.267-12.6-3.9312z"/>
  <path d="m140.17 139.79c-4.3407 7.1919 3.5977 16.55 11.076 11.647 7.9901-4.3172 2.4062-18.432-6.8276-14.503-1.741 0.28322-3.3888 1.2846-4.2488 2.8562z"/>
  <path d="m108.79 140.98c-4.8817 6.643 6.5342 16.341 12.397 10.271 6.133-5.0082 0.98488-17.892-7.2694-14.943-2.2656 0.7813-3.9033 2.6947-5.1279 4.6717z"/>
  <path d="m46.025 140.17c-5.2034 7.8244 7.8226 16.887 13.565 9.7384 5.1345-5.7511-0.27533-14.843-7.7954-13.153-2.3306 0.13377-4.5462 1.418-5.77 3.415z"/>
  <path d="m77.739 140.22c-5.0774 6.8025 4.3296 15.278 11.075 11.69 7.1873-3.852 3.6011-16.675-4.8019-15.554-2.5454 0.20764-4.9256 1.7042-6.273 3.8642z"/>
  <path d="m142.24 48.762c-0.57638 12.584 17.428 0.28266 5.4181-2.6743-2.1079-0.43558-4.8305 0.35184-5.4181 2.6743z"/>
  <path d="m112.65 47.307c-6.8141 7.2289 10.523 10.201 7.4204 1.2049-1.4226-2.5274-5.2494-3.0601-7.4204-1.2049z"/>
  <path d="m49.561 47.549c-6.0142 8.2068 13.297 9.3624 7.3246 0.17997-1.8611-1.9677-5.4123-2.2395-7.3246-0.17997z"/>
  <path d="m82.004 47.098c-7.4174 6.5182 9.1284 11.209 6.6207 1.9611-0.86723-2.8545-4.3352-4.0252-6.6207-1.9611z"/>
  <path d="m162.57 103.49c7.3463 0.87628 8.6173-10.669 1.6216-12.253-8.5997-1.3598-11.216 11.708-1.6216 12.253z"/>
  <path d="m128.15 92.825c-6.5517 3.8556 0.38054 14.533 6.3991 9.7051 7.0428-3.1254-1.2557-16.532-6.3991-9.7051z"/>
  <path d="m95.555 93.502c-6.3775 6.219 6.6552 14.771 10.165 6.7581 3.2363-6.0172-5.8164-12.762-10.165-6.7581z"/>
  <path d="m64.897 92.97c-7.5961 5.7737 4.9106 15.339 9.37 7.7332 3.6044-5.8947-4.0907-12.943-9.37-7.7332z"/>
  <path d="m31.521 97.432c0.24945 7.7184 13.069 8.2848 12.07-0.43696-0.13267-8.4829-10.831-6.7934-12.07 0.43696z"/>
  <path d="m153.86 160.16c-0.87719 11.266 17.337 12.354 17.524 0.84367 1.0457-7.1375-7.9515-12.353-13.7-8.0855-2.4321 1.5397-3.8068 4.4036-3.8236 7.2418z"/>
  <path d="m122.71 158.47c-2.0677 9.4456 13.443 15.033 16.359 4.7891 4.3677-7.3081-4.4794-13.049-11.158-11.114-2.9482 0.64156-4.8228 3.4737-5.201 6.325z"/>
  <path d="m91.93 156.2c-4.0715 7.215 7.0884 16.484 13.433 11.113 5.7814-3.8431 5.0837-15.096-2.8292-15.535-4.0224-0.65102-8.7907 0.34242-10.604 4.4216z"/>
  <path d="m61.079 156c-4.8843 7.7972 4.7245 16.262 12.203 11.834 7.2243-3.0697 5.7358-15.249-2.2408-16.179-3.7948-0.79502-8.0436 0.9061-9.9624 4.3445z"/>
  <path d="m30.4 154.83c-6.0267 6.8622 5.611 19.381 12.371 12.108 6.2651-4.3276 4.2823-15.776-4.1578-15.559-3.0426-0.0853-6.192 1.142-8.2129 3.4505z"/>
  <path d="m155.1 129.64c0.22757 8.7423 14.278 8.346 15.046 0.20527 1.1926-7.3578-9.9863-11.619-13.851-5.1714-0.97885 1.4433-1.3613 3.2412-1.195 4.9662z"/>
  <path d="m124 127.87c-0.75116 7.1526 8.5166 11.704 12.93 5.4672 5.4787-5.6631-2.1472-14.776-8.8958-11.22-2.3493 0.89483-4.0073 3.2388-4.0342 5.7531z"/>
  <path d="m92.851 125.79c-2.8817 5.9464 6.4266 13.344 11.642 9.3594 7.5811-5.1088 1.4102-17.024-7.176-13.042-1.7825 0.76508-3.5038 1.954-4.4659 3.6825z"/>
  <path d="m64.516 122.47c-7.2344 3.5037-2.4673 15.176 5.1124 13.876 6.2809-0.30562 10.063-9.6601 4.2508-13.412-2.6159-2.2894-6.4918-2.3069-9.3633-0.46486z"/>
  <path d="m32.248 124.06c-6.5211 5.091 2.3696 14.976 8.725 11.501 8.2806-2.8778 3.1983-17.072-4.9797-13.749-1.3941 0.46245-2.6677 1.2543-3.7453 2.2472z"/>
  <path d="m157.82 64.582c-2.2777 9.3374 13.288 7.3414 9.1767-1.1923-1.7764-3.5741-8.6175-3.0673-9.1767 1.1923z"/>
  <path d="m126.72 63.855c-4.45 9.3766 14.265 8.8937 9.1064-0.81521-1.6052-2.9607-7.9736-2.2831-9.1064 0.81521z"/>
  <path d="m95.142 64.349c-2.8663 9.252 12.936 8.0987 9.9052-0.86031-1.7965-4.3445-8.0394-2.361-9.9052 0.86031z"/>
  <path d="m67.093 61.287c-7.6846 2.2033-0.48851 13.533 5.0281 7.841 4.3753-3.9494 0.19938-9.2913-5.0281-7.841z"/>
  <path d="m32.87 63.972c-4.7048 7.2705 11.266 10.152 10.249 1.4182-0.84753-5.1233-7.9828-6.0604-10.249-1.4182z"/>
  <path d="m158.55 33.337c-2.8745 10.664 14.98 2.4113 5.9248-2.6799-2.3184-1.0415-5.1151 0.33859-5.9248 2.6799z"/>
  <path d="m129.29 31.553c-7.412 5.4355 8.5872 10.185 5.8426 1.1985-1.2053-1.9198-3.9682-2.0399-5.8426-1.1985z"/>
  <path d="m96.718 32.501c-4.4438 8.4822 11.823 7.4851 6.4804-0.69504-1.6592-2.2738-5.1691-1.5507-6.4804 0.69504z"/>
  <path d="m66.978 30.992c-8.284 4.0815 7.706 12.921 6.0111 2.393-0.22318-2.906-3.843-3.4841-6.0111-2.393z"/>
  <path d="m35.58 30.936c-7.5036 3.6529 5.834 12.462 6.2921 3.2209-0.12965-3.1243-3.7992-4.1886-6.2921-3.2209z"/>
 </g>
 <g fill="none" stroke="#999" stroke-width="3">
  <path d="m0 16v-16h16"/>
  <path d="m200 16v-16h-16"/>
  <path d="m0 184v16h16"/>
  <path d="m200 184v16h-16"/>
 </g>
</svg>