<svg width="200" height="200" version="1.1" xmlns="http://www.w3.org/2000/svg">
 <g fill="none">
  <g stroke="#999" stroke-width="3">
   <path d="m0 16v-16h16"/>
   <path d="m200 16v-16h-16"/>
   <path d="m0 184v16h16"/>
   <path d="m200 184v16h-16"/>
  </g>
  <g stroke="#000">
   <circle cx="135.7" cy="100" r="56.25" stroke-width="5"/>
   <g stroke-width="5">
    <path d="m50.463 62.349a80.191 80.191 0 0 1 9.3887 37.651 80.191 80.191 0 0 1-9.389 37.652"/>
    <path d="m28.374 74.096a55.172 55.172 0 0 1 6.459 25.904 55.172 55.172 0 0 1-6.4566 25.899"/>
    <path d="m5.8879 86.054a29.704 29.704 0 0 1 3.4775 13.946 29.704 29.704 0 0 1-3.4798 13.951"/>
   </g>
  </g>
 </g>
</svg>