<svg width="200" height="200" version="1.1" xmlns="http://www.w3.org/2000/svg">
 <g fill="none" stroke="#000">
  <g stroke-width="5">
   <path d="m67.445 52.838c2.3012-1.4572 4.6244-2.9213 7.3074-4.06 2.683-1.1387 5.7791-1.9444 8.97-1.943 3.1903 0.0013 6.2839 0.80923 8.9657 1.9482 2.6819 1.139 5.0059 2.6018 7.3117 4.0548 2.306 1.4532 4.6299 2.9159 7.3117 4.0548 2.6819 1.139 5.7752 1.9468 8.9657 1.9482 3.191 0.0013 6.2874-0.80426 8.97-1.943 2.683-1.1387 5.0063-2.6028 7.3074-4.06"/>
   <path d="m67.445 72.741c2.3012-1.4572 4.6244-2.9213 7.3074-4.06 2.683-1.1387 5.7791-1.9444 8.97-1.943 3.1903 0.0013 6.2839 0.80923 8.9657 1.9482 2.6819 1.139 5.0059 2.6018 7.3117 4.0548 2.306 1.4532 4.6299 2.9159 7.3117 4.0548 2.6819 1.139 5.7752 1.9468 8.9657 1.9482 3.191 1e-3 6.2874-0.80427 8.97-1.943 2.683-1.1387 5.0063-2.6028 7.3074-4.06"/>
   <path d="m67.445 92.644c2.3012-1.4572 4.6244-2.9213 7.3074-4.06 2.683-1.1387 5.7791-1.9444 8.97-1.943 3.1903 1e-3 6.2839 0.80923 8.9657 1.9482 2.6819 1.139 5.0059 2.6018 7.3117 4.0548 2.306 1.4532 4.6299 2.9159 7.3117 4.0548 2.6819 1.139 5.7752 1.9468 8.9657 1.9482 3.191 1e-3 6.2874-0.80427 8.97-1.943 2.683-1.1387 5.0063-2.6028 7.3074-4.06"/>
   <rect transform="scale(1,-1)" x="16.5" y="-167" width="167" height="134" rx="8" ry="8"/>
  </g>
  <ellipse cx="100.74" cy="133.48" rx="66.666" ry="18.427" stroke-width="5"/>
  <path d="m56.018 104.65 31.15 10.802-30.888 17.833" stroke-width="5"/>
 </g>
 
<g fill="none" stroke="#999" stroke-width="3">
  <path d="m0 16v-16h16"/>
  <path d="m200 16v-16h-16"/>
  <path d="m0 184v16h16"/>
  <path d="m200 184v16h-16"/>
 </g></svg>