<svg width="200" height="200" version="1.1" xmlns="http://www.w3.org/2000/svg">
 <g fill="none" stroke="#999" stroke-width="3">
  <path d="m0 16v-16h16"/>
  <path d="m200 16v-16h-16"/>
  <path d="m0 184v16h16"/>
  <path d="m200 184v16h-16"/>
 </g>
 <path d="m183.26 55.932v77.119h-166.53v-77.119" fill="none" stroke="#000" stroke-width="5"/>
 <path d="m76.814 65.199 18.912 27.012c-6.3048 9.0043-12.609 18.009-18.914 27.014h8.5469c4.8804-6.9699 9.7604-13.94 14.641-20.91l14.641 20.91h8.5469l-18.914-27.014c6.3042-9.0038 12.608-18.008 18.912-27.012h-8.5449c-4.8804 6.9699-9.7603 13.94-14.641 20.91l-14.641-20.91z"/>
</svg>