<svg
   width="53.710388mm"
   height="53.710449mm"
   viewBox="0 0 53.710388 53.710449"
   version="1.1"
   id="svg20990"
   xml:space="preserve"
   xmlns:inkscape="http://www.inkscape.org/namespaces/inkscape"
   xmlns:sodipodi="http://sodipodi.sourceforge.net/DTD/sodipodi-0.dtd"
   xmlns="http://www.w3.org/2000/svg"
   xmlns:svg="http://www.w3.org/2000/svg"><sodipodi:namedview
     id="namedview20992"
     pagecolor="#ffffff"
     bordercolor="#000000"
     borderopacity="0.25"
     inkscape:showpageshadow="2"
     inkscape:pageopacity="0.0"
     inkscape:pagecheckerboard="0"
     inkscape:deskcolor="#d1d1d1"
     inkscape:document-units="mm"
     showgrid="false"
     showguides="false" /><defs
     id="defs20987" /><g
     inkscape:label="Layer 1"
     inkscape:groupmode="layer"
     id="layer1"
     transform="translate(-905.22054,-623.09227)"><path
       d="m 932.07574,624.81877 -25.30845,42.89425 h 50.61744 z"
       stroke-width="1.32292"
       id="path36187"
       style="fill:none;stroke:#000000" /><g
       fill="none"
       stroke="#999999"
       stroke-width="3"
       id="g36203"
       transform="matrix(0.26458333,0,0,0.26458333,905.61741,623.48917)"
       inkscape:export-filename="Lambv.svg"
       inkscape:export-xdpi="96"
       inkscape:export-ydpi="96"><path
         d="M 0,16 V 0 h 16"
         id="path36195" /><path
         d="M 200,16 V 0 h -16"
         id="path36197" /><path
         d="m 0,184 v 16 h 16"
         id="path36199" /><path
         d="m 200,184 v 16 h -16"
         id="path36201" /></g><path
       id="rect40061-4"
       style="fill:#000000;fill-opacity:1;stroke:none;stroke-width:1.72347;stroke-linecap:butt;stroke-linejoin:miter;stroke-dasharray:none;stroke-opacity:1"
       d="m 932.93685,639.2168 -0.7121,0.57309 0.7767,2.80603 -10.45156,8.41034 6.07508,7.54941 -4.46019,2.66857 c 0.0344,-0.0397 0.0645,-0.0845 0.0879,-0.13436 0.13601,-0.29025 0.0108,-0.63579 -0.27957,-0.77153 0,0 -0.59377,-0.2792 -1.14825,-0.60358 -0.0594,-0.0348 -0.11815,-0.0704 -0.1757,-0.10594 l -0.0506,-0.0382 c 0,0 -0.29351,-0.22635 -0.20723,-0.51573 v -0.002 c 0.0369,-0.13818 0.13409,-0.19692 0.23772,-0.22738 0.5109,0.23797 1.05782,0.55649 1.19579,0.69195 0.28762,0.28144 0.74874,0.27723 1.03094,-0.01 0.28281,-0.28786 0.27808,-0.75058 -0.0103,-1.03301 -0.49243,-0.48347 -1.16486,-0.783 -1.76785,-1.04904 -0.0574,-0.0253 -0.11297,-0.0492 -0.16847,-0.0729 l 0.063,-0.15451 c 0.75189,-0.1229 1.30405,-0.77241 1.30431,-1.53428 -1.3e-4,-0.85871 -0.69622,-1.55481 -1.55494,-1.55494 -0.85892,-1.6e-4 -1.55533,0.69603 -1.55546,1.55494 3.2e-4,0.39963 0.15446,0.7838 0.43046,1.07281 l -0.093,0.15348 c -0.49111,-0.0466 -0.95163,0.0558 -1.36064,0.18396 -0.5181,0.16241 -0.98945,0.36605 -1.46709,0.49403 -0.69079,0.1851 -1.15094,0.56625 -1.39423,0.92811 -0.24329,0.36187 -0.28732,0.76171 -0.28732,0.76171 l -0.004,0.0703 0.11731,0.98599 c -0.006,1.54592 -0.73846,2.41225 -0.73846,2.41225 -0.25882,0.31007 -0.21672,0.77137 0.0941,1.0294 0.30962,0.25754 0.76931,0.21564 1.02733,-0.0935 0,0 0.67089,-0.81704 0.95498,-2.16627 0.14332,-0.0453 0.47157,-0.12157 0.71934,0.031 l 0.0424,2.32079 c 0.005,0.3204 0.26975,0.57564 0.59015,0.56999 0.32101,-0.005 0.57651,-0.27069 0.56999,-0.59169 l -0.0563,-3.12436 c 0.0159,-0.0645 0.0497,-0.15271 0.0765,-0.2527 0.0216,-0.0805 0.21746,-0.24269 0.34158,-0.30902 h 0.002 c 0.12708,-0.0727 0.35671,-0.15787 0.39429,-0.1478 0.0699,0.0187 0.12925,0.0474 0.1726,0.0687 0.0259,0.0236 0.0525,0.0467 0.0796,0.0698 0.2495,0.2125 0.55404,0.40617 0.86145,0.58601 0.61482,0.35967 1.2423,0.65215 1.2423,0.65215 0.1218,0.0571 0.25294,0.0676 0.37465,0.0398 l -1.48208,0.88677 0.75655,1.26246 6.42493,-3.84628 3.43596,4.27054 1.13844,1.41438 1.21956,-0.98133 -0.0248,-2.31045 7.39697,-5.9521 2.25154,0.51884 1.21956,-0.98186 -1.42006,-1.76475 z" /></g></svg>