<svg width="200" height="200" version="1.1" xmlns="http://www.w3.org/2000/svg">
 <g fill="none">
  <g stroke="#999" stroke-width="3">
   <path d="m0 16v-16h16"/>
   <path d="m200 16v-16h-16"/>
   <path d="m0 184v16h16"/>
   <path d="m200 184v16h-16"/>
  </g>
  <g stroke="#000" stroke-width="5">
   <path d="m100 31.605 19.895 36.201c5.5744 10.143 3.412 23.026-5.1287 30.554-8.5407 7.5281-20.994 7.5281-29.534 0-8.5404-7.5281-10.703-20.411-5.1287-30.554z"/>
   <path d="m82.818 119.91a17.182 17.209 0 0 1-8.5911 14.903 17.182 17.209 0 0 1-17.182 0 17.182 17.209 0 0 1-8.5911-14.903"/>
   <path d="m117.18 119.91a17.182 17.209 0 0 1-8.5911 14.903 17.182 17.209 0 0 1-17.182 0 17.182 17.209 0 0 1-8.5911-14.903"/>
   <path d="m151.55 119.91a17.182 17.209 0 0 1-8.5911 14.903 17.182 17.209 0 0 1-17.182 0 17.182 17.209 0 0 1-8.5911-14.903"/>
   <path d="m178.32 134.19a17.182 17.209 0 0 1-0.99611 0.62239 17.182 17.209 0 0 1-17.182 0 17.182 17.209 0 0 1-8.5911-14.903"/>
   <path d="m48.453 119.91a17.182 17.209 0 0 1-8.5911 14.903 17.182 17.209 0 0 1-17.182 0 17.182 17.209 0 0 1-0.99612-0.62239"/>
   <path d="m181.36 112.08-7.2034 51.059h-148.31l-7.2034-51.059"/>
  </g>
 </g>
</svg>