<svg width="200" height="200" version="1.1" xmlns="http://www.w3.org/2000/svg">
 <g fill="none">
  <g stroke="#999" stroke-width="3">
   <path d="m0 16v-16h16"/>
   <path d="m200 16v-16h-16"/>
   <path d="m0 184v16h16"/>
   <path d="m200 184v16h-16"/>
  </g>
  <path d="m56.488 82.549v-0.0039c0.0022-24.029 19.482-43.508 43.512-43.508 24.029-2e-6 43.51 19.479 43.512 43.508v0.0039l-1e-5 0.02744-6.7906 97.083 20.177 1.411 6.8893-98.522c0-35.229-28.559-63.788-63.788-63.788-35.229 0-63.788 28.559-63.788 63.788l6.8893 98.522 20.177-1.411-6.7906-97.083z" stroke="#000" stroke-width="5"/>
  <path d="m76.377 164.99v13.453h47.246v-13.453z" stroke="#000" stroke-width="5"/>
 </g>
</svg>