<svg width="200" height="200" version="1.1" xmlns="http://www.w3.org/2000/svg">
 <path d="m6.4686 99.994h97.264" stroke="#000" stroke-width="5"/>
 <g fill="none" stroke="#000" stroke-width="5">
  <path d="m72.778 82.42 30.432 17.578-30.432 17.57"/>
  <path d="m123.31 157.92c21.062 0 41.879-4.6065 61.078-13.522 4.4067-14.411 6.6312-29.4 6.6312-44.474 0-15.101-2.2326-30.116-6.618-44.523-19.058-8.7709-39.737-13.315-60.655-13.315-21.062 0-41.879 4.6065-61.078 13.522-4.4067 14.411-6.6312 29.4-6.6312 44.474 0 15.101 2.2326 30.116 6.618 44.523 19.058 8.7709 39.737 13.315 60.655 13.315z"/>
  <circle transform="scale(-1,1)" cx="-130.81" cy="100.2" r="6.8"/>
  <circle transform="scale(-1,1)" cx="-159.67" cy="100.2" r="6.8"/>
 </g>
 
<g fill="none" stroke="#999" stroke-width="3">
  <path d="m0 16v-16h16"/>
  <path d="m200 16v-16h-16"/>
  <path d="m0 184v16h16"/>
  <path d="m200 184v16h-16"/>
 </g></svg>