<svg width="200" height="200" version="1.1" xmlns="http://www.w3.org/2000/svg">
 <path d="m154.92 68.538a23.464 23.464 0 0 1-23.464 23.464 23.464 23.464 0 0 1-23.464-23.464 23.464 23.464 0 0 1 23.464-23.464 23.464 23.464 0 0 1 23.464 23.464z" stroke="#000" stroke-width="5"/>
 <g fill="none">
  <g stroke="#999" stroke-width="3">
   <path d="m0 16v-16h16"/>
   <path d="m200 16v-16h-16"/>
   <path d="m0 184v16h16"/>
   <path d="m200 184v16h-16"/>
  </g>
  <g stroke="#000" stroke-width="5">
   <path d="m41.349 33.184h117.3c4.5232 0 8.1647 3.6415 8.1647 8.1647v117.3c0 4.5232-3.6414 8.1647-8.1647 8.1647h-117.3c-4.5232 0-8.1647-3.6414-8.1647-8.1647v-117.3c0-4.5232 3.6415-8.1647 8.1647-8.1647z"/>
   <path d="m92.002 68.538a23.464 23.464 0 0 1-23.464 23.464 23.464 23.464 0 0 1-23.464-23.464 23.464 23.464 0 0 1 23.464-23.464 23.464 23.464 0 0 1 23.464 23.464z"/>
   <path d="m45.074 131.46a23.464 23.464 0 0 0 23.464 23.464 23.464 23.464 0 0 0 23.464-23.464 23.464 23.464 0 0 0-23.464-23.464 23.464 23.464 0 0 0-23.464 23.464z"/>
   <path d="m108 131.46a23.464 23.464 0 0 0 23.464 23.464 23.464 23.464 0 0 0 23.464-23.464 23.464 23.464 0 0 0-23.464-23.464 23.464 23.464 0 0 0-23.464 23.464z"/>
  </g>
 </g>
</svg>