<svg
   width="53.710388mm"
   height="53.710388mm"
   viewBox="0 0 53.710388 53.710388"
   version="1.1"
   id="svg20990"
   xml:space="preserve"
   xmlns:inkscape="http://www.inkscape.org/namespaces/inkscape"
   xmlns:sodipodi="http://sodipodi.sourceforge.net/DTD/sodipodi-0.dtd"
   xmlns="http://www.w3.org/2000/svg"
   xmlns:svg="http://www.w3.org/2000/svg"><sodipodi:namedview
     id="namedview20992"
     pagecolor="#ffffff"
     bordercolor="#000000"
     borderopacity="0.25"
     inkscape:showpageshadow="2"
     inkscape:pageopacity="0.0"
     inkscape:pagecheckerboard="0"
     inkscape:deskcolor="#d1d1d1"
     inkscape:document-units="mm"
     showgrid="false"
     showguides="false" /><defs
     id="defs20987" /><g
     inkscape:label="Layer 1"
     inkscape:groupmode="layer"
     id="layer1"
     transform="translate(-904.47219,-500.73485)"><path
       id="path36332"
       style="fill:#000000;fill-opacity:1;stroke:none;stroke-width:1.48562;stroke-linecap:butt;stroke-linejoin:miter;stroke-dasharray:none;stroke-opacity:1"
       d="m 931.4248,518.5792 -2.25154,6.26473 -5.83427,-3.63492 2.5585,6.43217 -7.00629,0.95653 6.36033,3.39566 -4.94956,5.14077 7.07812,-1.4826 -0.38293,7.03006 4.42764,-5.30872 4.42712,5.30872 -0.38241,-7.03006 7.07761,1.4826 -4.94957,-5.14077 6.36034,-3.39566 -7.00578,-0.95653 2.5585,-6.43217 -5.83427,3.63492 z m -4.53357,8.58811 h 1.50585 v 7.45897 h -1.50585 z m 2.94555,0 h 3.16984 c 0.79713,0 1.37573,0.0674 1.73529,0.20308 0.36295,0.13229 0.65314,0.37002 0.87023,0.71262 0.21709,0.3426 0.32556,0.73416 0.32556,1.17512 0,0.55969 -0.16448,1.02272 -0.49351,1.38907 -0.32903,0.36295 -0.82121,0.5918 -1.47588,0.68678 0.32564,0.18995 0.59378,0.39905 0.80409,0.62631 0.2137,0.22727 0.50034,0.63074 0.8599,1.21078 l 0.91053,1.45521 h -1.80092 l -1.08882,-1.62316 c -0.3867,-0.58004 -0.65129,-0.94473 -0.79375,-1.09399 -0.14247,-0.15264 -0.29326,-0.2563 -0.45269,-0.31057 -0.15942,-0.0577 -0.4121,-0.0863 -0.75809,-0.0863 h -0.30541 v 3.11402 h -1.50637 z m 1.50637,1.26142 v 1.8929 h 1.11415 c 0.7225,0 1.17362,-0.0304 1.3534,-0.0915 0.17978,-0.0611 0.32044,-0.16649 0.4222,-0.31575 0.10176,-0.14925 0.15296,-0.33578 0.15296,-0.55965 0,-0.25101 -0.0679,-0.45249 -0.2036,-0.60513 -0.1323,-0.15604 -0.3206,-0.25437 -0.56483,-0.29507 -0.12211,-0.017 -0.48859,-0.0258 -1.09916,-0.0258 z" /><path
       d="m 931.32739,502.46278 -25.30845,42.89425 h 50.61744 z"
       stroke-width="1.32292"
       id="path36187"
       style="fill:none;stroke:#000000" /><g
       fill="none"
       stroke="#999999"
       stroke-width="3"
       id="g36203"
       transform="matrix(0.26458333,0,0,0.26458333,904.86906,501.13171)"><path
         d="M 0,16 V 0 h 16"
         id="path36195" /><path
         d="M 200,16 V 0 h -16"
         id="path36197" /><path
         d="m 0,184 v 16 h 16"
         id="path36199" /><path
         d="m 200,184 v 16 h -16"
         id="path36201" /></g></g></svg>