<svg width="200" height="200" version="1.1" xmlns="http://www.w3.org/2000/svg">
 <g fill="none">
  <g stroke="#999" stroke-width="3">
   <path d="m0 16v-16h16"/>
   <path d="m200 16v-16h-16"/>
   <path d="m0 184v16h16"/>
   <path d="m200 184v16h-16"/>
  </g>
  <g stroke="#000">
   <path d="m16.18 147.71h129.74" stroke-width="11"/>
   <g stroke-width="6">
    <path d="m35.539 81.951 108.88 62.86"/>
    <path d="m181.12 62.921c-3.0961 3.4457-6.1922 6.8914-8.4644 10.387-2.2722 3.4958-3.7204 7.0413-4.5519 10.545-0.83155 3.5039-1.0466 6.9658-1.942 10.673-0.89541 3.7077-2.471 7.6614-4.868 12.425s-5.6152 10.338-8.8335 15.912l-25.728-14.854s3.0904-5.3528 3.0904-5.3528c-2.5319-1.4618-5.0625-2.9229-8.3559-4.134-3.2934-1.2111-7.3482-2.1712-11.053-3.1208s-7.0605-1.8889-16.856-7.0449c-9.795-5.156-26.03-14.529-42.265-23.902 1.0301-1.7843 2.0601-3.5682 3.4336-5.0773s3.0898-2.7424 4.5485-3.5887 2.6592-1.3053 4.4074-1.3404c1.7482-0.03511 4.0434 0.3533 7.1861 1.5011s7.1328 3.0546 10.593 4.2726c3.4605 1.218 6.3912 1.7477 11.599 1.6593s12.694-0.79463 20.639-1.9599 16.349-2.7896 21.221-3.9019 6.2145-1.7126 9.1804-4.3079c2.9659-2.5953 7.5562-7.1856 12.147-11.776"/>
    <path d="m115.68 59.625c0.34218 2.6977 0.68421 5.3942 2.4538 7.7411s4.9654 4.3443 7.9741 5.6299c3.0088 1.2857 5.8301 1.8599 12.879 3.253s18.325 3.6049 29.599 5.8165"/>
   </g>
  </g>
 </g>
</svg>