<svg width="200" height="200" version="1.1" xmlns="http://www.w3.org/2000/svg">
 <g fill="none" stroke="#999" stroke-width="3">
  <path d="m0 16v-16h16"/>
  <path d="m200 16v-16h-16"/>
  <path d="m0 184v16h16"/>
  <path d="m200 184v16h-16"/>
 </g>
 <path d="m127.96 40.048a27.961 27.961 0 0 1-13.98 24.215 27.961 27.961 0 0 1-27.961-1e-6 27.961 27.961 0 0 1-13.98-24.215v-7.0893h55.922z" stroke-width="5"/>
 <g fill="none" stroke="#000" stroke-width="5">
  <path d="m125.92 83.97a42.567 42.567 0 0 1-25.92 8.8014 42.567 42.567 0 0 1-25.92-8.8014"/>
  <path d="m137.02 105.85a66.837 66.837 0 0 1-37.023 11.191 66.837 66.837 0 0 1-37.023-11.191"/>
  <path d="m147.52 126.52a89.908 89.908 0 0 1-47.524 13.587 89.908 89.908 0 0 1-47.543-13.599"/>
  <path d="m158.56 148.22a114.18 114.18 0 0 1-58.556 16.159 114.18 114.18 0 0 1-58.556-16.159"/>
 </g>
</svg>