<svg width="200" height="200" version="1.1" xmlns="http://www.w3.org/2000/svg"><g stroke="#000" stroke-width="5"><path d="m191.03 102.95h-97.264"/><path d="m73.742 160.87c21.062 0 41.879-4.6065 61.078-13.522 4.4067-14.411 6.6312-29.4 6.6312-44.474 0-15.101-2.2326-30.116-6.618-44.523-19.058-8.7709-39.737-13.315-60.655-13.315-21.062 0-41.879 4.6065-61.078 13.522-4.4067 14.411-6.6312 29.4-6.6312 44.474 0 15.101 2.2326 30.116 6.618 44.523 19.058 8.7709 39.737 13.315 60.655 13.315z" fill="none"/><path d="m160.6 85.373 30.432 17.578-30.432 17.57" fill="none"/></g><circle cx="50.211" cy="82.999" r="10.042"/><circle cx="31.826" cy="113.45" r="10.042"/><circle cx="67.62" cy="113.45" r="10.042"/><g fill="none" stroke="#000" stroke-width="5"><path d="m161.33 36.633v32.521"/><path d="m152.01 45.955h32.521"/><path d="m175.21 69.155v-32.521"/><path d="m184.53 59.833h-32.521"/></g> 
<g fill="none" stroke="#999" stroke-width="3">
  <path d="m0 16v-16h16"/>
  <path d="m200 16v-16h-16"/>
  <path d="m0 184v16h16"/>
  <path d="m200 184v16h-16"/>
 </g></svg>