<svg width="200" height="200" version="1.1" xmlns="http://www.w3.org/2000/svg">
 <g fill="none" stroke="#999" stroke-width="3">
  <path d="m0 16v-16h16"/>
  <path d="m200 16v-16h-16"/>
  <path d="m0 184v16h16"/>
  <path d="m200 184v16h-16"/>
 </g>
 <g stroke="#000" stroke-width="5">
  <path d="m30.508 163.56h138.98l-17.865-127.12h-103.25z" fill="none"/>
  <path d="m75.48 36.44-7.7243 115.73"/>
  <path d="m96.339 130.57h16.495q7.6414 0 11.963-1.4956 4.374-1.4957 6.9563-4.21 3.6362-3.8222 5.6388-10.248 2.0553-6.4812 2.0553-15.677 0-12.741-4.0052-19.554-3.9524-6.8689-9.644-9.1955-4.1105-1.6618-13.228-1.6618h-16.231z" fill="none"/>
 </g>
</svg>