<svg width="200" height="200" version="1.1" xmlns="http://www.w3.org/2000/svg">
 <g fill="none">
  <g stroke="#999" stroke-width="3">
   <path d="m0 16v-16h16"/>
   <path d="m200 16v-16h-16"/>
   <path d="m0 184v16h16"/>
   <path d="m200 184v16h-16"/>
  </g>
  <g stroke="#000">
   <path d="m111.17 145.87v24.529h7.5708l-18.084 21.551-18.084-21.551h7.5708v-24.529h21.026z" stroke-width="5"/>
   <g stroke-width="10">
    <path d="m67.066 80.118 19.492-7.2034"/>
    <path d="m52.013 97.246 20.65 2.3237"/>
    <path d="m96.186 106.14 11.999-16.966"/>
    <path d="m66.102 135.49 4.7752-20.224"/>
    <path d="m90.89 122.67 20.191 4.9114"/>
    <path d="m140.04 129.56-12.354-16.709"/>
    <path d="m142.27 103.07 1.8864-20.694"/>
    <path d="m124.68 82.203-15.429-13.92"/>
    <path d="m33.95 139.83v-87.288h133.42v87.288"/>
   </g>
  </g>
 </g>
</svg>