<svg width="200" height="200" version="1.1" xmlns="http://www.w3.org/2000/svg">
 <g fill="none" stroke="#999" stroke-width="3">
  <path d="m0 16v-16h16"/>
  <path d="m200 16v-16h-16"/>
  <path d="m0 184v16h16"/>
  <path d="m200 184v16h-16"/>
 </g>
 <path d="m51.685 51.864v96.115h11.086v-48.057h26.662v-11.086h-26.662v-25.887h37.15v-11.086h-37.15z"/>
 <path d="m126.48 88.503c-3.7075 0-7.4134 0.94562-10.748 2.832v-2.4512h-11.086v59.252h11.086v-44.924l0.10157 7.125c0-5.8806 4.7658-10.646 10.646-10.646 5.8806-2e-6 10.648 4.7658 10.648 10.646h11.186c0-7.8005-4.1606-15.008-10.916-18.908-3.3777-1.9501-7.1484-2.9258-10.918-2.9258zm10.748 21.885v37.748h11.086v-37.748z"/>
 <rect x="36.229" y="36.229" width="127.54" height="127.54" fill="none" stroke="#000" stroke-width="5"/>
</svg>