<svg width="200" height="200" version="1.1" xmlns="http://www.w3.org/2000/svg">
 <g fill="none">
  <g stroke="#999" stroke-width="3">
   <path d="m0 16v-16h16"/>
   <path d="m200 16v-16h-16"/>
   <path d="m0 184v16h16"/>
   <path d="m200 184v16h-16"/>
  </g>
  <g stroke="#000" stroke-width="5">
   <path d="m49.636 61.918a85.381 85.381 0 0 1 8.9631 38.082 85.381 85.381 0 0 1-8.9631 38.082"/>
   <path d="m5.1198 84.102a35.644 35.644 0 0 1 3.7417 15.898 35.644 35.644 0 0 1-3.7435 15.901"/>
   <path d="m27.639 72.879a60.805 60.805 0 0 1 6.3836 27.121 60.805 60.805 0 0 1-6.385 27.124"/>
   <path d="m114.63 94.001c-5.8669 0.14179-11.851-0.18134-17.351-2.4172-8.801-2.8566-15.499-10.455-18.788-18.919-3.5007-10.286-1.8356-22.492 5.3997-30.811 7.6869-9.4863 19.558-14.579 31.408-16.342 10.876-1.2544 22.262-0.63877 32.508 3.4782 8.8248 3.8481 16.621 9.9508 22.932 17.182 10.822 13.449 16.001 31.615 13.018 48.698-1.7118 8.4867-5.277 16.603-10.638 23.425-5.315 7.5477-10.389 15.438-13.63 24.125-2.0299 5.1846-2.7055 10.73-4.0918 16.083-2.2978 7.4611-8.2606 13.25-15.215 16.518-7.7588 4.2923-17.254 4.522-25.597 1.9332-5.275-2-10.965-5.3518-12.582-11.139 0.71568-8.4601 2.0509-16.882 3.0073-25.327 0.65155-5.2316 1.3031-10.463 1.9546-15.695 8.5184 0.74445 17.256-1.7622 24.269-6.592 7.4279-5.5368 13.718-13.113 15.893-22.29 1.9755-7.8743 2.6597-16.789-1.6558-24.049-4.5383-8.6988-15.105-13.298-24.636-11.984-3.3815 0.64829-6.965 1.8118-9.3762 4.3911"/>
  </g>
 </g>
</svg>