<svg width="200" height="200" version="1.1" xmlns="http://www.w3.org/2000/svg">
 <g fill="none" stroke="#999" stroke-width="3">
  <path d="m0 16v-16h16"/>
  <path d="m200 16v-16h-16"/>
  <path d="m0 184v16h16"/>
  <path d="m200 184v16h-16"/>
 </g>
 <g>
  <path d="m45.376 154.9a77.644 77.644 0 0 0 54.625 22.742 77.644 77.644 0 0 0 54.623-22.742z"/>
  <path d="m45.097 45.379a77.644 77.644 0 0 0-22.74 54.621 77.644 77.644 0 0 0 22.74 54.621z"/>
  <path d="m154.9 45.098v109.52a77.644 77.644 0 0 0 22.74-54.621 77.644 77.644 0 0 0-22.74-54.902z"/>
  <path d="m100 22.355a77.644 77.644 0 0 0-54.625 22.742h109.53a77.644 77.644 0 0 0-54.902-22.742z"/>
 </g>
</svg>