<svg width="200" height="200" version="1.1" xmlns="http://www.w3.org/2000/svg">
 <g fill="none" stroke="#999" stroke-width="3">
  <path d="m0 16v-16h16"/>
  <path d="m200 16v-16h-16"/>
  <path d="m0 184v16h16"/>
  <path d="m200 184v16h-16"/>
 </g>
 <rect x="30.841" y="33.226" width="71.793" height="133.55" fill="none" stroke="#000" stroke-width="5"/>
 <circle cx="83.725" cy="100" r="8.725"/>
 <g fill="none" stroke="#000" stroke-width="5">
  <path d="m124.24 76.613a56.515 56.515 0 0 1 5.0663 23.387 56.515 56.515 0 0 1-5.0663 23.387"/>
  <path d="m144.84 64.721a80.221 80.221 0 0 1 8.1739 35.279 80.221 80.221 0 0 1-8.1739 35.279"/>
  <path d="m169.5 50.482a108.65 108.65 0 0 1 11.94 49.518 108.65 108.65 0 0 1-11.938 49.513"/>
 </g>
</svg>