<svg width="200" height="200" version="1.1" xmlns="http://www.w3.org/2000/svg">
 <g fill="none" stroke="#999" stroke-width="3">
  <path d="m0 16v-16h16"/>
  <path d="m200 16v-16h-16"/>
  <path d="m0 184v16h16"/>
  <path d="m200 184v16h-16"/>
 </g>
 <path d="m100 44.809c-6.9875 0-13.99 1.0821-20.656 3.1777-4.7813 1.5032-9.3517 3.7271-13.504 6.5391l34.16 34.16 34.16-34.16c-4.1522-2.8119-8.7226-5.0359-13.504-6.5391-6.6659-2.0957-13.669-3.1777-20.656-3.1777zm-45.717 20.789c-0.32096 0.44529-0.63773 0.89328-0.94141 1.3516-2.5145 3.7947-4.4151 7.9948-5.6055 12.389-0.74601 2.7742-1.492 5.5478-2.207 9.5469s-1.3997 9.2245-1.7168 12.873c-0.31707 3.6485-0.26826 5.7204-0.44922 6.9121-0.18096 1.1917-0.59185 1.5026-1.4531 1.9395-0.86128 0.4369-2.1716 0.99904-5.2363 1.8105-3.0648 0.8115-7.8848 1.8735-11.674 2.8223-3.7891 0.9488-6.548 1.784-8.2246 2.502-1.6767 0.71795-2.2696 1.3186-2.5664 1.8047-0.2968 0.4861-0.29688 0.85756-0.29688 1.2285-5e-6 2.5785 9.0702 5.0518 25.215 6.875 6.0199 0.67984 12.843 1.2474 20.213 1.6934l29.346-29.346zm91.434 0-34.402 34.402 29.346 29.346c7.3696-0.44599 14.193-1.0135 20.213-1.6934 16.145-1.8232 25.215-4.2965 25.215-6.875 0-0.37095-7e-5 -0.74241-0.29687-1.2285-0.29679-0.48611-0.88976-1.0867-2.5664-1.8047-1.6767-0.71795-4.4355-1.5532-8.2246-2.502-3.7891-0.94879-8.6091-2.0108-11.674-2.8223-3.0648-0.8115-4.375-1.3736-5.2363-1.8105-0.86127-0.4369-1.2722-0.74776-1.4531-1.9395s-0.13215-3.2636-0.44922-6.9121c-0.31708-3.6485-1.0018-8.8739-1.7168-12.873s-1.461-6.7727-2.207-9.5469c-1.1904-4.3938-3.091-8.5939-5.6055-12.389-0.30367-0.45828-0.62045-0.90627-0.9414-1.3516zm-45.717 45.717-18.938 18.938c6.1738 0.15743 12.508 0.24805 18.938 0.24805 6.4297 0 12.764-0.0906 18.938-0.24805z"/>
 <path d="m22.881 22.881 154.24 154.24" fill="none" stroke="#000" stroke-width="5"/>
 <path d="m177.12 22.881-154.24 154.24" fill="none" stroke="#000" stroke-width="5"/>
</svg>