<svg width="200" height="200" version="1.1" xmlns="http://www.w3.org/2000/svg">
 <g fill="none" stroke="#999" stroke-width="3">
  <path d="m0 16v-16h16"/>
  <path d="m200 16v-16h-16"/>
  <path d="m0 184v16h16"/>
  <path d="m200 184v16h-16"/>
 </g>
 <path d="m6.5363 121.35 40.357-82.566a3.9991 3.9991 0 0 1 7.1857 0l27.035 55.31 15.202-31.219a3.1747 3.1747 0 0 1 5.7085 0l16.031 32.921 27.866-57.012a3.9991 3.9991 0 0 1 7.1857 0l40.357 82.566z"/>
 <g>
  <path d="m65.488 149.18q2.6999 0.70519 4.1506 2.7402 1.4708 2.035 1.4708 4.7752 0 4.0901-2.8006 6.649t-6.9512 2.5588q-4.1707 0-6.79-2.2768t-2.8208-6.0244h3.9289q0 2.176 1.4708 3.7476 1.4708 1.5716 4.211 1.5716 2.6596 0 4.2312-1.7126 1.5917-1.7126 1.5917-4.4327 0-2.7805-1.6522-4.2715-1.632-1.5111-4.7752-1.5111h-1.4507v-2.9618h0.86638q5.5207 0 5.5207-5.0774 0-2.2365-1.2089-3.4252t-3.4051-1.1888q-4.5132 0-5.0371 4.6946h-3.9088q0.42312-3.7476 2.8611-5.702 2.438-1.9746 6.0042-1.9746 3.9491 0 6.2863 2.1559 2.3372 2.1357 2.3372 5.5207 0 1.894-1.0276 3.5864-1.0074 1.6723-3.1029 2.5588z"/>
  <path d="m87.427 135.36q9.631 0 9.631 15.313 0 15.232-9.631 15.232-9.6108 0-9.6108-15.232 0-15.313 9.6108-15.313zm0 27.563q2.8006 0 4.2513-2.6999 1.4507-2.6999 1.4507-9.5504 0-6.8706-1.4507-9.5906-1.4507-2.7402-4.2513-2.7402-2.7805 0-4.2312 2.7402-1.4507 2.72-1.4507 9.5906 0 6.8505 1.4507 9.5504 1.4507 2.6999 4.2312 2.6999z"/>
  <path d="m113.46 135.36q9.631 0 9.631 15.313 0 15.232-9.631 15.232-9.6108 0-9.6108-15.232 0-15.313 9.6108-15.313zm0 27.563q2.8006 0 4.2513-2.6999t1.4507-9.5504q0-6.8706-1.4507-9.5906-1.4507-2.7402-4.2513-2.7402-2.7805 0-4.2312 2.7402-1.4507 2.72-1.4507 9.5906 0 6.8505 1.4507 9.5504 1.4507 2.6999 4.2312 2.6999z"/>
  <path d="m139.48 135.36q9.631 0 9.631 15.313 0 15.232-9.631 15.232-9.6108 0-9.6108-15.232 0-15.313 9.6108-15.313zm0 27.563q2.8006 0 4.2513-2.6999 1.4507-2.6999 1.4507-9.5504 0-6.8706-1.4507-9.5906-1.4507-2.7402-4.2513-2.7402-2.7805 0-4.2312 2.7402-1.4507 2.72-1.4507 9.5906 0 6.8505 1.4507 9.5504 1.4507 2.6999 4.2312 2.6999z"/>
  <path d="m185.74 165.4h-3.8081v-13.822q0-2.6596-0.76564-3.7879-0.76564-1.1283-2.5588-1.1283-2.7603 0-5.4199 3.4252v15.313h-3.7879v-13.822q0-2.6596-0.76564-3.7879-0.76564-1.1283-2.579-1.1283-2.7603 0-5.3998 3.4252v15.313h-3.808v-21.377h3.808v2.72q2.6999-3.2036 5.9841-3.2036 4.6946 0 5.9841 3.8685 2.1357-2.5186 3.6267-3.1835 1.491-0.68504 2.9215-0.68504 6.5684 0 6.5684 7.878z"/>
 </g>
 <path d="m44.27 138.28-24.412 10.406 24.412 10.051v-4.3262l-14.061-5.7891 14.061-5.9922v-4.3496z"/>
 <path d="m44.27 163.23h-24.412" fill="none" stroke="#000" stroke-width="4"/>
</svg>