<svg width="200" height="200" version="1.1" xmlns="http://www.w3.org/2000/svg">
 <path d="m75.847 141c2.1903 0 4.3803 0 5.7129-0.15903s1.8103-0.47704 2.2605-0.77717c0.4502-0.30013 0.87298-0.5824 2.0118-1.2977 1.1388-0.71526 2.9918-1.8623 5.6053-1.8709 2.6135-9e-3 5.9856 1.1214 8.5984 2.9314 2.6129 1.8101 4.4658 4.2983 6.3196 6.7877l12.235-48.146 11.811 45.604c0.44138-0.79449 0.88256-1.5886 1.642-2.3304 0.75941-0.7418 1.8364-1.4303 3.9378-1.7745s5.2263-0.3442 7.2824-1.1293c2.056-0.78506 3.0442-2.3554 4.4656-3.9975s3.2756-3.3556 5.0332-3.6293c1.7576-0.27372 3.4171 0.89147 4.8469 2.6043 1.4299 1.7128 2.6304 3.9726 3.743 5.3318 1.1126 1.3591 2.1366 1.8182 3.0722 2.0474s1.7831 0.22925 2.6295 0.22925" fill="none" stroke="#000" stroke-width="5"/>
 <circle cx="118.59" cy="98.464" r="9.5869"/>
 <path d="m100 36.262a231.75 232.48 0 0 0-74.266 12.775 231.75 232.48 0 0 0-6.2352 50.963 231.75 232.48 0 0 0 6.2352 50.96 231.75 232.48 0 0 0 74.266 12.778 231.75 232.48 0 0 0 74.266-12.778 231.75 232.48 0 0 0 6.2352-50.96 231.75 232.48 0 0 0-5.7717-51.256 231.75 232.48 0 0 0-74.73-12.482z" fill="none" stroke="#000" stroke-width="5"/>
 
<g fill="none" stroke="#999" stroke-width="3">
  <path d="m0 16v-16h16"/>
  <path d="m200 16v-16h-16"/>
  <path d="m0 184v16h16"/>
  <path d="m200 184v16h-16"/>
 </g></svg>