<svg width="200" height="200" version="1.1" xmlns="http://www.w3.org/2000/svg"><path d="m99.744 166.49c24.659 0 49.032-5.2883 71.511-15.523 5.1594-16.544 7.7639-33.751 7.7639-51.056 0-17.336-2.6139-34.573-7.7484-51.113-22.313-10.069-46.524-15.286-71.015-15.286-24.659 0-49.032 5.2883-71.511 15.523-5.1594 16.544-7.7639 33.751-7.7639 51.056 0 17.336 2.6139 34.573 7.7484 51.113 22.313 10.069 46.524 15.286 71.015 15.286z" fill="none" stroke="#000" stroke-width="5"/><path d="m100.32 48.177c-4.5263-1.22e-4 -8.2482 3.7216-8.2483 8.2478l-5.78e-4 18.957-3.6265-16.898-2e-3 -0.0039c-0.62945-2.875-2.7499-5.2055-5.5545-6.0978-2.8046-0.8924-5.8835-0.21919-8.0586 1.7634-2.1751 1.9826-3.1317 4.9882-2.5022 7.8632l0.0019 0.0058 7.4874 33.364c0.17178 0.76537 0.10438 1.563-0.19732 2.2871l-3.299 7.9199-16.775-11.332c-2.8737-1.9413-6.7108-1.7655-9.3926 0.43334l-3.6231 2.9706c-1.5152 1.2424-1.6563 3.6102-0.299 5.0234l33.632 35.017c0.97888 1.0192 1.6028 2.325 1.7831 3.7267l1.566 12.154 4.959-0.63659-1.5642-12.157c-0.31699-2.4633-1.4181-4.7596-3.1385-6.5509l-32.452-33.79 2.3067-1.8906c0.98887-0.8108 2.3622-0.87587 3.4219-0.16005l18.894 12.762c1.4791 0.99916 3.6279 0.35669 4.3144-1.2909l4.2816-10.275c0.69934-1.6782 0.85929-3.5327 0.46108-5.3066l-7.4834-33.344c-0.24913-1.1378 0.12361-2.313 0.98445-3.0976 0.86089-0.78469 2.0658-1.0484 3.1758-0.69522 1.11 0.35317 1.9383 1.2646 2.1875 2.4024l8.4521 39.397 5.039 1.4e-4 0.01761-0.0018 0.0011-42.516c5.4e-5 -1.824 1.424-3.2519 3.2481-3.2519 1.824 5.4e-5 3.25 1.426 3.25 3.2501l8.6e-4 42.52 5.0528 1.06e-4 7.7549-37.523-2.5e-4 -0.0058c0.23094-1.1417 1.0482-2.0647 2.1524-2.4355 1.1042-0.37086 2.3103-0.12623 3.1835 0.64461 0.87276 0.7704 1.2652 1.9371 1.0351 3.0781v0.0019l-8.2591 36.96 4.9806 1.7979 10.309-20.135 2e-3 -2.7e-5c0.5294-1.0376 1.5614-1.7072 2.7246-1.7675 1.1632-0.06029 2.2606 0.49745 2.8945 1.4746l1e-3 0.0017c0.63386 0.97724 0.69533 2.2065 0.16594 3.2442l-11.723 21.685c-0.80392 1.4872-1.2637 3.1376-1.3458 4.8261l-0.85393 17.578c-0.052 1.0681-0.26872 2.1224-0.64075 3.125l-2.0549 5.5351c-0.56334 1.5184-0.85161 3.1265-0.85171 4.7461l-2.2e-4 9.6856 5 1.8e-4 2.3e-4 -9.6856c3e-5 -1.026 0.18227-2.042 0.53909-3.0039l2.0549-5.539c0.55009-1.4828 0.86858-3.0415 0.94541-4.621l0.85601-17.578c0.0458-0.94145 0.30186-1.8602 0.75002-2.6894l11.764-21.765 0.0137-0.02736c1.3376-2.6216 1.176-5.7672-0.42557-8.2364-1.6016-2.4692-4.4103-3.9025-7.3495-3.7503-2.9382 0.15231-5.58 1.866-6.9181 4.4862l-1.9708 3.8476 4.2857-19.179 6e-3 -0.02343c0.58352-2.8847-0.42028-5.8727-2.6267-7.8204-2.2064-1.9477-5.2959-2.574-8.0859-1.6369-2.79 0.93702-4.8737 3.3007-5.4572 6.1854l-2.9106 14.068 5.3e-4 -18.068c1.2e-4 -4.5263-3.7216-8.2482-8.2478-8.2483z"/> 
<g fill="none" stroke="#999" stroke-width="3">
  <path d="m0 16v-16h16"/>
  <path d="m200 16v-16h-16"/>
  <path d="m0 184v16h16"/>
  <path d="m200 184v16h-16"/>
 </g></svg>