<svg width="200" height="200" version="1.1" xmlns="http://www.w3.org/2000/svg">
 <g fill="none" stroke="#999" stroke-width="3">
  <path d="m0 16v-16h16"/>
  <path d="m200 16v-16h-16"/>
  <path d="m0 184v16h16"/>
  <path d="m200 184v16h-16"/>
 </g>
 <path d="m100 61.703a129.3 129.3 0 0 0-91.195 38.104l34.418 34.42a80.5 80.5 0 0 1 56.777-23.723 80.5 80.5 0 0 1 56.922 23.578l34.273-34.275a129.3 129.3 0 0 0-91.195-38.104z" fill="none" stroke="#000" stroke-width="5"/>
 <path d="m100 61.703a129.3 129.3 0 0 0-91.195 38.104l16.328 16.328a106.15 106.15 0 0 1 74.867-31.281 106.15 106.15 0 0 1 75.059 31.09l16.137-16.137a129.3 129.3 0 0 0-91.195-38.104z"/>
</svg>