<svg width="200" height="200" version="1.1" xmlns="http://www.w3.org/2000/svg">
 <g fill="none" stroke="#999" stroke-width="3">
  <path d="m0 16v-16h16"/>
  <path d="m200 16v-16h-16"/>
  <path d="m0 184v16h16"/>
  <path d="m200 184v16h-16"/>
 </g>
 <circle cx="100" cy="100" r="12.712"/>
 <g fill="none" stroke="#000" stroke-width="5">
  <path d="m107.25 58.897a41.737 41.737 0 0 1 33.874 33.97"/>
  <path d="m58.963 92.389a41.737 41.737 0 0 1 33.796-33.493"/>
  <path d="m92.759 141.1a41.737 41.737 0 0 1-33.843-33.751"/>
  <path d="m141.17 106.88a41.737 41.737 0 0 1-33.92 34.225"/>
  <path d="m104.38 75.171a25.212 25.212 0 0 1 20.47 20.565"/>
  <path d="m75.238 95.257a25.212 25.212 0 0 1 20.388-20.087"/>
  <path d="m95.627 124.83a25.212 25.212 0 0 1-20.436-20.343"/>
  <path d="m124.89 104a25.212 25.212 0 0 1-20.521 20.829"/>
  <path d="m110.08 42.831a58.051 58.051 0 0 1 47.107 47.202"/>
  <path d="m42.898 89.549a58.051 58.051 0 0 1 47.022-46.718"/>
  <path d="m89.92 157.17a58.051 58.051 0 0 1-47.068-46.975"/>
  <path d="m157.23 109.71a58.051 58.051 0 0 1-47.153 47.46"/>
  <path d="m112.95 26.557a74.576 74.576 0 0 1 60.512 60.608"/>
  <path d="m26.624 86.676a74.576 74.576 0 0 1 60.421-60.119"/>
  <path d="m87.045 173.44a74.576 74.576 0 0 1-60.467-60.374"/>
  <path d="m173.51 112.58a74.576 74.576 0 0 1-60.559 60.863"/>
 </g>
</svg>