<svg width="200" height="200" version="1.1" xmlns="http://www.w3.org/2000/svg">
 <g fill="none">
  <g stroke="#999" stroke-width="3">
   <path d="m0 16v-16h16"/>
   <path d="m200 16v-16h-16"/>
   <path d="m0 184v16h16"/>
   <path d="m200 184v16h-16"/>
  </g>
  <path d="m164.19 146.4v-26.999c0-9.1839-7.445-16.629-16.629-16.629h-31.624l5.7276-55.126c0.41312-3.6037-0.11085-7.2515-1.5228-10.602-3.3753-8.0091-11.327-13.231-20.147-13.231-8.8201 0-16.772 5.222-20.147 13.231-1.412 3.3504-1.936 6.9982-1.5228 10.602l5.7276 55.126h-31.624c-9.1839 0-16.629 7.445-16.629 16.629v26.999h128.39z" stroke="#000" stroke-width="5"/>
  <path d="m33.305 166.89h133.39" stroke="#000" stroke-width="10"/>
 </g>
</svg>