<svg width="200" height="200" version="1.1" xmlns="http://www.w3.org/2000/svg">
 <path d="m3.0724 100c6.8513-6.5822 13.769-13.196 21.757-18.339 7.9881-5.1436 17.206-8.7827 26.707-8.7765 9.4987 0.0062 18.709 3.6553 26.694 8.8 7.9848 5.1447 14.904 11.752 21.77 18.316 6.8657 6.564 13.785 13.171 21.77 18.316 7.9848 5.1447 17.195 8.7938 26.694 8.8 9.5008 6e-3 18.719-3.6329 26.707-8.7765s14.906-11.757 21.757-18.339" fill="none" stroke="#000" stroke-width="5"/>
 
<g fill="none" stroke="#999" stroke-width="3">
  <path d="m0 16v-16h16"/>
  <path d="m200 16v-16h-16"/>
  <path d="m0 184v16h16"/>
  <path d="m200 184v16h-16"/>
 </g></svg>