<svg width="200" height="200" version="1.1" xmlns="http://www.w3.org/2000/svg">
 <g fill="none">
  <g stroke="#999" stroke-width="3">
   <path d="m0 16v-16h16"/>
   <path d="m200 16v-16h-16"/>
   <path d="m0 184v16h16"/>
   <path d="m200 184v16h-16"/>
  </g>
  <g stroke="#000" stroke-width="5">
   <path d="m65.266 129.65a35.169 35.169 0 0 1 23.928-27.952"/>
   <path d="m110.81 101.7a35.169 35.169 0 0 1 23.929 27.952"/>
   <path d="m80.297 106.04v-40.148c0-6.8076 5.4805-12.288 12.288-12.288h14.831c6.8076 0 12.288 5.4805 12.288 12.288v40.148"/>
   <path d="m65.266 129.65 69.468-8e-5"/>
   <path d="m89.194 101.7 0.0011-31.574"/>
   <path d="m110.81 101.7-5.1e-4 -31.574"/>
   <rect x="89.195" y="129.66" width="21.61" height="54.025" rx="0" ry="0"/>
   <path d="m100 129.66v54.025"/>
   <circle cx="100" cy="35.878" r="8.9905"/>
   <path d="m96.383 28.138c-0.5856-1.9429-1.4369-3.7865-2.2058-5.659-0.52586-1.3414-0.67578-3.0816 0.40516-4.1979 0.93582-0.98567 2.436-0.7575 3.6099-0.41757 1.0859 0.33802 2.254 0.4229 3.3498 0.07548 1.2063-0.32777 2.693-0.70941 3.7506 0.19392 1.1488 0.98976 1.1404 2.7108 0.67028 4.0377-0.60753 1.6658-1.4254 3.2496-1.9702 4.9408-0.11851 0.34066-0.23257 0.68287-0.34213 1.0265"/>
  </g>
 </g>
</svg>