<svg width="200" height="200" version="1.1" xmlns="http://www.w3.org/2000/svg">
 <g fill="none">
  <g stroke="#999" stroke-width="3">
   <path d="m0 16v-16h16"/>
   <path d="m200 16v-16h-16"/>
   <path d="m0 184v16h16"/>
   <path d="m200 184v16h-16"/>
  </g>
  <path d="m33.624 146.58c9.6815 5.2514 19.169 10.885 29.035 15.781 5.6515 3.0503 13.856 0.66859 14.392-6.4746 2.6275-13.833 2.7562-28.023 5.6701-41.821 0.84312-5.8374 2.5927-11.722 6.8275-16.039 8.1185-9.6896 23.703-9.5708 33.605-2.7673 9.538 6.647 13.402 18.232 17.403 28.611 4.5729 13.158 7.9406 26.79 9.7268 40.607 0.0554 0.64529 0.0976 1.2916 0.13867 1.9379" stroke="#000" stroke-width="5"/>
  <circle cx="104.24" cy="59.693" r="26.182" stroke="#000" stroke-width="5"/>
 </g>
</svg>