<svg width="200" height="200" version="1.1" xmlns="http://www.w3.org/2000/svg">
 <g fill="none">
  <g stroke="#999" stroke-width="3">
   <path d="m0 16v-16h16"/>
   <path d="m200 16v-16h-16"/>
   <path d="m0 184v16h16"/>
   <path d="m200 184v16h-16"/>
  </g>
  <g stroke="#000">
   <path d="m79.025 186.86c-1.0335-10.048-2.0651-20.078-2.8281-25.41-0.76284-5.3321-1.252-5.9262-9.2571-15.402-8.0051-9.4766-23.503-27.808-31.564-37.331-8.0611-9.5239-8.6353-10.181-9.0471-10.978-0.4117-0.79659-0.66026-1.733-0.5545-2.7406 0.10576-1.0076 0.56638-2.0841 2.8951-3.821 2.3287-1.7369 6.5359-4.1409 12.083-2.3447 5.5473 1.7964 12.44 7.789 16.969 11.55 4.5288 3.7608 6.6912 5.2872 8.0043 5.4336 1.313 0.14623 1.7717-1.0879 2.3104-2.6244 0.53868-1.5365 1.1562-3.3721 1.3768-5.2254 0.22066-1.8533 0.04408-3.725-1.2737-13.755-1.3178-10.03-3.777-28.22-6.2363-46.411-0.83629-5.6653 2.7709-10.858 8.0878-11.643s10.255 3.1465 11.107 8.8095l8.9899 59.732 0.21181-64.891c0.0187-5.7266 4.3268-10.337 9.7015-10.337 5.3745 3e-6 9.5705 4.6118 9.7014 10.337l1.483 64.89 8.8143-60.399c0.82695-5.6666 5.7349-9.6273 11.056-8.8728 5.3213 0.7544 8.9583 5.9263 8.1545 11.596l-8.7734 61.031 12.022-36.529c1.424-4.2682 6.5302-6.3314 10.797-4.9053 4.2674 1.4261 6.5566 6.0104 5.1326 10.279-4.1719 14.509-8.3439 29.018-10.519 36.581-2.1749 7.5639-2.3533 8.184-2.3011 13.797 0.0522 5.6128 0.33436 16.195-0.016 23.325-0.35051 7.1302-1.3336 10.799-1.8457 12.952-0.51196 2.1543-0.55266 2.793-1.6693 5.3231-1.1167 2.5301-3.3028 6.9376-4.6622 9.4445-1.3594 2.507-1.8891 3.1072-2.1539 6.2328-0.26481 3.1255-0.26477 8.7751-0.26471 14.424" stroke-width="5"/>
   <g stroke-width="4">
    <path d="m102.56 174.89v-70.122"/>
    <path d="m90.576 111.57v17.105a9.2796 9.2796 0 0 0 2.7179 6.5616l9.2625 9.2625"/>
    <path d="m102.56 162.32-21.569-21.569a9.2796 9.2796 0 0 1-2.7179-6.5616v-8.5403"/>
    <path d="m102.56 155.04 19.804-19.804a9.2796 9.2796 0 0 0 2.7179-6.5616v-3.0292"/>
    <path d="m111.11 146.49h10.124a9.2053 9.2053 0 0 0 6.5458-2.7334l3.866-3.9104"/>
    <path d="m102.56 135.24 8.9934-7.2826a8.0586 8.0586 0 0 0 2.9871-6.2627v-10.121"/>
   </g>
  </g>
 </g>
</svg>