<svg width="200" height="200" version="1.1" xmlns="http://www.w3.org/2000/svg">
 <g fill="none">
  <g stroke="#999" stroke-width="3">
   <path d="m0 16v-16h16"/>
   <path d="m200 16v-16h-16"/>
   <path d="m0 184v16h16"/>
   <path d="m200 184v16h-16"/>
  </g>
  <g stroke="#000">
   <ellipse cx="38.983" cy="100" rx="12.659" ry="20.524" stroke-width="5"/>
   <ellipse cx="38.983" cy="100" rx="30.786" ry="42.396" stroke-width="5"/>
   <path d="m161.02 57.604c17.003 3e-6 30.786 18.981 30.786 42.396 0 23.415-13.783 42.396-30.786 42.396" stroke-width="5"/>
  </g>
 </g>
 <path d="m191.8 100c0 23.415-13.783 42.396-30.786 42.396h-122.03c17.003 0 30.786-18.981 30.786-42.396 0-3.0822-0.24406-6.1552-0.72766-9.1632l122.04-0.0035c0.47219 2.9486 0.72152 6.0176 0.72152 9.1668z" stroke="#000" stroke-width="5"/>
 <path d="m161.02 57.604c6.6395 1e-6 12.788 2.8945 17.817 7.8171m-17.817-7.8171h-122.03c6.3866 0 12.615 2.7353 17.832 7.8359l122.05 0.0089" stroke="#000" stroke-width="5"/>
</svg>