<svg width="200" height="200" version="1.1" xmlns="http://www.w3.org/2000/svg">
 <g fill="none">
  <g stroke="#999" stroke-width="3">
   <path d="m0 16v-16h16"/>
   <path d="m200 16v-16h-16"/>
   <path d="m0 184v16h16"/>
   <path d="m200 184v16h-16"/>
  </g>
  <g stroke="#000" stroke-width="5">
   <path d="m47.458 66.519v116.08h105.08v-116.08"/>
   <path d="m47.458 96.71h-30.191"/>
   <path d="m183.47 95.465v-29.729c0-3.042-0.80324-6.0311-2.3301-8.6621l-2.9258-5.0391c-1.5268-2.631-3.7221-4.8111-6.3633-6.3203l-46.393-26.51c-6.9e-4 14.062-11.401 25.461-25.463 25.461-14.062 3.89e-4 -25.462-11.399-25.463-25.461l-46.393 26.51c-2.6412 1.5092-4.8364 3.6893-6.3633 6.3203l-2.9258 5.0391c-1.5268 2.631-2.3301 5.6201-2.3301 8.6621v29.729"/>
   <path d="m152.54 96.71h30.191"/>
  </g>
 </g>
 <g>
  <path d="m122.4 114.59c3.8601 1.4247 9.6384 0.18643 10.491-4.4633 1.6415-4.364-2.611-8.1558-6.795-7.739-3.4345-0.22671-8.0397 1.451-8.0623 5.5196-0.0352 2.8218 1.5658 5.7884 4.3668 6.6827z"/>
  <path d="m97.405 118.11c2.5679-3.4436 7.6192-5.7935 11.6-3.2309 4.9881 2.4951 7.7834 8.6094 13.774 9.182 3.9276 0.89777 8.5424-2.6311 11.661 1.088 2.4203 2.5864 0.68841 6.6643-1.2003 9.0475-4.2311 4.9826-11.086 6.7474-17.392 5.9224-7.2826-0.53981-13.347-5.5613-17.741-11.04-2.4777-2.9154-3.2345-7.1963-1.0147-10.48 0 0 0.31395-0.48926 0.31395-0.48926z"/>
  <path d="m66.179 123.28c4.5969-0.24295 7.7261-4.3348 10.974-7.116 2.9623-2.737 5.5225-6.0058 9.2273-7.8067 3.8128-2.6575 5.315-7.7919 4.7051-12.268 0.46176-4.3228-3.5107-7.6507-7.6756-7.4387-4.8537 0.16664-10.222-2.5544-14.644 0.56901-4.3742 2.8552-2.8544 8.4613-3.8323 12.806-0.8713 5.747-5.9175 10.923-3.8107 16.985 0.8325 2.0814 2.7506 4.0233 5.0561 4.2696z"/>
  <path d="m69.737 139.76c5.2694-0.55636 10.308 2.0892 15.612 1.3803 4.4767-0.0805 10.646-1.0219 13.133 3.7288 1.4154 4.3641 1.4549 9.455-0.41072 13.71-2.8075 6.1334-10.253 7.7719-16.386 7.5838-5.6773-0.28757-11.546-1.2708-16.555-4.069-5.2145-3.4155-5.7322-10.834-3.0465-16.017 1.3373-3.3019 4.0008-5.8913 7.6536-6.317z"/>
 </g>
</svg>