<svg width="200" height="200" version="1.1" xmlns="http://www.w3.org/2000/svg">
 <g fill="none" stroke="#000" stroke-width="5">
  <path d="m99.999 4.9197-95.654 162.12h191.31z"/>
  <path d="m100 115.68 13.61-18.733-7.2493 0.76193 14.965-20.237"/>
  <path d="m110.53 82.279 10.796-4.8068-1.2353 11.753"/>
 </g>
 <circle transform="rotate(36)" cx="148.9" cy="34.809" r="11"/>
 <g fill="none" stroke="#000" stroke-width="5">
  <path d="m100 115.68 23.028 2.4204-4.2845-5.8971 25.008 2.8415"/>
  <path d="m134.19 108.1 9.5609 6.9464-10.796 4.8068"/>
  <path d="m100 115.68 9.418 21.153 2.9648-6.659 10.043 23.079"/>
  <path d="m123.66 141.5-1.2353 11.753-9.5609-6.9464"/>
  <path d="m100 115.68-13.61 18.733 7.2493-0.76193-14.965 20.237"/>
  <path d="m89.47 149.08-10.796 4.8068 1.2353-11.753"/>
  <path d="m100 115.68-23.028-2.4204 4.2845 5.8971-25.008-2.8415"/>
  <path d="m65.809 123.26-9.5609-6.9464 10.796-4.8068"/>
  <path d="m100 115.68-9.418-21.153-2.9648 6.659-10.043-23.079"/>
  <path d="m76.338 89.861 1.2353-11.753 9.5609 6.9464"/>
 </g>
 
<g fill="none" stroke="#999" stroke-width="3">
  <path d="m0 16v-16h16"/>
  <path d="m200 16v-16h-16"/>
  <path d="m0 184v16h16"/>
  <path d="m200 184v16h-16"/>
 </g></svg>