<svg width="200" height="200" version="1.1" xmlns="http://www.w3.org/2000/svg">
 <g fill="none" stroke="#000" stroke-width="5">
  <path d="m76.154 58.691a47.7 47.7 0 0 1 60.39 10.648 47.7 47.7 0 0 1 0 61.322 47.7 47.7 0 0 1-60.39 10.648"/>
  <circle cx="52.304" cy="100" r="47.7"/>
  <path d="m123.85 58.691a47.7 47.7 0 0 1 60.39 10.648 47.7 47.7 0 0 1 0 61.322 47.7 47.7 0 0 1-60.39 10.648"/>
 </g>
 
<g fill="none" stroke="#999" stroke-width="3">
  <path d="m0 16v-16h16"/>
  <path d="m200 16v-16h-16"/>
  <path d="m0 184v16h16"/>
  <path d="m200 184v16h-16"/>
 </g></svg>