<svg width="200" height="200" version="1.1" xmlns="http://www.w3.org/2000/svg">
 <g fill="none">
  <g stroke="#999" stroke-width="3">
   <path d="m0 16v-16h16"/>
   <path d="m200 16v-16h-16"/>
   <path d="m0 184v16h16"/>
   <path d="m200 184v16h-16"/>
  </g>
  <path d="m130.19 172.89-60.383-4e-5 -42.697-42.699 4.7e-5 -60.383 42.699-42.697 60.383 4.6e-5 42.697 42.699-5e-5 60.383z" stroke="#000" stroke-width="5"/>
 </g>
 <path d="m118.43 61.725a16.674 16.671 0 0 1-8.337 14.438 16.674 16.671 0 0 1-16.674 0 16.674 16.671 0 0 1-8.337-14.438v-3.7798h33.348z"/>
 <path d="m101.75 34.338a18.893 18.904 0 0 0-9.4473 2.5332 18.893 18.904 0 0 0-9.3164 14.396l-5.0762 3.3926h42.733v-1.418a18.893 18.904 0 0 0-9.4453-16.371 18.893 18.904 0 0 0-9.4473-2.5332z"/>
 <path d="m69.289 81.047c-5.4494 0-9.902 4.1151-10.434 9.4199h-0.05273v59.469h14.205v-43.141h6.1953v51.381h41.594v-51.381h6.1953v43.141h14.205v-59.469h-0.0527c-0.53162-5.3048-4.9842-9.4199-10.434-9.4199h-61.422zm40.775 14.717-10.064 23.848h16.207l-25.529 30.613 10.064-23.848h-16.209z"/>
</svg>