<svg width="200" height="200" version="1.1" xmlns="http://www.w3.org/2000/svg">
 <path d="m69.228 100c3.7825-3.6338 7.6016-7.285 12.012-10.125 4.41-2.8396 9.4989-4.8487 14.744-4.8453 5.244 4e-3 10.329 2.018 14.737 4.8583 4.4082 2.8403 8.2284 6.4878 12.019 10.112 3.7904 3.6239 7.6106 7.2714 12.019 10.112 4.4082 2.8403 9.4929 4.8548 14.737 4.8583 5.2452 4e-3 10.334-2.0056 14.744-4.8453 4.41-2.8396 8.2292-6.4908 12.012-10.125" fill="none" stroke="#000" stroke-width="5"/>
 <path d="m22.017 133.87v-4.8254q0-7.4747 1.9046-12.111 2.0104-4.7308 4.8672-7.7585 2.9626-3.1223 6.3485-5.2039 3.4917-2.0816 6.3485-4.4469 2.9626-2.3654 4.8672-5.5823 2.0104-3.2169 2.0104-8.6101 0-2.1762-0.42324-4.2577-0.31743-2.0816-1.2697-3.69-0.95228-1.7031-2.5394-2.6492-1.4813-1.0408-3.8091-1.0408-2.751 0-4.3382 1.4192-1.5871 1.4192-2.3278 3.5954-0.74066 2.1762-0.95228 4.8254-0.10581 2.5546-0.10581 4.92h-9.6286q0-10.313 4.444-16.274 4.444-6.0554 13.438-6.0554 4.8672 0 8.2531 1.7977 3.3859 1.7031 5.3962 4.5416 2.0104 2.8385 2.8568 6.5285 0.95228 3.5954 0.95228 7.2854 0 6.15-2.0104 10.124-1.9046 3.9739-4.7614 6.8123-2.8568 2.7439-6.3485 4.92-3.3859 2.0816-6.2427 4.447t-4.8672 5.4877q-1.9046 3.0277-1.9046 7.8531h26.135v7.9478z"/>
 
<g fill="none" stroke="#999" stroke-width="3">
  <path d="m0 16v-16h16"/>
  <path d="m200 16v-16h-16"/>
  <path d="m0 184v16h16"/>
  <path d="m200 184v16h-16"/>
 </g></svg>