<svg width="200" height="200" version="1.1" xmlns="http://www.w3.org/2000/svg">
 <g fill="none">
  <g stroke="#999" stroke-width="3">
   <path d="m0 16v-16h16"/>
   <path d="m200 16v-16h-16"/>
   <path d="m0 184v16h16"/>
   <path d="m200 184v16h-16"/>
  </g>
  <g stroke="#000" stroke-width="5">
   <path d="m81.462 89.701c-2.8069-3.3042-4.6555-7.3985-5.3652-11.676s-0.28828-8.7258 1.1279-12.824c2.2342-6.4648 6.7738-11.817 10.558-17.515 5.8504-8.809 10.019-18.73 12.218-29.074 2.198 10.344 6.3672 20.265 12.218 29.074 3.7841 5.6978 8.3237 11.05 10.558 17.515 1.4162 4.0977 1.8376 8.5465 1.1279 12.824-0.70965 4.2771-2.5582 8.3713-5.3652 11.676-4.5234 5.3247-11.556 8.4193-18.538 8.1568-6.9817 0.2625-14.015-2.832-18.538-8.1568z"/>
   <path d="m12.284 66.748h46.441"/>
   <path d="m21.162 105.2 41.741-20.359"/>
   <path d="m21.162 28.296 41.741 20.359"/>
   <path d="m187.72 66.748h-46.441"/>
   <path d="m178.84 105.2-41.741-20.359"/>
   <path d="m178.84 28.296-41.741 20.359"/>
   <path d="m72.084 119.14c0-4.9297 3.9686-8.8983 8.8983-8.8983h38.036c4.9297 0 8.8983 3.9686 8.8983 8.8983v56.494c0 2.1127-1.7008 3.8136-3.8136 3.8136h-48.205c-2.1127 0-3.8136-1.7008-3.8136-3.8136v-56.494z"/>
  </g>
 </g>
</svg>