<svg width="200" height="200" version="1.1" xmlns="http://www.w3.org/2000/svg">
 <rect x="16.5" y="33" width="167" height="134" rx="8" ry="8" fill="none" stroke="#000" stroke-width="5"/>
 <path d="m147.88 143.26c-20.173-4.1373-37.611-16.711-47.907-34.545-10.321-17.876-12.476-39.322-5.9191-58.894l11.857 0.05637c6.5344 19.558 4.3726 40.98-5.938 58.838-10.32 17.876-27.814 30.465-48.042 34.573l-5.922-10.251c13.672-15.465 33.322-24.321 53.964-24.321 20.665 0 40.335 8.8759 54.008 24.371z" fill="none" stroke="#000" stroke-width="5"/>
 
<g fill="none" stroke="#999" stroke-width="3">
  <path d="m0 16v-16h16"/>
  <path d="m200 16v-16h-16"/>
  <path d="m0 184v16h16"/>
  <path d="m200 184v16h-16"/>
 </g></svg>