<svg width="200" height="200" version="1.1" xmlns="http://www.w3.org/2000/svg">
 <g fill="none" stroke="#000" stroke-width="5">
  <path d="m103.51 97.5 67.762-48.703"/>
  <path d="m142.19 97.5h-38.679l12.628-36.56"/>
  <path d="m99.744 166.49c24.659 0 49.032-5.2883 71.511-15.523 5.1594-16.544 7.7639-33.751 7.7639-51.056 0-17.336-2.6139-34.573-7.7484-51.113-22.313-10.069-46.524-15.286-71.015-15.286-24.659 0-49.032 5.2883-71.511 15.523-5.1594 16.544-7.7639 33.751-7.7639 51.056 0 17.336 2.6139 34.573 7.7484 51.113 22.313 10.069 46.524 15.286 71.015 15.286z"/>
 </g>
 <path d="m20.982 100c-1.6e-5 0.02997-0.001953 0.05987-0.001953 0.08984 0 17.336 2.6136 34.573 7.748 51.113 22.313 10.069 46.525 15.285 71.016 15.285 0.08537 0 0.1705-0.00378 0.25586-0.0039v-66.484h-79.018z"/>
 
<g fill="none" stroke="#999" stroke-width="3">
  <path d="m0 16v-16h16"/>
  <path d="m200 16v-16h-16"/>
  <path d="m0 184v16h16"/>
  <path d="m200 184v16h-16"/>
 </g></svg>