<svg width="200" height="200" version="1.1" xmlns="http://www.w3.org/2000/svg">
 <g>
  <g fill="none" stroke="#999" stroke-width="3">
   <path d="m0 16v-16h16"/>
   <path d="m200 16v-16h-16"/>
   <path d="m0 184v16h16"/>
   <path d="m200 184v16h-16"/>
  </g>
  <path d="m14.407 159.96c2.9659-9.2508 5.932-18.502 7.3799-25.388 1.4478-6.8854 1.3772-11.405 1.0097-14.697s-1.0324-5.3564-2.0915-7.2986-2.5129-3.7619-4.3103-6.457-3.9381-6.2653-5.3591-11.805-2.1214-13.048-1.9984-19.7 1.0695-12.447 4.2494-18.393c3.1798-5.9456 8.5925-12.04 15.344-16.816s14.84-8.2329 23.976-8.9781c9.1368-0.74524 19.32 1.2207 27.076 4.2293s13.084 7.0589 17.195 11.603 7.0069 9.5827 9.0879 14.418c2.081 4.8355 3.3479 9.4678 3.8916 12.38 0.5437 2.9125 0.36465 4.1052 0.27126 5.4803-0.0934 1.3751-0.10122 2.9322-0.13013 4.2387-0.0289 1.3065-0.0788 2.3622 1.8984 5.319 1.9773 2.9568 5.9798 7.8131 9.9833 12.671-1.0425 1.2149-2.085 2.4298-3.5299 3.784s-3.6618 3.1466-4.425 4.0422-0.84763 1.9377-0.59422 2.5857 1.085 1.7001 1.6856 2.6318c0.60061 0.93169 1.1071 1.9147 1.6145 2.8997l-5.7771 4.4212 4.8237 3.5525c-0.52966 2.4364-1.0595 4.8736-1.4302 6.6568-0.37075 1.7832-0.58261 2.9132-0.21118 3.7606 0.37144 0.84742 1.3248 1.4124 1.4498 2.5818 0.12503 1.1695-0.57687 2.9435-1.9683 4.2983-1.3914 1.3548-3.4729 2.2911-6.56 3.0292-3.0871 0.73819-7.1799 1.2782-10.973 1.5896-3.7929 0.31143-7.2856 0.39416-9.2618 0.52371-1.9762 0.12956-2.4352 0.30611-3.3589 2.4222-0.92364 2.1161-2.311 6.1706-3.6942 9.5004-1.3832 3.3299-2.7621 5.935-4.1408 8.5398" fill="none" stroke="#000" stroke-linejoin="round" stroke-width="5"/>
  <g>
   <path d="m96.141 73.754c-0.4266-0.0061-0.85431 0.06298-1.2559 0.19336-1.0708 0.34768-1.9498 1.1357-2.6855 1.9609-0.73574 0.82527-1.3279 1.6871-1.7031 2.4004s-0.5343 1.2779-0.61328 1.6816c-0.14044 0.56569-0.04903 1.1658 0 1.6328 0.079 0.33775 0.23796 0.8096 0.61328 1.4062 0.37532 0.59664 0.96699 1.3172 1.8262 2.2148 0.85918 0.8976 1.9861 1.9729 3 2.4668 1.0139 0.49387 1.911 0.40754 2.6973-0.44727 0.78626-0.8548 1.4573-2.4759 1.793-3.668 0.46081-1.9074 0.43439-4.0768 0.05859-5.7207-0.27834-1.1826-0.83698-2.6366-1.7461-3.4102-0.5682-0.48348-1.2734-0.70077-1.9844-0.71094z"/>
   <g fill="none" stroke="#000" stroke-width="5">
    <path d="m46.107 89.513c-0.89939-0.02645-1.7998-0.05294-2.6209-0.0045-0.8211 0.04847-1.5626 0.17205-2.5164 0.79889-0.95381 0.62684-2.119 1.7567-2.79 2.971-0.67098 1.2143-0.84753 2.5119-0.03075 6.8951s2.6333 11.88 4.0306 16.046 2.392 5.0618 3.1142 5.6061c0.72214 0.54425 1.1642 0.73243 1.9491 0.95732s1.9101 0.48571 3.1415 0.46392c1.2314-0.0218 2.569-0.32584 3.906-0.62973"/>
    <path d="m143.75 63.347 30.366 17.532-30.366 17.532"/>
    <path d="m174.12 80.879h-49.328"/>
   </g>
   <path d="m196.66 80.879a7.9449 7.9449 0 0 1-7.9449 7.9449 7.9449 7.9449 0 0 1-7.9449-7.9449 7.9449 7.9449 0 0 1 7.9449-7.9449 7.9449 7.9449 0 0 1 7.9449 7.9449z"/>
  </g>
 </g>
</svg>