<svg width="200" height="200" version="1.1" xmlns="http://www.w3.org/2000/svg">
 <g fill="none">
  <g stroke="#999" stroke-width="3">
   <path d="m0 16v-16h16"/>
   <path d="m200 16v-16h-16"/>
   <path d="m0 184v16h16"/>
   <path d="m200 184v16h-16"/>
  </g>
  <g stroke="#000">
   <g stroke-width="5">
    <circle cx="100" cy="60.064" r="11.547"/>
    <path d="m114.34 35.318a28.602 28.602 0 0 1 14.259 24.746 28.602 28.602 0 0 1-14.185 24.703"/>
    <path d="m85.581 84.765a28.602 28.602 0 0 1-14.183-24.701 28.602 28.602 0 0 1 14.183-24.701"/>
   </g>
   <path d="m100 33.58a62.712 62.712 0 0 0-51.016 26.484 62.712 62.712 0 0 0 51.016 26.482 62.712 62.712 0 0 0 51.094-26.586 62.712 62.712 0 0 0-51.094-26.381z" stroke-width="5"/>
   <g stroke-width="5">
    <path d="m118.63 25.275 4.9563-19.879"/>
    <path d="m144.17 36.915 11.751-16.782"/>
    <path d="m82.676 24.961-4.6086-19.962"/>
    <path d="m55.827 36.915-11.751-16.782"/>
    <path d="m21.355 177.33h18.475v-75h14.195l8e-6 75h20.975v-75h14.195v75h20.975v-75h14.195v75h20.975v-75h14.195v75h18.474"/>
   </g>
  </g>
 </g>
</svg>