<svg width="200" height="200" version="1.1" xmlns="http://www.w3.org/2000/svg">
 <g fill="none">
  <g stroke="#999" stroke-width="3">
   <path d="m0 16v-16h16"/>
   <path d="m200 16v-16h-16"/>
   <path d="m0 184v16h16"/>
   <path d="m200 184v16h-16"/>
  </g>
  <path d="m99.743 163.79c24.808 0 49.328-5.0738 71.944-14.893 5.1906-15.873 7.8109-32.382 7.8109-48.985 0-16.633-2.6297-33.171-7.7953-49.04-22.448-9.6606-46.805-14.666-71.444-14.666-24.808 0-49.328 5.0738-71.943 14.893-5.1906 15.873-7.8109 32.382-7.8109 48.985 0 16.633 2.6297 33.171 7.7952 49.04 22.448 9.6606 46.805 14.666 71.444 14.666z" stroke="#000" stroke-width="5"/>
 </g>
 <circle cx="100.22" cy="99.624" r="10.497"/>
 <g fill="none" stroke="#000">
  <g stroke-width="5">
   <path d="m132.89 86.496a35.206 35.206 0 0 1 2.5395 13.129 35.206 35.206 0 0 1-2.8574 13.894"/>
   <path d="m121.42 71.512a35.206 35.206 0 0 1 7.0497 7.0935"/>
   <path d="m86.489 67.208a35.206 35.206 0 0 1 13.734-2.7894 35.206 35.206 0 0 1 13.279 2.6005"/>
   <path d="m71.784 78.873a35.206 35.206 0 0 1 7.0055-7.1774"/>
   <path d="m67.875 113.52a35.206 35.206 0 0 1-2.8574-13.894 35.206 35.206 0 0 1 2.5423-13.136"/>
   <path d="m79.216 127.88a35.206 35.206 0 0 1-7.1138-7.0701"/>
   <path d="m113.51 132.23a35.206 35.206 0 0 1-13.284 2.6022 35.206 35.206 0 0 1-13.734-2.7894"/>
   <path d="m128.15 121.06a35.206 35.206 0 0 1-7.1774 7.0055"/>
  </g>
  <path d="m100 46.822v106.36" stroke-width="5"/>
  <path d="m46.822 100h106.36" stroke-width="5"/>
 </g>
</svg>