<svg width="200" height="200" version="1.1" xmlns="http://www.w3.org/2000/svg">
 <path d="m99.999 4.9197-95.654 162.12h191.31z" fill="none" stroke="#000" stroke-width="5"/>
 <g>
  <path d="m100 47.164a6.5 2.6798 0 0 0-6.5 2.6797v95.764a6.5 2.6798 0 0 0 6.5 2.6797 6.5 2.6798 0 0 0 6.5-2.6797v-95.764a6.5 2.6798 0 0 0-6.5-2.6797z"/>
  <path d="m84.355 74.462h31.291l-15.645-15.645z"/>
  <path d="m84.355 122.56h31.291l-15.645-15.645z"/>
 </g>
 <g fill="none" stroke="#000" stroke-width="5">
  <path d="m119.5 134.29a31.876 12.49 0 0 1 10.564 14.029 31.876 12.49 0 0 1-30.669 8.339 31.876 12.49 0 0 1-29.842-8.7874 31.876 12.49 0 0 1 11.911-13.863"/>
  <path d="m131.26 131.8h-14.914l7.457 12.974"/>
  <path d="m119.5 84.539a31.876 12.49 0 0 1 10.564 14.029 31.876 12.49 0 0 1-30.669 8.339 31.876 12.49 0 0 1-29.842-8.7875 31.876 12.49 0 0 1 11.911-13.863"/>
  <path d="m131.26 82.057h-14.914l7.457 12.974"/>
 </g>
 
<g fill="none" stroke="#999" stroke-width="3">
  <path d="m0 16v-16h16"/>
  <path d="m200 16v-16h-16"/>
  <path d="m0 184v16h16"/>
  <path d="m200 184v16h-16"/>
 </g></svg>