<svg width="200" height="200" version="1.1" xmlns="http://www.w3.org/2000/svg">
 <g fill="none">
  <g stroke="#999" stroke-width="3">
   <path d="m0 16v-16h16"/>
   <path d="m200 16v-16h-16"/>
   <path d="m0 184v16h16"/>
   <path d="m200 184v16h-16"/>
  </g>
  <g stroke="#000" stroke-width="5">
   <path d="m26.281 42.161h147.44"/>
   <path d="m157.84 26.281v147.44"/>
   <path d="m173.72 157.84h-147.44"/>
   <path d="m42.161 173.72v-147.44"/>
   <path d="m85.991 29.264 14.009-24.264 14.009 24.264"/>
   <path d="m100 5v61.965"/>
   <path d="m85.991 170.74 14.009 24.264 14.009-24.264"/>
   <path d="m100 195v-61.965"/>
   <path d="m29.264 114.01-24.264-14.009 24.264-14.009"/>
   <path d="m5 100h61.965"/>
   <path d="m170.74 114.01 24.264-14.009-24.264-14.009"/>
   <path d="m195 100h-61.965"/>
  </g>
 </g>
</svg>