<svg width="200" height="200" version="1.1" xmlns="http://www.w3.org/2000/svg">
 <g fill="none" stroke="#000" stroke-width="5">
  <path d="m37.811 105.48 19.816-34.322 19.816 34.322"/>
  <path d="m57.627 71.155v61.241h83.898v-40.023"/>
  <path d="m99.744 166.49c24.659 0 49.032-5.2883 71.511-15.523 5.1594-16.544 7.7639-33.751 7.7639-51.056 0-17.336-2.6139-34.573-7.7484-51.113-22.313-10.069-46.524-15.286-71.015-15.286-24.659 0-49.032 5.2883-71.511 15.523-5.1594 16.544-7.7639 33.751-7.7639 51.056 0 17.336 2.6139 34.573 7.7484 51.113 22.313 10.069 46.524 15.286 71.015 15.286z"/>
 </g>
 <path d="m100.26 33.512c-0.08537 0-0.1705 0.003779-0.25586 0.003906v66.484h79.018c1e-5 -0.029972 0.00195-0.059871 0.00195-0.089844 0-17.336-2.6136-34.573-7.748-51.113-22.313-10.069-46.525-15.285-71.016-15.285z"/>
 
<g fill="none" stroke="#999" stroke-width="3">
  <path d="m0 16v-16h16"/>
  <path d="m200 16v-16h-16"/>
  <path d="m0 184v16h16"/>
  <path d="m200 184v16h-16"/>
 </g></svg>