<svg width="200" height="200" version="1.1" xmlns="http://www.w3.org/2000/svg">
 <g fill="none" stroke="#999" stroke-width="3">
  <path d="m0 16v-16h16"/>
  <path d="m200 16v-16h-16"/>
  <path d="m0 184v16h16"/>
  <path d="m200 184v16h-16"/>
 </g>
 <g>
  <path d="m43.895 33.707a31.46 31.46 0 0 0-31.461 31.461 31.46 31.46 0 0 0 20.975 29.58v60.605l10.486 10.486 10.338-10.336v-4.6445l-8.3535-8.3516v-4.0547l8.3535-8.3516v-3.2109l-8.3535-8.3535v-3.9688l8.3535-8.3516v-11.414a31.46 31.46 0 0 0 21.123-29.635 31.46 31.46 0 0 0-31.461-31.461zm0 11.686a9.8875 9.8875 0 0 1 9.8867 9.8867 9.8875 9.8875 0 0 1-9.8867 9.8887 9.8875 9.8875 0 0 1-9.8867-9.8887 9.8875 9.8875 0 0 1 9.8867-9.8867z"/>
  <path d="m89.307 81.947c-2.8313-0.03009-5.6627 1.0008-7.8105 2.8457-1.9022 1.6339-3.2412 3.8451-4.1562 6.1797-1.0558 2.6937-1.5802 5.5935-1.5352 8.4863v67.43h17.977v-52.584h7.1914v52.584h53.562v-52.584h7.1914v52.584h17.979v-67.43c0.045-2.8928-0.48132-5.7927-1.5371-8.4863-0.91507-2.3346-2.2541-4.5458-4.1562-6.1797-2.1479-1.8449-4.9792-2.8758-7.8106-2.8457h-76.895z"/>
  <circle cx="127.75" cy="52.447" r="24.031"/>
 </g>
</svg>