<svg width="200" height="200" version="1.1" xmlns="http://www.w3.org/2000/svg">
 <g fill="none" stroke="#999" stroke-width="3">
  <path d="m0 16v-16h16"/>
  <path d="m200 16v-16h-16"/>
  <path d="m0 184v16h16"/>
  <path d="m200 184v16h-16"/>
 </g>
 <g stroke="#000" stroke-width="5">
  <path d="m83.347 90.254v31.568"/>
  <path d="m100 90.254v43.856"/>
  <path d="m66.695 90.254v31.568"/>
  <path d="m183.26 90.254v63.347"/>
  <path d="m50.042 90.254v31.568"/>
  <path d="m166.61 90.254v31.568"/>
  <path d="m33.39 90.254v31.568"/>
  <path d="m149.96 90.254v31.568"/>
  <path d="m16.737 90.254v63.347"/>
  <path d="m133.31 90.254v31.568"/>
  <path d="m116.65 90.254v31.568"/>
  <path d="m16.737 46.186v31.568"/>
  <path d="m21.006 60.202 18.033 18.033"/>
  <path d="m21.005 63.737 18.033-18.033"/>
  <path d="m149.96 46.186v31.568"/>
  <path d="m145.69 60.202-18.033 18.033"/>
  <path d="m145.69 63.737-18.033-18.033"/>
 </g>
</svg>