<svg width="200" height="200" version="1.1" xmlns="http://www.w3.org/2000/svg">
 <g fill="none">
  <g stroke="#999" stroke-width="3">
   <path d="m0 16v-16h16"/>
   <path d="m200 16v-16h-16"/>
   <path d="m0 184v16h16"/>
   <path d="m200 184v16h-16"/>
  </g>
  <path d="m49.064 20.301h101.87v159.4h-101.87z" stroke="#000" stroke-width="5"/>
  <path d="m65.678 179.7c0.6611-2.5774 1.3274-5.1582 2.2248-7.6658 0.51712-1.456 1.0201-2.917 1.481-4.3919 0.45355-1.3482 0.86979-2.7642 1.7831-3.8858 0.86842-1.069 2.1872-1.6241 3.4767-1.9993 1.7384-0.4981 3.5306-0.7729 5.2785-1.2339 3.32-0.82963 6.4349-2.2817 9.5499-3.6662 3.3451-1.5104 6.7082-3.0017 9.8951-4.8306 3.2454-1.853 6.2223-4.1293 9.1128-6.4871 3.1591-2.5856 6.3365-5.1587 9.2939-7.9768 2.5624-2.4632 4.9238-5.1389 7.0289-8.0033 0.62314-0.84417 1.1829-1.7326 1.6985-2.6459 0.20182-0.37698 0.56321-0.66098 0.9887-0.73203 1.0849-0.2122 2.2595 2e-3 3.2795-0.50546 0.729-0.34911 1.345-0.9284 1.7096-1.6529 0.38252-0.69003 0.59821-1.4741 0.57189-2.2655-5.4e-4 -0.57332-0.26122-1.3734-0.67751-1.8282-0.52258-0.56919-0.90593-0.80565-1.5427-1.231-0.69784-0.46436-1.4471-0.85241-2.1135-1.3627-0.81379-0.63278-1.1552-1.6463-1.49-2.581-0.56521-1.685-1.102-3.384-1.8329-5.0069-0.74929-1.6852-1.5301-3.3564-2.2561-5.052-1.0314-2.3809-2.1792-4.7142-3.5207-6.9369-1.7332-2.8993-3.6155-5.7056-5.4858-8.5173-2.4949-3.7378-5.1372-7.3769-7.918-10.907-2.7135-3.4695-5.5882-6.8086-8.5087-10.104-2.7869-3.1337-5.5264-6.3124-8.4363-9.3339-2.056-2.136-4.261-4.1221-6.5206-6.0393-0.67226-0.56362-1.3142-1.1852-1.7486-1.9563-0.72414-1.2552-1.3262-2.5759-2.0223-3.8465-1.8588-3.498-4.1216-6.7581-6.3963-9.9938-3.4288-4.8508-6.9983-9.6002-10.622-14.307-0.62776-0.81767-1.2564-1.6347-1.885-2.4517" stroke="#000" stroke-width="5"/>
 </g>
</svg>