<svg width="200" height="200" version="1.1" xmlns="http://www.w3.org/2000/svg">
 <g fill="none" stroke="#999" stroke-width="3">
  <path d="m0 16v-16h16"/>
  <path d="m200 16v-16h-16"/>
  <path d="m0 184v16h16"/>
  <path d="m200 184v16h-16"/>
 </g>
 <path d="m166.53 96.822c-0.0882-6.4879-2.0011-12.774-3.8264-18.945-2.683-8.4599-6.743-16.681-13.111-22.987-7.598-8.0081-17.237-13.929-27.649-17.52-12.528-4.4602-26.412-4.6954-39.226-1.3199-9.2604 2.7064-18.143 7.1133-25.473 13.437-8.1453 7.2566-14.798 16.26-18.906 26.394-2.2876 5.3001-4.0406 10.901-4.302 16.704-0.87005 11.394 0.26265 23.19 5.0824 33.668 4.6078 10.18 11.732 19.224 20.507 26.134 6.9585 5.1491 14.709 9.2662 22.892 12.098 6.788 2.2721 13.939 3.8481 21.137 3.3274 10.488-0.65607 20.696-4.9492 28.498-11.993 6.0275-5.308 11.517-11.553 14.449-19.134 2.1798-4.9133 3.283-10.278 3.136-15.656-0.0726-9.9963-2.4299-20.229-8.2697-28.486-4.4308-6.3831-9.8988-12.336-17.001-15.755-8.0961-4.0863-17.521-4.8327-26.412-3.6977-7.5686 0.98958-14.986 4.4417-19.894 10.407-2.8719 3.1602-5.0354 7.0423-5.5918 11.32-1.105 7.2799-0.69998 15.3 3.5204 21.587 3.3376 5.1141 8.7286 8.506 14.455 10.375 3.0169 1.0486 6.1322 1.7724 9.2478 2.4572" fill="none" stroke="#000" stroke-width="5"/>
</svg>