<svg width="200" height="200" version="1.1" xmlns="http://www.w3.org/2000/svg">
 <g fill="none" stroke="#000">
  <circle cx="100" cy="108.85" r="25.201" stroke-width="5"/>
  <g stroke-width="5">
   <path d="m100 140.46v12.645"/>
   <path d="m122.35 131.2 8.9415 8.9415"/>
   <path d="m131.61 108.85 12.645 1e-5"/>
   <path d="m122.35 86.5 8.9415-8.9415"/>
   <path d="m77.648 86.5-8.9415-8.9415"/>
   <path d="m68.39 108.85-12.645-1e-5"/>
   <path d="m77.648 131.2-8.9415 8.9415"/>
   <path d="m90.724 85.419 6.46e-4 -18.874h18.551v18.873"/>
  </g>
  <path d="m100 5.0308-95.654 162.12h191.31z" stroke-width="5"/>
 </g>
 <path d="m83.457 99.629v13.41c-2e-6 2.4784 1.5584 4.6507 3.7461 5.7324 2.1877 1.0818 4.7342 1.0818 6.9219 0 2.1877-1.0818 3.7461-3.254 3.7461-5.7324v-13.41h-5v13.41c0 0.40206-0.23592 0.89151-0.96094 1.25-0.72501 0.3585-1.7672 0.3585-2.4922 0-0.72501-0.35849-0.96094-0.84794-0.96094-1.25v-13.41z"/>
 <path d="m101.28 99.629 5.3457 19.953h5.8164l5.3476-19.953h-5.1758l-3.0801 11.492-3.0801-11.492h-5.1738z"/>
 
<g fill="none" stroke="#999" stroke-width="3">
  <path d="m0 16v-16h16"/>
  <path d="m200 16v-16h-16"/>
  <path d="m0 184v16h16"/>
  <path d="m200 184v16h-16"/>
 </g></svg>