<svg width="200" height="200" version="1.1" xmlns="http://www.w3.org/2000/svg">
 <g fill="none" stroke="#000" stroke-width="5">
  <circle cx="100" cy="100" r="75"/>
  <ellipse cx="100" cy="100" rx="42.5" ry="75"/>
  <path d="m157.45 51.775a75 25 0 0 1-57.453 8.9303 75 25 0 0 1-57.453-8.9303"/>
  <path d="m25 100h150"/>
  <path d="m100 25v150"/>
  <path transform="scale(1,-1)" d="m157.45-148.22a75 25 0 0 1-57.453 8.9303 75 25 0 0 1-57.453-8.9303"/>
 </g>
 
<g fill="none" stroke="#999" stroke-width="3">
  <path d="m0 16v-16h16"/>
  <path d="m200 16v-16h-16"/>
  <path d="m0 184v16h16"/>
  <path d="m200 184v16h-16"/>
 </g></svg>