<svg width="200" height="200" version="1.1" xmlns="http://www.w3.org/2000/svg">
 <g fill="none" stroke="#000" stroke-width="5">
  <path d="m99.753 165.54c23.819 0 47.362-5.2131 69.074-15.303 4.9836-16.309 7.4993-33.272 7.4993-50.331 0-17.09-2.5249-34.082-7.4844-50.386-21.553-9.9259-44.939-15.068-68.596-15.068-23.819 0-47.362 5.2131-69.074 15.303-4.9836 16.309-7.4993 33.272-7.4993 50.331 0 17.09 2.5249 34.082 7.4844 50.386 21.553 9.9259 44.939 15.068 68.596 15.068z"/>
  <path d="m102.34 139.26 31.706-17.759-31.706-17.759z"/>
  <path d="m151.91 78.95h-84.493a21.273 21.273 0 0 0-18.423 10.637 21.273 21.273 0 0 0 0 21.273 21.273 21.273 0 0 0 18.423 10.637h34.928"/>
 </g>
 
<g fill="none" stroke="#999" stroke-width="3">
  <path d="m0 16v-16h16"/>
  <path d="m200 16v-16h-16"/>
  <path d="m0 184v16h16"/>
  <path d="m200 184v16h-16"/>
 </g></svg>