<svg width="200" height="200" version="1.1" xmlns="http://www.w3.org/2000/svg">
 <g fill="none" stroke="#999" stroke-width="3">
  <path d="m0 16v-16h16"/>
  <path d="m200 16v-16h-16"/>
  <path d="m0 184v16h16"/>
  <path d="m200 184v16h-16"/>
 </g>
 <path d="m100.5 0.54297c-9.3238 9.6867-17.482 21.41-19.461 34.993-2.0857 13.809 0.2839 27.966 4.8982 41.036-9.1518 11.723-18.806 23.814-22.67 38.465-3.0514 11.418-1.5554 24.49 6.0576 33.863 7.6413 9.7784 20.497 15.914 32.96 13.75 2.2241 0.0274 5.5671-1.8131 6.9292-1.0713 0.23455 7.4845 0.92739 15.495-2.5264 22.416-1.8554 3.7985-5.7007 6.7325-10.012 6.81 5.2582-3.1788 6.2799-11.193 2.0141-15.599-3.9394-4.6248-11.901-4.433-15.615 0.37475-4.5412 5.7033-2.2889 14.828 3.5175 18.807 5.8655 4.3537 14.524 3.3052 19.746-1.5814 6.83-6.2095 8.5382-15.936 8.6992-24.753 0.0574-3.0255-0.0526-6.0519-0.25881-9.0702 13.022-5.7745 21.347-20.255 20.083-34.407-0.66748-10.367-6.6598-20.904-16.631-24.801-5.8529-2.3128-12.565-2.9119-18.6-0.93679-1.9276-5.1115-3.9008-10.207-5.6914-15.369 8.9654-11.254 17.635-23.558 20.376-37.966 1.6622-9.8048 0.94695-20.21-2.9489-29.423-2.5718-5.8163-6.4006-11.035-10.867-15.537zm3.2031 13.123c6.5149 10.05 6.305 23.263 1.6244 34-3.6234 8.6518-9.3657 16.172-15.126 23.492-4.2498-16.941-1.3182-35.551 8.1581-50.25 1.61-2.5343 3.3982-4.9552 5.3438-7.2418zm-13.455 74.344c1.7094 4.2642 3.3735 8.5477 4.8848 12.887-8.1705 4.5472-14.596 13.413-13.93 23.069 0.21206 3.9466 1.6038 7.8194 3.9629 10.991 1.2357-0.42383 2.4714-0.84765 3.707-1.2715-1.23-6.0466-1.8599-12.947 1.5386-18.425 1.8355-2.7107 4.599-4.6401 7.4751-6.1158 4.7146 15.087 9.3279 30.358 10.846 46.158-9.7734 4.648-21.675 1.7218-29.973-4.638-5.9468-4.3887-9.5712-11.467-9.9828-18.809-0.78796-9.1148 1.4165-18.565 6.9087-25.975 4.4423-6.2803 9.7656-11.871 14.563-17.872zm17.354 18.857c8.1106 0.34076 15.022 6.8572 16.918 14.583 2.8636 11.021-1.4409 23.559-10.42 30.548-1.8942-15.293-6.074-30.222-11.326-44.68 1.5777-0.3797 3.2065-0.54735 4.8281-0.45117z"/>
</svg>