<svg width="200" height="200" version="1.1" xmlns="http://www.w3.org/2000/svg">
 <g fill="none">
  <g stroke="#999" stroke-width="3">
   <path d="m0 16v-16h16"/>
   <path d="m200 16v-16h-16"/>
   <path d="m0 184v16h16"/>
   <path d="m200 184v16h-16"/>
  </g>
  <g stroke="#000" stroke-width="5">
   <path d="m11.104 129.25h81.394l-10.463-74.595h-60.469z"/>
   <path d="m109.85 112.55-2.3431 16.705h17.18"/>
   <path d="m114.37 80.263-3.2803 23.387"/>
   <path d="m127.22 54.659-9.2598-2e-6 -2.3431 16.705"/>
   <path d="m160.28 54.659-24.152-1e-6"/>
   <path d="m180.78 71.365-2.3431-16.705-9.2598-1e-6"/>
   <path d="m185.31 103.65-3.2803-23.387"/>
   <path d="m171.72 129.25h17.18l-2.3431-16.705"/>
   <path d="m133.58 129.25h29.238"/>
  </g>
 </g>
</svg>