<svg width="200" height="200" version="1.1" xmlns="http://www.w3.org/2000/svg">
 <g fill="none" stroke="#999" stroke-width="3">
  <path d="m0 16v-16h16"/>
  <path d="m200 16v-16h-16"/>
  <path d="m0 184v16h16"/>
  <path d="m200 184v16h-16"/>
 </g>
 <g>
  <path d="m141.82 34.605v130.8a77.644 77.644 0 0 0 35.828-65.406 77.644 77.644 0 0 0-35.828-65.395z"/>
  <path d="m58.184 34.594a77.644 77.644 0 0 0-35.828 65.406 77.644 77.644 0 0 0 35.828 65.406z"/>
  <path d="m100 22.355a77.644 77.644 0 0 0-17.809 2.2617v150.77a77.644 77.644 0 0 0 17.809 2.2617 77.644 77.644 0 0 0 17.809-2.2617v-150.94a77.644 77.644 0 0 0-17.809-2.0898z"/>
 </g>
</svg>