<svg width="200" height="200" version="1.1" xmlns="http://www.w3.org/2000/svg"><path d="m126.08 144.88v-89.75h-10v41.068l-29.799-41.068h-12.355l29.799 41.068h-4.4512c-13.345 0-24.27 10.925-24.27 24.27s10.925 24.27 24.27 24.27zm-10-10.055-16.793-0.0879h-0.0137c-7.9403 0-14.27-6.3292-14.27-14.27 0-7.9403 6.3292-14.27 14.27-14.27h16.807z"/><g fill="none" stroke="#000"><path d="m25.401 35.981v128.03" stroke-width="5"/><path d="m174.6 40.981h-149.19" stroke-width="10"/><path d="m174.6 164.02v-128.03" stroke-width="5"/><path d="m25.401 159.02h149.19" stroke-width="10"/></g> 
<g fill="none" stroke="#999" stroke-width="3">
  <path d="m0 16v-16h16"/>
  <path d="m200 16v-16h-16"/>
  <path d="m0 184v16h16"/>
  <path d="m200 184v16h-16"/>
 </g></svg>