<svg width="200" height="200" version="1.1" xmlns="http://www.w3.org/2000/svg"><path d="m100 35.766a178.39 178.39 0 0 0-73.947 16.062 178.39 178.39 0 0 0-6.7734 48.172 178.39 178.39 0 0 0 6.7734 48.172 178.39 178.39 0 0 0 73.947 16.062 178.39 178.39 0 0 0 73.947-16.062 178.39 178.39 0 0 0 6.7734-48.172 178.39 178.39 0 0 0-6.7734-48.172 178.39 178.39 0 0 0-73.947-16.062z" fill="none" stroke="#000" stroke-width="5"/><path d="m100 125.81c0.0498-5.8596-0.10773-11.729 0.0868-17.58 0.66073-4.5196 5.1014-6.9444 8.2562-9.6659 5.0173-3.9809 11.013-7.902 12.799-14.455 1.4922-6.7711-1.3307-14.101-6.2687-18.819-7.0011-6.9282-18.863-7.9243-26.926-2.271-5.8765 3.9154-9.5635 10.806-9.5044 17.876" fill="none" stroke="#000" stroke-width="5"/><circle cx="100" cy="138.84" r="4.3432"/> 
<g fill="none" stroke="#999" stroke-width="3">
  <path d="m0 16v-16h16"/>
  <path d="m200 16v-16h-16"/>
  <path d="m0 184v16h16"/>
  <path d="m200 184v16h-16"/>
 </g></svg>