<svg width="200" height="200" version="1.1" xmlns="http://www.w3.org/2000/svg"><g fill="none" stroke="#000" stroke-width="5"><path d="m26.669 166.05a87 87 0 0 1-11.657-43.501 87 87 0 0 1 11.656-43.501"/><path d="m50.049 152.54a60 60 0 0 1-8.0367-29.997 60 60 0 0 1 8.0376-29.998"/><path d="m73.432 139.04a33 33 0 0 1-4.4194-16.497 33 33 0 0 1 4.4194-16.497"/></g><path d="m110.17 20.059-32.221 58c-2.3947 4.3104 0.85418 9.834 5.7852 9.834h20.797c1.4103 0 2.3418 1.0986 2.5 2.5v14.434l32.336 17.701-30.484 16.412v31.638c0 4.1125 3.3875 7.5 7.5 7.5h33.404v-5h-33.404c-1.4103 0-2.5-1.0897-2.5-2.5v-28.146c0-0.31666 0.16649-0.59598 0.44531-0.74609l30.584-16.465c2.0049-1.0802 2.0139-4.253 0.0176-5.3476l-32.443-17.76c-0.28432-0.15564-0.45508-0.44344-0.45508-0.76758v-10.953c0-4.1125-3.3875-7.5-7.5-7.5h-20.797c-1.3501 0-2.0697-1.2261-1.4141-2.4062l32.221-58z"/><circle cx="138.56" cy="37.712" r="9.1105"/> 
<g fill="none" stroke="#999" stroke-width="3">
  <path d="m0 16v-16h16"/>
  <path d="m200 16v-16h-16"/>
  <path d="m0 184v16h16"/>
  <path d="m200 184v16h-16"/>
 </g></svg>