<svg width="200" height="200" version="1.1" xmlns="http://www.w3.org/2000/svg">
 <g fill="none" stroke="#999" stroke-width="3">
  <path d="m0 16v-16h16"/>
  <path d="m200 16v-16h-16"/>
  <path d="m0 184v16h16"/>
  <path d="m200 184v16h-16"/>
 </g>
 <path d="m135.74 99.639c-0.012 4.2846 0.74919 8.5682 2.3196 12.631 2.7437 10.825 8.363 19.192 12.407 27.984 5.6598 11.04 1.4132 25.379-8.9419 31.987-13.142 8.6069-30.19 7.6768-44.765 3.7645-21.916-6.066-37.321-25.495-45.083-46.031-3.6138-9.734-5.202-20.036-5.0102-30.336" fill="none" stroke="#000" stroke-width="5"/>
 <g>
  <path d="m141.77 71.682c-2.9052 5.8515-5.0682 11.007-6.7852 16.578 1.5918 0.49414 3.1836 0.98828 4.7754 1.4824 1.7298-5.4347 4.0909-11.181 6.4231-15.72-1.433-0.84986-3.0721-1.6439-4.4133-2.3404z"/>
  <path d="m49.645 69.424c-1.9737 5.6488-3.4398 11.476-4.3594 17.389l4.9395 0.76758c0.8736-5.6156 2.2672-11.149 4.1426-16.514z"/>
  <path d="m150.58 44.842c0.97352 5.6069-0.89422 10.682-2.9907 15.377 1.5215 0.68164 3.043 1.3633 4.5645 2.0449 2.6801-5.9911 4.5227-12.326 3.3267-18.418-1.6335 0.33202-3.2669 0.66406-4.9004 0.99609z"/>
  <path d="m64.467 41.945c-3.9101 5.1119-6.9385 9.9532-9.6074 15.217l4.4609 2.2559c2.9307-5.3749 5.6891-10.092 9.0371-14.332z"/>
  <path d="m89.631 23.123c-5.6315 2.2883-10.906 5.4376-15.629 9.2618l3.1465 3.8848c4.3433-3.5167 9.1943-6.4128 14.373-8.5176z"/>
  <path d="m134.06 20.408-1.707 4.6992c5.3207 2.1623 9.5907 5.2557 12.988 9.3223 1.2832-1.0632 2.5664-2.1263 3.8496-3.1895-4.1098-4.8429-9.6452-8.8036-15.131-10.832z"/>
  <path d="m120.56 17.941c-6.0166-0.22176-12.028 0.47309-17.941 1.5391 0.29622 1.64 0.59245 3.2799 0.88867 4.9199 5.5574-1.0003 11.206-1.67 16.861-1.4629 0.0638-1.6654 0.12764-3.3307 0.19146-4.9961z"/>
 </g>
</svg>