<svg width="200" height="200" version="1.1" xmlns="http://www.w3.org/2000/svg">
 <g fill="none" stroke="#999" stroke-width="3">
  <path d="m0 16v-16h16"/>
  <path d="m200 16v-16h-16"/>
  <path d="m0 184v16h16"/>
  <path d="m200 184v16h-16"/>
 </g>
 <path d="m153.39 46.61a75.505 75.505 0 0 1 0 106.78 75.505 75.505 0 0 1-106.78 0 75.505 75.505 0 0 1-3e-6 -106.78 75.505 75.505 0 0 1 106.78 3e-6z" fill="none" stroke="#000" stroke-width="5"/>
 <path d="m153.39 46.611a75.505 75.505 0 0 0-11.664-9.3194l-19.996 19.996 21.355 21.355 20.043-20.043a75.505 75.505 0 0 0-9.7379-11.989zm21.349 42.719-31.841 31.841 20.23 20.23a75.505 75.505 0 0 0 11.611-52.07zm-31.841 31.841-21.355-21.355-21.355 21.355 21.355 21.355zm-32.142-95.709a75.505 75.505 0 0 0-20.936-0.084245l10.51 10.51zm-31.926 31.642-42.711 42.711 21.355 21.355 42.711-42.711zm0.0014 85.423-20.329 20.329a75.505 75.505 0 0 0 52.331 11.673zm-53.406-53.036a75.505 75.505 0 0 0-0.0014 21.016l10.509-10.509z" stroke-width="5"/>
 <g stroke="#000" stroke-width="5">
  <path d="m89.652 25.208 85.13 85.134"/>
  <path d="m58.592 36.863 104.54 104.54"/>
  <path d="m37.159 58.144 104.7 104.7"/>
  <path d="m25.425 89.49 85.408 85.038"/>
  <path d="m110.51 25.426-85.253 85.25"/>
  <path d="m141.63 37.01-104.62 104.62"/>
  <path d="m58.502 162.86 104.48-104.48"/>
  <path d="m174.74 89.33-85.236 85.236"/>
 </g>
</svg>