<svg width="200" height="200" version="1.1" xmlns="http://www.w3.org/2000/svg">
 <g fill="none">
  <g stroke="#999" stroke-width="3">
   <path d="m0 16v-16h16"/>
   <path d="m200 16v-16h-16"/>
   <path d="m0 184v16h16"/>
   <path d="m200 184v16h-16"/>
  </g>
  <g stroke="#000">
   <path d="m61.322 74.133c-2.1449 6.578-3.2994 13.323-3.4378 20.124 8.9355-1.8236 17.959-3.7141 26.924-5.5761l-2.139-8.3713c5.5075-2.1737 11.392-3.291 17.331-3.291 5.9398 0 11.824 1.1173 17.331 3.291l-2.139 8.3713c8.9644 1.862 17.988 3.7526 26.924 5.5761-0.13846-6.8012-1.293-13.546-3.4378-20.124-11.544-7.3495-24.966-11.202-38.678-11.202-13.712 0-27.134 3.853-38.678 11.202z" stroke-width="5"/>
   <g stroke-width="5">
    <path d="m138.73 135.65v-22.484l-35.163-13.498a9.945 9.945 0 0 0-7.128 0l-35.163 13.498v22.484z"/>
    <path d="m16.217 147.22a134.79 134.79 0 0 1-8.5405-47.217 134.79 134.79 0 0 1 8.5405-47.217"/>
    <path d="m31.344 133.72a116.13 116.13 0 0 1-5.0041-33.722 116.13 116.13 0 0 1 5.0041-33.722"/>
    <path d="m47.004 119.64a97.466 97.466 0 0 1-1.9999-19.643 97.466 97.466 0 0 1 1.9999-19.643"/>
    <path d="m183.78 147.22a134.79 134.79 0 0 0 8.5405-47.217 134.79 134.79 0 0 0-8.5405-47.217"/>
    <path d="m168.66 133.72a116.13 116.13 0 0 0 5.0041-33.722 116.13 116.13 0 0 0-5.0041-33.722"/>
    <path d="m153 119.64a97.466 97.466 0 0 0 2-19.643 97.466 97.466 0 0 0-2-19.643"/>
   </g>
  </g>
 </g>
</svg>