<svg version="1.1" id="Ebene_1" xmlns="http://www.w3.org/2000/svg" xmlns:xlink="http://www.w3.org/1999/xlink" x="0px" y="0px"
	 width="45.354px" height="45.354px" viewBox="0 0 45.354 45.354" enable-background="new 0 0 45.354 45.354" xml:space="preserve">
<g>
	<path d="M42.16,43.937l-5.907-5.706H24.068v4.1c-0.096,0.707-0.459,1.061-1.089,1.061h-0.832c-0.688-0.115-1.032-0.488-1.032-1.118
		v-4.043H8.929l-5.734,5.534c-0.669,0-1.261-0.43-1.777-1.291v-0.659l5.534-5.734V24.068H2.65c-0.688-0.115-1.032-0.478-1.032-1.089
		v-0.774c0-0.726,0.363-1.089,1.089-1.089h4.244V8.929L1.417,3.195c0-0.669,0.43-1.261,1.29-1.777h0.66l5.734,5.534h12.013V2.708
		c0-0.726,0.363-1.089,1.089-1.089h0.774c0.726,0,1.089,0.363,1.089,1.089v4.244h12.013l5.734-5.534h0.458
		c0.478,0,1.032,0.535,1.663,1.605l-5.706,5.906v12.186h4.042c0.746,0,1.118,0.363,1.118,1.089v0.832
		c-0.114,0.688-0.487,1.032-1.118,1.032h-4.042v12.013l5.534,5.734v0.459C43.765,42.752,43.23,43.306,42.16,43.937z M35.25,35.25
		V9.933H9.933V35.25H35.25z"/>
</g>
</svg>