<svg xmlns="http://www.w3.org/2000/svg" version="1.1" width="849px" height="753px" style="shape-rendering:geometricPrecision; text-rendering:geometricPrecision; image-rendering:optimizeQuality; fill-rule:evenodd; clip-rule:evenodd" xmlns:xlink="http://www.w3.org/1999/xlink"><g><path style="opacity:1" fill="#000000" d="M 622.5,-0.5 C 625.833,-0.5 629.167,-0.5 632.5,-0.5C 701.944,5.46721 753.111,39.1339 786,100.5C 805.808,145.664 809.141,191.997 796,239.5C 792.863,248.577 789.53,257.577 786,266.5C 780.495,274.84 775.495,283.507 771,292.5C 718.725,412.05 666.725,531.717 615,651.5C 581.821,722.013 526.321,753.513 448.5,746C 387.129,731.963 346.796,694.963 327.5,635C 332.623,626.591 338.123,618.425 344,610.5C 351.181,651.738 372.014,683.905 406.5,707C 457.764,735.036 507.097,732.036 554.5,698C 597.722,660.336 613.388,613.336 601.5,557C 630.009,489.978 659.009,423.144 688.5,356.5C 622.123,378.163 562.456,365.996 509.5,320C 493.642,304.324 480.309,286.824 469.5,267.5C 450.54,325.548 431.873,383.715 413.5,442C 413.833,442.5 414.167,443 414.5,443.5C 459.844,425.029 504.177,427.195 547.5,450C 484.497,450.833 421.497,450.667 358.5,449.5C 388.231,355.808 418.064,262.141 448,168.5C 452.447,155.046 456.113,141.38 459,127.5C 482.224,59.2947 529.057,17.4614 599.5,2C 607.346,1.43331 615.012,0.599973 622.5,-0.5 Z M 622.5,21.5 C 692.767,23.6944 742.267,56.6944 771,120.5C 790.719,173.844 786.052,224.844 757,273.5C 719.46,327.004 668.293,350.171 603.5,343C 543.794,330.238 502.961,295.405 481,238.5C 462.091,176.496 473.425,120.829 515,71.5C 544.476,41.179 580.309,24.5123 622.5,21.5 Z"/></g><g><path style="opacity:1" fill="#000000" d="M 627.5,135.5 C 655.378,139.38 670.712,155.38 673.5,183.5C 669.769,215.74 651.769,231.24 619.5,230C 603.771,226.386 592.604,217.219 586,202.5C 578.645,180.757 583.145,161.924 599.5,146C 608.029,139.995 617.362,136.495 627.5,135.5 Z"/></g><g><path style="opacity:1" fill="#000000" d="M 273.5,263.5 C 312.656,264.485 340.823,282.485 358,317.5C 372.783,355.363 366.949,389.696 340.5,420.5C 310.404,448.681 276.404,454.514 238.5,438C 206.856,419.981 190.523,392.648 189.5,356C 190.363,316.575 208.363,288.241 243.5,271C 253.32,267.212 263.32,264.712 273.5,263.5 Z"/></g><g><path style="opacity:1" fill="#000000" d="M 232.5,752.5 C 154.833,752.5 77.1667,752.5 -0.5,752.5C -0.5,751.833 -0.5,751.167 -0.5,750.5C 59.2241,665.408 118.724,580.074 178,494.5C 193.836,472.861 215.336,462.028 242.5,462C 371.833,461.5 501.166,461.333 630.5,461.5C 618.186,491.935 605.186,522.102 591.5,552C 517.833,552.333 444.167,552.667 370.5,553C 323.864,619.123 277.864,685.623 232.5,752.5 Z"/></g><g><path style="opacity:1" fill="#000000" d="M 848.5,608.5 C 848.5,609.167 848.5,609.833 848.5,610.5C 842.547,619.094 834.547,621.594 824.5,618C 815.661,612.746 806.661,607.746 797.5,603C 787.986,602.167 784.82,606.333 788,615.5C 801.922,641.676 815.588,668.01 829,694.5C 830.662,703.835 826.829,708.002 817.5,707C 816.069,706.535 814.903,705.701 814,704.5C 804.333,686.5 794.667,668.5 785,650.5C 782.469,647.678 780.969,648.178 780.5,652C 787.579,675.902 794.246,699.902 800.5,724C 799.517,732.83 794.851,735.496 786.5,732C 784.959,730.421 783.792,728.587 783,726.5C 776.035,702.13 768.535,677.964 760.5,654C 757.273,653.226 755.94,654.559 756.5,658C 760.033,681.761 762.533,705.595 764,729.5C 756.127,737.135 750.461,735.802 747,725.5C 743.946,702.452 740.612,679.452 737,656.5C 735.413,655.273 734.079,655.606 733,657.5C 732.962,676.565 732.296,695.565 731,714.5C 726.625,719.381 721.958,719.715 717,715.5C 715.455,712.698 714.622,709.698 714.5,706.5C 715.739,679.181 716.239,651.847 716,624.5C 698.649,605.983 681.483,587.317 664.5,568.5C 682.515,549.652 701.015,531.319 720,513.5C 734.316,529.317 748.816,544.984 763.5,560.5C 791.726,576.777 820.059,592.777 848.5,608.5 Z"/></g><g><path style="opacity:1" fill="#000000" d="M 469.5,560.5 C 488.886,560.549 499.886,570.216 502.5,589.5C 498.874,612.304 485.874,621.137 463.5,616C 452.524,610.399 446.524,601.399 445.5,589C 447.301,574.05 455.301,564.55 469.5,560.5 Z"/></g></svg>