<svg xmlns="http://www.w3.org/2000/svg" version="1.1" width="396px" height="627px" style="shape-rendering:geometricPrecision; text-rendering:geometricPrecision; image-rendering:optimizeQuality; fill-rule:evenodd; clip-rule:evenodd" xmlns:xlink="http://www.w3.org/1999/xlink"><g><path style="opacity:1" fill="#000000" d="M 159.5,-0.5 C 165.833,-0.5 172.167,-0.5 178.5,-0.5C 210.907,0.102374 241.574,7.93571 270.5,23C 274.344,25.422 278.01,28.0887 281.5,31C 319.566,79.7885 327.733,133.289 306,191.5C 301.923,200.653 297.59,209.653 293,218.5C 290.578,229.032 289.245,239.698 289,250.5C 286.438,256.061 282.272,259.894 276.5,262C 257.569,261.964 243.235,269.964 233.5,286C 231.236,286.236 229.069,286.736 227,287.5C 225.688,293.23 224.188,298.896 222.5,304.5C 221.059,305.304 219.559,305.971 218,306.5C 215.138,303.297 212.638,299.797 210.5,296C 208.833,295.333 207.167,295.333 205.5,296C 203.665,300.004 202.332,304.17 201.5,308.5C 198.833,308.5 196.167,308.5 193.5,308.5C 192.495,303.478 191.328,298.478 190,293.5C 188.688,291.342 187.022,291.009 185,292.5C 183.339,298.811 181.839,305.144 180.5,311.5C 178.533,311.739 176.699,311.406 175,310.5C 172.985,304.102 170.818,297.769 168.5,291.5C 166.587,292.373 164.753,293.373 163,294.5C 161.985,298.44 161.485,302.44 161.5,306.5C 158.223,306.784 155.057,306.451 152,305.5C 150.775,299.252 148.941,293.252 146.5,287.5C 144.941,288.074 143.441,288.74 142,289.5C 140.71,293.73 140.21,298.064 140.5,302.5C 133.471,302.623 126.471,302.29 119.5,301.5C 119.964,288.389 115.964,276.889 107.5,267C 96.2816,265.264 84.9483,264.264 73.5,264C 68.7647,262.932 65.5981,260.099 64,255.5C 62.9646,231.058 56.6313,208.058 45,186.5C 41.3333,180.167 37.6667,173.833 34,167.5C 31.5134,137.539 30.1801,107.539 30,77.5C 35.4143,46.8554 52.581,25.6888 81.5,14C 89.6375,10.732 97.9709,8.06531 106.5,6C 124.174,2.63603 141.84,0.469363 159.5,-0.5 Z M 111.5,152.5 C 113.927,152.523 116.26,153.023 118.5,154C 126.621,158.812 135.121,162.645 144,165.5C 154.178,182.583 151.011,196.75 134.5,208C 118.167,208.667 101.833,208.667 85.5,208C 81.2783,206.974 77.7783,204.807 75,201.5C 74.3679,191.141 74.7012,180.807 76,170.5C 87.7525,164.203 99.5859,158.203 111.5,152.5 Z M 236.5,156.5 C 242.509,156.334 248.509,156.501 254.5,157C 258.076,157.19 261.242,158.357 264,160.5C 265.33,168.158 267.664,175.491 271,182.5C 271.666,188.835 269.999,194.501 266,199.5C 261.827,204.006 257.327,208.173 252.5,212C 239.869,213.443 227.203,214.11 214.5,214C 207.677,205.188 202.844,195.354 200,184.5C 197.046,174.257 200.212,166.757 209.5,162C 218.505,159.504 227.505,157.671 236.5,156.5 Z M 170.5,189.5 C 172.857,189.337 175.19,189.503 177.5,190C 185.726,197.227 192.893,205.393 199,214.5C 205.473,224.473 204.973,233.973 197.5,243C 194.743,243.584 192.077,243.25 189.5,242C 187.252,240.086 184.752,238.586 182,237.5C 177.379,241.229 172.212,244.062 166.5,246C 156.992,248.779 151.325,245.446 149.5,236C 149.701,225.727 152.868,216.56 159,208.5C 161.324,201.173 165.157,194.84 170.5,189.5 Z"/></g><g><path style="opacity:1" fill="#000000" d="M 252.5,284.5 C 254.451,284.227 255.951,284.893 257,286.5C 268.889,316.261 264.222,342.927 243,366.5C 235.591,374.457 226.758,380.29 216.5,384C 159.588,403.459 121.088,384.959 101,328.5C 98.1192,315.572 97.7859,302.572 100,289.5C 103.293,286.822 105.959,287.488 108,291.5C 108.964,295.796 109.797,300.13 110.5,304.5C 151.936,332.999 195.269,335.999 240.5,313.5C 242.774,311.287 244.274,308.621 245,305.5C 245.919,299.816 246.919,294.149 248,288.5C 248.907,286.391 250.407,285.058 252.5,284.5 Z"/></g><g><path style="opacity:1" fill="#000000" d="M 395.5,554.5 C 395.5,556.167 395.5,557.833 395.5,559.5C 392.915,567.319 388.749,574.319 383,580.5C 380.39,591.434 374.89,600.601 366.5,608C 362.551,610.094 358.384,611.594 354,612.5C 348.709,609.379 343.543,606.046 338.5,602.5C 337.032,595.925 336.199,589.258 336,582.5C 332.799,578.964 329.299,575.797 325.5,573C 301.63,563.067 278.963,551.067 257.5,537C 245.277,529.72 232.277,524.387 218.5,521C 201.056,518.264 185.723,522.597 172.5,534C 139.851,552.158 106.518,568.991 72.5,584.5C 67.4237,594.992 61.5904,604.992 55,614.5C 50.8531,619.494 46.0197,623.494 40.5,626.5C 39.1667,626.5 37.8333,626.5 36.5,626.5C 27.1626,621.995 20.3293,614.995 16,605.5C 10.6314,599.964 5.13136,594.63 -0.5,589.5C -0.5,587.167 -0.5,584.833 -0.5,582.5C 0.131244,580.552 1.13124,578.719 2.5,577C 13.7485,568.685 26.4151,564.685 40.5,565C 70.4028,555.048 98.4028,541.381 124.5,524C 134.932,517.949 145.932,513.283 157.5,510C 160.18,506.656 162.847,503.322 165.5,500C 163.846,497.013 161.513,494.679 158.5,493C 141.315,486.074 124.649,478.074 108.5,469C 93.4521,464.142 78.1188,462.809 62.5,465C 33.2653,479.1 19.432,469.934 21,437.5C 21.7246,435.051 22.7246,432.717 24,430.5C 26.1778,429.353 27.6778,427.687 28.5,425.5C 21.4951,400.343 30.4951,390.843 55.5,397C 73.0266,406.452 88.36,418.786 101.5,434C 129.5,450 157.5,466 185.5,482C 193.454,486.511 201.454,486.511 209.5,482C 240.964,463.365 272.298,444.532 303.5,425.5C 304.482,410.369 311.816,399.536 325.5,393C 334.508,391.317 340.675,394.817 344,403.5C 345.126,407.749 345.792,412.082 346,416.5C 351.636,418.286 357.136,420.452 362.5,423C 370.327,428.541 374.327,436.208 374.5,446C 371.68,456.826 365.18,464.659 355,469.5C 349.181,468.253 343.348,467.087 337.5,466C 331.415,465.139 325.415,465.473 319.5,467C 294.613,476.683 270.613,488.183 247.5,501.5C 259.233,509.034 271.566,515.534 284.5,521C 292.865,526.848 301.532,532.181 310.5,537C 337.112,543.295 364.112,546.628 391.5,547C 393.499,549.255 394.832,551.755 395.5,554.5 Z"/></g></svg>