<svg xmlns="http://www.w3.org/2000/svg" version="1.1" width="742px" height="736px" style="shape-rendering:geometricPrecision; text-rendering:geometricPrecision; image-rendering:optimizeQuality; fill-rule:evenodd; clip-rule:evenodd" xmlns:xlink="http://www.w3.org/1999/xlink"><g><path style="opacity:1" fill="#000000" d="M 243.5,-0.5 C 245.167,-0.5 246.833,-0.5 248.5,-0.5C 251.304,3.61779 252.804,8.28446 253,13.5C 253.108,20.4929 252.941,27.4929 252.5,34.5C 251.5,34.5 250.5,34.5 249.5,34.5C 250.306,28.7543 248.806,23.7543 245,19.5C 244.333,20.1667 243.667,20.8333 243,21.5C 243.732,32.9863 244.899,44.4863 246.5,56C 246.333,57.1667 246.167,58.3333 246,59.5C 243.947,55.3459 242.281,51.0125 241,46.5C 239.391,35.8455 237.891,25.1789 236.5,14.5C 235.978,8.02618 238.311,3.02618 243.5,-0.5 Z"/></g><g><path style="opacity:1" fill="#000000" d="M 429.5,6.5 C 430.525,6.89657 430.692,7.56323 430,8.5C 429.536,7.90558 429.369,7.23891 429.5,6.5 Z"/></g><g><path style="opacity:1" fill="#000000" d="M 430.5,15.5 C 431.822,15.33 432.989,15.6634 434,16.5C 434.808,18.4233 435.308,20.4233 435.5,22.5C 434.723,26.8271 434.056,31.1604 433.5,35.5C 430.956,35.1043 428.789,35.771 427,37.5C 425.289,33.1438 425.789,28.9771 428.5,25C 428.167,24.6667 427.833,24.3333 427.5,24C 429.619,23.9024 431.286,23.0691 432.5,21.5C 431.628,19.5504 430.961,17.5504 430.5,15.5 Z"/></g><g><path style="opacity:1" fill="#000000" d="M 431.5,40.5 C 432.077,39.2267 432.743,39.2267 433.5,40.5C 433.03,41.463 432.363,41.463 431.5,40.5 Z"/></g><g><path style="opacity:1" fill="#000000" d="M 443.5,45.5 C 448.617,45.0559 451.284,47.3892 451.5,52.5C 451.088,54.8867 450.088,56.8867 448.5,58.5C 447.692,58.1924 447.025,57.6924 446.5,57C 449.275,52.3857 447.942,49.8857 442.5,49.5C 442.433,48.0413 442.766,46.7079 443.5,45.5 Z"/></g><g><path style="opacity:1" fill="#000000" d="M 427.5,47.5 C 436.539,48.0371 441.539,52.8705 442.5,62C 441.79,70.9175 437.623,77.7508 430,82.5C 428.77,81.7248 428.437,80.7248 429,79.5C 430.626,76.8723 432.626,74.539 435,72.5C 435.947,67.9697 435.447,63.6364 433.5,59.5C 429.766,56.9036 426.266,57.2369 423,60.5C 420.168,65.7905 418.835,71.4572 419,77.5C 417.989,78.3366 416.822,78.67 415.5,78.5C 413.855,67.9148 416.188,58.4148 422.5,50C 424.315,49.2432 425.981,48.4098 427.5,47.5 Z"/></g><g><path style="opacity:1" fill="#000000" d="M 253.5,65.5 C 266.905,64.733 274.405,71.0663 276,84.5C 277.194,99.1024 272.527,111.436 262,121.5C 260.398,118.575 260.398,115.575 262,112.5C 271.113,101.414 271.779,89.7472 264,77.5C 257.581,72.5719 252.915,73.9052 250,81.5C 249,84.8333 248,88.1667 247,91.5C 245.194,94.6841 243.194,95.0175 241,92.5C 239.91,83.7691 242.077,75.9358 247.5,69C 249.727,68.059 251.727,66.8923 253.5,65.5 Z"/></g><g><path style="opacity:1" fill="#000000" d="M 445.5,74.5 C 452.844,78.6369 453.677,83.6369 448,89.5C 447.316,86.62 447.483,83.7866 448.5,81C 447.609,78.7211 446.609,76.5544 445.5,74.5 Z"/></g><g><path style="opacity:1" fill="#000000" d="M 395.5,79.5 C 400.267,79.1908 404.934,79.6908 409.5,81C 412.397,82.7155 413.731,85.2155 413.5,88.5C 409.941,87.4728 406.441,86.1394 403,84.5C 396.786,86.5495 393.12,90.8828 392,97.5C 391.369,101.857 391.535,106.191 392.5,110.5C 392.523,112.067 392.023,113.4 391,114.5C 381.396,101.362 382.896,89.6956 395.5,79.5 Z"/></g><g><path style="opacity:1" fill="#000000" d="M 423.5,87.5 C 436.251,89.3008 441.417,96.6341 439,109.5C 435.418,117.003 431.085,124.003 426,130.5C 425.056,129.737 424.556,128.737 424.5,127.5C 426.864,122.956 429.031,118.289 431,113.5C 432.521,107.123 431.021,101.623 426.5,97C 420.433,95.1667 415.766,96.8334 412.5,102C 411.552,102.483 410.552,102.649 409.5,102.5C 411.462,94.8742 416.129,89.8742 423.5,87.5 Z"/></g><g><path style="opacity:1" fill="#000000" d="M 233.5,95.5 C 236.516,96.562 239.516,97.7286 242.5,99C 244.378,100.993 244.712,103.159 243.5,105.5C 231.694,99.7743 226.027,103.608 226.5,117C 226.77,121.242 227.437,125.409 228.5,129.5C 224.93,129.099 222.764,127.099 222,123.5C 219.605,115.512 220.272,107.845 224,100.5C 226.995,98.3475 230.162,96.6808 233.5,95.5 Z"/></g><g><path style="opacity:1" fill="#000000" d="M 402.5,117.5 C 405.378,118.212 407.045,120.046 407.5,123C 404,137.833 400.5,152.667 397,167.5C 396.047,169.592 394.714,169.925 393,168.5C 392.219,167.271 391.719,165.938 391.5,164.5C 395.067,148.741 398.733,133.074 402.5,117.5 Z"/></g><g><path style="opacity:1" fill="#000000" d="M 244.5,121.5 C 249.893,122.189 253.893,124.856 256.5,129.5C 256.167,130.167 255.833,130.833 255.5,131.5C 251.55,127.661 247.717,127.661 244,131.5C 239.762,139.317 239.429,147.317 243,155.5C 244.413,157.414 246.247,158.747 248.5,159.5C 249.386,160.325 249.719,161.325 249.5,162.5C 236.348,161.509 230.015,154.342 230.5,141C 230.487,130.883 235.154,124.383 244.5,121.5 Z"/></g><g><path style="opacity:1" fill="#000000" d="M 256.5,141.5 C 260.9,142.579 262.233,145.246 260.5,149.5C 258.604,150.466 256.604,150.799 254.5,150.5C 254.207,147.246 254.874,144.246 256.5,141.5 Z"/></g><g><path style="opacity:1" fill="#000000" d="M 290.5,142.5 C 297.157,145.373 299.324,150.373 297,157.5C 294.46,155.295 292.293,152.795 290.5,150C 287.692,149.08 285.525,149.913 284,152.5C 283.5,152 283,151.5 282.5,151C 284.695,147.641 287.362,144.807 290.5,142.5 Z"/></g><g><path style="opacity:1" fill="#000000" d="M 564.5,147.5 C 566.39,147.297 567.89,147.963 569,149.5C 569.259,155.18 568.926,160.846 568,166.5C 567.586,166.957 567.086,167.291 566.5,167.5C 565.828,164.103 564.995,160.77 564,157.5C 563,158.167 562,158.833 561,159.5C 558.023,163.642 555.523,167.975 553.5,172.5C 552.369,170.926 552.202,169.259 553,167.5C 554.152,159.13 557.985,152.464 564.5,147.5 Z"/></g><g><path style="opacity:1" fill="#000000" d="M 650.5,148.5 C 653.596,147.907 655.929,148.907 657.5,151.5C 654.851,151.08 652.184,151.58 649.5,153C 648.039,155.421 646.706,157.921 645.5,160.5C 644.998,161.521 644.332,161.688 643.5,161C 645.628,156.708 647.962,152.542 650.5,148.5 Z"/></g><g><path style="opacity:1" fill="#000000" d="M 160.5,149.5 C 163.735,150.595 165.568,152.928 166,156.5C 167.755,167.542 169.755,178.542 172,189.5C 173.17,192.505 174.336,195.505 175.5,198.5C 180.229,194.818 185.562,193.318 191.5,194C 206.403,201.938 211.57,214.104 207,230.5C 205.181,236.81 201.848,242.143 197,246.5C 196.964,248.941 196.131,250.941 194.5,252.5C 193.119,252 192.453,251 192.5,249.5C 194.05,243.404 195.883,237.404 198,231.5C 201.248,215.314 194.915,205.314 179,201.5C 177.893,201.585 176.893,201.919 176,202.5C 175.872,205.514 175.872,208.514 176,211.5C 174.685,213.316 173.185,214.983 171.5,216.5C 167.112,195.006 162.779,173.506 158.5,152C 159.381,151.292 160.047,150.458 160.5,149.5 Z"/></g><g><path style="opacity:1" fill="#000000" d="M 264.5,157.5 C 269.416,159.772 269.583,162.772 265,166.5C 262.595,163.375 262.428,160.375 264.5,157.5 Z"/></g><g><path style="opacity:1" fill="#000000" d="M 276.5,187.5 C 275.979,179.773 277.646,172.607 281.5,166C 290.911,161.071 298.078,163.238 303,172.5C 305.62,184.238 301.954,193.238 292,199.5C 291.5,199.167 291,198.833 290.5,198.5C 294.095,192.229 295.928,185.562 296,178.5C 292.727,172.415 288.227,170.915 282.5,174C 279.816,178.311 277.816,182.811 276.5,187.5 Z"/></g><g><path style="opacity:1" fill="#000000" d="M 626.5,170.5 C 640.562,169.397 647.062,175.73 646,189.5C 643.773,193.799 641.94,193.966 640.5,190C 643.372,185.799 642.705,182.132 638.5,179C 631.522,178.07 626.022,180.57 622,186.5C 620.439,190.258 618.773,193.924 617,197.5C 615.144,186.559 618.311,177.559 626.5,170.5 Z"/></g><g><path style="opacity:1" fill="#000000" d="M 442.5,172.5 C 448.178,172.157 450.344,174.824 449,180.5C 446.916,177.601 444.749,174.934 442.5,172.5 Z"/></g><g><path style="opacity:1" fill="#000000" d="M 648.5,173.5 C 655.063,171.203 659.23,173.537 661,180.5C 662.207,193.08 656.707,201.08 644.5,204.5C 643.833,204.333 643.167,204.167 642.5,204C 644.963,200.535 647.796,197.369 651,194.5C 653.784,190.765 655.617,186.598 656.5,182C 655.669,177.338 653.002,174.504 648.5,173.5 Z"/></g><g><path style="opacity:1" fill="#000000" d="M 250.5,176.5 C 252.229,177.117 253.729,178.117 255,179.5C 256.867,242.171 258.867,304.837 261,367.5C 261.003,370.758 262.17,373.425 264.5,375.5C 265.665,383.813 265.832,392.147 265,400.5C 264.333,401.167 263.667,401.833 263,402.5C 263.122,449.18 264.122,495.847 266,542.5C 268.33,544.032 270.33,543.698 272,541.5C 274.919,454.681 277.419,367.848 279.5,281C 279.295,274.089 279.128,267.255 279,260.5C 281.799,262.623 283.799,265.29 285,268.5C 284.696,295.167 284.362,321.834 284,348.5C 285.378,350.213 287.045,351.547 289,352.5C 288.613,391.188 287.28,429.855 285,468.5C 281,471.607 279.167,475.774 279.5,481C 279.799,485.229 280.466,489.396 281.5,493.5C 282.167,493.167 282.833,492.833 283.5,492.5C 284.496,498.463 284.829,504.463 284.5,510.5C 282.533,510.261 280.699,510.594 279,511.5C 278.341,531.837 278.008,552.17 278,572.5C 279,573.833 280,573.833 281,572.5C 280.434,564.034 283.767,561.7 291,565.5C 291.033,573.402 290.2,581.236 288.5,589C 289.076,590.714 290.243,591.881 292,592.5C 302.732,553.905 311.732,514.905 319,475.5C 322.237,472.505 324.737,472.838 326.5,476.5C 322.545,494.949 318.211,513.282 313.5,531.5C 317.187,536.653 320.687,536.653 324,531.5C 343.832,466.513 363.332,401.513 382.5,336.5C 385.908,335.828 388.575,336.828 390.5,339.5C 372.323,401.207 353.99,462.873 335.5,524.5C 335.453,526 336.119,527 337.5,527.5C 339.621,525.979 341.121,523.979 342,521.5C 353.716,489.733 365.716,458.066 378,426.5C 380.088,425.692 382.088,424.692 384,423.5C 382.805,431.793 380.471,439.793 377,447.5C 377.289,459.317 373.289,469.317 365,477.5C 354.966,505.269 345.133,533.102 335.5,561C 335.763,562.946 336.763,563.612 338.5,563C 353.237,531.026 367.57,498.859 381.5,466.5C 383.765,465.353 386.098,465.186 388.5,466C 389.081,466.893 389.415,467.893 389.5,469C 387.221,474.402 385.054,479.902 383,485.5C 381.374,488.128 379.374,490.461 377,492.5C 362.061,525.871 347.561,559.371 333.5,593C 334.522,595.316 336.022,595.816 338,594.5C 360.672,550.485 383.839,506.818 407.5,463.5C 408.711,464.874 409.711,466.374 410.5,468C 382.936,520.129 355.936,572.463 329.5,625C 330.449,625.617 331.282,625.451 332,624.5C 337.333,617.167 342.667,609.833 348,602.5C 360.63,581.4 374.13,560.9 388.5,541C 391.245,540.782 393.912,541.282 396.5,542.5C 386.197,558.635 375.697,574.635 365,590.5C 364.558,593.305 365.058,595.972 366.5,598.5C 365.678,601.829 363.845,604.495 361,606.5C 360.626,608.898 360.626,611.231 361,613.5C 355.846,620.318 350.346,626.818 344.5,633C 345.466,634.678 346.799,635.345 348.5,635C 366.901,616.602 384.568,597.602 401.5,578C 404.522,577.364 406.022,578.53 406,581.5C 392.798,597.694 378.965,613.36 364.5,628.5C 363.141,630.306 363.475,631.806 365.5,633C 367.598,632.968 369.598,632.301 371.5,631C 387.667,616.167 403.833,601.333 420,586.5C 417.607,594.613 413.607,601.946 408,608.5C 400.813,615.023 393.646,621.523 386.5,628C 389.592,632.063 388.925,635.396 384.5,638C 380.217,640.615 376.217,643.615 372.5,647C 368.825,647.557 365.492,648.89 362.5,651C 357.475,655.362 352.475,659.696 347.5,664C 351.5,667 351.5,670 347.5,673C 341.833,677.333 336.167,681.667 330.5,686C 328.167,686.333 325.833,686.667 323.5,687C 322.219,689.403 320.386,691.237 318,692.5C 317.768,695.738 316.268,698.238 313.5,700C 299,711.167 284.5,722.333 270,733.5C 265.199,729.701 260.699,725.534 256.5,721C 253.754,719.25 250.754,718.25 247.5,718C 232.897,701.894 216.897,687.394 199.5,674.5C 197.568,675.52 195.568,675.687 193.5,675C 189.701,672.203 186.201,669.036 183,665.5C 182.946,662.139 181.946,659.139 180,656.5C 176.019,653.687 172.519,650.353 169.5,646.5C 169.667,646.167 169.833,645.833 170,645.5C 171.419,646.46 172.919,647.293 174.5,648C 189.091,660.579 203.758,673.246 218.5,686C 221.701,688.267 225.034,689.934 228.5,691C 214.722,677.558 201.388,663.891 188.5,650C 184.278,648.974 180.778,646.807 178,643.5C 176.039,640.537 173.706,637.871 171,635.5C 169.753,632.671 168.253,630.005 166.5,627.5C 161.269,623.437 156.936,618.604 153.5,613C 156.41,612.554 159.077,613.221 161.5,615C 180.5,633.333 199.5,651.667 218.5,670C 219.635,670.749 220.635,670.583 221.5,669.5C 221.986,667.503 223.153,666.169 225,665.5C 228.011,667.08 230.844,668.747 233.5,670.5C 233.702,668.011 233.202,665.677 232,663.5C 221.917,648.336 212.084,633.003 202.5,617.5C 202.808,616.692 203.308,616.025 204,615.5C 206.491,617.29 208.658,619.457 210.5,622C 211.483,622.591 212.15,622.257 212.5,621C 208.784,611.837 203.951,603.337 198,595.5C 197.257,593.559 197.424,591.726 198.5,590C 200.167,589.167 201.833,588.333 203.5,587.5C 207.436,592.37 210.602,597.704 213,603.5C 214.907,606.287 216.407,606.12 217.5,603C 203.156,565.158 188.156,527.658 172.5,490.5C 170.821,489.218 168.987,488.218 167,487.5C 165.503,482.501 163.336,477.835 160.5,473.5C 161.5,471.833 162.5,470.167 163.5,468.5C 158.704,455.578 153.37,442.911 147.5,430.5C 146.675,429.614 145.675,429.281 144.5,429.5C 144.142,433.509 143.642,437.509 143,441.5C 140.557,442.285 138.057,442.119 135.5,441C 119.232,428.881 112.732,412.714 116,392.5C 117.405,388.783 118.905,385.117 120.5,381.5C 121.427,391.916 122.927,402.25 125,412.5C 127.238,419.055 131.238,424.055 137,427.5C 139.613,425.273 142.113,423.606 144.5,422.5C 138.431,407.127 132.265,391.793 126,376.5C 124.836,373.519 124.169,370.519 124,367.5C 125.241,365.579 126.741,365.246 128.5,366.5C 130.131,372.564 132.631,378.23 136,383.5C 137.667,380.833 139.333,380.833 141,383.5C 143.646,389.29 146.146,395.124 148.5,401C 144.175,403.129 143.341,406.296 146,410.5C 167.541,462.798 188.874,515.131 210,567.5C 210.833,568.5 211.667,569.5 212.5,570.5C 212.833,570 213.167,569.5 213.5,569C 183.041,481.11 152.375,393.61 121.5,306.5C 123.614,307.034 125.448,308.034 127,309.5C 145.48,360.61 164.147,411.61 183,462.5C 184.667,463.167 186.333,463.833 188,464.5C 200.868,502.104 213.535,539.77 226,577.5C 228.531,580.322 230.031,579.822 230.5,576C 227.901,569.038 226.234,561.872 225.5,554.5C 228.571,555.075 230.571,553.909 231.5,551C 223.219,505.477 214.885,459.977 206.5,414.5C 198.277,415.723 197.61,414.057 204.5,409.5C 204.987,408.554 205.32,407.554 205.5,406.5C 204.139,398.806 202.639,391.139 201,383.5C 199.508,377.47 197.342,377.137 194.5,382.5C 193.391,383.59 192.391,383.59 191.5,382.5C 190.547,377.336 189.547,372.169 188.5,367C 188.667,365.5 189.5,364.667 191,364.5C 193.053,366.25 194.886,368.25 196.5,370.5C 197.287,369.758 197.953,368.925 198.5,368C 196.527,359.766 194.86,351.432 193.5,343C 193.833,341.833 194.167,340.667 194.5,339.5C 196.753,340.253 198.587,341.586 200,343.5C 202.458,352.787 204.791,362.12 207,371.5C 210.411,397.384 214.911,423.05 220.5,448.5C 221.689,449.429 223.022,449.762 224.5,449.5C 227.806,462.697 230.473,476.03 232.5,489.5C 229.05,489.573 227.717,491.406 228.5,495C 229.638,504.383 231.638,513.55 234.5,522.5C 237.365,522.055 239.865,522.722 242,524.5C 242.774,528.147 243.441,531.814 244,535.5C 244.667,536.167 245.333,536.833 246,537.5C 243.329,496.453 239.829,455.453 235.5,414.5C 234.178,414.33 233.011,414.663 232,415.5C 221.846,402.919 219.846,389.253 226,374.5C 229.939,373.626 231.439,371.126 230.5,367C 229.374,355.119 227.874,343.286 226,331.5C 224.846,330.257 223.512,329.257 222,328.5C 221.697,324.471 221.197,320.471 220.5,316.5C 220.833,314.833 221.833,313.833 223.5,313.5C 224.308,311.577 224.808,309.577 225,307.5C 226.584,308.861 228.418,309.528 230.5,309.5C 236.012,362.21 241.845,414.876 248,467.5C 248.333,467.833 248.667,468.167 249,468.5C 252.355,466.462 254.188,463.462 254.5,459.5C 256.134,459.032 257.3,458.032 258,456.5C 257.363,413.509 255.863,370.509 253.5,327.5C 252.522,327.023 251.689,326.357 251,325.5C 250.107,322.567 249.607,319.567 249.5,316.5C 250.629,311.319 250.629,306.152 249.5,301C 249.999,298.995 251.166,297.495 253,296.5C 253.173,280.806 252.506,265.14 251,249.5C 249.989,248.663 248.822,248.33 247.5,248.5C 246.181,242.581 245.514,236.581 245.5,230.5C 248.73,230.439 250.563,228.772 251,225.5C 251.244,209.167 251.077,192.833 250.5,176.5 Z M 227.5,375.5 C 231.664,375.772 233.497,378.106 233,382.5C 233.944,391.831 234.777,401.165 235.5,410.5C 235.444,411.737 234.944,412.737 234,413.5C 222.848,402.246 220.681,389.579 227.5,375.5 Z"/></g><g><path style="opacity:1" fill="#000000" d="M 538.5,179.5 C 551.881,178.048 558.381,184.048 558,197.5C 557.275,199.158 556.108,199.658 554.5,199C 552.532,190.025 547.199,186.692 538.5,189C 530.895,196.358 526.895,205.191 526.5,215.5C 523.804,205.398 524.971,195.731 530,186.5C 532.441,183.546 535.275,181.213 538.5,179.5 Z"/></g><g><path style="opacity:1" fill="#000000" d="M 559.5,179.5 C 566.449,179.059 571.282,182.059 574,188.5C 575.981,196.863 573.315,203.196 566,207.5C 564.5,207.333 563.667,206.5 563.5,205C 564.874,200.481 566.874,196.314 569.5,192.5C 567.227,188.391 564.06,185.058 560,182.5C 559.517,181.552 559.351,180.552 559.5,179.5 Z"/></g><g><path style="opacity:1" fill="#000000" d="M 386.5,180.5 C 389.874,181.691 391.54,184.191 391.5,188C 390.133,192.401 389.467,196.901 389.5,201.5C 386.916,201.431 384.916,200.265 383.5,198C 384.389,192.182 385.389,186.349 386.5,180.5 Z"/></g><g><path style="opacity:1" fill="#000000" d="M 428.5,181.5 C 434.41,180.955 438.744,183.288 441.5,188.5C 441.167,189.5 440.5,190.167 439.5,190.5C 434.069,187.323 429.236,187.99 425,192.5C 423.028,197.654 421.695,202.988 421,208.5C 420.163,210.844 418.829,212.844 417,214.5C 418.319,206.584 419.653,198.584 421,190.5C 422.124,186.196 424.624,183.196 428.5,181.5 Z"/></g><g><path style="opacity:1" fill="#000000" d="M 276.5,187.5 C 275.833,188.167 275.833,188.167 276.5,187.5 Z"/></g><g><path style="opacity:1" fill="#000000" d="M 156.5,199.5 C 161.335,199.966 163.335,202.633 162.5,207.5C 159.09,207.782 155.757,208.449 152.5,209.5C 151.815,212.627 150.815,215.627 149.5,218.5C 148.914,218.291 148.414,217.957 148,217.5C 145.232,208.707 148.065,202.707 156.5,199.5 Z"/></g><g><path style="opacity:1" fill="#000000" d="M 434.5,202.5 C 438.95,202.142 442.45,203.808 445,207.5C 446.198,211.567 447.031,215.733 447.5,220C 445.019,237.957 438.352,254.123 427.5,268.5C 424.194,272.305 420.194,275.138 415.5,277C 414.366,280.633 412.033,283.133 408.5,284.5C 407.242,281.278 407.742,278.278 410,275.5C 413.21,271.813 417.044,268.979 421.5,267C 423.709,265.127 425.542,262.96 427,260.5C 432.324,251.022 436.157,241.022 438.5,230.5C 438.393,227.433 437.893,224.433 437,221.5C 435.263,219.375 433.096,218.542 430.5,219C 427.926,220.914 426.093,223.414 425,226.5C 422.823,234.051 421.156,241.718 420,249.5C 419.333,248.833 418.667,248.167 418,247.5C 418.852,237.628 416.185,236.295 410,243.5C 404.612,252.219 402.112,261.719 402.5,272C 403.303,280.026 404.303,288.026 405.5,296C 404.745,299.518 403.912,303.018 403,306.5C 399.399,308.034 395.732,309.367 392,310.5C 392.878,303.992 394.544,297.658 397,291.5C 397.333,279.833 397.667,268.167 398,256.5C 399.224,247.941 403.058,240.775 409.5,235C 412.426,234.782 415.26,234.282 418,233.5C 420.094,225.974 422.761,218.641 426,211.5C 428.362,207.973 431.196,204.973 434.5,202.5 Z"/></g><g><path style="opacity:1" fill="#000000" d="M 628.5,205.5 C 630.167,209.653 632.5,213.486 635.5,217C 640.44,218.041 645.106,217.374 649.5,215C 651.207,211.752 653.04,208.585 655,205.5C 655.667,208.5 655.667,211.5 655,214.5C 649.249,224.785 641.083,227.285 630.5,222C 627.316,216.85 626.65,211.35 628.5,205.5 Z"/></g><g><path style="opacity:1" fill="#000000" d="M 377.5,213.5 C 379.854,213.838 382.187,214.338 384.5,215C 378.451,218.109 372.617,221.609 367,225.5C 354.129,241.643 349.796,259.643 354,279.5C 355.451,285.639 354.284,291.139 350.5,296C 345.03,298.842 341.197,297.342 339,291.5C 338.182,285.098 338.516,278.765 340,272.5C 341,271.833 342,271.167 343,270.5C 342.846,274.161 342.346,277.827 341.5,281.5C 341.217,285.532 342.717,288.532 346,290.5C 347.987,289.846 349.32,288.513 350,286.5C 350.606,280.251 349.606,274.251 347,268.5C 344.799,254.452 346.799,241.118 353,228.5C 359.434,220.539 367.6,215.539 377.5,213.5 Z"/></g><g><path style="opacity:1" fill="#000000" d="M 537.5,214.5 C 540.331,216.832 541.498,219.832 541,223.5C 535.781,235.605 529.781,247.272 523,258.5C 519.885,255.818 518.885,252.484 520,248.5C 526.119,237.305 531.953,225.971 537.5,214.5 Z"/></g><g><path style="opacity:1" fill="#000000" d="M 617.5,215.5 C 621.226,219.384 622.393,224.051 621,229.5C 617.358,234.493 614.525,233.827 612.5,227.5C 614.711,223.743 616.377,219.743 617.5,215.5 Z"/></g><g><path style="opacity:1" fill="#000000" d="M 157.5,221.5 C 163.762,221.367 169.429,223.034 174.5,226.5C 175.246,227.736 175.579,229.07 175.5,230.5C 173.319,230.716 171.653,229.883 170.5,228C 168.5,227.333 166.5,227.333 164.5,228C 154.213,236.508 152.047,246.675 158,258.5C 161.838,262.783 166.671,264.95 172.5,265C 172.957,265.414 173.291,265.914 173.5,266.5C 172.308,268.683 170.475,270.016 168,270.5C 152.651,267.81 145.484,258.643 146.5,243C 146.612,233.941 150.279,226.774 157.5,221.5 Z"/></g><g><path style="opacity:1" fill="#000000" d="M 383.5,225.5 C 384.873,225.343 386.207,225.51 387.5,226C 396.591,237.229 396.758,248.729 388,260.5C 381.181,266.309 375.514,272.975 371,280.5C 370.348,277.406 370.682,274.406 372,271.5C 375.504,265.156 379.504,259.156 384,253.5C 388.118,244.385 386.951,236.052 380.5,228.5C 381.34,227.265 382.34,226.265 383.5,225.5 Z"/></g><g><path style="opacity:1" fill="#000000" d="M 500.5,226.5 C 501.833,226.5 503.167,226.5 504.5,226.5C 504.22,229.727 502.887,232.393 500.5,234.5C 497.937,231.92 497.937,229.253 500.5,226.5 Z"/></g><g><path style="opacity:1" fill="#000000" d="M 280.5,227.5 C 284.093,228.548 285.76,230.715 285.5,234C 283.229,233.618 281.229,232.451 279.5,230.5C 280.127,229.583 280.461,228.583 280.5,227.5 Z"/></g><g><path style="opacity:1" fill="#000000" d="M 217.5,228.5 C 221.316,229.313 223.316,231.647 223.5,235.5C 222.448,235.649 221.448,235.483 220.5,235C 219.334,231.315 217.501,230.815 215,233.5C 214.5,233.167 214,232.833 213.5,232.5C 214.549,230.784 215.882,229.451 217.5,228.5 Z"/></g><g><path style="opacity:1" fill="#000000" d="M 488.5,234.5 C 493.938,233.451 496.938,235.618 497.5,241C 497.07,250.299 493.904,258.466 488,265.5C 490.237,259.01 491.904,252.343 493,245.5C 492.196,244.196 491.029,243.529 489.5,243.5C 486.345,244.15 483.845,245.817 482,248.5C 482.33,243.022 484.497,238.355 488.5,234.5 Z"/></g><g><path style="opacity:1" fill="#000000" d="M 607.5,234.5 C 608.117,234.611 608.617,234.944 609,235.5C 609.738,239.261 609.405,242.928 608,246.5C 602.175,251.99 597.509,258.323 594,265.5C 591.508,268.191 589.675,267.691 588.5,264C 593.959,253.577 600.292,243.743 607.5,234.5 Z"/></g><g><path style="opacity:1" fill="#000000" d="M 278.5,240.5 C 282.695,241.264 285.028,243.764 285.5,248C 280.986,247.65 278.653,245.15 278.5,240.5 Z"/></g><g><path style="opacity:1" fill="#000000" d="M 60.5,241.5 C 62.5273,241.338 64.5273,241.505 66.5,242C 70.0247,245.557 73.1914,249.39 76,253.5C 77.7764,261.439 79.9431,269.272 82.5,277C 81.5527,280.072 79.5527,281.072 76.5,280C 66.686,271.206 60.3526,260.372 57.5,247.5C 57.9837,245.199 58.9837,243.199 60.5,241.5 Z M 68.5,252.5 C 71.1751,253.677 73.0084,255.677 74,258.5C 75.0234,261.783 75.8567,265.116 76.5,268.5C 76.4435,269.737 75.9435,270.737 75,271.5C 68.8506,266.217 66.6839,259.883 68.5,252.5 Z"/></g><g><path style="opacity:1" fill="#000000" d="M 216.5,242.5 C 221.952,242.144 225.785,244.477 228,249.5C 230.499,262.664 232.999,275.831 235.5,289C 234.385,291.702 232.551,292.202 230,290.5C 228.374,291.289 226.874,292.289 225.5,293.5C 219.109,287.076 220.276,284.743 229,286.5C 230.023,285.4 230.523,284.067 230.5,282.5C 229.102,276.554 227.936,270.554 227,264.5C 226.117,261.898 224.617,259.731 222.5,258C 221.004,257.493 219.837,257.993 219,259.5C 217.729,264.754 217.229,270.087 217.5,275.5C 216.167,275.5 214.833,275.5 213.5,275.5C 213.103,269.299 212.436,263.133 211.5,257C 212.181,251.748 213.848,246.915 216.5,242.5 Z"/></g><g><path style="opacity:1" fill="#000000" d="M 191.5,257.5 C 199.979,257.314 205.313,261.314 207.5,269.5C 206.228,276.606 202.061,280.939 195,282.5C 193.596,282.491 192.43,281.991 191.5,281C 193.348,278.821 195.515,276.987 198,275.5C 198.755,272.697 198.422,270.03 197,267.5C 194.205,264.533 191.038,262.2 187.5,260.5C 188.624,259.141 189.958,258.141 191.5,257.5 Z"/></g><g><path style="opacity:1" fill="#000000" d="M 684.5,265.5 C 687.084,266.048 688.084,267.715 687.5,270.5C 686.5,270.5 685.5,270.5 684.5,270.5C 683.929,268.64 683.929,266.973 684.5,265.5 Z"/></g><g><path style="opacity:1" fill="#000000" d="M 672.5,269.5 C 682.061,267.954 684.895,271.621 681,280.5C 679.736,282.607 677.903,283.607 675.5,283.5C 675.462,280.819 676.129,278.319 677.5,276C 675.968,273.883 673.968,272.216 671.5,271C 672.056,270.617 672.389,270.117 672.5,269.5 Z"/></g><g><path style="opacity:1" fill="#000000" d="M 479.5,270.5 C 482.076,270.722 482.91,272.055 482,274.5C 480.045,278.618 477.212,281.952 473.5,284.5C 473.167,284.167 472.833,283.833 472.5,283.5C 474.577,279.012 476.91,274.679 479.5,270.5 Z"/></g><g><path style="opacity:1" fill="#000000" d="M 160.5,274.5 C 161.822,274.33 162.989,274.663 164,275.5C 165.455,278.912 167.288,282.079 169.5,285C 176.444,288.04 179.777,285.873 179.5,278.5C 180.833,278.5 182.167,278.5 183.5,278.5C 185.381,285.241 183.048,290.074 176.5,293C 165.464,295.461 159.131,290.961 157.5,279.5C 158.26,277.64 159.26,275.973 160.5,274.5 Z"/></g><g><path style="opacity:1" fill="#000000" d="M 223.5,274.5 C 224.289,274.783 224.956,275.283 225.5,276C 224.184,276.528 223.517,276.028 223.5,274.5 Z"/></g><g><path style="opacity:1" fill="#000000" d="M 530.5,274.5 C 579.005,271.822 613.172,292.489 633,336.5C 634.511,342.212 636.178,347.879 638,353.5C 639.585,389.152 640.251,424.818 640,460.5C 635.788,481.044 623.622,494.211 603.5,500C 564.479,502.177 525.479,504.177 486.5,506C 469.889,501.049 461.055,489.882 460,472.5C 459.767,462.134 459.1,451.801 458,441.5C 451.256,440.521 444.422,440.188 437.5,440.5C 439.187,411.673 442.353,383.007 447,354.5C 454.544,318.972 475.044,294.472 508.5,281C 515.976,278.883 523.309,276.716 530.5,274.5 Z M 477.5,367.5 C 486.649,368.129 490.149,372.796 488,381.5C 484.162,386.088 479.662,387.088 474.5,384.5C 468.691,377.55 469.691,371.883 477.5,367.5 Z"/></g><g><path style="opacity:1" fill="#000000" d="M 114.5,277.5 C 116.465,277.948 116.798,278.948 115.5,280.5C 114.614,279.675 114.281,278.675 114.5,277.5 Z"/></g><g><path style="opacity:1" fill="#000000" d="M 421.5,278.5 C 423.39,278.297 424.89,278.963 426,280.5C 425.934,285.703 424.434,290.536 421.5,295C 418.976,296.513 416.309,297.18 413.5,297C 412.424,295.274 412.257,293.441 413,291.5C 418.321,288.873 421.154,284.54 421.5,278.5 Z"/></g><g><path style="opacity:1" fill="#000000" d="M 667.5,283.5 C 669.028,283.517 669.528,284.184 669,285.5C 667.029,287.1 665.196,287.266 663.5,286C 664.858,285.066 666.192,284.232 667.5,283.5 Z"/></g><g><path style="opacity:1" fill="#000000" d="M 362.5,287.5 C 366.075,289.415 368.075,292.415 368.5,296.5C 355.578,352.108 342.912,407.775 330.5,463.5C 328.167,463.5 325.833,463.5 323.5,463.5C 337.266,405.004 350.266,346.337 362.5,287.5 Z"/></g><g><path style="opacity:1" fill="#000000" d="M 86.5,288.5 C 90.5887,289.412 94.0887,291.412 97,294.5C 103.038,302.577 108.038,311.244 112,320.5C 112.57,324.76 113.403,328.926 114.5,333C 113.833,335.333 113.167,337.667 112.5,340C 110.112,340.865 108.612,340.032 108,337.5C 106.639,325.721 102.973,314.721 97,304.5C 92.8333,299 88,294.167 82.5,290C 84.0581,289.79 85.3915,289.29 86.5,288.5 Z"/></g><g><path style="opacity:1" fill="#000000" d="M 113.5,292.5 C 113.735,291.903 114.235,291.57 115,291.5C 118.017,291.995 120.517,293.329 122.5,295.5C 122.192,296.308 121.692,296.975 121,297.5C 118.041,296.416 115.541,294.75 113.5,292.5 Z"/></g><g><path style="opacity:1" fill="#000000" d="M 184.5,292.5 C 187.87,293.432 190.37,295.432 192,298.5C 195.339,308.682 197.172,319.015 197.5,329.5C 191.069,327.567 187.902,323.233 188,316.5C 186.249,315.826 184.583,315.493 183,315.5C 181.115,313.086 180.448,310.419 181,307.5C 182.356,306.62 183.856,306.286 185.5,306.5C 185.167,301.833 184.833,297.167 184.5,292.5 Z"/></g><g><path style="opacity:1" fill="#000000" d="M 652.5,293.5 C 654.974,296.187 655.141,299.187 653,302.5C 650.833,304.667 648.667,306.833 646.5,309C 645.167,309.667 643.833,309.667 642.5,309C 641.549,308.282 641.383,307.449 642,306.5C 645.713,302.292 649.213,297.959 652.5,293.5 Z"/></g><g><path style="opacity:1" fill="#000000" d="M 440.5,297.5 C 445.126,296.7 448.96,298.034 452,301.5C 453.583,306.1 452.083,307.934 447.5,307C 446.91,305.701 445.91,304.868 444.5,304.5C 437.515,306.433 433.849,311.1 433.5,318.5C 434.415,322.144 434.581,325.81 434,329.5C 432.673,326.869 431.34,324.202 430,321.5C 426.742,320.445 424.076,321.445 422,324.5C 417.771,330.159 416.438,336.493 418,343.5C 421,347.167 424,350.833 427,354.5C 426.761,363.143 424.761,363.143 421,354.5C 412.063,349.377 408.73,341.711 411,331.5C 412.496,321.333 418.329,316.167 428.5,316C 429.921,311.826 431.421,307.659 433,303.5C 435.114,300.879 437.614,298.879 440.5,297.5 Z"/></g><g><path style="opacity:1" fill="#000000" d="M 299.5,298.5 C 307.866,297.716 312.366,301.383 313,309.5C 312.439,310.022 311.772,310.355 311,310.5C 308.34,306.921 304.84,305.088 300.5,305C 294.807,307.357 291.307,311.523 290,317.5C 289.672,314.793 290.005,312.126 291,309.5C 293.284,305.386 296.117,301.72 299.5,298.5 Z"/></g><g><path style="opacity:1" fill="#000000" d="M 34.5,308.5 C 37.0009,308.511 37.1676,309.178 35,310.5C 34.5357,309.906 34.369,309.239 34.5,308.5 Z"/></g><g><path style="opacity:1" fill="#000000" d="M 92.5,309.5 C 93.4972,309.47 94.1639,309.97 94.5,311C 93.0719,325.718 96.7386,339.052 105.5,351C 107.833,351.667 110.167,351.667 112.5,351C 114.812,344.136 117.146,343.97 119.5,350.5C 117.706,359.898 112.373,362.731 103.5,359C 90.3475,351.176 85.5141,339.676 89,324.5C 90.0139,319.446 91.1805,314.446 92.5,309.5 Z"/></g><g><path style="opacity:1" fill="#000000" d="M 346.5,312.5 C 347.289,312.783 347.956,313.283 348.5,314C 347.184,314.528 346.517,314.028 346.5,312.5 Z"/></g><g><path style="opacity:1" fill="#000000" d="M 312.5,314.5 C 322.58,314.123 330.413,318.123 336,326.5C 336.667,328.833 336.667,331.167 336,333.5C 333.719,330.097 330.886,327.263 327.5,325C 314.443,320.352 304.276,323.852 297,335.5C 297.514,331.124 299.181,327.124 302,323.5C 305.665,320.601 309.165,317.601 312.5,314.5 Z"/></g><g><path style="opacity:1" fill="#000000" d="M 396.5,317.5 C 397.613,318.946 397.78,320.613 397,322.5C 396,324.167 395,325.833 394,327.5C 391.919,328.333 389.752,328.333 387.5,327.5C 388.234,321.979 391.234,318.646 396.5,317.5 Z"/></g><g><path style="opacity:1" fill="#000000" d="M 449.5,317.5 C 451.167,317.5 452.833,317.5 454.5,317.5C 447.431,333.873 440.264,350.206 433,366.5C 429.542,370.138 428.208,369.138 429,363.5C 435.554,348.058 442.387,332.724 449.5,317.5 Z"/></g><g><path style="opacity:1" fill="#000000" d="M 343.5,322.5 C 345.76,323.238 345.927,324.238 344,325.5C 342.272,324.648 342.105,323.648 343.5,322.5 Z"/></g><g><path style="opacity:1" fill="#000000" d="M 40.5,325.5 C 48.7204,326.604 53.3871,331.271 54.5,339.5C 53.9653,341.101 52.9653,341.601 51.5,341C 50.1667,338.667 48.8333,336.333 47.5,334C 42.4744,332.506 38.3077,333.673 35,337.5C 34.0438,340.377 32.7105,343.044 31,345.5C 30.5,345 30,344.5 29.5,344C 30.9953,340.183 32.4953,336.35 34,332.5C 35.6941,329.642 37.8607,327.309 40.5,325.5 Z"/></g><g><path style="opacity:1" fill="#000000" d="M 340.5,331.5 C 341.693,331.97 342.36,332.97 342.5,334.5C 341.56,340.426 340.227,346.26 338.5,352C 338.872,354.709 340.372,356.543 343,357.5C 342.346,373.105 339.013,388.105 333,402.5C 331.547,399.714 331.714,396.88 333.5,394C 331.973,391.561 329.973,389.561 327.5,388C 332.127,369.275 336.46,350.442 340.5,331.5 Z"/></g><g><path style="opacity:1" fill="#000000" d="M 696.5,342.5 C 698.934,343.354 698.767,344.354 696,345.5C 695.53,344.423 695.697,343.423 696.5,342.5 Z"/></g><g><path style="opacity:1" fill="#000000" d="M 46.5,349.5 C 50.5138,349.334 54.5138,349.501 58.5,350C 67.8815,354.348 67.2148,355.514 56.5,353.5C 43.5746,355.665 36.908,363.332 36.5,376.5C 36.2608,381.184 37.5942,385.351 40.5,389C 40.1667,389.5 39.8333,390 39.5,390.5C 35.3671,388.867 32.8671,385.867 32,381.5C 27.6505,370.515 29.8171,361.015 38.5,353C 41.1579,351.522 43.8245,350.355 46.5,349.5 Z"/></g><g><path style="opacity:1" fill="#000000" d="M 684.5,351.5 C 688.225,351.537 689.558,353.204 688.5,356.5C 683.733,357.899 682.4,356.232 684.5,351.5 Z"/></g><g><path style="opacity:1" fill="#000000" d="M 676.5,360.5 C 679.955,361.128 681.122,363.128 680,366.5C 677,369.167 674,371.833 671,374.5C 669.307,372.424 668.64,370.091 669,367.5C 671.479,365.034 673.979,362.701 676.5,360.5 Z"/></g><g><path style="opacity:1" fill="#000000" d="M 660.5,374.5 C 662.497,376.513 664.164,378.846 665.5,381.5C 660.541,385.957 655.708,390.624 651,395.5C 649.107,392.733 648.107,389.733 648,386.5C 652.062,382.269 656.229,378.269 660.5,374.5 Z"/></g><g><path style="opacity:1" fill="#000000" d="M 313.5,384.5 C 317.909,383.899 319.242,385.566 317.5,389.5C 315.339,388.965 313.339,388.132 311.5,387C 312.381,386.292 313.047,385.458 313.5,384.5 Z"/></g><g><path style="opacity:1" fill="#000000" d="M 421.5,384.5 C 423.635,384.147 424.968,384.98 425.5,387C 424.836,389.854 423.336,392.021 421,393.5C 417.7,390.348 417.867,387.348 421.5,384.5 Z"/></g><g><path style="opacity:1" fill="#000000" d="M 314.5,392.5 C 319.004,393.334 321.337,396 321.5,400.5C 318.972,399.977 316.639,398.977 314.5,397.5C 311.755,398.462 309.755,400.295 308.5,403C 307.833,403.667 307.167,403.667 306.5,403C 307.937,398.416 310.604,394.916 314.5,392.5 Z"/></g><g><path style="opacity:1" fill="#000000" d="M 45.5,394.5 C 45.8966,393.475 46.5632,393.308 47.5,394C 46.9056,394.464 46.2389,394.631 45.5,394.5 Z"/></g><g><path style="opacity:1" fill="#000000" d="M 194.5,397.5 C 195.873,397.343 197.207,397.51 198.5,398C 202.083,402.648 201.083,405.481 195.5,406.5C 194.841,403.545 194.508,400.545 194.5,397.5 Z"/></g><g><path style="opacity:1" fill="#000000" d="M 391.5,398.5 C 395.873,400.307 396.706,403.307 394,407.5C 391.932,410.645 389.432,411.145 386.5,409C 388.459,405.616 390.125,402.116 391.5,398.5 Z"/></g><g><path style="opacity:1" fill="#000000" d="M -0.5,461.5 C -0.5,454.833 -0.5,448.167 -0.5,441.5C 4.31754,422.086 16.3175,409.253 35.5,403C 39.1667,402.333 42.8333,402.333 46.5,403C 38.5304,406.433 30.8637,410.433 23.5,415C 13.4681,424.406 8.46811,436.072 8.5,450C 8.70689,459.327 10.8736,468.161 15,476.5C 17.9192,481.34 21.0859,486.006 24.5,490.5C 22.1022,491.724 19.7689,491.558 17.5,490C 8.04453,482.569 2.04453,473.069 -0.5,461.5 Z"/></g><g><path style="opacity:1" fill="#000000" d="M 314.5,405.5 C 319.748,406.629 322.081,409.962 321.5,415.5C 318.802,434.492 314.635,453.159 309,471.5C 307.397,470.114 306.563,468.281 306.5,466C 308.322,458.526 310.156,451.026 312,443.5C 312.253,438.961 312.753,434.461 313.5,430C 311.847,421.551 309.347,421.384 306,429.5C 305.055,435.197 304.055,440.864 303,446.5C 302.586,446.957 302.086,447.291 301.5,447.5C 300.297,435.384 302.13,423.717 307,412.5C 309.396,409.933 311.896,407.6 314.5,405.5 Z"/></g><g><path style="opacity:1" fill="#000000" d="M 409.5,409.5 C 411.017,409.511 412.184,410.177 413,411.5C 413.667,414.167 413.667,416.833 413,419.5C 408.774,429.389 404.107,439.056 399,448.5C 395.983,445.414 394.983,441.748 396,437.5C 400.802,428.231 405.302,418.898 409.5,409.5 Z"/></g><g><path style="opacity:1" fill="#000000" d="M 86.5,410.5 C 92.2449,410.211 97.9116,410.711 103.5,412C 105.741,413.739 107.408,415.906 108.5,418.5C 79.2397,417.082 63.2397,431.082 60.5,460.5C 60.638,468.191 62.3046,475.525 65.5,482.5C 65,483.5 64.5,484.5 64,485.5C 61.5779,482.353 58.9112,479.353 56,476.5C 46.6795,483.814 45.3462,492.48 52,502.5C 52.9246,503.047 53.7579,503.713 54.5,504.5C 51.7552,507.412 48.5885,509.746 45,511.5C 41.5538,509.95 39.5538,507.283 39,503.5C 37.3634,495.086 39.03,487.419 44,480.5C 48.0065,477.324 51.8398,473.991 55.5,470.5C 46.6385,440.407 56.9718,420.407 86.5,410.5 Z"/></g><g><path style="opacity:1" fill="#000000" d="M 179.5,437.5 C 198.254,448.606 204.754,464.606 199,485.5C 199.96,469.423 193.96,456.756 181,447.5C 179.684,444.312 179.184,440.978 179.5,437.5 Z"/></g><g><path style="opacity:1" fill="#000000" d="M 419.5,442.5 C 421.89,442.685 422.89,444.018 422.5,446.5C 422.123,450.257 420.457,453.257 417.5,455.5C 416.019,454.52 414.685,453.353 413.5,452C 415.636,448.89 417.636,445.723 419.5,442.5 Z"/></g><g><path style="opacity:1" fill="#000000" d="M 132.5,455.5 C 134.17,455.751 135.67,456.418 137,457.5C 137.937,460.656 139.437,463.489 141.5,466C 135.307,469.175 131.973,467.175 131.5,460C 131.773,458.467 132.106,456.967 132.5,455.5 Z"/></g><g><path style="opacity:1" fill="#000000" d="M 99.5,466.5 C 101.527,466.338 103.527,466.505 105.5,467C 80.8486,480.115 74.3486,499.282 86,524.5C 94.5539,535.36 105.721,541.36 119.5,542.5C 119.5,543.5 119.5,544.5 119.5,545.5C 103.4,547.643 90.5666,542.31 81,529.5C 68.3245,508.416 71.1578,489.583 89.5,473C 93.0689,471.058 96.4022,468.892 99.5,466.5 Z"/></g><g><path style="opacity:1" fill="#000000" d="M 434.5,469.5 C 436.387,470.768 437.387,472.601 437.5,475C 436.855,478.468 435.189,481.302 432.5,483.5C 430.953,482.232 429.953,480.565 429.5,478.5C 430.761,475.248 432.428,472.248 434.5,469.5 Z"/></g><g><path style="opacity:1" fill="#000000" d="M 142.5,476.5 C 146.976,476.8 148.31,478.967 146.5,483C 141.57,483.427 140.237,481.26 142.5,476.5 Z"/></g><g><path style="opacity:1" fill="#000000" d="M 297.5,476.5 C 299.435,477.15 301.435,477.483 303.5,477.5C 303.448,481.198 303.114,484.865 302.5,488.5C 300.278,488.822 298.444,488.155 297,486.5C 296.828,483.174 296.995,479.841 297.5,476.5 Z"/></g><g><path style="opacity:1" fill="#000000" d="M 741.5,574.5 C 741.5,628.167 741.5,681.833 741.5,735.5C 705.5,735.5 669.5,735.5 633.5,735.5C 614.027,713.279 594.527,690.946 575,668.5C 548.016,690.322 521.516,712.655 495.5,735.5C 442.833,735.5 390.167,735.5 337.5,735.5C 434.542,651.959 533.542,570.793 634.5,492C 656.139,484.192 674.973,488.358 691,504.5C 707.12,528.43 723.953,551.764 741.5,574.5 Z"/></g><g><path style="opacity:1" fill="#000000" d="M 113.5,489.5 C 115.527,489.338 117.527,489.505 119.5,490C 111.582,496.47 109.415,504.636 113,514.5C 116.337,526.503 123.837,534.67 135.5,539C 136.687,540.019 137.687,541.186 138.5,542.5C 131.605,543.1 125.605,540.934 120.5,536C 115.565,531.068 111.399,525.568 108,519.5C 103.327,508.159 105.161,498.159 113.5,489.5 Z"/></g><g><path style="opacity:1" fill="#000000" d="M 152.5,491.5 C 160.852,491.013 165.352,495.013 166,503.5C 166.667,505.167 166.667,506.833 166,508.5C 162.833,506.667 160.333,504.167 158.5,501C 155.989,498.895 153.656,499.062 151.5,501.5C 150.134,504.692 149.301,508.026 149,511.5C 146.028,506.416 145.694,501.082 148,495.5C 149.397,493.93 150.897,492.596 152.5,491.5 Z"/></g><g><path style="opacity:1" fill="#000000" d="M 124.5,494.5 C 148.137,530.325 171.637,566.325 195,602.5C 195.49,603.793 195.657,605.127 195.5,606.5C 191.853,606.378 189.019,604.712 187,601.5C 182.333,594.167 177.667,586.833 173,579.5C 168.544,577.027 164.377,574.194 160.5,571C 159.546,569.092 158.879,567.092 158.5,565C 161.016,558.373 158.682,554.039 151.5,552C 150.167,550.667 148.833,549.333 147.5,548C 149.329,546.887 150.163,545.387 150,543.5C 140.089,528.589 130.589,513.423 121.5,498C 122.544,496.826 123.544,495.659 124.5,494.5 Z"/></g><g><path style="opacity:1" fill="#000000" d="M 416.5,496.5 C 418.411,496.574 419.578,497.574 420,499.5C 420.755,502.303 420.422,504.97 419,507.5C 416.309,510.853 413.642,514.186 411,517.5C 406.677,517.522 405.01,515.522 406,511.5C 409.72,506.62 413.22,501.62 416.5,496.5 Z"/></g><g><path style="opacity:1" fill="#000000" d="M 31.5,499.5 C 34.0118,500.216 34.0118,501.216 31.5,502.5C 30.4376,501.575 30.4376,500.575 31.5,499.5 Z"/></g><g><path style="opacity:1" fill="#000000" d="M 292.5,504.5 C 297.384,504.917 299.384,507.584 298.5,512.5C 297.303,526.178 295.303,539.678 292.5,553C 290.5,553.667 288.5,553.667 286.5,553C 285.941,552.275 285.608,551.442 285.5,550.5C 288.207,535.218 290.54,519.884 292.5,504.5 Z"/></g><g><path style="opacity:1" fill="#000000" d="M 465.5,509.5 C 471.232,509.283 476.899,509.783 482.5,511C 486.768,512.72 490.935,514.553 495,516.5C 495.833,516.333 496.667,516.167 497.5,516C 500.373,510.108 503.04,509.775 505.5,515C 504.368,517.434 503.368,519.934 502.5,522.5C 514.875,550.884 507.208,571.717 479.5,585C 471.66,587.475 463.66,587.975 455.5,586.5C 455.312,584.897 455.812,583.563 457,582.5C 472.623,585.779 485.29,581.112 495,568.5C 501.016,557.101 500.85,545.934 494.5,535C 493.167,534.333 491.833,534.333 490.5,535C 473.667,549.833 456.833,564.667 440,579.5C 439.003,576.199 438.67,572.866 439,569.5C 450.5,559.333 462,549.167 473.5,539C 478.057,534.946 482.057,530.446 485.5,525.5C 483.909,522.744 481.576,520.911 478.5,520C 473.823,518.831 469.156,517.664 464.5,516.5C 460.595,518.306 456.595,519.473 452.5,520C 451.065,517.733 451.398,515.733 453.5,514C 457.263,511.583 461.263,510.083 465.5,509.5 Z"/></g><g><path style="opacity:1" fill="#000000" d="M 518.5,509.5 C 523.048,509.199 526.215,511.199 528,515.5C 535.514,531.457 533.514,546.124 522,559.5C 518.805,562.858 514.972,565.191 510.5,566.5C 509.386,565.277 509.219,563.944 510,562.5C 526.486,550.41 530.153,535.077 521,516.5C 519.833,515.333 518.667,514.167 517.5,513C 518.337,511.989 518.67,510.822 518.5,509.5 Z"/></g><g><path style="opacity:1" fill="#000000" d="M 170.5,512.5 C 171.573,513.251 171.74,514.251 171,515.5C 170.517,514.552 170.351,513.552 170.5,512.5 Z"/></g><g><path style="opacity:1" fill="#000000" d="M 57.5,517.5 C 59.9076,518.315 60.7409,519.981 60,522.5C 48.1875,531.26 43.8541,542.926 47,557.5C 51.0816,575.915 62.2483,587.415 80.5,592C 84.1516,592.499 87.8183,592.665 91.5,592.5C 91.7852,594.288 91.4519,595.955 90.5,597.5C 68.0678,601.034 51.5678,592.7 41,572.5C 34.3243,550.371 39.8243,532.038 57.5,517.5 Z"/></g><g><path style="opacity:1" fill="#000000" d="M 161.5,518.5 C 164.325,518.081 166.491,519.081 168,521.5C 177.588,539.008 186.921,556.675 196,574.5C 197.254,578.111 196.088,579.611 192.5,579C 191.213,577.59 190.046,576.09 189,574.5C 179.545,555.923 170.378,537.257 161.5,518.5 Z"/></g><g><path style="opacity:1" fill="#000000" d="M 393.5,528.5 C 398.844,528.334 404.177,528.501 409.5,529C 414.804,531.329 417.47,535.496 417.5,541.5C 416.545,548.409 413.712,554.409 409,559.5C 402.632,566.045 395.132,570.711 386.5,573.5C 386.238,572.022 386.571,570.689 387.5,569.5C 394.749,566.417 400.249,561.417 404,554.5C 412.25,539.55 407.75,531.55 390.5,530.5C 391.602,529.824 392.602,529.158 393.5,528.5 Z"/></g><g><path style="opacity:1" fill="#000000" d="M 429.5,528.5 C 432.054,529.388 434.721,529.721 437.5,529.5C 435.656,536.332 431.989,537.332 426.5,532.5C 427.524,531.148 428.524,529.815 429.5,528.5 Z"/></g><g><path style="opacity:1" fill="#000000" d="M 418.5,602.5 C 420.749,598.402 423.249,594.402 426,590.5C 430.367,577.49 425.867,568.99 412.5,565C 411.259,563.513 411.759,562.68 414,562.5C 430.917,563.088 437.917,571.755 435,588.5C 433.287,592.873 430.787,596.707 427.5,600C 424.794,601.908 421.794,602.741 418.5,602.5 Z"/></g><g><path style="opacity:1" fill="#000000" d="M 107.5,563.5 C 109.645,563.738 111.312,564.738 112.5,566.5C 102.714,590.543 107.381,611.043 126.5,628C 130.5,630 134.5,632 138.5,634C 147.774,635.22 157.107,635.887 166.5,636C 167.167,636.667 167.833,637.333 168.5,638C 165.431,639.846 162.098,640.846 158.5,641C 151.405,665.043 159.072,682.71 181.5,694C 186.03,695.632 190.696,696.632 195.5,697C 197.014,698.439 197.347,699.939 196.5,701.5C 190.884,703.725 185.217,703.892 179.5,702C 162.83,696.663 152.33,685.496 148,668.5C 146.373,659.849 146.039,651.183 147,642.5C 124.615,639.442 109.282,627.442 101,606.5C 97.3048,591.133 99.4714,576.8 107.5,563.5 Z"/></g><g><path style="opacity:1" fill="#000000" d="M 472.5,591.5 C 474.833,591.5 477.167,591.5 479.5,591.5C 476.501,606.829 467.167,615.162 451.5,616.5C 448.741,616.458 446.075,615.958 443.5,615C 449.351,613.051 455.017,610.718 460.5,608C 465.401,602.98 469.401,597.48 472.5,591.5 Z"/></g><g><path style="opacity:1" fill="#000000" d="M 178.5,600.5 C 182.908,600.062 184.575,602.062 183.5,606.5C 175.573,608.926 173.906,606.926 178.5,600.5 Z"/></g><g><path style="opacity:1" fill="#000000" d="M 418.5,602.5 C 417.833,603.167 417.833,603.167 418.5,602.5 Z"/></g><g><path style="opacity:1" fill="#000000" d="M 385.5,663.5 C 385.611,662.883 385.944,662.383 386.5,662C 408.714,661.001 423.547,650.168 431,629.5C 432.447,621.235 431.947,613.068 429.5,605C 430.466,603.322 431.799,602.655 433.5,603C 440.375,617.667 439.875,632.167 432,646.5C 419.721,661.202 404.221,666.869 385.5,663.5 Z"/></g><g><path style="opacity:1" fill="#000000" d="M 184.5,611.5 C 186.199,611.34 187.866,611.506 189.5,612C 197.667,624.167 205.833,636.333 214,648.5C 215.254,652.111 214.088,653.611 210.5,653C 208.386,648.258 205.219,644.424 201,641.5C 199.951,642.517 198.784,642.684 197.5,642C 192.667,635.997 188.333,629.664 184.5,623C 185.167,621.667 185.833,620.333 186.5,619C 185.521,616.567 184.855,614.067 184.5,611.5 Z"/></g><g><path style="opacity:1" fill="#000000" d="M 385.5,663.5 C 386.456,676.833 381.123,686.667 369.5,693C 364.953,694.711 360.286,695.378 355.5,695C 354.542,693.853 354.875,692.853 356.5,692C 376.191,685.783 382.357,672.95 375,653.5C 376,652.833 377,652.167 378,651.5C 380.787,655.429 383.287,659.429 385.5,663.5 Z"/></g><g><path style="opacity:1" fill="#000000" d="M 343.5,683.5 C 345.411,683.574 346.578,684.574 347,686.5C 351.782,700.428 347.948,711.261 335.5,719C 328.433,719.839 321.433,719.506 314.5,718C 313.167,717 313.167,716 314.5,715C 317.202,714.947 319.869,715.447 322.5,716.5C 328.293,715.409 333.46,713.075 338,709.5C 339.271,706.567 340.938,703.901 343,701.5C 343.152,695.427 343.319,689.427 343.5,683.5 Z"/></g><g><path style="opacity:1" fill="#000000" d="M 201.5,690.5 C 203.09,690.628 204.423,691.295 205.5,692.5C 208.501,704.982 216.501,710.815 229.5,710C 230.451,710.718 230.617,711.551 230,712.5C 217.904,716.609 208.571,713.275 202,702.5C 200.33,698.51 200.164,694.51 201.5,690.5 Z"/></g></svg>