<svg xmlns="http://www.w3.org/2000/svg" version="1.1" width="380px" height="535px" style="shape-rendering:geometricPrecision; text-rendering:geometricPrecision; image-rendering:optimizeQuality; fill-rule:evenodd; clip-rule:evenodd" xmlns:xlink="http://www.w3.org/1999/xlink"><g><path style="opacity:1" fill="#000000" d="M 117.5,-0.5 C 118.5,-0.5 119.5,-0.5 120.5,-0.5C 117.421,5.3265 114.588,11.3265 112,17.5C 111.012,20.4245 110.346,23.4245 110,26.5C 108.846,27.7433 107.512,28.7433 106,29.5C 105.667,32.1667 105.333,34.8333 105,37.5C 102.108,38.8419 100.775,41.1752 101,44.5C 94.5224,51.5999 96.1891,56.2666 106,58.5C 109.92,56.2525 113.754,56.2525 117.5,58.5C 119.383,57.9757 121.216,57.3091 123,56.5C 126.96,58.7474 130.96,58.7474 135,56.5C 138.39,59.0255 141.724,59.0255 145,56.5C 149.313,58.4884 149.48,60.9884 145.5,64C 140.032,66.3928 136.532,70.5594 135,76.5C 130.817,82.8619 126.15,88.8619 121,94.5C 120.667,96.1667 120.333,97.8333 120,99.5C 117.521,102.069 114.854,104.402 112,106.5C 110.744,110.016 108.744,113.016 106,115.5C 104.864,118.096 104.031,120.763 103.5,123.5C 106.724,123.797 109.724,123.13 112.5,121.5C 113.929,122.935 115.595,123.935 117.5,124.5C 119.447,123.723 121.28,122.723 123,121.5C 124.626,122.289 126.126,123.289 127.5,124.5C 130.057,123.593 132.557,122.593 135,121.5C 138.455,125.383 141.789,125.383 145,121.5C 147.623,124.028 150.79,125.028 154.5,124.5C 151.686,132.145 146.353,137.312 138.5,140C 135.417,145.088 131.583,149.588 127,153.5C 124.794,159.21 121.127,163.877 116,167.5C 115.667,168.833 115.333,170.167 115,171.5C 112.544,173.211 109.877,174.544 107,175.5C 106.333,177.5 105.667,179.5 105,181.5C 101.509,187.238 97.1754,192.238 92,196.5C 88.4294,192.781 88.7627,189.448 93,186.5C 93.7926,181.789 94.7926,177.122 96,172.5C 100.403,167.259 104.069,161.592 107,155.5C 107.651,153.765 107.485,152.098 106.5,150.5C 112.34,145.536 111.673,141.869 104.5,139.5C 101.275,142.109 98.1087,142.109 95,139.5C 90.3646,141.006 86.0313,140.339 82,137.5C 80.3435,138.484 78.6768,139.484 77,140.5C 74.736,137.48 71.9027,136.813 68.5,138.5C 67.354,137.855 66.354,137.022 65.5,136C 67.2415,134.38 69.0748,132.88 71,131.5C 76.9948,123.664 82.8282,115.664 88.5,107.5C 89.8972,105.018 90.7306,102.352 91,99.5C 95.3664,97.9893 98.0331,94.9893 99,90.5C 109.943,82.6506 108.61,77.984 95,76.5C 90.9119,78.0604 87.2452,77.3937 84,74.5C 81.8083,75.3995 79.6416,76.3995 77.5,77.5C 75.8333,76.1667 74.1667,74.8333 72.5,73.5C 70.8685,74.2974 69.3685,75.2974 68,76.5C 66.1551,75.2442 64.1551,74.2442 62,73.5C 57.1007,76.7272 52.934,76.0605 49.5,71.5C 52.7171,69.4446 55.0504,66.6112 56.5,63C 59.308,62.0068 62.1413,61.1734 65,60.5C 68.6667,55.1667 72.3333,49.8333 76,44.5C 81.8876,38.4537 87.721,32.287 93.5,26C 94.8333,25.3333 96.1667,24.6667 97.5,24C 101.333,20.1667 105.167,16.3333 109,12.5C 112.087,8.26336 114.92,3.93002 117.5,-0.5 Z"/></g><g><path style="opacity:1" fill="#000000" d="M 379.5,135.5 C 379.5,135.833 379.5,136.167 379.5,136.5C 376.921,137.228 374.254,137.728 371.5,138C 370.069,138.465 368.903,139.299 368,140.5C 366.806,139.57 365.473,138.903 364,138.5C 360.815,140.539 357.481,140.872 354,139.5C 351.239,140.308 348.572,141.308 346,142.5C 344.562,141.282 342.895,140.615 341,140.5C 335.03,142.415 328.864,143.748 322.5,144.5C 321.705,148.935 323.205,152.601 327,155.5C 328.667,159.5 330.333,163.5 332,167.5C 339.332,174.837 343.999,183.504 346,193.5C 344.192,195.396 342.025,195.896 339.5,195C 337.109,191.94 334.442,191.773 331.5,194.5C 328.95,193.058 326.284,191.892 323.5,191C 318.499,190.942 313.665,190.109 309,188.5C 307.333,189.167 305.667,189.833 304,190.5C 301.431,189.214 298.764,188.214 296,187.5C 293.849,187.643 292.182,188.643 291,190.5C 287.405,185.057 284.572,185.391 282.5,191.5C 284.434,197.47 286.268,203.47 288,209.5C 290.963,211.461 293.629,213.794 296,216.5C 298.265,223.228 301.098,229.728 304.5,236C 301.248,236.791 298.248,236.291 295.5,234.5C 293.945,234.722 292.611,235.389 291.5,236.5C 286.626,232.612 280.959,230.778 274.5,231C 273.672,230.085 272.672,229.419 271.5,229C 267.833,228.667 264.167,228.333 260.5,228C 253.911,225.583 247.244,223.417 240.5,221.5C 239.167,222.167 237.833,222.833 236.5,223.5C 233.611,220.944 230.278,219.277 226.5,218.5C 225.393,219.022 224.226,219.355 223,219.5C 219.129,218.731 215.462,217.398 212,215.5C 209.762,216.899 209.095,216.232 210,213.5C 210.75,212.874 211.584,212.374 212.5,212C 221.861,211.781 231.194,211.281 240.5,210.5C 242.307,210.972 244.14,211.306 246,211.5C 250.926,209.518 255.926,208.852 261,209.5C 262.885,207.086 263.552,204.419 263,201.5C 260.695,194.887 257.362,188.887 253,183.5C 253,180.833 253,178.167 253,175.5C 248.492,173.137 245.992,169.47 245.5,164.5C 248.137,165.151 250.637,165.151 253,164.5C 260.098,165.722 267.098,167.056 274,168.5C 276.389,168.037 278.723,167.37 281,166.5C 282.659,167.98 284.492,169.314 286.5,170.5C 287.833,169.167 289.167,167.833 290.5,166.5C 295.277,172.104 299.444,171.77 303,165.5C 303.667,163.167 303.667,160.833 303,158.5C 299.814,154.127 297.147,149.46 295,144.5C 293.959,142.415 292.459,140.748 290.5,139.5C 288.758,133.266 285.925,127.6 282,122.5C 281.139,119.006 282.472,116.673 286,115.5C 291.349,119.289 297.182,121.122 303.5,121C 305.269,122.064 306.936,123.231 308.5,124.5C 310.405,123.935 312.071,122.935 313.5,121.5C 314.981,122.48 316.315,123.647 317.5,125C 324.137,127.01 330.637,129.177 337,131.5C 341.364,129.983 345.53,130.483 349.5,133C 359.561,133.798 369.561,134.631 379.5,135.5 Z"/></g><g><path style="opacity:1" fill="#000000" d="M 19.5,534.5 C 18.5,534.5 17.5,534.5 16.5,534.5C 15.5039,533.335 14.1705,532.668 12.5,532.5C 5.13859,535.143 3.13859,533.143 6.5,526.5C 5.9801,523.96 5.31343,521.46 4.5,519C 5.44879,516.694 6.44879,514.361 7.5,512C 5.62979,506.728 6.79646,502.228 11,498.5C 11.6595,495.953 11.4929,493.453 10.5,491C 12.5863,486.581 15.0863,482.415 18,478.5C 19.0296,469.469 23.8629,464.635 32.5,464C 33.7598,461.072 35.9265,459.239 39,458.5C 40.3054,454.443 43.1387,452.277 47.5,452C 53.9699,445.296 61.6365,440.63 70.5,438C 74.948,433.55 80.2813,430.883 86.5,430C 88.3049,429.028 89.9716,427.861 91.5,426.5C 93.0983,427.485 94.765,427.651 96.5,427C 101.667,423.167 106.167,418.667 110,413.5C 111.728,410.361 112.894,407.028 113.5,403.5C 114.76,402.618 115.926,401.618 117,400.5C 116.695,398.557 116.695,396.557 117,394.5C 118.512,393.743 119.846,392.743 121,391.5C 122.153,383.431 122.153,375.431 121,367.5C 118.916,364.549 116.249,363.883 113,365.5C 108.439,364.898 103.939,363.898 99.5,362.5C 96.5048,363.919 93.8381,363.419 91.5,361C 83.4707,360.665 75.4707,359.998 67.5,359C 62.1667,355 56.8333,351 51.5,347C 49.913,346.138 48.2464,345.471 46.5,345C 39.4857,338.331 33.6524,330.831 29,322.5C 26.8602,320.513 24.3602,319.18 21.5,318.5C 19.1916,313.218 16.3582,308.218 13,303.5C 12.7396,296.608 10.5729,290.441 6.5,285C 7.60792,282.01 6.77459,279.51 4,277.5C 3.25137,272.511 2.5847,267.511 2,262.5C 1.62325,261.058 0.789915,260.058 -0.5,259.5C -0.5,257.833 -0.5,256.167 -0.5,254.5C 1.89075,252.098 1.89075,249.764 -0.5,247.5C -0.5,246.5 -0.5,245.5 -0.5,244.5C 5.59412,241.984 10.0941,243.651 13,249.5C 14.299,257.11 15.299,264.777 16,272.5C 18.8747,275.542 20.208,279.209 20,283.5C 23.9082,291.112 26.9082,299.112 29,307.5C 32.5793,314.081 37.746,318.914 44.5,322C 46.8333,325 49.1667,328 51.5,331C 57.8728,336.177 64.2062,341.344 70.5,346.5C 75.4537,346.432 79.4537,348.265 82.5,352C 86.7807,354.127 90.9474,353.961 95,351.5C 96.4157,353.707 98.249,355.374 100.5,356.5C 103.567,355.344 103.9,353.844 101.5,352C 97.9964,350.149 94.3298,348.816 90.5,348C 85.8498,344.008 80.8498,340.508 75.5,337.5C 74.914,337.709 74.414,338.043 74,338.5C 70.7988,334.964 67.2988,331.797 63.5,329C 60.3333,324.5 56.5,320.667 52,317.5C 50.0777,312.391 47.4111,307.724 44,303.5C 43.2549,294.931 41.5882,286.598 39,278.5C 38.0991,275.929 36.7658,273.596 35,271.5C 33.8068,262.791 33.3068,254.124 33.5,245.5C 35.5543,243.806 37.8877,242.639 40.5,242C 43.071,238.719 43.071,235.385 40.5,232C 44.3461,227.632 44.3461,223.132 40.5,218.5C 44.4336,215.29 44.4336,212.123 40.5,209C 44.1601,205.504 44.4934,201.671 41.5,197.5C 44.1132,192.673 44.1132,187.84 41.5,183C 42.1667,181 42.8333,179 43.5,177C 43.2945,175.135 42.6278,173.468 41.5,172C 42.5792,169.845 43.9126,167.845 45.5,166C 52.2936,166.806 59.1269,166.64 66,165.5C 67.2613,165.759 68.2613,166.426 69,167.5C 68.8398,179.526 69.0065,191.526 69.5,203.5C 69.1132,205.274 68.4465,206.941 67.5,208.5C 69.865,211.948 69.865,215.448 67.5,219C 69.0925,223.344 68.7591,227.51 66.5,231.5C 67.7916,235.373 69.125,239.206 70.5,243C 72.5,243.5 74.5,244 76.5,244.5C 99.2414,243.194 122.075,243.194 145,244.5C 148.794,243.77 152.627,243.27 156.5,243C 157.849,217.832 158.349,192.665 158,167.5C 162.463,165.191 167.13,164.858 172,166.5C 178.625,163.539 183.792,165.373 187.5,172C 186.099,173.677 184.765,175.344 183.5,177C 184.551,179.361 185.551,181.694 186.5,184C 185.729,186.271 184.729,188.438 183.5,190.5C 184.167,192.5 184.833,194.5 185.5,196.5C 183.136,200.567 183.136,204.567 185.5,208.5C 182.891,211.725 182.891,214.891 185.5,218C 182.833,222.333 182.833,226.667 185.5,231C 181.711,237.911 183.544,242.411 191,244.5C 203.822,244.127 216.655,243.794 229.5,243.5C 231.623,243.22 232.956,244.053 233.5,246C 232.731,251.796 232.231,257.629 232,263.5C 229.89,267.491 228.89,271.824 229,276.5C 226.933,279.726 225.1,283.06 223.5,286.5C 224.445,290.148 223.445,293.315 220.5,296C 221.022,296.561 221.355,297.228 221.5,298C 219.573,304.406 217.073,310.573 214,316.5C 211.502,318.417 208.835,320.084 206,321.5C 205.654,323.218 205.154,324.885 204.5,326.5C 201.229,330.73 198.229,335.064 195.5,339.5C 190.415,342.415 185.749,345.915 181.5,350C 179.754,350.471 178.087,351.138 176.5,352C 174.289,354.785 171.623,357.118 168.5,359C 162.911,359.552 157.411,360.385 152,361.5C 148.932,365.246 148.765,369.08 151.5,373C 147.782,377.45 147.782,381.784 151.5,386C 148.108,388.575 146.608,392.075 147,396.5C 144.233,400.035 142.566,404.035 142,408.5C 140.903,410.053 139.57,411.386 138,412.5C 135.645,417.246 133.645,422.246 132,427.5C 130.38,429.241 128.88,431.075 127.5,433C 125.167,433.333 122.833,433.667 120.5,434C 109.789,439.834 99.1224,445.668 88.5,451.5C 86.1303,454.031 83.1303,455.531 79.5,456C 73.0308,459.737 66.6975,463.737 60.5,468C 53.2233,469.444 48.2233,473.611 45.5,480.5C 43.4382,483.758 40.9382,486.758 38,489.5C 37.2571,491.441 37.4238,493.274 38.5,495C 36.2662,497.411 35.5996,500.078 36.5,503C 35.7297,504.775 34.563,506.275 33,507.5C 33.0043,511.192 32.0043,514.525 30,517.5C 29.8628,521.622 30.1961,525.622 31,529.5C 29.2814,533.475 26.448,534.475 22.5,532.5C 20.9623,532.453 19.9623,533.12 19.5,534.5 Z M 110.5,351.5 C 112.199,351.34 113.866,351.506 115.5,352C 116.813,355.692 115.48,357.359 111.5,357C 109.365,355.444 109.032,353.611 110.5,351.5 Z"/></g></svg>