<svg xmlns="http://www.w3.org/2000/svg" version="1.1" width="511px" height="471px" style="shape-rendering:geometricPrecision; text-rendering:geometricPrecision; image-rendering:optimizeQuality; fill-rule:evenodd; clip-rule:evenodd" xmlns:xlink="http://www.w3.org/1999/xlink"><g><path style="opacity:1" fill="#000000" d="M 106.5,-0.5 C 107.5,-0.5 108.5,-0.5 109.5,-0.5C 118.442,4.13316 127.776,7.96649 137.5,11C 141.377,14.8856 146.044,16.8856 151.5,17C 153.901,19.0624 156.567,20.7291 159.5,22C 165.285,23.784 171.285,24.784 177.5,25C 182.634,27.9691 187.634,31.1358 192.5,34.5C 194.098,33.5153 195.765,33.3486 197.5,34C 202.228,38.8631 207.895,41.8631 214.5,43C 220.257,49.7436 227.591,53.4103 236.5,54C 239.167,56 241.833,58 244.5,60C 253.167,63.3089 260.833,68.3089 267.5,75C 272.689,75.2621 276.689,77.5954 279.5,82C 285.996,82.1643 290.663,85.1643 293.5,91C 303.154,95.9964 311.487,102.663 318.5,111C 320.392,111.973 322.392,112.64 324.5,113C 331.971,121.808 339.471,130.642 347,139.5C 349.333,140.833 351.667,142.167 354,143.5C 355.074,147.305 356.408,150.971 358,154.5C 362.246,159.991 366.246,165.658 370,171.5C 370.917,176.001 372.917,180.001 376,183.5C 376.626,185.713 376.459,187.88 375.5,190C 377.393,192.954 378.893,196.121 380,199.5C 381.712,208.315 382.212,217.148 381.5,226C 382.029,227.559 382.696,229.059 383.5,230.5C 382.039,237.602 380.706,244.769 379.5,252C 381.672,255.932 380.838,259.432 377,262.5C 376.092,268.122 374.259,273.455 371.5,278.5C 372.428,279.768 372.595,281.101 372,282.5C 364.313,293.873 356.979,305.54 350,317.5C 346.5,319.667 343.667,322.5 341.5,326C 330.01,330.581 318.677,335.415 307.5,340.5C 306.91,341.799 305.91,342.632 304.5,343C 299.214,344.384 294.214,346.384 289.5,349C 285.167,349.333 280.833,349.667 276.5,350C 268.8,352.35 261.8,356.017 255.5,361C 253.888,361.72 252.388,361.554 251,360.5C 249.833,361.667 248.667,362.833 247.5,364C 241.684,366.088 236.017,368.421 230.5,371C 226.627,370.849 223.294,372.016 220.5,374.5C 219.692,374.192 219.025,373.692 218.5,373C 220.002,372.417 221.335,371.584 222.5,370.5C 225.833,364.001 230.666,359.001 237,355.5C 237.273,353.671 238.107,352.171 239.5,351C 244.702,348.792 248.202,344.959 250,339.5C 253.646,336.184 256.979,332.518 260,328.5C 264.366,320.813 268.699,313.147 273,305.5C 273.651,303.765 273.485,302.098 272.5,300.5C 277.24,288.77 277.74,276.77 274,264.5C 271.482,262.318 270.315,259.818 270.5,257C 265.896,252.397 262.062,247.23 259,241.5C 256.131,238.296 252.965,235.463 249.5,233C 243.576,229.806 237.576,226.806 231.5,224C 226.921,218.875 221.254,215.542 214.5,214C 212.628,211.056 209.961,209.889 206.5,210.5C 206.343,211.873 206.51,213.207 207,214.5C 210.977,218.119 213.644,222.452 215,227.5C 215.615,229.116 216.615,230.449 218,231.5C 218.869,237.432 220.035,243.265 221.5,249C 221,249.5 220.5,250 220,250.5C 219.591,255.309 218.591,259.976 217,264.5C 213.364,270.403 210.697,276.737 209,283.5C 200.807,295.191 192.807,306.857 185,318.5C 183.184,319.329 181.351,320.163 179.5,321C 174.262,326.815 169.262,332.815 164.5,339C 162.99,339.85 161.49,340.683 160,341.5C 159.5,341.167 159,340.833 158.5,340.5C 162.355,337.166 162.355,333.666 158.5,330C 159.376,328.414 160.376,326.914 161.5,325.5C 160.07,322.567 158.07,320.067 155.5,318C 156.167,317 156.833,316 157.5,315C 152.293,308.267 148.793,300.767 147,292.5C 143.088,289.528 140.254,285.694 138.5,281C 139.71,279.132 139.21,277.632 137,276.5C 135.792,278.479 134.959,280.645 134.5,283C 135.24,287.208 135.573,291.375 135.5,295.5C 134.62,297.429 133.62,299.263 132.5,301C 132.645,301.772 132.978,302.439 133.5,303C 131.98,305.596 131.147,308.429 131,311.5C 129.019,313.359 128.019,315.692 128,318.5C 122.271,324.232 117.271,330.565 113,337.5C 111.37,343.908 110.203,350.408 109.5,357C 109.402,363.135 109.568,369.301 110,375.5C 108.534,377.325 106.701,377.825 104.5,377C 100.295,375.49 96.4616,373.324 93,370.5C 89.0249,363.395 87.1916,355.729 87.5,347.5C 78.9905,347.176 73.8239,351.176 72,359.5C 68.7124,360.536 67.8791,362.536 69.5,365.5C 68.7515,367.332 67.7515,368.999 66.5,370.5C 66.8333,371.167 67.1667,371.833 67.5,372.5C 66.5535,374.059 65.8868,375.726 65.5,377.5C 66.7321,379.683 66.7321,381.849 65.5,384C 68.9702,388.732 70.4702,393.899 70,399.5C 71.8294,401.156 73.1628,403.156 74,405.5C 75.828,407.081 77.828,408.415 80,409.5C 84.7033,420.213 91.7033,429.213 101,436.5C 101.602,439.662 101.102,442.662 99.5,445.5C 100.46,447.477 101.46,449.477 102.5,451.5C 102.218,453.987 102.218,456.653 102.5,459.5C 99.0858,459.294 96.4191,457.794 94.5,455C 90.6952,454.466 87.0286,453.466 83.5,452C 80.3866,449.04 77.22,446.206 74,443.5C 73.6667,443.833 73.3333,444.167 73,444.5C 69.1522,441.198 64.6522,439.698 59.5,440C 48.0375,429.557 36.0375,419.724 23.5,410.5C 18.2774,404.986 14.444,398.653 12,391.5C 9.41241,387.324 6.57908,383.324 3.5,379.5C 4.55676,377.234 4.05676,375.234 2,373.5C 1.31957,368.664 0.48624,363.997 -0.5,359.5C -0.5,352.833 -0.5,346.167 -0.5,339.5C 0.954946,336.288 2.28828,332.954 3.5,329.5C 2.26772,327.95 1.76772,326.283 2,324.5C 3.44733,322.597 5.114,320.93 7,319.5C 7.72031,317.888 7.55364,316.388 6.5,315C 7.66667,313.833 8.83333,312.667 10,311.5C 11.7625,302.07 16.4292,294.403 24,288.5C 25,286.5 26,284.5 27,282.5C 31.9903,275.876 37.157,269.376 42.5,263C 46.1196,262.716 48.6196,260.883 50,257.5C 52.483,260.089 52.1497,262.755 49,265.5C 48.1987,269.832 47.032,273.998 45.5,278C 46.3943,279.396 47.0609,280.896 47.5,282.5C 46.0415,288.645 47.2082,294.312 51,299.5C 53.9506,302.572 56.7839,305.739 59.5,309C 63.3853,309.158 67.3853,309.158 71.5,309C 77.4988,301.155 82.9988,292.988 88,284.5C 90.2017,275.339 94.3683,266.839 100.5,259C 99.5494,258.282 99.3828,257.449 100,256.5C 105.255,252.389 107.588,247.056 107,240.5C 108.333,239.833 109.333,238.833 110,237.5C 109.907,234.044 110.907,231.044 113,228.5C 113.798,224.514 114.965,220.681 116.5,217C 115.427,215.687 114.76,214.187 114.5,212.5C 117.743,201.029 118.576,189.362 117,177.5C 114.983,169.726 112.65,162.059 110,154.5C 106.899,149.562 102.732,145.895 97.5,143.5C 91.4024,136.955 84.4024,131.621 76.5,127.5C 76.9767,126.522 77.6433,125.689 78.5,125C 82.1573,125.711 85.824,125.544 89.5,124.5C 95.4314,125.895 101.431,127.228 107.5,128.5C 108.554,128.32 109.554,127.987 110.5,127.5C 117.687,132.289 125.02,136.789 132.5,141C 134.167,141.333 135.833,141.667 137.5,142C 141.667,146.833 145.833,151.667 150,156.5C 151.08,164.419 154.58,170.919 160.5,176C 156.212,179.755 156.879,181.422 162.5,181C 165.238,178.796 165.905,176.129 164.5,173C 165.517,166.591 167.183,160.258 169.5,154C 168.028,145.387 168.694,136.72 171.5,128C 170.691,126.216 170.024,124.383 169.5,122.5C 169.915,112.321 169.915,101.988 169.5,91.5C 169.106,89.0454 167.94,87.0454 166,85.5C 164.823,73.4467 161.49,62.1133 156,51.5C 149.918,43.6755 144.585,35.3421 140,26.5C 137.866,24.5156 135.366,23.1823 132.5,22.5C 129.08,17.295 124.414,13.795 118.5,12C 114.352,8.01746 110.352,3.85079 106.5,-0.5 Z"/></g><g><path style="opacity:1" fill="#000000" d="M 510.5,315.5 C 510.5,315.833 510.5,316.167 510.5,316.5C 509.684,318.144 508.35,319.31 506.5,320C 498.335,320.835 491.335,324.169 485.5,330C 479.435,332.441 473.101,334.441 466.5,336C 463.274,337.198 460.441,339.031 458,341.5C 456.951,340.483 455.784,340.316 454.5,341C 453.333,342.167 452.167,343.333 451,344.5C 449.951,343.483 448.784,343.316 447.5,344C 446.167,345.333 444.833,346.667 443.5,348C 438.563,349.085 433.563,349.752 428.5,350C 421.768,351.873 415.435,355.206 409.5,360C 405.752,359.78 402.752,361.113 400.5,364C 390.643,368.271 380.643,371.938 370.5,375C 368.807,377.69 366.473,379.69 363.5,381C 351.828,381.249 341.161,384.582 331.5,391C 328.267,389.948 325.934,391.115 324.5,394.5C 321.387,395.556 318.387,396.889 315.5,398.5C 314.914,398.291 314.414,397.957 314,397.5C 311.411,399.211 308.911,401.045 306.5,403C 302.347,403.384 298.347,404.384 294.5,406C 289.492,410.717 283.492,412.717 276.5,412C 268.926,415.45 261.259,418.95 253.5,422.5C 252.833,422.167 252.167,421.833 251.5,421.5C 249.36,422.473 247.693,423.973 246.5,426C 235.972,430.434 225.639,435.101 215.5,440C 211.909,440.789 208.409,440.622 205,439.5C 204.667,436.5 204.333,433.5 204,430.5C 199.752,425.665 197.419,419.998 197,413.5C 184.221,402.784 186.054,395.95 202.5,393C 205.779,391.782 208.613,389.949 211,387.5C 212.465,388.33 213.965,388.496 215.5,388C 219.666,385.083 223.999,382.416 228.5,380C 234.608,379.645 240.608,378.645 246.5,377C 252.398,373.604 258.731,371.271 265.5,370C 267.126,366.843 269.459,366.009 272.5,367.5C 277.516,362.411 283.35,359.411 290,358.5C 300.517,353.063 311.683,349.896 323.5,349C 325.019,347.649 326.352,346.149 327.5,344.5C 328.748,345.04 329.915,345.707 331,346.5C 335.097,342.202 339.931,339.035 345.5,337C 352.083,335.583 358.416,333.583 364.5,331C 371.258,327.908 377.924,324.575 384.5,321C 388.5,320.667 392.5,320.333 396.5,320C 399.112,318.111 401.945,316.611 405,315.5C 405.873,315.735 406.707,316.069 407.5,316.5C 412.708,312.895 418.374,310.395 424.5,309C 430.958,305.851 437.292,302.518 443.5,299C 448.814,297.845 453.814,295.845 458.5,293C 463.104,291.939 467.771,291.273 472.5,291C 478.185,289.495 483.518,287.161 488.5,284C 490.92,283.313 493.087,283.813 495,285.5C 499.926,295.687 505.093,305.687 510.5,315.5 Z"/></g><g><path style="opacity:1" fill="#000000" d="M 142.5,470.5 C 141.5,470.5 140.5,470.5 139.5,470.5C 126.792,470.025 117.958,463.691 113,451.5C 112.349,449.765 112.515,448.098 113.5,446.5C 112.123,444.711 111.123,442.711 110.5,440.5C 112.205,436.61 113.705,432.61 115,428.5C 120.89,421.949 126.724,415.449 132.5,409C 141.821,407.919 150.821,405.752 159.5,402.5C 162.702,404.472 166.036,404.805 169.5,403.5C 180.761,406.29 186.594,413.623 187,425.5C 189.067,430.633 191.9,435.3 195.5,439.5C 193.833,442.167 192.167,444.833 190.5,447.5C 190.709,448.086 191.043,448.586 191.5,449C 186.599,455.252 180.599,459.919 173.5,463C 171.461,465.374 169.128,467.374 166.5,469C 158.323,469.171 150.323,469.671 142.5,470.5 Z"/></g></svg>