<svg xmlns="http://www.w3.org/2000/svg" version="1.1" width="515px" height="530px" style="shape-rendering:geometricPrecision; text-rendering:geometricPrecision; image-rendering:optimizeQuality; fill-rule:evenodd; clip-rule:evenodd" xmlns:xlink="http://www.w3.org/1999/xlink"><g><path style="opacity:1" fill="#000000" d="M 384.5,-0.5 C 386.167,-0.5 387.833,-0.5 389.5,-0.5C 391.646,4.27299 392.979,9.27299 393.5,14.5C 389.141,14.8542 388.641,16.1875 392,18.5C 393.168,17.4911 394.335,16.4911 395.5,15.5C 396.611,16.6113 397.945,17.278 399.5,17.5C 402.324,16.2456 405.157,16.2456 408,17.5C 409.812,17.5066 411.312,16.84 412.5,15.5C 414.985,18.0769 417.485,18.0769 420,15.5C 421.333,16.1667 422.667,16.8333 424,17.5C 428.169,17.1025 432.335,16.7691 436.5,16.5C 438.187,16.7605 439.687,17.4272 441,18.5C 443.128,15.0636 445.628,14.7303 448.5,17.5C 449.741,16.9628 450.908,16.2961 452,15.5C 453.468,16.6278 455.135,17.2945 457,17.5C 459.843,16.2456 462.676,16.2456 465.5,17.5C 467.055,17.278 468.389,16.6113 469.5,15.5C 471.833,18.1667 474.167,18.1667 476.5,15.5C 477.611,16.6113 478.945,17.278 480.5,17.5C 483.5,16.1667 486.5,16.1667 489.5,17.5C 491.104,17.0609 492.604,16.3943 494,15.5C 495.338,16.5061 496.671,17.5061 498,18.5C 498.779,17.2718 499.779,16.2718 501,15.5C 502.396,16.3943 503.896,17.0609 505.5,17.5C 509.262,15.6478 512.262,16.3145 514.5,19.5C 514.5,20.5 514.5,21.5 514.5,22.5C 513.167,23.5 513.167,24.5 514.5,25.5C 514.5,25.8333 514.5,26.1667 514.5,26.5C 511.833,28.8333 511.833,31.1667 514.5,33.5C 514.5,35.5 514.5,37.5 514.5,39.5C 513.167,40.5 513.167,41.5 514.5,42.5C 514.5,43.5 514.5,44.5 514.5,45.5C 513.469,46.355 512.303,47.0217 511,47.5C 450.858,46.849 390.691,46.5157 330.5,46.5C 327.275,47.1843 324.275,48.351 321.5,50C 313.211,51.7695 305.378,54.9361 298,59.5C 295.736,64.8095 296.236,69.8095 299.5,74.5C 298.727,77.4649 298.061,80.4649 297.5,83.5C 298.348,88.0622 298.681,92.5622 298.5,97C 298.012,98.584 297.012,99.7506 295.5,100.5C 297.234,101.674 298.234,103.34 298.5,105.5C 297.888,107.338 297.888,109.005 298.5,110.5C 297.62,112.429 296.62,114.263 295.5,116C 297.262,118.584 298.262,121.417 298.5,124.5C 298.438,127.547 297.438,130.214 295.5,132.5C 296.242,134.98 297.242,137.313 298.5,139.5C 295.496,147.256 297.663,153.256 305,157.5C 308.856,163.781 311.856,170.447 314,177.5C 316,180.833 318.667,183.5 322,185.5C 324.972,194.78 329.972,202.78 337,209.5C 337.333,211.167 337.667,212.833 338,214.5C 345.324,222.145 349.657,231.145 351,241.5C 348.297,244.538 345.297,247.205 342,249.5C 334.856,247.759 327.689,247.592 320.5,249C 319.023,251.571 317.023,252.071 314.5,250.5C 310.375,251.728 306.709,253.728 303.5,256.5C 304.595,263.478 305.595,270.645 306.5,278C 306.415,279.107 306.081,280.107 305.5,281C 308.84,287.162 310.174,293.662 309.5,300.5C 309.437,302.481 310.104,304.148 311.5,305.5C 309.029,308.788 309.029,312.121 311.5,315.5C 307.552,323.924 304.385,332.591 302,341.5C 300.878,343.624 299.378,345.457 297.5,347C 289.09,347.324 280.757,347.491 272.5,347.5C 266.597,345.796 260.597,344.296 254.5,343C 249.225,340.956 244.058,338.789 239,336.5C 238.127,336.735 237.293,337.069 236.5,337.5C 232.093,335.944 227.593,334.611 223,333.5C 222.167,333.833 221.333,334.167 220.5,334.5C 220.837,337.828 221.17,341.161 221.5,344.5C 220.107,348.265 218.774,352.099 217.5,356C 217.833,357 218.167,358 218.5,359C 217.741,364.128 217.241,369.295 217,374.5C 216.031,381.842 214.864,389.176 213.5,396.5C 214.183,400.418 215.183,404.251 216.5,408C 216.089,409.144 215.756,410.311 215.5,411.5C 216.647,422.866 218.647,434.032 221.5,445C 220.373,450.732 221.039,456.232 223.5,461.5C 223.244,462.689 222.911,463.856 222.5,465C 224.6,470.737 225.267,476.57 224.5,482.5C 224.882,489.007 226.048,495.34 228,501.5C 228.857,509.829 229.191,518.162 229,526.5C 224.711,527.781 220.377,527.781 216,526.5C 213.363,528.784 210.863,528.784 208.5,526.5C 207.167,527.167 205.833,527.833 204.5,528.5C 203.059,527.696 201.559,527.029 200,526.5C 196.819,527.79 193.652,527.79 190.5,526.5C 189.252,527.04 188.085,527.707 187,528.5C 184.553,525.956 182.053,525.956 179.5,528.5C 174.794,527.207 173.461,524.373 175.5,520C 174.667,511.838 173.834,503.671 173,495.5C 171.046,493.215 171.213,491.048 173.5,489C 170.741,483.889 169.241,478.389 169,472.5C 167.667,471.167 166.333,471.167 165,472.5C 165.137,477.841 163.97,482.841 161.5,487.5C 161.709,488.086 162.043,488.586 162.5,489C 159.483,498.077 157.817,507.244 157.5,516.5C 154.825,519.685 154.159,523.185 155.5,527C 154.705,528.582 153.538,528.749 152,527.5C 150.541,527.808 149.374,528.475 148.5,529.5C 147.833,529.5 147.167,529.5 146.5,529.5C 144.167,528.167 141.833,528.167 139.5,529.5C 138.833,529.5 138.167,529.5 137.5,529.5C 135.406,527.006 133.406,527.006 131.5,529.5C 130.833,529.5 130.167,529.5 129.5,529.5C 127.833,526.833 126.167,526.833 124.5,529.5C 123.833,529.5 123.167,529.5 122.5,529.5C 119.833,528.167 117.167,528.167 114.5,529.5C 113.833,529.5 113.167,529.5 112.5,529.5C 111.469,528.751 110.302,528.085 109,527.5C 108.283,528.044 107.783,528.711 107.5,529.5C 106.5,529.5 105.5,529.5 104.5,529.5C 103.22,528.069 101.553,527.402 99.5,527.5C 99.9827,522.902 99.9827,518.402 99.5,514C 100.046,509.884 101.379,506.05 103.5,502.5C 102.633,497.026 103.299,491.693 105.5,486.5C 102.855,482.543 103.355,478.876 107,475.5C 108,466.833 109,458.167 110,449.5C 110.92,446.204 112.087,443.037 113.5,440C 112.833,438.667 112.167,437.333 111.5,436C 112.704,427.721 114.704,419.554 117.5,411.5C 116.308,406.475 117.308,401.975 120.5,398C 118.129,394.602 116.962,390.769 117,386.5C 113.625,381.048 110.625,375.382 108,369.5C 106.28,366.233 105.78,362.9 106.5,359.5C 104.638,354.483 101.805,350.15 98,346.5C 97,347.167 96,347.833 95,348.5C 88.3267,360.025 80.4933,370.692 71.5,380.5C 70.2936,383.875 68.4602,386.875 66,389.5C 63.9463,396.008 60.9463,402.008 57,407.5C 56.3162,408.784 56.4829,409.951 57.5,411C 50.5528,422.533 46.0528,434.7 44,447.5C 43,448.5 42,449.5 41,450.5C 37.8606,458.112 34.1939,465.446 30,472.5C 20.6504,481.561 11.3171,481.561 2,472.5C 1.8923,468.535 1.05897,464.868 -0.5,461.5C -0.5,458.833 -0.5,456.167 -0.5,453.5C 0.97576,451.231 2.47576,448.898 4,446.5C 4.57575,444.623 4.40909,442.789 3.5,441C 6.49597,435.845 8.49597,430.345 9.5,424.5C 11.6043,421.72 13.4376,418.72 15,415.5C 15.5946,414.101 15.4279,412.768 14.5,411.5C 17.7602,409.041 19.2602,405.708 19,401.5C 22.4876,397.586 24.1543,392.92 24,387.5C 25.0804,385.004 26.4138,382.67 28,380.5C 28.3333,377.833 28.6667,375.167 29,372.5C 31.706,370.129 34.0394,367.463 36,364.5C 38.8598,358.919 41.5265,353.252 44,347.5C 46.5269,344.061 49.5269,341.061 53,338.5C 55.6176,331.266 59.2842,324.599 64,318.5C 65.3333,317.833 66.6667,317.167 68,316.5C 69.8009,312.482 71.4675,308.482 73,304.5C 76.6431,298.923 80.6431,293.59 85,288.5C 86.0438,286.285 86.7105,283.952 87,281.5C 90.1504,279.879 90.9837,277.546 89.5,274.5C 91.8094,270.845 92.9761,266.845 93,262.5C 94.3333,261.167 95.6667,261.167 97,262.5C 97.4955,264.473 97.6621,266.473 97.5,268.5C 100.14,268.046 102.473,266.879 104.5,265C 109.53,264.729 114.53,264.229 119.5,263.5C 120.689,263.756 121.856,264.089 123,264.5C 125.001,262.566 127.168,260.899 129.5,259.5C 128.746,256.223 128.246,252.89 128,249.5C 125.125,246.458 123.792,242.791 124,238.5C 122.108,237.87 120.441,236.87 119,235.5C 116.366,229.728 112.866,224.561 108.5,220C 106.089,220.052 103.756,220.385 101.5,221C 98.8655,218.718 96.8655,216.052 95.5,213C 95.6609,208.508 97.9942,206.508 102.5,207C 99.6793,204.283 100.013,201.95 103.5,200C 102.57,198.806 101.903,197.473 101.5,196C 102.218,192.539 102.718,189.039 103,185.5C 105.757,180.987 108.257,176.32 110.5,171.5C 116.159,167.668 121.659,163.668 127,159.5C 129.398,162.284 131.565,162.117 133.5,159C 139.973,158.281 146.306,158.947 152.5,161C 157.644,165.813 162.477,170.98 167,176.5C 171.073,184.528 174.073,192.861 176,201.5C 178.087,203.745 179.421,206.412 180,209.5C 183.891,208.249 184.724,206.249 182.5,203.5C 182.833,203.167 183.167,202.833 183.5,202.5C 185.179,203.782 187.013,204.782 189,205.5C 189.154,209.098 190.154,212.431 192,215.5C 192.05,219.401 192.217,223.235 192.5,227C 190.202,229.593 187.702,232.093 185,234.5C 181.168,240.819 176.834,246.819 172,252.5C 172.614,256.521 172.447,260.521 171.5,264.5C 177.167,264.5 182.833,264.5 188.5,264.5C 188.126,261.028 189.126,258.028 191.5,255.5C 190.391,253.786 191.058,253.119 193.5,253.5C 193.137,250.437 192.47,247.437 191.5,244.5C 191.842,242.133 192.342,239.8 193,237.5C 195.306,236.418 196.806,237.252 197.5,240C 196.541,242.12 196.374,244.287 197,246.5C 199.999,249.324 200.832,252.657 199.5,256.5C 199.923,259.108 200.923,261.442 202.5,263.5C 201.24,264.382 200.074,265.382 199,266.5C 198.312,267.332 198.479,267.998 199.5,268.5C 202.618,270.393 205.951,271.726 209.5,272.5C 210.748,271.96 211.915,271.293 213,270.5C 213.333,268.167 213.667,265.833 214,263.5C 214.414,263.043 214.914,262.709 215.5,262.5C 216.902,266.711 217.736,271.044 218,275.5C 220.833,278.333 223.667,281.167 226.5,284C 236.469,287.244 246.136,291.244 255.5,296C 256.79,298.292 258.457,300.292 260.5,302C 265.003,303.693 269.336,305.526 273.5,307.5C 273.531,301.648 274.531,295.981 276.5,290.5C 275.523,279.059 275.856,267.226 277.5,255C 276.511,248.764 273.344,246.931 268,249.5C 265.756,247.006 263.423,247.006 261,249.5C 256.557,248.745 252.057,248.078 247.5,247.5C 245.945,247.722 244.611,248.389 243.5,249.5C 239.956,247.229 236.29,245.229 232.5,243.5C 231.954,242.228 231.621,240.894 231.5,239.5C 235.48,231.4 238.98,223.066 242,214.5C 244.964,210.534 248.297,206.867 252,203.5C 255.674,194.216 261.007,185.883 268,178.5C 271.253,171.879 274.586,165.213 278,158.5C 282.159,155.845 284.993,152.179 286.5,147.5C 286.124,145.617 285.124,144.117 283.5,143C 286.372,138.384 286.705,133.717 284.5,129C 285.798,124.147 286.798,119.313 287.5,114.5C 286.381,109.869 286.381,105.202 287.5,100.5C 287.597,98.0554 286.93,95.8887 285.5,94C 287.994,91.0843 287.994,88.0843 285.5,85C 286.029,83.4411 286.696,81.9411 287.5,80.5C 286.833,79.1667 286.167,77.8333 285.5,76.5C 287.351,73.3751 287.851,70.0417 287,66.5C 281.355,62.6814 278.522,57.3481 278.5,50.5C 282.579,49.5787 286.579,49.0787 290.5,49C 291.524,47.6329 291.024,46.7995 289,46.5C 256.583,46.6663 224.25,46.6663 192,46.5C 191.308,47.0253 190.808,47.6919 190.5,48.5C 192.193,49.2283 193.693,50.2283 195,51.5C 199.75,57.242 204.083,63.242 208,69.5C 211.066,72.2576 214.399,74.591 218,76.5C 224.911,85.3218 231.577,94.3218 238,103.5C 238.667,109.833 238.667,116.167 238,122.5C 235.65,126.737 232.65,127.404 229,124.5C 224.667,125.167 220.333,125.833 216,126.5C 210.471,123.657 207.638,125.491 207.5,132C 207.334,134.935 208.001,137.602 209.5,140C 206.673,142.157 206.84,143.99 210,145.5C 210.708,155.293 206.542,158.293 197.5,154.5C 195.116,151.054 195.116,147.72 197.5,144.5C 199.78,145.755 200.947,147.755 201,150.5C 202.298,149.44 203.465,148.274 204.5,147C 202.888,144.384 200.888,142.05 198.5,140C 199.901,138.323 201.235,136.656 202.5,135C 202.23,131.657 201.23,128.657 199.5,126C 195.445,125.768 191.445,125.268 187.5,124.5C 186.452,125.383 185.285,126.05 184,126.5C 182.607,125.385 181.107,124.885 179.5,125C 178.332,126.871 178.832,128.371 181,129.5C 181.579,131.649 182.079,133.815 182.5,136C 181.14,138.27 180.473,140.77 180.5,143.5C 175.453,145.627 171.286,144.627 168,140.5C 167.708,138.674 167.875,136.841 168.5,135C 170.459,132.193 172.126,129.193 173.5,126C 171.101,125.289 168.768,125.456 166.5,126.5C 165.167,125.833 163.833,125.167 162.5,124.5C 160.06,126.922 157.726,126.922 155.5,124.5C 155.167,125 154.833,125.5 154.5,126C 156.075,127.12 157.075,128.62 157.5,130.5C 156.167,132.167 156.167,133.833 157.5,135.5C 157.278,137.055 156.611,138.389 155.5,139.5C 157.545,141.759 159.211,144.259 160.5,147C 159.289,150.077 157.956,153.077 156.5,156C 153.442,156.458 150.442,156.124 147.5,155C 146.101,153.938 145.101,152.605 144.5,151C 145.76,145.48 148.094,140.48 151.5,136C 150.261,133.787 150.594,131.787 152.5,130C 151.372,127.704 149.705,125.871 147.5,124.5C 144.5,125.833 141.5,125.833 138.5,124.5C 132.791,127.694 131.957,132.027 136,137.5C 136.752,140.894 136.585,144.227 135.5,147.5C 132.241,148.766 128.907,149.266 125.5,149C 124.845,147.513 123.845,146.347 122.5,145.5C 121.369,143.926 121.202,142.259 122,140.5C 122.837,138.993 124.004,138.493 125.5,139C 126.833,140 126.833,141 125.5,142C 126.025,142.692 126.692,143.192 127.5,143.5C 128.262,142.372 128.929,141.205 129.5,140C 126.512,136.22 125.678,132.054 127,127.5C 124.718,123.959 122.051,123.626 119,126.5C 115.767,124.273 112.6,124.273 109.5,126.5C 107.024,123.931 104.524,123.931 102,126.5C 100.715,126.05 99.548,125.383 98.5,124.5C 94.5466,126.147 91.0466,125.48 88,122.5C 87.7896,119.766 86.9563,117.266 85.5,115C 86.6775,111.073 88.3441,107.406 90.5,104C 89.3047,102.467 89.3047,100.967 90.5,99.5C 97.5058,92.6604 104.172,85.4938 110.5,78C 123.349,70.5662 134.683,61.2328 144.5,50C 149.277,48.6999 150.61,45.6999 148.5,41C 149.977,37.6702 150.811,34.1702 151,30.5C 152.198,27.2744 154.031,24.4411 156.5,22C 159.433,20.7291 162.099,19.0624 164.5,17C 168.196,17.3425 171.863,17.1758 175.5,16.5C 177.187,16.7605 178.687,17.4272 180,18.5C 181.019,17.3128 182.186,16.3128 183.5,15.5C 184.611,16.6113 185.945,17.278 187.5,17.5C 190.142,16.3732 192.809,16.3732 195.5,17.5C 197.593,17.5142 199.426,16.8476 201,15.5C 203.459,18.1003 205.959,18.1003 208.5,15.5C 210.833,18.1667 213.167,18.1667 215.5,15.5C 216.852,16.8962 218.519,17.5629 220.5,17.5C 223.191,16.3732 225.858,16.3732 228.5,17.5C 230.104,17.0609 231.604,16.3943 233,15.5C 235.391,18.1435 237.725,18.1435 240,15.5C 241.126,16.9436 242.626,17.6102 244.5,17.5C 247.517,16.3251 250.517,16.3251 253.5,17.5C 255.055,17.278 256.389,16.6113 257.5,15.5C 259.985,18.0769 262.485,18.0769 265,15.5C 266.092,16.2961 267.259,16.9628 268.5,17.5C 271.659,16.2305 274.826,16.2305 278,17.5C 279.812,17.5066 281.312,16.84 282.5,15.5C 283.519,16.6872 284.686,17.6872 286,18.5C 287.019,17.3128 288.186,16.3128 289.5,15.5C 290.611,16.6113 291.945,17.278 293.5,17.5C 299.167,17.5 304.833,17.5 310.5,17.5C 311.741,16.9628 312.908,16.2961 314,15.5C 316.524,18.0691 319.024,18.0691 321.5,15.5C 322.852,16.8962 324.519,17.5629 326.5,17.5C 329.362,16.4027 332.195,16.4027 335,17.5C 336.285,17.0496 337.452,16.3829 338.5,15.5C 341.041,18.1003 343.541,18.1003 346,15.5C 347.194,16.4303 348.527,17.0969 350,17.5C 359.387,13.7699 368.554,9.60322 377.5,5C 380.02,3.30288 382.353,1.46955 384.5,-0.5 Z M 340.5,22.5 C 343.796,22.6955 346.129,24.3622 347.5,27.5C 346.787,29.7759 346.287,32.1093 346,34.5C 340.13,39.4324 335.964,38.2658 333.5,31C 333.862,29.7753 334.362,28.6086 335,27.5C 337.191,26.1666 339.024,24.5 340.5,22.5 Z M 147.5,56.5 C 149.048,56.8212 149.715,57.8212 149.5,59.5C 146.752,59.5983 146.086,58.5983 147.5,56.5 Z M 165.5,60.5 C 167.484,60.3832 169.15,61.0499 170.5,62.5C 171.182,65.4574 171.348,68.4574 171,71.5C 171.833,72.3333 172.667,73.1667 173.5,74C 176.78,74.056 179.78,74.8893 182.5,76.5C 181.917,78.0016 181.084,79.3349 180,80.5C 177.333,77.8333 174.667,77.8333 172,80.5C 170.726,83.9805 170.226,87.4805 170.5,91C 167.944,92.4379 165.278,92.4379 162.5,91C 160.076,88.4462 160.076,85.9462 162.5,83.5C 161.459,77.5229 158.959,76.5229 155,80.5C 153.846,79.2567 152.512,78.2567 151,77.5C 150.517,76.552 150.351,75.552 150.5,74.5C 156.552,76.1052 160.552,74.1052 162.5,68.5C 160.544,64.4958 161.544,61.8292 165.5,60.5 Z M 292.5,71.5 C 293.598,72.6009 293.765,73.9343 293,75.5C 291.232,74.3181 291.065,72.9848 292.5,71.5 Z M 122.5,78.5 C 124.97,79.3603 125.137,80.6936 123,82.5C 121.232,81.3181 121.065,79.9848 122.5,78.5 Z M 292.5,86.5 C 293.788,88.0348 293.788,89.7015 292.5,91.5C 291.334,89.8327 291.334,88.166 292.5,86.5 Z M 104.5,100.5 C 106.741,101.3 107.741,102.966 107.5,105.5C 104.151,105.127 103.151,103.46 104.5,100.5 Z M 96.5,103.5 C 97.9778,103.238 99.3112,103.571 100.5,104.5C 99.8333,104.833 99.1667,105.167 98.5,105.5C 97.2867,105.253 96.62,104.586 96.5,103.5 Z M 111.5,103.5 C 112.675,103.281 113.675,103.614 114.5,104.5C 112.948,105.798 111.948,105.465 111.5,103.5 Z M 121.5,103.5 C 122.675,103.281 123.675,103.614 124.5,104.5C 122.948,105.798 121.948,105.465 121.5,103.5 Z M 129.5,103.5 C 131.983,103.73 132.483,104.397 131,105.5C 129.97,105.164 129.47,104.497 129.5,103.5 Z M 292.5,103.5 C 293.782,104.708 293.782,106.042 292.5,107.5C 291.374,106.192 291.374,104.858 292.5,103.5 Z M 291.5,122.5 C 293.465,122.948 293.798,123.948 292.5,125.5C 291.614,124.675 291.281,123.675 291.5,122.5 Z M 288.5,127.5 C 290.76,128.238 290.927,129.238 289,130.5C 288.517,129.552 288.351,128.552 288.5,127.5 Z M 171.5,132.5 C 178.097,134.781 178.097,136.281 171.5,137C 170.587,135.586 170.587,134.086 171.5,132.5 Z M 292.5,138.5 C 293.773,139.077 293.773,139.743 292.5,140.5C 291.537,140.03 291.537,139.363 292.5,138.5 Z M 149.5,141.5 C 150.5,141.5 151.5,141.5 152.5,141.5C 152.827,143.488 153.16,145.488 153.5,147.5C 153.658,149.319 152.991,150.652 151.5,151.5C 150.402,148.247 149.736,144.914 149.5,141.5 Z M 288.5,141.5 C 290.048,141.821 290.715,142.821 290.5,144.5C 287.752,144.598 287.086,143.598 288.5,141.5 Z M 220.5,149.5 C 221.995,149.415 222.995,150.081 223.5,151.5C 222.846,153.115 222.346,154.782 222,156.5C 221.338,154.187 220.838,151.854 220.5,149.5 Z M 288.5,156.5 C 291.167,156.833 293.833,157.167 296.5,157.5C 296.34,159.199 296.506,160.866 297,162.5C 299.708,166.617 302.041,170.95 304,175.5C 308.686,181.195 313.019,187.195 317,193.5C 318.851,197.004 320.184,200.67 321,204.5C 323.609,208.588 326.776,212.088 330.5,215C 333.356,222.199 336.523,229.033 340,235.5C 334.13,238.844 327.963,239.344 321.5,237C 318.054,232.046 314.387,227.213 310.5,222.5C 303.418,217.994 295.752,216.494 287.5,218C 283.833,222.333 280.167,226.667 276.5,231C 272.723,229.7 268.723,229.367 264.5,230C 261.77,232.13 259.77,234.797 258.5,238C 255.532,237.194 252.532,237.361 249.5,238.5C 246.934,237.632 244.434,236.632 242,235.5C 242.51,230.897 244.51,226.897 248,223.5C 248.973,221.608 249.64,219.608 250,217.5C 255.363,213.785 259.03,208.785 261,202.5C 263.87,199.643 265.87,196.31 267,192.5C 269.299,188.334 272.299,184.667 276,181.5C 276.775,177.597 278.775,174.597 282,172.5C 283.259,166.794 285.426,161.461 288.5,156.5 Z M 182.5,165.5 C 186.525,166.218 188.025,168.551 187,172.5C 185.981,171.313 184.814,170.313 183.5,169.5C 182.571,168.311 182.238,166.978 182.5,165.5 Z M 133.5,184.5 C 134.376,184.369 135.043,184.702 135.5,185.5C 133.192,186.873 132.525,186.54 133.5,184.5 Z M 161.5,195.5 C 163.465,195.948 163.798,196.948 162.5,198.5C 161.614,197.675 161.281,196.675 161.5,195.5 Z M 206.5,198.5 C 209.109,198.83 210.776,200.33 211.5,203C 208.162,203.5 206.495,202 206.5,198.5 Z M 161.5,199.5 C 165.697,202.102 165.364,203.768 160.5,204.5C 160.366,202.708 160.699,201.042 161.5,199.5 Z M 101.5,211.5 C 103.97,212.36 104.137,213.694 102,215.5C 101.51,214.207 101.343,212.873 101.5,211.5 Z M 182.5,212.5 C 186.31,213.754 186.31,214.754 182.5,215.5C 182.5,214.5 182.5,213.5 182.5,212.5 Z M 183.5,219.5 C 185.976,221.121 186.142,223.121 184,225.5C 182.2,223.635 182.034,221.635 183.5,219.5 Z M 131.5,222.5 C 132.5,222.5 133.5,222.5 134.5,222.5C 133.234,225.301 132.401,228.301 132,231.5C 130.603,230.774 129.769,229.607 129.5,228C 129.954,226.061 130.621,224.228 131.5,222.5 Z M 218.5,243.5 C 223.504,244.964 223.504,246.964 218.5,249.5C 217.306,247.484 217.306,245.484 218.5,243.5 Z M 156.5,258.5 C 157.139,259.097 157.472,259.93 157.5,261C 157.087,264.717 155.754,265.217 153.5,262.5C 154.524,261.148 155.524,259.815 156.5,258.5 Z M 192.5,258.5 C 193.496,258.414 194.329,258.748 195,259.5C 195.494,261.134 195.66,262.801 195.5,264.5C 194.5,264.5 193.5,264.5 192.5,264.5C 192.5,262.5 192.5,260.5 192.5,258.5 Z M 119.5,275.5 C 120.586,275.62 121.253,276.287 121.5,277.5C 120.366,279.538 120.366,281.538 121.5,283.5C 121.192,284.308 120.692,284.975 120,285.5C 118.977,284.4 118.477,283.067 118.5,281.5C 118.84,279.488 119.173,277.488 119.5,275.5 Z M 93.5,280.5 C 95.0847,281.002 95.5847,282.002 95,283.5C 93.3116,285.848 91.4783,286.015 89.5,284C 90.7305,282.595 92.0639,281.429 93.5,280.5 Z M 213.5,280.5 C 216.957,280.667 217.29,281.667 214.5,283.5C 213.614,282.675 213.281,281.675 213.5,280.5 Z M 211.5,284.5 C 214.5,284.167 215.833,285.5 215.5,288.5C 214.167,288.5 212.833,288.5 211.5,288.5C 211.5,287.167 211.5,285.833 211.5,284.5 Z M 164.5,290.5 C 166.95,290.874 167.95,292.374 167.5,295C 168.068,298.263 166.734,299.763 163.5,299.5C 164.159,296.545 164.492,293.545 164.5,290.5 Z M 197.5,304.5 C 198.254,307.023 198.92,309.689 199.5,312.5C 197.562,315.209 196.229,314.876 195.5,311.5C 196.173,309.149 196.84,306.816 197.5,304.5 Z M 133.5,318.5 C 134.634,320.966 134.801,323.633 134,326.5C 132.365,327.849 130.865,327.682 129.5,326C 130.973,323.552 132.307,321.052 133.5,318.5 Z M 107.5,328.5 C 110.144,330.66 109.811,332.66 106.5,334.5C 106.167,334 105.833,333.5 105.5,333C 106.414,331.594 107.08,330.094 107.5,328.5 Z M 158.5,361.5 C 161.152,363.462 161.152,365.462 158.5,367.5C 157.306,365.484 157.306,363.484 158.5,361.5 Z M 186.5,366.5 C 189.873,367.932 190.207,369.932 187.5,372.5C 186.692,372.192 186.025,371.692 185.5,371C 186.38,369.644 186.714,368.144 186.5,366.5 Z M 140.5,399.5 C 141.117,399.611 141.617,399.944 142,400.5C 142.667,402.833 142.667,405.167 142,407.5C 141.29,408.973 140.124,409.64 138.5,409.5C 138.851,406.097 139.518,402.763 140.5,399.5 Z"/></g><g><path style="opacity:1" fill="#000000" d="M 104.5,130.5 C 105.75,130.577 106.583,131.244 107,132.5C 107.626,134.713 107.459,136.88 106.5,139C 108.061,143.701 109.394,148.535 110.5,153.5C 109.781,157.718 107.281,160.052 103,160.5C 96.8522,159.287 94.8522,155.62 97,149.5C 101.691,147.094 102.858,143.761 100.5,139.5C 101.685,136.408 103.019,133.408 104.5,130.5 Z M 100.5,149.5 C 101.5,149.5 102.5,149.5 103.5,149.5C 103.421,150.93 103.754,152.264 104.5,153.5C 103.711,155.488 102.545,155.821 101,154.5C 100.506,152.866 100.34,151.199 100.5,149.5 Z"/></g><g><path style="opacity:1" fill="#000000" d="M 220.5,149.5 C 220.335,146.482 220.502,143.482 221,140.5C 222.011,139.663 223.178,139.33 224.5,139.5C 224.34,141.199 224.506,142.866 225,144.5C 226.385,145.551 227.385,146.884 228,148.5C 228.718,152.177 229.051,155.843 229,159.5C 225.18,165.56 220.847,165.894 216,160.5C 216.217,157.153 216.884,153.82 218,150.5C 218.671,149.748 219.504,149.414 220.5,149.5 Z M 220.5,149.5 C 220.838,151.854 221.338,154.187 222,156.5C 222.346,154.782 222.846,153.115 223.5,151.5C 222.995,150.081 221.995,149.415 220.5,149.5 Z"/></g><g><path style="opacity:1" fill="#000000" d="M 186.5,141.5 C 188.625,142.368 188.791,143.368 187,144.5C 185.317,143.824 185.15,142.824 186.5,141.5 Z"/></g><g><path style="opacity:1" fill="#000000" d="M 185.5,148.5 C 186.822,148.33 187.989,148.663 189,149.5C 192.579,158.293 193.579,167.293 192,176.5C 189.293,178.886 186.46,179.052 183.5,177C 180.93,174.933 178.93,172.433 177.5,169.5C 180.074,166.081 182.074,162.414 183.5,158.5C 184.33,155.179 184.997,151.846 185.5,148.5 Z M 182.5,165.5 C 182.238,166.978 182.571,168.311 183.5,169.5C 184.814,170.313 185.981,171.313 187,172.5C 188.025,168.551 186.525,166.218 182.5,165.5 Z"/></g><g><path style="opacity:1" fill="#000000" d="M 211.5,173.5 C 214.14,174.794 214.14,176.127 211.5,177.5C 210.374,176.192 210.374,174.858 211.5,173.5 Z"/></g><g><path style="opacity:1" fill="#000000" d="M 208.5,183.5 C 210.39,183.297 211.89,183.963 213,185.5C 213.752,189.551 215.252,193.218 217.5,196.5C 217.101,199.422 216.934,202.422 217,205.5C 209.988,211.769 205.155,210.269 202.5,201C 204.633,198.812 206.466,196.312 208,193.5C 207.381,190.123 207.547,186.79 208.5,183.5 Z M 206.5,198.5 C 206.495,202 208.162,203.5 211.5,203C 210.776,200.33 209.109,198.83 206.5,198.5 Z"/></g><g><path style="opacity:1" fill="#000000" d="M 182.5,195.5 C 184.315,196.63 186.315,197.296 188.5,197.5C 188.5,198.833 188.5,200.167 188.5,201.5C 187.5,201.5 186.5,201.5 185.5,201.5C 185.317,199.012 184.317,197.012 182.5,195.5 Z"/></g><g><path style="opacity:1" fill="#000000" d="M 220.5,222.5 C 221.822,222.33 222.989,222.663 224,223.5C 223.803,231.438 224.97,239.105 227.5,246.5C 226.653,254.864 222.32,257.698 214.5,255C 213.782,253.013 212.782,251.179 211.5,249.5C 212.897,247.018 213.731,244.352 214,241.5C 216.935,238.997 218.102,235.997 217.5,232.5C 218.752,230.999 219.752,229.332 220.5,227.5C 219.185,225.801 219.185,224.135 220.5,222.5 Z M 218.5,243.5 C 217.306,245.484 217.306,247.484 218.5,249.5C 223.504,246.964 223.504,244.964 218.5,243.5 Z"/></g></svg>