<svg xmlns="http://www.w3.org/2000/svg" version="1.1" width="696px" height="655px" style="shape-rendering:geometricPrecision; text-rendering:geometricPrecision; image-rendering:optimizeQuality; fill-rule:evenodd; clip-rule:evenodd" xmlns:xlink="http://www.w3.org/1999/xlink"><g><path style="opacity:1" fill="#000000" d="M 414.5,-0.5 C 420.167,-0.5 425.833,-0.5 431.5,-0.5C 455.691,6.00466 468.691,21.838 470.5,47C 467.333,75.5004 451.5,91.3337 423,94.5C 394.273,91.2728 378.44,75.2728 375.5,46.5C 377.945,21.8831 390.945,6.21646 414.5,-0.5 Z"/></g><g><path style="opacity:1" fill="#000000" d="M -0.5,30.5 C 10.5937,36.4103 21.5937,42.577 32.5,49C 43.9608,52.831 55.6274,53.4977 67.5,51C 106.489,33.9974 131.822,45.8308 143.5,86.5C 150.398,86.6688 157.398,86.6688 164.5,86.5C 164.92,88.674 164.92,90.674 164.5,92.5C 159.166,93.6004 153.832,94.7671 148.5,96C 151.421,99.8447 154.087,103.845 156.5,108C 155.003,109.662 153.337,111.162 151.5,112.5C 149.273,110.393 147.273,108.06 145.5,105.5C 143.697,110.377 142.364,115.377 141.5,120.5C 139.5,120.5 137.5,120.5 135.5,120.5C 135.5,111.833 135.5,103.167 135.5,94.5C 132.427,95.199 129.427,96.199 126.5,97.5C 122.11,87.8943 116.11,79.3943 108.5,72C 100.723,67.7352 92.3899,66.4019 83.5,68C 70.2818,71.1381 56.9485,73.6381 43.5,75.5C 27.0998,74.7021 12.4332,69.3688 -0.5,59.5C -0.5,49.8333 -0.5,40.1667 -0.5,30.5 Z"/></g><g><path style="opacity:1" fill="#000000" d="M 695.5,322.5 C 695.5,326.167 695.5,329.833 695.5,333.5C 686.889,358.137 670.556,365.303 646.5,355C 642.642,351.149 638.475,347.649 634,344.5C 586,290.5 538,236.5 490,182.5C 489.667,231.167 489.333,279.833 489,328.5C 487.202,334.895 485.202,341.228 483,347.5C 420.667,445.5 358.333,543.5 296,641.5C 290.739,647.283 284.572,651.616 277.5,654.5C 272.167,654.5 266.833,654.5 261.5,654.5C 241.059,646.068 233.892,631.068 240,609.5C 289.819,533.488 338.819,457.155 387,380.5C 290.421,430.539 193.921,480.706 97.5,531C 76.0462,536.356 61.8795,528.523 55,507.5C 53.4301,497.445 55.7634,488.445 62,480.5C 65.7803,477.039 69.6136,473.705 73.5,470.5C 168.167,423.167 262.833,375.833 357.5,328.5C 358.5,274.504 358.833,220.504 358.5,166.5C 296.463,166.981 234.463,166.481 172.5,165C 149.83,156.019 143.33,140.186 153,117.5C 159.791,107.519 169.291,102.352 181.5,102C 288.167,101.333 394.833,101.333 501.5,102C 565.017,171.55 628.184,241.383 691,311.5C 692.822,315.157 694.322,318.824 695.5,322.5 Z M 186.5,114.5 C 281.485,123.635 376.485,132.802 471.5,142C 454.647,149.591 437.647,156.925 420.5,164C 441.76,171.198 463.093,178.198 484.5,185C 455.167,200 425.833,215 396.5,230C 422.303,246.971 447.969,264.137 473.5,281.5C 438.698,266.274 404.032,250.108 369.5,233C 388.535,222.151 407.535,211.318 426.5,200.5C 412.5,191.833 398.5,183.167 384.5,174.5C 390.664,169.174 396.997,164.008 403.5,159C 332,144.833 260.5,130.667 189,116.5C 187.624,116.316 186.791,115.649 186.5,114.5 Z"/></g></svg>