<svg xmlns="http://www.w3.org/2000/svg" version="1.1" width="663px" height="618px" style="shape-rendering:geometricPrecision; text-rendering:geometricPrecision; image-rendering:optimizeQuality; fill-rule:evenodd; clip-rule:evenodd" xmlns:xlink="http://www.w3.org/1999/xlink"><g><path style="opacity:1" fill="#000000" d="M 630.5,-0.5 C 632.5,-0.5 634.5,-0.5 636.5,-0.5C 648.845,2.83566 657.511,10.5023 662.5,22.5C 662.5,24.1667 662.5,25.8333 662.5,27.5C 600.521,136.113 539.021,245.113 478,354.5C 466.067,374.426 448.9,387.593 426.5,394C 381.932,403.428 337.265,412.428 292.5,421C 291.692,421.308 291.025,421.808 290.5,422.5C 299.941,443.049 309.108,463.716 318,484.5C 321.272,485.051 324.439,485.884 327.5,487C 339.423,486.739 351.089,488.239 362.5,491.5C 366.88,500.299 370.88,509.299 374.5,518.5C 335.504,519.667 296.504,519.833 257.5,519C 252.38,508.305 248.047,497.305 244.5,486C 249.864,485.829 255.198,485.329 260.5,484.5C 248.667,458.167 236.833,431.833 225,405.5C 218.712,389.164 223.212,376.664 238.5,368C 282.772,358.079 327.105,348.412 371.5,339C 335.5,313 299.5,287 263.5,261C 219.505,259.858 175.505,259.025 131.5,258.5C 131.26,247.469 131.593,236.469 132.5,225.5C 137.246,225.888 141.913,225.888 146.5,225.5C 138.774,217.378 134.274,207.712 133,196.5C 132.932,179.837 133.098,163.171 133.5,146.5C 144.812,147.308 151.646,153.308 154,164.5C 155.26,180.418 162.427,192.918 175.5,202C 179.935,204.551 184.601,206.551 189.5,208C 215.798,209.927 242.131,211.261 268.5,212C 275.267,212.35 281.933,213.35 288.5,215C 295.989,218.241 302.989,222.241 309.5,227C 338.815,248.658 368.481,269.824 398.5,290.5C 408.746,273.683 418.246,256.349 427,238.5C 427.667,237.5 427.667,236.5 427,235.5C 380.698,186.197 334.032,137.197 287,88.5C 276.709,70.4911 280.876,56.9911 299.5,48C 307.7,46.4635 315.366,47.7968 322.5,52C 363.222,94.7195 403.889,137.386 444.5,180C 467.027,194.764 489.694,195.097 512.5,181C 515,178.5 517.5,176 520,173.5C 550.253,120.662 580.253,67.6623 610,14.5C 614.487,6.18392 621.32,1.18392 630.5,-0.5 Z"/></g><g><path style="opacity:1" fill="#000000" d="M 469.5,93.5 C 494.156,91.0658 511.323,101.066 521,123.5C 527.255,150.158 517.755,168.658 492.5,179C 472.467,184.283 455.634,179.116 442,163.5C 430.505,145.276 430.838,127.276 443,109.5C 450.255,101.383 459.089,96.0493 469.5,93.5 Z"/></g><g><path style="opacity:1" fill="#000000" d="M 92.5,441.5 C 93.8221,441.33 94.9887,441.663 96,442.5C 106.762,465.78 115.762,489.78 123,514.5C 124.455,517.912 126.288,521.079 128.5,524C 149.164,524.5 169.831,524.667 190.5,524.5C 188.269,540.624 182.436,555.291 173,568.5C 164.379,574.913 155.546,575.079 146.5,569C 141.917,565.088 138.083,560.588 135,555.5C 126.894,533.286 118.227,511.286 109,489.5C 106.125,486.537 102.625,484.704 98.5,484C 89.538,482.716 80.538,481.882 71.5,481.5C 75.3638,466.436 82.3638,453.102 92.5,441.5 Z"/></g><g><path style="opacity:1" fill="#000000" d="M 219.5,441.5 C 223.913,445.976 227.079,451.309 229,457.5C 235.973,476.724 242.64,496.057 249,515.5C 250.211,518.759 252.044,521.592 254.5,524C 275.164,524.5 295.831,524.667 316.5,524.5C 314.408,539.606 309.242,553.606 301,566.5C 291.301,576.263 281.134,576.763 270.5,568C 266.578,564.749 263.412,560.916 261,556.5C 252.611,534.055 243.944,511.722 235,489.5C 232.03,487.599 228.864,486.099 225.5,485C 216.253,483.177 206.92,482.344 197.5,482.5C 200.96,466.571 208.293,452.904 219.5,441.5 Z"/></g><g><path style="opacity:1" fill="#000000" d="M 351.5,441.5 C 353.39,441.297 354.89,441.963 356,443.5C 366.441,466.487 375.108,490.154 382,514.5C 383.441,517.88 385.274,521.047 387.5,524C 408.497,524.5 429.497,524.667 450.5,524.5C 448.328,541.675 441.661,556.842 430.5,570C 420.846,575.169 411.846,574.169 403.5,567C 400.067,563.958 397.234,560.458 395,556.5C 386.591,533.606 377.591,510.94 368,488.5C 364.951,486.036 361.451,484.536 357.5,484C 348.881,482.616 340.214,481.783 331.5,481.5C 334.987,466.526 341.654,453.193 351.5,441.5 Z"/></g><g><path style="opacity:1" fill="#000000" d="M 487.5,442.5 C 489.017,442.511 490.184,443.177 491,444.5C 491.748,446.332 492.748,447.999 494,449.5C 502.394,472.016 510.394,494.682 518,517.5C 518.883,520.102 520.383,522.269 522.5,524C 543.497,524.5 564.497,524.667 585.5,524.5C 583.459,539.594 578.293,553.594 570,566.5C 560.643,576.168 550.476,577.002 539.5,569C 535.578,565.749 532.412,561.916 530,557.5C 521.196,534.754 512.196,512.087 503,489.5C 499.488,487.218 495.655,485.718 491.5,485C 483.208,483.816 474.875,483.316 466.5,483.5C 469.508,467.822 476.508,454.156 487.5,442.5 Z"/></g><g><path style="opacity:1" fill="#000000" d="M 593.5,442.5 C 597.913,446.976 601.079,452.309 603,458.5C 610.14,479.586 617.473,500.586 625,521.5C 625.833,522.333 626.667,523.167 627.5,524C 638.828,524.5 650.162,524.667 661.5,524.5C 661.5,541.5 661.5,558.5 661.5,575.5C 649.411,574.367 640.578,568.367 635,557.5C 626.656,534.968 617.823,512.635 608.5,490.5C 604.354,487.395 599.687,485.561 594.5,485C 586.869,483.931 579.202,483.431 571.5,483.5C 574.952,467.587 582.285,453.921 593.5,442.5 Z"/></g><g><path style="opacity:1" fill="#000000" d="M -0.5,485.5 C 22.1691,485.333 44.8358,485.5 67.5,486C 77.7456,487.21 88.0789,488.543 98.5,490C 101.034,490.516 103.2,491.683 105,493.5C 108.114,502.178 111.614,510.678 115.5,519C 76.8348,519.5 38.1681,519.667 -0.5,519.5C -0.5,508.167 -0.5,496.833 -0.5,485.5 Z"/></g><g><path style="opacity:1" fill="#000000" d="M 268.5,617.5 C 266.833,617.5 265.167,617.5 263.5,617.5C 254.696,615.372 245.696,613.539 236.5,612C 235.978,611.439 235.645,610.772 235.5,610C 236.919,605.917 237.419,601.75 237,597.5C 228.973,603.787 219.806,606.787 209.5,606.5C 191.352,604.364 173.352,601.364 155.5,597.5C 156.802,590.378 160.802,585.545 167.5,583C 172.924,581.043 178.424,580.543 184,581.5C 202.675,580.173 216.675,571.506 226,555.5C 229.465,543.641 232.298,531.641 234.5,519.5C 200.498,519.667 166.498,519.5 132.5,519C 130.623,516.749 129.123,514.249 128,511.5C 125.664,502.992 122.831,494.658 119.5,486.5C 143.826,485.334 168.16,485.167 192.5,486C 193.328,486.915 194.328,487.581 195.5,488C 204.531,488.282 213.531,488.949 222.5,490C 225,490.375 227.333,491.208 229.5,492.5C 238.925,515.023 248.092,537.69 257,560.5C 261.744,568.411 268.244,574.411 276.5,578.5C 273.32,591.399 270.654,604.399 268.5,617.5 Z"/></g><g><path style="opacity:1" fill="#000000" d="M 378.5,485.5 C 405.835,485.333 433.169,485.5 460.5,486C 461.167,486.667 461.833,487.333 462.5,488C 472.555,488.472 482.555,489.472 492.5,491C 495.319,491.574 497.652,492.907 499.5,495C 502.566,503.13 505.9,511.13 509.5,519C 469.829,519.833 430.162,519.667 390.5,518.5C 385.705,507.783 381.705,496.783 378.5,485.5 Z"/></g><g><path style="opacity:1" fill="#000000" d="M 513.5,485.5 C 531.179,485.167 548.846,485.5 566.5,486.5C 566.709,487.086 567.043,487.586 567.5,488C 577.207,488.64 586.874,489.64 596.5,491C 599.308,491.598 601.808,492.765 604,494.5C 607.699,502.602 611.199,510.768 614.5,519C 584.833,519.667 555.167,519.667 525.5,519C 520.799,508.095 516.799,496.929 513.5,485.5 Z"/></g><g><path style="opacity:1" fill="#000000" d="M 618.5,485.5 C 632.833,485.5 647.167,485.5 661.5,485.5C 661.5,496.833 661.5,508.167 661.5,519.5C 651.161,519.666 640.828,519.5 630.5,519C 625.411,508.233 621.411,497.066 618.5,485.5 Z"/></g><g><path style="opacity:1" fill="#000000" d="M -0.5,524.5 C 18.1667,524.5 36.8333,524.5 55.5,524.5C 53.3568,539.095 48.5235,552.762 41,565.5C 31.5993,575.136 21.4326,575.97 10.5,568C 6.70213,564.188 3.03546,560.355 -0.5,556.5C -0.5,545.833 -0.5,535.167 -0.5,524.5 Z"/></g></svg>