<svg xmlns="http://www.w3.org/2000/svg" version="1.1" width="760px" height="737px" style="shape-rendering:geometricPrecision; text-rendering:geometricPrecision; image-rendering:optimizeQuality; fill-rule:evenodd; clip-rule:evenodd" xmlns:xlink="http://www.w3.org/1999/xlink"><g><path style="opacity:1" fill="#000000" d="M 546.5,-0.5 C 557.833,-0.5 569.167,-0.5 580.5,-0.5C 630.759,17.689 647.593,52.3557 631,103.5C 614,134.254 587.833,148.088 552.5,145C 587.124,164.815 599.624,194.315 590,233.5C 575.999,271.067 549.165,288.234 509.5,285C 479.557,280.055 459.723,263.222 450,234.5C 442.344,206.099 448.177,180.933 467.5,159C 479.467,148.353 493.467,142.02 509.5,140C 517.167,139.667 524.833,139.333 532.5,139C 502.066,123.103 488.566,97.9359 492,63.5C 496.929,30.5121 515.095,9.17881 546.5,-0.5 Z M 558.5,13.5 C 603.955,14.7885 625.121,38.1218 622,83.5C 616.456,106.711 602.289,121.878 579.5,129C 546.725,135.363 523.225,123.529 509,93.5C 499.274,62.6671 507.774,38.5005 534.5,21C 542.15,16.9475 550.15,14.4475 558.5,13.5 Z M 512.5,153.5 C 537.503,152.206 557.336,161.54 572,181.5C 584.378,206.095 582.378,229.428 566,251.5C 542.635,272.361 516.802,275.861 488.5,262C 464.302,245.082 456.135,222.249 464,193.5C 472.883,171.099 489.05,157.766 512.5,153.5 Z"/></g><g><path style="opacity:1" fill="#000000" d="M 759.5,234.5 C 759.5,246.167 759.5,257.833 759.5,269.5C 750.971,283.466 738.638,292.632 722.5,297C 679.212,308.858 635.546,319.191 591.5,328C 574.779,331.805 558.279,336.305 542,341.5C 532.793,329.293 521.96,318.793 509.5,310C 480.681,294.6 452.014,294.933 423.5,311C 409.887,320.05 399.387,331.883 392,346.5C 382.464,380.31 372.464,413.977 362,447.5C 356.722,471.554 350.056,495.221 342,518.5C 329.736,547.383 308.236,558.383 277.5,551.5C 289.724,502.371 302.558,453.371 316,404.5C 319.218,391.147 319.218,377.814 316,364.5C 307.407,343.981 297.74,323.981 287,304.5C 281.366,289.061 273.533,274.895 263.5,262C 259.993,259.746 256.327,257.746 252.5,256C 248.833,255.333 245.167,255.333 241.5,256C 228.646,259.97 215.646,263.303 202.5,266C 134.916,280.95 67.249,295.45 -0.5,309.5C -0.5,308.167 -0.5,306.833 -0.5,305.5C 5.13197,290.439 10.2986,275.105 15,259.5C 23.6079,231.178 32.1079,202.845 40.5,174.5C 111.056,159.622 181.389,143.789 251.5,127C 272.643,121.944 291.976,125.611 309.5,138C 352.884,171.052 396.551,203.718 440.5,236C 449.954,261.787 467.287,280.12 492.5,291C 518.118,298.589 542.452,295.589 565.5,282C 630.165,266.167 694.832,250.334 759.5,234.5 Z"/></g><g><path style="opacity:1" fill="#000000" d="M 491.5,238.5 C 493.017,238.511 494.184,239.177 495,240.5C 496.886,244.44 499.386,247.94 502.5,251C 496.984,253.063 491.317,254.063 485.5,254C 487.7,251.954 490.367,250.954 493.5,251C 480.897,242.9 473.897,231.4 472.5,216.5C 473.014,211.708 474.014,207.041 475.5,202.5C 476.335,207.022 476.002,211.522 474.5,216C 475.724,230.311 482.557,240.811 495,247.5C 493.882,244.578 492.715,241.578 491.5,238.5 Z"/></g><g><path style="opacity:1" fill="#000000" d="M 390.5,736.5 C 383.5,736.5 376.5,736.5 369.5,736.5C 315.077,720.492 296.243,685.158 313,630.5C 322.804,611.038 338.304,598.538 359.5,593C 370.427,591.217 381.427,590.051 392.5,589.5C 354.455,567.55 342.288,535.55 356,493.5C 372.793,460.847 399.627,446.014 436.5,449C 401.86,430.214 388.36,401.381 396,362.5C 407.442,327.427 431.775,309.427 469,308.5C 497.244,309.619 518.578,322.286 533,346.5C 546.199,375.218 543.866,402.552 526,428.5C 506.512,449.383 482.679,458.049 454.5,454.5C 488.071,472.645 501.571,500.645 495,538.5C 482.854,580.331 455.02,599.498 411.5,596C 448.196,616.894 461.03,647.727 450,688.5C 441.437,709.396 426.604,723.896 405.5,732C 400.336,733.369 395.336,734.869 390.5,736.5 Z M 458.5,322.5 C 493.931,322.123 515.764,339.123 524,373.5C 525.867,399.602 515.7,419.435 493.5,433C 464.129,445.393 438.629,439.893 417,416.5C 405.45,397.231 403.45,376.898 411,355.5C 421.666,336.928 437.5,325.928 458.5,322.5 Z M 420.5,463.5 C 458.815,464.981 479.815,484.815 483.5,523C 481.654,555.038 464.987,574.038 433.5,580C 407.438,582.216 386.938,572.716 372,551.5C 358.153,521.728 363.653,496.228 388.5,475C 398.476,468.845 409.142,465.011 420.5,463.5 Z M 373.5,604.5 C 399.995,602.659 419.828,612.993 433,635.5C 442.702,657.776 441.035,679.109 428,699.5C 407.132,720.41 382.632,725.91 354.5,716C 326.561,701.284 316.061,678.451 323,647.5C 331.231,622.98 348.065,608.647 373.5,604.5 Z"/></g><g><path style="opacity:1" fill="#000000" d="M 462.5,328.5 C 463.601,327.402 464.934,327.235 466.5,328C 469.527,331.027 472.527,334.027 475.5,337C 470.396,340.811 464.729,342.811 458.5,343C 461.06,340.444 464.06,338.61 467.5,337.5C 457.378,335.114 448.378,337.281 440.5,344C 435.622,349.209 431.122,354.709 427,360.5C 429.781,349.37 436.614,341.537 447.5,337C 454.142,335.694 460.809,334.527 467.5,333.5C 465.994,331.599 464.327,329.932 462.5,328.5 Z"/></g><g><path style="opacity:1" fill="#000000" d="M 759.5,431.5 C 759.5,432.5 759.5,433.5 759.5,434.5C 750.708,443.23 740.375,449.397 728.5,453C 721.776,453.774 715.11,453.441 708.5,452C 693.818,444.993 680.485,435.993 668.5,425C 650.302,407.134 631.802,389.634 613,372.5C 611.561,370.725 610.561,368.725 610,366.5C 608.565,357.068 606.731,347.734 604.5,338.5C 604.709,337.914 605.043,337.414 605.5,337C 614.451,335.126 623.118,332.46 631.5,329C 636.111,327.993 640.445,328.66 644.5,331C 675.833,359 707.167,387 738.5,415C 745.375,420.714 752.375,426.214 759.5,431.5 Z"/></g><g><path style="opacity:1" fill="#000000" d="M 586.5,340.5 C 587.978,340.238 589.311,340.571 590.5,341.5C 591.897,346.192 593.397,350.859 595,355.5C 602.628,389.006 609.461,422.339 615.5,455.5C 586.688,463.008 567.188,452.675 557,424.5C 554.169,413.846 552.336,403.179 551.5,392.5C 549.214,379.331 546.88,366.164 544.5,353C 545.682,351.265 547.349,350.265 549.5,350C 562.11,347.385 574.444,344.218 586.5,340.5 Z"/></g></svg>