<svg xmlns="http://www.w3.org/2000/svg" version="1.1" width="526px" height="470px" style="shape-rendering:geometricPrecision; text-rendering:geometricPrecision; image-rendering:optimizeQuality; fill-rule:evenodd; clip-rule:evenodd" xmlns:xlink="http://www.w3.org/1999/xlink"><g><path style="opacity:1" fill="#000000" d="M 239.5,-0.5 C 241.167,-0.5 242.833,-0.5 244.5,-0.5C 245.167,0.833333 245.833,0.833333 246.5,-0.5C 253.5,-0.5 260.5,-0.5 267.5,-0.5C 272.316,0.326144 277.316,0.826144 282.5,1C 284.532,2.80352 286.699,3.30352 289,2.5C 292.669,3.50093 296.336,4.50093 300,5.5C 301.107,5.41476 302.107,5.08142 303,4.5C 306.82,7.81057 311.32,9.6439 316.5,10C 317.551,11.3848 318.884,12.3848 320.5,13C 324.685,13.758 328.685,15.0913 332.5,17C 336.167,17.3333 339.833,17.6667 343.5,18C 349.654,24.2383 356.654,29.2383 364.5,33C 369.474,38.8143 375.474,43.1477 382.5,46C 390.927,53.3571 398.594,61.3571 405.5,70C 413.779,76.6275 420.279,84.7942 425,94.5C 432.388,103.942 437.721,114.608 441,126.5C 448.08,134.584 455.58,142.417 463.5,150C 475.827,155.505 488.827,157.838 502.5,157C 505.699,158.679 506.033,160.679 503.5,163C 498.114,163.088 492.781,163.255 487.5,163.5C 485.792,163.297 484.459,162.464 483.5,161C 477.397,161.248 472.397,159.081 468.5,154.5C 464.415,155.711 460.415,155.378 456.5,153.5C 449.443,146.612 442.943,139.279 437,131.5C 433.499,127.52 431.499,122.854 431,117.5C 425.731,110.659 421.398,103.326 418,95.5C 413.279,89.7794 408.946,83.7794 405,77.5C 402.749,75.6227 400.249,74.1227 397.5,73C 390.316,60.8132 380.316,51.8132 367.5,46C 362.875,39.7006 356.875,35.3672 349.5,33C 340.533,24.8611 329.866,20.5278 317.5,20C 314.083,16.8668 310.25,15.7002 306,16.5C 304.229,15.6959 302.729,14.5292 301.5,13C 299.231,12.2419 297.064,12.4086 295,13.5C 287.92,10.1225 280.42,8.28916 272.5,8C 260.341,7.99343 248.341,7.82677 236.5,7.5C 229.496,10.5843 222.163,12.4177 214.5,13C 205.119,17.0776 195.453,20.0776 185.5,22C 173.074,28.1008 162.074,36.1008 152.5,46C 148.702,46.9603 145.035,48.2936 141.5,50C 133.938,56.5633 127.438,64.0633 122,72.5C 117.174,74.3167 113.174,77.3167 110,81.5C 107.651,86.1978 105.318,90.8644 103,95.5C 94.3309,103.827 88.6642,113.827 86,125.5C 80.7206,131.066 76.7206,137.4 74,144.5C 71.5,147.667 69,150.833 66.5,154C 58.8353,154.884 52.1686,157.884 46.5,163C 37.6895,166.583 28.5229,168.749 19,169.5C 13.8104,169.23 12.3104,166.73 14.5,162C 20.8141,161.153 27.1475,160.487 33.5,160C 35.3325,159.252 36.9991,158.252 38.5,157C 55.2842,156.163 66.4509,147.663 72,131.5C 73.6667,129.833 75.3333,128.167 77,126.5C 77.9405,121.952 79.9405,117.952 83,114.5C 83.8576,109.144 85.5243,104.144 88,99.5C 90.6855,98.3241 93.0188,96.6575 95,94.5C 99,87.8333 103,81.1667 107,74.5C 117.263,65.8491 126.763,56.3491 135.5,46C 143.23,42.9502 149.897,38.2835 155.5,32C 162.319,26.5127 169.652,21.846 177.5,18C 182.666,17.7307 187.666,16.7307 192.5,15C 195.503,13.8338 198.17,12.1672 200.5,10C 210.243,7.14931 219.909,4.14931 229.5,1C 231.899,0.289001 234.232,0.455667 236.5,1.5C 237.739,1.05758 238.739,0.390917 239.5,-0.5 Z"/></g><g><path style="opacity:1" fill="#000000" d="M 266.5,469.5 C 265.167,469.5 263.833,469.5 262.5,469.5C 255.669,468.509 248.669,467.675 241.5,467C 239.884,466.385 238.551,465.385 237.5,464C 235.888,463.28 234.388,463.446 233,464.5C 224.399,460.19 215.232,458.023 205.5,458C 200.385,451.938 194.052,447.605 186.5,445C 181.081,439.65 175.748,434.316 170.5,429C 162.06,425.894 156.227,420.06 153,411.5C 143.455,401.745 136.455,390.412 132,377.5C 130.287,376.122 128.953,374.455 128,372.5C 126.021,364.885 124.355,357.218 123,349.5C 121.647,348.315 120.48,346.981 119.5,345.5C 120.624,344.086 121.624,342.586 122.5,341C 119.148,336.048 117.648,330.548 118,324.5C 117.333,323.167 116.667,321.833 116,320.5C 115.268,313.904 114.102,307.404 112.5,301C 114.232,297.432 113.399,294.599 110,292.5C 109.667,289.833 109.333,287.167 109,284.5C 108.5,284 108,283.5 107.5,283C 108.573,281.687 109.24,280.187 109.5,278.5C 105.338,268.334 103.172,257.668 103,246.5C 101.728,242.185 100.561,237.852 99.5,233.5C 100.022,232.393 100.355,231.226 100.5,230C 98.2972,220.878 96.2972,211.711 94.5,202.5C 96.0999,199.295 95.7666,196.295 93.5,193.5C 95.5438,190.838 95.8771,188.005 94.5,185C 96.1459,176.606 96.9793,168.106 97,159.5C 99.6885,152.63 102.022,145.963 104,139.5C 103.59,134.043 105.256,129.376 109,125.5C 109.163,117.514 111.829,110.514 117,104.5C 117.286,100.198 119.286,96.8648 123,94.5C 126.835,87.4923 131.169,80.8256 136,74.5C 147.475,65.0298 158.975,55.5298 170.5,46C 176.678,45.364 182.345,43.364 187.5,40C 192.865,39.5478 197.531,37.5478 201.5,34C 212.009,31.9425 222.175,28.7759 232,24.5C 233.301,24.9602 234.634,25.2935 236,25.5C 238.306,24.5512 240.639,23.5512 243,22.5C 247.266,23.7635 251.433,23.4301 255.5,21.5C 279.464,22.4829 302.797,27.6496 325.5,37C 328.524,38.5134 331.191,40.5134 333.5,43C 337.795,43.9119 342.128,44.5785 346.5,45C 352.306,50.1447 358.639,54.4781 365.5,58C 370.175,61.3763 374.175,65.3763 377.5,70C 379.087,70.8624 380.754,71.5291 382.5,72C 393.697,84.9041 403.53,98.7374 412,113.5C 412.358,120.593 415.025,126.593 420,131.5C 423.737,142.316 427.07,153.316 430,164.5C 430.221,171.37 430.721,178.203 431.5,185C 429.688,202.29 427.855,219.79 426,237.5C 423.287,244.992 422.121,252.659 422.5,260.5C 418.963,270.786 417.13,281.453 417,292.5C 415.725,294.717 414.725,297.051 414,299.5C 413.554,306.189 412.887,312.856 412,319.5C 411.581,320.672 410.915,321.672 410,322.5C 408.839,329.476 407.839,336.476 407,343.5C 402.035,351.782 399.035,360.782 398,370.5C 395.425,373.319 393.092,376.319 391,379.5C 390.261,383.385 388.927,387.052 387,390.5C 379.245,401.677 371.245,412.677 363,423.5C 360.658,426.754 357.491,428.588 353.5,429C 350.833,432.333 348.167,435.667 345.5,439C 337.469,445.355 329.136,451.355 320.5,457C 316.865,459.33 313.031,459.83 309,458.5C 295.116,463.901 280.95,467.568 266.5,469.5 Z M 243.5,30.5 C 245.936,30.317 248.103,30.9837 250,32.5C 251.438,31.2815 253.105,30.6148 255,30.5C 262.023,30.7298 269.023,30.7298 276,30.5C 278.071,31.5248 280.238,32.3581 282.5,33C 289.86,33.499 296.86,35.1656 303.5,38C 308.612,37.7254 312.945,39.3921 316.5,43C 318.5,43.3333 320.5,43.6667 322.5,44C 323.551,45.3848 324.884,46.3848 326.5,47C 334.643,46.1551 341.31,48.8217 346.5,55C 349.167,56 351.833,57 354.5,58C 360.306,62.8946 365.64,68.228 370.5,74C 374.98,74.4604 378.48,76.6271 381,80.5C 383.941,85.772 387.274,90.772 391,95.5C 391.333,96.8333 391.667,98.1667 392,99.5C 394.292,100.79 396.292,102.457 398,104.5C 401,110.167 404,115.833 407,121.5C 407.917,126.001 409.917,130.001 413,133.5C 416.629,143.677 418.962,154.011 420,164.5C 420.384,171.224 421.217,177.89 422.5,184.5C 422.459,190.663 422.459,196.83 422.5,203C 422.186,208.999 421.186,214.833 419.5,220.5C 421.968,223.794 421.968,227.127 419.5,230.5C 419.68,231.554 420.013,232.554 420.5,233.5C 419.208,235.667 418.375,238 418,240.5C 417.752,250.338 415.918,259.838 412.5,269C 412.706,270.366 413.04,271.699 413.5,273C 411.124,277.858 409.624,283.024 409,288.5C 405.636,290.424 404.802,293.09 406.5,296.5C 405.541,304.514 403.374,312.181 400,319.5C 399.667,323.833 399.333,328.167 399,332.5C 398.333,333.167 397.667,333.833 397,334.5C 397.487,339.242 395.82,342.908 392,345.5C 392.609,351.504 391.275,357.171 388,362.5C 388.489,367.786 386.823,372.119 383,375.5C 380.573,379.54 378.906,383.874 378,388.5C 369.037,402.479 358.871,415.646 347.5,428C 345.5,428.667 343.5,429.333 341.5,430C 334.68,435.576 327.68,440.909 320.5,446C 313.999,447.917 307.999,450.917 302.5,455C 289.412,455.603 276.412,456.77 263.5,458.5C 250.821,456.666 238.154,455.5 225.5,455C 218.606,451.719 211.606,448.719 204.5,446C 199.239,440.047 193.239,435.047 186.5,431C 183.754,429.25 180.754,428.25 177.5,428C 170.242,421.316 164.575,413.483 160.5,404.5C 151.96,397.431 146.46,388.431 144,377.5C 141.597,376.219 139.763,374.386 138.5,372C 140.254,367.615 139.421,363.782 136,360.5C 136.11,353.046 134.444,346.046 131,339.5C 130.719,333.278 129.219,327.445 126.5,322C 126.735,321.127 127.069,320.293 127.5,319.5C 123.142,310.738 120.642,301.404 120,291.5C 119.028,289.695 117.861,288.028 116.5,286.5C 116.931,285.707 117.265,284.873 117.5,284C 114.072,280.96 113.738,277.626 116.5,274C 114.502,269.314 112.502,264.648 110.5,260C 110.911,258.856 111.244,257.689 111.5,256.5C 109.763,249.609 108.596,242.609 108,235.5C 105.775,232.187 105.275,228.687 106.5,225C 106.385,223.105 105.718,221.438 104.5,220C 105.167,218.667 105.833,217.333 106.5,216C 104.974,211.657 103.974,207.157 103.5,202.5C 103.738,196.023 103.738,189.523 103.5,183C 104.677,169.995 106.511,157.162 109,144.5C 111.071,140.461 112.404,136.128 113,131.5C 113.615,129.884 114.615,128.551 116,127.5C 117.333,114.798 122.333,103.798 131,94.5C 134.099,87.8582 137.932,81.6915 142.5,76C 144.087,75.1376 145.754,74.4709 147.5,74C 149.598,71.146 151.931,68.4794 154.5,66C 161.833,60.3333 169.167,54.6667 176.5,49C 180.416,47.8976 184.416,47.231 188.5,47C 203.868,39.9331 219.868,34.7664 236.5,31.5C 239.286,33.1612 241.619,32.8279 243.5,30.5 Z"/></g><g><path style="opacity:1" fill="#000000" d="M 472.5,177.5 C 475.85,177.335 479.183,177.502 482.5,178C 483.097,179.062 483.43,180.228 483.5,181.5C 480.599,189.307 479.432,197.307 480,205.5C 479.152,209.354 477.652,212.854 475.5,216C 475.77,217.514 476.103,219.014 476.5,220.5C 474.693,231.14 472.36,241.64 469.5,252C 470.676,255.344 470.01,258.344 467.5,261C 467.903,262.473 468.57,263.806 469.5,265C 465.805,266.968 464.805,269.802 466.5,273.5C 464.462,276.344 464.129,279.344 465.5,282.5C 464.62,284.429 463.62,286.263 462.5,288C 463.33,289.465 463.496,290.965 463,292.5C 458.949,294.752 458.449,297.586 461.5,301C 458.359,307.097 456.859,313.597 457,320.5C 456.626,324.679 454.626,327.679 451,329.5C 436.31,322.894 431.81,311.894 437.5,296.5C 436.937,295.061 436.603,293.561 436.5,292C 438.365,284.667 440.031,277.333 441.5,270C 441.167,268.333 440.833,266.667 440.5,265C 442.446,257.61 444.112,250.277 445.5,243C 445.355,241.774 445.022,240.607 444.5,239.5C 448.514,230.616 450.347,221.283 450,211.5C 453.246,207.78 454.413,203.614 453.5,199C 456.492,194.703 458.325,189.87 459,184.5C 463.755,182.54 468.255,180.207 472.5,177.5 Z"/></g><g><path style="opacity:1" fill="#000000" d="M 525.5,202.5 C 525.5,207.167 525.5,211.833 525.5,216.5C 524.751,217.531 524.085,218.698 523.5,220C 524.085,221.302 524.751,222.469 525.5,223.5C 525.5,224.167 525.5,224.833 525.5,225.5C 520.996,227.847 520.33,231.014 523.5,235C 519.94,242.861 517.94,251.194 517.5,260C 517.615,261.895 518.282,263.562 519.5,265C 518.333,266.167 517.167,267.333 516,268.5C 514.769,273.383 514.603,278.216 515.5,283C 511.681,294.4 509.515,306.233 509,318.5C 504.891,323.65 499.724,327.483 493.5,330C 488.236,333.59 483.236,337.59 478.5,342C 474.956,344.43 472.622,343.597 471.5,339.5C 473.909,324.694 476.909,310.027 480.5,295.5C 480.32,294.446 479.987,293.446 479.5,292.5C 480.887,287.674 482.22,282.841 483.5,278C 482.301,274.685 482.968,271.685 485.5,269C 484.416,265.6 485.083,262.434 487.5,259.5C 487.167,258.833 486.833,258.167 486.5,257.5C 488.569,249.294 490.069,240.961 491,232.5C 493.949,225.726 495.116,218.726 494.5,211.5C 496.245,208.262 497.745,204.928 499,201.5C 498.631,195.541 498.964,189.541 500,183.5C 501.172,180.297 503.339,178.797 506.5,179C 512.493,187.178 518.826,195.011 525.5,202.5 Z"/></g><g><path style="opacity:1" fill="#000000" d="M 43.5,182.5 C 48.7747,182.322 54.108,182.822 59.5,184C 66.5511,188.94 69.7178,195.774 69,204.5C 70.3848,205.551 71.3848,206.884 72,208.5C 73.4543,214.559 75.121,220.559 77,226.5C 75.783,230.911 76.783,234.578 80,237.5C 80.887,244.144 81.5537,250.811 82,257.5C 85.7018,262.305 86.8685,267.638 85.5,273.5C 86.1317,277.817 86.6317,282.15 87,286.5C 88,288.167 89,289.833 90,291.5C 89.9885,299.68 91.1551,307.68 93.5,315.5C 90.348,320.462 87.1814,325.462 84,330.5C 77.6027,337.926 73.436,336.76 71.5,327C 72.9825,324.427 72.4825,322.26 70,320.5C 69.6296,313.728 68.6296,307.061 67,300.5C 65.8605,296.888 64.1939,293.554 62,290.5C 61.5014,287.978 61.6681,285.478 62.5,283C 61.7032,279.609 60.7032,276.276 59.5,273C 60.7613,270.197 59.928,268.03 57,266.5C 56.6638,255.117 54.4971,244.117 50.5,233.5C 51.5363,229.52 50.7029,225.854 48,222.5C 47.5562,215.837 45.8896,209.504 43,203.5C 42.7207,197.643 42.2207,191.809 41.5,186C 41.8618,184.566 42.5285,183.399 43.5,182.5 Z"/></g><g><path style="opacity:1" fill="#000000" d="M -0.5,216.5 C -0.5,214.833 -0.5,213.167 -0.5,211.5C 3.7519,205.401 8.2519,199.401 13,193.5C 13.7138,190.405 14.7138,187.405 16,184.5C 18.33,182.968 20.33,183.302 22,185.5C 25.2101,196.548 27.5435,207.881 29,219.5C 29.9147,220.328 30.5814,221.328 31,222.5C 30.7065,228.007 32.0398,233.007 35,237.5C 34.6798,247.544 36.8465,256.878 41.5,265.5C 40.696,266.941 40.0294,268.441 39.5,270C 41.355,279.378 44.355,288.378 48.5,297C 47.9186,297.893 47.5852,298.893 47.5,300C 48.8623,304.395 49.6956,308.895 50,313.5C 51.4038,315.394 52.5705,317.394 53.5,319.5C 52.5826,327.978 53.9159,336.144 57.5,344C 56.2464,347.203 53.9131,348.203 50.5,347C 45.6156,344.78 41.2822,341.78 37.5,338C 33.2969,336.791 29.2969,335.124 25.5,333C 23.6217,331.457 22.1217,329.624 21,327.5C 18.6898,316.919 16.6898,306.253 15,295.5C 11.4328,291.94 10.5994,287.773 12.5,283C 11.9637,279.52 10.9637,276.187 9.5,273C 9.73546,272.127 10.0688,271.293 10.5,270.5C 7.94531,267.789 6.94531,264.789 7.5,261.5C 7.26252,253.118 5.59586,245.118 2.5,237.5C 2.40214,231.971 2.40214,226.471 2.5,221C 1.60064,219.348 0.60064,217.848 -0.5,216.5 Z"/></g></svg>