<svg xmlns="http://www.w3.org/2000/svg" version="1.1" width="410px" height="566px" style="shape-rendering:geometricPrecision; text-rendering:geometricPrecision; image-rendering:optimizeQuality; fill-rule:evenodd; clip-rule:evenodd" xmlns:xlink="http://www.w3.org/1999/xlink"><g><path style="opacity:1" fill="#000000" d="M 164.5,-0.5 C 165.5,-0.5 166.5,-0.5 167.5,-0.5C 172.768,3.47607 178.434,6.97607 184.5,10C 195.5,10.6667 206.5,10.6667 217.5,10C 227.439,8.28788 237.439,7.12121 247.5,6.5C 253.139,6.75166 258.472,8.085 263.5,10.5C 309.905,10.7689 356.072,10.7689 402,10.5C 405.48,10.8311 407.98,12.4978 409.5,15.5C 409.5,17.1667 409.5,18.8333 409.5,20.5C 407.977,22.9413 405.977,23.6079 403.5,22.5C 401.726,22.8868 400.059,23.5535 398.5,24.5C 393.635,23.8582 388.801,23.1916 384,22.5C 381.418,24.9064 378.752,24.9064 376,22.5C 374.715,22.9504 373.548,23.6171 372.5,24.5C 371.167,23.8333 369.833,23.1667 368.5,22.5C 353.213,23.6814 338.046,23.6814 323,22.5C 321.527,22.9031 320.194,23.5697 319,24.5C 317.806,23.5697 316.473,22.9031 315,22.5C 303.063,22.698 291.229,22.698 279.5,22.5C 273.899,21.7131 269.899,23.7131 267.5,28.5C 267.487,32.54 267.487,36.54 267.5,40.5C 266.897,42.8721 265.897,45.0387 264.5,47C 264.385,64.7292 264.552,82.5625 265,100.5C 266.564,102.37 266.564,104.37 265,106.5C 263.516,114.202 265.516,120.869 271,126.5C 271.601,129.637 272.601,132.637 274,135.5C 281.374,141.206 287.707,147.873 293,155.5C 294.124,158.442 294.458,161.442 294,164.5C 291.463,167.372 288.63,169.872 285.5,172C 280.232,175.066 274.732,177.566 269,179.5C 268.093,185.473 267.427,191.473 267,197.5C 266.333,198.833 265.667,200.167 265,201.5C 264.794,207.884 264.294,214.217 263.5,220.5C 265.057,224.155 264.557,227.488 262,230.5C 261.697,234.529 261.197,238.529 260.5,242.5C 260.833,243.833 261.167,245.167 261.5,246.5C 259.845,251.275 259.012,256.275 259,261.5C 258.365,262.966 257.531,264.3 256.5,265.5C 258.823,271.018 257.156,274.851 251.5,277C 248.833,277.667 246.167,277.667 243.5,277C 237.691,273.188 232.524,268.688 228,263.5C 223.793,254.792 217.626,247.792 209.5,242.5C 208.914,242.709 208.414,243.043 208,243.5C 207.112,247.027 206.278,250.527 205.5,254C 206.683,264.362 208.683,274.529 211.5,284.5C 211.013,285.446 210.68,286.446 210.5,287.5C 211.258,294.138 211.758,300.804 212,307.5C 212.707,309.081 213.54,310.581 214.5,312C 214.061,316.634 213.728,321.301 213.5,326C 215.953,329.652 215.953,333.319 213.5,337C 215.075,342.004 216.075,347.17 216.5,352.5C 215.2,355.321 215.533,357.988 217.5,360.5C 214.908,362.855 215.075,364.855 218,366.5C 218.13,383.388 218.963,400.221 220.5,417C 220.04,418.301 219.706,419.634 219.5,421C 221.611,427.052 222.278,433.219 221.5,439.5C 222.236,444.803 222.736,450.137 223,455.5C 225.589,466.301 226.923,477.301 227,488.5C 228.701,493.95 230.201,499.45 231.5,505C 230.239,507.803 231.072,509.97 234,511.5C 233.723,517.571 234.89,523.237 237.5,528.5C 236.177,534.014 238.177,537.847 243.5,540C 246.833,540.333 250.167,540.667 253.5,541C 257.436,544.542 261.602,547.709 266,550.5C 266.667,552.833 266.667,555.167 266,557.5C 262.188,560.312 258.354,562.979 254.5,565.5C 250.833,565.5 247.167,565.5 243.5,565.5C 241.339,563.343 238.839,563.01 236,564.5C 231.028,562.317 225.862,560.817 220.5,560C 218.231,559.242 216.064,559.409 214,560.5C 208.469,555.312 204.135,549.312 201,542.5C 199.564,534.996 197.731,527.663 195.5,520.5C 195.756,519.311 196.089,518.144 196.5,517C 195.277,515.28 194.277,513.447 193.5,511.5C 192.497,504.005 192.497,496.505 193.5,489C 191.463,481.002 189.963,472.836 189,464.5C 187.833,462.167 186.667,459.833 185.5,457.5C 185.709,456.914 186.043,456.414 186.5,456C 184.902,448.211 183.402,440.377 182,432.5C 181.191,428.604 179.857,424.937 178,421.5C 177.667,417.167 177.333,412.833 177,408.5C 175.22,406.617 175.053,404.617 176.5,402.5C 175.863,399.893 174.696,397.56 173,395.5C 173.765,389.919 171.932,385.585 167.5,382.5C 164.228,387.996 162.395,393.996 162,400.5C 161.167,402.167 160.333,403.833 159.5,405.5C 162.286,408.356 162.119,411.022 159,413.5C 158.667,417.167 158.333,420.833 158,424.5C 157.385,426.116 156.385,427.449 155,428.5C 154.667,433.833 154.333,439.167 154,444.5C 152.305,450.054 150.472,455.554 148.5,461C 149.822,463.69 149.655,466.19 148,468.5C 147.667,472.833 147.333,477.167 147,481.5C 145.05,484.948 143.55,488.615 142.5,492.5C 144.246,498.205 145.58,504.038 146.5,510C 141.625,517.298 139.125,525.465 139,534.5C 138.275,536.949 137.275,539.283 136,541.5C 136.088,545.89 135.921,550.223 135.5,554.5C 129.197,555.159 123.197,556.826 117.5,559.5C 109.937,558.955 102.77,560.621 96,564.5C 94.8061,563.57 93.4728,562.903 92,562.5C 89.5472,563.493 87.0472,563.66 84.5,563C 81.5833,561.472 78.5833,560.139 75.5,559C 73.4001,555.696 73.0668,552.196 74.5,548.5C 78.9117,545.52 83.745,543.52 89,542.5C 90.1074,542.585 91.1074,542.919 92,543.5C 95.5831,541.382 99.4165,539.882 103.5,539C 105.736,535.855 107.236,532.355 108,528.5C 108.434,517.486 109.101,506.486 110,495.5C 112.649,493.213 113.149,490.547 111.5,487.5C 111.732,485.202 112.399,483.035 113.5,481C 112.094,469.448 112.927,457.948 116,446.5C 116.333,438.5 116.667,430.5 117,422.5C 117.197,419.308 118.03,416.308 119.5,413.5C 117.183,411.263 117.017,408.93 119,406.5C 119.005,398.881 119.838,391.548 121.5,384.5C 121.333,383.5 121.167,382.5 121,381.5C 115.673,377.172 110.673,372.506 106,367.5C 105.556,364.389 104.223,361.723 102,359.5C 100.694,353.165 100.528,346.832 101.5,340.5C 101.519,337.158 100.852,333.991 99.5,331C 100.573,329.687 101.24,328.187 101.5,326.5C 100.167,322.833 100.167,319.167 101.5,315.5C 97.2988,303.827 98.4655,292.827 105,282.5C 104.753,275.801 105.92,269.468 108.5,263.5C 106.62,260.825 106.453,258.158 108,255.5C 108.206,246.299 108.706,237.132 109.5,228C 109.04,226.699 108.706,225.366 108.5,224C 110.86,216.84 112.693,209.673 114,202.5C 115.502,199.982 117.002,197.482 118.5,195C 122.641,193.428 126.308,191.095 129.5,188C 137.136,185.347 144.802,183.014 152.5,181C 160.521,172.393 158.854,167.06 147.5,165C 142.7,159.534 138.7,153.534 135.5,147C 136.138,143.598 137.305,140.431 139,137.5C 142.727,134.276 145.894,130.609 148.5,126.5C 153.992,124.584 158.659,121.418 162.5,117C 166.711,115.466 171.044,115.133 175.5,116C 178.685,118.884 181.518,122.051 184,125.5C 185.827,133.533 187.993,141.533 190.5,149.5C 190.308,151.577 189.808,153.577 189,155.5C 186.938,157.901 185.271,160.567 184,163.5C 182.237,164.944 180.237,165.944 178,166.5C 178.258,170.112 178.258,173.779 178,177.5C 178.414,177.957 178.914,178.291 179.5,178.5C 180.611,177.389 181.945,176.722 183.5,176.5C 185.833,177.833 188.167,177.833 190.5,176.5C 196.162,178.997 201.828,181.497 207.5,184C 211.378,189.545 216.211,194.045 222,197.5C 223.819,206.468 227.985,214.134 234.5,220.5C 236.402,222.151 238.402,222.484 240.5,221.5C 241.632,219.402 242.632,217.235 243.5,215C 243.5,212 243.5,209 243.5,206C 246.736,194.858 249.07,183.524 250.5,172C 250.066,169.684 249.066,167.684 247.5,166C 241.351,165.859 235.017,165.526 228.5,165C 226.604,163.192 226.104,161.025 227,158.5C 232.744,153.427 237.744,147.76 242,141.5C 243.925,139.787 246.092,138.453 248.5,137.5C 249.42,133.829 250.753,130.329 252.5,127C 251.167,124.333 251.167,121.667 252.5,119C 249.535,114.371 246.202,110.037 242.5,106C 244.374,102.932 245.04,99.7655 244.5,96.5C 242.666,90.4961 239.999,84.8295 236.5,79.5C 238.476,71.0824 235.976,64.4157 229,59.5C 228.228,59.6448 227.561,59.9781 227,60.5C 226.833,62 226.667,63.5 226.5,65C 228.285,71.2622 229.952,77.5956 231.5,84C 231.355,85.2259 231.022,86.3926 230.5,87.5C 233.758,92.9945 235.258,98.9945 235,105.5C 238.044,110.776 239.711,116.442 240,122.5C 238.185,120.595 236.185,118.928 234,117.5C 231.26,111.933 228.927,106.267 227,100.5C 226.079,89.9745 224.412,79.6411 222,69.5C 220.204,66.073 218.037,62.9063 215.5,60C 213.888,59.2797 212.388,59.4464 211,60.5C 210.166,68.8362 211.332,76.8362 214.5,84.5C 214.069,85.2935 213.735,86.1268 213.5,87C 215.176,92.0468 216.343,97.2135 217,102.5C 220.731,112.564 223.731,122.897 226,133.5C 227.547,138.624 226.047,140.124 221.5,138C 220.107,136.829 219.273,135.329 219,133.5C 217.056,121.335 213.89,109.502 209.5,98C 210.459,95.8801 210.626,93.7135 210,91.5C 208.407,87.3335 206.407,83.3335 204,79.5C 203.667,75.5 203.333,71.5 203,67.5C 201.105,65.2231 199.938,62.5565 199.5,59.5C 194.208,57.7822 191.875,59.7822 192.5,65.5C 193.474,69.532 193.641,73.532 193,77.5C 196.776,80.8276 198.11,84.8276 197,89.5C 198.74,90.7158 199.74,92.3825 200,94.5C 200.667,98.1667 200.667,101.833 200,105.5C 198.989,106.337 197.822,106.67 196.5,106.5C 195.293,98.7857 193.793,91.119 192,83.5C 189.866,81.1973 188.366,78.5307 187.5,75.5C 187.833,74.8333 188.167,74.1667 188.5,73.5C 186.812,67.7342 184.979,62.0675 183,56.5C 178.119,58.5689 176.286,62.2356 177.5,67.5C 177.667,69.8333 177.833,72.1667 178,74.5C 180,78.5 182,82.5 184,86.5C 184.261,90.706 184.761,94.8726 185.5,99C 184.848,103.192 182.681,104.359 179,102.5C 178.31,97.5122 177.144,92.6789 175.5,88C 176.576,86.2739 176.743,84.4406 176,82.5C 173.631,81.0726 173.131,79.2393 174.5,77C 172.676,71.5274 170.842,66.0274 169,60.5C 164.922,59.2497 160.922,57.9163 157,56.5C 154.828,57.5853 152.828,58.9186 151,60.5C 150.904,63.4512 150.071,66.1178 148.5,68.5C 151.167,71.1667 151.167,73.8333 148.5,76.5C 149.167,77.5 149.833,78.5 150.5,79.5C 147.374,82.1675 147.04,85.0009 149.5,88C 146.833,91.6667 146.833,95.3333 149.5,99C 149.167,99.5 148.833,100 148.5,100.5C 146.491,98.9895 144.658,97.3229 143,95.5C 143.822,90.5081 143.656,85.5081 142.5,80.5C 142.386,77.6225 143.052,74.9558 144.5,72.5C 142.631,69.0601 141.465,65.3934 141,61.5C 138.814,56.6531 136.148,56.3198 133,60.5C 131.716,64.5264 131.383,68.5264 132,72.5C 130.667,73.8333 129.333,73.8333 128,72.5C 127.598,71.1279 127.098,69.7946 126.5,68.5C 127.836,61.9959 126.003,60.9959 121,65.5C 120.374,67.7135 120.541,69.8801 121.5,72C 119.718,77.7979 117.385,77.9645 114.5,72.5C 117.574,68.296 116.908,64.796 112.5,62C 111.365,61.2506 110.365,61.4173 109.5,62.5C 108.026,67.1319 107.692,71.7986 108.5,76.5C 107.304,79.0584 105.97,81.5584 104.5,84C 105.217,88.8052 105.05,93.6385 104,98.5C 103.581,99.6721 102.915,100.672 102,101.5C 101.736,106.863 101.236,112.197 100.5,117.5C 102.01,120.811 101.343,123.644 98.5,126C 97.0563,126.781 95.723,126.614 94.5,125.5C 96.8816,122.273 96.8816,118.94 94.5,115.5C 98.0754,107.859 99.2421,99.8588 98,91.5C 96.6667,90.1667 95.3333,90.1667 94,91.5C 92.9625,94.4055 91.7958,97.2388 90.5,100C 91.6469,102.085 90.9803,103.585 88.5,104.5C 83.5174,100.456 82.8508,95.9565 86.5,91C 85.4238,89.2739 85.2571,87.4406 86,85.5C 86.7431,82.4888 88.0765,79.8221 90,77.5C 90.8472,73.018 92.0139,68.6847 93.5,64.5C 92.2704,60.8504 91.1037,57.1837 90,53.5C 87.5938,52.4353 85.4271,51.1019 83.5,49.5C 87.0138,44.8242 91.3471,40.9909 96.5,38C 102.44,37.4679 108.273,36.6346 114,35.5C 115.231,36.1078 116.564,36.4411 118,36.5C 123.817,35.8344 129.651,35.3344 135.5,35C 137.813,34.3591 139.48,33.0257 140.5,31C 134.904,25.3069 135.238,19.9736 141.5,15C 146.156,12.1731 151.156,10.1731 156.5,9C 160.224,6.71602 162.891,3.54935 164.5,-0.5 Z M 194.5,22.5 C 198.529,22.1486 202.362,22.8152 206,24.5C 218.627,24.7571 231.294,24.4237 244,23.5C 248.667,24.1667 252.667,26.1667 256,29.5C 256.798,32.7107 256.298,35.7107 254.5,38.5C 256.763,41.7636 256.93,45.097 255,48.5C 253.804,63.5311 252.971,78.3644 252.5,93C 252.167,93.1667 251.833,93.3333 251.5,93.5C 248.766,90.9038 248.1,87.9038 249.5,84.5C 248.994,81.329 247.328,78.9957 244.5,77.5C 240.64,67.1021 239.473,56.4354 241,45.5C 236.907,43.0812 233.073,40.2479 229.5,37C 225.627,36.7297 221.794,36.2297 218,35.5C 216.441,36.0294 214.941,36.696 213.5,37.5C 210.747,35.0063 208.08,35.0063 205.5,37.5C 201.691,35.9071 197.691,35.0738 193.5,35C 192.196,34.196 191.529,33.0293 191.5,31.5C 192.658,28.5244 193.658,25.5244 194.5,22.5 Z M 255.5,138.5 C 260.511,138.334 265.511,138.501 270.5,139C 274.326,141.839 274.492,145.005 271,148.5C 269.687,147.427 268.187,146.76 266.5,146.5C 261.804,148.485 257.137,150.651 252.5,153C 250.5,153.667 248.5,153.667 246.5,153C 246.445,146.398 249.445,141.565 255.5,138.5 Z"/></g><g><path style="opacity:1" fill="#000000" d="M 76.5,80.5 C 78.9864,84.7249 78.9864,89.2249 76.5,94C 77.3943,95.3957 78.0609,96.8957 78.5,98.5C 76.3101,107.965 73.8101,117.298 71,126.5C 70.4387,127.022 69.772,127.355 69,127.5C 67.1896,125.933 66.023,123.933 65.5,121.5C 67.1178,117.356 67.9511,113.022 68,108.5C 70.3155,105.223 71.6488,101.556 72,97.5C 75.4385,95.0473 76.2718,91.8806 74.5,88C 75.2202,85.5092 75.8869,83.0092 76.5,80.5 Z"/></g><g><path style="opacity:1" fill="#000000" d="M 125.5,89.5 C 128.534,89.6095 129.534,90.9428 128.5,93.5C 131.391,98.0746 132.225,103.075 131,108.5C 129.649,110.019 128.149,111.352 126.5,112.5C 125.522,112.023 124.689,111.357 124,110.5C 123.177,103.362 123.677,96.3618 125.5,89.5 Z"/></g><g><path style="opacity:1" fill="#000000" d="M 60.5,142.5 C 67.9827,145.101 68.316,148.434 61.5,152.5C 59.246,151.876 57.5794,150.543 56.5,148.5C 58.2776,146.736 59.6109,144.736 60.5,142.5 Z"/></g><g><path style="opacity:1" fill="#000000" d="M 207.5,142.5 C 209.124,142.36 210.29,143.027 211,144.5C 211.29,148.863 211.79,153.196 212.5,157.5C 212.272,159.397 211.272,160.73 209.5,161.5C 202.382,155.772 201.715,149.439 207.5,142.5 Z"/></g><g><path style="opacity:1" fill="#000000" d="M 76.5,149.5 C 80.9287,149.457 81.9287,150.957 79.5,154C 78.2068,154.49 76.8734,154.657 75.5,154.5C 75.366,152.708 75.6993,151.042 76.5,149.5 Z"/></g><g><path style="opacity:1" fill="#000000" d="M 95.5,151.5 C 102.095,152.383 103.095,155.216 98.5,160C 99.2592,163.688 98.0925,166.854 95,169.5C 93.1204,177.44 91.4538,185.44 90,193.5C 89.0754,194.047 88.2421,194.713 87.5,195.5C 86.9944,198.391 85.9944,201.058 84.5,203.5C 80.5266,199.491 80.6932,195.491 85,191.5C 86.5728,179.677 89.9061,168.344 95,157.5C 95.4955,155.527 95.6621,153.527 95.5,151.5 Z"/></g><g><path style="opacity:1" fill="#000000" d="M 56.5,196.5 C 57.5,196.5 58.5,196.5 59.5,196.5C 54.325,222.355 48.825,248.355 43,274.5C 39.2964,285.319 35.9631,296.319 33,307.5C 29.9747,311.571 28.6413,316.238 29,321.5C 28,322.833 27,322.833 26,321.5C 25.3333,318.833 25.3333,316.167 26,313.5C 29.0304,307.711 30.3637,301.378 30,294.5C 33.156,283.87 35.9894,273.203 38.5,262.5C 38.3201,261.446 37.9867,260.446 37.5,259.5C 41.6586,253.293 43.6586,246.626 43.5,239.5C 45.5882,233.99 47.0882,228.323 48,222.5C 48.6667,221.167 49.6667,220.167 51,219.5C 51.3751,214.79 52.0418,210.123 53,205.5C 54.9242,202.811 56.0909,199.811 56.5,196.5 Z"/></g><g><path style="opacity:1" fill="#000000" d="M 68.5,211.5 C 70.9905,212.108 72.3238,213.775 72.5,216.5C 71.568,221.031 70.068,225.364 68,229.5C 67.4971,234.19 66.8304,238.857 66,243.5C 62.75,250.835 59.9166,258.335 57.5,266C 57.8333,267 58.1667,268 58.5,269C 53.9339,280.384 49.9339,291.884 46.5,303.5C 45.5,303.5 44.5,303.5 43.5,303.5C 45.4077,291.536 48.4077,279.869 52.5,268.5C 52.2359,262.565 53.7359,256.898 57,251.5C 59.0514,243.576 60.718,235.576 62,227.5C 62.7777,224.816 64.1111,222.483 66,220.5C 65.5415,217.339 66.3749,214.339 68.5,211.5 Z"/></g><g><path style="opacity:1" fill="#000000" d="M 284.5,234.5 C 285.117,234.611 285.617,234.944 286,235.5C 287.656,244.136 290.323,252.469 294,260.5C 293.83,266.212 294.663,271.879 296.5,277.5C 296.167,278.167 295.833,278.833 295.5,279.5C 297.192,281.359 298.692,283.359 300,285.5C 303.022,300.255 306.689,314.922 311,329.5C 311.403,335.162 312.236,340.662 313.5,346C 313.167,348.167 312.833,350.333 312.5,352.5C 311.522,352.023 310.689,351.357 310,350.5C 310.348,346.113 309.014,342.447 306,339.5C 303.694,330.945 302.027,322.278 301,313.5C 298.401,309.122 296.401,304.455 295,299.5C 293.571,290.946 291.738,282.446 289.5,274C 289.645,272.774 289.978,271.607 290.5,270.5C 289.469,269.3 288.635,267.966 288,266.5C 287.985,258.091 286.152,250.258 282.5,243C 282.982,240.083 283.649,237.249 284.5,234.5 Z"/></g><g><path style="opacity:1" fill="#000000" d="M 269.5,252.5 C 271.722,252.178 273.556,252.845 275,254.5C 275.96,258.298 277.294,261.965 279,265.5C 279.333,269.833 279.667,274.167 280,278.5C 280.901,281.071 282.234,283.404 284,285.5C 286.461,292.57 288.128,299.903 289,307.5C 291.641,309.403 292.475,311.736 291.5,314.5C 293.903,320.886 295.403,327.553 296,334.5C 299.031,337.104 299.198,339.771 296.5,342.5C 295.201,338.973 293.368,335.64 291,332.5C 289.884,329.306 289.717,326.139 290.5,323C 287.197,319.171 285.697,314.671 286,309.5C 284.415,308.624 283.415,307.291 283,305.5C 280.845,298.316 279.178,290.983 278,283.5C 277,282.833 276,282.167 275,281.5C 273.258,273.594 271.924,265.594 271,257.5C 268.676,256.225 268.176,254.558 269.5,252.5 Z"/></g><g><path style="opacity:1" fill="#000000" d="M 76.5,254.5 C 79.8424,259.921 80.1757,265.587 77.5,271.5C 77.7259,273.189 78.0592,274.855 78.5,276.5C 76.1372,282.994 74.3038,289.661 73,296.5C 71.0153,301.803 68.5153,306.803 65.5,311.5C 64.914,311.291 64.414,310.957 64,310.5C 62.7728,306.409 63.6061,302.909 66.5,300C 65.5697,298.806 64.9031,297.473 64.5,296C 67.5197,281.819 71.5197,267.986 76.5,254.5 Z"/></g><g><path style="opacity:1" fill="#000000" d="M 215.5,264.5 C 216.675,264.281 217.675,264.614 218.5,265.5C 219.018,267.9 220.185,269.9 222,271.5C 223.254,275.111 222.088,276.611 218.5,276C 214.469,272.999 213.469,269.166 215.5,264.5 Z"/></g><g><path style="opacity:1" fill="#000000" d="M 221.5,289.5 C 223.144,289.286 224.644,289.62 226,290.5C 226.1,293.903 226.934,297.07 228.5,300C 226.798,301.718 224.965,301.885 223,300.5C 220.532,297.036 220.032,293.37 221.5,289.5 Z"/></g><g><path style="opacity:1" fill="#000000" d="M 261.5,298.5 C 266.543,301.05 270.043,305.05 272,310.5C 273.617,321.18 275.784,331.68 278.5,342C 277.412,344.939 277.746,347.772 279.5,350.5C 279.547,352 278.881,353 277.5,353.5C 273.164,346 269.498,338.166 266.5,330C 267.891,327.162 267.391,324.662 265,322.5C 264.807,314.314 263.64,306.314 261.5,298.5 Z"/></g><g><path style="opacity:1" fill="#000000" d="M 247.5,305.5 C 251.61,307.746 251.277,309.079 246.5,309.5C 246.433,308.041 246.766,306.708 247.5,305.5 Z"/></g><g><path style="opacity:1" fill="#000000" d="M 38.5,320.5 C 43.4103,322.478 44.4103,325.645 41.5,330C 43.3437,334.45 42.5104,338.284 39,341.5C 38.461,344.529 37.7943,347.529 37,350.5C 35.321,353.699 33.321,354.033 31,351.5C 30.3333,348.5 30.3333,345.5 31,342.5C 33.3149,335.072 35.8149,327.739 38.5,320.5 Z"/></g><g><path style="opacity:1" fill="#000000" d="M 25.5,323.5 C 28.2301,326.051 27.5634,327.384 23.5,327.5C 23.5271,325.801 24.1938,324.467 25.5,323.5 Z"/></g><g><path style="opacity:1" fill="#000000" d="M 57.5,328.5 C 61.3639,331.132 63.0306,334.632 62.5,339C 59.8333,339.667 57.1667,339.667 54.5,339C 54.0426,338.586 53.7093,338.086 53.5,337.5C 54.8332,334.468 56.1665,331.468 57.5,328.5 Z"/></g><g><path style="opacity:1" fill="#000000" d="M 83.5,339.5 C 86.3388,340.176 88.0054,342.009 88.5,345C 85.0517,352.111 83.2184,359.611 83,367.5C 78.3397,376.161 75.6731,385.494 75,395.5C 74.7398,397.618 73.7398,399.284 72,400.5C 70.4585,407.084 68.9585,413.751 67.5,420.5C 67.8333,421.833 68.1667,423.167 68.5,424.5C 67.5634,430.134 65.8967,435.467 63.5,440.5C 63.9867,441.446 64.3201,442.446 64.5,443.5C 62.7974,453.204 60.964,462.87 59,472.5C 57.5688,475.04 55.9022,477.373 54,479.5C 52.558,478.788 51.7247,477.621 51.5,476C 53.0003,471.694 53.5003,467.194 53,462.5C 58.8386,431.393 65.5052,400.726 73,370.5C 74.6903,366.46 76.357,362.46 78,358.5C 78.6514,356.765 78.4847,355.098 77.5,353.5C 79.4984,348.801 81.4984,344.135 83.5,339.5 Z"/></g><g><path style="opacity:1" fill="#000000" d="M 314.5,357.5 C 315.75,357.577 316.583,358.244 317,359.5C 317.798,361.259 317.631,362.926 316.5,364.5C 313.497,362.822 312.831,360.489 314.5,357.5 Z"/></g><g><path style="opacity:1" fill="#000000" d="M 299.5,358.5 C 302.385,361.891 305.552,365.224 309,368.5C 309.058,373.501 309.891,378.335 311.5,383C 310.971,384.559 310.304,386.059 309.5,387.5C 310.706,389.516 310.706,391.516 309.5,393.5C 303.393,388.959 300.893,382.959 302,375.5C 300.16,373.319 298.993,370.819 298.5,368C 299.107,364.772 299.44,361.605 299.5,358.5 Z"/></g><g><path style="opacity:1" fill="#000000" d="M -0.5,447.5 C -0.5,444.833 -0.5,442.167 -0.5,439.5C 3.12801,437.71 3.46134,435.377 0.5,432.5C 1.42907,429.475 2.7624,426.642 4.5,424C 3.13081,421.761 3.63081,419.927 6,418.5C 6.79692,407.255 9.63025,396.589 14.5,386.5C 13.3735,381.04 14.3735,376.04 17.5,371.5C 15.8492,368.111 16.6826,365.445 20,363.5C 21.5691,364.714 22.4024,366.381 22.5,368.5C 20.9983,377.189 19.4983,385.856 18,394.5C 17,395.833 16,397.167 15,398.5C 14.6667,402.5 14.3333,406.5 14,410.5C 13.3333,411.167 12.6667,411.833 12,412.5C 11.2401,416.819 10.5735,421.152 10,425.5C 7.34437,427.147 6.51104,429.314 7.5,432C 7.09184,434.92 5.7585,437.254 3.5,439C 2.83921,441.464 2.33921,443.964 2,446.5C 1.32924,447.252 0.495904,447.586 -0.5,447.5 Z"/></g><g><path style="opacity:1" fill="#000000" d="M 281.5,365.5 C 283.722,365.178 285.556,365.845 287,367.5C 287.334,369.847 287.167,372.181 286.5,374.5C 281.972,375.279 279.306,373.446 278.5,369C 279.071,367.401 280.071,366.234 281.5,365.5 Z"/></g><g><path style="opacity:1" fill="#000000" d="M 258.5,373.5 C 260.467,373.261 262.301,373.594 264,374.5C 268.308,387.522 271.641,400.855 274,414.5C 275.667,419.5 277.333,424.5 279,429.5C 280.775,440.707 283.442,451.707 287,462.5C 287.31,474.33 289.144,485.83 292.5,497C 291.109,499.838 291.609,502.338 294,504.5C 294.667,507.167 294.667,509.833 294,512.5C 292.221,513.479 290.555,513.146 289,511.5C 288.081,507.482 286.414,503.815 284,500.5C 283.438,498.134 283.604,495.801 284.5,493.5C 282.245,481.55 280.412,469.55 279,457.5C 275.531,448.418 273.365,439.251 272.5,430C 269.134,425.812 267.634,420.979 268,415.5C 265.061,410.287 263.728,404.62 264,398.5C 263.385,396.884 262.385,395.551 261,394.5C 260.792,390.093 259.458,386.093 257,382.5C 256.207,379.259 256.707,376.259 258.5,373.5 Z"/></g><g><path style="opacity:1" fill="#000000" d="M 49.5,375.5 C 52.5608,375.444 54.7275,376.778 56,379.5C 55.7383,383.075 55.905,386.575 56.5,390C 53.8044,394.551 50.971,399.051 48,403.5C 46.9887,404.337 45.8221,404.67 44.5,404.5C 46.473,394.887 48.1396,385.22 49.5,375.5 Z"/></g><g><path style="opacity:1" fill="#000000" d="M 90.5,381.5 C 93.4747,381.307 95.9747,382.307 98,384.5C 98.4461,387.343 98.9461,390.176 99.5,393C 97.3461,395.88 95.5128,399.047 94,402.5C 90.5529,404.353 88.7195,403.353 88.5,399.5C 89.6364,393.546 90.3031,387.546 90.5,381.5 Z"/></g><g><path style="opacity:1" fill="#000000" d="M 22.5,405.5 C 24.4451,408.379 25.7784,411.713 26.5,415.5C 27.6617,423.486 24.495,428.82 17,431.5C 14.7017,429.696 14.035,427.363 15,424.5C 16.9694,420.768 17.9694,416.768 18,412.5C 19.0121,409.798 20.5121,407.465 22.5,405.5 Z"/></g><g><path style="opacity:1" fill="#000000" d="M 292.5,411.5 C 293.75,411.577 294.583,412.244 295,413.5C 295.333,415.833 295.667,418.167 296,420.5C 300.41,427.556 302.41,435.222 302,443.5C 300.413,444.727 299.079,444.394 298,442.5C 296.387,435.774 293.554,429.608 289.5,424C 289.944,419.63 290.944,415.463 292.5,411.5 Z"/></g><g><path style="opacity:1" fill="#000000" d="M 86.5,412.5 C 92.714,414.31 93.8806,417.976 90,423.5C 86.4499,426.543 83.9499,425.877 82.5,421.5C 83.0703,418.108 84.4037,415.108 86.5,412.5 Z"/></g><g><path style="opacity:1" fill="#000000" d="M 250.5,418.5 C 253.091,419.254 254.924,420.921 256,423.5C 256.109,427.838 256.943,432.004 258.5,436C 256.236,443.04 253.403,443.207 250,436.5C 249.228,432.702 248.728,428.869 248.5,425C 248.658,422.551 249.325,420.384 250.5,418.5 Z"/></g><g><path style="opacity:1" fill="#000000" d="M 82.5,438.5 C 83.675,438.281 84.675,438.614 85.5,439.5C 85.5527,441.665 85.886,443.831 86.5,446C 84.7238,450.331 83.5572,454.831 83,459.5C 81.6912,461.976 79.8579,463.976 77.5,465.5C 76.0542,464.829 75.3875,463.662 75.5,462C 74.709,453.267 77.0423,445.434 82.5,438.5 Z"/></g><g><path style="opacity:1" fill="#000000" d="M 322.5,439.5 C 324.624,440.031 326.124,441.365 327,443.5C 328.029,450.615 329.529,457.615 331.5,464.5C 331.192,465.308 330.692,465.975 330,466.5C 328.488,465.743 327.154,464.743 326,463.5C 325.08,460.062 323.413,457.062 321,454.5C 320.092,449.311 320.592,444.311 322.5,439.5 Z"/></g><g><path style="opacity:1" fill="#000000" d="M 337.5,444.5 C 341.918,448.451 344.418,453.451 345,459.5C 345.306,464.125 346.139,468.625 347.5,473C 346.606,475.562 346.606,478.062 347.5,480.5C 346.481,484.187 345.148,484.354 343.5,481C 343.198,477.698 343.198,474.365 343.5,471C 341.951,469.786 340.785,468.286 340,466.5C 339.348,460.382 337.848,454.549 335.5,449C 336.044,447.415 336.711,445.915 337.5,444.5 Z"/></g><g><path style="opacity:1" fill="#000000" d="M 256.5,447.5 C 257.552,447.351 258.552,447.517 259.5,448C 260.63,450.428 262.13,452.595 264,454.5C 264.345,456.201 263.678,457.534 262,458.5C 259.333,456.5 256.667,454.5 254,452.5C 253.294,450.045 254.127,448.378 256.5,447.5 Z"/></g><g><path style="opacity:1" fill="#000000" d="M 261.5,473.5 C 264.298,474.706 266.465,476.706 268,479.5C 269.168,483.669 270.334,487.836 271.5,492C 269.504,495.013 269.504,497.846 271.5,500.5C 271,500.833 270.5,501.167 270,501.5C 265.074,498.996 262.074,494.996 261,489.5C 260.751,486.168 259.918,483.001 258.5,480C 259.03,477.557 260.03,475.39 261.5,473.5 Z"/></g></svg>