<svg xmlns="http://www.w3.org/2000/svg" version="1.1" width="356px" height="518px" style="shape-rendering:geometricPrecision; text-rendering:geometricPrecision; image-rendering:optimizeQuality; fill-rule:evenodd; clip-rule:evenodd" xmlns:xlink="http://www.w3.org/1999/xlink"><g><path style="opacity:1" fill="#000000" d="M -0.5,-0.5 C 0.833333,-0.5 2.16667,-0.5 3.5,-0.5C 3.90814,0.643141 4.57481,1.64314 5.5,2.5C 10.6122,4.22199 15.2789,6.72199 19.5,10C 24.6742,10.8311 29.0076,13.1644 32.5,17C 35.7111,18.1532 39.0445,18.8198 42.5,19C 45.4628,20.9606 48.1294,23.294 50.5,26C 59.8244,29.4138 69.4911,31.7471 79.5,33C 84.8538,36.3646 90.1871,39.6979 95.5,43C 97.5,43.3333 99.5,43.6667 101.5,44C 106.334,47.2516 111.334,50.2516 116.5,53C 123.487,54.962 129.82,58.2954 135.5,63C 140.383,61.4313 144.383,62.7646 147.5,67C 157.764,66.4177 166.431,69.751 173.5,77C 181.105,77.2623 187.439,80.2623 192.5,86C 200.948,88.1432 208.615,91.8099 215.5,97C 216.899,97.5946 218.232,97.4279 219.5,96.5C 223.633,98.8021 227.633,101.302 231.5,104C 235.833,104.333 240.167,104.667 244.5,105C 250.568,110.2 257.568,113.533 265.5,115C 269.082,116.62 272.082,118.953 274.5,122C 277.167,122.333 279.833,122.667 282.5,123C 287.167,126.333 291.833,129.667 296.5,133C 293.312,136.594 289.312,138.594 284.5,139C 282.545,139.953 280.878,141.287 279.5,143C 272.5,143.86 265.833,145.526 259.5,148C 255.641,151.177 251.641,154.177 247.5,157C 244.697,159.17 241.697,159.837 238.5,159C 233.009,163.246 227.342,167.246 221.5,171C 219.5,171.333 217.5,171.667 215.5,172C 209.504,179.161 201.837,182.161 192.5,181C 185.766,187.339 178.1,192.006 169.5,195C 164.929,199.082 160.263,202.915 155.5,206.5C 155.876,208.383 156.876,209.883 158.5,211C 163.906,215.024 169.906,217.857 176.5,219.5C 182.019,223.762 187.352,228.262 192.5,233C 196.126,235.528 200.126,237.195 204.5,238C 209.532,243.367 214.865,248.367 220.5,253C 226.911,253.804 232.911,255.804 238.5,259C 246.566,267.736 255.233,275.736 264.5,283C 266.5,283.333 268.5,283.667 270.5,284C 271.257,285.512 272.257,286.846 273.5,288C 277.95,290.261 282.617,291.928 287.5,293C 289.5,295 291.5,297 293.5,299C 299.784,302.301 305.784,305.968 311.5,310C 316.763,315.265 322.596,319.765 329,323.5C 329.617,324.449 329.451,325.282 328.5,326C 325.193,326.653 322.527,328.319 320.5,331C 314.978,333.592 309.311,335.925 303.5,338C 299.533,343.433 294.199,346.433 287.5,347C 281.171,353.665 273.505,357.999 264.5,360C 258.508,366.951 250.841,369.951 241.5,369C 238.429,373.712 234.096,376.712 228.5,378C 226.495,380.845 223.829,382.678 220.5,383.5C 219.115,387.984 220.448,391.317 224.5,393.5C 225.406,395.386 226.406,397.22 227.5,399C 230.5,400 233.5,401 236.5,402C 247.36,413.864 258.694,425.531 270.5,437C 273.007,437.093 275.174,437.926 277,439.5C 286.677,450.675 296.51,461.675 306.5,472.5C 308.115,473.154 309.782,473.654 311.5,474C 322.863,485.029 333.863,496.363 344.5,508C 348.771,509.346 352.438,511.513 355.5,514.5C 355.5,515.5 355.5,516.5 355.5,517.5C 354.5,517.5 353.5,517.5 352.5,517.5C 351.571,516.685 350.571,515.852 349.5,515C 344.547,514.005 339.547,513.338 334.5,513C 331.167,510.333 327.833,507.667 324.5,505C 315.759,503.083 308.425,498.749 302.5,492C 299.867,490.5 297.2,490.333 294.5,491.5C 289.162,488.833 284.162,485.666 279.5,482C 268.795,479.143 258.129,475.81 247.5,472C 242.931,466.881 237.265,464.214 230.5,464C 227.113,460.947 223.447,458.28 219.5,456C 216.623,454.873 213.623,454.206 210.5,454C 207.214,450.796 203.548,448.129 199.5,446C 188.824,442.303 178.157,438.97 167.5,436C 163.802,433.814 160.468,431.147 157.5,428C 153.916,426.927 150.25,426.26 146.5,426C 140.021,420.427 132.688,416.427 124.5,414C 117.125,406.592 108.125,403.259 97.5,404C 93.5865,400.38 88.9199,398.38 83.5,398C 80.319,395.908 77.319,393.575 74.5,391C 69.9375,389.447 65.6042,387.447 61.5,385C 68.1535,378.841 75.8202,374.507 84.5,372C 88.1099,370.056 91.4432,367.723 94.5,365C 104.155,365.56 112.489,362.56 119.5,356C 121.5,355.667 123.5,355.333 125.5,355C 131.167,350.667 136.833,346.333 142.5,342C 144.5,342 146.5,342 148.5,342C 151.808,337.892 156.141,335.892 161.5,336C 163.213,334.622 164.547,332.955 165.5,331C 170.635,329.113 175.969,327.78 181.5,327C 183.787,325.573 184.12,323.739 182.5,321.5C 179.5,319.5 176.5,317.5 173.5,315.5C 172.833,315.833 172.167,316.167 171.5,316.5C 169.641,314.808 167.641,313.308 165.5,312C 159.5,307.333 154.167,302 149.5,296C 146.127,294.879 142.961,293.379 140,291.5C 136.125,290.851 132.291,290.018 128.5,289C 122.353,281.517 115.02,275.517 106.5,271C 104.438,269.468 103.104,267.468 102.5,265C 100.5,264.667 98.5,264.333 96.5,264C 93.8333,261.333 91.1667,258.667 88.5,256C 80.1316,251.149 71.4649,246.816 62.5,243C 56.7495,236.912 50.7495,231.245 44.5,226C 40.4669,224.651 37.1336,222.318 34.5,219C 30.3321,218.625 26.3321,217.625 22.5,216C 16.857,209.346 10.357,203.846 3,199.5C 2.33333,197.5 2.33333,195.5 3,193.5C 8.41268,189.543 13.9127,185.71 19.5,182C 23.1244,182.013 26.1244,180.68 28.5,178C 39.2315,178.852 48.5648,175.852 56.5,169C 62.5759,166.194 68.5759,163.194 74.5,160C 77.1667,159.667 79.8333,159.333 82.5,159C 92.7925,152.493 103.459,146.827 114.5,142C 123.458,141.823 131.791,139.489 139.5,135C 140.081,134.107 140.415,133.107 140.5,132C 139.799,129.62 138.633,127.453 137,125.5C 131.439,120.275 126.272,114.775 121.5,109C 113.096,107.55 106.929,103.05 103,95.5C 100.087,92.9126 96.92,90.746 93.5,89C 88.5886,83.084 83.2553,77.4173 77.5,72C 75.1667,71.6667 72.8333,71.3333 70.5,71C 60.5207,60.6839 50.854,50.0172 41.5,39C 37.0715,36.5198 32.7382,33.8532 28.5,31C 19.2212,20.5565 9.55455,10.7231 -0.5,1.5C -0.5,0.833333 -0.5,0.166667 -0.5,-0.5 Z"/></g></svg>