<svg xmlns="http://www.w3.org/2000/svg" version="1.1" width="641px" height="564px" style="shape-rendering:geometricPrecision; text-rendering:geometricPrecision; image-rendering:optimizeQuality; fill-rule:evenodd; clip-rule:evenodd" xmlns:xlink="http://www.w3.org/1999/xlink"><g><path style="opacity:1" fill="#000000" d="M 639.5,-0.5 C 639.833,-0.5 640.167,-0.5 640.5,-0.5C 640.5,0.166667 640.5,0.833333 640.5,1.5C 543.192,158.103 445.858,314.769 348.5,471.5C 323.311,453.748 318.145,431.414 333,404.5C 345.975,382.214 358.142,359.547 369.5,336.5C 329.488,328.464 289.488,320.631 249.5,313C 214.167,332 178.833,351 143.5,370C 131.613,385.553 120.113,401.387 109,417.5C 93.1166,432.55 75.6166,434.55 56.5,423.5C 74.1942,398.972 91.6942,374.306 109,349.5C 133.167,332 157.333,314.5 181.5,297C 178.607,293.911 175.607,293.911 172.5,297C 143.103,316.727 113.437,336.06 83.5,355C 71.1551,361.537 58.1551,363.537 44.5,361C 34.4078,356.609 28.2411,349.109 26,338.5C 51.0911,322.372 75.9244,305.872 100.5,289C 91.5782,289.607 82.5782,289.607 73.5,289C 53.9283,286.767 43.7616,275.934 43,256.5C 142.413,240.404 241.913,224.57 341.5,209C 359.331,207.169 373.497,199.002 384,184.5C 421.833,123.333 459.667,62.1667 497.5,1C 545.002,0.832729 592.335,0.332729 639.5,-0.5 Z"/></g><g><path style="opacity:1" fill="#000000" d="M 223.5,350.5 C 224.117,350.611 224.617,350.944 225,351.5C 229.841,374.139 227.841,396.139 219,417.5C 218.211,423.237 218.544,428.903 220,434.5C 222.057,440.281 224.39,445.947 227,451.5C 229.59,460.101 229.923,468.767 228,477.5C 224.191,484.121 221.191,491.121 219,498.5C 216.619,499.435 214.119,499.768 211.5,499.5C 213.002,491.16 216.169,483.493 221,476.5C 222.518,468.467 222.185,460.467 220,452.5C 211.209,437.759 209.209,422.092 214,405.5C 217.724,402.006 219.724,397.673 220,392.5C 220.831,379.944 220.331,367.444 218.5,355C 218.833,354.167 219.167,353.333 219.5,352.5C 221.026,352.006 222.359,351.339 223.5,350.5 Z"/></g><g><path style="opacity:1" fill="#000000" d="M 232.5,359.5 C 239.565,360.399 242.731,364.399 242,371.5C 242.437,379.907 241.77,388.241 240,396.5C 239.108,399.952 237.442,402.952 235,405.5C 229.297,420.457 230.964,434.457 240,447.5C 243.283,458.828 243.283,470.162 240,481.5C 236.639,486.888 233.806,492.554 231.5,498.5C 229.604,499.466 227.604,499.799 225.5,499.5C 225.674,496.126 226.174,492.793 227,489.5C 234.447,477.711 236.447,465.045 233,451.5C 225.565,437.596 223.565,422.929 227,407.5C 234.733,392.198 236.566,376.198 232.5,359.5 Z"/></g><g><path style="opacity:1" fill="#000000" d="M 201.5,368.5 C 202.684,375.366 202.518,382.366 201,389.5C 198.935,398.029 196.268,406.362 193,414.5C 192.333,420.5 192.333,426.5 193,432.5C 196.239,439.641 198.906,446.974 201,454.5C 201.667,460.833 201.667,467.167 201,473.5C 197.875,482.08 195.042,490.747 192.5,499.5C 190.167,499.5 187.833,499.5 185.5,499.5C 185.337,497.143 185.503,494.81 186,492.5C 194.92,479.571 197.253,465.571 193,450.5C 185.023,436.296 183.356,421.296 188,405.5C 190.442,402.952 192.108,399.952 193,396.5C 194.661,388.886 195.994,381.22 197,373.5C 198.707,371.963 200.207,370.296 201.5,368.5 Z"/></g><g><path style="opacity:1" fill="#000000" d="M 212.5,369.5 C 213.5,369.5 214.5,369.5 215.5,369.5C 217.273,384.741 214.44,399.074 207,412.5C 205,419.833 205,427.167 207,434.5C 209.135,440.766 211.801,446.766 215,452.5C 215.667,460.5 215.667,468.5 215,476.5C 214.64,478.608 213.973,480.608 213,482.5C 208.472,487.245 205.972,492.912 205.5,499.5C 203.167,499.5 200.833,499.5 198.5,499.5C 200.442,491.172 203.276,483.172 207,475.5C 209.821,463.228 207.821,451.894 201,441.5C 196.849,430.955 196.515,420.288 200,409.5C 206.804,398.16 209.804,385.826 209,372.5C 210.518,371.837 211.685,370.837 212.5,369.5 Z"/></g><g><path style="opacity:1" fill="#000000" d="M 289.5,382.5 C 291.764,384.097 293.764,386.097 295.5,388.5C 293.01,396.811 289.843,404.811 286,412.5C 284.223,425.616 286.557,437.95 293,449.5C 296.226,459.179 296.226,468.846 293,478.5C 289.524,484.457 286.857,490.791 285,497.5C 283.246,499.25 281.079,499.917 278.5,499.5C 279.485,491.044 281.985,483.044 286,475.5C 287.496,468.901 287.829,462.234 287,455.5C 283.483,448.132 280.817,440.466 279,432.5C 278.333,424.833 278.333,417.167 279,409.5C 283.579,400.931 287.079,391.931 289.5,382.5 Z"/></g><g><path style="opacity:1" fill="#000000" d="M 249.5,385.5 C 252.09,386.128 254.423,387.295 256.5,389C 254.006,395.822 250.839,402.322 247,408.5C 245.581,417.125 245.248,425.792 246,434.5C 248.333,439.167 250.667,443.833 253,448.5C 254.959,458.837 254.959,469.17 253,479.5C 249.646,485.869 247.146,492.536 245.5,499.5C 243.167,499.5 240.833,499.5 238.5,499.5C 239.897,491.809 242.397,484.476 246,477.5C 247.523,469.898 247.856,462.232 247,454.5C 244.327,447.823 241.661,441.157 239,434.5C 237.005,425.101 237.338,415.767 240,406.5C 243.729,399.711 246.896,392.711 249.5,385.5 Z"/></g><g><path style="opacity:1" fill="#000000" d="M 307.5,392.5 C 308.222,392.918 308.722,393.584 309,394.5C 309.667,397.5 309.667,400.5 309,403.5C 303.435,410.795 299.935,418.961 298.5,428C 301.457,436.758 304.29,445.592 307,454.5C 307.993,463.631 307.326,472.631 305,481.5C 302.276,487.005 299.943,492.672 298,498.5C 295.959,499.423 293.792,499.756 291.5,499.5C 291.338,497.473 291.505,495.473 292,493.5C 297.379,484.2 300.212,474.2 300.5,463.5C 300.333,460.5 300.167,457.5 300,454.5C 297.466,447.898 295.133,441.231 293,434.5C 291.327,424.25 292.994,414.583 298,405.5C 300.998,401.008 304.165,396.675 307.5,392.5 Z"/></g><g><path style="opacity:1" fill="#000000" d="M 137.5,401.5 C 139.845,402.852 141.512,404.852 142.5,407.5C 139.405,414.541 138.239,421.874 139,429.5C 141.107,436.382 143.774,443.049 147,449.5C 149.423,459.114 149.757,468.781 148,478.5C 146,481.833 144,485.167 142,488.5C 140.438,492.014 139.605,495.681 139.5,499.5C 137.167,499.5 134.833,499.5 132.5,499.5C 132.457,496.09 132.957,492.757 134,489.5C 141.602,478.887 143.935,467.22 141,454.5C 135.714,444.809 132.547,434.475 131.5,423.5C 132.086,415.749 134.086,408.415 137.5,401.5 Z"/></g><g><path style="opacity:1" fill="#000000" d="M 127.5,406.5 C 128.239,406.369 128.906,406.536 129.5,407C 123.416,420.763 124.583,433.929 133,446.5C 135.884,456.745 136.217,467.078 134,477.5C 133.144,481.544 131.478,485.211 129,488.5C 127.438,492.014 126.605,495.681 126.5,499.5C 123.753,499.813 121.086,499.48 118.5,498.5C 121.673,489.49 124.84,480.49 128,471.5C 128.667,466.167 128.667,460.833 128,455.5C 125.597,449.031 122.931,442.698 120,436.5C 119.333,429.833 119.333,423.167 120,416.5C 122.741,413.271 125.241,409.938 127.5,406.5 Z"/></g><g><path style="opacity:1" fill="#000000" d="M 252.5,410.5 C 256.372,418.651 258.872,427.318 260,436.5C 265.919,443.756 268.752,452.089 268.5,461.5C 268.307,468.992 267.14,476.325 265,483.5C 262.3,488.236 260.134,493.236 258.5,498.5C 256.579,499.641 254.579,499.808 252.5,499C 251.557,496.2 251.724,493.366 253,490.5C 254.829,486.172 257.162,482.172 260,478.5C 262.911,466.918 261.578,455.918 256,445.5C 251.645,434.155 250.478,422.488 252.5,410.5 Z"/></g><g><path style="opacity:1" fill="#000000" d="M 179.5,411.5 C 176.638,424.692 179.138,437.025 187,448.5C 189.035,459.033 188.869,469.533 186.5,480C 183.227,485.812 180.727,491.979 179,498.5C 176.959,499.423 174.792,499.756 172.5,499.5C 172.351,496.393 172.851,493.393 174,490.5C 181.56,478.446 183.56,465.446 180,451.5C 173.45,441.086 171.117,429.752 173,417.5C 175.063,415.266 177.229,413.266 179.5,411.5 Z"/></g><g><path style="opacity:1" fill="#000000" d="M 271.5,412.5 C 272.329,419.989 272.829,427.656 273,435.5C 281.89,450.204 283.89,465.871 279,482.5C 275.703,487.385 273.369,492.718 272,498.5C 269.619,499.435 267.119,499.768 264.5,499.5C 267.088,490.318 270.255,481.318 274,472.5C 274.667,467.5 274.667,462.5 274,457.5C 271.414,451.988 269.081,446.321 267,440.5C 265.47,432.564 265.137,424.564 266,416.5C 267.812,415.023 269.645,413.69 271.5,412.5 Z"/></g><g><path style="opacity:1" fill="#000000" d="M 415.5,421.5 C 417.392,422.702 419.226,424.035 421,425.5C 421.333,429.5 421.667,433.5 422,437.5C 424.782,445.962 426.615,454.629 427.5,463.5C 427.066,469.977 425.899,476.311 424,482.5C 421.472,487.751 419.139,493.084 417,498.5C 414.861,499.769 412.695,499.769 410.5,498.5C 412.486,490.858 415.319,483.524 419,476.5C 420.429,468.881 420.762,461.215 420,453.5C 417.566,450.205 415.899,446.538 415,442.5C 414.28,435.464 414.447,428.464 415.5,421.5 Z"/></g><g><path style="opacity:1" fill="#000000" d="M 110.5,428.5 C 111.5,428.5 112.5,428.5 113.5,428.5C 114.061,436.965 116.894,444.631 122,451.5C 125.139,465.876 122.806,479.209 115,491.5C 113.921,494.063 113.421,496.729 113.5,499.5C 110.833,499.5 108.167,499.5 105.5,499.5C 107.292,491.958 109.792,484.625 113,477.5C 115.182,469.623 115.848,461.623 115,453.5C 110.806,447.442 107.973,440.775 106.5,433.5C 106.833,432.5 107.167,431.5 107.5,430.5C 108.739,430.058 109.739,429.391 110.5,428.5 Z"/></g><g><path style="opacity:1" fill="#000000" d="M 147.5,435.5 C 151.964,436.476 155.464,438.809 158,442.5C 162.991,453.767 164.324,465.433 162,477.5C 158.185,484.132 155.185,491.132 153,498.5C 150.599,499.602 148.099,499.769 145.5,499C 146.898,490.476 150.065,482.642 155,475.5C 156.635,461.375 154.135,448.042 147.5,435.5 Z"/></g><g><path style="opacity:1" fill="#000000" d="M 408.5,443.5 C 411.038,446.245 412.538,449.578 413,453.5C 413.667,460.833 413.667,468.167 413,475.5C 409.747,483.015 406.747,490.682 404,498.5C 401.959,499.423 399.792,499.756 397.5,499.5C 398.692,490.116 401.858,481.449 407,473.5C 408.02,464.782 407.187,456.282 404.5,448C 406.041,446.629 407.375,445.129 408.5,443.5 Z"/></g><g><path style="opacity:1" fill="#000000" d="M 167.5,448.5 C 170.028,449.399 172.528,450.399 175,451.5C 175.436,453.847 175.936,456.181 176.5,458.5C 175.78,463.137 175.28,467.803 175,472.5C 172.288,480.927 169.288,489.26 166,497.5C 163.879,499.457 161.379,499.957 158.5,499C 159.264,496.931 159.764,494.764 160,492.5C 163.791,485.909 166.791,478.909 169,471.5C 169.732,463.743 169.232,456.077 167.5,448.5 Z"/></g><g><path style="opacity:1" fill="#000000" d="M 383.5,449.5 C 384.5,449.5 385.5,449.5 386.5,449.5C 386.336,454.534 386.669,459.534 387.5,464.5C 386.868,468.817 386.368,473.15 386,477.5C 382.613,484.273 379.78,491.273 377.5,498.5C 375.235,499.647 372.902,499.814 370.5,499C 372.229,490.923 375.396,483.423 380,476.5C 381.779,469.888 381.946,463.221 380.5,456.5C 380.833,454.833 381.167,453.167 381.5,451.5C 382.522,451.145 383.189,450.478 383.5,449.5 Z"/></g><g><path style="opacity:1" fill="#000000" d="M 108.5,458.5 C 109.497,458.47 110.164,458.97 110.5,460C 109.787,465.843 108.953,471.676 108,477.5C 104.485,484.193 101.818,491.193 100,498.5C 97.5991,499.602 95.0991,499.769 92.5,499C 91.7453,495.128 92.2453,491.295 94,487.5C 100.252,480.426 103.585,472.093 104,462.5C 105.667,461.267 107.167,459.933 108.5,458.5 Z"/></g><g><path style="opacity:1" fill="#000000" d="M 394.5,462.5 C 395.721,461.535 397.054,461.702 398.5,463C 400.327,463.899 401.66,465.233 402.5,467C 402.174,475.486 399.341,482.986 394,489.5C 392.648,492.72 391.814,496.053 391.5,499.5C 389.167,499.5 386.833,499.5 384.5,499.5C 384.564,495.78 385.064,492.114 386,488.5C 388.699,483.813 391.366,479.147 394,474.5C 395.528,470.389 395.694,466.389 394.5,462.5 Z"/></g><g><path style="opacity:1" fill="#000000" d="M 434.5,462.5 C 434.897,461.475 435.563,461.308 436.5,462C 441.218,465.343 442.718,469.843 441,475.5C 436.547,482.74 432.881,490.407 430,498.5C 428.301,499.406 426.467,499.739 424.5,499.5C 424.375,494.667 425.208,490 427,485.5C 432.15,480.031 434.983,473.531 435.5,466C 435.486,464.615 435.152,463.449 434.5,462.5 Z"/></g><g><path style="opacity:1" fill="#000000" d="M 90.5,463.5 C 95.7416,466.258 97.5749,470.591 96,476.5C 92.0192,483.464 88.8525,490.797 86.5,498.5C 84.2573,499.474 81.924,499.808 79.5,499.5C 80.1114,491.609 82.9447,484.609 88,478.5C 89.267,473.565 90.1003,468.565 90.5,463.5 Z"/></g><g><path style="opacity:1" fill="#000000" d="M 368.5,463.5 C 370.5,463.5 372.5,463.5 374.5,463.5C 375.585,473.267 373.085,481.934 367,489.5C 365.801,492.726 365.301,496.059 365.5,499.5C 363.167,499.5 360.833,499.5 358.5,499.5C 358.457,496.09 358.957,492.757 360,489.5C 365.346,481.628 368.18,472.961 368.5,463.5 Z"/></g><g><path style="opacity:1" fill="#000000" d="M 314.5,469.5 C 316.642,471.765 318.309,474.432 319.5,477.5C 316.337,484.659 313.671,491.993 311.5,499.5C 309.076,499.808 306.743,499.474 304.5,498.5C 308.615,489.157 311.948,479.491 314.5,469.5 Z"/></g><g><path style="opacity:1" fill="#000000" d="M 79.5,476.5 C 80.2389,476.369 80.9056,476.536 81.5,477C 79.5885,483.062 77.0885,488.896 74,494.5C 73.5065,496.134 73.3398,497.801 73.5,499.5C 70.8127,499.664 68.146,499.497 65.5,499C 66.5272,491.949 69.1938,485.616 73.5,480C 75.7274,479.059 77.7274,477.892 79.5,476.5 Z"/></g><g><path style="opacity:1" fill="#000000" d="M 358.5,476.5 C 359.097,476.735 359.43,477.235 359.5,478C 356.637,484.892 353.637,491.725 350.5,498.5C 348.604,499.466 346.604,499.799 344.5,499.5C 345.071,491.857 347.737,485.024 352.5,479C 354.723,478.434 356.723,477.6 358.5,476.5 Z"/></g><g><path style="opacity:1" fill="#000000" d="M 336.5,484.5 C 338.649,485.59 339.982,487.424 340.5,490C 339.434,493.094 338.768,496.26 338.5,499.5C 335.813,499.664 333.146,499.497 330.5,499C 331.801,493.895 333.801,489.061 336.5,484.5 Z"/></g><g><path style="opacity:1" fill="#000000" d="M 321.5,485.5 C 323.966,485.899 325.966,487.065 327.5,489C 325.954,492.351 324.954,495.851 324.5,499.5C 322.5,499.5 320.5,499.5 318.5,499.5C 318.677,494.64 319.677,489.974 321.5,485.5 Z"/></g><g><path style="opacity:1" fill="#000000" d="M 502.5,563.5 C 334.833,563.5 167.167,563.5 -0.5,563.5C -0.5,543.5 -0.5,523.5 -0.5,503.5C 167.097,502.501 334.763,502.168 502.5,502.5C 502.5,522.833 502.5,543.167 502.5,563.5 Z"/></g></svg>