<svg xmlns="http://www.w3.org/2000/svg" version="1.1" width="603px" height="604px" style="shape-rendering:geometricPrecision; text-rendering:geometricPrecision; image-rendering:optimizeQuality; fill-rule:evenodd; clip-rule:evenodd" xmlns:xlink="http://www.w3.org/1999/xlink"><g><path style="opacity:1" fill="#000000" d="M 526.5,-0.5 C 534.167,-0.5 541.833,-0.5 549.5,-0.5C 486.585,72.9572 423.419,146.291 360,219.5C 359.535,220.931 358.701,222.097 357.5,223C 365.225,238.252 362.225,250.918 348.5,261C 331.437,268.759 317.937,264.592 308,248.5C 302.655,232.349 307.488,220.182 322.5,212C 329.14,209.165 335.807,208.998 342.5,211.5C 404.2,141.134 465.533,70.4678 526.5,-0.5 Z"/></g><g><path style="opacity:1" fill="#000000" d="M -0.5,2.5 C 66.5008,2.33334 133.501,2.5 200.5,3C 219.796,52.4295 238.963,101.929 258,151.5C 258.414,151.957 258.914,152.291 259.5,152.5C 272.565,145.143 286.565,142.476 301.5,144.5C 303.443,117.89 317.776,103.557 344.5,101.5C 351.523,102.089 358.19,103.922 364.5,107C 375.833,115.667 387.167,124.333 398.5,133C 379.54,155.629 360.207,177.962 340.5,200C 310.203,200.293 295.703,215.46 297,245.5C 301.488,261.655 311.988,271.155 328.5,274C 354.345,274.926 368.679,262.592 371.5,237C 371.06,232.105 370.56,227.271 370,222.5C 389.353,200.648 408.52,178.648 427.5,156.5C 438.144,164.643 448.644,172.976 459,181.5C 471.279,198.953 471.612,216.619 460,234.5C 453.912,241.464 446.412,246.298 437.5,249C 436.5,250 435.5,251 434.5,252C 437.856,252.215 441.189,252.215 444.5,252C 446.068,254.058 447.402,256.225 448.5,258.5C 442.793,277.373 431.126,291.206 413.5,300C 416.381,301.358 419.214,302.858 422,304.5C 422.667,307.167 422.667,309.833 422,312.5C 407.605,326.067 390.439,332.234 370.5,331C 372.5,333.333 374.5,335.667 376.5,338C 375.686,341.144 374.02,343.644 371.5,345.5C 352.11,349.854 334.276,346.52 318,335.5C 318.029,338.699 318.529,341.865 319.5,345C 316.879,348.325 313.546,349.658 309.5,349C 291.407,343.569 278.24,332.402 270,315.5C 268.36,317.579 267.194,319.912 266.5,322.5C 263.721,324.297 260.721,324.797 257.5,324C 243.635,310.089 237.135,293.255 238,273.5C 235.656,275.181 233.323,276.848 231,278.5C 224.285,277.445 221.285,273.445 222,266.5C 221.636,259.71 221.469,253.043 221.5,246.5C 211.539,250.431 201.539,254.265 191.5,258C 198.826,258.5 206.159,258.666 213.5,258.5C 213.527,264.993 214.527,271.327 216.5,277.5C 221.05,279.572 225.717,281.238 230.5,282.5C 232.205,300.469 239.205,315.969 251.5,329C 256.751,329.532 261.918,329.032 267,327.5C 273.396,335.896 281.063,342.896 290,348.5C 290.5,386.499 290.667,424.499 290.5,462.5C 256.5,462.5 222.5,462.5 188.5,462.5C 188.667,394.166 188.5,325.833 188,257.5C 166.716,201.642 145.049,145.976 123,90.5C 122.5,228.166 122.333,365.833 122.5,503.5C 88.8333,503.5 55.1667,503.5 21.5,503.5C 21.6667,414.166 21.5,324.833 21,235.5C 14.1508,160.318 6.98417,85.3182 -0.5,10.5C -0.5,7.83333 -0.5,5.16667 -0.5,2.5 Z M 284.5,153.5 C 289.382,154.302 294.382,154.636 299.5,154.5C 294.781,184.646 290.115,214.813 285.5,245C 286.995,266.325 297.995,279.991 318.5,286C 324.833,286.667 331.167,286.667 337.5,286C 364.17,276.389 390.837,266.889 417.5,257.5C 417.516,260.881 419.016,263.214 422,264.5C 426.858,263.252 431.691,262.919 436.5,263.5C 428.61,281.192 415.11,291.525 396,294.5C 394.69,297.503 394.524,300.503 395.5,303.5C 400.317,305.41 404.984,307.576 409.5,310C 400.128,316.792 389.628,320.625 378,321.5C 371.29,320.742 364.456,319.575 357.5,318C 356.072,320.185 354.405,322.185 352.5,324C 356.023,328.022 359.357,332.189 362.5,336.5C 342.799,339.895 326.632,333.895 314,318.5C 310.834,319.167 308,320.5 305.5,322.5C 306.363,327.386 307.363,332.22 308.5,337C 289.665,330.817 278.665,317.817 275.5,298C 272.776,297.73 270.109,297.23 267.5,296.5C 264.743,301.682 262.243,307.015 260,312.5C 247.818,297.077 245.318,280.244 252.5,262C 250.57,259.405 248.07,257.572 245,256.5C 240.762,259.372 236.596,262.372 232.5,265.5C 230.912,257.663 231.412,249.996 234,242.5C 251.184,235.662 268.35,228.829 285.5,222C 280.073,208.556 274.74,195.056 269.5,181.5C 271.813,178.98 273.146,175.98 273.5,172.5C 270.956,170.981 268.289,169.648 265.5,168.5C 264.112,166.891 263.112,165.058 262.5,163C 269.066,157.981 276.4,154.814 284.5,153.5 Z"/></g><g><path style="opacity:1" fill="#000000" d="M 602.5,454.5 C 602.5,456.5 602.5,458.5 602.5,460.5C 560.566,463.702 518.9,460.535 477.5,451C 429.634,441.37 383.634,426.203 339.5,405.5C 338.479,406.002 338.312,406.668 339,407.5C 348.032,421.701 356.865,436.034 365.5,450.5C 361.899,458.053 357.732,458.386 353,451.5C 340.233,430.962 327.733,410.295 315.5,389.5C 316.222,387.056 317.222,384.722 318.5,382.5C 342.477,380.767 366.477,379.933 390.5,380C 394.925,382.549 395.592,385.882 392.5,390C 374.528,391.2 356.528,391.866 338.5,392C 373.805,409.994 410.805,423.66 449.5,433C 498.608,446.349 548.608,452.682 599.5,452C 600.691,452.698 601.691,453.531 602.5,454.5 Z"/></g><g><path style="opacity:1" fill="#000000" d="M 195.5,470.5 C 225.841,470.167 256.174,470.5 286.5,471.5C 293.638,488.802 304.972,502.635 320.5,513C 337.914,519.104 355.581,524.438 373.5,529C 383.506,532.069 391.34,537.903 397,546.5C 398.918,551.674 400.084,557.007 400.5,562.5C 365.814,562.896 331.148,562.396 296.5,561C 290.978,559.937 285.644,558.27 280.5,556C 273.112,551.639 265.446,547.806 257.5,544.5C 256.505,549.792 256.172,555.125 256.5,560.5C 235.258,560.827 214.091,560.494 193,559.5C 192.667,553.5 192.333,547.5 192,541.5C 183.605,528.204 181.272,513.87 185,498.5C 187.819,488.872 191.319,479.538 195.5,470.5 Z"/></g><g><path style="opacity:1" fill="#000000" d="M 232.5,603.5 C 200.833,603.5 169.167,603.5 137.5,603.5C 130.762,602.976 124.095,601.476 117.5,599C 108.124,594.596 98.7902,590.096 89.5,585.5C 88.5052,590.792 88.1718,596.125 88.5,601.5C 67.5,601.5 46.5,601.5 25.5,601.5C 25.6662,595.491 25.4995,589.491 25,583.5C 15.6358,568.973 13.3025,553.307 18,536.5C 20.3356,528.163 23.5023,520.163 27.5,512.5C 57.8333,511.167 88.1667,511.167 118.5,512.5C 125.37,528.419 135.704,541.585 149.5,552C 155.488,555.494 161.821,558.161 168.5,560C 182.01,563.044 195.343,566.711 208.5,571C 223.672,576.502 231.672,587.335 232.5,603.5 Z"/></g></svg>