<svg xmlns="http://www.w3.org/2000/svg" version="1.1" width="711px" height="698px" style="shape-rendering:geometricPrecision; text-rendering:geometricPrecision; image-rendering:optimizeQuality; fill-rule:evenodd; clip-rule:evenodd" xmlns:xlink="http://www.w3.org/1999/xlink"><g><path style="opacity:1" fill="#000000" d="M 585.5,-0.5 C 626.833,-0.5 668.167,-0.5 709.5,-0.5C 709.511,3.80977 707.677,7.1431 704,9.5C 612.03,148.303 519.863,286.969 427.5,425.5C 394.921,442.706 362.421,460.039 330,477.5C 333.193,443.894 336.193,410.227 339,376.5C 339.118,371.481 340.451,366.815 343,362.5C 423.844,241.471 504.677,120.471 585.5,-0.5 Z"/></g><g><path style="opacity:1" fill="#000000" d="M 413.5,697.5 C 412.167,697.5 410.833,697.5 409.5,697.5C 369.993,690.637 350.327,666.97 350.5,626.5C 352.119,613.206 352.619,599.873 352,586.5C 351,583.5 350,580.5 349,577.5C 328.995,544.161 309.495,510.494 290.5,476.5C 260.102,454.55 229.269,433.217 198,412.5C 197.667,412.833 197.333,413.167 197,413.5C 195.538,422.128 194.872,430.795 195,439.5C 196.08,441.996 197.414,444.33 199,446.5C 210.455,457.616 220.789,469.616 230,482.5C 244.89,510.377 240.39,534.543 216.5,555C 211.578,558.378 206.745,561.878 202,565.5C 168.667,520.167 135.333,474.833 102,429.5C 99.6004,372.85 98.6004,316.183 99,259.5C 100.543,230.96 92.5425,205.626 75,183.5C 54.8227,161.998 36.156,139.331 19,115.5C 12.2631,108.27 5.76314,100.937 -0.5,93.5C -0.5,65.1667 -0.5,36.8333 -0.5,8.5C 65.0964,7.33727 130.763,7.1706 196.5,8C 248.467,68.9605 299.3,130.794 349,193.5C 367.133,213.294 384.133,233.96 400,255.5C 399.279,258.623 397.946,261.623 396,264.5C 373.942,296.227 352.275,328.227 331,360.5C 329.384,364.347 328.384,368.347 328,372.5C 324.31,413.761 320.143,454.928 315.5,496C 323.177,494.172 330.51,491.172 337.5,487C 347.748,481.293 357.915,475.46 368,469.5C 383.279,502.724 399.612,535.391 417,567.5C 418.864,572.324 419.698,577.324 419.5,582.5C 416.807,620.797 414.807,659.13 413.5,697.5 Z"/></g><g><path style="opacity:1" fill="#000000" d="M 484.5,384.5 C 492.635,384.689 500.635,385.856 508.5,388C 523.062,394.076 538.062,398.743 553.5,402C 578.037,437.568 601.704,473.735 624.5,510.5C 615.007,515.411 605.007,518.911 594.5,521C 574.697,523.511 558.531,517.011 546,501.5C 536.873,488.085 528.373,474.251 520.5,460C 507.091,454.897 493.425,450.564 479.5,447C 461.721,439.61 454.887,426.444 459,407.5C 463.004,394.655 471.504,386.988 484.5,384.5 Z"/></g><g><path style="opacity:1" fill="#000000" d="M 710.5,433.5 C 710.5,433.833 710.5,434.167 710.5,434.5C 694.063,459.703 671.73,466.537 643.5,455C 637.347,448.917 630.013,446.25 621.5,447C 614.78,450.035 607.78,451.035 600.5,450C 598.667,448.167 596.833,446.333 595,444.5C 586.124,429.243 576.624,414.409 566.5,400C 587.131,395.473 607.798,391.473 628.5,388C 634.954,390.727 641.288,393.727 647.5,397C 668.388,409.394 689.388,421.561 710.5,433.5 Z"/></g><g><path style="opacity:1" fill="#000000" d="M 420.5,443.5 C 424.974,443.54 429.474,443.54 434,443.5C 460.42,453.623 486.92,463.623 513.5,473.5C 537.34,514.509 560.673,555.842 583.5,597.5C 564.803,607.446 545.47,608.946 525.5,602C 516.379,596.546 508.879,589.38 503,580.5C 494.484,563.469 485.984,546.469 477.5,529.5C 461.115,521.983 444.449,515.149 427.5,509C 419.847,505.508 412.513,501.508 405.5,497C 391.177,481.819 391.177,466.485 405.5,451C 410.313,447.927 415.313,445.427 420.5,443.5 Z"/></g></svg>