<svg xmlns="http://www.w3.org/2000/svg" version="1.1" width="547px" height="599px" style="shape-rendering:geometricPrecision; text-rendering:geometricPrecision; image-rendering:optimizeQuality; fill-rule:evenodd; clip-rule:evenodd" xmlns:xlink="http://www.w3.org/1999/xlink"><g><path style="opacity:1" fill="#000000" d="M 309.5,-0.5 C 386.833,-0.5 464.167,-0.5 541.5,-0.5C 541.5,132.167 541.5,264.833 541.5,397.5C 464.167,397.5 386.833,397.5 309.5,397.5C 309.5,264.833 309.5,132.167 309.5,-0.5 Z"/></g><g><path style="opacity:1" fill="#000000" d="M -0.5,80.5 C -0.5,79.5 -0.5,78.5 -0.5,77.5C 39.6052,63.0754 79.7719,48.7421 120,34.5C 120.5,34.8333 121,35.1667 121.5,35.5C 181.464,191.755 241.131,348.088 300.5,504.5C 260.126,518.625 219.793,532.959 179.5,547.5C 119.475,391.744 59.4747,236.077 -0.5,80.5 Z M 170.5,285.5 C 171.822,285.33 172.989,285.663 174,286.5C 182.402,307.873 190.902,329.206 199.5,350.5C 206.557,349.877 213.391,347.877 220,344.5C 220.5,345 221,345.5 221.5,346C 214.716,370.974 207.549,395.808 200,420.5C 178.333,406.167 156.667,391.833 135,377.5C 134.383,376.551 134.549,375.718 135.5,375C 142.215,373.157 148.549,370.657 154.5,367.5C 145.039,345.446 136.372,323.112 128.5,300.5C 142.771,296.02 156.771,291.02 170.5,285.5 Z"/></g><g><path style="opacity:1" fill="#000000" d="M 546.5,469.5 C 546.5,481.5 546.5,493.5 546.5,505.5C 544.155,522.695 538.322,538.695 529,553.5C 527.846,568.145 527.346,582.811 527.5,597.5C 521.31,597.177 515.31,597.51 509.5,598.5C 469.833,598.5 430.167,598.5 390.5,598.5C 391.611,583.832 391.611,569.165 390.5,554.5C 389.707,554.069 388.873,553.735 388,553.5C 355.197,578.682 318.03,593.182 276.5,597C 208.167,597.5 139.834,597.667 71.5,597.5C 71.789,566.068 86.789,545.568 116.5,536C 131.231,531.545 146.231,528.378 161.5,526.5C 164.034,534.576 166.867,542.576 170,550.5C 174,552.5 178,554.5 182,556.5C 222.522,541.937 263.022,527.27 303.5,512.5C 306.03,508.774 308.03,504.774 309.5,500.5C 303.737,485.711 298.07,470.878 292.5,456C 296.871,449.43 301.371,442.93 306,436.5C 309.833,428.833 313.667,421.167 317.5,413.5C 388.5,412.167 459.5,412.167 530.5,413.5C 538.918,431.404 544.251,450.071 546.5,469.5 Z"/></g></svg>