<svg xmlns="http://www.w3.org/2000/svg" version="1.1" width="711px" height="567px" style="shape-rendering:geometricPrecision; text-rendering:geometricPrecision; image-rendering:optimizeQuality; fill-rule:evenodd; clip-rule:evenodd" xmlns:xlink="http://www.w3.org/1999/xlink"><g><path style="opacity:0.866" fill="#000000" d="M 422.5,-0.5 C 429.833,-0.5 437.167,-0.5 444.5,-0.5C 447.835,1.17037 451.169,2.83704 454.5,4.5C 456.997,8.18263 459.164,12.1826 461,16.5C 461.636,20.2265 462.803,23.7265 464.5,27C 457.684,45.2195 450.851,62.7195 444,79.5C 442.9,102.499 441.733,125.499 440.5,148.5C 440.371,153.962 441.038,159.295 442.5,164.5C 435.389,164.843 428.389,165.843 421.5,167.5C 410.585,167.286 399.585,166.453 388.5,165C 382.592,163.376 376.926,161.209 371.5,158.5C 371.167,154.667 370.833,150.833 370.5,147C 371.527,122.827 372.693,98.6599 374,74.5C 381.146,56.8806 388.812,39.5473 397,22.5C 403.498,12.4967 411.998,4.83002 422.5,-0.5 Z M 428.5,10.5 C 441.684,8.18324 449.018,13.6832 450.5,27C 446.659,39.094 442.326,50.594 437.5,61.5C 430.4,65.5873 422.734,67.2539 414.5,66.5C 406.664,67.2055 399.331,65.7055 392.5,62C 397.507,49.7933 403.173,37.96 409.5,26.5C 414.192,19.019 420.525,13.6857 428.5,10.5 Z M 390.5,67.5 C 404.77,72.2308 419.104,72.5641 433.5,68.5C 433.833,68.8333 434.167,69.1667 434.5,69.5C 433.03,72.273 431.697,75.1063 430.5,78C 430.645,78.772 430.978,79.4387 431.5,80C 430.584,97.796 429.584,115.629 428.5,133.5C 413.005,137.834 397.671,137.334 382.5,132C 384.237,116.371 385.57,100.538 386.5,84.5C 385.735,81.996 386.069,79.496 387.5,77C 387.167,76.6667 386.833,76.3333 386.5,76C 388.246,73.3413 389.58,70.508 390.5,67.5 Z M 383.5,137.5 C 398.078,142.593 412.912,142.593 428,137.5C 428.554,143.188 428.387,148.855 427.5,154.5C 413.011,156.379 398.677,155.545 384.5,152C 382.941,150.004 382.274,147.671 382.5,145C 382.625,142.449 382.958,139.949 383.5,137.5 Z"/></g><g><path style="opacity:0.86" fill="#000000" d="M 525.5,24.5 C 532.175,24.3337 538.842,24.5004 545.5,25C 546.716,26.7398 548.382,27.7398 550.5,28C 551.729,29.5292 553.229,30.6959 555,31.5C 557.721,36.8823 559.888,42.5489 561.5,48.5C 561.413,50.7034 561.413,52.8701 561.5,55C 553.463,70.2411 545.296,85.4077 537,100.5C 535.578,118.874 533.745,137.207 531.5,155.5C 531.582,158.98 532.248,162.313 533.5,165.5C 526.134,166.002 518.8,166.668 511.5,167.5C 495.968,166.827 480.968,163.66 466.5,158C 464.264,157.266 462.931,155.766 462.5,153.5C 465.977,131.724 469.81,109.724 474,87.5C 481.787,75.5899 488.787,63.2565 495,50.5C 502.149,38.192 512.316,29.5254 525.5,24.5 Z M 530.5,35.5 C 540.895,34.3597 546.895,39.193 548.5,50C 547.701,54.1003 546.201,57.9336 544,61.5C 538.144,71.4079 532.478,81.4079 527,91.5C 513.766,94.1495 501.599,91.6495 490.5,84C 497.033,71.7649 504.2,59.9316 512,48.5C 517.053,42.2534 523.219,37.92 530.5,35.5 Z M 487.5,88.5 C 498.813,95.3759 511.146,98.3759 524.5,97.5C 522.995,113.097 521.662,128.431 520.5,143.5C 507.77,145.028 495.104,144.528 482.5,142C 480.668,141.252 479.001,140.252 477.5,139C 479.877,127.2 482.211,115.367 484.5,103.5C 484.291,102.914 483.957,102.414 483.5,102C 484.97,97.5067 486.304,93.0067 487.5,88.5 Z M 476.5,144.5 C 490.151,149.127 504.151,150.461 518.5,148.5C 519.363,150.771 519.363,153.105 518.5,155.5C 504.439,155.989 490.773,153.989 477.5,149.5C 476.548,147.955 476.215,146.288 476.5,144.5 Z"/></g><g><path style="opacity:0.86" fill="#000000" d="M 333.5,53.5 C 340.7,53.0337 347.367,54.7004 353.5,58.5C 358.332,63.7873 361.665,69.9539 363.5,77C 360.364,89.4562 356.198,101.623 351,113.5C 349.977,116.783 349.143,120.116 348.5,123.5C 349.666,139.156 350.833,154.822 352,170.5C 353.189,173.535 354.355,176.535 355.5,179.5C 344.847,180.927 334.18,182.26 323.5,183.5C 312.033,182.7 300.7,181.033 289.5,178.5C 289.933,157.167 290.433,135.834 291,114.5C 295.87,103.418 300.203,92.0843 304,80.5C 308.169,71.3129 314.335,63.8129 322.5,58C 326.488,56.717 330.155,55.217 333.5,53.5 Z M 334.5,65.5 C 344.113,64.4432 349.113,68.7765 349.5,78.5C 345.315,91.5498 341.149,104.216 337,116.5C 335.681,118.487 333.848,119.654 331.5,120C 321.785,122.58 312.452,121.746 303.5,117.5C 307.489,107.204 311.322,96.8706 315,86.5C 318.89,79.8866 323.39,73.7199 328.5,68C 330.723,67.4338 332.723,66.6005 334.5,65.5 Z M 303.5,123.5 C 314.026,127.472 324.526,127.472 335,123.5C 337.227,132.683 338.06,142.016 337.5,151.5C 325.843,153.788 314.176,153.955 302.5,152C 303.485,142.583 303.818,133.083 303.5,123.5 Z M 335.5,155.5 C 336.5,155.5 337.5,155.5 338.5,155.5C 338.337,160.547 338.671,165.547 339.5,170.5C 327.473,171.972 315.473,171.806 303.5,170C 302.536,165.934 302.203,161.767 302.5,157.5C 313.174,158.825 323.841,158.658 334.5,157C 335.056,156.617 335.389,156.117 335.5,155.5 Z"/></g><g><path style="opacity:0.865" fill="#000000" d="M 237.5,89.5 C 254.571,88.6641 265.571,96.1641 270.5,112C 267.833,113.667 267.833,115.333 270.5,117C 269.903,118.062 269.57,119.228 269.5,120.5C 272.603,140.231 274.769,159.898 276,179.5C 276.922,182.991 278.089,186.325 279.5,189.5C 268.555,190.993 257.888,192.66 247.5,194.5C 244.167,193.167 240.833,193.167 237.5,194.5C 231.501,193.168 225.501,191.834 219.5,190.5C 217.971,167.178 216.638,143.845 215.5,120.5C 216,116.5 216.5,112.5 217,108.5C 218.588,104.328 220.422,100.328 222.5,96.5C 227.411,93.9742 232.411,91.6408 237.5,89.5 Z M 240.5,101.5 C 247.4,100.917 252.566,103.584 256,109.5C 256.904,120.538 258.07,131.538 259.5,142.5C 249.587,144.862 239.587,145.528 229.5,144.5C 228.888,135.762 228.554,127.095 228.5,118.5C 229.073,112.998 231.073,108.165 234.5,104C 236.611,103.155 238.611,102.322 240.5,101.5 Z M 258.5,146.5 C 260.259,149.892 261.259,153.725 261.5,158C 261.265,158.873 260.931,159.707 260.5,160.5C 261.71,167 262.71,173.5 263.5,180C 256.516,180.965 249.516,181.798 242.5,182.5C 238.89,182.205 235.39,181.538 232,180.5C 230.774,170.203 230.274,159.87 230.5,149.5C 232.92,149.292 235.253,149.626 237.5,150.5C 244.797,150.099 251.797,148.765 258.5,146.5 Z"/></g><g><path style="opacity:0.847" fill="#000000" d="M 710.5,302.5 C 710.5,306.167 710.5,309.833 710.5,313.5C 702.9,324.583 692.9,333.083 680.5,339C 661.909,347.293 644.575,357.626 628.5,370C 624,374.833 619.5,379.667 615,384.5C 611.539,394.803 607.705,404.97 603.5,415C 597.529,423.632 590.863,431.632 583.5,439C 561.22,457.481 537.22,473.481 511.5,487C 484.437,506.635 473.77,533.135 479.5,566.5C 475.5,566.5 471.5,566.5 467.5,566.5C 467.528,552.152 468.028,537.818 469,523.5C 476.372,506.122 487.539,491.622 502.5,480C 528.861,465.821 553.528,449.154 576.5,430C 588.856,418.795 596.689,404.961 600,388.5C 602.294,383.612 604.961,378.945 608,374.5C 620.05,361.717 633.883,351.217 649.5,343C 649.799,339.828 650.965,336.662 653,333.5C 655.748,328.748 659.248,324.581 663.5,321C 669.138,315.85 675.138,311.183 681.5,307C 682.833,306.333 684.167,306.333 685.5,307C 688.779,309.223 692.279,311.057 696,312.5C 697.947,311.956 698.78,310.623 698.5,308.5C 697.678,304.723 695.345,302.223 691.5,301C 678.458,296.254 665.125,294.92 651.5,297C 609.405,307.869 573.738,329.203 544.5,361C 538.953,365.333 533.287,365.833 527.5,362.5C 523.125,356.211 520.625,349.211 520,341.5C 518.923,321.857 518.09,302.19 517.5,282.5C 510.126,280.448 502.626,279.115 495,278.5C 486.34,279.465 477.84,281.132 469.5,283.5C 469.452,280.708 470.785,278.875 473.5,278C 488.43,273.532 503.43,273.365 518.5,277.5C 518.833,260.82 518.499,244.153 517.5,227.5C 505.588,223.341 493.588,222.841 481.5,226C 479.167,227.167 476.833,228.333 474.5,229.5C 473.167,228.833 472.167,227.833 471.5,226.5C 476.055,222.523 481.388,220.356 487.5,220C 497.692,218.842 507.692,219.675 517.5,222.5C 518.664,216.193 518.831,209.859 518,203.5C 511.031,205.686 503.864,207.019 496.5,207.5C 487.456,206.775 478.456,205.775 469.5,204.5C 468.696,228.137 468.196,251.803 468,275.5C 463.421,285.439 455.921,288.939 445.5,286C 441.333,283.167 437.833,279.667 435,275.5C 433.751,258.923 432.251,242.423 430.5,226C 415.344,220.878 400.51,221.378 386,227.5C 383.5,226.667 383,225.167 384.5,223C 389.447,220.485 394.614,218.651 400,217.5C 403.646,218.157 407.479,218.157 411.5,217.5C 417.855,218.419 424.188,219.419 430.5,220.5C 430.546,213.809 430.212,207.143 429.5,200.5C 413.726,204.645 398.059,204.312 382.5,199.5C 382.542,208.029 382.209,216.529 381.5,225C 381.983,242.491 383.149,259.991 385,277.5C 387.943,275.625 391.11,274.125 394.5,273C 400.038,272.764 405.538,272.264 411,271.5C 418.889,272.978 426.723,274.644 434.5,276.5C 434.845,279.488 433.512,280.821 430.5,280.5C 414.93,274.685 399.597,275.185 384.5,282C 379.878,288.553 373.712,292.72 366,294.5C 358.401,292.568 352.901,288.068 349.5,281C 339.833,279 330.167,279 320.5,281C 316.121,282.023 312.121,283.856 308.5,286.5C 307.522,286.023 306.689,285.357 306,284.5C 307.226,297.164 301.726,303.831 289.5,304.5C 284.799,303.068 280.633,300.734 277,297.5C 275.705,281.222 273.872,264.888 271.5,248.5C 271.709,247.914 272.043,247.414 272.5,247C 259.966,243.09 247.8,243.923 236,249.5C 236.669,265.528 238.002,281.528 240,297.5C 241.648,296.283 243.481,295.45 245.5,295C 254.23,294.124 262.896,294.458 271.5,296C 272.82,298.215 272.153,299.715 269.5,300.5C 259.398,297.603 249.565,298.269 240,302.5C 239.918,309.685 240.418,316.852 241.5,324C 239.661,347.593 240.495,371.093 244,394.5C 245.408,398.057 246.408,401.724 247,405.5C 253.667,415.5 260.333,425.5 267,435.5C 283.95,476.867 290.45,519.867 286.5,564.5C 282.846,564.058 279.179,563.724 275.5,563.5C 276.42,534.86 274.253,506.527 269,478.5C 264.149,455.47 254.482,434.804 240,416.5C 232.538,402.548 228.871,387.548 229,371.5C 228.196,355.475 228.363,339.475 229.5,323.5C 226.789,288.68 224.122,253.68 221.5,218.5C 227.564,216.973 233.564,215.14 239.5,213C 251.943,210.429 264.11,211.263 276,215.5C 277.938,214.14 279.604,214.473 281,216.5C 282.91,241.463 285.577,266.463 289,291.5C 290.079,293.394 291.413,293.727 293,292.5C 292.655,260.828 291.822,229.161 290.5,197.5C 297.04,195.408 303.707,193.575 310.5,192C 325.987,190.156 340.987,191.989 355.5,197.5C 356.298,199.078 356.798,200.744 357,202.5C 358.448,228.543 360.448,254.543 363,280.5C 365.966,283.265 368.633,282.932 371,279.5C 371.319,248.245 370.486,217.079 368.5,186C 374.823,185.335 380.823,183.668 386.5,181C 395.103,179.552 403.603,178.719 412,178.5C 421.682,180.129 431.182,182.462 440.5,185.5C 441.926,214.328 443.76,242.661 446,270.5C 447.346,273.179 449.346,275.179 452,276.5C 453.261,276.241 454.261,275.574 455,274.5C 456.318,246.516 457.151,218.516 457.5,190.5C 459.262,190.643 460.929,190.309 462.5,189.5C 463.386,190.325 463.719,191.325 463.5,192.5C 474.267,194.286 485.1,195.619 496,196.5C 505.927,196.191 515.427,194.024 524.5,190C 522.058,189.06 519.725,187.894 517.5,186.5C 518,186.167 518.5,185.833 519,185.5C 522.603,187.424 526.436,188.424 530.5,188.5C 530.333,235.835 530.5,283.168 531,330.5C 530.645,338.662 532.312,346.329 536,353.5C 569.641,317.316 610.808,294.316 659.5,284.5C 674.865,285.192 689.531,288.692 703.5,295C 706.478,297.099 708.811,299.599 710.5,302.5 Z M 394.5,182.5 C 406.963,181.447 418.963,183.114 430.5,187.5C 425.817,189.893 420.817,191.393 415.5,192C 402.974,192.497 390.641,191.164 378.5,188C 383.942,186.149 389.275,184.316 394.5,182.5 Z M 430.5,193.5 C 436.039,194.502 436.372,195.836 431.5,197.5C 430.571,196.311 430.238,194.978 430.5,193.5 Z M 323.5,194.5 C 332.287,195.291 340.954,196.791 349.5,199C 345.185,201.549 340.519,202.882 335.5,203C 326.81,203.51 318.144,203.176 309.5,202C 306.21,201.747 303.21,200.747 300.5,199C 308.086,196.368 315.753,194.868 323.5,194.5 Z M 465.5,198.5 C 466.776,199.386 466.776,200.386 465.5,201.5C 464.913,200.767 464.913,199.767 465.5,198.5 Z M 520.5,198.5 C 524.588,198.218 525.088,198.885 522,200.5C 520.97,200.164 520.47,199.497 520.5,198.5 Z M 347.5,205.5 C 351.3,205.819 351.466,206.819 348,208.5C 347.517,207.552 347.351,206.552 347.5,205.5 Z M 303.5,211.5 C 317.505,214.091 331.505,214.091 345.5,211.5C 345.739,215.842 346.073,220.176 346.5,224.5C 335.459,221.113 324.292,220.78 313,223.5C 312.667,223.167 312.333,222.833 312,222.5C 309.333,223.833 306.667,225.167 304,226.5C 303.501,221.511 303.334,216.511 303.5,211.5 Z M 243.5,215.5 C 253.624,215.006 263.624,215.839 273.5,218C 271.779,219.527 269.779,220.527 267.5,221C 255.004,223.722 242.67,223.389 230.5,220C 234.893,218.329 239.226,216.829 243.5,215.5 Z M 270.5,223.5 C 275.281,223.717 276.114,225.384 273,228.5C 271.628,227.09 270.795,225.423 270.5,223.5 Z M 323.5,225.5 C 331.534,225.854 339.367,227.187 347,229.5C 348.145,245.436 348.979,261.102 349.5,276.5C 337.426,274.005 325.426,274.505 313.5,278C 310.751,279.123 308.251,280.623 306,282.5C 304.523,265.592 303.689,248.592 303.5,231.5C 306.223,230.648 308.89,229.481 311.5,228C 315.665,227.295 319.665,226.461 323.5,225.5 Z M 234.5,230.5 C 246.071,232.642 257.738,232.975 269.5,231.5C 270.051,234.807 270.384,238.14 270.5,241.5C 262.483,240.755 254.817,240.421 247.5,240.5C 243.417,241.148 239.583,242.482 236,244.5C 234.775,239.915 234.275,235.248 234.5,230.5 Z M 663.5,334.5 C 668.673,327.161 675.006,320.994 682.5,316C 685.275,316.374 687.942,317.374 690.5,319C 682.424,325.707 673.424,330.874 663.5,334.5 Z"/></g><g><path style="opacity:0.269" fill="#000000" d="M 486.5,183.5 C 491.214,183.173 495.88,183.507 500.5,184.5C 498.167,184.833 495.833,185.167 493.5,185.5C 490.731,185.471 488.397,184.805 486.5,183.5 Z"/></g><g><path style="opacity:0.2" fill="#000000" d="M 501.5,183.5 C 502.978,183.238 504.311,183.571 505.5,184.5C 504.833,184.833 504.167,185.167 503.5,185.5C 502.287,185.253 501.62,184.586 501.5,183.5 Z"/></g><g><path style="opacity:0.096" fill="#000000" d="M 475.5,184.5 C 481.715,184.331 482.382,185.331 477.5,187.5C 476.081,186.995 475.415,185.995 475.5,184.5 Z"/></g><g><path style="opacity:0.109" fill="#000000" d="M 509.5,184.5 C 510.675,184.281 511.675,184.614 512.5,185.5C 510.948,186.798 509.948,186.465 509.5,184.5 Z"/></g><g><path style="opacity:0.106" fill="#000000" d="M 513.5,184.5 C 514.5,184.5 515.5,184.5 516.5,184.5C 516.5,185.5 516.5,186.5 516.5,187.5C 515.5,187.5 514.5,187.5 513.5,187.5C 513.5,186.5 513.5,185.5 513.5,184.5 Z"/></g><g><path style="opacity:0.197" fill="#000000" d="M 471.5,185.5 C 472.675,185.281 473.675,185.614 474.5,186.5C 472.948,187.798 471.948,187.465 471.5,185.5 Z"/></g><g><path style="opacity:0.116" fill="#000000" d="M 466.5,187.5 C 470.278,188.311 470.111,189.311 466,190.5C 465.5,190.167 465,189.833 464.5,189.5C 465.243,188.818 465.909,188.151 466.5,187.5 Z"/></g><g><path style="opacity:0.903" fill="#000000" d="M 116.5,193.5 C 124.228,193.189 131.895,193.689 139.5,195C 148.041,197.548 156.375,200.548 164.5,204C 166.466,205.46 168.132,207.127 169.5,209C 169.113,211.261 167.779,212.594 165.5,213C 151.654,214.391 137.821,216.225 124,218.5C 113.483,218.85 106.649,214.184 103.5,204.5C 104.139,201.677 105.473,199.177 107.5,197C 110.598,195.772 113.598,194.606 116.5,193.5 Z"/></g><g><path style="opacity:0.923" fill="#000000" d="M 192.5,217.5 C 195.085,217.332 197.085,218.665 198.5,221.5C 197.525,224.914 195.858,228.247 193.5,231.5C 190.386,232.091 187.886,233.758 186,236.5C 182.095,243.208 178.762,250.208 176,257.5C 166.985,271.689 154.818,275.522 139.5,269C 134.898,267.735 132.565,264.735 132.5,260C 132.865,256.237 134.032,252.737 136,249.5C 139.375,245.956 142.875,242.623 146.5,239.5C 161.234,230.729 176.567,223.396 192.5,217.5 Z"/></g><g><path style="opacity:0.912" fill="#000000" d="M -0.5,250.5 C -0.5,248.167 -0.5,245.833 -0.5,243.5C 1.30904,240.861 3.64238,238.694 6.5,237C 11.2383,234.419 16.2383,232.419 21.5,231C 34.5213,229.48 47.5213,227.98 60.5,226.5C 63.5,226.667 66.5,226.833 69.5,227C 75.4915,229.417 75.8248,232.251 70.5,235.5C 65.0938,238.535 59.4271,241.035 53.5,243C 47.4602,248.01 41.4602,253.01 35.5,258C 28.6963,262.572 21.3629,263.572 13.5,261C 8.05931,258.374 3.39264,254.874 -0.5,250.5 Z"/></g><g><path style="opacity:0.937" fill="#000000" d="M 108.5,250.5 C 114.398,250.626 115.898,253.293 113,258.5C 108.7,263.801 104.034,268.801 99,273.5C 93.93,283.539 88.7633,293.539 83.5,303.5C 77.0757,309.807 69.5757,313.14 61,313.5C 51.4499,313.721 43.4499,310.387 37,303.5C 36.7111,299.599 37.2111,295.766 38.5,292C 42.8052,286.694 47.4719,281.694 52.5,277C 70.1114,265.692 88.778,256.858 108.5,250.5 Z"/></g><g><path style="opacity:0.881" fill="#000000" d="M 173.5,277.5 C 178.799,277.549 179.799,279.715 176.5,284C 177.212,292.053 177.546,300.386 177.5,309C 175.263,313.57 172.263,317.57 168.5,321C 164.129,321.828 159.795,321.661 155.5,320.5C 150.281,316.96 149.115,312.293 152,306.5C 158.24,296.101 165.406,286.434 173.5,277.5 Z"/></g><g><path style="opacity:0.688" fill="#000000" d="M 291.5,323.5 C 305.053,327.544 316.719,334.711 326.5,345C 327.871,347.319 328.538,349.819 328.5,352.5C 327.022,352.762 325.689,352.429 324.5,351.5C 321.022,346.188 316.688,341.688 311.5,338C 304.991,334.245 298.324,330.745 291.5,327.5C 290.374,326.192 290.374,324.858 291.5,323.5 Z"/></g><g><path style="opacity:0.684" fill="#000000" d="M 483.5,327.5 C 487.625,327.723 488.291,329.223 485.5,332C 443.763,347.364 402.097,363.03 360.5,379C 352.167,386.667 343.833,394.333 335.5,402C 333.866,402.494 332.199,402.66 330.5,402.5C 338.518,392.646 347.518,383.479 357.5,375C 399.738,359.363 441.738,343.53 483.5,327.5 Z"/></g><g><path style="opacity:0.813" fill="#000000" d="M 463.5,369.5 C 464.675,369.281 465.675,369.614 466.5,370.5C 467.961,372.811 468.294,375.144 467.5,377.5C 431.997,391.933 418.33,417.933 426.5,455.5C 423.518,455.104 420.851,455.771 418.5,457.5C 408.262,424.585 417.262,398.418 445.5,379C 451.453,375.499 457.453,372.332 463.5,369.5 Z"/></g></svg>