<svg xmlns="http://www.w3.org/2000/svg" version="1.1" width="444px" height="546px" style="shape-rendering:geometricPrecision; text-rendering:geometricPrecision; image-rendering:optimizeQuality; fill-rule:evenodd; clip-rule:evenodd" xmlns:xlink="http://www.w3.org/1999/xlink"><g><path style="opacity:1" fill="#000000" d="M 191.5,-0.5 C 203.833,-0.5 216.167,-0.5 228.5,-0.5C 229.833,0.833333 231.167,0.833333 232.5,-0.5C 233.167,-0.5 233.833,-0.5 234.5,-0.5C 243.948,1.42536 253.281,3.92536 262.5,7C 272.151,10.4981 281.484,14.4981 290.5,19C 295.408,18.5965 299.408,20.2632 302.5,24C 307.282,24.1186 311.949,24.7852 316.5,26C 322.408,32.5815 329.408,37.5815 337.5,41C 342.138,47.3175 348.138,51.6508 355.5,54C 362.128,61.447 368.628,68.947 375,76.5C 377.486,79.8275 380.652,82.1609 384.5,83.5C 390.266,90.6901 394.766,98.6901 398,107.5C 399.667,108.833 401.333,110.167 403,111.5C 404.483,118.136 406.817,124.469 410,130.5C 408.816,134.063 409.816,137.063 413,139.5C 415.554,150.711 417.721,162.044 419.5,173.5C 419.449,175.1 419.116,176.6 418.5,178C 419.29,184.601 419.956,191.268 420.5,198C 419.833,201 419.167,204 418.5,207C 419.617,209.66 419.45,212.16 418,214.5C 417.333,217.833 417.333,221.167 418,224.5C 422.317,227.763 426.151,231.597 429.5,236C 434.711,237.666 439.377,240.166 443.5,243.5C 443.5,244.5 443.5,245.5 443.5,246.5C 437.253,249.459 430.92,252.126 424.5,254.5C 421.173,252.999 418.173,253.499 415.5,256C 412.167,256.333 408.833,256.667 405.5,257C 404.069,257.465 402.903,258.299 402,259.5C 399.014,270.587 397.347,281.92 397,293.5C 396.333,294.833 395.667,296.167 395,297.5C 394.783,302.553 394.283,307.553 393.5,312.5C 393.931,313.293 394.265,314.127 394.5,315C 393.363,320.627 391.863,326.127 390,331.5C 389.362,334.536 389.528,337.536 390.5,340.5C 387.427,351.652 385.26,362.985 384,374.5C 382.294,378.035 380.96,381.702 380,385.5C 376.426,400.356 373.093,415.356 370,430.5C 368.287,431.878 366.953,433.545 366,435.5C 365.168,443.161 363.168,450.494 360,457.5C 355.072,464.028 351.739,471.361 350,479.5C 347.597,481.305 345.93,483.638 345,486.5C 342.146,488.598 339.479,490.931 337,493.5C 336.667,494.833 336.333,496.167 336,497.5C 329.473,504.027 322.973,510.527 316.5,517C 310.994,517.2 306.328,519.2 302.5,523C 297.023,524.903 292.023,527.57 287.5,531C 278.083,534.54 268.417,537.206 258.5,539C 254.311,542.441 249.644,543.274 244.5,541.5C 242.998,542.083 241.665,542.916 240.5,544C 238.888,544.72 237.388,544.554 236,543.5C 234.698,544.085 233.531,544.751 232.5,545.5C 223.833,545.5 215.167,545.5 206.5,545.5C 194.163,542.551 181.83,539.384 169.5,536C 164.235,532.201 158.568,529.201 152.5,527C 147.685,520.759 141.352,517.426 133.5,517C 125.247,510.749 118.414,503.249 113,494.5C 110.629,491.794 107.963,489.461 105,487.5C 103.034,483.52 101.034,479.52 99,475.5C 89.3595,464.274 83.3595,451.274 81,436.5C 75.4203,427.654 71.7537,417.988 70,407.5C 67.6826,402.093 65.1826,396.759 62.5,391.5C 62.9867,390.554 63.3201,389.554 63.5,388.5C 62.568,382.537 60.7347,376.871 58,371.5C 57.9449,365.271 56.7783,359.271 54.5,353.5C 54.8333,352.833 55.1667,352.167 55.5,351.5C 53.5474,345.941 51.5474,340.441 49.5,335C 49.9111,333.856 50.2444,332.689 50.5,331.5C 48.9079,327.733 48.0745,323.733 48,319.5C 45.1214,317.322 44.9547,314.822 47.5,312C 45.9305,308.595 44.5972,305.095 43.5,301.5C 43.9867,300.554 44.3201,299.554 44.5,298.5C 43.3024,291.733 42.4691,285.066 42,278.5C 40.4138,276.33 39.0804,273.996 38,271.5C 35.8333,270 33.6667,268.5 31.5,267C 25.0815,265.622 18.7482,263.955 12.5,262C 10.3333,260.5 8.16667,259 6,257.5C 3.58595,258.856 1.41928,258.522 -0.5,256.5C -0.5,255.5 -0.5,254.5 -0.5,253.5C 6.26318,250.842 11.7632,246.508 16,240.5C 15.6405,226.516 15.1405,212.683 14.5,199C 16.0825,192.279 16.9159,185.446 17,178.5C 19.1545,165.728 21.8211,153.061 25,140.5C 29.8177,132.028 33.151,123.028 35,113.5C 37.6769,111.155 40.0103,108.488 42,105.5C 45.852,98.2895 49.5186,90.9561 53,83.5C 59.254,80.0004 63.9206,75.0004 67,68.5C 71.1329,63.3656 75.6329,58.5323 80.5,54C 87.307,51.1974 92.9736,46.864 97.5,41C 101.487,37.0027 106.154,34.0027 111.5,32C 115.901,25.8619 121.901,23.1952 129.5,24C 133.336,21.9164 137.003,19.583 140.5,17C 148.741,13.0447 157.074,9.378 165.5,6C 170.68,6.24867 175.347,4.91533 179.5,2C 183.796,1.92439 187.796,1.09106 191.5,-0.5 Z M 371.5,271.5 C 376.479,271.087 379.146,273.42 379.5,278.5C 379.12,288.026 379.12,297.526 379.5,307C 378.508,309.988 377.508,312.988 376.5,316C 377.756,317.845 378.756,319.845 379.5,322C 378.351,326.619 377.351,331.286 376.5,336C 376.911,337.144 377.244,338.311 377.5,339.5C 375.505,346.119 374.838,352.786 375.5,359.5C 372.697,368.809 370.697,378.309 369.5,388C 370.459,390.12 370.626,392.287 370,394.5C 366.329,399.332 364.829,404.665 365.5,410.5C 362.24,415.326 360.74,420.659 361,426.5C 359.287,427.878 357.953,429.545 357,431.5C 357.359,436.762 356.025,441.429 353,445.5C 352.636,452.896 349.636,458.896 344,463.5C 341.171,470.686 337.838,477.686 334,484.5C 324.885,492.944 315.719,501.444 306.5,510C 301.833,513 297.167,516 292.5,519C 285.87,518.785 279.87,520.452 274.5,524C 266.888,526.124 259.222,528.124 251.5,530C 249.287,530.626 247.12,530.459 245,529.5C 242.861,530.236 240.861,531.236 239,532.5C 238.107,531.919 237.107,531.585 236,531.5C 214.162,535.414 193.329,532.248 173.5,522C 168.594,520.524 163.594,519.524 158.5,519C 146.883,512.561 136.883,504.061 128.5,493.5C 123.916,491.954 120.082,489.288 117,485.5C 106.786,472.285 97.7863,458.285 90,443.5C 90.2862,436.353 87.6195,430.686 82,426.5C 79.9319,418.467 77.9319,410.467 76,402.5C 75.3848,400.884 74.3848,399.551 73,398.5C 71.6769,388.562 69.3436,378.896 66,369.5C 64.4014,360.941 63.4014,352.274 63,343.5C 62.3054,340.615 61.4721,337.782 60.5,335C 60.7065,333.634 61.0398,332.301 61.5,331C 60.2701,318.299 59.6035,305.633 59.5,293C 59.2861,289.431 59.9527,286.098 61.5,283C 70.0511,284.174 78.7177,285.174 87.5,286C 91.0992,288.862 95.2659,290.362 100,290.5C 102.667,291.833 105.333,293.167 108,294.5C 110.715,293.507 113.215,294.007 115.5,296C 122.56,297.134 129.56,298.467 136.5,300C 137.328,300.915 138.328,301.581 139.5,302C 151.013,303.211 162.346,305.378 173.5,308.5C 176.782,307.42 179.948,307.754 183,309.5C 187.501,308.88 192.001,308.546 196.5,308.5C 206.175,309.139 215.841,309.806 225.5,310.5C 238.521,310.064 251.521,308.731 264.5,306.5C 268.401,307.268 272.068,306.434 275.5,304C 277.899,303.289 280.232,303.456 282.5,304.5C 289.061,301.805 295.728,299.471 302.5,297.5C 304.098,298.485 305.765,298.651 307.5,298C 319.037,293.402 330.703,289.069 342.5,285C 348.606,285.538 353.939,283.871 358.5,280C 360.167,279.667 361.833,279.333 363.5,279C 366.855,277.169 369.522,274.669 371.5,271.5 Z"/></g></svg>