<svg xmlns="http://www.w3.org/2000/svg" version="1.1" width="762px" height="684px" style="shape-rendering:geometricPrecision; text-rendering:geometricPrecision; image-rendering:optimizeQuality; fill-rule:evenodd; clip-rule:evenodd" xmlns:xlink="http://www.w3.org/1999/xlink"><g><path style="opacity:1" fill="#000000" d="M 248.5,-0.5 C 252.167,-0.5 255.833,-0.5 259.5,-0.5C 265.331,2.81252 270.497,7.14586 275,12.5C 281.055,20.2224 286.722,28.2224 292,36.5C 311.164,69.4985 330.83,102.165 351,134.5C 359.497,148.428 359.497,162.428 351,176.5C 335.323,201.179 320.656,226.512 307,252.5C 306.219,253.944 306.386,255.277 307.5,256.5C 343.5,273.167 379.5,289.833 415.5,306.5C 444.965,293.845 474.632,281.678 504.5,270C 522.56,262.47 540.227,254.136 557.5,245C 563.167,243 568.833,243 574.5,245C 584.494,249.996 592.994,256.83 600,265.5C 623.443,302.273 648.443,337.94 675,372.5C 684.849,386.975 683.349,400.141 670.5,412C 654.484,421.283 639.15,420.283 624.5,409C 621,405.5 617.5,402 614,398.5C 606.76,387.923 598.76,377.923 590,368.5C 575.988,353.154 561.321,338.488 546,324.5C 519.437,340.716 492.604,356.549 465.5,372C 458.152,376.34 451.152,381.173 444.5,386.5C 487.714,412.693 530.881,439.027 574,465.5C 585,485.167 596,504.833 607,524.5C 616.579,537.324 625.912,550.324 635,563.5C 643.261,576.362 644.261,589.695 638,603.5C 622.952,621.905 605.452,624.405 585.5,611C 582.051,608.518 578.884,605.685 576,602.5C 550.833,566.667 525.667,530.833 500.5,495C 417.787,451.98 335.454,408.48 253.5,364.5C 251.914,385.48 250.58,406.48 249.5,427.5C 249.833,429.833 250.167,432.167 250.5,434.5C 283.482,451.653 317.149,467.153 351.5,481C 372.455,491.533 377.622,507.367 367,528.5C 361.781,538.196 353.615,542.863 342.5,542.5C 336.751,542.25 331.084,541.417 325.5,540C 302.844,532.003 280.178,524.003 257.5,516C 237.448,508.48 219.115,498.147 202.5,485C 186.056,469.603 179.056,450.603 181.5,428C 182.545,399.829 183.711,371.662 185,343.5C 186.314,325.557 191.648,308.89 201,293.5C 229.143,250.058 255.643,205.558 280.5,160C 262.567,123.298 243.734,87.1317 224,51.5C 211.038,23.7675 219.205,6.43418 248.5,-0.5 Z"/></g><g><path style="opacity:1" fill="#000000" d="M 150.5,172.5 C 183.723,171.847 204.556,187.514 213,219.5C 216.126,246.079 206.293,266.246 183.5,280C 155.183,292.378 131.017,286.878 111,263.5C 95.5442,238.894 96.5442,214.894 114,191.5C 124.41,181.547 136.577,175.213 150.5,172.5 Z"/></g><g><path style="opacity:1" fill="#000000" d="M -0.5,629.5 C 253.5,629.5 507.5,629.5 761.5,629.5C 761.5,647.5 761.5,665.5 761.5,683.5C 507.5,683.5 253.5,683.5 -0.5,683.5C -0.5,665.5 -0.5,647.5 -0.5,629.5 Z"/></g></svg>