<svg xmlns="http://www.w3.org/2000/svg" version="1.1" width="532px" height="765px" style="shape-rendering:geometricPrecision; text-rendering:geometricPrecision; image-rendering:optimizeQuality; fill-rule:evenodd; clip-rule:evenodd" xmlns:xlink="http://www.w3.org/1999/xlink"><g><path style="opacity:1" fill="#000000" d="M 252.5,-0.5 C 329.833,-0.5 407.167,-0.5 484.5,-0.5C 485.048,1.53235 486.381,2.53235 488.5,2.5C 488.167,128.168 488.5,253.835 489.5,379.5C 492.796,380.765 496.129,381.932 499.5,383C 501.224,383.448 501.891,384.282 501.5,385.5C 503.961,384.693 506.294,385.193 508.5,387C 516.897,393.185 523.564,401.519 528.5,412C 527.833,412.333 527.167,412.667 526.5,413C 527.667,413.5 528.5,414.333 529,415.5C 529.116,418.658 529.949,421.658 531.5,424.5C 531.5,425.833 531.5,427.167 531.5,428.5C 530.167,428.833 530.167,429.167 531.5,429.5C 531.5,430.167 531.5,430.833 531.5,431.5C 525.409,432.934 519.243,433.934 513,434.5C 512.5,498.166 512.333,561.832 512.5,625.5C 459.833,625.5 407.167,625.5 354.5,625.5C 354.5,671.833 354.5,718.167 354.5,764.5C 302.167,764.5 249.833,764.5 197.5,764.5C 197.986,746.347 197.486,728.347 196,710.5C 185.224,728.391 174.724,746.391 164.5,764.5C 136.167,764.5 107.833,764.5 79.5,764.5C 121.111,693.447 163.111,622.613 205.5,552C 286.737,551.832 367.903,551.332 449,550.5C 449.667,512.167 449.667,473.833 449,435.5C 444.469,433.753 439.635,432.92 434.5,433C 433.5,432.167 432.5,431.333 431.5,430.5C 432.414,407.652 443.081,391.652 463.5,382.5C 464.086,382.709 464.586,383.043 465,383.5C 469.381,381.906 473.715,380.239 478,378.5C 478.667,258.5 478.667,138.5 478,18.5C 408.571,17.5019 339.071,17.1686 269.5,17.5C 269.167,41.8425 269.5,66.1758 270.5,90.5C 301.5,110.333 332.5,130.167 363.5,150C 366.877,152.746 369.543,156.08 371.5,160C 371.167,160.333 370.833,160.667 370.5,161C 372.435,164.378 373.768,168.045 374.5,172C 374.161,175.339 374.161,178.339 374.5,181C 373.5,181.833 372.5,182.667 371.5,183.5C 293.502,184.667 215.502,184.833 137.5,184C 136.975,183.308 136.308,182.808 135.5,182.5C 134.963,179.137 134.629,175.803 134.5,172.5C 134.819,169.355 135.819,166.522 137.5,164C 137.043,163.586 136.709,163.086 136.5,162.5C 137.979,158.206 139.812,154.539 142,151.5C 177.192,131.68 212.859,111.013 249,89.5C 249.167,60.4943 249.667,31.4943 250.5,2.5C 251.425,1.64314 252.092,0.643141 252.5,-0.5 Z M 472.5,389.5 C 491.925,386.964 506.759,393.964 517,410.5C 519.299,414.896 520.466,419.562 520.5,424.5C 517.813,424.664 515.146,424.497 512.5,424C 503.602,399.917 487.269,392.917 463.5,403C 456.215,407.96 451.715,414.793 450,423.5C 443.193,426.603 440.86,424.603 443,417.5C 448.54,403.455 458.374,394.122 472.5,389.5 Z"/></g><g><path style="opacity:1" fill="#000000" d="M 139.5,224.5 C 142.863,230.217 146.029,236.217 149,242.5C 158.478,251.1 157.645,258.6 146.5,265C 136.561,266.809 130.561,262.809 128.5,253C 132.468,243.593 136.135,234.093 139.5,224.5 Z"/></g><g><path style="opacity:1" fill="#000000" d="M 268.5,225.5 C 272.083,230.327 274.916,235.661 277,241.5C 287.064,250.223 286.564,258.056 275.5,265C 265.428,266.971 259.428,262.971 257.5,253C 260.877,243.699 264.544,234.532 268.5,225.5 Z"/></g><g><path style="opacity:1" fill="#000000" d="M 402.5,225.5 C 407.669,233.982 413.002,242.482 418.5,251C 417.357,261.444 411.357,266.111 400.5,265C 394.851,263.014 391.851,259.014 391.5,253C 395.65,244.056 399.316,234.889 402.5,225.5 Z"/></g><g><path style="opacity:1" fill="#000000" d="M 340.5,285.5 C 344.209,293.238 348.709,300.571 354,307.5C 357.94,318.264 354.107,324.598 342.5,326.5C 335.412,325.246 331.079,321.08 329.5,314C 333.59,304.655 337.257,295.155 340.5,285.5 Z"/></g><g><path style="opacity:1" fill="#000000" d="M 77.5,290.5 C 80.8146,295.796 83.6479,301.462 86,307.5C 94.4011,314.449 94.9011,321.615 87.5,329C 80.7227,332.596 74.5561,331.763 69,326.5C 67.4481,324.232 66.6148,321.732 66.5,319C 69.6641,309.346 73.3308,299.846 77.5,290.5 Z"/></g><g><path style="opacity:1" fill="#000000" d="M 428.5,301.5 C 432.222,309.271 436.722,316.604 442,323.5C 445.416,331.202 443.249,337.035 435.5,341C 422.667,343.494 416.834,338.327 418,325.5C 422.32,317.86 425.82,309.86 428.5,301.5 Z"/></g><g><path style="opacity:1" fill="#000000" d="M 205.5,316.5 C 208.878,322.249 212.044,328.249 215,334.5C 224.281,342.875 223.447,350.042 212.5,356C 199.667,358.494 193.834,353.327 195,340.5C 198.787,332.596 202.287,324.596 205.5,316.5 Z"/></g><g><path style="opacity:1" fill="#000000" d="M 140.5,360.5 C 143.892,366.28 147.059,372.28 150,378.5C 157.052,384.752 157.552,391.252 151.5,398C 144.63,402.494 138.13,401.994 132,396.5C 130.448,394.232 129.615,391.732 129.5,389C 133.004,379.483 136.671,369.983 140.5,360.5 Z"/></g><g><path style="opacity:1" fill="#000000" d="M -0.5,394.5 C -0.5,392.833 -0.5,391.167 -0.5,389.5C 3.28436,381.257 7.11769,372.924 11,364.5C 14.0439,369.623 16.7105,374.956 19,380.5C 30.5442,392.358 28.3775,400.358 12.5,404.5C 5.82826,404.157 1.49493,400.824 -0.5,394.5 Z"/></g><g><path style="opacity:1" fill="#000000" d="M 384.5,366.5 C 385.376,366.369 386.043,366.702 386.5,367.5C 389.258,374.028 392.758,380.028 397,385.5C 398.695,388.918 400.195,392.418 401.5,396C 399.567,400.268 396.567,403.601 392.5,406C 384.565,408.28 378.731,405.78 375,398.5C 374.333,395.833 374.333,393.167 375,390.5C 378.853,382.776 382.019,374.776 384.5,366.5 Z"/></g><g><path style="opacity:1" fill="#000000" d="M 282.5,384.5 C 322.077,384.528 347.244,403.528 358,441.5C 362.61,475.111 350.443,500.611 321.5,518C 283.021,533.644 251.521,524.811 227,491.5C 208.665,451.804 217.165,419.304 252.5,394C 262.023,388.879 272.023,385.712 282.5,384.5 Z"/></g><g><path style="opacity:1" fill="#000000" d="M 19.5,492.5 C 22.8924,498.28 26.0591,504.28 29,510.5C 38.4146,520.85 36.4146,528.517 23,533.5C 18.9622,533.253 15.1289,531.753 11.5,529C 9.8082,526.425 8.8082,523.592 8.5,520.5C 11.767,511.036 15.4337,501.703 19.5,492.5 Z"/></g><g><path style="opacity:1" fill="#000000" d="M 140.5,499.5 C 143.544,504.582 146.378,509.915 149,515.5C 156.824,522.186 157.657,529.352 151.5,537C 145.5,540.333 139.5,540.333 133.5,537C 130.997,534.163 129.664,530.83 129.5,527C 132.749,517.668 136.416,508.501 140.5,499.5 Z"/></g><g><path style="opacity:1" fill="#000000" d="M 396.5,499.5 C 399.538,503.75 402.038,508.417 404,513.5C 405.626,516.128 407.626,518.461 410,520.5C 413.827,528.701 411.661,534.868 403.5,539C 391.351,540.847 385.518,535.681 386,523.5C 389.984,515.717 393.484,507.717 396.5,499.5 Z"/></g><g><path style="opacity:1" fill="#000000" d="M 79.5,559.5 C 82.4032,564.984 85.2365,570.65 88,576.5C 96.2313,583.495 96.7313,590.662 89.5,598C 82.0278,602.124 75.5278,600.957 70,594.5C 69.1313,592.419 68.6313,590.253 68.5,588C 72.0229,578.453 75.6896,568.953 79.5,559.5 Z"/></g><g><path style="opacity:1" fill="#000000" d="M 13.5,641.5 C 17.4491,648.701 21.9491,655.701 27,662.5C 31.2348,673.357 27.5682,680.024 16,682.5C 8.15288,681.32 3.65288,676.82 2.5,669C 6.65335,660.042 10.32,650.876 13.5,641.5 Z"/></g></svg>