<svg xmlns="http://www.w3.org/2000/svg" version="1.1" width="301px" height="661px" style="shape-rendering:geometricPrecision; text-rendering:geometricPrecision; image-rendering:optimizeQuality; fill-rule:evenodd; clip-rule:evenodd" xmlns:xlink="http://www.w3.org/1999/xlink"><g><path style="opacity:1" fill="#000000" d="M 14.5,-0.5 C 15.1667,-0.5 15.8333,-0.5 16.5,-0.5C 35.9706,12.4062 55.6373,25.0729 75.5,37.5C 93.4871,28.6699 111.487,20.1699 129.5,12C 109.039,105.972 88.7056,199.972 68.5,294C 73.5261,292.769 78.5261,291.102 83.5,289C 152.051,259.558 220.718,230.391 289.5,201.5C 275.225,316.937 260.225,432.437 244.5,548C 244.667,548.833 244.833,549.667 245,550.5C 263.548,544.595 282.048,538.595 300.5,532.5C 300.5,533.167 300.5,533.833 300.5,534.5C 266.817,576.188 233.483,618.188 200.5,660.5C 200.167,660.5 199.833,660.5 199.5,660.5C 179.451,612.753 160.285,564.753 142,516.5C 157.511,523.724 173.345,530.057 189.5,535.5C 196.687,461.153 204.02,386.82 211.5,312.5C 140.619,338.941 69.9518,365.941 -0.5,393.5C -0.5,386.5 -0.5,379.5 -0.5,372.5C 5.15937,248.35 10.1594,124.017 14.5,-0.5 Z"/></g></svg>