<svg xmlns="http://www.w3.org/2000/svg" version="1.1" width="375px" height="567px" style="shape-rendering:geometricPrecision; text-rendering:geometricPrecision; image-rendering:optimizeQuality; fill-rule:evenodd; clip-rule:evenodd" xmlns:xlink="http://www.w3.org/1999/xlink"><g><path style="opacity:1" fill="#000000" d="M 162.5,-0.5 C 163.167,-0.5 163.833,-0.5 164.5,-0.5C 164.783,0.28913 165.283,0.955796 166,1.5C 165.004,5.88315 165.337,10.2165 167,14.5C 169.986,18.2272 171.319,22.5605 171,27.5C 173.886,32.3948 177.553,36.7281 182,40.5C 182.651,42.235 182.485,43.9017 181.5,45.5C 186.839,56.6674 194.506,65.834 204.5,73C 203.235,74.3374 202.735,75.8374 203,77.5C 210.011,87.534 217.011,97.534 224,107.5C 224.113,111.543 225.279,115.209 227.5,118.5C 226.456,120.768 226.289,123.101 227,125.5C 227.991,128.815 229.491,131.815 231.5,134.5C 231.278,136.055 230.611,137.389 229.5,138.5C 231.515,141.871 233.515,145.205 235.5,148.5C 235.167,149.833 234.833,151.167 234.5,152.5C 235.5,155.167 236.5,157.833 237.5,160.5C 234.616,164.597 235.282,168.097 239.5,171C 242.642,170.912 245.142,169.412 247,166.5C 249.493,158.856 251.826,151.189 254,143.5C 258.889,136.83 261.056,129.496 260.5,121.5C 263.377,117.288 264.044,112.622 262.5,107.5C 262.817,102.15 263.317,96.8164 264,91.5C 264.667,90.1667 265.333,90.1667 266,91.5C 270.167,99.1718 274.834,106.505 280,113.5C 281.811,117.976 282.811,122.643 283,127.5C 286.326,134.134 289.159,140.968 291.5,148C 290.164,154.502 291.164,160.669 294.5,166.5C 294.244,167.689 293.911,168.856 293.5,170C 294.011,173.583 295.344,176.749 297.5,179.5C 298.275,184.599 298.275,189.766 297.5,195C 299.423,199.376 299.757,203.876 298.5,208.5C 299.406,210.747 300.739,212.747 302.5,214.5C 301.5,215.833 300.5,217.167 299.5,218.5C 300.888,220.109 301.888,221.942 302.5,224C 301.546,225.908 300.879,227.908 300.5,230C 301.167,232 301.833,234 302.5,236C 302.067,237.928 301.4,239.761 300.5,241.5C 301.5,244.167 302.5,246.833 303.5,249.5C 301.541,252.189 301.375,254.856 303,257.5C 303.837,259.007 305.004,259.507 306.5,259C 309.052,254.062 312.218,249.562 316,245.5C 318.745,238.476 320.745,231.143 322,223.5C 323.366,221.63 324.533,219.63 325.5,217.5C 324.361,213.754 325.528,210.754 329,208.5C 329.499,204.848 329.665,201.182 329.5,197.5C 333.667,197.846 335.5,200.18 335,204.5C 338.969,208.769 341.635,213.769 343,219.5C 344.529,220.729 345.696,222.229 346.5,224C 345.094,229.708 346.261,234.874 350,239.5C 350.238,243.373 351.071,247.04 352.5,250.5C 351.542,257.412 351.875,264.245 353.5,271C 353.17,281.683 353.17,292.35 353.5,303C 352.775,307.285 352.108,311.619 351.5,316C 352.802,319.145 352.468,322.145 350.5,325C 353.226,328.283 353.059,331.449 350,334.5C 349.289,336.899 349.456,339.232 350.5,341.5C 345.881,350.201 343.381,359.534 343,369.5C 342.058,372.993 340.725,376.326 339,379.5C 337.795,383.376 338.795,386.376 342,388.5C 348.959,385.375 354.126,380.375 357.5,373.5C 362.824,369.009 367.657,364.009 372,358.5C 372.708,359.381 373.542,360.047 374.5,360.5C 374.5,369.5 374.5,378.5 374.5,387.5C 369.503,390.156 367.836,394.156 369.5,399.5C 368.952,401.556 367.786,403.223 366,404.5C 364.766,413.129 362.432,421.462 359,429.5C 353.546,435.411 350.546,442.411 350,450.5C 343.469,459.572 336.469,468.239 329,476.5C 328.667,477.5 328.333,478.5 328,479.5C 324.333,482.5 320.667,485.5 317,488.5C 316.667,489.833 316.333,491.167 316,492.5C 313.053,496.57 309.553,500.07 305.5,503C 297.119,504.192 290.119,508.026 284.5,514.5C 276.351,516.907 268.684,520.407 261.5,525C 252.671,527.824 243.838,530.657 235,533.5C 231.018,530.493 227.684,531.159 225,535.5C 223.687,534.427 222.187,533.76 220.5,533.5C 210.283,536.023 199.949,536.523 189.5,535C 188.409,532.936 188.242,530.769 189,528.5C 198.779,520.054 207.946,510.888 216.5,501C 219.244,500.197 221.911,499.197 224.5,498C 228.957,492.842 233.791,488.009 239,483.5C 242.656,478.872 246.322,474.206 250,469.5C 256.091,464.691 261.757,459.357 267,453.5C 269.766,448.099 271.766,442.432 273,436.5C 276.695,431.638 280.195,426.638 283.5,421.5C 282.211,418.849 282.711,416.516 285,414.5C 285.28,409.803 285.78,405.137 286.5,400.5C 286.253,397.918 284.92,397.085 282.5,398C 279.182,401.314 276.682,405.148 275,409.5C 273.5,411 272,412.5 270.5,414C 269.551,414.617 268.718,414.451 268,413.5C 267.899,409.249 267.732,405.082 267.5,401C 269.359,397.781 269.692,394.448 268.5,391C 269.794,387.45 270.461,383.784 270.5,380C 269.726,376.119 269.726,372.285 270.5,368.5C 270.379,356.985 267.713,346.151 262.5,336C 261.5,335.333 260.5,335.333 259.5,336C 254.449,341.602 251.115,348.102 249.5,355.5C 245.698,358.804 242.865,362.804 241,367.5C 239.915,368.293 238.748,368.96 237.5,369.5C 237.902,356.559 237.902,343.726 237.5,331C 233.667,321.832 230.834,312.332 229,302.5C 227.847,299.53 226.18,296.863 224,294.5C 223.759,291.711 223.092,289.044 222,286.5C 218.918,283.341 216.584,279.675 215,275.5C 211.248,271.655 208.248,267.322 206,262.5C 204.89,260.963 203.39,260.297 201.5,260.5C 202.584,268.993 203.584,277.493 204.5,286C 203.167,288.333 203.167,290.667 204.5,293C 203.691,294.784 203.024,296.617 202.5,298.5C 203.312,300.623 203.978,302.79 204.5,305C 203.978,307.21 203.312,309.377 202.5,311.5C 203.4,313.239 204.067,315.072 204.5,317C 203.27,319.513 203.27,322.013 204.5,324.5C 202.219,327.932 201.886,331.599 203.5,335.5C 201.689,339.061 201.356,342.727 202.5,346.5C 201.315,348.711 200.315,351.045 199.5,353.5C 199.709,354.086 200.043,354.586 200.5,355C 197.745,363.454 195.245,371.954 193,380.5C 189.227,386.624 185.727,392.958 182.5,399.5C 181.833,399.833 181.167,400.167 180.5,400.5C 169.25,396.414 161.916,388.58 158.5,377C 158.735,376.127 159.069,375.293 159.5,374.5C 151.918,364.357 148.085,353.024 148,340.5C 146.234,338.404 144.901,336.071 144,333.5C 143.261,332.426 142.261,331.759 141,331.5C 139.24,335.557 137.24,339.557 135,343.5C 134.73,346.224 134.23,348.891 133.5,351.5C 133.833,352.167 134.167,352.833 134.5,353.5C 132.22,358.061 130.887,362.895 130.5,368C 131.769,371.839 131.769,375.672 130.5,379.5C 132.058,383.293 132.391,387.126 131.5,391C 131.706,392.865 132.372,394.532 133.5,396C 130.774,399.283 130.941,402.449 134,405.5C 134.008,411.495 134.842,417.329 136.5,423C 135.882,428.623 132.882,430.623 127.5,429C 120.257,420.282 115.09,410.448 112,399.5C 109.656,396.789 107.489,393.956 105.5,391C 106.081,390.107 106.415,389.107 106.5,388C 105.116,385.181 104.116,382.181 103.5,379C 103.706,377.135 104.372,375.468 105.5,374C 103.914,369.67 103.081,365.17 103,360.5C 101.915,358.627 100.582,356.96 99,355.5C 98.6667,352.167 98.3333,348.833 98,345.5C 92.8579,334.475 90.0245,335.142 89.5,347.5C 90.9598,355.028 90.2932,362.361 87.5,369.5C 86.6295,374.879 86.6295,380.379 87.5,386C 86.0535,389.067 84.7202,392.233 83.5,395.5C 86.2449,398.345 86.0782,401.012 83,403.5C 82.942,408.501 82.1086,413.335 80.5,418C 82.1216,424.211 79.7883,426.711 73.5,425.5C 71.144,422.978 68.9773,420.312 67,417.5C 67,416.167 67,414.833 67,413.5C 63.415,412.683 60.915,414.183 59.5,418C 62.0523,424.822 64.5523,431.655 67,438.5C 67.6514,440.235 67.4847,441.902 66.5,443.5C 67.6094,445.385 68.4427,447.385 69,449.5C 73.3333,455.167 77.6667,460.833 82,466.5C 82.1922,468.577 82.6922,470.577 83.5,472.5C 89.9139,478.414 95.4139,485.08 100,492.5C 102.803,496.646 106.636,499.146 111.5,500C 118.671,508.697 126.504,516.864 135,524.5C 136.326,526.983 137.493,529.483 138.5,532C 138.612,533.662 137.946,534.829 136.5,535.5C 133.782,533.243 130.782,532.909 127.5,534.5C 124.96,533.98 122.46,533.313 120,532.5C 118.135,532.706 116.468,533.372 115,534.5C 113.28,533.277 111.447,532.277 109.5,531.5C 105.125,532.831 101.125,531.998 97.5,529C 91.0994,529.707 85.7661,527.707 81.5,523C 73.9947,522.413 67.6614,519.413 62.5,514C 57.8045,513.308 54.1378,510.975 51.5,507C 47.9651,505.294 44.2985,503.96 40.5,503C 38.027,500.527 35.527,498.027 33,495.5C 32.4208,492.412 31.0875,489.745 29,487.5C 28.7935,484.377 28.1268,481.377 27,478.5C 24,474.833 21,471.167 18,467.5C 17.8595,465.744 18.3595,464.078 19.5,462.5C 15.1648,457.648 13.1648,452.148 13.5,446C 13.5317,444.029 12.6984,442.529 11,441.5C 9.79555,431.958 8.29555,422.458 6.5,413C 8.04808,408.509 7.71474,404.175 5.5,400C 6.04993,393.187 5.7166,386.353 4.5,379.5C 6.04919,374.684 5.71585,370.018 3.5,365.5C 4.02427,363.617 4.69094,361.784 5.5,360C 4.55786,355.554 3.55786,351.054 2.5,346.5C 2.40804,332.351 2.40804,318.184 2.5,304C 2.0665,302.072 1.39984,300.239 0.5,298.5C 1.02427,296.617 1.69094,294.784 2.5,293C 1.24434,290.512 1.24434,288.012 2.5,285.5C 2.06061,282.824 1.06061,280.491 -0.5,278.5C -0.5,277.5 -0.5,276.5 -0.5,275.5C 0.897631,274.223 1.5643,272.557 1.5,270.5C 1.00288,268.182 0.669549,265.848 0.5,263.5C 1.87344,263.343 3.20677,263.51 4.5,264C 16.7059,278.389 25.0392,294.889 29.5,313.5C 32.872,316.485 33.872,315.985 32.5,312C 33.7302,308.581 34.7302,305.081 35.5,301.5C 34.8417,298.721 35.5084,296.054 37.5,293.5C 36.4566,287.337 37.7899,281.67 41.5,276.5C 40.1117,274.891 39.1117,273.058 38.5,271C 40.4861,265.577 42.1528,260.077 43.5,254.5C 40.8994,250.774 41.2327,247.274 44.5,244C 43.4747,241.172 44.1414,238.672 46.5,236.5C 43.9367,232.192 43.9367,227.858 46.5,223.5C 45.8333,221.833 45.1667,220.167 44.5,218.5C 46.4769,211.269 46.4769,204.103 44.5,197C 45.1667,195.333 45.8333,193.667 46.5,192C 45.1329,188.22 43.9663,184.386 43,180.5C 41.7072,177.138 42.7072,175.138 46,174.5C 54.3314,176.159 59.3314,181.159 61,189.5C 66.5791,194.561 69.2458,200.895 69,208.5C 70.7206,210.711 72.7206,212.711 75,214.5C 75.0597,219.39 76.0597,224.057 78,228.5C 79.5874,229.727 80.9207,229.394 82,227.5C 82.3333,225.5 82.6667,223.5 83,221.5C 86.8512,212.99 90.6846,204.49 94.5,196C 94.0889,194.856 93.7556,193.689 93.5,192.5C 95.2914,188.001 96.458,183.335 97,178.5C 99.5279,174.874 101.195,170.874 102,166.5C 102.862,156.847 103.529,147.18 104,137.5C 104.956,136.421 105.789,135.255 106.5,134C 105.128,132.758 104.128,131.258 103.5,129.5C 104.402,126.96 105.402,124.46 106.5,122C 105.5,120.333 104.5,118.667 103.5,117C 104.029,115.441 104.696,113.941 105.5,112.5C 104.696,111.059 104.029,109.559 103.5,108C 104.5,106.333 105.5,104.667 106.5,103C 103.167,98.6472 103.167,94.4806 106.5,90.5C 105.469,89.2997 104.635,87.9663 104,86.5C 103.971,81.6471 103.138,76.9804 101.5,72.5C 102.693,70.6163 104.359,70.1163 106.5,71C 111.748,76.573 116.581,82.4063 121,88.5C 121.168,93.5012 122.501,98.1679 125,102.5C 126.763,104.719 128.763,106.719 131,108.5C 130.845,110.811 130.845,113.144 131,115.5C 133.319,121.473 136.653,126.807 141,131.5C 145.196,126.625 147.529,120.959 148,114.5C 150.556,108.537 152.723,102.371 154.5,96C 153.691,94.2158 153.024,92.3825 152.5,90.5C 153.277,88.5534 154.277,86.7201 155.5,85C 151.793,80.7626 151.793,76.596 155.5,72.5C 155.061,70.8957 154.394,69.3957 153.5,68C 154.029,66.4411 154.696,64.9411 155.5,63.5C 151.881,60.2211 151.548,56.5545 154.5,52.5C 151.509,48.3229 151.842,44.4896 155.5,41C 154.196,40.196 153.529,39.0293 153.5,37.5C 156.147,34.2114 156.147,30.878 153.5,27.5C 154.861,22.7222 156.528,18.0555 158.5,13.5C 158.167,12.8333 157.833,12.1667 157.5,11.5C 159.564,7.63311 161.231,3.63311 162.5,-0.5 Z M 189.5,141.5 C 192.044,142.468 194.211,144.135 196,146.5C 195.333,150.833 195.333,155.167 196,159.5C 194.209,164.783 192.542,170.116 191,175.5C 190,176.5 189,177.5 188,178.5C 185.495,185.688 183.495,193.022 182,200.5C 180.731,204.054 178.731,207.054 176,209.5C 174.651,215.94 172.984,222.273 171,228.5C 169.022,229.816 167.522,229.316 166.5,227C 167.293,225.915 167.96,224.748 168.5,223.5C 167.112,217.193 165.778,210.859 164.5,204.5C 166.514,197.622 168.014,190.622 169,183.5C 169.953,181.545 171.287,179.878 173,178.5C 174.366,172.16 177.033,166.493 181,161.5C 180.878,158.034 182.211,155.368 185,153.5C 185.305,149.036 186.805,145.036 189.5,141.5 Z M 320.5,395.5 C 323.336,395.202 323.836,395.869 322,397.5C 322.045,404.755 320.545,411.588 317.5,418C 319.664,420.781 319.83,423.614 318,426.5C 315.815,427.928 313.815,429.595 312,431.5C 311.871,434.003 310.871,436.003 309,437.5C 306.632,435.316 305.965,432.649 307,429.5C 310.608,425.945 312.275,421.612 312,416.5C 314.849,411.125 316.515,405.125 317,398.5C 318.145,397.364 319.312,396.364 320.5,395.5 Z"/></g><g><path style="opacity:1" fill="#000000" d="M 302.5,566.5 C 301.5,566.5 300.5,566.5 299.5,566.5C 297.167,563.833 294.833,563.833 292.5,566.5C 291.5,566.5 290.5,566.5 289.5,566.5C 286.421,564.231 283.421,564.231 280.5,566.5C 279.5,566.5 278.5,566.5 277.5,566.5C 275.167,563.833 272.833,563.833 270.5,566.5C 269.5,566.5 268.5,566.5 267.5,566.5C 264.322,564.567 261.322,564.567 258.5,566.5C 257.5,566.5 256.5,566.5 255.5,566.5C 254.866,565.053 253.699,564.387 252,564.5C 250.301,564.387 249.134,565.053 248.5,566.5C 247.5,566.5 246.5,566.5 245.5,566.5C 242.5,565.167 239.5,565.167 236.5,566.5C 235.5,566.5 234.5,566.5 233.5,566.5C 232.312,565.636 231.145,564.636 230,563.5C 228.482,564.163 227.315,565.163 226.5,566.5C 225.5,566.5 224.5,566.5 223.5,566.5C 220.881,564.028 218.214,564.028 215.5,566.5C 214.167,566.5 212.833,566.5 211.5,566.5C 210.312,565.636 209.145,564.636 208,563.5C 206.482,564.163 205.315,565.163 204.5,566.5C 203.5,566.5 202.5,566.5 201.5,566.5C 199.25,563.966 196.916,563.966 194.5,566.5C 192.833,566.5 191.167,566.5 189.5,566.5C 187.084,563.966 184.75,563.966 182.5,566.5C 181.5,566.5 180.5,566.5 179.5,566.5C 177.25,563.966 174.916,563.966 172.5,566.5C 170.833,566.5 169.167,566.5 167.5,566.5C 165.084,563.966 162.75,563.966 160.5,566.5C 159.5,566.5 158.5,566.5 157.5,566.5C 155.25,563.966 152.916,563.966 150.5,566.5C 148.833,566.5 147.167,566.5 145.5,566.5C 143.084,563.966 140.75,563.966 138.5,566.5C 137.5,566.5 136.5,566.5 135.5,566.5C 133.25,563.966 130.916,563.966 128.5,566.5C 127.167,566.5 125.833,566.5 124.5,566.5C 123.088,565.467 121.422,564.801 119.5,564.5C 117.962,564.453 116.962,565.12 116.5,566.5C 115.5,566.5 114.5,566.5 113.5,566.5C 111.25,563.966 108.916,563.966 106.5,566.5C 105.167,566.5 103.833,566.5 102.5,566.5C 99.7857,564.028 97.1191,564.028 94.5,566.5C 93.5,566.5 92.5,566.5 91.5,566.5C 90.6851,565.163 89.5185,564.163 88,563.5C 86.8549,564.636 85.6883,565.636 84.5,566.5C 83.5,566.5 82.5,566.5 81.5,566.5C 78.4468,564.12 75.4468,564.12 72.5,566.5C 71.5,566.5 70.5,566.5 69.5,566.5C 67.2496,563.966 64.9163,563.966 62.5,566.5C 61.5,566.5 60.5,566.5 59.5,566.5C 57.369,565.686 55.0356,565.186 52.5,565C 51.572,564.612 50.9054,563.945 50.5,563C 51.4262,558.843 51.5929,554.676 51,550.5C 53.2235,548.946 55.7235,547.946 58.5,547.5C 138.727,547.874 218.894,547.874 299,547.5C 301.151,547.773 303.151,548.439 305,549.5C 310.501,556.315 309.668,561.981 302.5,566.5 Z"/></g></svg>