<svg xmlns="http://www.w3.org/2000/svg" version="1.1" width="470px" height="511px" style="shape-rendering:geometricPrecision; text-rendering:geometricPrecision; image-rendering:optimizeQuality; fill-rule:evenodd; clip-rule:evenodd" xmlns:xlink="http://www.w3.org/1999/xlink"><g><path style="opacity:1" fill="#000000" d="M 273.5,-0.5 C 278.5,-0.5 283.5,-0.5 288.5,-0.5C 289.124,1.50527 288.29,3.17194 286,4.5C 282.308,10.2575 280.308,16.5908 280,23.5C 277.983,26.5372 276.15,29.7039 274.5,33C 275.968,35.0283 275.801,36.8616 274,38.5C 273.241,46.0879 272.741,53.5879 272.5,61C 272.934,66.3107 273.934,71.4774 275.5,76.5C 274.456,78.7676 274.289,81.1009 275,83.5C 282.27,95.0355 287.603,107.369 291,120.5C 293.365,124.366 296.532,127.366 300.5,129.5C 304.698,141.004 311.365,151.17 320.5,160C 322.676,160.163 324.509,160.996 326,162.5C 328.276,167.307 331.276,171.641 335,175.5C 340.791,180.658 346.291,186.158 351.5,192C 352.766,192.309 353.933,192.809 355,193.5C 357.288,195.8 358.955,198.467 360,201.5C 360.667,202.167 361.333,202.833 362,203.5C 363,202.167 364,202.167 365,203.5C 365.495,205.473 365.662,207.473 365.5,209.5C 368.005,209.98 370.338,210.98 372.5,212.5C 374.045,216.217 376.212,219.55 379,222.5C 381.333,223.833 383.667,225.167 386,226.5C 391.667,235.5 397.333,244.5 403,253.5C 405.667,257.5 409,260.833 413,263.5C 414.505,265.298 414.672,267.132 413.5,269C 414.579,269.956 415.745,270.789 417,271.5C 419.667,276.167 422.333,280.833 425,285.5C 425.307,290.423 426.973,294.756 430,298.5C 430.333,302.5 430.667,306.5 431,310.5C 433.761,313.402 434.261,316.735 432.5,320.5C 433.982,324.344 434.815,328.344 435,332.5C 435.85,334.01 436.683,335.51 437.5,337C 436.5,338.667 435.5,340.333 434.5,342C 437.858,345.134 438.025,348.301 435,351.5C 434.669,360.492 433.503,369.326 431.5,378C 432.015,382.434 430.515,386.267 427,389.5C 426.579,393.872 425.912,398.205 425,402.5C 423.267,406.964 420.767,410.964 417.5,414.5C 418.428,415.768 418.595,417.101 418,418.5C 414.333,421.833 410.667,425.167 407,428.5C 405.738,432.079 404.071,435.412 402,438.5C 396.872,443.331 392.039,448.498 387.5,454C 380.907,456.545 374.741,459.712 369,463.5C 366.21,460.92 363.376,460.92 360.5,463.5C 350.87,462.352 341.204,462.352 331.5,463.5C 327.091,461.95 324.925,458.95 325,454.5C 326.471,451.899 327.637,449.233 328.5,446.5C 328.379,445.106 328.046,443.772 327.5,442.5C 328.728,438.121 330.061,433.788 331.5,429.5C 328.556,425.501 327.889,421.168 329.5,416.5C 328.857,413.116 328.023,409.783 327,406.5C 322.061,398.286 317.394,389.952 313,381.5C 311.296,373.093 309.296,364.76 307,356.5C 303.868,354.217 303.701,351.717 306.5,349C 303.791,345.239 303.958,341.739 307,338.5C 308.326,330.83 305.159,327.997 297.5,330C 287.172,338.052 282.506,348.385 283.5,361C 281.899,364.249 281.066,367.749 281,371.5C 279.04,373.785 276.874,375.785 274.5,377.5C 273.205,376.902 271.872,376.402 270.5,376C 268.442,374.067 266.275,372.233 264,370.5C 263.749,368.567 263.249,366.734 262.5,365C 263.022,364.439 263.355,363.772 263.5,363C 261.767,360.924 260.434,358.591 259.5,356C 260.163,354.323 260.163,352.49 259.5,350.5C 260.16,347.021 261.493,343.854 263.5,341C 262.978,340.439 262.645,339.772 262.5,339C 263.918,335.999 264.751,332.832 265,329.5C 265.667,328.833 266.333,328.167 267,327.5C 269.872,313.595 271.372,299.595 271.5,285.5C 269.811,279.6 268.644,273.6 268,267.5C 263.457,259.712 258.457,252.379 253,245.5C 252.261,243.779 251.427,242.113 250.5,240.5C 243.75,236.583 237.416,232.083 231.5,227C 227.167,226.333 222.833,226.333 218.5,227C 217.903,228.062 217.57,229.228 217.5,230.5C 219.113,235.06 221.28,239.393 224,243.5C 223.719,248.669 225.386,253.002 229,256.5C 229.667,261.5 229.667,266.5 229,271.5C 227.603,276.198 226.27,280.864 225,285.5C 216.573,293.759 208.406,302.092 200.5,310.5C 191.161,317.347 181.994,324.347 173,331.5C 170.008,337.122 167.008,342.788 164,348.5C 159.125,352.306 154.125,355.973 149,359.5C 146.721,364.687 143.888,369.52 140.5,374C 140.833,375 141.167,376 141.5,377C 139.012,383.623 136.678,390.29 134.5,397C 135.5,398.667 136.5,400.333 137.5,402C 133.92,405.313 133.586,408.979 136.5,413C 136.385,414.895 135.718,416.562 134.5,418C 135.376,419.586 136.376,421.086 137.5,422.5C 136.617,423.548 135.95,424.715 135.5,426C 136.953,429.072 138.787,431.905 141,434.5C 141.562,436.866 141.396,439.199 140.5,441.5C 142.723,446.761 146.056,451.261 150.5,455C 149.941,455.725 149.608,456.558 149.5,457.5C 150.43,459.606 151.596,461.606 153,463.5C 153.667,464.5 153.667,465.5 153,466.5C 149.241,469.88 144.907,472.213 140,473.5C 134.682,473.326 129.349,473.326 124,473.5C 119.96,472.361 116.127,470.695 112.5,468.5C 109.941,471.256 107.608,471.089 105.5,468C 101.106,467.697 96.7727,467.03 92.5,466C 90.1752,463.329 87.1752,461.996 83.5,462C 79.819,457.662 75.1523,454.995 69.5,454C 68.1218,452.287 66.4552,450.953 64.5,450C 60.6753,445.543 56.5086,441.376 52,437.5C 49.2626,431.389 45.096,426.389 39.5,422.5C 39.1801,415.861 36.6801,410.195 32,405.5C 31.3333,402.167 30.6667,398.833 30,395.5C 27.1259,389.525 24.6259,383.358 22.5,377C 22.8333,376 23.1667,375 23.5,374C 22.7963,370.872 22.2963,367.706 22,364.5C 20.9783,363.646 20.1449,362.646 19.5,361.5C 21.9559,359.643 23.2893,357.143 23.5,354C 23.3971,348.821 23.3971,343.654 23.5,338.5C 24.5,336.5 25.5,334.5 26.5,332.5C 26.2444,331.311 25.9111,330.144 25.5,329C 26.8912,323.591 27.7245,318.091 28,312.5C 28.9147,311.672 29.5814,310.672 30,309.5C 30.3706,305.238 31.2039,301.071 32.5,297C 32.2645,296.127 31.9312,295.293 31.5,294.5C 32.7327,291.265 34.3994,288.265 36.5,285.5C 35.9598,284.252 35.2931,283.085 34.5,282C 42.2529,273.172 45.2529,262.839 43.5,251C 46.5297,246.885 48.1964,242.218 48.5,237C 47.7393,230.689 47.0726,224.355 46.5,218C 46.6032,216.439 46.9366,214.939 47.5,213.5C 44.7808,210.005 42.2808,206.338 40,202.5C 40.0479,200.074 39.8812,197.741 39.5,195.5C 34.6311,192.457 31.4644,188.124 30,182.5C 23.9006,176.299 25.234,171.966 34,169.5C 37.9673,171.226 41.4673,173.56 44.5,176.5C 46.8528,175.435 49.1861,175.602 51.5,177C 55.3562,180.357 59.3562,183.524 63.5,186.5C 64.7481,185.96 65.9148,185.293 67,184.5C 70.6913,187.53 74.358,190.53 78,193.5C 80.1869,196.436 82.1869,199.436 84,202.5C 86.245,201.863 88.4117,201.03 90.5,200C 90.7856,194.905 90.7856,189.738 90.5,184.5C 90.6198,180.685 91.7864,177.351 94,174.5C 94.3367,171.139 94.8367,167.806 95.5,164.5C 95.3918,163.558 95.0585,162.725 94.5,162C 99.4467,154.593 102.613,146.427 104,137.5C 107.021,133.482 110.354,129.816 114,126.5C 115.935,123.629 117.601,120.629 119,117.5C 122.219,115.562 124.052,112.729 124.5,109C 126.723,106.777 129.389,105.444 132.5,105C 134.644,102.021 136.978,99.1878 139.5,96.5C 143.999,95.9032 148.332,94.9032 152.5,93.5C 152.664,96.1873 152.497,98.854 152,101.5C 149.517,103.26 149.017,105.427 150.5,108C 148.647,112.131 146.98,116.298 145.5,120.5C 148.688,124.954 150.188,129.954 150,135.5C 151.353,136.685 152.52,138.019 153.5,139.5C 159.137,140.663 164.804,140.83 170.5,140C 174.949,136.289 176.782,131.456 176,125.5C 176.419,124.328 177.085,123.328 178,122.5C 178.368,118.15 178.868,113.817 179.5,109.5C 179.169,105.496 178.835,101.496 178.5,97.5C 180.647,93.8684 180.98,90.035 179.5,86C 180.844,75.4211 183.677,65.2544 188,55.5C 191.674,52.1465 194.341,48.1465 196,43.5C 200.433,36.0697 205.933,29.5697 212.5,24C 219.792,19.3953 227.126,14.7286 234.5,10C 235.536,6.71239 237.536,5.87906 240.5,7.5C 241.7,6.46881 243.034,5.63547 244.5,5C 250.212,4.4388 255.712,3.27213 261,1.5C 265.547,2.78956 269.714,2.1229 273.5,-0.5 Z"/></g><g><path style="opacity:1" fill="#000000" d="M 469.5,489.5 C 469.5,496.5 469.5,503.5 469.5,510.5C 312.833,510.5 156.167,510.5 -0.5,510.5C -0.5,503.5 -0.5,496.5 -0.5,489.5C 2.28278,488.784 5.11612,488.117 8,487.5C 27.6918,488.797 47.3585,488.797 67,487.5C 68.7633,487.975 70.43,488.642 72,489.5C 76.9535,488.783 81.9535,488.117 87,487.5C 90.1431,489.755 93.1431,489.755 96,487.5C 99.6216,488.769 103.288,488.769 107,487.5C 108.763,487.975 110.43,488.642 112,489.5C 113.194,488.57 114.527,487.903 116,487.5C 231.635,488.823 347.135,488.823 462.5,487.5C 464.863,488.17 467.196,488.837 469.5,489.5 Z"/></g></svg>