<svg xmlns="http://www.w3.org/2000/svg" version="1.1" width="641px" height="640px" style="shape-rendering:geometricPrecision; text-rendering:geometricPrecision; image-rendering:optimizeQuality; fill-rule:evenodd; clip-rule:evenodd" xmlns:xlink="http://www.w3.org/1999/xlink"><g><path style="opacity:1" fill="#000000" d="M 241.5,-0.5 C 245.5,-0.5 249.5,-0.5 253.5,-0.5C 253.667,91.1673 253.5,182.834 253,274.5C 249.697,272.432 246.197,270.766 242.5,269.5C 241.5,179.502 241.167,89.5025 241.5,-0.5 Z"/></g><g><path style="opacity:1" fill="#000000" d="M 259.5,-0.5 C 279.5,-0.5 299.5,-0.5 319.5,-0.5C 319.667,79.5007 319.5,159.501 319,239.5C 299.333,250.833 279.667,262.167 260,273.5C 259.5,182.167 259.333,90.8339 259.5,-0.5 Z"/></g><g><path style="opacity:1" fill="#000000" d="M -0.5,0.5 C 0.495904,0.414228 1.32924,0.747561 2,1.5C 82.0305,102.238 162.531,202.571 243.5,302.5C 249.675,298.912 256.009,295.578 262.5,292.5C 266.105,294.527 266.439,297.027 263.5,300C 257.843,302.493 252.51,305.493 247.5,309C 252.046,313.877 256.213,319.044 260,324.5C 260.333,336.5 260.667,348.5 261,360.5C 281.559,367.464 302.059,374.631 322.5,382C 336.667,404.833 350.833,427.667 365,450.5C 365.617,451.449 365.451,452.282 364.5,453C 354.965,458.223 344.965,459.556 334.5,457C 329.387,454.694 324.887,451.528 321,447.5C 314.07,436.637 307.404,425.637 301,414.5C 279.196,408.065 257.363,401.732 235.5,395.5C 230.218,397.483 230.218,399.65 235.5,402C 255.943,409.389 276.277,417.055 296.5,425C 310.627,450.753 324.627,476.587 338.5,502.5C 327.341,508.68 315.675,509.847 303.5,506C 298.723,503.223 294.556,499.723 291,495.5C 284.575,485.15 279.075,474.316 274.5,463C 254.793,454.931 235.126,446.764 215.5,438.5C 212.468,439.012 211.301,440.678 212,443.5C 219.373,457.746 226.873,471.912 234.5,486C 233.301,493.824 232.468,501.658 232,509.5C 249.896,523.863 268.063,537.863 286.5,551.5C 401.194,464.151 515.527,376.318 629.5,288C 582.67,264.502 535.503,241.668 488,219.5C 413.727,266.383 339.56,313.383 265.5,360.5C 262.508,360.02 261.341,358.353 262,355.5C 266.746,352.587 270.246,348.587 272.5,343.5C 270.166,343.403 268,344.403 266,346.5C 267.816,341.857 269.983,337.19 272.5,332.5C 270.201,332.383 268.035,333.383 266,335.5C 267.816,330.857 269.983,326.19 272.5,321.5C 270.201,321.383 268.035,322.383 266,324.5C 267.816,319.857 269.983,315.19 272.5,310.5C 272.333,310.167 272.167,309.833 272,309.5C 269.971,311.26 267.804,312.427 265.5,313C 267.914,308.171 270.58,303.504 273.5,299C 270.833,300 268.167,301 265.5,302C 267.707,297.753 270.04,293.586 272.5,289.5C 269.876,288.884 267.709,289.884 266,292.5C 267.511,286.974 270.011,281.807 273.5,277C 270.854,277.92 268.354,279.42 266,281.5C 265.956,279.24 266.789,277.24 268.5,275.5C 280.671,268.247 293.004,261.247 305.5,254.5C 306.324,257.785 306.824,261.118 307,264.5C 349.947,237.368 393.281,211.034 437,185.5C 452.131,191.214 466.965,197.714 481.5,205C 482.808,207.355 483.808,209.855 484.5,212.5C 487.2,211.333 489.867,211.5 492.5,213C 541.738,237.119 591.071,260.953 640.5,284.5C 640.5,309.833 640.5,335.167 640.5,360.5C 523.145,453.85 405.478,546.85 287.5,639.5C 286.833,639.5 286.167,639.5 285.5,639.5C 214.979,585.975 144.479,532.308 74,478.5C 73.6667,468.833 73.3333,459.167 73,449.5C 59.2469,428.993 45.2469,408.659 31,388.5C 30.6667,346.5 30.3333,304.5 30,262.5C 29.8704,254.648 27.8704,247.314 24,240.5C 16.3283,231.662 8.16161,223.328 -0.5,215.5C -0.5,143.833 -0.5,72.1667 -0.5,0.5 Z M 436.5,192.5 C 449.518,198.231 462.518,204.064 475.5,210C 419.67,246.083 363.67,281.916 307.5,317.5C 306.334,301.177 306.167,284.844 307,268.5C 309.048,270.787 311.215,270.954 313.5,269C 354.564,243.475 395.564,217.975 436.5,192.5 Z M 632.5,294.5 C 633.663,315.329 633.829,336.329 633,357.5C 519,447.5 405,537.5 291,627.5C 290.333,604.167 290.333,580.833 291,557.5C 405.173,470.176 519.006,382.51 632.5,294.5 Z M 90.5,379.5 C 95.8448,381.705 95.6782,383.705 90,385.5C 89.3224,383.402 89.4891,381.402 90.5,379.5 Z M 100.5,387.5 C 121.041,400.528 141.208,414.195 161,428.5C 167.977,442.287 174.81,456.121 181.5,470C 150.57,447.742 120.07,424.576 90,400.5C 88.7107,398.945 88.044,397.279 88,395.5C 92.3161,392.934 96.4828,390.267 100.5,387.5 Z M 105.5,422.5 C 112.009,427.502 118.675,432.335 125.5,437C 120.533,436.839 115.533,436.672 110.5,436.5C 109.388,431.615 107.721,426.948 105.5,422.5 Z M 111.5,441.5 C 119.635,441.689 127.635,442.856 135.5,445C 141.5,449.667 147.5,454.333 153.5,459C 139.718,455.678 125.718,453.178 111.5,451.5C 112.215,448.093 112.215,444.76 111.5,441.5 Z M 109.5,456.5 C 130.333,457.875 150.333,462.708 169.5,471C 176.683,476.427 183.683,482.094 190.5,488C 173.783,481.894 156.783,476.227 139.5,471C 127.914,468.535 116.247,466.535 104.5,465C 106.556,462.386 108.223,459.553 109.5,456.5 Z M 80.5,460.5 C 81.9335,461.833 83.2668,463.333 84.5,465C 83.2341,465.309 82.0674,465.809 81,466.5C 80.5045,464.527 80.3379,462.527 80.5,460.5 Z M 80.5,470.5 C 83.1873,470.336 85.854,470.503 88.5,471C 89.3041,472.771 90.4708,474.271 92,475.5C 95.4591,471.605 99.7924,469.939 105,470.5C 134.409,473.581 162.576,481.247 189.5,493.5C 190.487,496.768 190.82,500.102 190.5,503.5C 173.093,496.975 155.426,491.142 137.5,486C 121.344,482.559 105.011,480.559 88.5,480C 86,478.167 83.5,476.333 81,474.5C 80.51,473.207 80.3433,471.873 80.5,470.5 Z M 96.5,486.5 C 118.602,486.63 140.268,490.463 161.5,498C 170.83,501.609 180.163,505.109 189.5,508.5C 189.665,512.182 189.499,515.848 189,519.5C 188.586,519.957 188.086,520.291 187.5,520.5C 166.98,513.896 145.98,509.396 124.5,507C 115.008,500.335 105.675,493.502 96.5,486.5 Z M 131.5,513.5 C 150.333,515.168 168.999,519.001 187.5,525C 189.192,526.401 189.859,528.234 189.5,530.5C 174.857,528.226 160.19,526.06 145.5,524C 141.239,519.898 136.572,516.398 131.5,513.5 Z M 256.5,538.5 C 248.221,534.025 239.887,529.525 231.5,525C 230.409,522.936 230.242,520.769 231,518.5C 239.686,525.03 248.186,531.697 256.5,538.5 Z M 229.5,529.5 C 247.456,538.953 264.789,549.453 281.5,561C 282.451,561.718 282.617,562.551 282,563.5C 265.675,552.919 248.509,543.752 230.5,536C 229.577,533.959 229.244,531.792 229.5,529.5 Z M 155.5,531.5 C 156.449,530.848 157.615,530.514 159,530.5C 169.195,532.171 179.362,534.005 189.5,536C 190.718,540.983 192.718,545.65 195.5,550C 189.2,549.34 182.866,548.34 176.5,547C 169.341,542.002 162.341,536.835 155.5,531.5 Z M 228.5,541.5 C 247.795,548.647 265.795,558.147 282.5,570C 265.409,560.623 247.742,551.956 229.5,544C 228.748,543.329 228.414,542.496 228.5,541.5 Z M 278.5,574.5 C 261.633,568.767 244.633,563.433 227.5,558.5C 227.5,555.5 227.5,552.5 227.5,549.5C 245.465,555.983 262.465,564.316 278.5,574.5 Z M 185.5,554.5 C 194.344,553.654 202.344,556.154 209.5,562C 215.027,563.842 220.527,565.676 226,567.5C 226.49,566.207 226.657,564.873 226.5,563.5C 245.201,568.289 263.534,574.289 281.5,581.5C 282.833,582.167 282.833,582.833 281.5,583.5C 258.351,574.194 234.351,570.194 209.5,571.5C 201.507,565.843 193.507,560.176 185.5,554.5 Z M 214.5,576.5 C 226.112,575.505 237.779,576.338 249.5,579C 260.612,581.872 271.612,585.039 282.5,588.5C 282.649,589.552 282.483,590.552 282,591.5C 270.596,587.182 258.763,584.848 246.5,584.5C 240.184,585.582 233.851,586.082 227.5,586C 223.137,582.824 218.804,579.657 214.5,576.5 Z M 241.5,589.5 C 255.262,589.084 268.595,591.251 281.5,596C 282.337,597.011 282.67,598.178 282.5,599.5C 271.116,596.232 260.116,597.232 249.5,602.5C 244.14,599.151 239.14,595.318 234.5,591C 237.036,590.814 239.369,590.314 241.5,589.5 Z M 262.5,602.5 C 268.96,602.15 275.293,602.817 281.5,604.5C 282.489,608.107 282.823,611.774 282.5,615.5C 277.607,613.748 273.107,614.414 269,617.5C 263.833,613.667 258.667,609.833 253.5,606C 256.571,604.704 259.571,603.538 262.5,602.5 Z M 273.5,619.5 C 276.545,619.508 279.545,619.841 282.5,620.5C 282.663,622.857 282.497,625.19 282,627.5C 279.833,626 277.667,624.5 275.5,623C 274.177,622.184 273.511,621.017 273.5,619.5 Z"/></g><g><path style="opacity:1" fill="#000000" d="M 350.5,331.5 C 367.102,340.136 383.436,349.303 399.5,359C 401.255,359.72 402.089,360.887 402,362.5C 388.112,381.007 371.945,383.174 353.5,369C 343.483,368.832 333.483,368.332 323.5,367.5C 319.167,358.167 314.833,348.833 310.5,339.5C 323.951,336.818 337.285,334.151 350.5,331.5 Z"/></g></svg>