<svg xmlns="http://www.w3.org/2000/svg" version="1.1" width="591px" height="471px" style="shape-rendering:geometricPrecision; text-rendering:geometricPrecision; image-rendering:optimizeQuality; fill-rule:evenodd; clip-rule:evenodd" xmlns:xlink="http://www.w3.org/1999/xlink"><g><path style="opacity:1" fill="#000000" d="M 195.5,-0.5 C 196.5,-0.5 197.5,-0.5 198.5,-0.5C 316.842,24.2455 435.509,48.0789 554.5,71C 567.568,73.6045 578.068,80.1045 586,90.5C 587.575,94.9448 589.075,99.2781 590.5,103.5C 590.5,108.5 590.5,113.5 590.5,118.5C 581.084,146.715 561.75,156.882 532.5,149C 416.969,125.127 301.303,101.961 185.5,79.5C 190.576,127.348 197.076,175.015 205,222.5C 207.964,244.535 198.464,254.368 176.5,252C 166.112,248.902 161.112,241.902 161.5,231C 167.944,187.542 174.444,144.375 181,101.5C 182.589,93.014 182.755,84.514 181.5,76C 187.051,50.6345 191.718,25.1345 195.5,-0.5 Z M 202.5,9.5 C 320.634,31.9116 438.634,55.0782 556.5,79C 578.433,85.0237 586.933,99.1904 582,121.5C 573.731,139.886 559.564,147.052 539.5,143C 423.663,118.899 307.663,95.566 191.5,73C 193.472,51.6721 197.139,30.5054 202.5,9.5 Z"/></g><g><path style="opacity:1" fill="#000000" d="M 214.5,71.5 C 218.151,70.8345 221.985,70.5012 226,70.5C 334.868,75.0021 443.701,80.1687 552.5,86C 575.539,90.5738 582.372,103.74 573,125.5C 564.537,135.966 553.704,139.466 540.5,136C 432.006,113.535 323.34,92.0345 214.5,71.5 Z"/></g><g><path style="opacity:1" fill="#000000" d="M 222.5,119.5 C 223.833,119.5 225.167,119.5 226.5,119.5C 227.329,122.469 227.495,125.469 227,128.5C 225.989,127.663 224.822,127.33 223.5,127.5C 222.908,124.873 222.575,122.206 222.5,119.5 Z"/></g><g><path style="opacity:1" fill="#000000" d="M 140.5,121.5 C 143.488,121.155 144.821,122.488 144.5,125.5C 144.672,128.331 143.339,129.998 140.5,130.5C 139.357,127.502 139.357,124.502 140.5,121.5 Z"/></g><g><path style="opacity:1" fill="#000000" d="M 222.5,133.5 C 228.079,133.763 229.079,136.096 225.5,140.5C 223.453,141.904 221.786,141.571 220.5,139.5C 221.747,137.677 222.414,135.677 222.5,133.5 Z"/></g><g><path style="opacity:1" fill="#000000" d="M 141.5,135.5 C 144.89,136.944 146.223,139.61 145.5,143.5C 144.167,143.5 142.833,143.5 141.5,143.5C 141.414,141.323 140.747,139.323 139.5,137.5C 140.243,136.818 140.909,136.151 141.5,135.5 Z"/></g><g><path style="opacity:1" fill="#000000" d="M 216.5,145.5 C 218.311,145.572 219.644,146.405 220.5,148C 219.421,150.678 217.754,152.845 215.5,154.5C 214.263,154.444 213.263,153.944 212.5,153C 213.627,150.377 214.961,147.877 216.5,145.5 Z"/></g><g><path style="opacity:1" fill="#000000" d="M 146.5,148.5 C 150.343,148.306 152.676,150.139 153.5,154C 152.404,156.147 150.904,156.647 149,155.5C 147.097,153.559 146.264,151.226 146.5,148.5 Z"/></g><g><path style="opacity:1" fill="#000000" d="M 209.5,159.5 C 211.167,159.5 212.833,159.5 214.5,159.5C 213.708,163.211 212.708,166.878 211.5,170.5C 210.069,170.023 208.736,169.357 207.5,168.5C 208.642,165.601 209.308,162.601 209.5,159.5 Z"/></g><g><path style="opacity:1" fill="#000000" d="M 152.5,161.5 C 153.978,161.238 155.311,161.571 156.5,162.5C 157.229,164.976 157.896,167.476 158.5,170C 157.381,171.876 155.714,172.709 153.5,172.5C 153.797,169.276 153.13,166.276 151.5,163.5C 151.863,162.817 152.196,162.15 152.5,161.5 Z"/></g><g><path style="opacity:1" fill="#000000" d="M 207.5,175.5 C 209.117,176.038 210.784,176.371 212.5,176.5C 212.443,178.884 212.777,181.218 213.5,183.5C 213.167,184.167 212.833,184.833 212.5,185.5C 211.264,184.754 209.93,184.421 208.5,184.5C 208.296,181.482 207.963,178.482 207.5,175.5 Z"/></g><g><path style="opacity:1" fill="#000000" d="M 156.5,177.5 C 157.748,178.334 158.415,179.667 158.5,181.5C 158.701,186.047 156.701,187.714 152.5,186.5C 153.393,183.916 153.726,181.249 153.5,178.5C 154.791,178.737 155.791,178.404 156.5,177.5 Z"/></g><g><path style="opacity:1" fill="#000000" d="M 210.5,191.5 C 211.93,191.421 213.264,191.754 214.5,192.5C 215.833,195.833 215.833,199.167 214.5,202.5C 213.833,202.167 213.167,201.833 212.5,201.5C 211.555,198.212 210.888,194.879 210.5,191.5 Z"/></g><g><path style="opacity:1" fill="#000000" d="M 151.5,193.5 C 152.833,193.5 154.167,193.5 155.5,193.5C 155.5,196.833 155.5,200.167 155.5,203.5C 154.07,203.421 152.736,203.754 151.5,204.5C 150.242,200.79 150.242,197.123 151.5,193.5 Z"/></g><g><path style="opacity:1" fill="#000000" d="M 209.5,207.5 C 211.484,207.383 213.15,208.05 214.5,209.5C 213.877,211.711 212.877,213.711 211.5,215.5C 210.205,214.902 208.872,214.402 207.5,214C 208.669,211.993 209.335,209.827 209.5,207.5 Z"/></g><g><path style="opacity:1" fill="#000000" d="M 154.5,209.5 C 156.586,210.148 157.586,211.648 157.5,214C 157.231,215.607 156.397,216.774 155,217.5C 153.836,215.351 152.67,213.185 151.5,211C 152.737,210.768 153.737,210.268 154.5,209.5 Z"/></g><g><path style="opacity:1" fill="#000000" d="M 408.5,470.5 C 322.833,470.5 237.167,470.5 151.5,470.5C 113.732,466.617 82.7323,450.117 58.5,421C 57.5,420.667 56.5,420.333 55.5,420C 36.842,420.157 18.1753,420.324 -0.5,420.5C -0.5,367.833 -0.5,315.167 -0.5,262.5C 19.1695,262.667 38.8362,262.5 58.5,262C 72.2612,245.892 88.5945,233.226 107.5,224C 116.366,221.033 125.366,218.533 134.5,216.5C 135.709,219.086 137.043,221.586 138.5,224C 138.265,224.873 137.931,225.707 137.5,226.5C 139.668,228.633 141.334,231.133 142.5,234C 140.432,234.687 138.432,234.52 136.5,233.5C 135.692,233.808 135.025,234.308 134.5,235C 142.797,239.012 142.13,241.179 132.5,241.5C 133.521,245.023 135.855,246.856 139.5,247C 136.749,247.516 134.416,248.683 132.5,250.5C 135.583,250.264 138.583,250.764 141.5,252C 138.936,254.276 139.27,256.276 142.5,258C 141.552,258.483 140.552,258.649 139.5,258.5C 139.393,260.903 140.393,262.736 142.5,264C 135.993,265.616 135.327,268.283 140.5,272C 141.635,272.749 142.635,272.583 143.5,271.5C 146.235,265.3 150.901,263.134 157.5,265C 163.351,268.744 162.684,270.411 155.5,270C 155.043,270.414 154.709,270.914 154.5,271.5C 157.145,272.192 159.645,273.192 162,274.5C 161.973,276.417 161.139,278.084 159.5,279.5C 159.833,279.833 160.167,280.167 160.5,280.5C 164.507,281.664 168.007,283.664 171,286.5C 172.856,284.594 175.023,283.76 177.5,284C 180.692,286.692 184.025,289.192 187.5,291.5C 189.5,290.833 190.833,289.5 191.5,287.5C 190.387,284.557 189.054,281.723 187.5,279C 187.613,277.72 188.28,276.887 189.5,276.5C 192.42,278.833 194.753,281.667 196.5,285C 197.76,286.113 198.927,286.28 200,285.5C 198.411,281.803 196.911,277.97 195.5,274C 195.488,270.515 197.155,268.348 200.5,267.5C 200.046,264.747 198.379,263.08 195.5,262.5C 196.945,260.937 198.611,259.604 200.5,258.5C 203.6,261.889 206.933,265.055 210.5,268C 209.216,268.684 208.049,268.517 207,267.5C 206.13,268.108 205.63,268.941 205.5,270C 206.33,271.465 206.496,272.965 206,274.5C 203.834,276.121 201.334,276.955 198.5,277C 202.229,278.906 206.229,280.072 210.5,280.5C 211.167,280.167 211.833,279.833 212.5,279.5C 211.52,278.019 210.353,276.685 209,275.5C 208.251,274.365 208.417,273.365 209.5,272.5C 213.476,275.322 217.809,277.322 222.5,278.5C 222.833,275.501 222.833,272.668 222.5,270C 224.279,267.896 225.612,265.562 226.5,263C 225.05,260.338 223.217,260.505 221,263.5C 220.202,261.741 220.369,260.074 221.5,258.5C 223.332,257.752 224.999,256.752 226.5,255.5C 224.585,253.929 223.585,251.929 223.5,249.5C 225.06,249.519 226.56,249.852 228,250.5C 230.48,250.048 230.98,248.881 229.5,247C 230.833,244.667 232.167,242.333 233.5,240C 231.721,238.162 229.721,236.495 227.5,235C 227.645,234.228 227.978,233.561 228.5,233C 232.268,232.023 235.768,230.523 239,228.5C 239.793,224.954 238.293,223.12 234.5,223C 237.033,221.084 237.033,219.084 234.5,217C 235.448,216.517 236.448,216.351 237.5,216.5C 237.5,215.5 237.5,214.5 237.5,213.5C 280.846,213.216 324.179,213.55 367.5,214.5C 368.823,231.365 361.823,243.198 346.5,250C 339.968,251.978 333.302,253.311 326.5,254C 307.833,254.333 289.167,254.667 270.5,255C 265.705,257.133 265.038,259.8 268.5,263C 271.764,263.939 275.097,264.439 278.5,264.5C 308.491,263.857 338.491,263.524 368.5,263.5C 398.533,263.357 428.533,263.857 458.5,265C 476.789,269.405 482.622,280.572 476,298.5C 469.629,305.099 461.796,308.599 452.5,309C 393.172,308.474 333.838,308.474 274.5,309C 268.779,310.436 268.112,313.103 272.5,317C 301.082,318.159 329.749,318.659 358.5,318.5C 400.837,318.163 443.17,317.996 485.5,318C 506.065,319.995 513.565,330.828 508,350.5C 502.914,358.13 495.747,362.297 486.5,363C 475.328,363.394 464.162,363.894 453,364.5C 393.512,362.72 334.012,362.22 274.5,363C 267.833,365.667 267.833,368.333 274.5,371C 328.179,371.816 381.845,371.65 435.5,370.5C 441.487,371.142 447.487,371.642 453.5,372C 473.618,373.441 481.451,383.941 477,403.5C 471.668,411.419 464.168,415.586 454.5,416C 394.167,416.333 333.833,416.667 273.5,417C 268.032,420.284 268.366,422.951 274.5,425C 314.842,425.798 355.176,425.632 395.5,424.5C 421.253,424.068 430.42,436.068 423,460.5C 419.311,465.72 414.478,469.053 408.5,470.5 Z M 239.5,237.5 C 241.8,237.522 242.967,238.522 243,240.5C 241.887,241.711 240.72,241.711 239.5,240.5C 238.438,239.575 238.438,238.575 239.5,237.5 Z M 229.5,259.5 C 231.532,260.048 232.532,261.381 232.5,263.5C 231.167,263.5 229.833,263.5 228.5,263.5C 228.433,262.041 228.766,260.708 229.5,259.5 Z M 200.5,267.5 C 202.332,268.14 202.665,269.14 201.5,270.5C 200.614,269.675 200.281,268.675 200.5,267.5 Z M 145.5,271.5 C 148.267,272.754 148.933,274.754 147.5,277.5C 145.717,275.977 145.051,273.977 145.5,271.5 Z M 151.5,273.5 C 152.993,274.312 153.66,275.645 153.5,277.5C 152.889,281.272 151.889,281.272 150.5,277.5C 151.246,276.264 151.579,274.93 151.5,273.5 Z M 204.5,285.5 C 208.5,284.833 210.167,286.5 209.5,290.5C 206.167,290.5 204.5,288.833 204.5,285.5 Z M 175.5,287.5 C 181.487,288.776 181.82,290.776 176.5,293.5C 175.534,291.604 175.201,289.604 175.5,287.5 Z"/></g><g><path style="opacity:1" fill="#000000" d="M 224.5,214.5 C 227.318,214.495 228.485,215.828 228,218.5C 225.929,217.897 224.762,216.564 224.5,214.5 Z"/></g><g><path style="opacity:1" fill="#000000" d="M 142.5,217.5 C 141.833,216.167 141.833,216.167 142.5,217.5 Z"/></g><g><path style="opacity:1" fill="#000000" d="M 142.5,217.5 C 143.496,217.414 144.329,217.748 145,218.5C 145.494,220.134 145.66,221.801 145.5,223.5C 148.555,222.476 151.555,221.143 154.5,219.5C 154.833,219.833 155.167,220.167 155.5,220.5C 154.232,222.047 152.565,223.047 150.5,223.5C 149.41,224.391 149.41,225.391 150.5,226.5C 148.389,227.848 146.555,227.515 145,225.5C 143.856,222.92 143.022,220.253 142.5,217.5 Z"/></g><g><path style="opacity:1" fill="#000000" d="M 228.5,223.5 C 230.14,224.79 230.64,226.457 230,228.5C 228.421,226.959 226.587,225.792 224.5,225C 222.485,223.445 222.152,221.611 223.5,219.5C 225.186,220.857 226.852,222.19 228.5,223.5 Z"/></g><g><path style="opacity:1" fill="#000000" d="M 211.5,221.5 C 212.776,222.386 212.776,223.386 211.5,224.5C 210.438,223.575 210.438,222.575 211.5,221.5 Z"/></g><g><path style="opacity:1" fill="#000000" d="M 215.5,221.5 C 217.512,222.228 219.512,223.062 221.5,224C 222.38,225.356 222.714,226.856 222.5,228.5C 220.833,228.5 219.167,228.5 217.5,228.5C 217.026,232.157 215.693,232.324 213.5,229C 214.554,226.618 215.221,224.118 215.5,221.5 Z"/></g><g><path style="opacity:1" fill="#000000" d="M 228.5,223.5 C 229.36,221.03 230.694,220.863 232.5,223C 231.207,223.49 229.873,223.657 228.5,223.5 Z"/></g><g><path style="opacity:1" fill="#000000" d="M 209.5,227.5 C 210.5,227.5 211.5,227.5 212.5,227.5C 212.386,233.764 211.386,233.764 209.5,227.5 Z"/></g><g><path style="opacity:1" fill="#000000" d="M 153.5,228.5 C 155.599,229.37 155.932,230.703 154.5,232.5C 150.975,233.86 148.641,236.36 147.5,240C 146.552,240.483 145.552,240.649 144.5,240.5C 144.34,238.801 144.506,237.134 145,235.5C 146.147,236.458 147.147,236.125 148,234.5C 148.49,233.207 148.657,231.873 148.5,230.5C 150.553,230.598 152.22,229.931 153.5,228.5 Z"/></g><g><path style="opacity:1" fill="#000000" d="M 221.5,232.5 C 223.086,233.148 224.753,233.648 226.5,234C 226.518,239.979 224.684,240.812 221,236.5C 220.421,235.072 220.588,233.738 221.5,232.5 Z"/></g><g><path style="opacity:1" fill="#000000" d="M 213.5,233.5 C 215.429,233.231 217.095,233.731 218.5,235C 216.833,236.167 215.167,237.333 213.5,238.5C 210.839,236.828 210.839,235.161 213.5,233.5 Z"/></g><g><path style="opacity:1" fill="#000000" d="M 153.5,238.5 C 158.868,238.623 159.368,239.623 155,241.5C 154.814,243.9 154.314,246.234 153.5,248.5C 151.693,247.605 150.36,246.272 149.5,244.5C 150.432,242.235 151.765,240.235 153.5,238.5 Z"/></g><g><path style="opacity:1" fill="#000000" d="M 208.5,239.5 C 211.14,240.794 211.14,242.127 208.5,243.5C 208.094,242.443 208.094,241.109 208.5,239.5 Z"/></g><g><path style="opacity:1" fill="#000000" d="M 214.5,240.5 C 215.978,240.238 217.311,240.571 218.5,241.5C 217.764,243.793 217.598,246.126 218,248.5C 215.965,250.24 214.131,252.074 212.5,254C 214.032,256.117 216.032,257.784 218.5,259C 217.663,260.011 217.33,261.178 217.5,262.5C 213.851,261.594 210.351,260.26 207,258.5C 205.022,259.816 203.522,259.316 202.5,257C 202.957,256.586 203.291,256.086 203.5,255.5C 201.713,254.684 200.046,253.684 198.5,252.5C 199.693,250.616 201.359,250.116 203.5,251C 204.337,252.011 204.67,253.178 204.5,254.5C 206.46,253.862 208.293,253.862 210,254.5C 210.309,252.609 209.475,251.275 207.5,250.5C 209.53,248.393 211.697,246.393 214,244.5C 214.49,243.207 214.657,241.873 214.5,240.5 Z"/></g><g><path style="opacity:1" fill="#000000" d="M 223.5,240.5 C 227.423,241.983 227.423,243.65 223.5,245.5C 222.328,245.081 221.328,244.415 220.5,243.5C 221.77,242.712 222.77,241.712 223.5,240.5 Z"/></g><g><path style="opacity:1" fill="#000000" d="M 142.5,244.5 C 148.092,246.91 148.426,249.576 143.5,252.5C 142.52,249.914 142.187,247.247 142.5,244.5 Z"/></g><g><path style="opacity:1" fill="#000000" d="M 157.5,246.5 C 158.239,246.369 158.906,246.536 159.5,247C 159.324,248.692 158.824,250.192 158,251.5C 157.506,249.866 157.34,248.199 157.5,246.5 Z"/></g><g><path style="opacity:1" fill="#000000" d="M 150.5,250.5 C 154.88,251.224 156.88,253.89 156.5,258.5C 155.178,258.33 154.011,258.663 153,259.5C 151.698,256.625 150.865,253.625 150.5,250.5 Z"/></g><g><path style="opacity:1" fill="#000000" d="M 162.5,250.5 C 164.429,250.231 166.095,250.731 167.5,252C 165.149,254.337 162.316,255.837 159,256.5C 158.333,255.833 158.333,255.167 159,254.5C 160.376,253.295 161.542,251.962 162.5,250.5 Z"/></g><g><path style="opacity:1" fill="#000000" d="M 217.5,251.5 C 218.5,251.5 219.5,251.5 220.5,251.5C 220.5,252.5 220.5,253.5 220.5,254.5C 219.5,254.5 218.5,254.5 217.5,254.5C 217.5,253.5 217.5,252.5 217.5,251.5 Z"/></g><g><path style="opacity:1" fill="#000000" d="M 193.5,253.5 C 198.231,254.925 198.398,256.592 194,258.5C 192.212,256.977 192.045,255.31 193.5,253.5 Z"/></g><g><path style="opacity:1" fill="#000000" d="M 147.5,255.5 C 148.695,255.866 149.361,256.699 149.5,258C 147.661,259.839 145.828,261.672 144,263.5C 143.516,261.087 143.85,258.754 145,256.5C 146.159,257.566 146.992,257.233 147.5,255.5 Z"/></g><g><path style="opacity:1" fill="#000000" d="M 166.5,256.5 C 168.527,256.338 170.527,256.505 172.5,257C 170.248,260.168 168.248,263.501 166.5,267C 165.833,267.667 165.167,267.667 164.5,267C 163.213,265.59 162.046,264.09 161,262.5C 159.703,263.784 158.536,263.617 157.5,262C 158.09,260.701 159.09,259.868 160.5,259.5C 162.056,260.547 163.723,261.214 165.5,261.5C 165.366,259.708 165.699,258.042 166.5,256.5 Z"/></g><g><path style="opacity:1" fill="#000000" d="M 178.5,262.5 C 177.833,262.5 177.5,262.833 177.5,263.5C 176.504,263.586 175.671,263.252 175,262.5C 174.333,260.833 174.333,259.167 175,257.5C 175.893,256.289 176.726,256.289 177.5,257.5C 178.309,259.071 178.643,260.738 178.5,262.5 Z"/></g><g><path style="opacity:1" fill="#000000" d="M 183.5,256.5 C 187.342,257.629 190.009,260.129 191.5,264C 190.128,264.402 188.795,264.902 187.5,265.5C 185.885,262.605 184.552,259.605 183.5,256.5 Z"/></g><g><path style="opacity:1" fill="#000000" d="M 177.5,263.5 C 178.167,263.5 178.5,263.167 178.5,262.5C 179.496,262.586 180.329,262.252 181,261.5C 181.36,263.421 182.194,265.088 183.5,266.5C 180.743,268.088 179.91,270.421 181,273.5C 182.609,274.147 184.109,274.98 185.5,276C 183.868,277.31 182.201,277.81 180.5,277.5C 184.375,278.867 185.208,281.201 183,284.5C 179.873,281.29 176.039,279.957 171.5,280.5C 172.618,275.853 172.618,271.186 171.5,266.5C 173.5,266.833 175.5,267.167 177.5,267.5C 177.5,266.167 177.5,264.833 177.5,263.5 Z"/></g><g><path style="opacity:1" fill="#000000" d="M 211.5,266.5 C 214.024,265.2 216.691,265.2 219.5,266.5C 218.833,267.167 218.167,267.833 217.5,268.5C 219.415,270.071 220.415,272.071 220.5,274.5C 219.07,274.579 217.736,274.246 216.5,273.5C 215.367,270.711 213.7,268.378 211.5,266.5 Z"/></g><g><path style="opacity:1" fill="#000000" d="M 189.5,267.5 C 191.429,267.231 193.095,267.731 194.5,269C 191.753,270.604 188.753,271.438 185.5,271.5C 185.5,270.5 185.5,269.5 185.5,268.5C 187.099,268.768 188.432,268.434 189.5,267.5 Z"/></g><g><path style="opacity:1" fill="#000000" d="M 165.5,269.5 C 166.995,269.415 167.995,270.081 168.5,271.5C 167.68,273.111 166.346,273.778 164.5,273.5C 164.433,272.041 164.766,270.708 165.5,269.5 Z"/></g><g><path style="opacity:1" fill="#000000" d="M 165.5,276.5 C 169.029,277.03 169.362,278.363 166.5,280.5C 164.358,279.563 164.024,278.23 165.5,276.5 Z"/></g></svg>