<svg xmlns="http://www.w3.org/2000/svg" version="1.1" width="692px" height="750px" style="shape-rendering:geometricPrecision; text-rendering:geometricPrecision; image-rendering:optimizeQuality; fill-rule:evenodd; clip-rule:evenodd" xmlns:xlink="http://www.w3.org/1999/xlink"><g><path style="opacity:1" fill="#000000" d="M -0.5,0.5 C -0.5,0.166667 -0.5,-0.166667 -0.5,-0.5C 0.166667,-0.5 0.833333,-0.5 1.5,-0.5C 4.16667,0.833333 6.83333,0.833333 9.5,-0.5C 95.5,-0.5 181.5,-0.5 267.5,-0.5C 294.134,30.0981 320.301,61.0981 346,92.5C 353.333,100.5 360.667,108.5 368,116.5C 375.681,125.521 380.681,135.854 383,147.5C 385.305,167.999 382.305,187.666 374,206.5C 368.655,219.361 363.155,232.194 357.5,245C 358.651,246.823 359.818,248.656 361,250.5C 367.164,255.831 372.998,261.498 378.5,267.5C 375.96,273.338 375.96,279.172 378.5,285C 378.53,288.966 378.364,293.133 378,297.5C 373.788,303.706 368.288,308.539 361.5,312C 359.913,313.845 358.579,315.845 357.5,318C 360.286,329.035 364.619,339.368 370.5,349C 379.172,348.74 387.839,348.407 396.5,348C 397.833,348.667 399.167,349.333 400.5,350C 406.333,357.167 412.833,363.667 420,369.5C 421.047,372.039 421.547,374.705 421.5,377.5C 420.415,384.846 420.415,392.179 421.5,399.5C 430.604,404.701 440.104,409.035 450,412.5C 452.5,410.667 455,408.833 457.5,407C 461.856,401.646 466.523,396.646 471.5,392C 482.122,392.007 492.789,392.007 503.5,392C 510.365,398.531 516.865,405.364 523,412.5C 535.017,409.056 546.183,403.889 556.5,397C 601.31,396.006 645.976,396.339 690.5,398C 688.587,416.885 679.253,430.552 662.5,439C 654.219,442.76 645.552,445.094 636.5,446C 624.174,447.233 611.84,447.9 599.5,448C 597.122,446.085 595.622,443.585 595,440.5C 566.553,440.421 538.053,441.588 509.5,444C 488.735,449.151 471.402,443.818 457.5,428C 454.888,426.111 452.055,424.611 449,423.5C 440.431,428.869 431.931,434.369 423.5,440C 416.701,439.237 410.034,437.737 403.5,435.5C 400.89,424.895 397.89,414.395 394.5,404C 383.004,400.973 371.337,399.973 359.5,401C 356.026,405.956 353.026,411.123 350.5,416.5C 337.037,411.103 323.371,406.269 309.5,402C 292.324,397.569 276.658,400.569 262.5,411C 257.667,415.833 252.833,420.667 248,425.5C 231.667,446.5 215.333,467.5 199,488.5C 192.129,497.038 184.296,504.538 175.5,511C 155.815,522.492 136.315,522.326 117,510.5C 116.333,509.5 116.333,508.5 117,507.5C 140.676,470.143 165.342,433.476 191,397.5C 196.447,388.94 201.114,379.94 205,370.5C 207.983,357.284 210.317,343.951 212,330.5C 216.013,283.708 220.679,237.041 226,190.5C 224.167,188 222.333,185.5 220.5,183C 210.785,174.95 200.785,167.284 190.5,160C 138.5,116 86.5,72 34.5,28C 23.1661,18.3424 11.4995,9.17574 -0.5,0.5 Z"/></g><g><path style="opacity:1" fill="#000000" d="M 447.5,161.5 C 453.906,166.07 459.573,171.57 464.5,178C 468.894,181.726 473.894,182.559 479.5,180.5C 487.806,181.748 496.14,182.248 504.5,182C 510.333,178.833 514.833,174.333 518,168.5C 520.371,165.794 523.037,163.461 526,161.5C 532.273,163.871 538.44,166.537 544.5,169.5C 545.702,176.884 545.368,184.218 543.5,191.5C 544.376,198.879 548.376,203.712 555.5,206C 560.687,211.686 565.687,217.519 570.5,223.5C 580.172,223.957 589.839,224.29 599.5,224.5C 602.463,230.56 605.129,236.727 607.5,243C 601.121,250.377 594.454,257.377 587.5,264C 588.832,274.033 588.499,284.033 586.5,294C 586.656,297.817 587.822,301.317 590,304.5C 593.552,307.719 597.385,310.552 601.5,313C 604.361,315.219 606.361,318.053 607.5,321.5C 605.362,327.247 603.029,332.914 600.5,338.5C 590.851,339.332 581.184,339.832 571.5,340C 563.333,349.5 554.5,358.333 545,366.5C 545.43,376.065 545.263,385.565 544.5,395C 538.316,397.504 532.15,400.004 526,402.5C 519.554,396.054 513.054,389.554 506.5,383C 494.833,383.694 483.166,383.527 471.5,382.5C 470.5,382.667 469.5,382.833 468.5,383C 461.973,389.527 455.473,396.027 449,402.5C 442.446,400.391 436.113,397.724 430,394.5C 429.793,385.492 429.793,376.492 430,367.5C 428.878,365.376 427.378,363.543 425.5,362C 416.888,356.055 409.555,348.721 403.5,340C 393.893,339.636 384.393,339.469 375,339.5C 371.826,333.818 369.326,327.818 367.5,321.5C 368.467,319.37 369.634,317.37 371,315.5C 377,310.833 382.333,305.5 387,299.5C 384.875,288.516 385.041,277.516 387.5,266.5C 386.909,264.734 386.076,263.067 385,261.5C 379.968,256.133 374.635,251.133 369,246.5C 368.5,245.5 368,244.5 367.5,243.5C 369.841,236.809 372.174,230.142 374.5,223.5C 384.174,224.534 393.84,224.534 403.5,223.5C 411.186,213.647 420.019,204.981 430,197.5C 429.225,188.227 429.391,178.894 430.5,169.5C 436.064,166.433 441.73,163.766 447.5,161.5 Z M 482.5,213.5 C 527.295,214.296 551.962,236.963 556.5,281.5C 552.98,324.02 529.98,347.353 487.5,351.5C 452.225,349.299 429.725,331.299 420,297.5C 414.458,249.502 435.291,221.502 482.5,213.5 Z"/></g><g><path style="opacity:1" fill="#000000" d="M 359.5,749.5 C 353.833,749.5 348.167,749.5 342.5,749.5C 339.972,748.834 337.306,748.168 334.5,747.5C 331.515,737.896 328.682,728.229 326,718.5C 325.5,716.667 324.333,715.5 322.5,715C 315.795,712.598 309.128,710.098 302.5,707.5C 292.73,713.131 283.23,719.131 274,725.5C 268.51,722.015 263.01,718.515 257.5,715C 255.406,713.745 254.406,711.912 254.5,709.5C 256.2,701.033 258.367,692.699 261,684.5C 261.667,682.833 261.667,681.167 261,679.5C 256.418,672.831 251.251,666.664 245.5,661C 235.465,660.605 225.465,661.105 215.5,662.5C 214.228,662.43 213.062,662.097 212,661.5C 208.574,654.98 205.407,648.314 202.5,641.5C 209.044,632.448 216.544,624.115 225,616.5C 223.49,608.612 222.157,600.612 221,592.5C 211.974,586.824 202.474,581.991 192.5,578C 191.574,570.221 191.741,562.388 193,554.5C 193.374,553.584 193.874,552.75 194.5,552C 204.299,549.8 213.966,547.134 223.5,544C 225.041,542.421 226.208,540.587 227,538.5C 228.482,532.404 230.648,526.57 233.5,521C 227.677,511.021 221.677,501.188 215.5,491.5C 219.374,484.411 224.207,478.077 230,472.5C 240.18,474.404 250.18,477.071 260,480.5C 266.857,475.405 273.524,470.072 280,464.5C 280.474,452.91 279.974,441.41 278.5,430C 285.555,427.209 292.388,424.042 299,420.5C 300.833,421.667 302.667,422.833 304.5,424C 310.816,430.248 317.15,436.581 323.5,443C 331.43,441.885 339.43,440.885 347.5,440C 349.688,437.805 351.521,435.305 353,432.5C 355.72,424.658 359.387,417.325 364,410.5C 371.198,409.144 378.364,409.477 385.5,411.5C 386.086,411.291 386.586,410.957 387,410.5C 391.123,420.873 394.457,431.54 397,442.5C 403.533,445.181 410.033,448.015 416.5,451C 421.181,451.665 425.514,450.665 429.5,448C 434.867,442.285 441.034,437.785 448,434.5C 455.678,437.598 462.511,442.098 468.5,448C 465.992,458.031 463.325,468.031 460.5,478C 465.45,485.284 470.783,492.284 476.5,499C 484.296,498.454 492.13,497.954 500,497.5C 503.75,497.517 507.417,497.851 511,498.5C 514.17,504.684 517.336,510.851 520.5,517C 517.382,521.786 513.882,526.286 510,530.5C 505.199,534.299 500.699,538.466 496.5,543C 498.823,550.648 500.323,558.481 501,566.5C 510.344,572.589 520.177,577.755 530.5,582C 531.216,590.151 530.716,598.318 529,606.5C 518.236,608.983 507.736,612.316 497.5,616.5C 495.053,624.061 492.053,631.394 488.5,638.5C 494.631,647.932 500.631,657.432 506.5,667C 503.363,674.465 499.03,681.132 493.5,687C 483.131,684.656 472.798,681.822 462.5,678.5C 455.523,683.642 448.69,688.976 442,694.5C 442.077,704.165 442.577,713.832 443.5,723.5C 443.468,725.759 443.134,727.925 442.5,730C 436.089,732.954 429.589,735.787 423,738.5C 421.107,737.804 419.274,736.97 417.5,736C 413.95,732.117 410.783,727.951 408,723.5C 404.909,718.789 400.576,716.122 395,715.5C 387.906,717.485 380.74,719.152 373.5,720.5C 368.065,729.811 363.398,739.478 359.5,749.5 Z M 349.5,472.5 C 395.565,469.78 430.731,487.78 455,526.5C 475.32,568.612 471.987,608.612 445,646.5C 407.724,688.193 363.224,698.026 311.5,676C 271.316,652.476 252.483,617.309 255,570.5C 258.637,533.567 276.137,505.4 307.5,486C 320.947,479.314 334.947,474.814 349.5,472.5 Z"/></g><g><path style="opacity:1" fill="#000000" d="M 691.5,485.5 C 691.5,489.833 691.5,494.167 691.5,498.5C 687.911,511.252 679.578,519.086 666.5,522C 654.935,523.816 643.935,522.149 633.5,517C 628.833,513.667 624.167,510.333 619.5,507C 615.167,506.333 610.833,506.333 606.5,507C 598.848,508.997 591.181,510.83 583.5,512.5C 578.922,512.476 575.089,510.81 572,507.5C 568.34,501.18 565.507,494.514 563.5,487.5C 536.317,485.67 509.484,486.67 483,490.5C 476.958,486.797 472.791,481.63 470.5,475C 471.935,467.652 473.935,460.486 476.5,453.5C 514.122,450.482 551.788,449.482 589.5,450.5C 591.825,458.674 594.992,466.34 599,473.5C 608.932,470.301 618.932,467.301 629,464.5C 639.658,471.072 651.158,475.905 663.5,479C 672.48,480.744 681.48,480.91 690.5,479.5C 690.205,481.735 690.539,483.735 691.5,485.5 Z"/></g><g><path style="opacity:1" fill="#000000" d="M 521.5,495.5 C 533.518,495.168 545.518,495.501 557.5,496.5C 560.06,502.449 562.727,508.282 565.5,514C 574.054,517.777 582.72,521.277 591.5,524.5C 603.218,547.436 614.551,570.603 625.5,594C 607.798,603.499 591.131,601.832 575.5,589C 564.969,579.445 557.302,567.945 552.5,554.5C 548.448,553.684 544.448,552.684 540.5,551.5C 534.548,536.045 529.048,520.379 524,504.5C 522.374,502.083 520.874,499.583 519.5,497C 520.416,496.722 521.082,496.222 521.5,495.5 Z"/></g></svg>