<svg xmlns="http://www.w3.org/2000/svg" version="1.1" width="592px" height="628px" style="shape-rendering:geometricPrecision; text-rendering:geometricPrecision; image-rendering:optimizeQuality; fill-rule:evenodd; clip-rule:evenodd" xmlns:xlink="http://www.w3.org/1999/xlink"><g><path style="opacity:1" fill="#000000" d="M 293.5,-0.5 C 312.5,-0.5 331.5,-0.5 350.5,-0.5C 392.285,4.22257 431.618,16.7226 468.5,37C 527.674,73.819 565.507,125.986 582,193.5C 586.936,214.716 590.102,236.049 591.5,257.5C 591.5,268.5 591.5,279.5 591.5,290.5C 586.172,380.131 555.005,459.464 498,528.5C 460.6,570.939 414.767,599.772 360.5,615C 328.562,620.424 296.562,624.591 264.5,627.5C 239.833,627.5 215.167,627.5 190.5,627.5C 171.814,625.46 153.481,621.293 135.5,615C 116.445,606.945 103.612,593.112 97,573.5C 94.266,564.396 92.266,555.063 91,545.5C 88.2403,505.887 86.907,466.22 87,426.5C 81.0445,422.393 74.5445,419.226 67.5,417C 51.4524,414.845 35.4524,412.512 19.5,410C 15.9099,408.47 12.2432,407.136 8.5,406C 5.33466,403.665 2.33466,401.165 -0.5,398.5C -0.5,391.833 -0.5,385.167 -0.5,378.5C 15.3442,339.547 29.8442,299.88 43,259.5C 57.2,218.633 74.2,178.967 94,140.5C 107.211,116.741 122.878,94.7409 141,74.5C 170.72,43.0821 206.22,21.2487 247.5,9C 262.959,5.70703 278.293,2.54036 293.5,-0.5 Z M 167.5,219.5 C 176.94,219.315 185.607,221.649 193.5,226.5C 203.536,247.205 198.203,262.371 177.5,272C 162.585,275.128 150.085,270.961 140,259.5C 135.031,242.412 140.531,229.912 156.5,222C 160.312,221.205 163.979,220.371 167.5,219.5 Z"/></g></svg>