<svg xmlns="http://www.w3.org/2000/svg" version="1.1" width="408px" height="579px" style="shape-rendering:geometricPrecision; text-rendering:geometricPrecision; image-rendering:optimizeQuality; fill-rule:evenodd; clip-rule:evenodd" xmlns:xlink="http://www.w3.org/1999/xlink"><g><path style="opacity:1" fill="#000000" d="M 191.5,-0.5 C 251.5,-0.5 311.5,-0.5 371.5,-0.5C 371.987,0.473444 372.487,1.47344 373,2.5C 373.333,97.1667 373.667,191.833 374,286.5C 375.974,286.626 378.141,286.792 380.5,287C 381.337,288.011 381.67,289.178 381.5,290.5C 384.85,290.335 388.183,290.502 391.5,291C 395.969,294.923 399.136,299.756 401,305.5C 403.183,307.907 405.35,310.24 407.5,312.5C 407.5,315.5 407.5,318.5 407.5,321.5C 405.661,322.508 404.328,324.008 403.5,326C 401.527,326.495 399.527,326.662 397.5,326.5C 397.444,361.141 397.444,395.808 397.5,430.5C 397.514,432.593 396.848,434.426 395.5,436C 396.26,437.441 396.926,438.941 397.5,440.5C 397.187,445.615 397.187,450.782 397.5,456C 396.951,460.563 396.118,465.063 395,469.5C 391.757,468.993 388.591,469.659 385.5,471.5C 381.992,470.212 378.492,470.212 375,471.5C 373.527,471.097 372.194,470.43 371,469.5C 368.4,471.891 365.733,471.891 363,469.5C 361.806,470.43 360.473,471.097 359,471.5C 355.508,470.212 352.008,470.212 348.5,471.5C 346.813,471.24 345.313,470.573 344,469.5C 341.4,471.891 338.733,471.891 336,469.5C 334.806,470.43 333.473,471.097 332,471.5C 325.792,471.194 319.626,471.194 313.5,471.5C 311.941,470.926 310.441,470.26 309,469.5C 307.806,470.43 306.473,471.097 305,471.5C 298.678,471.371 292.345,471.371 286,471.5C 284.527,471.097 283.194,470.43 282,469.5C 279.667,472.167 277.333,472.167 275,469.5C 273.85,476.004 273.35,482.67 273.5,489.5C 274.777,512.971 274.777,536.305 273.5,559.5C 273.722,561.055 274.389,562.389 275.5,563.5C 272.833,567.167 272.833,570.833 275.5,574.5C 275.023,575.478 274.357,576.311 273.5,577C 271.292,577.191 269.292,577.691 267.5,578.5C 267.167,578.5 266.833,578.5 266.5,578.5C 264.167,577.167 261.833,577.167 259.5,578.5C 259.167,578.5 258.833,578.5 258.5,578.5C 252.5,577.167 246.5,577.167 240.5,578.5C 240.167,578.5 239.833,578.5 239.5,578.5C 237.167,577.167 234.833,577.167 232.5,578.5C 232.167,578.5 231.833,578.5 231.5,578.5C 222.833,577.167 214.167,577.167 205.5,578.5C 204.833,578.5 204.167,578.5 203.5,578.5C 201.5,577.167 199.5,577.167 197.5,578.5C 197.167,578.5 196.833,578.5 196.5,578.5C 193.5,577.167 190.5,577.167 187.5,578.5C 186.833,578.5 186.167,578.5 185.5,578.5C 183.167,577.167 180.833,577.167 178.5,578.5C 178.167,578.5 177.833,578.5 177.5,578.5C 175.167,577.167 172.833,577.167 170.5,578.5C 170.167,578.5 169.833,578.5 169.5,578.5C 166.833,577.167 164.167,577.167 161.5,578.5C 160.5,578.5 159.5,578.5 158.5,578.5C 155.577,577.577 153.577,575.577 152.5,572.5C 152.186,563.809 152.186,554.976 152.5,546C 152.121,543.908 151.454,541.908 150.5,540C 151.167,538.667 151.833,537.333 152.5,536C 152.167,535.5 151.833,535 151.5,534.5C 150.103,536.606 148.27,538.273 146,539.5C 145.888,544.126 144.721,548.459 142.5,552.5C 141.086,553.624 139.586,554.624 138,555.5C 137.594,558.915 135.928,561.582 133,563.5C 131.422,566.657 130.422,569.991 130,573.5C 128.27,575.402 126.437,577.069 124.5,578.5C 124.167,578.5 123.833,578.5 123.5,578.5C 121.167,577.167 118.833,577.167 116.5,578.5C 116.167,578.5 115.833,578.5 115.5,578.5C 109.5,577.167 103.5,577.167 97.5,578.5C 97.1667,578.5 96.8333,578.5 96.5,578.5C 85.012,577.505 73.3453,577.172 61.5,577.5C 62.15,573.86 63.65,570.527 66,567.5C 66.3333,565.5 66.6667,563.5 67,561.5C 69.0339,558.091 71.5339,555.091 74.5,552.5C 78.8694,540.231 85.2027,529.065 93.5,519C 93.1667,518.667 92.8333,518.333 92.5,518C 93.7938,515.913 94.9605,513.746 96,511.5C 100.605,509.23 103.272,505.564 104,500.5C 107,496.833 110,493.167 113,489.5C 115.769,481.291 119.103,473.291 123,465.5C 124.987,464.782 126.821,463.782 128.5,462.5C 128.993,459.522 130.493,457.189 133,455.5C 133.2,450.29 135.533,446.29 140,443.5C 140.406,440.085 142.072,437.418 145,435.5C 145.967,426.852 150.467,420.685 158.5,417C 160.866,416.438 163.199,416.604 165.5,417.5C 167.104,417.061 168.604,416.394 170,415.5C 172.853,418.092 175.686,418.092 178.5,415.5C 181.811,416.744 185.144,416.744 188.5,415.5C 190.104,415.939 191.604,416.606 193,417.5C 194.626,416.711 196.126,415.711 197.5,414.5C 199.94,418.418 202.44,418.418 205,414.5C 209.789,415.586 214.622,416.586 219.5,417.5C 222.421,413.567 225.254,413.567 228,417.5C 229.531,416.783 230.864,415.783 232,414.5C 233.626,415.289 235.126,416.289 236.5,417.5C 239.76,414.941 243.094,414.941 246.5,417.5C 248.332,416.752 249.999,415.752 251.5,414.5C 252.665,415.491 253.832,416.491 255,417.5C 256.531,416.783 257.864,415.783 259,414.5C 260.396,415.394 261.896,416.061 263.5,416.5C 266.833,415.167 270.167,415.167 273.5,416.5C 276.59,413.77 279.424,414.103 282,417.5C 284.706,413.519 287.373,413.519 290,417.5C 291.626,416.711 293.126,415.711 294.5,414.5C 297.576,416.787 300.909,417.12 304.5,415.5C 306.104,415.939 307.604,416.606 309,417.5C 311.667,413.5 314.333,413.5 317,417.5C 318.605,416.899 319.938,415.899 321,414.5C 323.707,417.745 326.873,418.078 330.5,415.5C 332.611,415.486 334.445,416.152 336,417.5C 337.86,415.799 340.027,414.799 342.5,414.5C 343.383,411.616 343.383,408.783 342.5,406C 343.167,403.667 343.833,401.333 344.5,399C 344.067,397.072 343.4,395.239 342.5,393.5C 343.167,391.833 343.833,390.167 344.5,388.5C 341.875,382.977 341.875,377.477 344.5,372C 344.259,370.016 343.592,368.183 342.5,366.5C 345.147,363.88 345.147,361.214 342.5,358.5C 342.939,356.896 343.606,355.396 344.5,354C 343.455,352.047 343.455,350.047 344.5,348C 344.067,346.072 343.4,344.239 342.5,342.5C 344.956,338.912 344.956,335.412 342.5,332C 344.013,330.121 344.679,327.954 344.5,325.5C 338.273,328.027 333.939,326.194 331.5,320C 333.641,313.179 335.808,306.346 338,299.5C 339.922,296.157 342.422,293.323 345.5,291C 351.356,288.959 357.356,287.293 363.5,286C 367.099,282.319 367.432,278.319 364.5,274C 365.101,272.395 366.101,271.062 367.5,270C 363.678,263.952 363.678,257.952 367.5,252C 366.484,250.323 365.484,248.657 364.5,247C 365.628,245.532 366.294,243.865 366.5,242C 363.92,236.365 363.92,230.698 366.5,225C 363.554,221.559 363.887,218.559 367.5,216C 366.128,214.758 365.128,213.258 364.5,211.5C 365.382,207.97 366.382,204.47 367.5,201C 366.38,199.263 365.38,197.429 364.5,195.5C 365.123,193.289 366.123,191.289 367.5,189.5C 366.289,188.126 365.289,186.626 364.5,185C 367.04,180.685 367.04,176.351 364.5,172C 365.103,168.819 365.769,165.653 366.5,162.5C 366.278,160.945 365.611,159.611 364.5,158.5C 365.5,157.167 366.5,155.833 367.5,154.5C 366.289,153.126 365.289,151.626 364.5,150C 364.759,148.739 365.426,147.739 366.5,147C 363.714,143.84 364.048,141.007 367.5,138.5C 363.633,134.751 363.633,131.084 367.5,127.5C 366.289,126.126 365.289,124.626 364.5,123C 367.141,116.82 367.141,110.653 364.5,104.5C 365.5,103.167 366.5,101.833 367.5,100.5C 363.633,96.7511 363.633,93.0844 367.5,89.5C 366.065,88.0715 365.065,86.4048 364.5,84.5C 365.681,82.1368 365.681,79.8034 364.5,77.5C 365.5,76.1667 366.5,74.8333 367.5,73.5C 366.5,72.1667 365.5,70.8333 364.5,69.5C 365.304,68.0589 365.971,66.5589 366.5,65C 364.041,59.2876 364.041,53.621 366.5,48C 366.067,46.072 365.4,44.2387 364.5,42.5C 367.037,38.9143 367.037,35.2476 364.5,31.5C 368.043,28.8677 368.376,25.8677 365.5,22.5C 366.565,20.1472 366.398,17.8139 365,15.5C 363.874,14.0564 362.374,13.3898 360.5,13.5C 309.731,14.3925 258.898,14.3925 208,13.5C 206.289,13.4393 204.956,14.1059 204,15.5C 203.333,32.1667 203.333,48.8333 204,65.5C 206.441,67.9686 209.274,69.802 212.5,71C 214.543,72.708 216.21,74.708 217.5,77C 226.835,80.5429 236.168,83.8762 245.5,87C 250.082,90.5756 254.415,94.5756 258.5,99C 265.894,101.393 271.894,105.726 276.5,112C 277.833,112.667 279.167,113.333 280.5,114C 283.364,119.48 285.364,125.313 286.5,131.5C 285.205,134.716 284.538,138.049 284.5,141.5C 281.272,141.299 278.105,141.633 275,142.5C 273.527,142.097 272.194,141.43 271,140.5C 269.687,141.573 268.187,142.24 266.5,142.5C 260.362,142.186 254.195,142.186 248,142.5C 246.527,142.097 245.194,141.43 244,140.5C 242.687,141.573 241.187,142.24 239.5,142.5C 233.419,141.813 227.252,141.813 221,142.5C 219.527,142.097 218.194,141.43 217,140.5C 215.806,141.43 214.473,142.097 213,142.5C 207.015,142.341 201.015,142.341 195,142.5C 193.237,142.025 191.57,141.358 190,140.5C 188.806,141.43 187.473,142.097 186,142.5C 177.012,141.295 168.012,141.295 159,142.5C 157.527,142.097 156.194,141.43 155,140.5C 153.806,141.43 152.473,142.097 151,142.5C 135.99,141.296 120.99,141.296 106,142.5C 100.196,140.374 99.0295,136.707 102.5,131.5C 101.696,130.059 101.029,128.559 100.5,127C 101.836,124.322 102.67,121.489 103,118.5C 107.501,114.027 111.668,109.194 115.5,104C 116.784,103.316 117.951,103.483 119,104.5C 124.948,96.9368 132.448,91.4368 141.5,88C 146.549,82.9097 152.549,80.9097 159.5,82C 164.919,78.9214 170.086,75.4214 175,71.5C 175.561,72.0219 176.228,72.3552 177,72.5C 180.134,69.3736 183.8,67.0403 188,65.5C 190.8,59.1046 190.967,52.7713 188.5,46.5C 190.999,43.089 190.999,39.589 188.5,36C 190.983,32.9347 190.983,29.9347 188.5,27C 191.044,24.5532 191.044,22.0532 188.5,19.5C 191.167,16.8333 191.167,14.1667 188.5,11.5C 189.468,7.46876 190.468,3.46876 191.5,-0.5 Z M 359.5,291.5 C 372.127,288.681 382.627,292.015 391,301.5C 393.976,305.786 396.143,310.453 397.5,315.5C 395.994,316.747 394.494,316.747 393,315.5C 392.528,310.421 390.361,306.254 386.5,303C 371.713,293.604 358.546,295.438 347,308.5C 346.759,311.289 346.092,313.956 345,316.5C 343.301,317.406 341.467,317.739 339.5,317.5C 342.341,305.785 349.008,297.118 359.5,291.5 Z"/></g><g><path style="opacity:1" fill="#000000" d="M 312.5,159.5 C 314.582,159.472 316.416,160.139 318,161.5C 318.97,164.444 319.804,167.444 320.5,170.5C 323.933,172.416 325.933,175.25 326.5,179C 325.43,182.838 325.263,186.671 326,190.5C 322.87,192.628 320.037,195.128 317.5,198C 307.545,198.01 302.211,193.01 301.5,183C 301.027,176.901 303.194,172.068 308,168.5C 309.416,165.391 310.916,162.391 312.5,159.5 Z"/></g><g><path style="opacity:1" fill="#000000" d="M 205.5,166.5 C 208.986,167.472 211.819,169.472 214,172.5C 215.735,177.871 217.568,183.204 219.5,188.5C 211.018,203.374 203.684,202.874 197.5,187C 198,183.5 198.5,180 199,176.5C 201.935,173.621 204.102,170.288 205.5,166.5 Z"/></g><g><path style="opacity:1" fill="#000000" d="M 107.5,167.5 C 110.298,168.706 112.465,170.706 114,173.5C 116.157,178.838 118.99,183.838 122.5,188.5C 119.421,192.324 116.588,196.324 114,200.5C 112.806,201.43 111.473,202.097 110,202.5C 107.167,201.333 104.333,200.167 101.5,199C 99.9344,197.316 98.9344,195.316 98.5,193C 99.2733,188.464 100.607,184.131 102.5,180C 102.043,179.586 101.709,179.086 101.5,178.5C 104.258,175.207 106.258,171.54 107.5,167.5 Z"/></g><g><path style="opacity:1" fill="#000000" d="M 265.5,212.5 C 268.741,214.066 270.241,216.733 270,220.5C 271.731,224.461 273.898,228.128 276.5,231.5C 274.912,234.347 273.579,237.347 272.5,240.5C 269.787,242.382 266.953,244.049 264,245.5C 261.384,243.888 259.05,241.888 257,239.5C 256.771,236.542 255.604,234.042 253.5,232C 255.303,228.897 257.47,226.063 260,223.5C 260.988,220.576 261.654,217.576 262,214.5C 263.302,213.915 264.469,213.249 265.5,212.5 Z"/></g><g><path style="opacity:1" fill="#000000" d="M 57.5,217.5 C 59.6457,216.569 61.8123,216.903 64,218.5C 64.7943,221.471 65.461,224.471 66,227.5C 73.3801,231.761 74.5468,237.428 69.5,244.5C 67.6841,245.815 66.0175,247.315 64.5,249C 56.1095,252.268 51.4429,249.101 50.5,239.5C 51,236.5 51.5,233.5 52,230.5C 54.6361,226.762 56.8028,222.762 58.5,218.5C 58.3764,217.893 58.0431,217.56 57.5,217.5 Z"/></g><g><path style="opacity:1" fill="#000000" d="M 329.5,220.5 C 334.194,220.363 336.361,222.697 336,227.5C 345.642,237.524 345.808,247.691 336.5,258C 334.185,260.106 331.518,260.772 328.5,260C 323.918,256.148 320.584,251.481 318.5,246C 319.524,240.671 321.024,235.504 323,230.5C 327.406,228.599 329.573,225.265 329.5,220.5 Z"/></g><g><path style="opacity:1" fill="#000000" d="M 157.5,232.5 C 159.39,232.297 160.89,232.963 162,234.5C 163.586,238.344 164.586,242.344 165,246.5C 167.073,249.73 168.906,253.063 170.5,256.5C 167.499,262.151 162.999,266.151 157,268.5C 147.925,264.561 146.092,258.394 151.5,250C 151.265,249.127 150.931,248.293 150.5,247.5C 152.274,242.151 154.607,237.151 157.5,232.5 Z"/></g><g><path style="opacity:1" fill="#000000" d="M 108.5,265.5 C 112.396,266.78 113.396,269.28 111.5,273C 114.206,278.874 117.539,284.374 121.5,289.5C 118.918,295.721 114.752,300.388 109,303.5C 104.028,301.259 100.528,297.592 98.5,292.5C 100.775,283.04 104.108,274.04 108.5,265.5 Z"/></g><g><path style="opacity:1" fill="#000000" d="M 7.5,270.5 C 10.6748,270.84 12.8415,272.507 14,275.5C 15.8533,281.343 17.6866,287.177 19.5,293C 13.3065,306.919 6.97317,306.919 0.5,293C 1.93934,285.184 4.27268,277.684 7.5,270.5 Z"/></g><g><path style="opacity:1" fill="#000000" d="M 293.5,272.5 C 295.936,272.317 298.103,272.984 300,274.5C 302.592,279.184 304.425,284.184 305.5,289.5C 307.826,290.813 309.159,292.813 309.5,295.5C 308.667,298.833 307.833,302.167 307,305.5C 305.139,306.764 303.139,307.764 301,308.5C 297.267,306.599 293.433,304.932 289.5,303.5C 287.532,299.026 287.032,294.36 288,289.5C 292.714,284.671 294.548,279.004 293.5,272.5 Z"/></g><g><path style="opacity:1" fill="#000000" d="M 226.5,289.5 C 232.134,290.188 237.801,290.688 243.5,291C 250.299,295.143 256.799,299.643 263,304.5C 265.184,308.04 267.184,311.707 269,315.5C 271.667,316.833 273.667,318.833 275,321.5C 281.677,342.949 278.177,362.449 264.5,380C 262.5,380.333 260.5,380.667 258.5,381C 251.7,389.807 242.866,395.307 232,397.5C 228.714,396.274 225.548,396.607 222.5,398.5C 218.65,397.018 214.65,396.184 210.5,396C 208.333,394.5 206.167,393 204,391.5C 203.439,392.022 202.772,392.355 202,392.5C 198.794,389.644 195.294,387.144 191.5,385C 190.833,384 190.167,383 189.5,382C 185.793,381.064 182.626,379.231 180,376.5C 177.445,373.219 175.278,369.719 173.5,366C 174.022,365.439 174.355,364.772 174.5,364C 172.639,358.39 170.639,352.89 168.5,347.5C 169.065,345.595 170.065,343.929 171.5,342.5C 170.363,340.393 169.363,338.227 168.5,336C 168.93,334.566 169.764,333.399 171,332.5C 171.904,327.546 172.904,322.879 174,318.5C 181.112,310.054 188.946,302.221 197.5,295C 199.596,293.234 201.929,291.901 204.5,291C 212.011,290.829 219.345,290.329 226.5,289.5 Z"/></g><g><path style="opacity:1" fill="#000000" d="M 64.5,318.5 C 68.9385,318.883 69.6052,320.716 66.5,324C 67.9706,327.118 69.804,329.952 72,332.5C 72.8967,336.774 74.3967,340.774 76.5,344.5C 74.4993,351.481 69.8326,354.481 62.5,353.5C 60.0819,351.768 57.4152,350.435 54.5,349.5C 51.81,347.652 51.9767,345.985 55,344.5C 55.5029,339.81 56.1696,335.143 57,330.5C 57.6667,329.833 58.3333,329.167 59,328.5C 59.0486,324.06 60.882,320.727 64.5,318.5 Z"/></g><g><path style="opacity:1" fill="#000000" d="M 303.5,370.5 C 304.552,370.351 305.552,370.517 306.5,371C 308.957,374.158 311.79,376.991 315,379.5C 314.959,383.817 316.125,387.984 318.5,392C 317.265,399.072 313.265,403.906 306.5,406.5C 300.568,405.738 297.734,402.405 298,396.5C 294.799,393.583 294.799,390.583 298,387.5C 298.333,384.833 298.667,382.167 299,379.5C 301.547,377.027 303.047,374.027 303.5,370.5 Z"/></g><g><path style="opacity:1" fill="#000000" d="M 13.5,372.5 C 14.9778,372.238 16.3112,372.571 17.5,373.5C 25.0748,382.024 26.2414,391.357 21,401.5C 18.3466,404.194 15.1799,405.027 11.5,404C 2.09098,397.379 1.09098,389.712 8.5,381C 7.44636,379.612 7.27969,378.112 8,376.5C 10.0153,375.303 11.8487,373.97 13.5,372.5 Z"/></g><g><path style="opacity:1" fill="#000000" d="M 111.5,372.5 C 115.87,373.985 117.87,376.818 117.5,381C 119.199,384.684 120.866,388.351 122.5,392C 121.463,398.794 117.963,403.961 112,407.5C 109.518,405.589 106.851,403.923 104,402.5C 103.169,398.986 101.669,395.819 99.5,393C 101.667,387.484 103.834,381.984 106,376.5C 108.167,375.512 110,374.179 111.5,372.5 Z"/></g><g><path style="opacity:1" fill="#000000" d="M 61.5,422.5 C 63.8348,423.413 66.0015,424.747 68,426.5C 69.7406,432.309 72.2406,437.642 75.5,442.5C 74.9896,449.808 71.3229,454.475 64.5,456.5C 58.201,454.525 54.8676,450.192 54.5,443.5C 57.9119,436.849 60.2453,429.849 61.5,422.5 Z"/></g><g><path style="opacity:1" fill="#000000" d="M -0.5,505.5 C -0.5,504.833 -0.5,504.167 -0.5,503.5C 0.833333,502.167 0.833333,500.833 -0.5,499.5C -0.5,498.833 -0.5,498.167 -0.5,497.5C 1.0987,495.396 2.93204,493.396 5,491.5C 4.73975,487.292 6.23975,483.959 9.5,481.5C 8.83333,480.5 8.16667,479.5 7.5,478.5C 10.0257,477.49 12.1923,478.157 14,480.5C 12.8467,484.743 13.5134,488.743 16,492.5C 18.6432,493.976 20.8099,495.976 22.5,498.5C 21.1938,506.866 16.5271,511.866 8.5,513.5C 4.50954,511.837 1.50954,509.171 -0.5,505.5 Z"/></g></svg>