<svg xmlns="http://www.w3.org/2000/svg" version="1.1" width="388px" height="761px" style="shape-rendering:geometricPrecision; text-rendering:geometricPrecision; image-rendering:optimizeQuality; fill-rule:evenodd; clip-rule:evenodd" xmlns:xlink="http://www.w3.org/1999/xlink"><g><path style="opacity:1" fill="#000000" d="M 166.5,-0.5 C 170.833,-0.5 175.167,-0.5 179.5,-0.5C 207.974,2.46161 234.64,11.2949 259.5,26C 292.026,50.0266 324.693,73.86 357.5,97.5C 372.565,114.63 382.565,134.297 387.5,156.5C 387.5,165.5 387.5,174.5 387.5,183.5C 384.334,196.852 379.168,209.518 372,221.5C 346.17,259.156 320.837,297.156 296,335.5C 280.413,356.364 259.913,363.531 234.5,357C 227.329,355.08 220.662,352.08 214.5,348C 202.99,340.485 191.49,332.985 180,325.5C 177.719,326.776 175.719,328.443 174,330.5C 166.833,339 159.667,347.5 152.5,356C 151.833,356.667 151.167,356.667 150.5,356C 131.312,334.447 112.479,312.613 94,290.5C 24.7191,239.411 5.3858,173.411 36,92.5C 53.1413,55.3587 80.3079,28.1921 117.5,11C 133.26,4.15222 149.594,0.318883 166.5,-0.5 Z M 118.5,228.5 C 132.641,231.117 137.141,239.117 132,252.5C 124.565,260.565 116.565,261.232 108,254.5C 101.327,241.531 104.827,232.864 118.5,228.5 Z"/></g><g><path style="opacity:1" fill="#000000" d="M -0.5,257.5 C -0.5,255.167 -0.5,252.833 -0.5,250.5C 4.90081,243.388 11.0675,242.721 18,248.5C 21.203,257.096 18.3697,262.429 9.5,264.5C 4.6538,264.096 1.32046,261.763 -0.5,257.5 Z"/></g><g><path style="opacity:1" fill="#000000" d="M 17.5,297.5 C 27.9884,296.487 32.4884,301.154 31,311.5C 25.2033,318.685 19.2033,319.018 13,312.5C 10.7808,306.328 12.2808,301.328 17.5,297.5 Z"/></g><g><path style="opacity:1" fill="#000000" d="M 32.5,350.5 C 40.8136,350.976 44.6469,355.309 44,363.5C 40.739,370.481 35.5724,372.314 28.5,369C 23.2247,364.864 22.3914,360.031 26,354.5C 28.0129,352.752 30.1795,351.418 32.5,350.5 Z"/></g><g><path style="opacity:1" fill="#000000" d="M 112.5,350.5 C 121.307,351.137 125.141,355.803 124,364.5C 121.081,370.025 116.581,371.858 110.5,370C 104.533,366.608 103.033,361.774 106,355.5C 107.603,352.965 109.769,351.298 112.5,350.5 Z"/></g><g><path style="opacity:1" fill="#000000" d="M 307.5,350.5 C 315.736,351.574 319.236,356.241 318,364.5C 315.081,370.025 310.581,371.858 304.5,370C 298.533,366.608 297.033,361.774 300,355.5C 301.913,352.72 304.413,351.053 307.5,350.5 Z"/></g><g><path style="opacity:1" fill="#000000" d="M 40.5,394.5 C 51.3548,395.008 55.0215,400.342 51.5,410.5C 44.921,416.282 39.0876,415.615 34,408.5C 32.1702,401.832 34.3369,397.165 40.5,394.5 Z"/></g><g><path style="opacity:1" fill="#000000" d="M 121.5,394.5 C 131.536,394.032 135.702,398.699 134,408.5C 128.777,415.652 122.777,416.319 116,410.5C 113.048,403.424 114.881,398.09 121.5,394.5 Z"/></g><g><path style="opacity:1" fill="#000000" d="M 216.5,394.5 C 227.127,394.284 231.293,399.284 229,409.5C 226.013,414.152 221.846,415.652 216.5,414C 207.316,407.523 207.316,401.023 216.5,394.5 Z"/></g><g><path style="opacity:1" fill="#000000" d="M 295.5,394.5 C 307.845,394.537 311.678,400.204 307,411.5C 300.281,416.203 294.615,415.203 290,408.5C 288.627,402.435 290.46,397.769 295.5,394.5 Z"/></g><g><path style="opacity:1" fill="#000000" d="M 53.5,444.5 C 62.9892,443.821 67.1559,448.155 66,457.5C 63.8175,463.241 59.6508,465.408 53.5,464C 48.7109,462.703 46.3776,459.536 46.5,454.5C 46.5798,449.443 48.9132,446.11 53.5,444.5 Z"/></g><g><path style="opacity:1" fill="#000000" d="M 122.5,444.5 C 131.958,443.79 136.124,448.124 135,457.5C 132.86,463.487 128.693,465.654 122.5,464C 117.711,462.703 115.378,459.536 115.5,454.5C 115.548,449.468 117.882,446.134 122.5,444.5 Z"/></g><g><path style="opacity:1" fill="#000000" d="M 206.5,444.5 C 217.171,444.324 221.338,449.324 219,459.5C 212.508,466.425 206.508,466.092 201,458.5C 199.268,452.314 201.101,447.647 206.5,444.5 Z"/></g><g><path style="opacity:1" fill="#000000" d="M 273.5,444.5 C 283.65,444.804 287.483,449.804 285,459.5C 281.1,464.533 276.267,465.7 270.5,463C 263.422,455.485 264.422,449.318 273.5,444.5 Z"/></g><g><path style="opacity:1" fill="#000000" d="M 64.5,495.5 C 74.482,494.982 78.6486,499.648 77,509.5C 74.0812,515.025 69.5812,516.858 63.5,515C 56.9832,510.755 55.8165,505.255 60,498.5C 61.6516,497.601 63.1516,496.601 64.5,495.5 Z"/></g><g><path style="opacity:1" fill="#000000" d="M 126.5,495.5 C 136.482,494.982 140.649,499.648 139,509.5C 136.267,514.562 132.1,516.395 126.5,515C 120.49,511.811 118.656,506.978 121,500.5C 122.704,498.627 124.537,496.96 126.5,495.5 Z"/></g><g><path style="opacity:1" fill="#000000" d="M 199.5,495.5 C 210.171,495.324 214.338,500.324 212,510.5C 205.508,517.425 199.508,517.092 194,509.5C 192.268,503.314 194.101,498.647 199.5,495.5 Z"/></g><g><path style="opacity:1" fill="#000000" d="M 261.5,495.5 C 271.482,494.982 275.649,499.648 274,509.5C 268.492,517.092 262.492,517.425 256,510.5C 253.958,503.873 255.792,498.873 261.5,495.5 Z"/></g><g><path style="opacity:1" fill="#000000" d="M 79.5,541.5 C 85.4771,542.81 89.1438,546.477 90.5,552.5C 88.3175,561.423 82.9842,564.257 74.5,561C 66.8971,552.054 68.5638,545.554 79.5,541.5 Z"/></g><g><path style="opacity:1" fill="#000000" d="M 141.5,541.5 C 150.398,543.543 153.564,548.876 151,557.5C 142.719,565.101 136.219,563.768 131.5,553.5C 132.104,547.536 135.437,543.536 141.5,541.5 Z"/></g><g><path style="opacity:1" fill="#000000" d="M 199.5,541.5 C 210.302,545.265 212.302,551.765 205.5,561C 196.95,564.225 191.617,561.392 189.5,552.5C 190.135,546.219 193.469,542.553 199.5,541.5 Z"/></g><g><path style="opacity:1" fill="#000000" d="M 254.5,541.5 C 265.545,545.457 267.545,551.957 260.5,561C 251.927,564.214 246.594,561.381 244.5,552.5C 245.128,546.211 248.462,542.544 254.5,541.5 Z"/></g><g><path style="opacity:1" fill="#000000" d="M 181.5,760.5 C 173.833,760.5 166.167,760.5 158.5,760.5C 159.833,732.863 159.833,705.196 158.5,677.5C 100.875,671.41 48.5412,651.743 1.5,618.5C 0.501477,608.522 0.168144,598.522 0.5,588.5C 112.5,588.5 224.5,588.5 336.5,588.5C 336.666,598.839 336.5,609.172 336,619.5C 299.138,649.584 256.972,668.084 209.5,675C 201.185,675.888 192.851,676.554 184.5,677C 183.584,677.374 182.75,677.874 182,678.5C 181.5,705.831 181.333,733.165 181.5,760.5 Z"/></g></svg>