<svg version="1.1" id="svg153" width="91.185547" height="113.21124" viewBox="0 0 91.185547 113.21124" xmlns="http://www.w3.org/2000/svg"><defs id="defs157"><clipPath clipPathUnits="userSpaceOnUse" id="clipPath20505"><path d="m 345.6,253.68 h 205.2 v 90 H 345.6 Z" clip-rule="evenodd" id="path20503"/></clipPath><clipPath clipPathUnits="userSpaceOnUse" id="clipPath20515"><path d="M 0,0 H 3974.04 V 4951 H 0 Z" id="path20513"/></clipPath></defs><g id="g19765" transform="matrix(1.3333333,0,0,-1.3333333,-501.7207,452.23792)"><g id="g20499"><g id="g20501" clip-path="url(#clipPath20505)"><g id="g20507" transform="matrix(0.94989,0,0,1.1799,376.29,254.27)"><g id="g20509" transform="scale(0.018118,0.014543)"><g id="g20511" clip-path="url(#clipPath20515)"><path d="m 1983.8,2347.48 -34.51,-4.5 -31.51,-12 -29.98,-19.5 -28.52,-24.03 -27.01,-30 -26.98,-34.5 -25.52,-36 -25.51,-39.02 -23.99,-40.5 -24.01,-40.5 -24.01,-39.03 -23.99,-39 -24.01,-34.5 -25.52,-31.5 -25.48,-27.02 -27.02,-21 -55.49,-33 -60.02,-25.5 -63.02,-21 -66,-15.03 -67.51,-12 -72.02,-7.5 -73.51,-3 -76.51,-1.5 h -78.01 l -81.01,1.5 -82.51,1.5 -85.51,1.5 H 608.1 519.57 l 12.02,-118.52 16.49,-112.53 21.01,-106.5 28.49,-102.02 31.51,-97.53 37.51,-93.02 42,-88.53 46.5,-85.5 49.53,-81.02 54,-79.53 57.02,-75 61.49,-73.52 48.01,-52.5 54.02,-52.53 59.99,-52.5 64.52,-51 70.52,-49.52 73.51,-46.5 78.01,-42.03 82.51,-40.5 85.51,-33 88.51,-30 91.53,-22.53 93,-15 96.03,-9 97.5,1.5 87.01,9 85.53,18 84.01,25.53 82.51,31.5 79.51,36 75.01,37.53 70.52,40.5 88.5,55.5 84.01,60.02 81.01,66 75.02,69.03 70.51,75 64.52,79.52 60,84.03 55.52,88.52 49.5,94.5 43.5,99.03 39.01,105.02 31.51,109.53 26.98,114.02 22.52,121.53 14.99,126.02 9.02,132.03 H 3346 3253 l -90.01,-3 -87.03,-1.5 -84.01,-3 h -81.01 l -79.51,1.5 -76.51,4.5 -73.51,9 -70.52,13.5 -67.49,19.5 -64.52,25.5 -60.02,33.02 -37.51,25.5 -34.51,31.5 -31.48,34.5 -30.01,36.03 -28.51,39 -28.51,39 -28.49,37.52 -30.01,37.5 -30.01,34.5 -33.01,31.5 -34.51,27.03 -39,22.5 -42.01,15 -1.49,1.5 v 1.5 1.5 1.5 h -1.5 l -3,1.5 z m -1783.77,732.15 -3,-1.5 -3,-1.5 -1.5,-3 v -3 l -1.5,-4.5 v -4.5 l 1.5,-4.5 -7.5,-66.03 -4.49,-67.5 -4.5,-67.52 -3.03,-69 -1.49,-70.53 v -69.02 l 1.49,-67.5 4.53,-67.53 5.99,-66 9,-64.52 11.99,-61.5 15.02,-58.53 16.49,-54 22.52,-52.52 23.99,-46.5 28.51,-43.5 33.01,-37.53 36,-31.5 40.51,-25.5 46.5,-19.5 43.5,-12 48.01,-7.5 51.02,-4.5 52.5,-1.5 h 55.5 l 55.52,1.5 h 57 l 55.52,1.5 66.02,-1.5 h 65.99 64.52 l 61.49,1.5 58.52,3 54,7.5 49.53,12 42,16.5 40.51,22.5 36,27 34.51,31.53 32.99,34.5 30.01,36 30.01,39 28.51,39.02 28.48,40.5 28.51,40.5 30.01,37.53 30.01,37.5 31.51,34.5 32.99,30.02 36.01,27 39,21 40.51,16.5 45.02,10.5 54,4.5 49.5,-3 45.01,-9 42,-15 39.01,-19.5 37.5,-24 34.51,-27.02 31.51,-31.5 31.51,-33 28.51,-34.5 28.49,-37.53 28.51,-36 27.01,-37.5 28.51,-37.52 28.49,-36 28.51,-34.5 30.01,-31.5 31.51,-28.53 34.5,-25.5 35.99,-21 37.5,-16.5 45.03,-12 48,-7.5 51,-4.5 51,-3 49.53,-3 62.99,-6 64.52,-4.5 64.52,-3.02 65.99,-1.5 h 64.52 l 64.52,3 61.49,6.02 60.02,9 55.5,13.5 52.52,18 49.51,21 42,28.5 34.51,30.03 30.01,36 25.49,42 22.51,48.02 19.49,51 16.52,55.5 11.99,60.03 10.5,61.5 7.52,64.52 5.99,66 3,66.03 v 66 66.02 l -3,66.03 -4.49,63 -4.53,61.52 -7.49,58.5 -7.5,54 -7.5,51.03 z m 1791.26,1770.35 -68.99,-1.5 -103.52,-12 -100.53,-21 -97.5,-28.5 -96.03,-34.53 -93,-40.5 -88.51,-46.5 -85.53,-51.02 -84.01,-54 -78.01,-58.53 -75.01,-60 -72.02,-61.52 -67.49,-63 -64.52,-63.03 -73.51,-79.5 -70.52,-82.52 -67.49,-87.03 -63.02,-91.5 -58.52,-94.52 -54,-99.03 -48,-103.52 -43.5,-106.53 -37.51,-111.02 -31.51,-115.5 -24.01,-120.03 432.06,7.5 433.59,1.5 h 435.06 l 436.56,-1.5 436.56,-3 435.09,-1.5 h 432.06 l 429.06,4.5 -15.02,105 -19.49,99.03 -25.51,94.52 -28.51,91.53 -34.48,87 -37.51,82.52 -43.53,81.03 -46.5,76.5 -49.5,75.02 -52.5,72.03 -57.02,70.5 -60,69.02 -61.52,66 -64.52,66.03 -70.49,66 -76.51,64.52 -82.53,61.5 -88.51,58.53 -93,55.5 -99.03,52.52 -58.5,28.5 -63.01,27 -66.02,27 -70.49,27.03 -70.52,22.5 -73.51,21 -73.52,15 -72.01,12 z m -68.99,97.52 h 123.02 l 124.51,-24 120.02,-28.5 115.52,-34.52 109.52,-39 105.02,-43.5 99,-46.53 96.03,-52.5 90.01,-57.02 87,-60 82.51,-64.53 79.51,-67.5 75.02,-72.02 72.01,-73.5 69.02,-78.03 64.51,-81.02 63,-84 60.02,-87.03 57,-88.52 43.5,-72 40.5,-70.53 37.51,-70.5 34.51,-75.02 30.01,-78.03 28.51,-84 6,-25.52 5.99,-27 4.5,-27 4.5,-27 6,-27 7.52,-27.03 8.99,-22.5 12,-22.5 14.99,-18 19.52,-13.5 25.51,-10.5 28.48,-4.5 V 2980.6 l -8.99,-81.02 -4.5,-84 -3,-84.03 -1.5,-82.52 -1.5,-84 -1.5,-82.53 -4.49,-79.52 -6,-78 -12.02,-73.53 -16.49,-72 -18.02,-48.02 -20.99,-43.5 -24.01,-39 -26.99,-37.53 -30.01,-33 -31.51,-31.5 -33.01,-30.02 -33,-28.5 -34.51,-28.5 -16.49,-141.03 -22.52,-136.52 -28.48,-132.03 -33.01,-124.52 -37.51,-121.53 -45,-114.02 -48.03,-109.53 -55.5,-105.02 -60.02,-97.53 -65.99,-93 -70.51,-88.52 -76.52,-82.53 -82.51,-76.5 -87,-70.52 -93.03,-66.03 -99,-60 -103.53,-54 L 2525.38,137.52 2409.86,95.525 2288.35,58 2162.34,25 2028.8,-0.5 h -129.01 l -126.01,21 -123.02,30 -118.54,36.025 -113.99,43.495 -108.02,49.5 -105.03,55.53 -97.5,61.5 -91.53,66.03 -87.01,70.52 -78.01,75 -72.01,78.03 -67.52,85.5 -61.49,88.52 -57.03,94.53 -51,100.52 -45,103.53 -40.5,108 -34.51,114.02 -28.51,117.03 -24.02,123.02 -17.99,126.03 -1.5,31.52 v 33 l -1.5,36 -1.5,34.5 -2.99,33.03 -7.5,30 -12.02,22.5 -19.49,19.5 -24.01,21 -26.99,19.52 -28.51,22.5 -25.51,24 -28.51,31.5 -25.49,33 -24.02,31.53 -20.98,30 -16.522,27 -23.988,48.02 -18.016,52.5 -14.993,57 -12.019,61.53 -7.4959,63 -5.9971,67.52 -1.49925,69.03 -1.49926,70.5 1.49926,70.52 1.49925,72 2.9985,72.03 4.4978,70.5 2.9987,69.02 2.998,67.53 1.5,64.5 v 61.52 l 2.998,10.5 7.521,6 10.495,4.5 11.994,1.5 h 13.519 l 13.493,1.5 h 11.994 l 12.024,3 8.99,4.5 4.5,9 1.5,13.5 30.01,121.53 36.01,118.52 43.5,114.03 48,109.52 55.5,106.53 60.02,102 64.52,99.02 67.49,94.53 73.51,91.52 75.02,87 79.51,84.03 67.51,66.02 72.02,66 75.01,63.03 79.51,61.5 84.01,58.52 87.01,54 90.03,49.5 94.5,45.03 99.03,40.5 100.5,34.5 105.02,28.52 108.02,21 z" style="fill:#000000;fill-opacity:1;fill-rule:evenodd;stroke:#000000;stroke-width:1.4993;stroke-linecap:butt;stroke-linejoin:round;stroke-miterlimit:10;stroke-dasharray:none;stroke-opacity:1" id="path20517"/><path d="m 321.54,2950.6 -3,-1.5 -3,-1.5 -1.49,-3 v -4.5 -3 -4.5 -4.5 l -4.5,-55.52 -4.5,-57 -3,-58.53 -1.5,-60 -1.5,-58.52 1.5,-58.5 3,-58.53 6,-57 5.99,-55.52 10.5,-52.5 12.02,-51 14.99,-46.53 18.02,-43.5 20.99,-39 25.51,-33.02 26.99,-30 31.51,-22.5 36,-18 31.51,-7.5 36.01,-6 40.5,-3 43.51,-1.5 h 45 46.5 l 48.03,1.5 45,1.5 h 45.01 51 l 52.52,-1.5 51,-1.5 h 51 49.52 l 45.01,3 43.5,6 37.51,9 36.01,16.5 33,21 31.49,27 28.51,30.02 28.51,33 25.51,34.5 23.99,34.5 22.51,33.03 22.49,30 31.51,42 33.01,42.02 34.51,40.5 37.51,37.5 39,34.5 43.51,30.03 48,25.5 61.52,22.5 58.49,13.5 57.03,4.5 55.49,-3 52.53,-9 51,-16.5 48,-21 45,-27 43.5,-28.53 40.51,-33 37.51,-36 36,-36 31.51,-37.52 30.01,-37.5 27.01,-37.5 26.99,-37.53 28.51,-39 28.51,-36 31.51,-34.52 32.99,-31.5 36,-24 40.51,-19.5 31.51,-7.5 34.51,-6 39,-3 39.01,-1.5 39,-1.5 37.51,-3 70.52,-6 69.01,-4.5 67.49,-3 h 67.52 l 66.02,1.5 62.99,6 61.52,10.5 58.52,15 55.5,22.5 54,27 27.01,49.52 24.01,55.5 19.49,61.53 16.52,66 12,69.02 10.49,72 6,75.03 3,75 1.52,76.52 -3.02,75.03 -4.5,75 -6,73.52 z m -121.51,129.03 h 3560.04 l 7.5,-51.03 7.5,-54 7.49,-58.5 4.53,-61.52 4.49,-63 3,-66.03 v -66.02 -66 l -3,-66.03 -5.99,-66 -7.52,-64.52 -10.5,-61.5 -11.99,-60.03 -16.52,-55.5 -19.49,-51 -22.51,-48.02 -25.49,-42 -30.01,-36 -34.51,-30.03 -42,-28.5 -49.51,-21 -52.52,-18 -55.5,-13.5 -60.02,-9 -61.49,-6.02 -64.52,-3 h -64.52 l -65.99,1.5 -64.52,3.02 -64.52,4.5 -62.99,6 -49.53,3 -51,3 -51,4.5 -48,7.5 -45.03,12 -37.5,16.5 -35.99,21 -34.5,25.5 -31.51,28.53 -30.01,31.5 -28.51,34.5 -28.49,36 -28.51,37.52 -27.01,37.5 -28.51,36 -28.49,37.53 -28.51,34.5 -31.51,33 -31.51,31.5 -34.51,27.02 -37.5,24 -39.01,19.5 -42,15 -45.01,9 -49.5,3 -54,-4.5 -45.02,-10.5 -40.51,-16.5 -39,-21 -36.01,-27 -32.99,-30.02 -31.51,-34.5 -30.01,-37.5 -30.01,-37.53 -28.51,-40.5 -28.48,-40.5 -28.51,-39.02 -30.01,-39 -30.01,-36 -32.99,-34.5 -34.51,-31.53 -36,-27 -40.51,-22.5 -42,-16.5 -49.53,-12 -54,-7.5 -58.52,-3 -61.49,-1.5 h -64.52 -65.99 l -66.02,1.5 -55.52,-1.5 h -57 l -55.52,-1.5 h -55.5 l -52.5,1.5 -51.02,4.5 -48.01,7.5 -43.5,12 -46.5,19.5 -40.51,25.5 -36,31.5 -33.01,37.53 -28.51,43.5 -23.99,46.5 -22.52,52.52 -16.49,54 -15.02,58.53 -11.99,61.5 -9,64.52 -5.99,66 -4.53,67.53 -1.49,67.5 v 69.02 l 1.49,70.53 3.03,69 4.5,67.52 4.49,67.5 7.5,66.03 -1.5,4.5 v 4.5 l 1.5,4.5 v 3 l 1.5,3 3,1.5 z" style="fill:#ffffff;fill-opacity:1;fill-rule:evenodd;stroke:#ffffff;stroke-width:1.4993;stroke-linecap:butt;stroke-linejoin:round;stroke-miterlimit:10;stroke-dasharray:none;stroke-opacity:1" id="path20519"/><path d="m 321.54,2950.6 h 3332.01 l 6,-73.52 4.5,-75 3.02,-75.03 -1.52,-76.52 -3,-75 -6,-75.03 -10.49,-72 -12,-69.02 -16.52,-66 -19.49,-61.53 -24.01,-55.5 -27.01,-49.52 -54,-27 -55.5,-22.5 -58.52,-15 -61.52,-10.5 -62.99,-6 -66.02,-1.5 h -67.52 l -67.49,3 -69.01,4.5 -70.52,6 -37.51,3 -39,1.5 -39.01,1.5 -39,3 -34.51,6 -31.51,7.5 -40.51,19.5 -36,24 -32.99,31.5 -31.51,34.52 -28.51,36 -28.51,39 -26.99,37.53 -27.01,37.5 -30.01,37.5 -31.51,37.52 -36,36 -37.51,36 -40.51,33 -43.5,28.53 -45,27 -48,21 -51,16.5 -52.53,9 -55.49,3 -57.03,-4.5 -58.49,-13.5 -61.52,-22.5 -48,-25.5 -43.51,-30.03 -39,-34.5 -37.51,-37.5 -34.51,-40.5 -33.01,-42.02 -31.51,-42 -22.49,-30 -22.51,-33.03 -23.99,-34.5 -25.51,-34.5 -28.51,-33 -28.51,-30.02 -31.49,-27 -33,-21 -36.01,-16.5 -37.51,-9 -43.5,-6 -45.01,-3 h -49.52 -51 l -51,1.5 -52.52,1.5 h -51 -45.01 l -45,-1.5 -48.03,-1.5 h -46.5 -45 l -43.51,1.5 -40.5,3 -36.01,6 -31.51,7.5 -36,18 -31.51,22.5 -26.99,30 -25.51,33.02 -20.99,39 -18.02,43.5 -14.99,46.53 -12.02,51 -10.5,52.5 -5.99,55.52 -6,57 -3,58.53 -1.5,58.5 1.5,58.52 1.5,60 3,58.53 4.5,57 4.5,55.52 v 4.5 4.5 3 4.5 l 1.49,3 3,1.5 z" style="fill:#000000;fill-opacity:1;fill-rule:evenodd;stroke:#000000;stroke-width:1.4993;stroke-linecap:butt;stroke-linejoin:round;stroke-miterlimit:10;stroke-dasharray:none;stroke-opacity:1" id="path20521"/><path d="m 1991.29,4849.98 70.52,-4.5 72.01,-12 73.52,-15 73.51,-21 70.52,-22.5 70.49,-27.03 66.02,-27 63.01,-27 58.5,-28.5 99.03,-52.52 93,-55.5 88.51,-58.53 82.53,-61.5 76.51,-64.52 70.49,-66 64.52,-66.03 61.52,-66 60,-69.02 57.02,-70.5 52.5,-72.03 49.5,-75.02 46.5,-76.5 43.53,-81.03 37.51,-82.52 34.48,-87 28.51,-91.53 25.51,-94.52 19.49,-99.03 15.02,-105 -429.06,-4.5 h -432.06 l -435.09,1.5 -436.56,3 -436.56,1.5 h -435.06 l -433.59,-1.5 -432.06,-7.5 24.01,120.03 31.51,115.5 37.51,111.02 43.5,106.53 48,103.52 54,99.03 58.52,94.52 63.02,91.5 67.49,87.03 70.52,82.52 73.51,79.5 64.52,63.03 67.49,63 72.02,61.52 75.01,60 78.01,58.53 84.01,54 85.53,51.02 88.51,46.5 93,40.5 96.03,34.53 97.5,28.5 100.53,21 103.52,12 z" style="fill:#ffffff;fill-opacity:1;fill-rule:evenodd;stroke:#ffffff;stroke-width:1.4993;stroke-linecap:butt;stroke-linejoin:round;stroke-miterlimit:10;stroke-dasharray:none;stroke-opacity:1" id="path20523"/><path d="m 1983.8,2347.48 h 1.5 l 3,-1.5 h 1.5 v -1.5 -1.5 -1.5 l 1.49,-1.5 42.01,-15 39,-22.5 34.51,-27.03 33.01,-31.5 30.01,-34.5 30.01,-37.5 28.49,-37.52 28.51,-39 28.51,-39 30.01,-36.03 31.48,-34.5 34.51,-31.5 37.51,-25.5 60.02,-33.02 64.52,-25.5 67.49,-19.5 70.52,-13.5 73.51,-9 76.51,-4.5 79.51,-1.5 h 81.01 l 84.01,3 87.03,1.5 90.01,3 h 93 94.53 l -9.02,-132.03 -14.99,-126.02 -22.52,-121.53 -26.98,-114.02 -31.51,-109.53 -39.01,-105.02 -43.5,-99.03 -49.5,-94.5 -55.52,-88.52 -60,-84.03 -64.52,-79.52 -70.51,-75 -75.02,-69.03 -81.01,-66 -84.01,-60.02 -88.5,-55.5 -70.52,-40.5 -75.01,-37.53 -79.51,-36 -82.51,-31.5 -84.01,-25.53 -85.53,-18 -87.01,-9 -97.5,-1.5 -96.03,9 -93,15 -91.53,22.53 -88.51,30 -85.51,33 -82.51,40.5 -78.01,42.03 -73.51,46.5 -70.52,49.52 -64.52,51 -59.99,52.5 -54.02,52.53 -48.01,52.5 -61.49,73.52 -57.02,75 -54,79.53 -49.53,81.02 -46.5,85.5 -42,88.53 -37.51,93.02 -31.51,97.53 -28.49,102.02 -21.01,106.5 -16.49,112.53 -12.02,118.52 h 88.53 87.01 l 85.51,-1.5 82.51,-1.5 81.01,-1.5 h 78.01 l 76.51,1.5 73.51,3 72.02,7.5 67.51,12 66,15.03 63.02,21 60.02,25.5 55.49,33 27.02,21 25.48,27.02 25.52,31.5 24.01,34.5 23.99,39 24.01,39.03 24.01,40.5 23.99,40.5 25.51,39.02 25.52,36 26.98,34.5 27.01,30 28.52,24.03 29.98,19.5 31.51,12 z" style="fill:#ffffff;fill-opacity:1;fill-rule:evenodd;stroke:#ffffff;stroke-width:1.4993;stroke-linecap:butt;stroke-linejoin:round;stroke-miterlimit:10;stroke-dasharray:none;stroke-opacity:1" id="path20525"/></g></g></g></g></g></g></svg>