<svg xmlns="http://www.w3.org/2000/svg" version="1.1" width="743px" height="754px" style="shape-rendering:geometricPrecision; text-rendering:geometricPrecision; image-rendering:optimizeQuality; fill-rule:evenodd; clip-rule:evenodd" xmlns:xlink="http://www.w3.org/1999/xlink"><g><path style="opacity:1" fill="#000000" d="M 259.5,-0.5 C 260.833,-0.5 262.167,-0.5 263.5,-0.5C 289.113,2.39517 309.946,14.0618 326,34.5C 338.101,51.333 342.434,69.9996 339,90.5C 337.446,99.0506 335.112,107.384 332,115.5C 320.881,136.906 309.381,158.073 297.5,179C 294.002,180.967 290.668,180.633 287.5,178C 282.397,174.734 277.73,170.9 273.5,166.5C 262.356,175.144 251.356,183.977 240.5,193C 229.136,198.062 218.803,196.396 209.5,188C 196.485,174.993 184.985,160.826 175,145.5C 160.078,113.895 161.411,82.8947 179,52.5C 197.036,21.2697 223.869,3.60302 259.5,-0.5 Z M 295.5,102.5 C 301.143,103.477 304.477,106.81 305.5,112.5C 304.054,117.613 300.721,120.613 295.5,121.5C 287.444,118.883 285.277,113.883 289,106.5C 290.792,104.372 292.958,103.039 295.5,102.5 Z"/></g><g><path style="opacity:1" fill="#000000" d="M 742.5,11.5 C 742.5,18.8333 742.5,26.1667 742.5,33.5C 716.831,33.3334 691.165,33.5 665.5,34C 653.932,55.9677 643.598,78.4677 634.5,101.5C 653.858,186.122 673.024,270.789 692,355.5C 692.308,356.308 692.808,356.975 693.5,357.5C 707.926,353.762 722.593,351.762 737.5,351.5C 737.5,358.833 737.5,366.167 737.5,373.5C 679.23,375.38 633.063,399.713 599,446.5C 569.992,491.553 562.992,539.886 578,591.5C 606.102,664.481 659.268,703.148 737.5,707.5C 738.065,722.777 738.065,738.11 737.5,753.5C 491.5,753.5 245.5,753.5 -0.5,753.5C -0.5,744.167 -0.5,734.833 -0.5,725.5C 109.501,725.667 219.501,725.5 329.5,725C 343.682,642.922 331.182,565.089 292,491.5C 270.097,453.211 243.931,418.044 213.5,386C 189.677,385.01 177.344,372.51 176.5,348.5C 165.996,339.161 155.662,329.661 145.5,320C 151.279,312.55 157.446,305.383 164,298.5C 174.333,307.833 184.667,317.167 195,326.5C 209.772,320.131 222.772,322.798 234,334.5C 236.087,337.673 237.921,341.006 239.5,344.5C 243.214,345.745 246.88,345.579 250.5,344C 224.837,319.353 197.171,297.353 167.5,278C 162.742,274.955 157.742,272.455 152.5,270.5C 101.698,291.818 51.1977,313.818 1,336.5C 0.169007,273.93 0.335673,211.43 1.5,149C 31.6657,134.945 61.999,121.279 92.5,108C 113.756,103.199 131.256,109.366 145,126.5C 164.781,158.502 188.281,187.668 215.5,214C 248.855,235.466 279.355,260.632 307,289.5C 326.594,313.193 345.094,337.693 362.5,363C 364.631,362.602 366.631,361.602 368.5,360C 373,355.5 377.5,351 382,346.5C 387.137,360.911 392.47,375.244 398,389.5C 407.014,380.319 416.181,371.319 425.5,362.5C 429.767,374.802 433.934,387.135 438,399.5C 447.687,390.979 457.52,382.646 467.5,374.5C 472.298,385.894 476.298,397.56 479.5,409.5C 480.552,409.649 481.552,409.483 482.5,409C 491.684,400.315 501.017,391.815 510.5,383.5C 514.601,395.971 518.601,408.471 522.5,421C 524.976,420.253 527.309,418.919 529.5,417C 537.703,409.128 546.203,401.628 555,394.5C 557.327,402.809 559.494,411.143 561.5,419.5C 569.954,421.932 578.288,424.432 586.5,427C 608.528,398.151 636.528,377.318 670.5,364.5C 670.833,363.833 671.167,363.167 671.5,362.5C 654.524,287.452 637.357,212.452 620,137.5C 616.679,123.896 614.012,110.229 612,96.5C 625.44,68.6207 638.606,40.6207 651.5,12.5C 681.826,11.5002 712.159,11.1668 742.5,11.5 Z M 240.5,359.5 C 249.506,359.334 258.506,359.5 267.5,360C 299.862,390.688 329.695,423.521 357,458.5C 357.667,459.833 357.667,461.167 357,462.5C 347.713,474.789 338.046,486.789 328,498.5C 304.397,451.279 274.397,408.612 238,370.5C 237.889,366.654 238.723,362.988 240.5,359.5 Z M 374.5,372.5 C 375.376,372.369 376.043,372.702 376.5,373.5C 389.765,405.367 388.098,406.367 371.5,376.5C 373.288,375.717 374.288,374.384 374.5,372.5 Z M 330.5,504.5 C 337.141,514.149 343.808,523.815 350.5,533.5C 360.642,524.313 361.975,513.98 354.5,502.5C 357.013,498.142 360.013,494.142 363.5,490.5C 366.094,491.592 368.261,493.259 370,495.5C 371.966,511.123 372.966,526.79 373,542.5C 368.385,551.385 365.218,560.718 363.5,570.5C 363.743,578.984 367.577,585.317 375,589.5C 379.559,578.714 384.393,568.048 389.5,557.5C 390.325,556.614 391.325,556.281 392.5,556.5C 390.473,564.749 388.139,572.916 385.5,581C 386.616,587.226 389.95,591.893 395.5,595C 396.449,595.617 397.282,595.451 398,594.5C 403.245,583.677 408.745,573.01 414.5,562.5C 417.919,568.899 421.252,575.399 424.5,582C 430.033,585.644 436.033,586.811 442.5,585.5C 441.21,573.429 439.377,561.429 437,549.5C 406.116,540.065 394.783,519.732 403,488.5C 404.333,485.833 405.667,483.167 407,480.5C 410.427,477.58 413.261,474.247 415.5,470.5C 409.343,451.694 402.009,433.361 393.5,415.5C 401.5,406.833 409.833,398.5 418.5,390.5C 419.086,390.709 419.586,391.043 420,391.5C 423.403,402.542 426.903,413.542 430.5,424.5C 440.5,416.167 450.5,407.833 460.5,399.5C 465.018,411.719 469.352,424.053 473.5,436.5C 483.483,427.684 493.317,418.684 503,409.5C 507.258,422.106 511.424,434.773 515.5,447.5C 525.833,438.833 536.167,430.167 546.5,421.5C 547.58,424.326 548.58,427.159 549.5,430C 558.959,433.208 568.293,436.708 577.5,440.5C 572.101,450.131 567.101,459.964 562.5,470C 520.167,470.333 477.833,470.667 435.5,471C 415.919,476.311 406.752,489.144 408,509.5C 410.422,525.255 419.256,535.421 434.5,540C 472.475,541.443 510.475,541.943 548.5,541.5C 552.951,622.293 591.618,679.793 664.5,714C 675.691,718.287 687.025,721.953 698.5,725C 582.5,725.5 466.5,725.667 350.5,725.5C 354.246,701.853 358.579,678.353 363.5,655C 402.286,637.44 440.953,619.607 479.5,601.5C 479.833,600.5 480.167,599.5 480.5,598.5C 477.526,582.13 474.359,565.797 471,549.5C 463.921,548.52 456.755,548.187 449.5,548.5C 451.316,561.247 453.649,573.913 456.5,586.5C 456.392,587.442 456.059,588.275 455.5,589C 424.714,602.893 394.047,617.06 363.5,631.5C 358.835,587.509 347.835,545.175 330.5,504.5 Z M 439.5,492.5 C 453.217,493.021 458.05,499.687 454,512.5C 445.439,520.94 437.772,520.274 431,510.5C 428.76,501.983 431.594,495.983 439.5,492.5 Z"/></g><g><path style="opacity:1" fill="#000000" d="M 726.5,445.5 C 730.514,445.334 734.514,445.501 738.5,446C 737.521,452.744 737.188,459.578 737.5,466.5C 703.843,468.666 680.677,485.332 668,516.5C 658.784,550.18 667.617,578.014 694.5,600C 707.407,609.024 721.74,613.524 737.5,613.5C 737.5,620.833 737.5,628.167 737.5,635.5C 693.113,632.94 662.946,610.94 647,569.5C 635.916,527.092 647.083,491.925 680.5,464C 694.46,454.185 709.793,448.019 726.5,445.5 Z"/></g><g><path style="opacity:1" fill="#000000" d="M 233.5,452.5 C 234.124,452.917 234.457,453.584 234.5,454.5C 223.101,506.423 210.935,558.09 198,609.5C 191.929,607.751 185.762,606.251 179.5,605C 178.941,604.275 178.608,603.442 178.5,602.5C 186.167,569.167 193.833,535.833 201.5,502.5C 201.267,501.068 200.6,500.568 199.5,501C 156.821,548.525 119.655,600.025 88,655.5C 78.9148,671.759 71.5814,688.759 66,706.5C 59.5852,704.474 53.0852,702.641 46.5,701C 46.0426,700.586 45.7093,700.086 45.5,699.5C 56.136,671.409 68.9693,644.409 84,618.5C 112.04,574.118 143.54,532.284 178.5,493C 178,492.5 177.5,492 177,491.5C 145.122,501.904 113.122,511.904 81,521.5C 78.8323,514.828 76.6656,508.161 74.5,501.5C 127.602,485.311 180.602,468.978 233.5,452.5 Z"/></g></svg>