<svg xmlns="http://www.w3.org/2000/svg" version="1.1" width="327px" height="585px" style="shape-rendering:geometricPrecision; text-rendering:geometricPrecision; image-rendering:optimizeQuality; fill-rule:evenodd; clip-rule:evenodd" xmlns:xlink="http://www.w3.org/1999/xlink"><g><path style="opacity:1" fill="#000000" d="M 155.5,-0.5 C 156.5,-0.5 157.5,-0.5 158.5,-0.5C 161.149,1.10942 164.149,1.94275 167.5,2C 173.167,2.33333 178.833,2.66667 184.5,3C 189.862,4.72819 195.196,6.56152 200.5,8.5C 201.442,8.39184 202.275,8.05851 203,7.5C 204.579,9.04116 206.413,10.2078 208.5,11C 217.438,13.1758 226.105,15.8424 234.5,19C 239.327,22.8272 243.827,26.9939 248,31.5C 250.852,39.5431 255.852,45.8764 263,50.5C 272.92,66.4085 283.587,81.7418 295,96.5C 301.41,99.9706 305.41,105.304 307,112.5C 313.926,120.458 315.426,129.292 311.5,139C 312.409,145.316 311.743,151.483 309.5,157.5C 310.074,159.059 310.74,160.559 311.5,162C 309.387,164.449 309.054,167.115 310.5,170C 308,176.079 306.666,182.246 306.5,188.5C 306.608,189.442 306.941,190.275 307.5,191C 313.914,191.207 320.247,191.707 326.5,192.5C 326.5,193.5 326.5,194.5 326.5,195.5C 324.901,200.569 324.067,205.902 324,211.5C 320.404,219.29 317.404,227.29 315,235.5C 314.054,238.312 312.387,240.645 310,242.5C 307.725,249.326 305.058,255.993 302,262.5C 301,263.5 300,264.5 299,265.5C 297.816,275.376 292.65,282.209 283.5,286C 282.789,287.255 281.956,288.421 281,289.5C 276,304.167 271,318.833 266,333.5C 259.098,340.964 253.431,349.297 249,358.5C 246.708,359.79 244.708,361.457 243,363.5C 239.246,369.342 235.246,375.009 231,380.5C 227.455,383.25 223.621,385.25 219.5,386.5C 214.504,384.213 209.17,383.047 203.5,383C 200.929,382.099 198.596,380.766 196.5,379C 170.768,371.11 145.435,372.443 120.5,383C 114.107,384.278 107.774,384.278 101.5,383C 95.0389,373.574 87.5389,365.074 79,357.5C 73.6153,351.116 68.6153,344.45 64,337.5C 62.2609,335.259 60.0942,333.592 57.5,332.5C 55.9522,325.743 54.1189,319.076 52,312.5C 50.6152,311.449 49.6152,310.116 49,308.5C 46.2625,302.052 43.9291,295.385 42,288.5C 36.8121,283.976 32.3121,278.809 28.5,273C 26.5405,272.069 24.5405,271.236 22.5,270.5C 19.8684,266.035 17.0351,261.702 14,257.5C 13.6543,254.424 12.9876,251.424 12,248.5C 8.34251,243.486 5.50917,237.986 3.5,232C 3.91107,230.856 4.2444,229.689 4.5,228.5C 3.72298,226.553 2.72298,224.72 1.5,223C 2.97052,220.434 2.30386,218.601 -0.5,217.5C -0.5,216.5 -0.5,215.5 -0.5,214.5C 0.376122,207.322 1.20946,199.989 2,192.5C 6.06471,188.007 11.2314,186.173 17.5,187C 18.7014,186.097 19.5348,184.931 20,183.5C 21.2531,178.183 20.4198,173.349 17.5,169C 17.8757,158.716 16.709,148.55 14,138.5C 13.6049,129.994 13.1049,121.494 12.5,113C 11.9387,107.792 13.6053,103.459 17.5,100C 20.1959,99.2352 22.6959,98.0685 25,96.5C 26.0804,94.0038 27.4138,91.6705 29,89.5C 39.5145,78.3118 48.5145,65.9785 56,52.5C 62.6748,46.1625 70.1748,40.9958 78.5,37C 85.3026,29.765 93.6359,25.4317 103.5,24C 113.634,17.4288 123.967,11.0954 134.5,5C 140.987,2.94292 147.654,1.60959 154.5,1C 155.056,0.617425 155.389,0.117425 155.5,-0.5 Z M 130.5,40.5 C 131.873,40.3433 133.207,40.51 134.5,41C 136.833,44 139.167,47 141.5,50C 146.569,51.0704 150.569,53.7371 153.5,58C 154.833,58.3333 156.167,58.6667 157.5,59C 161.605,62.1936 165.272,65.8603 168.5,70C 176.012,72.2948 183.679,73.7948 191.5,74.5C 193.697,74.1519 195.53,73.1519 197,71.5C 197.93,69.0639 199.097,66.7305 200.5,64.5C 197.018,54.987 200.018,52.3203 209.5,56.5C 213.246,55.1311 215.912,52.6311 217.5,49C 222.562,50.1427 226.729,52.9761 230,57.5C 233.652,64.9932 238.819,71.1599 245.5,76C 251.833,83 258.167,90 264.5,97C 266.246,97.4709 267.913,98.1376 269.5,99C 277.54,106.288 283.706,114.788 288,124.5C 291.548,139.598 291.048,154.598 286.5,169.5C 286.542,175.997 286.542,182.497 286.5,189C 284.102,193.683 284.769,198.017 288.5,202C 291.903,202.1 295.07,202.934 298,204.5C 298.985,206.366 299.485,208.366 299.5,210.5C 299.082,227.9 293.915,243.9 284,258.5C 282.2,260.317 280.034,261.484 277.5,262C 276.531,265.075 274.531,266.075 271.5,265C 270.184,262.343 268.851,259.677 267.5,257C 267.645,256.228 267.978,255.561 268.5,255C 267.693,249.917 267.193,244.75 267,239.5C 264.218,229.134 262.385,218.634 261.5,208C 262.059,207.275 262.392,206.442 262.5,205.5C 260.307,192.595 258.807,179.595 258,166.5C 255.422,163.854 254.922,160.854 256.5,157.5C 255.78,152.863 255.28,148.197 255,143.5C 253.921,141.606 252.587,141.273 251,142.5C 248.332,140.55 245.498,140.217 242.5,141.5C 228.502,138.868 214.502,138.868 200.5,141.5C 196.489,141.172 192.489,140.838 188.5,140.5C 179.494,142.094 170.494,143.76 161.5,145.5C 157.636,145.116 153.803,144.783 150,144.5C 122.905,145.329 95.7387,145.829 68.5,146C 67.8249,150.372 66.8249,154.705 65.5,159C 66.4353,161.031 65.9353,162.864 64,164.5C 63.3401,170.297 62.1734,175.964 60.5,181.5C 60.7556,182.689 61.0889,183.856 61.5,185C 59.839,192.733 58.5057,200.567 57.5,208.5C 57.5698,209.772 57.9032,210.938 58.5,212C 54.5,216 54.5,220 58.5,224C 56.2936,226.209 55.9602,228.709 57.5,231.5C 56.9017,232.795 56.4017,234.128 56,235.5C 55.6667,245.5 55.3333,255.5 55,265.5C 51.9377,267.13 50.271,266.13 50,262.5C 47.828,261.415 45.828,260.081 44,258.5C 40.8757,253.585 38.8757,248.252 38,242.5C 33.8221,238.34 30.4887,233.673 28,228.5C 26.2137,225.54 25.5471,222.54 26,219.5C 25.089,216.424 23.2557,214.091 20.5,212.5C 18.2186,206.9 19.8852,203.066 25.5,201C 30.2009,200.607 34.8676,200.607 39.5,201C 40.9675,199.902 41.8008,198.402 42,196.5C 42.2864,187.271 42.4531,178.104 42.5,169C 42.2433,166.23 41.2433,163.73 39.5,161.5C 41.9937,158.92 41.9937,156.253 39.5,153.5C 39.51,139.679 39.51,125.846 39.5,112C 40.4841,110.343 41.4841,108.677 42.5,107C 41.4536,101.922 43.2869,98.0883 48,95.5C 52.048,87.1205 57.8813,80.2872 65.5,75C 82.9714,74.0922 100.305,72.7589 117.5,71C 118.333,70.1667 119.167,69.3333 120,68.5C 124.437,59.3332 127.937,49.9999 130.5,40.5 Z M 106.5,170.5 C 126.763,166.039 139.596,173.706 145,193.5C 146.385,194.551 147.385,195.884 148,197.5C 148.114,202.763 149.281,207.763 151.5,212.5C 148.913,216.369 148.913,220.203 151.5,224C 151.561,225.711 150.894,227.044 149.5,228C 152.12,230.625 151.954,233.125 149,235.5C 147.547,244.897 144.047,253.397 138.5,261C 134.948,262.216 131.615,263.883 128.5,266C 110.792,269.561 96.6254,264.061 86,249.5C 83.7893,244.734 81.4559,240.068 79,235.5C 78.3596,231.517 77.8596,227.517 77.5,223.5C 78.7454,214.794 80.2454,206.128 82,197.5C 86.6976,190.765 91.0309,183.765 95,176.5C 98.3077,173.265 102.141,171.265 106.5,170.5 Z M 199.5,170.5 C 207.811,170.544 216.145,170.544 224.5,170.5C 226.115,171.154 227.782,171.654 229.5,172C 232.631,176.133 236.131,179.966 240,183.5C 240.547,188.812 242.547,193.479 246,197.5C 247.071,201.284 247.904,205.118 248.5,209C 248.459,217.672 248.459,226.339 248.5,235C 246.03,242.506 243.197,250.006 240,257.5C 237.102,260.438 233.602,262.271 229.5,263C 222.102,271.531 213.769,272.864 204.5,267C 202.833,266.667 201.167,266.333 199.5,266C 198.743,264.488 197.743,263.154 196.5,262C 193.966,261.484 191.8,260.317 190,258.5C 185.289,249.807 180.622,241.14 176,232.5C 173.769,222.309 173.435,211.975 175,201.5C 179.186,191.26 185.019,182.093 192.5,174C 194.994,172.968 197.328,171.802 199.5,170.5 Z"/></g><g><path style="opacity:1" fill="#000000" d="M 156.5,386.5 C 158.258,386.877 159.925,387.544 161.5,388.5C 164.08,386.006 166.747,386.006 169.5,388.5C 175.373,388.302 181.206,388.302 187,388.5C 189.058,389.112 190.891,390.112 192.5,391.5C 196.41,390.605 199.743,391.771 202.5,395C 206.979,393.755 210.646,395.088 213.5,399C 217.525,401.514 221.859,403.181 226.5,404C 232.366,408.493 235.533,414.326 236,421.5C 237,423.167 238,424.833 239,426.5C 239.421,431.404 239.254,436.07 238.5,440.5C 233.388,434.612 227.054,430.779 219.5,429C 213.5,425.667 207.5,422.333 201.5,419C 199.5,418.667 197.5,418.333 195.5,418C 194.449,416.615 193.116,415.615 191.5,415C 184.792,414.52 178.292,413.354 172,411.5C 169.195,412.277 166.361,411.944 163.5,410.5C 155.99,410.958 148.657,412.291 141.5,414.5C 139.902,413.515 138.235,413.349 136.5,414C 126.205,418.561 116.205,423.894 106.5,430C 103.819,430.458 101.319,431.291 99,432.5C 97.3925,432.231 96.2259,431.397 95.5,430C 97.0776,423.294 98.2442,416.461 99,409.5C 100.046,407.91 101.213,406.41 102.5,405C 111.766,399.783 121.266,394.95 131,390.5C 132.965,391.885 134.798,391.718 136.5,390C 142.803,389.058 149.137,388.391 155.5,388C 156.056,387.617 156.389,387.117 156.5,386.5 Z"/></g><g><path style="opacity:1" fill="#000000" d="M 174.5,584.5 C 169.167,584.5 163.833,584.5 158.5,584.5C 157.833,583.167 157.167,583.167 156.5,584.5C 155.167,584.5 153.833,584.5 152.5,584.5C 140.051,581.413 127.717,577.246 115.5,572C 105.025,566.859 97.1919,559.025 92,548.5C 90.3333,547.167 88.6667,545.833 87,544.5C 86.7261,541.285 85.3927,538.619 83,536.5C 82.6667,533.5 82.3333,530.5 82,527.5C 80.0186,525.641 79.0186,523.308 79,520.5C 76.7436,505.375 78.4103,490.709 84,476.5C 85.5721,473.237 87.5721,470.237 90,467.5C 91.0549,463.065 93.3883,459.398 97,456.5C 97.2022,454.744 97.7022,453.078 98.5,451.5C 105.045,449.47 110.378,445.637 114.5,440C 122.763,435.057 131.429,431.057 140.5,428C 158.206,427.086 175.872,427.419 193.5,429C 198.412,432.421 203.746,435.088 209.5,437C 214.683,440.76 219.683,444.76 224.5,449C 226.715,450.044 229.048,450.71 231.5,451C 234.976,456.791 237.81,462.958 240,469.5C 247.922,480.22 252.089,492.387 252.5,506C 251.741,511.128 251.241,516.295 251,521.5C 248.921,525.194 247.588,529.194 247,533.5C 239,548.306 228.5,561.139 215.5,572C 212.833,572.333 210.167,572.667 207.5,573C 206.167,573.667 205.167,574.667 204.5,576C 194.618,579.537 184.618,582.37 174.5,584.5 Z M 161.5,437.5 C 167.605,437.917 168.938,440.75 165.5,446C 157.969,446.259 156.636,443.426 161.5,437.5 Z M 138.5,439.5 C 144.38,441.884 145.546,445.551 142,450.5C 139.65,448.317 137.483,445.984 135.5,443.5C 136.172,441.84 137.172,440.507 138.5,439.5 Z M 187.5,441.5 C 190.555,442.246 192.222,444.246 192.5,447.5C 190.688,450.499 188.188,451.165 185,449.5C 184.023,446.183 184.856,443.516 187.5,441.5 Z M 114.5,453.5 C 120.89,452.218 122.89,454.551 120.5,460.5C 119.635,461.583 118.635,461.749 117.5,461C 114.156,459.233 113.156,456.733 114.5,453.5 Z M 207.5,453.5 C 211.482,452.578 213.816,454.078 214.5,458C 212.879,462.059 210.046,463.559 206,462.5C 205.068,459.177 205.568,456.177 207.5,453.5 Z M 156.5,471.5 C 162.618,473.163 162.951,475.496 157.5,478.5C 152.639,476.623 152.305,474.29 156.5,471.5 Z M 222.5,473.5 C 224.5,473.5 226.5,473.5 228.5,473.5C 228.695,478.486 226.528,480.152 222,478.5C 221.36,476.735 221.527,475.068 222.5,473.5 Z M 104.5,476.5 C 106.199,476.34 107.866,476.506 109.5,477C 110.517,478.049 110.684,479.216 110,480.5C 105.085,482.679 103.251,481.346 104.5,476.5 Z M 178.5,476.5 C 179.822,476.33 180.989,476.663 182,477.5C 184.183,484.651 181.85,486.984 175,484.5C 173.78,480.707 174.947,478.04 178.5,476.5 Z M 136.5,485.5 C 141.372,487.539 141.705,490.372 137.5,494C 132.333,495.5 130.5,493.667 132,488.5C 133.652,487.601 135.152,486.601 136.5,485.5 Z M 97.5,493.5 C 100.765,493.3 102.765,494.8 103.5,498C 100.692,501.275 97.6915,501.275 94.5,498C 95.3862,496.385 96.3862,494.885 97.5,493.5 Z M 230.5,498.5 C 232.727,499.401 233.727,501.067 233.5,503.5C 228.503,503.779 227.503,502.113 230.5,498.5 Z M 159.5,499.5 C 163.343,499.306 165.676,501.139 166.5,505C 166.355,505.772 166.022,506.439 165.5,507C 159.612,507.747 157.612,505.247 159.5,499.5 Z M 185.5,499.5 C 188.045,499.151 190.045,499.984 191.5,502C 190.064,504.643 187.897,506.477 185,507.5C 181.757,504.695 181.924,502.029 185.5,499.5 Z M 130.5,507.5 C 135.579,507.558 137.579,509.892 136.5,514.5C 134.994,515.747 133.494,515.747 132,514.5C 129.697,512.453 129.197,510.119 130.5,507.5 Z M 225.5,511.5 C 229.976,511.822 231.476,514.156 230,518.5C 227.214,521.264 225.048,520.764 223.5,517C 224.077,515.1 224.744,513.267 225.5,511.5 Z M 100.5,515.5 C 102.167,515.5 103.833,515.5 105.5,515.5C 106.657,520.083 104.99,522.75 100.5,523.5C 98.7336,523.566 97.7336,522.732 97.5,521C 98.6321,519.235 99.6321,517.402 100.5,515.5 Z M 173.5,522.5 C 178.374,522.915 179.541,525.248 177,529.5C 171.33,532.846 169.33,531.18 171,524.5C 171.995,523.934 172.828,523.267 173.5,522.5 Z M 148.5,524.5 C 151.286,524.956 152.619,526.623 152.5,529.5C 152.486,533.609 150.486,535.109 146.5,534C 142.18,529.781 142.846,526.615 148.5,524.5 Z M 109.5,530.5 C 114.795,529.963 117.295,532.297 117,537.5C 114.524,539.815 112.191,539.482 110,536.5C 109.505,534.527 109.338,532.527 109.5,530.5 Z M 211.5,531.5 C 216.709,531.369 218.375,533.703 216.5,538.5C 209.789,539.788 208.122,537.454 211.5,531.5 Z M 129.5,542.5 C 133.458,544.133 133.458,545.8 129.5,547.5C 127.07,545.963 127.07,544.296 129.5,542.5 Z M 195.5,543.5 C 199.833,543.167 201.833,545.167 201.5,549.5C 198.192,548.935 196.192,546.935 195.5,543.5 Z M 149.5,547.5 C 154.541,547.353 156.207,549.519 154.5,554C 150.945,557.754 148.278,557.254 146.5,552.5C 147.26,550.64 148.26,548.973 149.5,547.5 Z M 174.5,550.5 C 178.388,549.989 180.721,551.655 181.5,555.5C 179.992,558.418 177.825,559.084 175,557.5C 173.94,555.05 173.773,552.717 174.5,550.5 Z"/></g></svg>