<svg version="1.1" id="Layer_4" xmlns="http://www.w3.org/2000/svg" xmlns:xlink="http://www.w3.org/1999/xlink" x="0px" y="0px" width="216.9px" height="308.177px" viewBox="0 0 216.9 308.177" enable-background="new 0 0 216.9 308.177" xml:space="preserve"><g><path d="M110,224.158c-38.772,0-70.315-31.543-70.315-70.315S71.228,83.528,110,83.528c29.589,0,54.949,18.38,65.312,44.315H216.9 c-11.683-48.202-55.107-84-106.9-84c-60.751,0-110,49.249-110,110s49.249,110,110,110c51.613,0,94.918-35.551,106.778-83.5h-41.664 C164.628,206.015,139.399,224.158,110,224.158z"/></g><g><path d="M109.938,43.815C80.539,43.815,55.311,25.672,44.825,0H3.16c11.861,47.949,55.165,83.5,106.779,83.5 S204.857,47.949,216.717,0h-41.664C164.566,25.672,139.338,43.815,109.938,43.815z"/></g><g><path fill="none" d="M109.5,263.862c-29.589,0-54.949,18.379-65.311,44.314h130.623C164.449,282.241,139.089,263.862,109.5,263.862 z"/><path d="M109.5,263.862c29.589,0,54.949,18.379,65.312,44.314H216.4c-11.683-48.201-55.107-84-106.9-84 c-51.793,0-95.218,35.797-106.901,84h41.59C54.551,282.241,79.911,263.862,109.5,263.862z"/></g><g></g><g></g><g></g><g></g><g></g><g></g></svg>