<svg height="525px" width="600px" version="1.1" id="svg16" xmlns="http://www.w3.org/2000/svg"><path d="M 597.6,499.6,313.8,8 c -2.9 -5 -8.2 -8 -13.9 -8 s -11,3.1 -13.9,8 l -283.8,491.6 c -2.9,5 -2.9,11.1,0,16,2.9,5,8.2,8,13.9,8 h 567.6 c 5.7,0,11 -3.1,13.9 -8,2.9 -5,2.9 -11.1,0 -16 z" id="path6"/><polygon points="555.88,491.5,43.875,491.5,299.88,48.2" transform="matrix(1,0,0,1,0.125,2.0)" id="polygon8" style="fill:#F9A800;"/><g transform="matrix(1,0,0,1,921,113.37)" style="stroke:#000000; stroke-linecap:round; fill:#000000" id="g14"><path d="m -622,105.22-12.5,77.531-52.281-58.594,31.375,71.969-75.656-21.031,65.344,43.594-75.031,23.219,78.531,1.344-50.562,60.062,66.781-41.281-10.062,77.875,33.844-70.875,33.656,70.969-9.844-77.906,66.656,41.5-50.375-60.25,78.5-1.125-74.938-23.406,65.438-43.406-75.719,20.812,31.594-71.875-52.438,58.438 l -12.31-77.54 z m 0.5,82.219 c 21.27,0,38.531,17.261,38.531,38.531 s -17.261,38.562-38.531,38.562 c -21.27-0-38.531-17.292-38.531-38.562 s 17.261-38.531,38.531-38.531 z" style="stroke-width:1.2;" id="path10"/><path d="m -283.77,72.153 c 0,22.281-18.063,40.344-40.344,40.344 s -40.344-18.063-40.344-40.344,18.063-40.344,40.344-40.344,40.344,18.063,40.344,40.344 z" transform="matrix(0.779473,0,0,0.779473,-369,169)" style="stroke-width:1;" id="path12"/></g></svg>