<svg height="525" width="600" version="1.1" id="svg16" xml:space="preserve" xmlns="http://www.w3.org/2000/svg"><path d="M597.6,499.6,313.8,8c-2.9-5-8.2-8-13.9-8s-11,3.1-13.9,8l-283.8,491.6c-2.9,5-2.9,11.1,0,16,2.9,5,8.2,8,13.9,8h567.6c5.7,0,11-3.1,13.9-8,2.9-5,2.9-11.1,0-16z" id="path4"/><polygon points="43.875,491.5,299.88,48.2,555.88,491.5" fill="#f6bd16" transform="matrix(1,0,0,0.99591458,0.125,2.0332437)" id="polygon6"/><path id="path1853" style="fill:#000000" d="M 315.92188 225.27734 L 297.03516 225.96484 C 258.72728 227.36048 258.7653 227.35259 252.5332 235.53906 C 247.49496 242.15797 234.25016 262.17294 228.0918 272.47656 C 224.28111 278.85171 226.54995 286.63797 232.70312 288.30273 C 239.24351 290.07285 243.51478 286.92757 251.59375 274.39062 C 270.43912 245.1461 268.27139 247.6091 274.96875 247.8418 C 278.27043 247.95651 282.32187 247.86471 283.97266 247.63867 C 285.62346 247.41266 290.7182 247.13832 295.29297 247.02734 L 303.60938 246.82422 L 298.24805 255.03711 C 295.29948 259.55308 290.76937 266.00926 288.18164 269.38477 C 276.7198 284.33447 264.29069 303.96292 263.80664 307.87891 C 263.51646 310.22872 263.55392 323.27856 263.88867 336.87891 L 264.49609 361.60742 L 238.86328 376.59961 L 213.22852 391.59375 L 211.75195 398.30273 C 210.59693 403.54794 211.07526 405.77947 213.94141 408.52539 C 221.05256 415.33839 224.48934 414.15792 263.5 391.51562 L 286.87891 377.94727 L 288.18555 370.60156 C 288.90459 366.56077 289.14995 359.69031 288.73047 355.33398 C 286.52476 332.4296 286.2748 332.44501 299.99805 354.5918 L 312.38086 374.57422 L 309.97266 383.79297 C 308.64811 388.86282 306.68135 395.10409 305.60156 397.66211 C 302.19381 405.73397 294.7893 429.08608 294.41797 432.93164 C 293.90641 438.22882 296.53145 441.48821 303.16016 443.7832 L 303.16211 443.78516 C 308.70984 445.70577 318.07672 442.36528 317.50195 438.67188 C 317.37398 437.84935 318.86813 432.79288 320.82227 427.43555 C 322.77657 422.0781 324.79771 415.90573 325.3125 413.71875 C 325.82687 411.53168 329.0481 401.79395 332.4707 392.07812 L 338.69336 374.41211 L 330.53711 359.66016 C 326.05079 351.54645 319.22045 339.60403 315.35938 333.12109 L 308.33984 321.33398 L 316.9082 309.23047 C 321.62026 302.57329 326.86465 294.70681 328.5625 291.75195 C 330.26061 288.79693 333.28435 284.68117 335.28125 282.60547 L 338.91016 278.83203 L 338.97852 286.98828 C 339.13866 306.33476 340.42243 315.75487 343.26367 318.42578 C 344.88755 319.95184 358.78317 324.23585 374.14453 327.94336 C 399.31833 334.01996 402.4146 334.32439 405.51172 331.03711 C 409.58078 326.71734 409.4729 319.87767 405.27539 316.02148 C 403.62362 314.5038 393.50333 311.06651 382.78516 308.38281 C 372.06677 305.69878 362.73095 302.61891 362.03906 301.53906 C 360.6024 299.29683 358.93342 266.53946 360.12891 264.05469 C 361.93712 260.29633 353.35836 251.61906 335.21875 238.85547 L 315.92188 225.27734 z M 134.46484 421.5332 L 134.46484 436.5332 L 271.23047 436.5332 L 271.23047 463.18945 L 465.33398 463.18945 L 465.33398 448.18945 L 286.23047 448.18945 L 286.23047 421.5332 L 134.46484 421.5332 z "/><path d="m 351.35054,240.26769 c -13.77984,1.24095 -24.46286,-14.56848 -19.61748,-27.17433 3.19169,-11.03215 16.44903,-15.76128 26.56378,-11.58226 8.83766,2.88206 14.07625,12.42174 12.43618,21.45246 -1.1573,9.54302 -9.47834,17.76366 -19.38269,17.30509 z" id="path1855" style="fill:#000000"/></svg>