<svg width="160.98004mm" height="140.468mm" viewBox="0 0 160.98004 140.468" version="1.1" id="svg1" xmlns="http://www.w3.org/2000/svg"><g id="layer1" transform="translate(-32.014583,-33.602083)"><path style="display:inline;fill:#000000;fill-opacity:1;stroke:#000000;stroke-width:0.264583px;stroke-linecap:butt;stroke-linejoin:miter;stroke-opacity:1" d="M 36.587522,173.93562 H 187.80425 c 3.09292,0.0919 6.27773,-2.75608 4.59346,-6.61458 L 116.51374,36.131803 c -2.02113,-3.521654 -6.06337,-2.909192 -8.26823,0.183737 L 33.004622,166.86169 c -1.929254,3.1848 -0.551215,6.55334 3.5829,7.07393 z" id="path4328"/><path style="display:inline;fill:#f9a800;fill-opacity:1;stroke:#000000;stroke-width:0.264583px;stroke-linecap:butt;stroke-linejoin:miter;stroke-opacity:1" d="M 112.68865,48.534147 45.532259,164.38122 H 179.47757 Z" id="path4326"/><path id="path1" d="m 100.57487,82.944696 -3.173446,5.866825 10.383856,0.0925 0.27596,5.605343 h 23.50606 l -6.67557,-11.564667 z m 5.35575,6.718969 -20.091282,18.676375 23.511742,-2.97346 1.09709,15.72824 c -0.43405,-0.0754 -0.8777,-0.12247 -1.33325,-0.12247 -4.2825,0 -7.75663,3.47465 -7.75663,7.75715 0,4.28249 3.47413,7.75663 7.75663,7.75663 4.2825,0 7.75715,-3.47414 7.75715,-7.75663 0,-3.75238 -2.6681,-6.88367 -6.20944,-7.60161 l 9.30692,-14.23427 8.37314,8.09408 0.18707,-13.75006 4.67051,-3.923281 -2.45721,-1.966288 -4.32532,-0.100251 1.86397,1.863969 -3.69228,2.431894 0.17725,6.919477 -5.67304,-5.40329 -5.74539,9.15603 -0.53536,-9.27541 -14.20844,1.17668 7.32617,-7.594887 z m 25.4708,26.360145 c -0.5197,-0.021 -1.0528,0.0597 -1.572,0.25425 -2.07683,0.77829 -3.12233,3.07687 -2.34405,5.15369 l 4.87723,13.01471 -13.99967,3.0701 -15.7024,1.74511 c -2.02841,0.15425 -3.375403,0.61003 -4.767148,2.42931 l -16.212447,15.74632 11.586374,0.0946 9.030461,-9.21081 0.99322,9.21185 17.71933,-0.18656 -1.10536,-11.87886 19.55591,-4.47776 0.008,-0.003 c 0.96158,-0.36256 1.65224,-0.99387 2.01538,-1.81591 0.36313,-0.82203 0.39941,-1.82758 0.0868,-2.93728 l -0.002,-0.005 -0.94775,-2.5492 c -0.007,-0.0206 -0.0119,-0.0415 -0.0196,-0.062 l -0.41703,-1.11311 -5.19141,-13.96453 -0.0383,0.0186 c -0.59914,-1.51939 -2.01723,-2.47208 -3.5543,-2.53422 z" style="display:inline;stroke-width:0.264583"/></g></svg>