<svg height="525" width="600" version="1.1" id="svg16" xml:space="preserve" xmlns="http://www.w3.org/2000/svg"><path d="M597.6,499.6,313.8,8c-2.9-5-8.2-8-13.9-8s-11,3.1-13.9,8l-283.8,491.6c-2.9,5-2.9,11.1,0,16,2.9,5,8.2,8,13.9,8h567.6c5.7,0,11-3.1,13.9-8,2.9-5,2.9-11.1,0-16z" id="path4"/><polygon points="43.875,491.5,299.88,48.2,555.88,491.5" fill="#f6bd16" transform="matrix(1,0,0,0.99591458,0.125,2.0332437)" id="polygon6"/><path id="path924" style="fill:#000000;fill-opacity:1;stroke:#000000;stroke-width:1px;stroke-linecap:butt;stroke-linejoin:miter;stroke-opacity:1" d="M 263.03906 242.03711 C 251.63445 242.1481 242.03588 250.1191 231.28516 252.77734 C 226.86595 253.87004 217.64258 252.15039 217.64258 252.15039 C 217.64258 252.15039 219.56183 263.73788 224.53125 265.08203 C 234.81438 267.86346 248.08331 252.35657 262.64648 252.77734 C 276.33113 253.17273 285.91762 265.64945 298.71289 265.94922 C 313.05875 266.28531 321.2077 252.66857 339.79688 253.0918 C 352.02643 253.37024 365.50533 268.77848 376.83594 264.16797 C 383.14757 261.59971 382.44922 252.30664 382.44922 252.30664 C 382.44922 252.30664 375.18518 253.73412 367.86719 252.46484 C 356.61153 250.51259 350.51546 242.23715 339.0918 242.27148 C 320.97048 242.32598 314.46394 253.96134 301.22266 254.0332 C 286.47483 254.1132 277.88867 241.89258 263.03906 242.03711 z M 310.56445 273.60938 C 310.08644 273.61123 309.60393 273.6281 309.11914 273.66211 C 298.45302 274.41042 289.50539 284.5375 278.82422 286.22266 C 263.59612 288.62517 250.13239 285.41633 243.85938 297.39453 C 241.43411 302.02553 244.54189 307.02045 245.61133 311.76562 C 245.80917 312.64347 246.06361 313.41412 246.33594 314.13672 C 246.34236 314.1665 247.74004 320.65647 246.83203 323.71875 C 245.57208 327.96795 241.03036 330.52696 239.01562 334.47461 C 235.71079 340.95006 232.25195 355.20898 232.25195 355.20898 C 232.25195 355.20898 237.50046 343.47618 241.23242 338.29883 C 244.03757 334.40725 248.18134 331.43905 250.54688 327.26562 C 251.62079 325.37095 252.42201 322.13194 252.92773 319.63281 C 255.84343 319.61472 260.18228 319.71731 262.80273 320.51953 C 265.79538 321.43569 268.48693 323.06988 271.08594 324.91406 L 271.08984 325.11719 C 271.08984 325.11719 266.45247 328.89128 264.64258 332.22852 C 261.72102 337.61556 261.83471 345.3008 259.58203 351 C 257.1339 357.19365 244.66211 367.83594 244.66211 367.83594 C 244.66211 367.83594 260.53793 356.10205 263.33594 351.19336 C 266.92648 344.89425 264.39138 341.10505 268.45117 335.09766 C 270.02007 332.77612 273.02048 330.13819 275.46484 328.18164 C 275.96502 328.56915 276.47087 328.9416 276.97266 329.32422 L 275.88281 328.875 L 275.88281 329.37305 C 275.88281 329.37305 285.73852 338.69143 291.52734 348.57422 C 291.00668 348.74252 290.47912 348.9074 289.93164 349.05859 C 281.45607 351.39932 277.33274 364.71513 269.38867 370.69922 C 263.59983 375.05982 257.94837 374.26602 253.08203 379.63672 C 245.06571 388.48387 243.48295 403.22817 236.77344 413.97852 C 232.77548 420.38426 222.66016 431.69727 222.66016 431.69727 C 222.66016 431.69727 237.63065 420.87286 243.20312 413.66406 C 249.89384 405.00866 250.08474 391.95256 257.94336 384.3418 C 261.87443 380.53472 268.53319 380.81776 272.83984 377.44141 C 277.05416 374.13745 279.22578 368.81565 282.875 364.89648 C 286.0762 361.45848 289.22224 357.79143 293.22461 355.33203 C 293.62553 355.08567 294.04329 354.87553 294.4668 354.67578 C 295.29668 356.97442 295.74739 359.20601 295.62109 361.25195 C 294.87697 373.30597 278.11871 378.47345 272.55664 389.19336 C 266.2385 401.37049 267.03317 416.38352 261.69141 428.88867 C 256.51961 440.99592 231.53125 454.39258 231.53125 454.39258 C 231.53125 454.39258 260.79928 443.15373 267.67773 430.44141 C 274.22124 418.34811 272.98158 403.41215 279.6543 391.63281 C 285.87226 380.65626 302.23738 375.87093 304.54688 363.46875 C 305.14498 360.25688 304.17642 356.11359 302.66016 352.04492 C 303.63073 351.70489 304.57309 351.30741 305.45508 350.7832 C 309.14942 348.5875 315.17773 342.31641 315.17773 342.31641 L 305.92578 339.96484 C 305.92578 339.96484 303.71701 342.42121 299.49219 344.96094 C 297.33585 340.73384 295.49901 337.83579 295.07617 337.1875 C 302.35576 338.92751 309.64466 340.82056 318.43555 343.13672 C 319.95903 343.53811 321.49334 343.69176 323.03516 343.69922 C 321.48685 345.53626 318.45206 349.3678 317.6875 352.03906 C 315.32761 360.28425 321.0058 369.56285 318.4707 377.75586 C 314.14723 391.7286 292.59766 413.19531 292.59766 413.19531 C 292.59766 413.19531 316.56953 397.90068 322.54883 385.75195 C 327.13583 376.43207 321.22515 364.29586 325.21484 354.70508 C 327.41906 349.40638 332.09318 345.44903 336.31641 341.54688 C 339.57776 340.87195 342.83862 340.37804 346.07031 340.74805 C 349.13554 341.09899 351.33568 341.9675 353.2832 342.85742 L 353.2832 342.94336 C 353.2832 342.94336 347.02156 348.47992 344.97266 352.03906 C 341.66528 357.78431 341.60633 364.91051 339.01367 371.01172 C 336.19608 377.64224 328.66406 389.98633 328.66406 389.98633 C 328.66406 389.98633 337.57765 381.41885 340.73828 376.1875 C 344.79419 369.47433 344.64974 360.6192 349.20508 354.23438 C 351.39496 351.16501 356.41305 347.36584 359.49219 345.18359 C 359.77495 345.23254 360.04367 345.3019 360.3418 345.33008 C 360.82887 345.37612 361.30071 345.4094 361.77148 345.44141 C 360.09133 347.20369 358.13207 349.43678 357.19531 351.16406 C 354.27376 356.55111 354.3855 363.13869 352.13281 368.83789 C 349.68468 375.03154 343.01563 386.61523 343.01562 386.61523 C 343.01562 386.61523 351.0516 378.48877 353.84961 373.58008 C 357.44017 367.28096 357.0984 359.10114 361.1582 353.09375 C 363.14717 350.15063 367.83144 346.43961 370.60742 344.37305 C 371.47399 344.01016 372.32181 343.56489 373.15039 342.98047 C 376.39919 340.689 379.47147 336.72257 379.62695 332.75 C 379.87042 326.52937 376.62413 321.09404 372.43359 316.49023 C 368.24381 311.88725 360.69449 310.39823 355.79102 306.56445 C 346.08968 298.97947 340.88494 287.29146 330.37891 280.86719 C 324.15971 277.06424 317.73472 273.58156 310.56445 273.60938 z "/></svg>