<svg width="600px" height="525px" viewBox="0 0 600 525" version="1.1" id="svg8" xmlns="http://www.w3.org/2000/svg"><path d="M 597.6 499.6 313.8 8 c -2.9 -5 -8.2 -8 -13.9 -8 s -11 3.1 -13.9 8 L 2.2 499.6 c -2.9 5 -2.9 11.1 0 16 2.9 5 8.2 8 13.9 8 h 567.6 c 5.7 0 11 -3.1 13.9 -8 2.9-5 2.9 -11.1 0 -16 z" id="path1"/><path fill="#f9a800" d="m 300.005 50.036 256 441.489 H 44 z" id="path2"/><path fill="none" stroke="#000000" stroke-width="8" d="M 348.34 408.62 s 41.617 17.949 42.478 18.461 c 8.278 4.922 17.33 -0.251 20.776 2.962 3.446 3.213 -3.896 8.193 -4.832 13.466 -1.403 7.898 1.459 14.01 -4.24 14.005 -4.916 -0.004 -6.524 -5.679 -19.396 -12.509 -15.513 -8.231 -44.3 -21.768 -44.3 -21.768 z m 8.055 -38.544 s 33.064 -13.887 49.427 -21.454 c 4.062 -1.879 11.035 -10.634 15.914 -7.564 3.612 2.273 3.065 6.872 3.375 12.647.31 5.775 4.007 8.037 3.84 12.524 -0.304 8.02 -7.066 -1.69 -17.116.75205 -18.258 4.437 -58.641 22.497 -58.641 22.497 z m -102.86 38.307 s -42.561 19.611 -43.437 20.098 c -8.415 4.683 -16.98 -2.901 -20.517.21274 -3.537 3.113 1.862 10.56 4.201 15.377 2.439 5.023 -1.02 10.447 3.939 12.305 4.604 1.725 5.557 -5.125 18.62 -11.584 15.742 -7.783 43.139 -20.896 43.139 -20.896 z m -11.387 -40.01 s -33.821 -11.39 -49.835 -19.669 c -3.975 -2.055 -9.59 -9.424 -14.6 -6.571 -3.709 2.112 -1.866 5.018 -2.43 10.774 -0.563 5.756 -4.216 10.328 -4.245 14.818 -0.049 8.026 9.479 -2.787 19.412.946 18.046 5.235 55.944 21.177 55.944 21.177 z" id="path3"/><path fill-rule="evenodd" d="M 285.57 350.59 c -3.381 16.765 3.835 22.437 14.959 14 15.788 10.394 14.943 -2.562 14.365 -13.497 -0.328 -27.371 -25.936 -30.324 -29.324 -0.503 z" id="path4"/><path d="M 250.31 317.44 c .82293 -9.576 8.315 -15.128 19.861 -14.305 10.424.73661 21.078 4.21 18.543 13.481 -2.618 9.576 -10.506 22.638 -20.955 22.813 -10.449.17456 -18.271 -12.413 -17.448 -21.989 z m 99.21 -0.76 c -0.823 -9.576 -11.455 -14.499 -23.001 -13.677 -10.424.73661 -18.188 5.466 -15.653 14.737 2.618 9.576 11.26 22.01 21.709 22.185 10.449.17456 17.769 -13.669 16.946 -23.245 z" id="path5"/><path fill="none" stroke="#000000" stroke-width="8" d="M 363.12 319.27 c 3.035 -7.934 11.04 -15.912 12.688 -31.734 1.648 -15.822 -7.978 -42.569 -23.934 -56.034 -11.03 -9.308 -30.828 -18.633 -52.551 -18.678 m -63.598 106.45 c -3.035 -7.934 -11.04 -15.912 -12.688 -31.734 -1.648 -15.822 7.978 -42.569 23.934 -56.034 11.03 -9.308 30.828 -18.633 52.551 -18.678" id="path6"/><path fill="none" stroke="#000" stroke-linecap="round" stroke-linejoin="bevel" stroke-width="8" d="M 338.72 378.32 c -0.106 3.347 2.457 -14.704 8.787 -18.205 9.939 -5.496 17.303 -15.498 14.753 -11.942 m -62.889 89.538 c 9.262.16744 23.454 -0.897 33.892 -14.868 6 -8.03 17.675 -26.201 17.575 -46.294 -0.092 -18.396 4.649 -14.725 8.929 -22.533 7.927 -14.46 7.184 -18.132 1.977 -42.245 -2.568 -11.893 -1.528 -9.422.62157 -22.497 2.411 -14.667 2.184 -20.69 -2.774 -28.676 m -95.792 117.01 c .10622 3.347 -6.01 -14.349 -12.341 -17.85 -9.939 -5.496 -18.369 -16.209 -15.819 -12.653 m 64.311 90.604 c -9.048 -1.333 -22.853 -5.596 -33.892 -14.868 -8.579 -7.205 -15.898 -32.24 -17.575 -46.294 -2.18 -18.267 -4.502 -14.097 -8.929 -21.822 -5.939 -10.363 -7.717 -24.501 -0.867 -41.43 4.564 -11.279 -0.062 -12.079 -1.228 -25.279 -1.406 -15.923 -0.928 -20.941 2.774 -28.173" id="path7"/><path d="M 258.99 373.18 c 28.833 14.283 54.296 11.669 81.982 -0.944 14.954 46.208 -88.23 55.936 -81.982.94405 z" color="#000000" id="path8"/></svg>