<svg width="600" height="525" version="1.1" id="svg33808" xml:space="preserve" xmlns="http://www.w3.org/2000/svg"><path d="M597.6 499.6 313.8 8c-2.9-5-8.2-8-13.9-8-5.7 0-11 3.1-13.9 8L2.2 499.6c-2.9 5-2.9 11.1 0 16 2.9 5 8.2 8 13.9 8h567.6c5.7 0 11-3.1 13.9-8 2.9-5 2.9-11.1 0-16z" id="path33800"/><path fill="#f6bd16" d="M44 491.52525977 300 50.03632646l256 441.48893331z" overflow="visible" id="path33802"/><path id="rect43586-2" style="stroke:#000000;stroke-width:1.21315" d="M 256.77344 282.86719 C 216.11577 282.86719 183.17372 314.69605 181.38281 354.89648 L 181.19531 354.89648 L 181.19531 459.01172 L 230.63867 459.01172 L 230.63867 358.95898 L 230.63867 358.61328 L 230.66211 358.61328 A 4.8844838 4.8844838 0 0 1 235.52344 354.07422 A 4.8844838 4.8844838 0 0 1 240.39453 358.61328 L 240.39648 358.61328 L 240.39648 358.63867 A 4.8844838 4.8844838 0 0 1 240.4082 358.95898 A 4.8844838 4.8844838 0 0 1 240.39648 359.11914 L 240.39648 459.01172 L 362.35547 459.01172 L 362.35547 359.20898 L 362.35547 358.86523 L 362.42383 358.86523 A 4.8844838 4.8844838 0 0 1 367.24023 354.32422 A 4.8844838 4.8844838 0 0 1 372.05469 358.86523 L 372.11328 358.86523 L 372.11328 359.16016 A 4.8844838 4.8844838 0 0 1 372.12305 359.20898 A 4.8844838 4.8844838 0 0 1 372.11328 359.36133 L 372.11328 459.01172 L 418.91016 459.01172 L 418.91016 354.89648 L 418.72266 354.89648 C 416.93174 314.69605 383.98969 282.86719 343.33203 282.86719 L 256.77344 282.86719 z "/><circle style="fill:#000000;fill-opacity:1;stroke:#000000;stroke-width:1.12135;stroke-opacity:1" id="path43916" cx="300.29602" cy="221.20627" r="48.707245"/><path style="fill:#f6bd16;fill-opacity:1;stroke:none;stroke-width:0.100988;stroke-linecap:butt;stroke-linejoin:miter;stroke-dasharray:none;stroke-opacity:1" d="m 203.97443,420.20149 c 0,0 3.59305,0.9127 5.42228,1.08022 2.0214,0.18512 4.40116,2.05242 4.40116,2.05242 0,0 0.40936,-1.40498 1.44134,-1.89289 0.94002,-0.44442 2.32069,0.0171 2.32069,0.0171 0,0 -0.24076,-2.60285 2.09691,-4.73756 1.88962,-1.72556 4.8046,-1.64117 4.8046,-1.64117 0,0 0.10386,-4.04241 2.61655,-5.6779 2.47875,-1.61341 8.6283,-2.06837 8.6283,-2.06837 l 4.23607,-1.67929 c 0,0 2.35335,-3.32253 7.67714,-3.42424 5.96867,-0.11404 8.74348,3.68747 8.74348,3.68747 0,0 2.00574,-4.11088 3.6985,-5.5216 2.90904,-2.42434 6.51212,-2.00849 6.51212,-2.00849 0,0 0.0134,-6.47208 6.27954,-6.50303 6.47092,-0.0319 6.52206,6.81983 6.52206,6.81983 0,0 1.00363,-2.02707 1.88363,-2.51243 1.30911,-0.72202 2.67254,0.0312 2.67254,0.0312 l 3.41007,-1.92103 1.3094,2.89312 c 0,0 0.7475,2.35642 0.71729,3.56975 -0.0482,1.93351 -1.5035,3.898 -1.5035,3.898 0,0 1.70244,0.82856 2.30878,1.93657 0.47562,0.86912 0.10183,3.29383 0.10183,3.29383 0,0 5.15631,-0.14159 5.97103,4.66132 0.75162,4.43093 -3.13873,7.17397 -3.13873,7.17397 0,0 3.11414,2.33999 3.39231,6.74674 0.24941,3.95113 -2.71646,6.69108 -2.71646,6.69108 0,0 7.09686,0.0736 7.60577,7.90146 0.48768,7.50139 -5.55548,9.56988 -5.55548,9.56988 0,0 2.23876,2.08224 2.8889,3.42761 0.56466,1.16849 0.77342,3.81571 0.77342,3.81571 l 8.45207,1.20309 c 0,0 -1.37313,-0.30482 -1.26568,-2.86456 0.0715,-1.70252 2.4156,-2.2577 2.4156,-2.2577 0,0 -2.58876,-2.12838 -2.87041,-6.25625 -0.40225,-5.89528 4.83874,-7.64766 4.83874,-7.64766 0,0 -3.62783,-2.18098 -4.31938,-5.65963 -0.80069,-4.02764 1.71043,-5.97942 1.71043,-5.97942 l 3.54823,-4.74336 4.42038,0.20841 c 0,0 1.83794,-1.43073 2.93521,-1.71103 0.84732,-0.21645 2.62256,0.0723 2.62256,0.0723 0,0 0.2997,0.78418 0.89018,0.0136 0.60912,-0.79484 -0.73931,-1.87597 -0.91226,-2.86232 -0.17392,-0.99191 0.8039,-2.00662 0.16051,-2.78134 -1.42352,-1.71406 -1.17624,3.01805 -6.51835,-1.48016 -2.73825,-2.30568 -2.02576,-7.61562 -2.02576,-7.61562 0,0 -3.7566,-0.16917 -4.9198,-2.9987 -1.25025,-3.04131 1.09152,-6.04046 1.09152,-6.04046 0,0 -3.73684,-3.78331 -1.54877,-6.68382 2.37341,-3.14623 5.42827,-1.62043 5.42827,-1.62043 0,0 -0.4797,-5.27312 4.20741,-5.17089 4.97506,0.1085 4.0119,4.77008 4.0119,4.77008 l 2.18882,-0.2801 c 0,0 -1.16981,-5.5425 4.08756,-5.46626 4.46073,0.0646 3.84727,4.82454 3.84727,4.82454 0,0 2.8212,-1.5696 5.68987,0.44021 2.50844,1.75744 1.99302,5.17543 1.99302,5.17543 0,0 2.71522,-0.34972 3.98189,0.0472 1.31301,0.41141 3.41748,2.31517 3.41748,2.31517 0,0 0.69545,-3.36401 3.8656,-3.16767 3.25281,0.20146 3.72659,3.18659 3.72659,3.18659 0,0 3.98015,-1.03646 6.32017,-0.037 4.53001,1.93486 8.82323,10.21358 8.82323,10.21358 0,0 2.10309,-1.13048 4.46418,0.12934 1.27016,0.67773 2.89271,3.20717 2.89271,3.20717 0,0 4.56515,-1.92826 8.43177,0.34648 3.47801,2.04612 3.48136,6.60032 3.48136,6.60032 l 3.0309,0.21913 c 0.0781,-0.26892 -0.0671,-1.06363 0.75307,-2.66342 0.66388,-1.29499 1.939,-1.78864 1.939,-1.78864 0,0 -2.07161,-2.1193 -3.23275,-3.50333 -1.10754,-1.32015 -1.31418,-5.47013 -1.31418,-5.47013 0,0 -4.3271,1.65642 -7.55851,0.26437 -3.82888,-1.64944 -3.41679,-5.40977 -3.41679,-5.40977 0,0 -3.45735,1.50643 -6.03781,0.33058 -2.80943,-1.28019 -2.04076,-3.97368 -2.04076,-3.97368 l -3.89628,-3.431 c 0,0 -2.85179,0.0954 -3.96076,-0.77479 -0.99157,-0.77804 -2.0238,-3.71782 -2.0238,-3.71782 0,0 -1.71731,4.75286 -7.35928,3.49478 -6.10403,-1.36113 -4.80957,-8.46341 -4.80957,-8.46341 0,0 -2.4205,-0.63769 -3.84292,-2.60908 -1.59667,-2.21292 -0.90846,-5.44896 -0.90846,-5.44896 l -2.04369,-0.21816 c 0,0 -2.77975,3.15565 -5.13401,1.17838 -3.7932,-3.1858 -0.13938,-5.90568 -0.13938,-5.90568 0,0 -1.00215,-2.42697 -0.006,-4.99274 0.59815,-1.54105 3.52339,-3.48988 3.52339,-3.48988 0,0 -2.88764,-2.26624 -1.5874,-6.84984 1.39384,-4.91351 5.05926,-4.53493 5.05926,-4.53493 0,0 -0.87881,-5.49847 3.31164,-7.43942 5.11739,-2.3703 8.73538,0.6004 8.73538,0.6004 0,0 -0.3203,-3.10676 1.63005,-4.86257 1.87491,-1.6879 4.97,-1.50279 4.97,-1.50279 0,0 -0.97083,-3.19513 0.8914,-5.2771 2.20185,-2.46167 4.81962,-1.08201 4.81962,-1.08201 0,0 0.84028,-5.60031 5.70566,-5.60461 6.0769,-0.005 6.93666,3.32236 6.93666,3.32236 0,0 0.80207,1.00941 1.01139,-0.71968 0.13991,-1.15574 1.11538,-3.47225 4.02145,-4.38165 3.73198,-1.16785 5.75731,1.02343 5.75731,1.02343 0,0 0.74332,-6.85141 7.85772,-11.0876 7.11363,-4.23574 12.76981,-1.35866 12.76981,-1.35866 l 7.39958,0.8493 -15.67672,-17.69229 -0.0596,8.72551 c 0,0 -2.36021,1.99884 -5.46292,3.08216 -3.33069,1.1629 -6.57153,0.0845 -6.57153,0.0845 0,0 0.27985,3.82444 -4.38439,6.14117 -4.53667,2.25338 -8.2767,-0.42825 -8.2767,-0.42825 0,0 -0.48466,3.78408 -3.41706,5.63006 -3.50282,2.20505 -6.74237,0.62527 -6.74237,0.62527 0,0 0.25478,4.46095 -3.29368,5.89519 -3.57507,1.44499 -6.5356,-1.21059 -6.5356,-1.21059 l -1.92591,0.88638 c 0,0 1.49226,5.79524 -2.45574,7.64586 -3.7524,1.75893 -7.48407,-1.93979 -7.48407,-1.93979 0,0 -2.63713,2.09418 -6.32103,1.62811 -3.42611,-0.43345 -4.98925,-4.41883 -4.98925,-4.41883 0,0 -1.51349,0.94407 -2.34704,1.24164 -0.82566,0.29477 -2.57809,0.52044 -2.57809,0.52044 0,0 0.42759,1.76741 0.19348,2.55312 -0.28295,0.94961 -1.26874,2.28893 -1.26874,2.28893 l -7.37478,2.7044 c 0,0 -5.49667,-6.54886 -8.17622,-9.87941 -1.865,-2.31811 -5.80499,-1.09758 -5.80612,-7.03113 -9.4e-4,-4.90251 3.92512,-6.55359 3.92512,-6.55359 0,0 -1.74448,-2.00539 -1.42816,-4.36258 0.23475,-1.74931 1.77142,-2.7461 1.77142,-2.7461 0,0 -6.01053,-1.51468 -6.13355,-8.0664 -0.0885,-4.71415 4.3191,-7.04513 4.3191,-7.04513 0,0 -3.70825,-3.0526 -3.6948,-7.04931 0.0115,-3.4291 3.24173,-6.78189 3.24173,-6.78189 l -13.4372,0.72785 c 0,0 4.33548,3.07016 4.77387,6.74106 0.64284,5.38294 -2.97493,5.97207 -2.97493,5.97207 0,0 3.80192,4.9882 1.25012,8.4357 -2.8483,3.84809 -7.14121,2.12078 -7.14121,2.12078 l -1.14554,1.99973 c 0,0 3.40997,1.92248 2.63962,6.40934 -0.72116,4.20041 -4.17703,4.90506 -4.17703,4.90506 l 0.0491,0.85115 c 0,0 5.79859,3.38607 3.42938,9.13954 -1.9615,4.76339 -7.27789,4.14869 -7.27789,4.14869 0,0 1.53985,6.4419 -2.28198,7.6757 -5.688,1.83625 -6.96332,-3.47432 -6.96332,-3.47432 0,0 -2.08229,0.64005 -3.02813,0.34447 -0.9422,-0.29443 -2.34131,-2.01858 -2.34131,-2.01858 0,0 -1.84019,4.94585 -6.58193,4.50899 -7.08175,-0.65244 -6.16079,-6.81875 -6.16079,-6.81875 l -1.04667,-0.58906 c 0,0 -1.65891,4.13021 -7.48781,2.62256 -4.50071,-1.16413 -4.42185,-4.05587 -4.97297,-8.27684 -0.13463,-1.0311 -1.86381,-0.091 -3.57875,-1.08542 -1.80123,-1.04452 -1.70079,-2.90436 -1.70079,-2.90436 0,0 -2.47296,1.33078 -5.81877,-0.11159 -3.0955,-1.33445 -3.24228,-6.82994 -3.24228,-6.82994 0,0 -3.96292,2.07449 -9.31649,-0.49289 -6.75399,-3.23897 -6.01803,-8.23287 -6.01803,-8.23287 0,0 -4.53319,-0.71206 -6.63297,-1.36421 -3.8893,-1.20794 -5.61033,-4.92698 -5.61033,-4.92698 l -1.5815,-2.35645 c -22.25367,5.96747 -39.4162,47.63072 -4.84263,12.1069 0,0 6.27652,-0.54443 11.86445,1.91936 5.09368,2.24586 7.35886,8.18916 7.35886,8.18916 0,0 3.55215,-1.53205 5.81894,-0.0844 2.07546,1.32545 2.9088,4.89023 2.9088,4.89023 0,0 1.63976,-0.48457 2.80304,0.11007 1.08005,0.55209 1.07007,1.14893 1.74595,1.5222 2.00479,1.1072 3.74905,-0.15665 6.52018,2.23605 2.26451,1.95527 2.36502,5.09969 2.36502,5.09969 0,0 3.07437,0.0542 4.63468,1.98089 1.56174,1.92847 1.51424,4.73907 1.51424,4.73907 0,0 4.40407,-1.13661 7.00718,1.08677 2.49011,2.12686 2.65517,6.10009 2.65517,6.10009 0,0 7.75546,-2.02675 9.18438,4.43615 1.72241,7.79029 -3.90364,5.61527 -3.58507,8.75161 0.10455,1.02934 1.33755,1.61972 1.7301,2.57699 0.47468,1.15757 0.69802,3.68787 0.69802,3.68787 0,0 1.81346,-1.17185 2.84923,-1.28734 1.6738,-0.18663 2.94186,0.0362 2.94186,0.0362 l 3.7949,5.35932 c 0,0 -0.25575,2.82404 -0.93161,4.02328 -1.60394,2.846 -4.73961,2.70996 -4.73961,2.70996 0,0 -0.21496,1.28311 -0.59593,1.77912 -0.47319,0.61607 -1.94416,1.2851 -1.94416,1.2851 l -6.17638,-0.32373 -2.45567,1.96612 c 0,0 1.52207,4.17959 -1.24837,7.65614 -2.58975,3.24981 -6.88734,1.72158 -6.88734,1.72158 0,0 0.0738,4.15936 -3.75202,6.62738 -2.07958,1.3415 -7.19721,1.7142 -7.19721,1.7142 l -3.85968,1.8567 c 0,0 -1.51971,3.14714 -2.99168,3.81268 -2.23698,1.01144 -5.71236,1.33219 -5.71236,1.33219 0,0 -0.69624,3.91892 -3.82805,5.64435 -2.46833,1.35989 -6.41079,1.09077 -6.41079,1.09077 0,0 -0.0451,2.24231 -3.35411,4.59784 -2.9074,2.06966 -6.42098,2.35334 -6.42098,2.35334 z" id="path44036"/><g id="g28151"><g id="path44038"><path style="color:#000000;fill:#000000;stroke-width:0.107746" d="m 303.04922,336.82565 a 4.308403,4.308403 0 0 1 -4.30841,4.30841 4.308403,4.308403 0 0 1 -4.3084,-4.30841 4.308403,4.308403 0 0 1 4.3084,-4.3084 4.308403,4.308403 0 0 1 4.30841,4.3084 z" id="path27641"/><path style="color:#000000;fill:#000000" d="m 298.74023,332.46289 c -2.40857,0 -4.36132,1.9547 -4.36132,4.36328 0,2.40858 1.95275,4.36133 4.36132,4.36133 2.40858,0 4.36329,-1.95275 4.36329,-4.36133 0,-2.40858 -1.95471,-4.36328 -4.36329,-4.36328 z m 0,0.10742 c 2.35035,0 4.25586,1.90551 4.25586,4.25586 0,2.35035 -1.90551,4.25391 -4.25586,4.25391 -2.35034,0 -4.2539,-1.90356 -4.2539,-4.25391 0,-2.35035 1.90356,-4.25586 4.2539,-4.25586 z" id="path27638"/></g><g id="path44038-1"><path style="color:#000000;fill:#000000;stroke-width:0.118397" d="m 286.89242,352.31061 a 4.7343049,4.7343049 0 0 1 -4.73431,4.7343 4.7343049,4.7343049 0 0 1 -4.7343,-4.7343 4.7343049,4.7343049 0 0 1 4.7343,-4.73431 4.7343049,4.7343049 0 0 1 4.73431,4.73431 z" id="path27635"/><path style="color:#000000;fill:#000000" d="m 282.1582,347.51758 c -2.64667,0 -4.79297,2.14629 -4.79297,4.79297 0,2.64667 2.1463,4.79297 4.79297,4.79297 2.64668,0 4.79297,-2.1463 4.79297,-4.79297 0,-2.64668 -2.14629,-4.79297 -4.79297,-4.79297 z m 0,0.11719 c 2.58269,0 4.67578,2.09309 4.67578,4.67578 0,2.58269 -2.09309,4.67578 -4.67578,4.67578 -2.58269,0 -4.67578,-2.09309 -4.67578,-4.67578 0,-2.58269 2.09309,-4.67578 4.67578,-4.67578 z" id="path27632"/></g><g id="path44038-1-1"><path style="color:#000000;fill:#000000;stroke-width:0.0845071" d="m 276.59913,345.09735 a 3.3791618,3.3791618 0 0 1 -3.37916,3.37916 3.3791618,3.3791618 0 0 1 -3.37916,-3.37916 3.3791618,3.3791618 0 0 1 3.37916,-3.37916 3.3791618,3.3791618 0 0 1 3.37916,3.37916 z" id="path27629"/><path style="color:#000000;fill:#000000" d="m 273.2207,341.67578 c -1.88909,0 -3.42187,1.53278 -3.42187,3.42188 0,1.88909 1.53278,3.42187 3.42187,3.42187 1.8891,0 3.41992,-1.53278 3.41992,-3.42187 0,-1.8891 -1.53082,-3.42188 -3.41992,-3.42188 z m 0,0.084 c 1.84343,0 3.33594,1.49446 3.33594,3.33789 0,1.84342 -1.49251,3.33593 -3.33594,3.33593 -1.84342,0 -3.33789,-1.49251 -3.33789,-3.33593 0,-1.84343 1.49447,-3.33789 3.33789,-3.33789 z" id="path27626"/></g><g id="path44038-1-0"><path style="color:#000000;fill:#000000;stroke-width:0.149382" d="m 273.43051,370.4614 a 5.9732928,5.9732928 0 0 1 -5.9733,5.97329 5.9732928,5.9732928 0 0 1 -5.97329,-5.97329 5.9732928,5.9732928 0 0 1 5.97329,-5.9733 5.9732928,5.9732928 0 0 1 5.9733,5.9733 z" id="path27623"/><path style="color:#000000;fill:#000000" d="m 267.45703,364.41406 c -3.33932,0 -6.04687,2.70756 -6.04687,6.04688 0,3.33932 2.70755,6.04883 6.04687,6.04883 3.33932,0 6.04883,-2.70951 6.04883,-6.04883 0,-3.33932 -2.70951,-6.04688 -6.04883,-6.04688 z m 0,0.14844 c 3.25859,0 5.89844,2.63985 5.89844,5.89844 0,3.25859 -2.63985,5.89843 -5.89844,5.89843 -3.25859,0 -5.89844,-2.63984 -5.89844,-5.89843 0,-3.25859 2.63985,-5.89844 5.89844,-5.89844 z" id="path27620"/></g><g id="path44038-1-0-7"><path style="color:#000000;fill:#000000;stroke-width:0.103873" d="m 277.6871,365.32587 a 4.1535296,4.1535296 0 0 1 -4.15353,4.15353 4.1535296,4.1535296 0 0 1 -4.15353,-4.15353 4.1535296,4.1535296 0 0 1 4.15353,-4.15353 4.1535296,4.1535296 0 0 1 4.15353,4.15353 z" id="path27617"/><path style="color:#000000;fill:#000000" d="m 273.5332,361.12109 c -2.32199,0 -4.20508,1.88308 -4.20508,4.20508 0,2.322 1.88309,4.20508 4.20508,4.20508 2.322,0 4.20508,-1.88308 4.20508,-4.20508 0,-2.322 -1.88308,-4.20508 -4.20508,-4.20508 z m 0,0.10352 c 2.26586,0 4.10157,1.8357 4.10157,4.10156 0,2.26586 -1.83571,4.10156 -4.10157,4.10156 -2.26586,0 -4.10156,-1.8357 -4.10156,-4.10156 0,-2.26586 1.8357,-4.10156 4.10156,-4.10156 z" id="path27614"/></g><g id="path44038-1-0-7-4"><path style="color:#000000;fill:#000000;stroke-width:0.103873" d="m 269.25857,383.71182 a 4.1535296,4.1535296 0 0 1 -4.15353,4.15353 4.1535296,4.1535296 0 0 1 -4.15353,-4.15353 4.1535296,4.1535296 0 0 1 4.15353,-4.15353 4.1535296,4.1535296 0 0 1 4.15353,4.15353 z" id="path27611"/><path style="color:#000000;fill:#000000" d="m 265.10547,379.50586 c -2.322,0 -4.20508,1.88308 -4.20508,4.20508 0,2.32199 1.88308,4.20703 4.20508,4.20703 2.322,0 4.20508,-1.88504 4.20508,-4.20703 0,-2.322 -1.88308,-4.20508 -4.20508,-4.20508 z m 0,0.10351 c 2.26586,0 4.10156,1.83571 4.10156,4.10157 0,2.26586 -1.8357,4.10156 -4.10156,4.10156 -2.26586,0 -4.10156,-1.8357 -4.10156,-4.10156 0,-2.26586 1.8357,-4.10157 4.10156,-4.10157 z" id="path27608"/></g><g id="path44038-1-0-7-1"><path style="color:#000000;fill:#000000;stroke-width:0.111619" d="m 285.01412,383.63342 a 4.4632764,4.4632764 0 0 1 -4.46328,4.46328 4.4632764,4.4632764 0 0 1 -4.46327,-4.46328 4.4632764,4.4632764 0 0 1 4.46327,-4.46327 4.4632764,4.4632764 0 0 1 4.46328,4.46327 z" id="path27605"/><path style="color:#000000;fill:#000000" d="m 280.55078,379.11523 c -2.49516,0 -4.51953,2.02242 -4.51953,4.51758 0,2.49516 2.02437,4.51953 4.51953,4.51953 2.49516,0 4.51953,-2.02437 4.51953,-4.51953 0,-2.49516 -2.02437,-4.51758 -4.51953,-4.51758 z m 0,0.11133 c 2.43484,0 4.4082,1.97142 4.4082,4.40625 0,2.43484 -1.97336,4.40821 -4.4082,4.40821 -2.43483,0 -4.4082,-1.97337 -4.4082,-4.40821 0,-2.43483 1.97337,-4.40625 4.4082,-4.40625 z" id="path27602"/></g><g id="path44038-1-0-7-2"><path style="color:#000000;fill:#000000;stroke-width:0.119366" d="m 325.31041,376.89059 a 4.7730236,4.7730236 0 0 1 -4.77303,4.77303 4.7730236,4.7730236 0 0 1 -4.77302,-4.77303 4.7730236,4.7730236 0 0 1 4.77302,-4.77302 4.7730236,4.7730236 0 0 1 4.77303,4.77302 z" id="path27599"/><path style="color:#000000;fill:#000000" d="m 320.53711,372.05859 c -2.66832,0 -4.83203,2.16371 -4.83203,4.83203 0,2.66833 2.16371,4.83204 4.83203,4.83204 2.66832,0 4.83203,-2.16371 4.83203,-4.83204 0,-2.66832 -2.16371,-4.83203 -4.83203,-4.83203 z m 0,0.11914 c 2.60381,0 4.71289,2.10908 4.71289,4.71289 0,2.60382 -2.10908,4.7129 -4.71289,4.7129 -2.60381,0 -4.71289,-2.10908 -4.71289,-4.7129 0,-2.60381 2.10908,-4.71289 4.71289,-4.71289 z" id="path27596"/></g><g id="path44038-1-0-7-0"><path style="color:#000000;fill:#000000;stroke-width:0.0738562" d="m 299.06749,387.98492 a 2.9532602,2.9532602 0 0 1 -2.95326,2.95326 2.9532602,2.9532602 0 0 1 -2.95326,-2.95326 2.9532602,2.9532602 0 0 1 2.95326,-2.95326 2.9532602,2.9532602 0 0 1 2.95326,2.95326 z" id="path27593"/><path style="color:#000000;fill:#000000" d="m 296.11328,384.99414 c -1.651,0 -2.98828,1.33924 -2.98828,2.99023 0,1.651 1.33728,2.99024 2.98828,2.99024 1.651,0 2.99024,-1.33924 2.99024,-2.99024 0,-1.65099 -1.33924,-2.99023 -2.99024,-2.99023 z m 0,0.0742 c 1.61108,0 2.91797,1.30493 2.91797,2.91601 0,1.61109 -1.30689,2.91602 -2.91797,2.91602 -1.61108,0 -2.91601,-1.30493 -2.91601,-2.91602 0,-1.61108 1.30493,-2.91601 2.91601,-2.91601 z" id="path27590"/></g><g id="path44038-1-0-7-8"><path style="color:#000000;fill:#000000;stroke-width:0.0951585" d="m 291.21635,394.49252 a 3.8050644,3.8050644 0 0 1 -3.80506,3.80507 3.8050644,3.8050644 0 0 1 -3.80507,-3.80507 3.8050644,3.8050644 0 0 1 3.80507,-3.80506 3.8050644,3.8050644 0 0 1 3.80506,3.80506 z" id="path27587"/><path style="color:#000000;fill:#000000" d="m 287.41211,390.64062 c -2.12719,0 -3.85352,1.72438 -3.85352,3.85157 0,2.12719 1.72633,3.85351 3.85352,3.85351 2.12719,0 3.85156,-1.72632 3.85156,-3.85351 0,-2.12719 -1.72437,-3.85156 -3.85156,-3.85157 z m 0,0.0937 c 2.07576,0 3.75586,1.68205 3.75586,3.75782 0,2.07576 -1.6801,3.75781 -3.75586,3.75781 -2.07576,0 -3.75781,-1.68205 -3.75781,-3.75781 0,-2.07577 1.68205,-3.75782 3.75781,-3.75782 z" id="path27584"/></g><g id="path44038-1-0-7-6"><path style="color:#000000;fill:#000000;stroke-width:0.154224" d="m 279.73967,398.2168 a 6.1668849,6.1668849 0 0 1 -6.16689,6.16688 6.1668849,6.1668849 0 0 1 -6.16688,-6.16688 6.1668849,6.1668849 0 0 1 6.16688,-6.16689 6.1668849,6.1668849 0 0 1 6.16689,6.16689 z" id="path27581"/><path style="color:#000000;fill:#000000" d="m 273.57227,391.97266 c -3.44755,0 -6.24415,2.79659 -6.24415,6.24414 0,3.44754 2.7966,6.24414 6.24415,6.24414 3.44754,0 6.24414,-2.7966 6.24414,-6.24414 0,-3.44755 -2.7966,-6.24414 -6.24414,-6.24414 z m 0,0.15429 c 3.36419,0 6.08984,2.72565 6.08984,6.08985 0,3.3642 -2.72565,6.08984 -6.08984,6.08984 -3.3642,0 -6.08985,-2.72564 -6.08985,-6.08984 0,-3.3642 2.72565,-6.08985 6.08985,-6.08985 z" id="path27578"/></g><g id="path44038-1-0-7-01"><path style="color:#000000;fill:#000000;stroke-width:0.121302" d="m 289.79199,400.80417 a 4.8504601,4.8504601 0 0 1 -4.85046,4.85046 4.8504601,4.8504601 0 0 1 -4.85046,-4.85046 4.8504601,4.8504601 0 0 1 4.85046,-4.85046 4.8504601,4.8504601 0 0 1 4.85046,4.85046 z" id="path27575"/><path style="color:#000000;fill:#000000" d="m 284.94141,395.89258 c -2.71161,0 -4.91016,2.2005 -4.91016,4.91211 0,2.71161 2.19855,4.91015 4.91016,4.91015 2.71161,0 4.91211,-2.19854 4.91211,-4.91015 0,-2.71161 -2.2005,-4.91211 -4.91211,-4.91211 z m 0,0.12109 c 2.64605,0 4.78906,2.14496 4.78906,4.79102 0,2.64605 -2.14301,4.78906 -4.78906,4.78906 -2.64606,0 -4.78907,-2.14301 -4.78907,-4.78906 0,-2.64606 2.14301,-4.79102 4.78907,-4.79102 z" id="path27572"/></g><g id="path44038-1-0-7-22"><path style="color:#000000;fill:#000000;stroke-width:0.138731;-inkscape-stroke:none" d="m 297.46695,415.46588 a 5.5473909,5.5473909 0 0 1 -5.54739,5.54739 5.5473909,5.5473909 0 0 1 -5.5474,-5.54739 5.5473909,5.5473909 0 0 1 5.5474,-5.54739 5.5473909,5.5473909 0 0 1 5.54739,5.54739 z" id="path27521"/><path style="color:#000000;fill:#000000;-inkscape-stroke:none" d="m 291.91992,409.84961 c -3.10123,-10e-6 -5.61719,2.51596 -5.61719,5.61719 0,3.10122 2.51596,5.61524 5.61719,5.61523 3.10123,0 5.61719,-2.51401 5.61719,-5.61523 0,-3.10123 -2.51596,-5.61719 -5.61719,-5.61719 z m 0,0.13867 c 3.02625,0 5.47852,2.45227 5.47852,5.47852 0,3.02624 -2.45227,5.47656 -5.47852,5.47656 -3.02625,0 -5.47851,-2.45031 -5.47851,-5.47656 0,-3.02625 2.45226,-5.47852 5.47851,-5.47852 z" id="path27518"/></g><g id="path44038-1-0-7-84"><path style="color:#000000;fill:#000000;stroke-width:0.0777293" d="m 307.76847,409.4679 a 3.1081338,3.1081338 0 0 1 -3.10813,3.10813 3.1081338,3.1081338 0 0 1 -3.10813,-3.10813 3.1081338,3.1081338 0 0 1 3.10813,-3.10814 3.1081338,3.1081338 0 0 1 3.10813,3.10814 z" id="path27569"/><path style="color:#000000;fill:#000000" d="m 304.66016,406.32031 c -1.73758,0 -3.14649,1.41086 -3.14649,3.14844 0,1.73758 1.40891,3.14648 3.14649,3.14648 1.73757,0 3.14648,-1.4089 3.14648,-3.14648 0,-1.73758 -1.40891,-3.14844 -3.14648,-3.14844 z m 0,0.0781 c 1.69557,0 3.07031,1.37474 3.07031,3.07031 0,1.69557 -1.37474,3.06836 -3.07031,3.06836 -1.69557,0 -3.06836,-1.37279 -3.06836,-3.06836 0,-1.69557 1.37279,-3.07031 3.06836,-3.07031 z" id="path27566"/></g><g id="path44038-1-0-7-5"><path style="color:#000000;fill:#000000;stroke-width:0.135826;-inkscape-stroke:none" d="m 316.5208,425.14886 a 5.4312358,5.4312358 0 0 1 -5.43123,5.43124 5.4312358,5.4312358 0 0 1 -5.43124,-5.43124 5.4312358,5.4312358 0 0 1 5.43124,-5.43123 5.4312358,5.4312358 0 0 1 5.43123,5.43123 z" id="path27515"/><path style="color:#000000;fill:#000000;-inkscape-stroke:none" d="m 311.08984,419.65039 c -3.03628,0 -5.49999,2.46176 -5.5,5.49805 0,3.03629 2.46371,5.5 5.5,5.5 3.03629,-10e-6 5.49805,-2.46371 5.49805,-5.5 0,-3.03629 -2.46176,-5.49805 -5.49805,-5.49805 z m 0,0.13477 c 2.96288,0 5.36328,2.4004 5.36328,5.36328 10e-6,2.96288 -2.40039,5.36328 -5.36328,5.36328 -2.96288,0 -5.36328,-2.4004 -5.36328,-5.36328 10e-6,-2.96288 2.4004,-5.36329 5.36328,-5.36328 z" id="path27512"/></g><g id="path44038-1-0-7-3"><path style="color:#000000;fill:#000002;stroke-width:0.168748" d="m 361.66566,386.57361 a 6.7476602,6.7476602 0 0 1 -6.74766,6.74766 6.7476602,6.7476602 0 0 1 -6.74766,-6.74766 6.7476602,6.7476602 0 0 1 6.74766,-6.74766 6.7476602,6.7476602 0 0 1 6.74766,6.74766 z" id="path27563"/><path style="color:#000000;fill:#000000" d="m 354.91797,379.74219 c -3.77223,0 -6.83203,3.0598 -6.83203,6.83203 0,3.77222 3.0598,6.83203 6.83203,6.83203 3.77222,0 6.83203,-3.05981 6.83203,-6.83203 0,-3.77223 -3.05981,-6.83203 -6.83203,-6.83203 z m 0,0.16797 c 3.68103,0 6.66406,2.98303 6.66406,6.66406 0,3.68103 -2.98303,6.66211 -6.66406,6.66211 -3.68103,0 -6.66406,-2.98108 -6.66406,-6.66211 0,-3.68103 2.98303,-6.66406 6.66406,-6.66406 z" id="path27560"/></g><g id="path44038-1-0-7-61"><path style="color:#000000;fill:#000000;stroke-width:0.110651" d="m 342.01504,376.69458 a 4.4245582,4.4245582 0 0 1 -4.42456,4.42456 4.4245582,4.4245582 0 0 1 -4.42455,-4.42456 4.4245582,4.4245582 0 0 1 4.42455,-4.42456 4.4245582,4.4245582 0 0 1 4.42456,4.42456 z" id="path27557"/><path style="color:#000000;fill:#000000" d="m 337.58984,372.21484 c -2.47351,0 -4.47851,2.00696 -4.47851,4.48047 0,2.47352 2.005,4.47852 4.47851,4.47852 2.47352,0 4.48047,-2.005 4.48047,-4.47852 0,-2.47351 -2.00695,-4.48047 -4.48047,-4.48047 z m 0,0.11133 c 2.41372,0 4.36914,1.95543 4.36914,4.36914 0,2.41372 -1.95542,4.36914 -4.36914,4.36914 -2.41371,0 -4.36914,-1.95542 -4.36914,-4.36914 0,-2.41371 1.95543,-4.36914 4.36914,-4.36914 z" id="path27554"/></g><g id="path44038-1-0-7-61-3"><path style="color:#000000;fill:#000000;stroke-width:0.152287" d="m 348.93305,369.32452 a 6.089448,6.089448 0 0 1 -6.08945,6.08945 6.089448,6.089448 0 0 1 -6.08945,-6.08945 6.089448,6.089448 0 0 1 6.08945,-6.08944 6.089448,6.089448 0 0 1 6.08945,6.08944 z" id="path27551"/><path style="color:#000000;fill:#000000" d="m 342.84375,363.1582 c -3.40426,0 -6.16602,2.76176 -6.16602,6.16602 0,3.40426 2.76176,6.16601 6.16602,6.16601 3.40426,0 6.16602,-2.76175 6.16602,-6.16601 0,-3.40426 -2.76176,-6.16602 -6.16602,-6.16602 z m 0,0.15235 c 3.32195,0 6.01367,2.69171 6.01367,6.01367 0,3.32195 -2.69172,6.01367 -6.01367,6.01367 -3.32195,0 -6.01367,-2.69172 -6.01367,-6.01367 0,-3.32196 2.69172,-6.01367 6.01367,-6.01367 z" id="path27548"/></g><g id="path44038-1-0-7-61-5"><path style="color:#000000;fill:#000000;stroke-width:0.110651" d="m 330.92074,354.62357 a 4.4245582,4.4245582 0 0 1 -4.42455,4.42455 4.4245582,4.4245582 0 0 1 -4.42456,-4.42455 4.4245582,4.4245582 0 0 1 4.42456,-4.42456 4.4245582,4.4245582 0 0 1 4.42455,4.42456 z" id="path27545"/><path style="color:#000000;fill:#000000" d="m 326.49609,350.14453 c -2.47351,0 -4.48047,2.005 -4.48047,4.47852 0,2.47351 2.00696,4.48047 4.48047,4.48047 2.47352,0 4.48047,-2.00696 4.48047,-4.48047 0,-2.47352 -2.00695,-4.47852 -4.48047,-4.47852 z m 0,0.10938 c 2.41372,0 4.36914,1.95542 4.36914,4.36914 0,2.41371 -1.95542,4.36914 -4.36914,4.36914 -2.41371,0 -4.36914,-1.95543 -4.36914,-4.36914 0,-2.41372 1.95543,-4.36914 4.36914,-4.36914 z" id="path27542"/></g><g id="path44038-1-0-7-61-55"><path style="color:#000000;fill:#000000;stroke-width:0.0796659" d="m 325.21267,351.17377 a 3.1855705,3.1855705 0 0 1 -3.18557,3.18557 3.1855705,3.1855705 0 0 1 -3.18557,-3.18557 3.1855705,3.1855705 0 0 1 3.18557,-3.18557 3.1855705,3.1855705 0 0 1 3.18557,3.18557 z" id="path27539"/><path style="color:#000000;fill:#000000" d="m 322.02734,347.94922 c -1.78086,0 -3.22656,1.44374 -3.22656,3.22461 0,1.78087 1.4457,3.22461 3.22656,3.22461 1.78087,0 3.22461,-1.44374 3.22461,-3.22461 0,-1.78087 -1.44374,-3.22461 -3.22461,-3.22461 z m 0,0.0781 c 1.73782,0 3.14453,1.40868 3.14453,3.14649 0,1.73781 -1.40671,3.14648 -3.14453,3.14648 -1.73781,0 -3.14648,-1.40867 -3.14648,-3.14648 0,-1.73781 1.40867,-3.14649 3.14648,-3.14649 z" id="path27536"/></g><g id="path44038-1-0-7-61-39"><path style="color:#000000;fill:#000000;stroke-width:0.139408" d="m 323.41605,334.69562 a 5.5744352,5.5744352 0 0 1 -5.57444,5.57443 5.5744352,5.5744352 0 0 1 -5.57443,-5.57443 5.5744352,5.5744352 0 0 1 5.57443,-5.57444 5.5744352,5.5744352 0 0 1 5.57444,5.57444 z" id="path27533"/><path style="color:#000000;fill:#000000" d="m 317.8418,329.05078 c -3.11635,0 -5.64453,2.52819 -5.64453,5.64453 0,3.11635 2.52818,5.64453 5.64453,5.64453 3.11634,0 5.64453,-2.52818 5.64453,-5.64453 0,-3.11634 -2.52819,-5.64453 -5.64453,-5.64453 z m 0,0.14063 c 3.041,0 5.5039,2.4629 5.5039,5.5039 0,3.041 -2.4629,5.50586 -5.5039,5.50586 -3.041,0 -5.50586,-2.46486 -5.50586,-5.50586 0,-3.041 2.46486,-5.5039 5.50586,-5.5039 z" id="path27530"/></g><g id="path44038-1-0-7-61-4"><path style="color:#000000;fill:#000000;stroke-width:0.0969574;-inkscape-stroke:none" d="m 331.25444,338.79822 a 3.8769977,3.8769977 0 0 1 -3.877,3.877 3.8769977,3.8769977 0 0 1 -3.877,-3.877 3.8769977,3.8769977 0 0 1 3.877,-3.877 3.8769977,3.8769977 0 0 1 3.877,3.877 z" id="path27527"/><path style="color:#000000;fill:#000000;-inkscape-stroke:none" d="m 327.37695,334.87305 c -2.1674,0 -3.92578,1.75837 -3.92578,3.92578 0,2.1674 1.75838,3.92578 3.92578,3.92578 2.16741,0 3.92578,-1.75838 3.92578,-3.92578 0,-2.16741 -1.75837,-3.92578 -3.92578,-3.92578 z m 0,0.0957 c 2.11501,0 3.82813,1.71507 3.82813,3.83008 0,2.115 -1.71312,3.82812 -3.82813,3.82812 -2.115,0 -3.82812,-1.71312 -3.82812,-3.82812 0,-2.11501 1.71312,-3.83008 3.82812,-3.83008 z" id="path27524"/></g></g></svg>