<svg height="525" width="600" version="1.1" id="svg16" xml:space="preserve" xmlns="http://www.w3.org/2000/svg"><path d="M597.6,499.6,313.8,8c-2.9-5-8.2-8-13.9-8s-11,3.1-13.9,8l-283.8,491.6c-2.9,5-2.9,11.1,0,16,2.9,5,8.2,8,13.9,8h567.6c5.7,0,11-3.1,13.9-8,2.9-5,2.9-11.1,0-16z" id="path4"/><polygon points="43.875,491.5,299.88,48.2,555.88,491.5" fill="#f6bd16" transform="matrix(1,0,0,0.99591458,0.125,2.0332437)" id="polygon6"/><path id="path1804" style="fill:#000000;fill-opacity:1;stroke:#000000;stroke-width:1.15184px;stroke-linecap:butt;stroke-linejoin:miter;stroke-opacity:1" d="M 336.9707 205.32812 C 330.58566 205.39411 324.27103 209.10193 322.39453 215.58789 C 318.59656 225.46883 326.97064 237.85975 337.77148 236.88867 L 337.77344 236.88867 C 345.53647 237.24697 352.05967 230.80422 352.9668 223.32422 C 354.2524 216.24517 350.14449 208.76701 343.2168 206.50781 C 341.2346 205.68884 339.09905 205.30613 336.9707 205.32812 z M 310.00195 225.13867 L 295.19531 225.67773 C 265.16624 226.77176 265.19584 226.76438 260.31055 233.18164 C 256.36115 238.37011 245.97974 254.05986 241.15234 262.13672 C 238.16515 267.1341 239.94418 273.23797 244.76758 274.54297 C 249.89447 275.93054 253.24123 273.46426 259.57422 263.63672 C 274.3469 240.71234 272.64844 242.64376 277.89844 242.82617 C 280.48653 242.91609 283.66303 242.84516 284.95703 242.66797 C 286.25103 242.4908 290.24398 242.2745 293.83008 242.1875 L 300.34961 242.0293 L 296.14648 248.46484 C 293.83519 252.00486 290.28436 257.06687 288.25586 259.71289 C 279.27117 271.43176 269.52784 286.81898 269.14844 289.88867 C 268.92074 291.73066 268.94854 301.95996 269.21094 312.62109 L 269.68945 332.00586 L 249.5957 343.75781 L 229.50195 355.50977 L 228.34375 360.76953 C 227.43835 364.88118 227.8119 366.63072 230.05859 368.7832 C 235.63299 374.12382 238.32628 373.20015 268.90625 355.45117 L 287.23438 344.81445 L 288.25977 339.05469 C 288.82337 335.88716 289.01435 330.50276 288.68555 327.08789 C 286.95655 309.13346 286.76009 309.1453 297.51758 326.50586 L 307.22461 342.16992 L 305.33594 349.39648 C 304.29764 353.37067 302.75656 358.26239 301.91016 360.26758 C 299.23886 366.595 293.43368 384.90154 293.14258 387.91602 C 292.74158 392.06839 294.7999 394.62286 299.99609 396.42188 L 299.99805 396.42188 C 304.34684 397.92742 311.69073 395.31122 311.24023 392.41602 C 311.13983 391.77125 312.31 387.80697 313.8418 383.60742 C 315.3738 379.4078 316.95783 374.56981 317.36133 372.85547 C 317.76453 371.14106 320.28976 363.50672 322.97266 355.89062 L 327.85156 342.04297 L 321.45703 330.47852 C 317.94023 324.1183 312.58714 314.75766 309.56055 309.67578 L 304.05664 300.43555 L 310.77344 290.94727 C 314.46723 285.72879 318.57926 279.56431 319.91016 277.24805 C 321.24125 274.93164 323.61048 271.70523 325.17578 270.07812 L 328.02148 267.11914 L 328.07422 273.51367 C 328.19982 288.67911 329.2064 296.06256 331.43359 298.15625 C 332.70659 299.35251 343.59914 302.70897 355.64062 305.61523 C 375.37401 310.3786 377.80072 310.61786 380.22852 308.04102 C 383.41821 304.65481 383.33337 299.29234 380.04297 296.26953 C 378.74817 295.07983 370.81585 292.38692 362.41406 290.2832 C 354.01207 288.17923 346.69279 285.76445 346.15039 284.91797 C 345.02429 283.16032 343.71524 257.48293 344.65234 255.53516 C 346.06974 252.58903 339.34634 245.78645 325.12695 235.78125 L 310.00195 225.13867 z M 374.04102 366.61328 L 374.19922 386.21484 L 461.54102 386.21484 L 450.0957 366.61328 L 374.04102 366.61328 z M 156.29297 381.43164 L 156.29297 381.875 L 121.25391 442.63867 L 232.58008 442.63867 L 232.58008 381.43164 L 156.29297 381.43164 z M 306.27734 402.97266 C 291.04436 403.0829 278.22482 411.00215 263.86523 413.64258 C 257.96254 414.72796 245.64258 413.01953 245.64258 413.01953 C 245.64258 413.01953 248.20616 424.52814 254.84375 425.86328 C 268.57884 428.62607 286.30193 413.22463 305.75391 413.64258 C 324.03219 414.03532 336.83725 426.4288 353.92773 426.72656 C 373.08942 427.06039 383.97336 413.53274 408.80273 413.95312 C 425.13762 414.22969 443.14121 429.53665 458.27539 424.95703 C 466.70568 422.40598 465.77344 413.17578 465.77344 413.17578 C 465.77344 413.17578 456.06941 414.59086 446.29492 413.33008 C 431.26074 411.39091 423.11971 403.17293 407.86133 403.20703 C 383.65685 403.26113 374.96558 414.8173 357.2793 414.88867 C 337.58072 414.96817 326.11182 402.82909 306.27734 402.97266 z M 304.64648 425.65234 C 289.4136 425.76258 276.59201 433.68184 262.23242 436.32227 C 256.32963 437.40764 244.00977 435.69922 244.00977 435.69922 C 244.00977 435.69922 246.5753 447.20978 253.21289 448.54492 C 266.94808 451.30771 284.67107 435.90432 304.12305 436.32227 C 322.40133 436.71501 335.20444 449.10849 352.29492 449.40625 C 371.4567 449.74008 382.5942 433.08326 407.17188 436.63477 C 423.19326 438.94986 439.47056 448.92253 459.15234 444.0293 C 467.69994 441.9042 480.14741 429.47607 478.72461 428.48438 C 472.99542 424.49116 466.40378 432.38409 450.7793 434.59961 C 430.54782 437.46839 421.4869 425.85262 406.22852 425.88672 C 382.02404 425.94082 373.33287 437.49699 355.64648 437.56836 C 335.948 437.64786 324.48096 425.50877 304.64648 425.65234 z "/></svg>