<svg width="685pt" height="600pt" viewBox="0 0 685 600" version="1.1" id="svg65" xml:space="preserve" xmlns="http://www.w3.org/2000/svg"><g id="surface1"><path style="fill-rule:evenodd;fill:rgb(0.784314%,1.960784%,1.960784%);fill-opacity:1;stroke-width:0.127844;stroke-linecap:butt;stroke-linejoin:miter;stroke:rgb(0.784314%,1.960784%,1.960784%);stroke-opacity:1;stroke-miterlimit:2.613;" d="M 197.46208 164.743687 L 104.122664 2.938542 L 103.544526 2.076193 L 102.826095 1.430844 L 102.036387 0.853307 L 101.099599 0.423828 L 100.165073 0.134495 L 99.158139 0.0644219 L 98.153467 0.134495 L 97.146533 0.423828 L 96.283285 0.853307 L 95.420036 1.430844 L 94.77062 2.076193 L 94.197007 2.938542 L 0.857591 164.743687 L 0.423139 165.67724 L 0.134635 166.610792 L 0.0644891 167.618937 L 0.134635 168.627083 L 0.423139 169.630708 L 0.857591 170.494188 L 1.431204 171.356536 L 2.076095 172.005276 L 2.939343 172.579422 L 3.802591 173.013422 L 4.810657 173.302755 L 5.817591 173.372828 L 192.50208 173.372828 L 193.509015 173.302755 L 194.442409 173.013422 L 195.376934 172.579422 L 196.170036 172.005276 L 196.888467 171.356536 L 197.46208 170.494188 L 197.896533 169.630708 L 198.181642 168.627083 L 198.255182 167.618937 L 198.181642 166.610792 L 197.896533 165.67724 Z M 197.46208 164.743687 " transform="matrix(3.452621,0,0,3.456221,0,0)" id="path2"/><path style="fill-rule:evenodd;fill:#f9a800;fill-opacity:1;stroke-width:0.127844;stroke-linecap:butt;stroke-linejoin:miter;stroke:rgb(0%, 1%, 1%);stroke-opacity:1;stroke-miterlimit:2.613" d="M 99.158139 18.110458 L 181.856861 161.505641 L 16.458285 161.505641 Z M 99.158139 18.110458 " transform="matrix(3.452621,0,0,3.456221,0,0)" id="path4"/><path id="path6" style="fill:#000202;fill-opacity:1;fill-rule:evenodd;stroke:#000202;stroke-width:0.027966;stroke-linecap:butt;stroke-linejoin:miter;stroke-miterlimit:2.613;stroke-opacity:1" d="M 85.135305 69.478149 C 83.104477 69.613356 80.932191 70.054607 78.622335 70.865338 L 75.720328 75.873291 C 86.319212 71.211727 98.426007 72.928073 105.54482 89.873183 C 106.62909 82.58167 99.351099 68.531699 85.135305 69.478149 z M 85.011418 76.26067 C 81.315223 76.480259 77.330403 77.831336 73.21671 80.224311 L 66.286683 92.193218 C 76.09811 81.439102 94.398521 76.949561 98.868503 100.39175 C 102.14003 97.823501 103.42345 96.128258 103.58766 92.955261 L 103.51299 92.193218 C 99.87757 80.770737 93.143047 75.777575 85.011418 76.26067 z M 83.045775 86.759741 C 75.476082 86.844132 67.642262 94.4654 62.220478 99.267334 L 53.075761 115.15368 C 60.896924 108.03224 85.846926 80.226144 90.524383 106.34145 C 92.850114 104.35152 93.880601 103.38728 94.985583 100.50152 C 96.007353 96.82974 93.771198 93.578729 91.650396 90.743302 C 88.929425 87.847746 86.007828 86.726719 83.045775 86.759741 z M 80.715259 98.021279 C 80.505003 98.028645 80.290319 98.045392 80.071642 98.071715 L 79.165401 98.290834 L 78.294374 98.580308 C 66.954168 104.22827 57.681335 114.43649 48.505948 123.06401 L 31.84953 151.93519 L 40.267048 151.93519 C 47.331269 130.33653 78.008395 95.30685 83.630843 110.94677 C 89.635239 106.46218 87.233205 97.792944 80.715259 98.021279 z M 78.43905 109.56805 C 71.199298 110.18796 50.820923 129.5126 42.989165 151.93519 L 131.81435 151.93519 L 132.64931 151.90001 C 137.47334 151.66051 146.50041 145.9602 156.67318 145.11537 C 139.45695 144.44027 127.6699 155.70723 113.23938 145.04416 C 93.295502 148.97499 49.139855 132.33233 78.43905 109.56805 z M 100.56473 110.862 C 98.152161 110.82333 97.444545 114.19111 100.12604 114.94389 L 109.14178 117.49533 L 108.61908 125.61207 L 105.46166 120.95632 C 104.49194 119.68849 103.15636 119.9844 102.69287 120.13239 L 92.977089 123.95405 C 89.615288 125.11648 90.872687 129.23895 94.421304 127.77825 L 102.87828 124.46519 L 108.15577 132.27677 C 108.70381 133.22503 109.69625 133.35048 110.05693 133.41432 L 123.85716 135.43725 L 127.04343 141.50689 C 127.69492 142.83629 128.87337 142.80613 129.71591 142.63301 L 137.20088 140.27779 C 139.98712 139.29039 138.80966 136.11403 136.26197 136.90963 L 129.64675 138.95545 L 126.4223 132.82266 L 126.80669 130.18729 C 126.83329 129.73344 126.85005 128.84534 126.12488 128.20547 L 122.05486 123.92226 L 127.39473 121.98622 C 130.35115 120.99693 128.86836 117.71272 126.37733 118.63713 L 118.58221 121.44541 C 117.30469 121.80614 116.74146 123.39935 117.82362 124.57157 L 119.65858 126.50295 L 112.77735 125.51289 L 113.37302 116.26962 C 113.40192 115.07763 112.66536 114.27539 111.71116 113.95213 L 101.36618 110.99 C 101.08197 110.90642 100.81431 110.866 100.56473 110.862 z M 78.223945 112.97775 C 52.063615 133.64199 104.98088 148.00394 114.25551 141.96209 C 124.87208 155.99351 149.31694 138.95016 156.51747 144.9789 C 146.37855 136.25142 129.70133 152.48123 114.98186 138.84144 C 108.27624 142.17184 64.23428 137.44323 78.223945 112.97775 z M 131.38329 128.9459 A 3.3973995 3.3938607 0 0 0 127.98573 132.33992 A 3.3973995 3.3938607 0 0 0 131.38329 135.73393 A 3.3973995 3.3938607 0 0 0 134.78084 132.33992 A 3.3973995 3.3938607 0 0 0 131.38329 128.9459 z M 157.93241 146.51909 C 152.41966 146.6309 147.0082 148.34596 139.29083 151.93519 L 166.47 151.93519 L 163.56799 146.93147 C 161.61876 146.62254 159.77 146.48182 157.93241 146.51909 z " transform="scale(3.452621,3.456221)"/></g></svg>