<svg width="159px" height="139px" viewBox="0 0 159 139" version="1.1" id="svg1" xmlns="http://www.w3.org/2000/svg"><g id="layer1" transform="translate(-75.935417,-65.0875)"><path d="M 234.044,197.273 158.955,67.204 c -0.767,-1.323 -2.17,-2.117 -3.678,-2.117 -1.508,0 -2.91,0.82 -3.678,2.117 L 76.511,197.273 c -0.767,1.323 -0.767,2.937 0,4.233 0.767,1.323 2.17,2.117 3.678,2.117 H 230.366 c 1.508,0 2.91,-0.82 3.678,-2.117 0.767,-1.323 0.767,-2.937 0,-4.233 z" id="path1" style="stroke-width:0.3"/><path fill="#f6bd16" d="M 87.544,195.137 155.277,78.326 223.011,195.137 Z" overflow="visible" id="path2" style="fill:#f9a800;stroke-width:0.3"/><path id="path3" style="fill:#000000;stroke:none;" d="m 155.277,110.728 c -7.117,0 -12.887,5.77 -12.887,12.887 0,7.117 5.77,12.887 12.887,12.887 7.117,-0 12.887,-5.77 12.887,-12.887 -0,-7.117 -5.77,-12.887 -12.887,-12.887 z m -11.451,29.201 c -5.047,0 -9.644,1.854 -13.152,4.92 0.197,0.152 0.427,0.289 0.706,0.376 0.556,0.173 1.755,0.361 1.755,0.361 0,0 -0.194,1.322 1.593,2.179 1.416,0.679 2.465,0.13 2.465,0.13 0,0 0.039,1.454 0.858,1.807 0.885,0.382 1.539,0.029 1.539,0.029 0,0 -0.026,0.492 0.45,0.768 0.454,0.263 0.911,0.015 0.947,0.287 0.146,1.117 0.125,1.882 1.316,2.19 1.542,0.399 1.981,-0.694 1.981,-0.694 l 0.277,0.156 c 0,0 -0.244,1.632 1.63,1.805 1.255,0.116 1.742,-1.193 1.742,-1.193 0,0 0.37,0.456 0.62,0.534 0.25,0.078 0.801,-0.091 0.801,-0.091 0,0 0.338,1.405 1.843,0.919 1.011,-0.326 0.604,-2.031 0.604,-2.031 0,0 1.406,0.163 1.925,-1.098 0.627,-1.522 -0.907,-2.418 -0.907,-2.418 l -0.013,-0.225 c 0,0 0.915,-0.187 1.105,-1.298 0.204,-1.187 -0.699,-1.696 -0.699,-1.696 l 0.303,-0.529 c 0,0 1.136,0.457 1.889,-0.561 0.675,-0.912 -0.331,-2.232 -0.331,-2.232 0,0 0.957,-0.156 0.787,-1.58 -0.035,-0.297 -0.176,-0.566 -0.342,-0.815 z m 13.595,0 c -0.074,0.202 -0.126,0.417 -0.127,0.633 -0.004,1.057 0.978,1.866 0.978,1.866 0,0 -1.166,0.617 -1.143,1.864 0.033,1.733 1.623,2.134 1.623,2.134 0,0 -0.407,0.264 -0.469,0.727 -0.084,0.624 0.378,1.154 0.378,1.154 0,0 -1.039,0.437 -1.039,1.734 0,1.57 1.043,1.247 1.536,1.86 0.094,0.117 0.172,0.206 0.288,0.348 -0.559,0.216 -0.956,0.758 -0.956,1.393 0,0.825 0.669,1.493 1.493,1.493 0.535,0 1.004,-0.282 1.268,-0.705 0.003,0.004 0.07,0.085 0.07,0.085 l 0.185,-0.068 c -0.025,0.089 -0.039,0.183 -0.039,0.281 0,0.573 0.465,1.039 1.039,1.039 0.573,0 1.039,-0.465 1.039,-1.039 0,-0.358 -0.181,-0.674 -0.457,-0.861 l 0.184,-0.068 c 0,0 0.261,-0.354 0.336,-0.606 0.062,-0.208 -0.051,-0.675 -0.051,-0.675 0,0 0.464,-0.059 0.682,-0.137 0.221,-0.079 0.621,-0.329 0.621,-0.329 0,0 0.413,1.055 1.32,1.169 0.975,0.123 1.672,-0.431 1.672,-0.431 0,0 0.987,0.979 1.98,0.513 1.045,-0.49 0.65,-2.023 0.65,-2.023 l 0.51,-0.234 c 0,0 0.783,0.702 1.729,0.32 0.939,-0.379 0.871,-1.56 0.871,-1.56 0,0 0.857,0.418 1.784,-0.165 0.776,-0.488 0.904,-1.49 0.904,-1.49 0,0 0.99,0.71 2.19,0.114 1.234,-0.613 1.16,-1.625 1.16,-1.625 0,0 0.858,0.285 1.739,-0.022 0.074,-0.026 0.136,-0.06 0.207,-0.089 -3.649,-4.054 -8.939,-6.599 -14.849,-6.599 z m -28.422,6.575 c -3.006,3.329 -4.906,7.678 -5.12,12.482 h -0.05 v 27.547 h 12.73 v -13.376 c -0.227,0.069 -0.437,0.151 -0.591,0.251 -0.665,0.433 -0.692,1.502 -0.692,1.502 0,0 -0.771,-0.022 -1.271,0.434 -0.619,0.565 -0.554,1.254 -0.554,1.254 0,0 -0.366,-0.122 -0.614,-0.005 -0.273,0.129 -0.381,0.501 -0.381,0.501 0,0 -0.63,-0.494 -1.165,-0.543 -0.484,-0.044 -1.435,-0.286 -1.435,-0.286 l 0.007,-0.344 c 0,0 0.93,-0.075 1.699,-0.623 0.876,-0.623 0.887,-1.216 0.887,-1.216 0,0 1.043,0.071 1.697,-0.288 0.829,-0.457 1.012,-1.493 1.012,-1.493 0,0 0.811,-0.081 1.401,-0.314 v -11.833 -0.091 h 0.006 c 0.048,-0.675 0.609,-1.199 1.286,-1.2 v -0.001 c 0.678,0 1.241,0.524 1.289,1.201 h 0.001 v 0.007 c 0.002,0.028 0.003,0.057 0.003,0.085 -0.001,0.014 -0.002,0.028 -0.003,0.042 v 10.17 c 0.433,-0.066 0.939,-0.172 1.246,-0.371 1.012,-0.653 0.993,-1.754 0.993,-1.754 0,0 1.137,0.405 1.822,-0.455 0.733,-0.92 0.331,-2.026 0.331,-2.026 l 0.65,-0.52 1.634,0.086 c 0,0 0.39,-0.177 0.515,-0.34 0.053,-0.069 0.092,-0.189 0.119,-0.294 0.066,0.008 0.134,0.013 0.203,0.013 0.884,0 1.6,-0.717 1.6,-1.6 0,-0.084 -0.007,-0.166 -0.019,-0.246 0.009,0 0.018,0.001 0.026,0.001 0.614,0 1.113,-0.498 1.113,-1.113 0,-0.614 -0.498,-1.113 -1.113,-1.113 -0.553,0 -1.011,0.404 -1.098,0.932 l -0.178,-0.251 c 0,0 -0.335,-0.059 -0.778,-0.01 -0.274,0.031 -0.754,0.341 -0.754,0.341 0,0 -0.059,-0.669 -0.184,-0.976 -0.104,-0.253 -0.43,-0.409 -0.458,-0.682 -0.084,-0.83 1.405,-0.254 0.949,-2.316 -0.378,-1.71 -2.43,-1.174 -2.43,-1.174 0,0 -0.043,-1.052 -0.702,-1.614 -0.689,-0.588 -1.854,-0.287 -1.854,-0.287 0,0 0.013,-0.744 -0.401,-1.254 -0.413,-0.51 -1.226,-0.524 -1.226,-0.524 0,0 -0.027,-0.832 -0.626,-1.349 -0.733,-0.633 -1.195,-0.299 -1.725,-0.592 -0.179,-0.099 -0.176,-0.256 -0.462,-0.403 -0.308,-0.157 -0.742,-0.029 -0.742,-0.029 0,0 -0.221,-0.943 -0.77,-1.294 -0.6,-0.383 -1.539,0.022 -1.539,0.022 -0,0 -0.599,-1.573 -1.947,-2.167 -0.846,-0.373 -1.716,-0.476 -2.336,-0.504 z m 53.68,1.362 c -0.328,0.095 -0.672,0.226 -1.037,0.443 -1.882,1.121 -2.079,2.934 -2.079,2.934 0,0 -0.536,-0.58 -1.523,-0.271 -0.769,0.241 -1.027,0.853 -1.064,1.159 -0.055,0.457 -0.267,0.191 -0.267,0.191 0,0 -0.228,-0.881 -1.836,-0.88 -1.287,0.001 -1.509,1.483 -1.509,1.483 0,0 -0.693,-0.365 -1.275,0.286 -0.493,0.551 -0.236,1.396 -0.236,1.396 0,0 -0.819,-0.049 -1.315,0.397 -0.516,0.465 -0.431,1.287 -0.431,1.287 0,0 -0.957,-0.786 -2.311,-0.159 -1.109,0.514 -0.876,1.968 -0.876,1.968 0,0 -0.97,-0.101 -1.338,1.199 -0.344,1.213 0.42,1.813 0.42,1.813 0,0 -0.774,0.515 -0.932,0.923 -0.141,0.363 -0.131,0.694 -0.091,0.943 0.014,0.133 0.045,0.261 0.089,0.382 -0.005,0.004 -0.115,0.114 -0.225,0.266 -0.474,0.155 -0.816,0.601 -0.816,1.127 0,0.654 0.53,1.185 1.185,1.185 0.654,0 1.185,-0.53 1.185,-1.185 0,-0.025 -0.001,-0.049 -0.003,-0.073 0.029,-0.029 0.073,-0.072 0.073,-0.072 l 0.541,0.058 c 0,0 -0.182,0.856 0.24,1.442 0.294,0.407 0.67,0.559 0.855,0.624 -0.074,0.198 -0.115,0.412 -0.115,0.635 0,0.998 0.81,1.808 1.808,1.808 0.272,0 0.529,-0.06 0.76,-0.168 0.495,-0.169 0.751,-0.546 0.855,-0.745 l 0.002,-8.168 v -0.091 h 0.006 c 0.048,-0.676 0.609,-1.2 1.286,-1.201 0.678,0.001 1.241,0.525 1.288,1.201 h 0.001 v 0.014 c 0.002,0.026 0.002,0.051 0.003,0.077 -0.001,0.012 -0.002,0.025 -0.003,0.037 v 9.986 c 0.001,0.522 0.192,0.89 0.645,1.144 0.683,0.311 1.598,-0.087 1.598,-0.087 0,0 -0.109,0.995 0.904,1.431 0.855,0.368 2,-0.07 2,-0.07 0,0 0.055,1.098 0.348,1.447 0.307,0.366 0.855,0.927 0.855,0.927 0,0 -0.337,0.131 -0.513,0.473 -0.217,0.423 -0.178,0.634 -0.199,0.705 l -0.802,-0.058 c 0,0 -0.001,-1.205 -0.921,-1.747 -1.023,-0.602 -2.231,-0.091 -2.231,-0.091 0,0 -0.429,-0.669 -0.765,-0.849 -0.394,-0.21 -0.701,-0.173 -0.918,-0.114 v 13.305 h 12.733 v -27.547 h -0.05 c -0.186,-4.174 -1.646,-8.004 -3.996,-11.121 z m -27.75,5.185 c -0.637,0 -1.154,0.517 -1.154,1.154 0,0.637 0.517,1.154 1.154,1.154 0.637,0 1.154,-0.517 1.154,-1.154 0,-0.637 -0.517,-1.154 -1.154,-1.154 z m -6.752,2.438 c -0.5,0 -0.905,0.406 -0.905,0.905 0,0.5 0.406,0.905 0.905,0.905 0.5,0 0.905,-0.406 0.905,-0.905 0,-0.5 -0.405,-0.905 -0.905,-0.905 z m 2.365,1.546 c -0.7,0 -1.268,0.568 -1.268,1.268 0,0.7 0.568,1.268 1.268,1.268 0.7,0 1.268,-0.568 1.268,-1.268 0,-0.7 -0.568,-1.268 -1.268,-1.268 z m 10.549,0.114 c -0.471,0 -0.854,0.382 -0.854,0.853 0,0.471 0.382,0.852 0.852,0.853 -0.001,0.02 -0.002,0.04 -0.002,0.059 0,0.654 0.531,1.185 1.185,1.185 0.654,0 1.185,-0.531 1.185,-1.185 0,-0.654 -0.531,-1.185 -1.185,-1.185 -0.124,0 -0.244,0.019 -0.357,0.055 -0.096,-0.366 -0.429,-0.636 -0.825,-0.636 z m -0.394,6.379 c -0.706,0 -1.278,0.572 -1.278,1.278 0,0.706 0.572,1.278 1.278,1.278 0.706,0 1.278,-0.572 1.278,-1.278 0,-0.706 -0.572,-1.278 -1.278,-1.278 z m -10.58,1.867 c -0.66,0 -1.196,0.535 -1.196,1.195 0,0.66 0.536,1.196 1.196,1.196 0.66,0 1.196,-0.536 1.196,-1.196 0,-0.66 -0.536,-1.195 -1.196,-1.195 z m -4.087,0.103 c -0.614,0 -1.113,0.498 -1.113,1.113 0,0.614 0.498,1.113 1.113,1.113 0.614,0 1.113,-0.499 1.113,-1.113 0,-0.614 -0.498,-1.113 -1.113,-1.113 z m 8.204,1.452 c -0.437,0 -0.791,0.354 -0.791,0.791 0,0.437 0.354,0.791 0.791,0.791 0.437,0 0.791,-0.354 0.791,-0.791 0,-0.437 -0.354,-0.791 -0.791,-0.791 z m 8.47,0.274 c -1.391,-0.02 -1.082,1.446 -1.082,1.446 l -0.579,0.074 c 0,0 0.255,-1.234 -1.061,-1.262 -1.24,-0.027 -1.113,1.368 -1.113,1.368 0,0 -0.808,-0.404 -1.436,0.429 -0.579,0.767 0.41,1.768 0.41,1.768 0,0 -0.62,0.793 -0.289,1.598 0.308,0.749 1.302,0.794 1.302,0.794 0,0 -0.189,1.405 0.536,2.015 1.413,1.19 1.348,-0.062 1.725,0.392 0.17,0.205 -0.089,0.473 -0.043,0.736 0.046,0.261 0.402,0.547 0.241,0.757 -0.156,0.204 -0.235,-0.004 -0.235,-0.004 0,0 -0.47,-0.076 -0.694,-0.019 -0.273,0.07 -0.693,0.39 -0.744,0.429 0.007,-0.056 0.01,-0.113 0.01,-0.171 0,-0.803 -0.651,-1.455 -1.455,-1.455 -0.803,0 -1.455,0.651 -1.455,1.455 0,0.576 0.335,1.074 0.822,1.31 l -0.063,0.084 c 0,0 -0.665,0.517 -0.453,1.582 0.183,0.92 1.143,1.498 1.143,1.498 0,0 -1.386,0.463 -1.28,2.023 0.074,1.092 0.759,1.655 0.759,1.655 0,0 -0.62,0.147 -0.639,0.597 -0.004,0.088 0.013,0.141 0.021,0.21 h 14.358 v -15.918 c -0.005,-0.002 -0.011,-0.007 -0.016,-0.009 -0.619,-0.264 -1.672,0.01 -1.672,0.01 0,0 -0.125,-0.79 -0.986,-0.843 -0.839,-0.052 -1.023,0.838 -1.023,0.838 0,0 -0.557,-0.504 -0.904,-0.613 -0.335,-0.105 -1.054,-0.012 -1.054,-0.012 0,0 0.137,-0.904 -0.527,-1.369 -0.759,-0.532 -1.505,-0.116 -1.505,-0.116 0,0 0.162,-1.259 -1.018,-1.276 z m -10.772,1.22 c -0.563,0 -1.02,0.456 -1.02,1.019 0,0.143 0.029,0.279 0.082,0.402 -0.028,0.006 -0.057,0.013 -0.084,0.022 -0.111,-0.046 -0.338,-0.122 -0.606,0.026 -0.15,0.083 -0.286,0.294 -0.383,0.463 -0.038,-0.878 -0.763,-1.579 -1.651,-1.579 -0.004,0 -0.008,0.001 -0.012,0.001 -0.062,-0.005 -0.111,-0.024 -0.178,-0.024 -1.658,0.008 -1.661,1.72 -1.661,1.72 0,0 -0.954,-0.11 -1.723,0.532 -0.448,0.373 -0.978,1.461 -0.978,1.461 0,0 -0.734,-1.006 -2.314,-0.976 -1.409,0.027 -2.031,0.906 -2.031,0.906 l -0.231,0.091 v 14.026 h 15.961 c -0.025,-0.224 -0.072,-0.562 -0.177,-0.78 -0.172,-0.356 -0.764,-0.907 -0.764,-0.907 0,0 1.599,-0.547 1.47,-2.532 -0.135,-2.071 -2.012,-2.091 -2.012,-2.091 0,0 0.785,-0.725 0.719,-1.77 -0.074,-1.166 -0.898,-1.785 -0.898,-1.785 0,0 0.149,-0.128 0.315,-0.311 0.506,-0.237 0.857,-0.75 0.857,-1.346 0,-0.821 -0.666,-1.486 -1.486,-1.486 -0.196,0 -0.289,-0.01 -0.435,0.011 0,0 0.099,-0.641 -0.027,-0.871 -0.155,-0.283 -0.564,-0.488 -0.594,-0.502 0.309,-0.237 0.509,-0.611 0.509,-1.031 0,-0.275 -0.086,-0.529 -0.231,-0.739 0.356,-0.159 0.604,-0.516 0.604,-0.931 0,-0.563 -0.456,-1.019 -1.019,-1.019 z m 4.564,4.149 c -0.46,0 -0.833,0.373 -0.833,0.833 0,0.46 0.373,0.833 0.833,0.833 0.46,0 0.833,-0.373 0.833,-0.833 0,-0.46 -0.373,-0.833 -0.833,-0.833 z"/></g></svg>