<svg width="685pt" height="600pt" viewBox="0 0 685 600" version="1.1" id="svg65" xmlns="http://www.w3.org/2000/svg"><g id="surface1"><path style="fill-rule:evenodd;fill:rgb(0.784314%,1.960784%,1.960784%);fill-opacity:1;stroke-width:0.127844;stroke-linecap:butt;stroke-linejoin:miter;stroke:rgb(0.784314%,1.960784%,1.960784%);stroke-opacity:1;stroke-miterlimit:2.613;" d="M 197.46208 164.743687 L 104.11927 2.943062 L 103.544526 2.079583 L 102.826095 1.430844 L 102.032993 0.856698 L 101.099599 0.423828 L 100.165073 0.137885 L 99.158139 0.0644219 L 98.150073 0.137885 L 97.146533 0.423828 L 96.283285 0.856698 L 95.420036 1.430844 L 94.77062 2.079583 L 94.197007 2.943062 L 0.853066 164.743687 L 0.423139 165.67724 L 0.134635 166.615312 L 0.0644891 167.622328 L 0.134635 168.627083 L 0.423139 169.634099 L 0.853066 170.497578 L 1.42781 171.361057 L 2.076095 172.009797 L 2.939343 172.583943 L 3.802591 173.013422 L 4.810657 173.302755 L 5.814197 173.372828 L 192.50208 173.372828 L 193.50562 173.302755 L 194.442409 173.013422 L 195.376934 172.583943 L 196.170036 172.009797 L 196.888467 171.361057 L 197.46208 170.497578 L 197.892007 169.634099 L 198.181642 168.627083 L 198.251788 167.622328 L 198.181642 166.615312 L 197.892007 165.67724 Z M 197.46208 164.743687 " transform="matrix(3.452621,0,0,3.456221,0,0)" id="path2"/><path style="fill:#f9a800;fill-opacity:1;fill-rule:evenodd;stroke:#000202;stroke-width:0.127844;stroke-linecap:butt;stroke-linejoin:miter;stroke-miterlimit:2.613;stroke-opacity:1" d="M 99.158139,18.114979 181.85686,161.50903 H 16.458285 Z" id="path4" transform="scale(3.452621,3.456221)"/><path id="path16" style="fill:#000202;fill-opacity:1;fill-rule:evenodd;stroke:#000202;stroke-width:0.027966;stroke-linecap:butt;stroke-linejoin:miter;stroke-miterlimit:2.613;stroke-opacity:1" d="M 100.91773 60.694734 C 100.10407 60.686922 99.290227 61.261339 99.290227 62.44133 L 99.287257 62.44133 L 99.287257 70.699197 L 99.290227 70.699197 C 99.338727 71.512785 99.902523 72.15978 100.74038 72.29491 L 104.80574 72.689494 L 98.011901 79.537286 C 97.851484 79.682016 97.601391 80.177152 97.560054 80.392995 L 97.55072 80.390452 L 95.562166 88.256278 L 88.374183 84.967372 C 85.828073 83.796567 84.183152 87.224993 86.660131 88.377917 L 96.015711 92.620013 C 96.947556 92.988497 98.341551 92.642784 98.718311 91.326913 L 100.42006 84.564311 L 103.4171 93.624486 L 102.5168 103.1568 C 102.27085 106.16861 106.1017 106.42091 106.29577 103.34668 L 107.17062 94.129265 C 107.23263 93.436934 107.21038 92.893331 107.02 92.372921 L 104.25122 84.003163 L 112.00263 76.224221 L 123.48211 84.904222 C 125.40923 86.274973 127.19506 83.638769 125.30689 82.258686 L 112.48333 72.565737 L 112.37259 72.454694 L 112.3378 72.416125 L 112.33017 72.412735 L 110.22833 70.310547 C 109.95712 70.060028 109.62095 69.937181 109.2576 69.876971 L 102.54692 69.220885 L 102.54692 62.44133 L 102.5448 62.44133 C 102.5448 61.292653 101.73139 60.702543 100.91773 60.694734 z M 114.5228 65.415332 C 112.813 65.41539 111.42695 66.799993 111.4269 68.508006 C 111.42695 70.216019 112.813 71.600622 114.5228 71.60068 C 116.23275 71.600856 117.61906 70.216184 117.61912 68.508006 C 117.61906 66.799828 116.23275 65.415155 114.5228 65.415332 z M 66.790291 91.614693 L 31.521569 152.80658 L 166.79457 152.80658 L 160.84121 142.47068 L 126.91572 142.47068 C 109.97804 142.47068 99.60373 118.0304 95.348758 107.90453 C 91.093786 97.778662 91.480433 91.614693 82.575259 91.614693 L 66.790291 91.614693 z M 110.32422 92.827265 C 110.11316 92.827265 109.90386 92.832454 109.69587 92.842523 L 109.41586 95.76397 C 109.72047 95.735905 110.02318 95.72074 110.32422 95.72074 C 112.38237 95.72074 114.51862 96.421993 116.80537 97.200748 C 119.09211 97.9795 121.52925 98.835453 124.22118 98.835453 C 126.91312 98.835453 129.35026 97.9795 131.637 97.200748 C 132.29391 96.977032 132.93825 96.759867 133.5721 96.563734 L 132.09012 93.994488 C 131.62094 94.148656 131.15867 94.306987 130.70233 94.462394 C 128.41559 95.241149 126.27933 95.942402 124.22118 95.942402 C 122.16304 95.942402 120.02678 95.241149 117.74004 94.462394 C 115.45329 93.683642 113.01615 92.827265 110.32422 92.827265 z M 101.27072 95.006166 C 99.590289 95.539939 97.986119 95.942402 96.426828 95.942402 C 95.335049 95.942402 94.221214 95.745108 93.074671 95.443556 C 93.565315 96.398 94.003799 97.482518 94.447184 98.688385 C 95.092155 98.78142 95.751385 98.835453 96.426828 98.835453 C 98.024166 98.835453 99.531764 98.534186 100.97161 98.126388 L 101.27072 95.006166 z M 110.32422 100.03065 C 109.8763 100.03065 109.43523 100.05449 109.00092 100.09761 L 108.71793 103.05297 C 109.25933 102.97067 109.79441 102.92412 110.32422 102.92412 C 112.38237 102.92412 114.51862 103.62538 116.80537 104.40413 C 119.09211 105.18288 121.52925 106.03884 124.22118 106.03884 C 126.91312 106.03884 129.35026 105.18288 131.637 104.40413 C 133.60876 103.73265 135.46876 103.11864 137.26325 102.96227 L 135.69727 100.24765 C 133.93727 100.55153 132.28381 101.1272 130.70233 101.66578 C 128.41559 102.44453 126.27933 103.14579 124.22118 103.14579 C 122.16304 103.14579 120.02678 102.44453 117.74004 101.66578 C 115.45329 100.88702 113.01615 100.03065 110.32422 100.03065 z M 100.55964 102.42824 C 99.135751 102.8496 97.764815 103.14579 96.426828 103.14579 C 96.291609 103.14579 96.155868 103.14279 96.019953 103.13688 C 96.34972 104.05526 96.706988 105.01742 97.105236 106.02104 C 98.197346 105.96406 99.247631 105.77486 100.2635 105.51922 L 100.55964 102.42824 z M 110.32422 107.23403 C 107.63229 107.23403 105.19472 108.09041 102.90798 108.86916 C 101.48837 109.35261 100.12664 109.80628 98.805711 110.08089 C 99.172707 110.93394 99.569296 111.84109 99.995364 112.78915 C 101.33263 112.4704 102.60978 112.02751 103.84307 111.60751 C 106.12981 110.82876 108.26607 110.12751 110.32422 110.12751 C 112.38237 110.12751 114.51862 110.82876 116.80537 111.60751 C 119.09211 112.38627 121.52925 113.24307 124.22118 113.24307 C 126.91312 113.24307 129.35026 112.38627 131.637 111.60751 C 133.92374 110.82876 136.06043 110.12751 138.11858 110.12751 C 139.29049 110.12751 140.48767 110.35502 141.7236 110.69459 L 139.7885 107.33956 C 139.24258 107.27217 138.68617 107.23403 138.11858 107.23403 C 135.42664 107.23403 132.98908 108.09041 130.70233 108.86916 C 128.41559 109.64792 126.27933 110.34959 124.22118 110.34959 C 122.16304 110.34959 120.02678 109.64792 117.74004 108.86916 C 115.45329 108.09041 113.01615 107.23403 110.32422 107.23403 z M 110.32422 114.43741 C 107.63229 114.43741 105.19472 115.29421 102.90798 116.07297 C 102.50527 116.21011 102.10743 116.34498 101.71366 116.47391 C 102.12911 117.33094 102.56495 118.20558 103.02168 119.09062 C 103.29772 118.9975 103.57146 118.90382 103.84307 118.81132 C 106.12981 118.03257 108.26607 117.33089 110.32422 117.33089 C 112.38237 117.33089 114.51862 118.03257 116.80537 118.81132 C 119.09211 119.59008 121.52925 120.44645 124.22118 120.44645 C 126.91312 120.44645 129.35026 119.59008 131.637 118.81132 C 133.92374 118.03257 136.06043 117.33089 138.11858 117.33089 C 140.17673 117.33089 142.31298 118.03257 144.59972 118.81132 C 145.32695 119.05898 146.06953 119.31462 146.83054 119.54793 L 144.65361 115.77374 C 142.62305 115.09 140.46786 114.43741 138.11858 114.43741 C 135.42664 114.43741 132.98908 115.29421 130.70233 116.07297 C 128.41559 116.85172 126.27933 117.55298 124.22118 117.55298 C 122.16304 117.55298 120.02678 116.85172 117.74004 116.07297 C 115.45329 115.29421 113.01615 114.43741 110.32422 114.43741 z M 110.32422 121.64165 C 108.40759 121.64165 106.6198 122.07569 104.92369 122.6067 C 105.41151 123.46546 105.91849 124.32497 106.44427 125.17892 C 107.77787 124.79706 109.06559 124.5347 110.32422 124.5347 C 112.38237 124.5347 114.51862 125.23595 116.80537 126.0147 C 119.09211 126.79346 121.52925 127.64983 124.22118 127.64983 C 126.91312 127.64983 129.35026 126.79346 131.637 126.0147 C 133.92374 125.23595 136.06043 124.5347 138.11858 124.5347 C 140.17673 124.5347 142.31298 125.23595 144.59972 126.0147 C 146.73901 126.74324 149.00992 127.53955 151.49793 127.63924 L 149.6863 124.49825 C 148.34981 124.2249 146.97183 123.76587 145.53439 123.27635 C 143.24765 122.4976 140.81051 121.64165 138.11858 121.64165 C 135.42664 121.64165 132.98908 122.4976 130.70233 123.27635 C 128.41559 124.05511 126.27933 124.75636 124.22118 124.75636 C 122.16304 124.75636 120.02678 124.0551 117.74004 123.27635 C 115.45329 122.4976 113.01615 121.64165 110.32422 121.64165 z M 110.32422 128.84503 C 109.84477 128.84503 109.37318 128.87228 108.90928 128.92132 C 109.59709 129.89395 110.31182 130.84557 111.05311 131.76605 C 112.8865 131.90389 114.78732 132.53084 116.80537 133.21809 C 119.09211 133.99684 121.52925 134.85322 124.22118 134.85322 C 126.91312 134.85322 129.35026 133.99684 131.637 133.21809 C 133.92374 132.43934 136.06043 131.73808 138.11858 131.73808 C 140.17673 131.73808 142.31298 132.43934 144.59972 133.21809 C 146.88647 133.99684 149.32361 134.85322 152.01554 134.85322 C 153.19634 134.85322 154.32799 134.68816 155.41946 134.43744 L 153.89082 131.78724 C 153.25732 131.89664 152.63302 131.95974 152.01554 131.95974 C 149.95739 131.95974 147.82114 131.25849 145.53439 130.47973 C 143.24765 129.70098 140.81051 128.84503 138.11858 128.84503 C 135.42664 128.84503 132.98908 129.70098 130.70233 130.47973 C 128.41559 131.25849 126.27933 131.95974 124.22118 131.95974 C 122.16304 131.95974 120.02678 131.25849 117.74004 130.47973 C 115.45329 129.70098 113.01615 128.84503 110.32422 128.84503 z " transform="scale(3.452621,3.456221)"/></g></svg>