<svg height="525" width="600" version="1.1" id="svg38" xmlns="http://www.w3.org/2000/svg"><path d="M 597.6,499.6 313.8,8 C 310.9,3 305.6,0 299.9,0 294.2,0 288.9,3.1 286,8 L 2.2,499.6 c -2.9,5 -2.9,11.1 0,16 2.9,5 8.2,8 13.9,8 h 567.6 c 5.7,0 11,-3.1 13.9,-8 2.9,-5 2.9,-11.1 0,-16 z" id="path4"/><polygon points="555.88,491.5 43.875,491.5 299.88,48.2 " fill="#f6bd16" transform="matrix(1,0,0,0.99591458,0.125,2.0332437)" id="polygon6" style="fill:#f9a800;fill-opacity:1"/><path id="rect7" style="display:inline;fill:#000000;fill-opacity:1;stroke:none;stroke-width:4.7811" d="m 352.14932,211.97718 c -0.14741,-0.0165 -0.29615,-0.0165 -0.44569,0.001 -0.0798,0.008 -0.16049,0.0229 -0.24001,0.0419 -1.27522,0.30111 -2.01407,1.76317 -1.6564,3.27746 l 0.3675,1.55462 -81.64739,19.21908 c -7.91417,1.86294 -12.83264,9.81446 -10.97024,17.72875 1.86294,7.91417 9.81138,12.83433 17.72553,10.97132 l 81.66773,-19.22443 0.27964,1.18498 c 0.35757,1.51429 1.6712,2.49109 2.9464,2.18996 1.27522,-0.30111 2.01516,-1.76209 1.6575,-3.27638 l -7.4228,-31.43432 c -0.29332,-1.24221 -1.23051,-2.1237 -2.26177,-2.2339 z m -1.02104,8.9099 4.86958,20.62372 -28.67542,6.74993 h -65.79575 c 0.79615,-3.91275 3.77006,-7.16935 7.95099,-8.15349 z m 14.5027,40.92923 c -2.71197,0 -4.0376,6.33755 -5.81458,13.34987 -1.77619,7.00938 -4.00497,14.69262 -4.00497,17.39444 0,5.40469 4.39672,9.78741 9.81955,9.78741 5.42283,0 9.81847,-4.38272 9.81847,-9.78741 0,-2.70182 -2.22875,-10.38506 -4.00497,-17.39444 -1.77696,-7.01232 -3.10152,-13.34987 -5.8135,-13.34987 z m -151.60452,21.6844 c -1.20382,0.024 -2.24453,1.11885 -2.38925,2.57034 l -3.20461,32.13931 c -0.15446,1.54827 0.77153,2.89892 2.07534,3.02892 1.3038,0.12999 2.47703,-1.01135 2.6314,-2.55965 l 0.12107,-1.21176 83.49128,8.26599 c 8.09093,0.80101 15.31954,-5.12608 16.12055,-13.217 0.80101,-8.09094 -5.125,-15.32276 -13.21594,-16.12376 l -83.47093,-8.26385 0.1586,-1.58891 c 0.15447,-1.54826 -0.77044,-2.89997 -2.07424,-3.02997 -0.0814,-0.008 -0.16296,-0.0103 -0.24323,-0.0103 z m 1.7475,8.75458 83.47412,8.26383 c 5.87626,0.58176 10.0788,5.71328 9.49705,11.58953 -0.0634,0.64129 -0.19095,1.25827 -0.35786,1.85567 h -88.42729 l -6.28815,-0.62248 z m 149.85702,34.1932 c -2.71197,0 -4.0376,6.33753 -5.81458,13.34988 -1.77619,7.00937 -4.00497,14.69264 -4.00497,17.39446 0,5.40469 4.39672,9.78739 9.81955,9.78739 5.42283,0 9.81847,-4.3827 9.81847,-9.78739 0,-2.70182 -2.22875,-10.38509 -4.00497,-17.39446 -1.77696,-7.01235 -3.10152,-13.34988 -5.8135,-13.34988 z m -157.90658,3.26247 c -2.71196,0 -4.0376,6.33648 -5.81458,13.34879 -1.77619,7.00938 -4.00497,14.69264 -4.00497,17.39448 0,5.40468 4.39673,9.78739 9.81955,9.78739 5.42283,0 9.81846,-4.38271 9.81846,-9.78739 0,-2.70184 -2.22874,-10.3851 -4.00495,-17.39448 -1.77696,-7.01231 -3.10152,-13.34879 -5.81351,-13.34879 z m 239.35895,16.64662 c -16.39498,9.464 -30.71839,18.57163 -47.85809,21.94478 a 13.376879,13.376879 0 0 1 2.34105,7.5374 13.376879,13.376879 0 0 1 -13.37772,13.37667 13.376879,13.376879 0 0 1 -13.37664,-13.37667 13.376879,13.376879 0 0 1 0.0145,-0.21641 20.121292,20.121292 0 0 1 -9.49813,2.44069 20.121292,20.121292 0 0 1 -20.12121,-20.12123 20.121292,20.121292 0 0 1 0.0407,-0.51108 c -5.14007,-1.92691 -11.18724,-3.29887 -19.95835,-3.29887 h -78.03562 c -6.43878,0 -11.62274,5.18288 -11.62274,11.62166 0,6.43877 5.18396,11.62274 11.62274,11.62274 h 50.37482 c 0,0 12.26376,-0.81162 14.42878,0.19075 2.16503,1.00234 23.20775,17.63044 30.70255,22.59835 10.43422,6.91632 22.71895,13.21063 20.39014,20.80906 -2.24501,7.32501 -15.58711,5.4328 -26.9258,7.76777 -11.3387,2.33497 -19.46688,13.18828 -18.18409,30.88041 17.53078,-3.09418 37.99212,-4.66209 53.03088,-9.72955 15.03879,-5.06747 73.62457,-38.09347 107.58961,-49.02486 z M 207.7244,378.98332 c -2.71196,0 -4.0376,6.33648 -5.81458,13.34878 -1.77619,7.00938 -4.00497,14.69263 -4.00497,17.39445 0,5.4047 4.39673,9.78742 9.81955,9.78742 5.42283,0 9.81846,-4.38272 9.81846,-9.78742 0,-2.70182 -2.22874,-10.38507 -4.00495,-17.39445 -1.77696,-7.0123 -3.10152,-13.34878 -5.81351,-13.34878 z m 52.15338,6.04066 c -1.34123,2.49872 -1.78322,5.48877 -0.99963,8.45991 1.64198,6.22586 7.97577,9.91653 14.20163,8.27455 l 46.26383,-12.2013 -6.2003,-4.53316 z m 63.90363,8.02276 -32.36753,9.05991 -3.1971,1.77748 c -4.08007,2.91779 -5.01565,8.55088 -2.09785,12.63093 2.91783,4.08006 8.55089,5.01565 12.63095,2.09785 l 30.50113,-21.81193 z m -200.47507,32.62144 v 34.29823 h 144.03815 v -34.29823 h -39.0896 c -0.50454,2.19741 -1.92794,4.08857 -4.47744,4.42496 -0.57808,6.05911 -3.51881,6.77974 -9.07921,5.95814 -0.15052,-0.008 -0.30094,-0.0165 -0.45105,-0.0322 -0.5779,1.93525 -1.17437,3.86966 -3.88497,4.24817 -0.94957,3.1271 -3.37318,3.45338 -5.791,3.4596 -2.53499,2e-5 -4.73368,-1.42816 -5.84245,-3.52281 -2.13884,-0.43621 -3.67625,-2.31493 -3.68247,-4.49781 0.001,-0.44981 -0.30311,-1.03205 -0.17249,-1.4625 -1.97314,-1.29622 -3.34732,-2.1724 -3.35354,-4.37138 0.004,-0.0948 -0.14969,-0.13912 -0.13932,-0.23357 -1.9709,-0.37523 -3.31181,-2.01706 -3.54319,-3.97067 z"/></svg>