<svg version="1.1" width="600" height="525" id="svg3069" xmlns="http://www.w3.org/2000/svg"><defs id="defs3073"><path d="M 2.8117,-1.046 A 3,3 0 0 1 0.5,2.958 V 4.5119 A 10.5,10.5 0 0 1 2,25.3078 v 0.5583 A 15,15 0 0 0 14.7975,8.5433 15,15 0 0 0 23.4007,-11.201 l -0.4835,0.2792 A 10.5,10.5 0 0 1 4.1574,-1.8229 z m 3.4148,8.871 a 10,10 0 0 1 -12.453,0 9.5,9.5 0 0 0 -2.1756,2.7417 13.5,13.5 0 0 0 16.8042,0 A 10,10 0 0 0 6.2265,7.825 z" transform="matrix(10,0,0,-10,260,260)" id="p"/></defs><path d="M 597.6,499.6 313.8,8 C 310.9,3 305.6,0 299.9,0 294.2,0 288.9,3.1 286,8 L 2.2,499.6 c -2.9,5 -2.9,11.1 0,16 2.9,5 8.2,8 13.9,8 h 567.6 c 5.7,0 11,-3.1 13.9,-8 2.9,-5 2.9,-11.1 0,-16 z" id="sign_border"/><polygon points="43.875,491.5 299.875,48.2 555.875,491.5 " transform="matrix(1,0,0,0.99591458,0.125,2.0332437)" id="polygon7" style="fill:#f9a800;fill-opacity:1;stroke:none;overflow:visible"/><path d="m 370.769,183.918 c -2.132,0 -55.576,82.727 -56.225,87.032 -0.198,1.315 -0.523,3.648 -0.721,5.185 l -0.361,2.794 -4.327,-1.66 -4.327,-1.66 0,-6.326 0,-6.326 -3.606,-3.886 -3.606,-3.886 5.419,1.919 5.419,1.919 -1.7,-8.503 -1.701,-8.503 3.493,-1.645 3.493,-1.645 -3.606,-1.683 -3.606,-1.683 0,-5.529 0,-5.529 2.644,0 c 1.454,0 3.188,1.623 3.853,3.606 l 1.208,3.606 3.679,-33.173 c 2.023,-18.245 5.399,-46.783 7.502,-63.418 l 3.824,-30.245 -6.299,-10.14 -6.298,-10.14 -1.799,17.308 c -0.989,9.519 -4.037,43.269 -6.771,75 l -4.973,57.692 -2.417,5.769 -2.417,5.769 -0.71,-92.308 c -0.39,-50.769 -0.7,-94.579 -0.687,-97.356 0.031,-6.993 -1.045,-6.374 -6.181,3.559 l -4.451,8.607 4.572,67.8 c 2.514,37.29 4.159,71.386 3.655,75.768 l -0.916,7.968 -11.014,-53.365 c -6.058,-29.351 -12.207,-56.611 -13.666,-60.577 l -2.652,-7.212 1.574,12.981 c 0.866,7.139 3.354,22.716 5.529,34.615 2.175,11.899 6.737,36.93 10.137,55.625 l 6.181,33.99 -1.423,3.51 -1.423,3.51 -0.228,-4.947 -0.228,-4.947 -5.874,-3.144 -5.874,-3.144 4.469,10.696 c 2.458,5.883 4.128,11.021 3.71,11.418 -0.417,0.397 -11.793,-18.608 -25.278,-42.233 -13.486,-23.625 -25.493,-42.971 -26.683,-42.992 -5.121,-0.087 -1.086,9.11 15.227,34.701 20.581,32.288 22.434,35.251 31.031,49.636 l 6.594,11.034 -1.573,2.545 -1.573,2.545 4.537,4.537 4.537,4.537 -1.79,2.896 -1.79,2.896 -8.49,-4.39 -8.49,-4.39 0,2.959 0,2.959 -3.193,0 -3.193,0 1.662,-4.33 1.662,-4.33 -17.51,-8.839 -17.51,-8.839 1.709,-1.709 1.709,-1.709 -3.213,-3.871 -3.213,-3.871 -4.695,0.102 -4.695,0.102 7.212,4.122 c 13.3,7.603 2.912,4.424 -14.861,-4.548 l -17.581,-8.875 -2.096,2.385 c -1.153,1.312 -6.217,9.738 -11.254,18.726 l -9.158,16.342 8.004,1.676 c 4.402,0.922 21.494,3.526 37.982,5.787 l 29.978,4.111 1.753,2.601 c 0.964,1.431 4.349,3.804 7.522,5.275 l 5.769,2.674 -52.369,0.785 -52.369,0.785 c -13.72,0.765 33.058,-81.076 47.912,-105.425 51.719,-84.78 39.214,-58.427 70,-120 10,-20 30,-30 40,-10 17.643,66.021 80,120 57.499,128.566 z M 106.841,414.367 192.123,361.395 C 239.027,332.26 280,306.368 283.173,303.858 l 5.769,-4.565 -3.966,0.726 -3.966,0.726 -1.322,-3.606 -1.322,-3.606 4.694,0 4.694,0 -0.468,-3.606 c -0.258,-1.983 -0.314,-5.305 -0.126,-7.382 l 0.342,-3.776 2.614,1.615 2.614,1.615 -1.422,6.488 -1.422,6.487 3.13,-4.327 3.13,-4.327 -1.666,-7.93 -1.666,-7.93 4.556,1.748 4.556,1.748 0,3.928 0,3.928 4.035,-1.548 4.035,-1.548 1.872,3.028 1.872,3.028 15.967,-9.011 10.507,-5.93 c 9.789,-2.281 8.792,-2.059 15.023,-0.146 l 9.563,2.935 13.283,-8.64 13.283,-8.64 c 6.907,0.012 11.907,10.012 8.638,15.17 l -14.251,8.769 -14.251,8.769 -0.893,9.234 C 370.154,304.703 370,305 365.276,309.397 L 343.75,323.389 c -14.279,9.281 -67.5,42.691 -118.269,74.243 L 133.173,455 c -24.904,15.352 -44.904,-29.648 -26.332,-40.633 z m 134.822,-113.24 -3.274,-3.945 17.624,-3.467 c 9.693,-1.907 18.272,-2.819 19.065,-2.027 1.686,1.686 -21.66,13.383 -26.709,13.383 -1.888,0 -4.905,-1.775 -6.706,-3.945 z m 20.67,-14.311 1.125,-3.379 4.809,-0.933 4.809,-0.933 0,2.76 0,2.76 -5.934,1.552 -5.934,1.552 z M 250,270.456 l 0,-2.885 4.327,0 4.327,0 0,2.885 0,2.885 -4.327,0 -4.327,0 z m 72.115,-2.531 0,-6.122 4.327,0 4.327,0 0,2.531 c 0,1.392 -1.947,4.147 -4.327,6.122 l -4.327,3.591 z M 191.144,261.321 c -0.642,-2.115 -1.851,-5.991 -2.688,-8.613 l -1.521,-4.768 3.923,-5.328 3.923,-5.328 1.754,4.519 c 0.965,2.486 2.031,8.185 2.369,12.666 l 0.616,8.147 -3.604,1.276 -3.604,1.276 z m 30.587,-0.096 c -3.831,-3.831 -4.689,-11.014 -1.298,-10.87 3.91,0.166 12.26,7.687 12.26,11.044 l 0,3.288 -3.75,0 c -2.062,0 -5.308,-1.558 -7.212,-3.462 z m 60,2.461 c 0,-0.551 2.596,-3.994 5.769,-7.653 l 5.769,-6.652 0,4.191 c 0,4.52 -5.477,11.114 -9.231,11.114 -1.269,0 -2.308,-0.45 -2.308,-1.001 z m -93.246,14.694 -16.804,-2.874 -3.244,3.244 -3.244,3.244 20.048,-0.37 20.048,-0.37 z m 88.412,-14.854 1.552,-4.046 -30.811,-36.308 -30.811,-36.308 -0.951,2.823 -0.951,2.823 24.598,30.129 24.598,30.129 -3.454,1.419 -3.454,1.419 7.212,5.918 c 8.591,7.05 10.423,7.344 12.474,2.001 z m 39.26,-13.262 c 1.115,-0.793 10.661,-22.105 21.214,-47.359 l 19.186,-45.916 -6.213,-11.055 c -3.417,-6.08 -6.983,-11.055 -7.924,-11.055 -0.941,0 -6.373,18.822 -12.071,41.827 l -10.36,41.827 2.561,0 2.561,0 -1.843,7.933 -1.843,7.933 -3.742,3.028 -3.742,3.028 -1.569,11.395 -1.569,11.395 1.664,-5.769 c 0.915,-3.173 2.576,-6.418 3.692,-7.212 z m -69.224,-9.213 -9.866,-8.237 -1.158,3.475 -1.158,3.475 8.178,6.521 8.178,6.521 2.846,-1.759 2.846,-1.759 z m -21.053,-9.537 -1.66,-4.327 3.067,0 3.067,0 -12.16,-10.16 -12.16,-10.16 -4.1,3.403 -4.1,3.403 2.286,2.28 c 3.313,3.304 25.176,19.713 26.392,19.807 0.566,0.044 0.283,-1.867 -0.631,-4.247 z m 36.011,-59.243 -14.406,-41.719 -0.165,5.769 c -0.254,8.908 10.773,52.892 17.912,71.448 l 6.402,16.641 2.331,-5.211 2.331,-5.211 z m 0.478,-36.671 c -0.93,-5.95 -2.713,-13.413 -3.963,-16.587 l -2.271,-5.769 -0.167,5.769 c -0.183,6.341 5.171,27.404 6.967,27.404 0.619,0 0.364,-4.868 -0.566,-10.817 z m 15.166,-36.91 -2.006,-13.378 -1.442,1.442 c -0.793,0.793 -0.539,7.463 0.564,14.821 l 2.006,13.378 1.442,-1.442 c 0.793,-0.793 0.54,-7.463 -0.564,-14.821 z" id="path4831" style="fill:#000000"/><path d="m 0.643,344.965 c 0.068,-0.051 0,0.17 0,0 z" id="path1965" style="fill:none;stroke:#000000;stroke-width:1;stroke-linecap:butt;stroke-linejoin:miter;"/><g transform="translate(643.8699,-1.96994)" id="g4881"><g id="g4877"><path d="m -226.356,337.129 c -4.892,1.454 -2.534,29.075 -4.897,25.648 -0.397,-1.719 -5.95,-9.123 -9.52,-8.462 0,0 5.028,8.325 -2.507,30.271 0,0 -3.04,-8.714 -7.535,-9.507 0,0 -0.934,21.013 -2.52,26.301 0,0 -0.652,-1.192 -5.015,-4.101 -1.807,9.592 -4.898,52.636 27.359,46.542 -5.42,-2.38 -15.194,-11.239 -16.781,-26.575 0,0 2.638,1.192 3.696,1.985 0.334,0.251 2.78,-12.958 3.97,-14.809 0,0 2.515,19.703 9.389,23.141 0,0 -3.976,-14.816 -0.274,-22.749 0,0 3.833,10.851 6.477,12.04 0,0 7.54,-11.372 5.028,-27.633 0,0 11.233,13.351 5.681,25.778 -0.222,0.498 6.347,-5.952 7.404,-10.447 0,0 2.91,4.237 0.927,14.417 -0.101,0.519 3.175,-1.332 4.101,-2.39 0,0 0.394,17.195 -20.098,26.053 6.622,5.629 41.785,0.392 35.703,-33.849 C -187.275,412.549 -190,415 -190,415 c -0.793,-7.404 9.114,-22.744 -2.52,-35.965 0,0 -2.511,8.599 -4.362,9.128 0,0 -4.89,-29.618 -12.955,-29.618 0,0 0.134,9.652 -1.188,10.578 0,0 -6.483,-19.825 -10.317,-20.751 -2.05,-1.611 -5.015,-11.244 -5.015,-11.244 z m 3.565,28.299 c -0.132,4.759 0.527,5.415 -1.985,8.985 -0.228,-2.023 -0.274,-9.052 1.985,-8.985 z" id="path1933" style="fill:#000000;fill-rule:evenodd;stroke:#000000;stroke-width:0.4;stroke-linecap:butt;stroke-linejoin:miter;stroke-opacity:1"/><rect width="95" height="11.6" x="-270" y="450" id="rect1935" style="fill:#000000;stroke:#000000;stroke-width:0.75;stroke-linecap:square;stroke-miterlimit:4;stroke-opacity:0.4"/></g></g></svg>