<svg width="158.68385mm" height="138.53583mm" viewBox="0 0 158.68385 138.53583" version="1.1" id="svg1" xmlns="http://www.w3.org/2000/svg"><g id="layer1" transform="translate(6.6145833,-57.94375)"><path d="M 151.4938,190.12958 76.405051,60.060417 C 75.637759,58.7375 74.235468,57.94375 72.727343,57.94375 c -1.508125,0 -2.910417,0.820208 -3.677709,2.116667 L -6.0391146,190.12958 c -0.7672916,1.32292 -0.7672916,2.93688 0,4.23333 0.7672917,1.32292 2.1695833,2.11667 3.6777083,2.11667 H 147.81609 c 1.50813,0 2.91042,-0.82021 3.67771,-2.11667 0.76729,-1.32291 0.76729,-2.93687 0,-4.23333 z" id="sign_border" style="stroke-width:0.264583"/><polygon points="299.875,48.2 555.875,491.5 43.875,491.5 " transform="matrix(0.26458333,0,0,0.2635024,-6.6145833,58.481712)" id="polygon7" style="overflow:visible;fill:#f9a800;fill-opacity:1;stroke:none"/><path id="rect18" style="display:inline;fill:#000000;fill-opacity:1;stroke:none;stroke-width:30;stroke-dasharray:none;stroke-opacity:1" d="m 72.727311,113.22729 c -2.598843,2e-5 -4.705604,2.10679 -4.705638,4.70562 -1.4e-5,2.59887 2.106763,4.70569 4.705638,4.70571 2.598891,1e-5 4.705718,-2.10681 4.705699,-4.70571 -2.9e-5,-2.59886 -2.10684,-4.70563 -4.705699,-4.70562 z m -4.923248,10.91239 c -3.509615,0 -6.335095,2.87275 -6.335095,6.4412 v 18.57399 c 0,1.31129 1.055637,2.36694 2.36692,2.36694 1.311298,0 2.367015,-1.05565 2.367015,-2.36694 v -17.73401 c 0,-0.20008 0.161047,-0.36119 0.361109,-0.36119 0.200078,0 0.361106,0.16111 0.361106,0.36119 v 43.1666 c 0,1.39445 1.122502,2.51701 2.516925,2.51701 1.394426,0 2.517169,-1.12256 2.517169,-2.51701 v -25.77729 c 0,-0.42555 0.342609,-0.7681 0.768178,-0.7681 0.425556,0 0.768099,0.34255 0.768099,0.7681 v 25.77897 c 0.0016,1.39364 1.123064,2.51533 2.516926,2.51533 1.394425,0 2.517074,-1.12256 2.517074,-2.51701 v -43.1666 c 0,-0.20008 0.161043,-0.36119 0.361103,-0.36119 0.20008,0 0.361108,0.16111 0.361108,0.36119 v 17.73401 c 0,1.31129 1.055736,2.36694 2.367018,2.36694 1.311283,0 2.366937,-1.05565 2.366937,-2.36694 v -18.57399 c 0,-3.56845 -2.825481,-6.4412 -6.335112,-6.4412 z m -29.868724,18.04407 v 0.96698 h 7.113942 v 32.98678 H 18.178672 v 0.96696 h 40.390954 v -34.92072 z m 48.949736,0 v 34.92072 h 40.390935 v -0.96696 h -26.8706 v -32.98678 h 7.11395 v -0.96698 z m -34.637149,0.96698 h 4.710115 v 2.19053 l -10.297191,9.80792 v -6.67688 z m 36.248718,0 h 4.710131 l 5.587063,5.32157 v 6.67688 l -10.297194,-9.80792 z m -31.538603,7.30724 v 6.67689 l -10.297191,9.80792 v -6.67689 z m 31.538603,0 10.297194,9.80792 v 6.67689 l -10.297194,-9.80792 z m -49.618897,4.84787 v 3.01852 h -9.747371 v 3.94228 h 9.747371 v 3.01851 l 5.39994,-4.98969 z m 67.699213,0 -5.39994,4.98962 5.39994,4.98969 v -3.01851 h 9.74737 v -3.94228 h -9.74737 z m -49.618919,6.94563 v 6.6769 l -7.568649,7.20914 H 46.66085 v -4.07813 z m 31.538603,0 10.297194,9.80791 v 4.07813 H 96.06531 l -7.568666,-7.20914 z"/></g></svg>