<svg version="1.1" width="600" height="525" id="svg3069" xmlns="http://www.w3.org/2000/svg"><defs id="defs3073"><path transform="scale(10,-10) translate(26,-26)" id="p" d="M 2.812,-1.046 A 3 3 0 0 1 0.5,2.958 V 4.512 A 10.5 10.5 0 0 1 2,25.308 V 25.866 A 15 15 0 0 0 14.797,8.543 15 15 0 0 0 23.400,-11.201 L 22.917,-10.922 A 10.5 10.5 0 0 1 4.157,-1.823 z M 6.226,7.825 A 10 10 0 0 1 -6.226,7.825 9.5 9.5 0 0 0 -8.4021,10.567 13.5 13.5 0 0 0 8.402,10.567 10 10 0 0 0 6.226,7.825 z"/></defs><path id="sign_border" d="M 597.6,499.6 313.8,8 C 310.9,3 305.6,0 299.9,0 294.2,0 288.9,3.1 286,8 L 2.2,499.6 c -2.9,5 -2.9,11.1 0,16 2.9,5 8.2,8 13.9,8 h 567.6 c 5.7,0 11,-3.1 13.9,-8 2.9,-5 2.9,-11.1 0,-16 z"/><polygon transform="matrix(1,0,0,1,0.125,2.0)" style="fill:#f9a800;fill-opacity:1;stroke:none;overflow:visible" id="polygon7" points="555.875,491.5 43.875,491.5 299.875,48.2 "/><g id="g4465" transform="translate(640.5,0)"><path id="path4458" d="m -347.531,346.406 c -11.461,0.081 -22.761,2.873 -30.562,8.219 -27.454,18.811 -33.97,59.013 -13.375,82.469 l 8.812,10.031 -17.625,0 c -16.857,0 -17.594,0.283 -17.594,7.188 l 0,7.219 70.656,0 70.688,0 0,-7.219 c 0,-6.826 -0.875,-7.188 -16.031,-7.188 l -16,0 7.094,-9.375 c 22.295,-29.471 12.174,-72.005 -20.594,-86.5 -7.546,-3.338 -16.554,-4.907 -25.469,-4.844 z m 2.812,14.156 c 14.021,-0.099 27.82,6.319 35.344,20.812 10.282,19.806 3.699,46.313 -14.188,57.219 -27.547,16.796 -65.469,-4.169 -65.469,-36.188 0,-25.711 22.44,-41.689 44.312,-41.844 z" style="fill:#000000"/><path id="path4452" d="m -294.83,367.627 c -7.216,-11.386 -7.819,-14.011 -5.048,-21.96 4.065,-11.66 4.048,-11.737 -1.901,-8.553 -4.519,2.419 -4.94,1.341 -4.013,-10.295 l 1.036,-12.997 -10.238,11.118 -10.238,11.118 2.859,-12.848 c 3.377,-15.179 -0.553,-35.294 -9.044,-46.287 l -5.57,-7.212 -0.064,23.368 c -0.062,22.593 -4.007,41.536 -8.65,41.536 -1.239,0 -3.895,-3.966 -5.904,-8.814 -4.309,-10.403 -7.813,-8.12 -9.103,5.93 -1.393,15.172 -8.632,12.984 -14.317,-4.327 l -4.736,-14.423 -2.123,12.26 c -1.167,6.743 -3.417,12.26 -4.999,12.26 -1.593,0 -2.181,3.541 -1.319,7.933 1.203,6.126 -0.616,10.509 -7.984,19.241 l -9.542,11.308 -6.593,-12.751 c -5.278,-10.209 -6.922,-19.221 -8.242,-45.206 -1.225,-24.107 -0.765,-32.454 1.787,-32.452 1.89,0.002 4.238,1.301 5.218,2.888 0.981,1.587 2.78,2.885 3.999,2.885 2.588,0 8.982,-32.58 8.982,-45.765 0,-4.973 0.912,-9.042 2.026,-9.042 1.114,0 6.307,4.149 11.538,9.22 l 9.512,9.22 0,-30.854 c 0,-17.039 1.198,-30.854 2.676,-30.854 1.472,0 6,4.219 10.064,9.375 8.049,10.212 8.101,10.122 8.826,-15.144 0.25,-8.726 2.241,-19.111 4.423,-23.077 l 3.968,-7.212 2.775,9.476 c 1.526,5.212 7.947,15.351 14.268,22.532 6.321,7.181 12.478,17.196 13.682,22.255 2.132,8.961 2.197,8.994 2.484,1.266 0.36,-9.678 3.127,-9.989 11.319,-1.269 5.938,6.321 12.136,21.814 16.374,40.929 l 1.918,8.651 3.721,-6.952 3.721,-6.952 4.809,7.34 c 5.639,8.606 6.872,25.193 3.814,51.282 -1.955,16.679 -1.736,18.16 1.985,13.405 3.913,-4.999 4.307,-4.687 6.091,4.823 2.148,11.452 -0.231,25.457 -6.362,37.454 -4.534,8.871 -14.12,19.378 -17.528,19.212 -1.19,-0.058 -5.851,-5.925 -10.359,-13.037 z" style="fill:#000000"/></g></svg>